<svg clip-rule="evenodd" fill-rule="evenodd" height="159.62" image-rendering="optimizeQuality" shape-rendering="geometricPrecision" text-rendering="geometricPrecision" viewBox="0 0 1441.7584 159.68935" width="1441.8" xmlns="http://www.w3.org/2000/svg"><path d="M19.133 32.654q-3.572 2.337-4.484 2.701-1.368.536-2.913.536-2.406 0-3.977-1.393-1.545-1.393-1.545-3.666 0-1.436.76-2.486 1.039-1.458 3.597-2.744 2.584-1.286 8.562-3.13v-.772q0-2.937-1.115-4.03-1.089-1.093-3.192-1.093-1.596 0-2.533.729-.963.729-.963 1.672l.051 1.243q0 .986-.608 1.522-.583.536-1.545.536-.937 0-1.545-.557-.583-.557-.583-1.522 0-1.843 2.229-3.387 2.229-1.543 6.257-1.543 3.09 0 5.066.879 1.494.664 2.204 2.079.456.922.456 3.773v6.667q0 2.808.127 3.451.127.622.405.836.304.214.684.214.405 0 .709-.15.532-.279 2.052-1.565v1.2q-2.837 3.215-5.421 3.215-1.241 0-1.976-.729t-.76-2.486zm0-1.393v-7.481q-3.825 1.286-4.94 1.822-2.001.943-2.862 1.972-.861 1.029-.861 2.251 0 1.543 1.089 2.572 1.089 1.008 2.508 1.008 1.925 0 5.066-2.144zM28.531 5.903v-.9q3.85 1.608 6.409 3.794 3.622 3.13 5.598 7.352 1.976 4.201 1.976 8.767 0 6.645-3.876 12.111-3.85 5.487-10.107 7.845v-.793q3.116-1.479 5.117-4.008 2.026-2.508 2.989-6.388.988-3.901.988-8.124 0-4.566-.836-8.338-.633-2.958-1.596-4.737-.937-1.779-2.508-3.43-1.571-1.651-4.154-3.151zM57.492 15.849h10.816v.793h-.532q-1.14 0-1.722.429-.557.407-.557 1.029 0 .836.836 2.315l5.649 9.903 5.193-10.846q.431-.879.431-1.736 0-.386-.177-.579-.203-.236-.633-.364-.431-.15-1.52-.15v-.793h7.549v.793q-.937.086-1.444.343-.507.257-1.115.965-.228.3-.861 1.651l-9.448 19.592q-1.368 2.851-3.597 4.309-2.204 1.458-4.256 1.458-1.494 0-2.457-.729-.963-.729-.963-1.672 0-.9.684-1.458.709-.536 1.925-.536.836 0 2.28.472 1.013.322 1.267.322.76 0 1.647-.664.912-.664 1.824-2.572l1.647-3.408-8.334-14.812q-.38-.664-1.216-1.651-.633-.75-1.039-1.008-.583-.343-1.875-.6v-.793zM103.832 19.236q3.369-3.966 7.27-3.966 3.572 0 6.231 2.594 2.66 2.572 2.66 7.052 0 5.23-4.104 8.424-3.521 2.744-7.853 2.744-2.026 0-4.129-.622-2.077-.622-4.256-1.865v-20.342q0-3.344-.203-4.116-.177-.772-.583-1.05-.405-.279-1.013-.279-.709 0-1.773.343l-.355-.75 6.966-2.401h1.14v14.233zm0 1.372v11.747q1.292 1.072 2.66 1.629 1.393.536 2.837.536 2.305 0 4.281-2.144 2.001-2.144 2.001-6.238 0-3.773-2.001-5.788-1.976-2.036-4.509-2.036-1.343 0-2.685.579-1.013.429-2.584 1.715zM122.962 5.903v-.9q3.85 1.608 6.409 3.794 3.622 3.13 5.598 7.352 1.976 4.201 1.976 8.767 0 6.645-3.876 12.111-3.85 5.487-10.107 7.845v-.793q3.116-1.479 5.117-4.008 2.026-2.508 2.989-6.388.988-3.901.988-8.124 0-4.566-.836-8.338-.633-2.958-1.596-4.737-.937-1.779-2.508-3.43-1.571-1.651-4.154-3.151zM404.282 16.556h27.332v1.758h-27.332zm0 6.988h27.332v1.758h-27.332zM447.472 21.122q0-4.973 1.773-8.553 1.773-3.601 4.712-5.359 2.28-1.393 4.712-1.393 3.952 0 7.093 3.408 3.926 4.223 3.926 11.447 0 5.059-1.722 8.596t-4.408 5.144q-2.66 1.586-5.142 1.586-4.914 0-8.182-4.909-2.761-4.137-2.761-9.967zm4.965.536q0 6.002 1.748 9.796 1.444 3.194 4.306 3.194 1.368 0 2.837-1.029 1.469-1.05 2.229-3.494 1.165-3.687 1.165-10.396 0-4.973-1.216-8.296-.912-2.465-2.356-3.494-1.039-.707-2.508-.707-1.722 0-3.065 1.308-1.824 1.779-2.482 5.595-.659 3.816-.659 7.524zM838.512 36.148l2.837-10.782h.861q-.177 1.565-.177 2.594 0 2.937 2.204 4.78 2.229 1.843 5.801 1.843 3.318 0 5.041-1.715 1.722-1.736 1.722-3.987 0-1.458-.785-2.658-1.191-1.779-6.358-6.259-2.508-2.144-3.217-3.194-1.165-1.736-1.165-3.644 0-3.044 2.685-5.209t6.89-2.165q1.419 0 2.685.236.785.129 2.862.857 1.469.493 1.621.536.355.064.785.064.735 0 1.267-.322.532-.322 1.241-1.372h.963l-2.634 9.646h-.861q.101-1.286.101-2.079 0-2.594-2.026-4.244t-5.345-1.651q-2.634 0-4.281 1.308t-1.647 3.022q0 1.5 1.039 2.872 1.064 1.35 4.838 4.437 3.8 3.065 4.914 4.802 1.115 1.715 1.115 3.666 0 2.208-1.393 4.287-1.368 2.058-3.952 3.194-2.584 1.136-5.649 1.136-1.52 0-2.837-.236t-4.205-1.157q-.988-.322-1.647-.322-1.494 0-2.33 1.715h-.963zM877.572 10.769l-1.976 5.83h3.977l-.431 1.35h-3.952l-4.357 12.647q-.709 2.036-.709 2.637 0 .364.203.557.203.193.481.193.633 0 1.672-.75.608-.429 2.71-2.637l.836.536q-2.33 2.872-4.408 4.051-1.419.815-2.862.815-1.115 0-1.824-.579-.709-.6-.709-1.522 0-1.157.811-3.537l4.23-12.411h-3.825l.253-.836q2.786-.643 4.636-1.908 1.849-1.286 4.129-4.437h1.115zM902.832 16.085l-4.94 14.533-.557 1.951q-.076.279-.076.472 0 .343.253.6.203.193.507.193.329 0 .861-.343.988-.622 2.634-2.572l.861.514q-1.748 2.229-3.597 3.408-1.849 1.157-3.42 1.157-1.089 0-1.647-.472-.532-.45-.532-1.329 0-1.05.557-2.765l.532-1.608q-3.318 3.666-6.105 5.123-2.001 1.05-3.926 1.05-1.849 0-3.192-1.286-1.343-1.308-1.343-3.58 0-3.408 2.406-7.181 2.432-3.794 6.155-6.066 2.913-1.801 5.497-1.801 1.545 0 2.558.686 1.039.686 1.571 2.272l.912-2.444 4.028-.514zm-9.018 1.115q-1.621 0-3.445 1.286-2.584 1.822-4.61 5.402-2.001 3.58-2.001 6.473 0 1.458.861 2.315.861.836 1.976.836 2.761 0 6.003-3.451 4.332-4.587 4.332-9.41 0-1.822-.836-2.637t-2.28-.815zM915.872 16.085l-3.369 9.753q4.737-5.981 7.245-7.867 2.533-1.886 4.864-1.886 1.267 0 2.077.707.836.707.836 1.843 0 1.286-.735 3.43l-3.09 9.024q-.532 1.565-.532 1.908 0 .3.203.514.203.193.431.193.304 0 .735-.279 1.343-.9 2.938-2.744l.785.407q-2.356 2.851-4.458 4.073-1.469.836-2.634.836-.937 0-1.494-.493-.557-.472-.557-1.286 0-1.029.861-3.537l2.938-8.617q.557-1.608.557-2.508 0-.429-.329-.686-.329-.279-.811-.279-.709 0-1.697.514-1.875.965-3.901 3.194-2.026 2.208-4.281 5.659-1.191 1.822-1.976 3.987l-1.267 3.537h-3.8l4.61-13.419q.811-2.422.811-2.915 0-.472-.456-.815-.431-.364-1.089-.364-.304 0-1.064.086l-.963.129-.152-.772 8.764-1.329zM958.402 5.003l-8.714 25.294q-.709 2.058-.709 2.701 0 .214.203.407.228.193.456.193.329 0 .785-.279.861-.514 2.888-2.572l.861.45q-1.824 2.144-3.698 3.473-1.849 1.329-3.47 1.329-.861 0-1.419-.514-.557-.514-.557-1.458 0-1.222.76-3.28l.988-2.658q-3.673 4.802-6.687 6.645-2.077 1.265-3.977 1.265-1.925 0-3.369-1.436-1.419-1.458-1.419-3.944 0-3.194 2.406-6.816 2.406-3.623 6.358-5.895 3.116-1.822 5.725-1.822 1.368 0 2.356.472t1.95 1.565l2.482-7.46q.279-.793.456-1.265.304-.857.304-1.415 0-.45-.38-.75-.532-.364-1.368-.364-.583 0-1.925.15v-.793l8.714-1.222zm-9.398 15.219q0-1.372-.937-2.208-.937-.836-2.381-.836-3.192 0-6.662 4.459-3.445 4.459-3.445 8.531 0 1.608.836 2.465.836.836 2.001.836 2.634 0 6.611-4.823t3.977-8.424zM980.602 16.085l-4.94 14.533-.557 1.951q-.076.279-.076.472 0 .343.253.6.203.193.507.193.329 0 .861-.343.988-.622 2.635-2.572l.861.514q-1.748 2.229-3.597 3.408-1.849 1.157-3.42 1.157-1.089 0-1.647-.472-.532-.45-.532-1.329 0-1.05.557-2.765l.532-1.608q-3.318 3.666-6.105 5.123-2.001 1.05-3.926 1.05-1.849 0-3.192-1.286-1.343-1.308-1.343-3.58 0-3.408 2.406-7.181 2.432-3.794 6.155-6.066 2.913-1.801 5.497-1.801 1.545 0 2.558.686 1.039.686 1.571 2.272l.912-2.444 4.028-.514zm-9.018 1.115q-1.621 0-3.445 1.286-2.584 1.822-4.61 5.402-2.001 3.58-2.001 6.473 0 1.458.861 2.315.861.836 1.976.836 2.761 0 6.003-3.451 4.332-4.587 4.332-9.41 0-1.822-.836-2.637t-2.28-.815zM985.002 17.285l8.739-1.2-3.648 10.418q4.433-6.409 8.055-8.96 2.052-1.458 3.344-1.458.836 0 1.317.429.481.407.481 1.2 0 1.415-.861 2.701-.608.965-1.748.965-.583 0-1.013-.322-.405-.322-.507-.986-.051-.407-.228-.536-.203-.171-.481-.171-.431 0-.811.171-.659.3-2.001 1.672-2.103 2.101-4.56 5.445-1.064 1.415-1.824 3.194-1.064 2.444-1.216 2.937l-.811 2.701h-3.876l4.686-13.311q.811-2.315.811-3.301 0-.386-.38-.643-.507-.343-1.343-.343-.532 0-1.95.193l-.177-.793zM1028.502 5.003l-8.714 25.294q-.709 2.058-.709 2.701 0 .214.203.407.228.193.456.193.329 0 .785-.279.861-.514 2.888-2.572l.861.45q-1.824 2.144-3.698 3.473-1.849 1.329-3.47 1.329-.861 0-1.419-.514-.557-.514-.557-1.458 0-1.222.76-3.28l.988-2.658q-3.673 4.802-6.687 6.645-2.077 1.265-3.977 1.265-1.925 0-3.369-1.436-1.419-1.458-1.419-3.944 0-3.194 2.406-6.816 2.406-3.623 6.358-5.895 3.116-1.822 5.725-1.822 1.368 0 2.356.472t1.95 1.565l2.482-7.46q.279-.793.456-1.265.304-.857.304-1.415 0-.45-.38-.75-.532-.364-1.368-.364-.583 0-1.925.15v-.793l8.714-1.222zm-9.398 15.219q0-1.372-.937-2.208-.937-.836-2.381-.836-3.192 0-6.662 4.459-3.445 4.459-3.445 8.531 0 1.608.836 2.465.836.836 2.001.836 2.634 0 6.611-4.823t3.977-8.424zM1037.402 16.063q1.064 0 1.824.643.76.622.76 1.522t-.76 1.543q-.76.643-1.824.643t-1.824-.643q-.76-.643-.76-1.543 0-.9.76-1.522.76-.643 1.824-.643zm-5.37 15.519q1.064 0 1.798.643.735.622.735 1.522 0 .879-.76 1.522-.735.622-1.773.622-1.064 0-1.824-.622-.735-.643-.735-1.522 0-.9.735-1.522.76-.643 1.824-.643zM19.133 88.528q-3.572 2.337-4.484 2.701-1.368.536-2.913.536-2.406 0-3.977-1.393-1.545-1.393-1.545-3.666 0-1.436.76-2.486 1.039-1.458 3.597-2.744 2.584-1.286 8.562-3.13v-.772q0-2.937-1.115-4.03-1.089-1.093-3.192-1.093-1.596 0-2.533.729-.963.729-.963 1.672l.051 1.243q0 .986-.608 1.522-.583.536-1.545.536-.937 0-1.545-.557-.583-.557-.583-1.522 0-1.843 2.229-3.387 2.229-1.543 6.257-1.543 3.09 0 5.066.879 1.494.665 2.204 2.079.456.922.456 3.773v6.666q0 2.808.127 3.451.127.622.405.836.304.214.684.214.405 0 .709-.15.532-.279 2.052-1.565v1.2q-2.837 3.215-5.421 3.215-1.241 0-1.976-.729t-.76-2.486zm0-1.393v-7.481q-3.825 1.286-4.94 1.822-2.001.943-2.862 1.972-.861 1.029-.861 2.251 0 1.543 1.089 2.572 1.089 1.008 2.508 1.008 1.925 0 5.066-2.144zM28.531 61.778v-.9q3.85 1.608 6.409 3.794 3.622 3.13 5.598 7.352 1.976 4.201 1.976 8.767 0 6.645-3.876 12.111-3.85 5.487-10.107 7.845v-.793q3.116-1.479 5.117-4.008 2.026-2.508 2.989-6.388.988-3.901.988-8.124 0-4.566-.836-8.338-.633-2.958-1.596-4.737-.937-1.779-2.508-3.43-1.571-1.651-4.154-3.151zM70.152 71.138q5.269 0 8.461 3.387 2.71 2.894 2.71 6.645 0 2.637-1.494 5.337-1.494 2.701-4.129 4.073-2.609 1.372-5.826 1.372-5.244 0-8.334-3.537-2.609-2.979-2.609-6.688 0-2.701 1.571-5.359 1.596-2.679 4.18-3.944 2.584-1.286 5.471-1.286zm-.785 1.393q-1.343 0-2.71.686-1.343.664-2.179 2.358-.836 1.693-.836 4.351 0 4.287 2.001 7.395 2.026 3.108 5.319 3.108 2.457 0 4.053-1.715t1.596-5.895q0-5.23-2.66-8.231-1.798-2.058-4.585-2.058zM104.782 75.108q3.369-3.966 7.27-3.966 3.572 0 6.231 2.594 2.66 2.572 2.66 7.052 0 5.23-4.104 8.424-3.521 2.744-7.853 2.744-2.026 0-4.129-.622-2.077-.622-4.256-1.865v-20.342q0-3.344-.203-4.116-.177-.772-.583-1.05-.405-.279-1.013-.279-.709 0-1.773.343l-.355-.75 6.966-2.401h1.14v14.233zm0 1.372v11.747q1.292 1.072 2.66 1.629 1.393.536 2.837.536 2.305 0 4.281-2.144 2.001-2.144 2.001-6.238 0-3.773-2.001-5.788-1.976-2.036-4.509-2.036-1.343 0-2.685.579-1.013.429-2.584 1.715zM123.902 61.778v-.9q3.85 1.608 6.409 3.794 3.622 3.13 5.598 7.352 1.976 4.201 1.976 8.767 0 6.645-3.876 12.111-3.85 5.487-10.107 7.845v-.793q3.116-1.479 5.117-4.008 2.026-2.508 2.989-6.388.988-3.901.988-8.124 0-4.566-.836-8.338-.633-2.958-1.596-4.737-.937-1.779-2.508-3.43-1.571-1.651-4.154-3.151zM404.282 72.428h27.332v1.758h-27.332zm0 6.988h27.332v1.758h-27.332zM451.672 65.138l8.359-3.451h.836v24.544q0 2.444.228 3.044.253.6 1.013.922.76.322 3.09.364v.793h-12.919v-.793q2.432-.043 3.141-.343.709-.322.988-.836.279-.536.279-3.151v-15.691q0-3.172-.253-4.073-.177-.686-.659-1.008-.456-.322-1.115-.322-.937 0-2.609.664l-.38-.664zM846.542 72.108q4.078-4.159 7.777-4.159 1.9 0 3.268.815 1.368.793 2.179 2.637.557 1.286.557 3.944v8.381q0 1.865.355 2.529.279.536.887.836.633.3 2.305.3v.772h-11.475v-.772h.481q1.621 0 2.255-.407.659-.429.912-1.243.101-.322.101-2.015v-8.038q0-2.679-.836-3.88-.811-1.222-2.761-1.222-3.014 0-6.003 2.787v10.353q0 1.994.279 2.465.355.622.963.922.633.279 2.533.279v.772h-11.475v-.772h.507q1.773 0 2.381-.75.633-.772.633-2.915v-7.288q0-3.537-.203-4.309-.177-.772-.583-1.05-.38-.279-1.039-.279-.709 0-1.697.322l-.38-.772 6.991-2.401h1.089v4.159zM876.592 67.948q5.269 0 8.461 3.387 2.71 2.894 2.71 6.645 0 2.637-1.494 5.338t-4.129 4.073q-2.609 1.372-5.826 1.372-5.244 0-8.334-3.537-2.609-2.98-2.609-6.688 0-2.701 1.571-5.359 1.596-2.679 4.18-3.944 2.584-1.286 5.471-1.286zm-.785 1.393q-1.343 0-2.71.686-1.343.664-2.179 2.358-.836 1.693-.836 4.351 0 4.287 2.001 7.395 2.026 3.108 5.319 3.108 2.457 0 4.053-1.715t1.596-5.895q0-5.23-2.66-8.231-1.798-2.058-4.585-2.058zM897.972 67.948v4.416q2.913-4.416 5.978-4.416 1.393 0 2.305.729.912.707.912 1.651 0 .836-.659 1.415-.659.579-1.571.579-.887 0-2.001-.729-1.089-.75-1.621-.75-.456 0-.988.429-1.14.879-2.356 2.894v9.41q0 1.629.481 2.465.329.579 1.165.965.836.386 2.406.386v.772h-11.88v-.772q1.773 0 2.634-.472.633-.343.887-1.093.127-.364.127-2.079v-7.61q0-3.43-.177-4.073-.152-.664-.608-.965-.431-.3-1.089-.3-.785 0-1.773.322l-.253-.772 7.017-2.401h1.064zM915.402 72.128q2.533-2.144 2.989-2.465 1.14-.815 2.457-1.265t2.609-.45q2.179 0 3.749 1.072t2.103 3.108q2.609-2.572 4.408-3.365 1.798-.815 3.698-.815 1.849 0 3.268.815 1.444.793 2.28 2.615.557 1.243.557 3.901v8.446q0 1.843.329 2.529.253.472.937.815.684.322 2.229.322v.772h-11.45v-.772h.481q1.495 0 2.33-.493.583-.343.836-1.093.101-.364.101-2.079v-8.446q0-2.401-.684-3.387-.988-1.372-3.166-1.372-1.343 0-2.71.579-1.343.557-3.268 2.101l-.051.236.051.922v9.367q0 2.015.253 2.508.279.493 1.013.836.735.322 2.508.322v.772h-11.728v-.772q1.925 0 2.634-.386.735-.386 1.013-1.157.127-.364.127-2.122v-8.446q0-2.401-.836-3.451-1.115-1.372-3.116-1.372-1.368 0-2.71.622-2.103.943-3.242 2.122v10.525q0 1.929.304 2.508.329.579.937.879.633.279 2.533.279v.772h-11.475v-.772q1.596 0 2.229-.279.633-.3.963-.922.329-.643.329-2.465v-7.502q0-3.237-.228-4.18-.177-.707-.557-.965-.38-.279-1.039-.279-.709 0-1.697.322l-.38-.772 6.991-2.401h1.089v4.18zM962.102 85.338q-3.572 2.337-4.484 2.701-1.368.536-2.913.536-2.406 0-3.977-1.393-1.545-1.393-1.545-3.666 0-1.436.76-2.486 1.039-1.458 3.597-2.744 2.584-1.286 8.562-3.13v-.772q0-2.937-1.115-4.03-1.089-1.093-3.192-1.093-1.596 0-2.533.729-.963.729-.963 1.672l.051 1.243q0 .986-.608 1.522-.583.536-1.545.536-.937 0-1.545-.557-.583-.557-.583-1.522 0-1.843 2.229-3.387 2.229-1.543 6.257-1.543 3.09 0 5.066.879 1.494.665 2.204 2.079.456.922.456 3.773v6.666q0 2.808.127 3.451.127.622.405.836.304.214.684.214.405 0 .709-.15.532-.279 2.052-1.565v1.2q-2.837 3.215-5.421 3.215-1.241 0-1.976-.729-.735-.729-.76-2.486zm0-1.393v-7.481q-3.825 1.286-4.939 1.822-2.001.943-2.862 1.972-.861 1.029-.861 2.251 0 1.543 1.089 2.572 1.089 1.008 2.508 1.008 1.925 0 5.066-2.144zM979.902 57.678v26.044q0 1.843.304 2.444.329.6.988.922.659.3 2.457.3v.772h-11.374v-.772q1.596 0 2.179-.279.583-.279.912-.922.329-.643.329-2.465v-17.834q0-3.322-.177-4.073-.177-.772-.583-1.05-.38-.279-.988-.279-.659 0-1.672.343l-.431-.75 6.915-2.401h1.14zM992.002 67.928q1.165 0 1.976.707.836.686.836 1.672 0 .986-.836 1.693-.811.686-1.976.686t-2.001-.686q-.811-.707-.811-1.693t.811-1.672q.836-.707 2.001-.707zm-.051 16.055q1.19 0 2.001.707.836.707.836 1.693t-.836 1.693q-.836.686-2.001.686t-2.001-.686q-.811-.707-.811-1.693 0-.986.811-1.693.836-.707 2.001-.707zM1139.702 71.718h10.918v.793q-1.039 0-1.469.3-.405.3-.405.793 0 .514.887 1.586.279.343.836 1.072l1.647 2.229 1.9-2.229q1.824-2.122 1.824-2.679 0-.45-.431-.75-.431-.322-1.393-.322v-.793h7.853v.793q-1.241.064-2.153.579-1.241.729-3.394 3.172l-3.166 3.58 5.775 7.031q2.128 2.594 3.04 3.13.912.514 2.356.579v.772h-10.943v-.772q1.14 0 1.773-.429.481-.3.481-.793t-1.621-2.486l-3.394-4.201-3.724 4.201q-1.722 1.951-1.722 2.315 0 .514.557.943.583.407 1.722.45v.772h-7.574v-.772q.912-.107 1.596-.536.963-.622 3.242-3.172l4.864-5.466-4.408-5.402q-1.875-2.315-2.913-2.894-1.013-.6-2.558-.6v-.793zM1178.902 72.428h27.332v1.758h-27.332zm0 6.988h27.332v1.758h-27.332zM1226.302 65.138l8.359-3.451h.836v24.544q0 2.444.228 3.044.253.6 1.013.922.76.322 3.09.364v.793h-12.919v-.793q2.432-.043 3.141-.343.709-.322.988-.836.279-.536.279-3.151v-15.691q0-3.172-.253-4.073-.177-.686-.659-1.008-.456-.322-1.115-.322-.937 0-2.609.664l-.38-.664zM1248.902 154.688v-.943q2.609-.729 4.028-2.272 1.444-1.522 1.444-3.237 0-.407-.228-.686-.177-.193-.355-.193-.279 0-1.216.429-.456.193-.963.193-1.241 0-1.976-.622-.735-.622-.735-1.715 0-1.05.937-1.801.963-.75 2.33-.75 1.672 0 2.964 1.243 1.317 1.222 1.317 3.258 0 2.208-1.824 4.094-1.799 1.908-5.725 3.001zM1264.302 62.288h18.416v.815l-11.45 28.852h-2.837l10.259-26.173h-9.448q-2.862 0-4.078.579-2.128.986-3.42 3.044l-.735-.236 3.293-6.881zM1299.602 60.878l-12.438 31.082h-2.026l12.438-31.082zM1316.102 71.138v6.688h-.836q-.963-3.151-2.482-4.287-1.494-1.136-3.825-1.136-1.773 0-2.862.793-1.089.793-1.089 1.758 0 1.2.811 2.058.785.879 3.192 1.865l3.698 1.522q5.142 2.122 5.142 5.595 0 2.679-2.406 4.33-2.381 1.629-5.345 1.629-2.128 0-4.864-.643-.836-.214-1.368-.214-.583 0-.912.557h-.836v-7.009h.836q.709 3.001 2.71 4.523 2.001 1.522 4.484 1.522 1.748 0 2.837-.857 1.115-.879 1.115-2.101 0-1.479-1.241-2.486-1.216-1.008-4.889-2.551-3.673-1.543-4.813-2.787-1.14-1.222-1.14-3.087 0-2.422 1.95-4.051 1.976-1.629 5.091-1.629 1.368 0 3.318.493 1.292.322 1.722.322.405 0 .633-.15.228-.15.532-.664h.836zM1333.502 72.428h27.332v1.758h-27.332zm0 6.988h27.332v1.758h-27.332zM1376.702 76.998q0-4.973 1.773-8.553 1.773-3.601 4.712-5.359 2.28-1.393 4.712-1.393 3.952 0 7.093 3.408 3.926 4.223 3.926 11.447 0 5.059-1.722 8.596t-4.408 5.144q-2.66 1.586-5.142 1.586-4.914 0-8.182-4.909-2.761-4.137-2.761-9.967zm4.965.536q0 6.002 1.748 9.796 1.444 3.194 4.306 3.194 1.368 0 2.837-1.029 1.469-1.05 2.229-3.494 1.165-3.687 1.165-10.396 0-4.973-1.216-8.296-.912-2.465-2.356-3.494-1.039-.707-2.508-.707-1.723 0-3.065 1.308-1.824 1.779-2.482 5.595t-.659 7.524zM1403.502 98.668v-.943q2.609-.729 4.028-2.272 1.444-1.522 1.444-3.237 0-.407-.228-.686-.177-.193-.355-.193-.279 0-1.216.429-.456.193-.963.193-1.241 0-1.976-.622-.735-.622-.735-1.715 0-1.05.937-1.801.963-.75 2.33-.75 1.672 0 2.964 1.243 1.317 1.222 1.317 3.258 0 2.208-1.824 4.094-1.798 1.908-5.725 3.001zM1436.202 62.288l-1.976 3.644h-10.335l-2.254 3.901q6.713.836 10.639 4.223 3.369 2.915 3.369 6.859 0 2.294-1.115 4.244-1.089 1.951-2.761 3.322-1.672 1.372-3.724 2.208-2.913 1.179-5.978 1.179-3.09 0-4.509-.879-1.393-.9-1.393-1.972 0-.6.583-1.05.583-.472 1.469-.472.659 0 1.14.171.507.171 1.697.879 1.9 1.115 3.85 1.115 2.964 0 5.193-1.886 2.255-1.908 2.255-4.63 0-2.637-2.001-4.909-2.001-2.294-5.522-3.537-2.761-.965-7.523-1.115l6.586-11.297h12.311zM12.75 130.368q4.078-4.159 7.777-4.159 1.9 0 3.268.815 1.368.793 2.179 2.637.557 1.286.557 3.944v8.381q0 1.865.355 2.529.279.536.887.836.633.3 2.305.3v.772h-11.475v-.772h.481q1.621 0 2.255-.407.659-.429.912-1.243.101-.322.101-2.015v-8.038q0-2.679-.836-3.88-.811-1.222-2.761-1.222-3.014 0-6.003 2.787v10.353q0 1.994.279 2.465.355.622.963.922.633.279 2.533.279v.772h-11.475v-.772h.507q1.773 0 2.381-.75.633-.772.633-2.915v-7.288q0-3.537-.203-4.309-.177-.772-.583-1.05-.38-.279-1.039-.279-.709 0-1.697.322l-.38-.772 6.991-2.401h1.089v4.159zM37.352 115.948q1.064 0 1.798.643.76.622.76 1.522t-.76 1.543q-.735.643-1.798.643t-1.824-.643q-.76-.643-.76-1.543 0-.9.735-1.522.76-.643 1.849-.643zm2.103 10.268v15.777q0 1.843.304 2.465.329.6.937.9.633.3 2.28.3v.772h-11.272v-.772q1.697 0 2.28-.279.583-.279.912-.922.355-.643.355-2.465v-7.567q0-3.194-.228-4.137-.177-.686-.557-.943-.38-.279-1.039-.279-.709 0-1.722.322l-.355-.772 6.991-2.401h1.115zM79.152 126.788v11.897q0 3.408.177 4.18.203.75.608 1.05.431.3.988.3.785 0 1.773-.364l.355.75-6.941 2.422h-1.14v-4.159q-2.989 2.744-4.56 3.451-1.571.707-3.318.707-1.95 0-3.394-.943-1.419-.965-1.976-2.465-.557-1.5-.557-4.244v-8.767q0-1.393-.355-1.929t-1.064-.815q-.684-.3-2.508-.279v-.793h8.131v13.14q0 2.744 1.115 3.601 1.14.857 2.736.857 1.089 0 2.457-.579 1.393-.579 3.293-2.208v-11.125q0-1.672-.735-2.251-.709-.6-2.989-.643v-.793h7.903zM91.512 130.368q4.078-4.159 7.777-4.159 1.9 0 3.268.815 1.368.793 2.179 2.637.557 1.286.557 3.944v8.381q0 1.865.355 2.529.279.536.887.836.633.3 2.305.3v.772h-11.475v-.772h.481q1.621 0 2.255-.407.659-.429.912-1.243.101-.322.101-2.015v-8.038q0-2.679-.836-3.88-.811-1.222-2.761-1.222-3.014 0-6.003 2.787v10.353q0 1.994.279 2.465.355.622.963.922.633.279 2.533.279v.772h-11.475v-.772h.507q1.773 0 2.381-.75.633-.772.633-2.915v-7.288q0-3.537-.203-4.309-.177-.772-.583-1.05-.38-.279-1.039-.279-.709 0-1.697.322l-.38-.772 6.991-2.401h1.089v4.159zM122.032 126.218q5.269 0 8.461 3.387 2.71 2.894 2.71 6.645 0 2.637-1.494 5.337-1.494 2.701-4.129 4.073-2.609 1.372-5.826 1.372-5.244 0-8.334-3.537-2.609-2.979-2.609-6.688 0-2.701 1.571-5.359 1.596-2.679 4.18-3.944 2.584-1.286 5.471-1.286zm-.785 1.393q-1.343 0-2.71.686-1.343.664-2.179 2.358-.836 1.693-.836 4.351 0 4.287 2.001 7.395 2.026 3.108 5.319 3.108 2.457 0 4.053-1.715t1.596-5.895q0-5.23-2.66-8.231-1.798-2.058-4.585-2.058zM156.352 130.368q4.078-4.159 7.777-4.159 1.9 0 3.268.815 1.368.793 2.179 2.637.557 1.286.557 3.944v8.381q0 1.865.355 2.529.279.536.887.836.633.3 2.305.3v.772h-11.475v-.772h.481q1.621 0 2.255-.407.659-.429.912-1.243.101-.322.101-2.015v-8.038q0-2.679-.836-3.88-.811-1.222-2.761-1.222-3.014 0-6.003 2.787v10.353q0 1.994.279 2.465.355.622.963.922.633.279 2.533.279v.772h-11.475v-.772h.507q1.773 0 2.381-.75.633-.772.633-2.915v-7.288q0-3.537-.203-4.309-.177-.772-.583-1.05-.38-.279-1.039-.279-.709 0-1.697.322l-.38-.772 6.991-2.401h1.089v4.159zM181.432 115.948q1.064 0 1.798.643.76.622.76 1.522t-.76 1.543q-.735.643-1.798.643t-1.824-.643q-.76-.643-.76-1.543 0-.9.735-1.522.76-.643 1.849-.643zm2.103 10.268v15.777q0 1.843.304 2.465.329.6.937.9.633.3 2.28.3v.772h-11.272v-.772q1.697 0 2.28-.279.583-.279.912-.922.355-.643.355-2.465v-7.567q0-3.194-.228-4.137-.177-.686-.557-.943-.38-.279-1.039-.279-.709 0-1.722.322l-.355-.772 6.991-2.401h1.115zM214.242 126.218q5.269 0 8.461 3.387 2.71 2.894 2.71 6.645 0 2.637-1.494 5.337-1.494 2.701-4.129 4.073-2.609 1.372-5.826 1.372-5.244 0-8.334-3.537-2.609-2.979-2.609-6.688 0-2.701 1.571-5.359 1.596-2.679 4.18-3.944 2.584-1.286 5.471-1.286zm-.785 1.393q-1.343 0-2.71.686-1.343.664-2.179 2.358-.836 1.693-.836 4.351 0 4.287 2.001 7.395 2.026 3.108 5.319 3.108 2.457 0 4.053-1.715t1.596-5.895q0-5.23-2.66-8.231-1.798-2.058-4.585-2.058zM235.562 120.338v6.452h5.421v1.5h-5.421v12.733q0 1.908.633 2.572.659.664 1.672.664.836 0 1.621-.429.785-.45 1.216-1.308h.988q-.887 2.101-2.508 3.172-1.621 1.05-3.344 1.05-1.165 0-2.28-.536-1.115-.557-1.647-1.565-.532-1.029-.532-3.151v-13.204h-3.673v-.707q1.393-.472 2.837-1.586 1.469-1.136 2.609-2.679.583-.815 1.621-2.979h.785zM250.002 126.218v4.416q2.913-4.416 5.978-4.416 1.393 0 2.305.729.912.707.912 1.651 0 .836-.659 1.415-.659.579-1.571.579-.887 0-2.001-.729-1.089-.75-1.621-.75-.456 0-.988.429-1.14.879-2.356 2.894v9.41q0 1.629.481 2.465.329.579 1.165.965.836.386 2.406.386v.772h-11.88v-.772q1.773 0 2.634-.472.633-.343.887-1.093.127-.364.127-2.079v-7.61q0-3.43-.177-4.073-.152-.664-.608-.965-.431-.3-1.089-.3-.785 0-1.773.322l-.253-.772 7.017-2.401h1.064zM271.892 126.218q5.269 0 8.461 3.387 2.71 2.894 2.71 6.645 0 2.637-1.494 5.337-1.494 2.701-4.129 4.073-2.609 1.372-5.826 1.372-5.244 0-8.334-3.537-2.609-2.979-2.609-6.688 0-2.701 1.571-5.359 1.596-2.679 4.18-3.944 2.584-1.286 5.471-1.286zm-.785 1.393q-1.343 0-2.71.686-1.343.664-2.179 2.358-.836 1.693-.836 4.351 0 4.287 2.001 7.395 2.026 3.108 5.319 3.108 2.457 0 4.053-1.715t1.596-5.895q0-5.23-2.66-8.231-1.798-2.058-4.585-2.058zM292.182 126.188q1.165 0 1.976.707.836.686.836 1.672 0 .986-.836 1.693-.811.686-1.976.686t-2.001-.686q-.811-.707-.811-1.693 0-.986.811-1.672.836-.707 2.001-.707zm-.051 16.055q1.191 0 2.001.707.836.707.836 1.693t-.836 1.693q-.836.686-2.001.686t-2.001-.686q-.811-.707-.811-1.693 0-.986.811-1.693.836-.707 2.001-.707zM404.282 127.498h27.332v1.758h-27.332zm0 6.988h27.332v1.758h-27.332zM469.382 140.838l-2.406 5.595h-20.265v-.793q8.942-6.902 12.59-11.275 3.648-4.373 3.648-7.995 0-2.765-2.001-4.544-2.001-1.779-4.788-1.779-2.533 0-4.56 1.265-2.001 1.243-2.964 3.666h-.937q.633-3.966 3.242-6.088 2.634-2.122 6.561-2.122 4.18 0 6.966 2.272 2.812 2.272 2.812 5.359 0 2.208-1.216 4.416-1.875 3.473-6.079 7.352-6.307 5.83-7.878 7.031h8.967q2.736 0 3.825-.171 1.115-.171 2.001-.686.887-.536 1.545-1.5h.937zM838.112 125.548l7.143-2.444h.963v4.587q1.798-2.594 3.597-3.623 1.824-1.05 3.825-1.05 3.496 0 5.826 2.315 2.862 2.829 2.862 7.374 0 5.08-3.445 8.403-2.837 2.722-7.143 2.722-1.875 0-3.242-.45-1.013-.322-2.28-1.286v5.981q0 2.015.279 2.551.304.557 1.013.879.735.322 2.634.322v.793h-12.159v-.793h.633q1.393.021 2.381-.45.481-.236.735-.772.279-.514.279-2.658v-18.563q0-1.908-.203-2.422-.203-.514-.659-.772-.431-.257-1.191-.257-.608 0-1.545.3l-.304-.686zm8.106 3.408v7.331q0 2.379.228 3.13.355 1.243 1.722 2.186 1.393.943 3.496.943 2.533 0 4.104-1.672 2.052-2.186 2.052-6.152 0-4.502-2.33-6.924-1.621-1.672-3.85-1.672-1.216 0-2.406.514-.912.386-3.014 2.315zM879.342 140.408q-3.572 2.337-4.484 2.701-1.368.536-2.913.536-2.406 0-3.977-1.393-1.545-1.393-1.545-3.666 0-1.436.76-2.486 1.039-1.458 3.597-2.744 2.584-1.286 8.562-3.13v-.772q0-2.937-1.115-4.03-1.089-1.093-3.192-1.093-1.596 0-2.533.729-.963.729-.963 1.672l.051 1.243q0 .986-.608 1.522-.583.536-1.545.536-.937 0-1.545-.557-.583-.557-.583-1.522 0-1.843 2.229-3.387t6.257-1.543q3.09 0 5.066.879 1.494.664 2.204 2.079.456.922.456 3.773v6.666q0 2.808.127 3.451.127.622.405.836.304.214.684.214.405 0 .709-.15.532-.279 2.052-1.565v1.2q-2.837 3.215-5.421 3.215-1.241 0-1.976-.729-.735-.729-.76-2.486zm0-1.393v-7.481q-3.825 1.286-4.94 1.822-2.001.943-2.862 1.972-.861 1.029-.861 2.251 0 1.543 1.089 2.572 1.089 1.008 2.508 1.008 1.925 0 5.066-2.144zM895.932 117.148v6.452h5.421v1.5h-5.421v12.733q0 1.908.633 2.572.659.664 1.672.664.836 0 1.621-.429.785-.45 1.216-1.308h.988q-.887 2.101-2.508 3.172-1.621 1.05-3.344 1.05-1.165 0-2.28-.536-1.115-.557-1.647-1.565-.532-1.029-.532-3.151v-13.204h-3.673v-.707q1.393-.472 2.837-1.586 1.469-1.136 2.609-2.679.583-.815 1.621-2.979h.785zM914.932 123.018q5.269 0 8.461 3.387 2.71 2.894 2.71 6.645 0 2.637-1.494 5.338t-4.129 4.073q-2.609 1.372-5.826 1.372-5.244 0-8.334-3.537-2.609-2.979-2.609-6.688 0-2.701 1.571-5.359 1.596-2.679 4.18-3.944 2.584-1.286 5.471-1.286zm-.785 1.393q-1.343 0-2.71.686-1.343.665-2.179 2.358-.836 1.693-.836 4.351 0 4.287 2.001 7.395 2.026 3.108 5.319 3.108 2.457 0 4.053-1.715t1.596-5.895q0-5.23-2.66-8.231-1.798-2.058-4.585-2.058zM937.502 112.758v26.044q0 1.843.304 2.444.329.6.988.922.659.3 2.457.3v.772h-11.374v-.772q1.596 0 2.179-.279.583-.279.912-.922.329-.643.329-2.465v-17.834q0-3.322-.177-4.073-.177-.772-.583-1.05-.38-.279-.988-.279-.659 0-1.672.343l-.431-.75 6.915-2.401h1.14zM955.302 123.018q5.269 0 8.46 3.387 2.71 2.894 2.71 6.645 0 2.637-1.494 5.338t-4.129 4.073q-2.609 1.372-5.826 1.372-5.244 0-8.334-3.537-2.609-2.979-2.609-6.688 0-2.701 1.571-5.359 1.596-2.679 4.18-3.944 2.584-1.286 5.471-1.286zm-.785 1.393q-1.343 0-2.71.686-1.343.665-2.179 2.358t-.836 4.351q0 4.287 2.001 7.395 2.026 3.108 5.319 3.108 2.457 0 4.053-1.715t1.596-5.895q0-5.23-2.66-8.231-1.798-2.058-4.585-2.058zm6.13-10.975l-7.473 7.395h-.861l2.66-7.395zM976.002 136.078q-2.128-.879-3.268-2.444-1.14-1.586-1.14-3.494 0-2.915 2.584-5.016 2.609-2.101 6.662-2.101 3.318 0 5.75 1.372h4.914q1.089 0 1.267.064.177.043.253.171.152.193.152.686 0 .557-.127.772-.076.107-.279.171-.177.064-1.267.064h-3.014q1.419 1.543 1.419 3.944 0 2.744-2.482 4.694-2.482 1.951-6.662 1.951-1.722 0-3.521-.429-1.115.815-1.52 1.436-.38.6-.38 1.029 0 .364.405.707.431.343 1.647.493.709.086 3.546.15 5.218.107 6.763.3 2.356.279 3.749 1.479 1.419 1.2 1.419 2.958 0 2.422-2.685 4.544-3.952 3.13-10.31 3.13-4.889 0-8.258-1.865-1.9-1.072-1.9-2.229 0-.514.279-1.029.431-.793 1.773-2.208.177-.193 2.584-2.315-1.317-.664-1.875-1.179-.532-.536-.532-1.2 0-.75.709-1.758.735-1.008 3.344-2.851zm4.408-12.025q-1.875 0-3.141 1.265-1.267 1.265-1.267 3.88 0 3.387 1.722 5.252 1.317 1.415 3.344 1.415 1.925 0 3.166-1.222t1.241-3.837q0-3.408-1.748-5.337-1.292-1.415-3.318-1.415zm-4.661 19.185q-1.19 1.093-1.798 2.036-.608.943-.608 1.736 0 1.029 1.469 1.801 2.533 1.329 7.321 1.329 4.56 0 6.713-1.372 2.178-1.35 2.178-2.894 0-1.115-1.292-1.586-1.317-.472-5.218-.557-5.699-.129-8.765-.493zM1001.702 112.758q1.064 0 1.798.643.76.622.76 1.522t-.76 1.543q-.735.643-1.798.643t-1.824-.643-.76-1.543q0-.9.735-1.522.76-.643 1.849-.643zm2.103 10.268v15.777q0 1.843.304 2.465.329.6.937.9.633.3 2.28.3v.772h-11.272v-.772q1.697 0 2.28-.279.583-.279.912-.922.355-.643.355-2.465v-7.567q0-3.194-.228-4.137-.177-.686-.557-.943-.38-.279-1.039-.279-.709 0-1.722.322l-.355-.772 6.991-2.401h1.115zM1029.902 135.778q-.937 3.88-3.673 5.981-2.736 2.079-6.054 2.079-3.952 0-6.89-2.808-2.938-2.808-2.938-7.588 0-4.63 3.242-7.524 3.268-2.894 7.827-2.894 3.42 0 5.623 1.543 2.204 1.522 2.204 3.172 0 .815-.633 1.329-.608.493-1.722.493-1.495 0-2.255-.815-.431-.45-.583-1.715-.127-1.265-1.013-1.929-.887-.643-2.457-.643-2.533 0-4.078 1.586-2.052 2.101-2.052 5.552 0 3.515 2.026 6.216 2.052 2.679 5.522 2.679 2.482 0 4.458-1.436 1.393-.986 2.71-3.58l.735.3zM1044.502 123.018q5.269 0 8.46 3.387 2.711 2.894 2.711 6.645 0 2.637-1.495 5.338-1.494 2.701-4.129 4.073-2.609 1.372-5.826 1.372-5.244 0-8.334-3.537-2.609-2.979-2.609-6.688 0-2.701 1.571-5.359 1.596-2.679 4.18-3.944 2.584-1.286 5.471-1.286zm-.785 1.393q-1.343 0-2.71.686-1.343.665-2.179 2.358-.836 1.693-.836 4.351 0 4.287 2.001 7.395 2.026 3.108 5.319 3.108 2.457 0 4.053-1.715t1.596-5.895q0-5.23-2.66-8.231-1.799-2.058-4.585-2.058zM1064.802 122.998q1.165 0 1.976.707.836.686.836 1.672 0 .986-.836 1.693-.811.686-1.976.686t-2.001-.686q-.81-.707-.81-1.693 0-.986.81-1.672.836-.707 2.001-.707zm-.051 16.055q1.19 0 2.001.707.836.707.836 1.693 0 .986-.836 1.693-.836.686-2.001.686t-2.001-.686q-.81-.707-.81-1.693 0-.986.81-1.693.836-.707 2.001-.707zM1139.702 126.788h10.918v.793q-1.039 0-1.469.3-.405.3-.405.793 0 .514.887 1.586.279.343.836 1.072l1.647 2.229 1.9-2.229q1.824-2.122 1.824-2.679 0-.45-.431-.75-.431-.322-1.393-.322v-.793h7.853v.793q-1.241.064-2.153.579-1.241.729-3.394 3.172l-3.166 3.58 5.775 7.031q2.128 2.594 3.04 3.13.912.514 2.356.579v.772h-10.943v-.772q1.14 0 1.773-.429.481-.3.481-.793 0-.493-1.621-2.486l-3.394-4.201-3.724 4.201q-1.722 1.951-1.722 2.315 0 .514.557.943.583.407 1.722.45v.772h-7.574v-.772q.912-.107 1.596-.536.963-.622 3.242-3.172l4.864-5.466-4.408-5.402q-1.875-2.315-2.913-2.894-1.013-.6-2.558-.6v-.793zM1179.602 127.498h27.332v1.758h-27.332zm0 6.988h27.332v1.758h-27.332zM1227.202 120.208l8.359-3.451h.836v24.544q0 2.444.228 3.044.253.6 1.013.922.76.322 3.09.364v.793h-12.919v-.793q2.432-.043 3.141-.343.709-.322.988-.836.279-.536.279-3.151v-15.691q0-3.172-.253-4.073-.177-.686-.659-1.008-.456-.322-1.115-.322-.937 0-2.609.664l-.38-.664zM1283.002 116.758v.793q-3.344.279-5.471 1.136-2.103.836-4.18 2.572-2.052 1.736-3.42 3.88-1.343 2.122-2.255 5.059 3.648-2.122 7.321-2.122 3.521 0 6.105 2.401 2.584 2.401 2.584 6.173 0 3.644-2.609 6.645-3.141 3.644-8.309 3.644-3.521 0-5.978-1.972-4.813-3.837-4.813-9.946 0-3.901 1.849-7.417 1.849-3.515 5.269-6.238 3.445-2.722 6.586-3.666 3.141-.943 5.851-.943h1.469zm-15.756 15.005q-.456 2.894-.456 4.673 0 2.058.887 4.48.912 2.401 2.685 3.816 1.292 1.008 3.141 1.008 2.204 0 3.926-1.758 1.748-1.758 1.748-5.016 0-3.666-1.722-6.345-1.723-2.679-4.889-2.679-.963 0-2.077.343-1.089.343-3.242 1.479zM1300.302 115.948l-12.438 31.082h-2.026l12.438-31.082zM1316.902 126.218v6.688h-.836q-.963-3.151-2.482-4.287-1.494-1.136-3.825-1.136-1.773 0-2.862.793-1.089.793-1.089 1.758 0 1.2.811 2.058.785.879 3.192 1.865l3.698 1.522q5.142 2.122 5.142 5.595 0 2.679-2.406 4.33-2.381 1.629-5.345 1.629-2.128 0-4.864-.643-.836-.214-1.368-.214-.583 0-.912.557h-.836v-7.009h.836q.709 3.001 2.711 4.523 2.001 1.522 4.484 1.522 1.748 0 2.837-.857 1.115-.879 1.115-2.101 0-1.479-1.241-2.486-1.216-1.008-4.889-2.551-3.673-1.543-4.813-2.787-1.14-1.222-1.14-3.087 0-2.422 1.95-4.051 1.976-1.629 5.091-1.629 1.368 0 3.318.493 1.292.322 1.723.322.405 0 .633-.15.228-.15.532-.665h.836zM1334.302 127.498h27.332v1.758h-27.332zm0 6.988h27.332v1.758h-27.332zM1377.502 132.068q0-4.973 1.773-8.553 1.773-3.601 4.712-5.359 2.28-1.393 4.712-1.393 3.952 0 7.093 3.408 3.926 4.223 3.926 11.447 0 5.059-1.722 8.596-1.723 3.537-4.408 5.144-2.66 1.586-5.142 1.586-4.914 0-8.182-4.909-2.761-4.137-2.761-9.967zm4.965.536q0 6.002 1.748 9.796 1.444 3.194 4.306 3.194 1.368 0 2.837-1.029 1.469-1.05 2.229-3.494 1.165-3.687 1.165-10.396 0-4.973-1.216-8.296-.912-2.465-2.356-3.494-1.039-.707-2.508-.707-1.722 0-3.065 1.308-1.824 1.779-2.482 5.595-.659 3.816-.659 7.524zM1404.302 153.738v-.943q2.609-.729 4.028-2.272 1.444-1.522 1.444-3.237 0-.407-.228-.686-.177-.193-.355-.193-.279 0-1.216.429-.456.193-.963.193-1.241 0-1.976-.622-.735-.622-.735-1.715 0-1.05.937-1.801.963-.75 2.33-.75 1.672 0 2.964 1.243 1.317 1.222 1.317 3.258 0 2.208-1.824 4.094-1.798 1.908-5.725 3.001zM1437.002 117.358l-1.976 3.644h-10.335l-2.254 3.901q6.713.836 10.639 4.223 3.369 2.915 3.369 6.859 0 2.294-1.115 4.244-1.089 1.951-2.761 3.322-1.672 1.372-3.724 2.208-2.913 1.179-5.978 1.179-3.091 0-4.509-.879-1.393-.9-1.393-1.972 0-.6.583-1.05.583-.472 1.469-.472.658 0 1.14.171.506.171 1.697.879 1.9 1.115 3.85 1.115 2.964 0 5.193-1.886 2.254-1.908 2.254-4.63 0-2.637-2.001-4.909-2.001-2.294-5.522-3.537-2.761-.965-7.523-1.115l6.586-11.297h12.311z"/><g stroke="#000" stroke-linecap="round" stroke-width="1.461" fill="none"><path d="M1140.702 65.248h20.831M1140.702 121.278h20.831"/></g></svg>