<svg xmlns="http://www.w3.org/2000/svg" height="225.34mm" width="258.54mm" viewBox="0 0 916.08578 798.4641"><path d="M113.86 775.125v-5.628l5.087-2.847c2.798-1.566 47.666-45.202 99.706-96.969l94.619-94.122-1.221-277.5-1.221-277.5 4.266-1.424 4.266-1.424-.174 273.83-.174 273.83 2.642.641c1.453.352 53.731 1.27 116.17 2.038l113.53 1.397 1.338-3.683c.736-2.025.552-8.81-.409-15.077l-1.747-11.395 4.5 1.5 4.5 1.5.223 13.262.223 13.262 115.32.886 115.32.886v-44.256l3.367 2.081 3.367 2.081v40.006h101.01v6.734h-101.01v26.936h-6.734v-25.878l-58.081-1.888c-31.944-1.038-83.838-1.655-115.32-1.371l-57.239.517.947 22.727.947 22.727h-8.628v-45.456l-114.48-.862-114.48-.862-82.595 81.67c-45.427 44.919-92.776 91.475-105.22 103.46l-22.625 21.788v-5.628zm537.04-19.888l-23.569-2.15-18.806-5.508-18.806-5.508-13.565-8.796-13.565-8.796-5.085-8.803-5.085-8.803 1.694-27.778 1.694-27.778h5.868v23.57l2.525-.017c1.389-.01 14.646-4.898 29.461-10.866l26.936-10.85 50.505-.077 50.505-.077 24.578 9.618 24.578 9.618 9.466 7.965 9.466 7.965 1.872-1.872 1.872-1.872-1.692-28.337-1.692-28.337h8.202l-1.571 43.508-1.571 43.508-5.659 8.637-5.659 8.637-12.779 6.519c-7.028 3.586-21.896 8.882-33.04 11.77l-20.261 5.25-21.624.904c-11.893.497-32.231-.063-45.194-1.246zm50.84-43.747c22.964-20.609 41.752-38.791 41.752-40.404 0-4.921-4.701-3.309-13.544 4.643-4.633 4.167-21.285 18.888-37.003 32.715-32.623 28.697-40.363 36.117-40.363 38.693 0 6.353 12.286-2.557 49.157-35.647zm8.483 9.693c16.856-15.278 34.267-30.556 38.692-33.951 8.388-6.436 10.561-12.345 4.54-12.345-3.264 0-84.037 69.963-84.037 72.79 0 .707 2.286 1.285 5.079 1.285h5.079l30.647-27.778zm8.971 10.101c10.488-9.722 26.265-24.328 35.06-32.457l15.99-14.78-1.779-2.878-1.779-2.878-36.815 32.234c-20.248 17.729-37.678 33.63-38.732 35.335l-1.917 3.101h10.902l19.07-17.677zm29.348-9.64c16.667-14.948 30.808-28.553 31.425-30.233l1.122-3.056h-7.882l-31.402 27.778c-31.34 27.722-35.721 32.89-27.775 32.758l4.209-.07 30.303-27.177zm-90.043-5.511c17.787-16.204 38.505-35.105 46.04-42.003l13.7-12.542-6.734-.042-6.734-.042-18.519 17.736c-10.185 9.755-29.473 27.354-42.862 39.109l-24.344 21.373 1.815 2.937c.998 1.615 2.598 2.937 3.556 2.937.957 0 16.294-13.258 34.081-29.461zm11.634 6.734c13.576-12.5 32.606-29.777 42.288-38.393 17.801-15.842 20.537-19.688 14.005-19.688-3.458 0-90.678 76.306-90.678 79.331 0 .812 2.183 1.477 4.851 1.477h4.851l24.684-22.727zm81.936 12.034l12.179-10.693 2.415 3.907 2.415 3.907 7.409-5.189c4.075-2.854 7.409-6.854 7.409-8.887v-3.698l-6.157 5.572c-3.387 3.065-7.472 5.572-9.078 5.572h-2.921l11.373-11.734 11.373-11.734-2.118-2.118-2.118-2.118-8.992 7.073c-14.57 11.461-41.868 36.832-41.868 38.913 0 4.61 7.389 1.14 18.678-8.773zm-80.354-47.503l24.183-20.928.228-4.209c.464-8.571-2.774-6.156-53.644 40.013-13.889 12.605-28.136 25.007-31.659 27.558l-6.407 4.64 2.438 3.946 2.439 3.946 19.12-17.018c10.516-9.36 30.002-26.436 43.303-37.947zm-62.27 37.726c6.133-5.703 24.408-21.906 40.612-36.007 28.819-25.079 33.761-31.144 25.253-30.989l-4.209.076-20.202 18.798c-11.111 10.339-28.914 26.441-39.562 35.782-10.648 9.341-19.36 18.272-19.36 19.846 0 5.525 6.423 2.764 17.469-7.507zm13-28.648c20.279-17.755 36.871-33.665 36.871-35.354 0-6.52-7.691-2.458-24.465 12.922l-32.131 29.461c-8.078 7.407-16.863 14.698-19.521 16.2l-4.833 2.732 1.953 3.16c1.074 1.738 2.696 3.16 3.604 3.16.908 0 18.243-14.527 38.522-32.283zm-15.312-3.336c17.59-15.886 31.981-29.523 31.981-30.303 0-.78-2.225-1.419-4.944-1.419h-4.944l-30.41 27.389c-16.725 15.064-30.409 28.7-30.409 30.303 0 6.979 8.717 1.133 38.726-25.97zm5.704-23.158c1.288-1.825 1.801-3.86 1.139-4.521-2.416-2.416-18.146 8.127-35.27 23.639l-17.549 15.898 2.235 3.616 2.235 3.616 22.434-19.465c12.339-10.706 23.488-20.958 24.776-22.783zm-36.465 16.41l9.648-8.484-1.878-1.878-1.878-1.878-10.295 7.331c-5.662 4.032-10.295 8.743-10.295 10.468 0 5.129 4.464 3.44 14.698-5.559zm61.21-176.85c-26.337-3.838-40.184-8.382-61.607-20.219l-17.677-9.767v16.892h-6.658l.759-19.36c.417-10.648.4-34.235-.038-52.415l-.797-33.055-6.26 1.987-6.26 1.987-5.525-2.12c-3.039-1.166-5.525-3.542-5.525-5.279v-3.159l11.785 2.211 11.785 2.211.133-22.26c.073-12.243.133-47.26.133-77.816s-.06-71.465-.133-90.909l-.133-35.354h-87.144l-2.081-3.367-2.081-3.367h91.306v-46.792l7.576-7.959c4.167-4.377 11.364-10.545 15.993-13.706l8.418-5.747v-8.288l38.721-2.698 38.721-2.698 30.303 1.728 30.303 1.728 20.153 6.953 20.153 6.953 11.834 8.223c6.509 4.522 14.018 11.678 16.688 15.902l4.855 7.679 1.348 194.44 1.348 194.44h-7.354v-30.304h-2.845c-1.565 0-5.637 3.085-9.05 6.856l-6.205 6.856-15.361 6.926-15.361 6.926-25.253 4.619-25.253 4.619-16.835-.293c-9.259-.161-25.854-1.607-36.878-3.214zm82.603-8.1l24.28-5.107 16.27-8.855c8.949-4.87 18.955-11.823 22.237-15.449l5.966-6.594-1.12-157.05c-.616-86.378-1.382-157.31-1.701-157.63-.32-.32-11.863 4.862-25.653 11.515l-25.072 12.096-42.251 1.454-42.251 1.454-22.936-5.395-22.936-5.395h-29.488l-1.923-3.112-1.923-3.112 5.673-1.097 5.673-1.097-12.366-9.431-12.366-9.431v311.84l3.225 11.244 3.225 11.244 6.854 5.945c8.874 7.697 30.978 16.06 57.868 21.895l21.42 4.648 22.507.268 22.507.268 24.28-5.107zm6.463-335.24c8.333-1.915 23.676-7.304 34.096-11.975l18.944-8.492 3.783-8.303c2.081-4.567 3.783-10.388 3.783-12.937v-4.634l-8.441-10.032-8.441-10.032-13.768-7.176-13.768-7.176-20.72-4.886-20.72-4.886-33.67.069-33.67.069-21.127 4.532-21.128 4.532-13.077 9.063-13.077 9.063-4.074 9.836-4.074 9.836 5.043 7.697c2.774 4.233 10.909 11.688 18.077 16.565l13.034 8.867 20.202 5.234c30.525 7.908 31.331 8.011 65.657 8.342l31.987.308 15.152-3.483zm-367.85 337.94l-15.993-1.326v-6.972l38.732 1.719 38.732 1.719.83 2.793.83 2.793-23.569.3c-12.963.165-30.766-.297-39.562-1.026zm100.17-.957l-2.081-3.367h64.37v6.734h-60.208l-2.081-3.367zm85.859 0v-3.367h36.64l2.081 3.367 2.081 3.367h-40.802v-3.367zm-446.63-4.186l-1.575-2.548h67.738v7.27l-32.294-1.087-32.294-1.087-1.575-2.548zm109.93.819v-3.367h70.708v6.734h-70.708v-3.367zm-189.26-21.04c-.721-11.574-1.234-91.498-1.141-177.61l.17-156.57 26.936-9.308c14.815-5.119 48.906-16.773 75.758-25.897 26.852-9.124 64.712-22.682 84.133-30.128l35.312-13.539 3.24 3.24 3.24 3.24h52.526v6.734h-57.24v74.074h40.404v6.734h-40.562l.32 100.17.32 100.17 2.41 11.785 2.41 11.785 20.918 1.002 20.918 1.002v6.202l-26.624-2.053-26.624-2.053-26.407 15.03c-14.524 8.266-59.314 31.586-99.534 51.822l-73.127 36.792 11.679 1.045 11.679 1.045v6.328h-39.806l-1.311-21.044zm115.19-45.659c49.074-24.208 92.254-46.252 95.954-48.987l6.729-4.972-2.031-2.031-2.031-2.031-98.244 48.894c-54.034 26.892-99.523 48.894-101.09 48.894-1.563 0-4.53 2.033-6.593 4.519l-3.75 4.519 2.081 2.081 2.081 2.081 8.832-4.476c4.858-2.462 48.984-24.283 98.058-48.491zm-1.65-13.903l102.66-50.303v-3.569c0-1.963-.884-3.569-1.965-3.569s-48.051 22.716-104.38 50.48l-102.41 50.48v3.392c0 1.866.772 3.392 1.717 3.392.944 0 47.914-22.636 104.38-50.303zm9.226-19.064l93.434-46.738v-8.334l-76.599 38.199c-42.13 21.009-89.058 44.084-104.29 51.277l-27.686 13.078-.091 4.254-.091 4.254 10.943-4.626c6.019-2.544 52.988-25.658 104.38-51.364zm5.051-16.589l88.384-43.504v-8.262l-9.259 4.13c-5.093 2.271-52.058 25.304-104.37 51.184l-95.108 47.054-.01 4.054-.01 4.054 15.993-7.603c8.796-4.182 55.766-27.18 104.38-51.107zm-90.421 29.908c58.8-28.2 173.98-86.11 176.89-88.94l3.143-3.056-1.922-1.922-1.922-1.922-103.07 51.503c-89.48 44.711-110.68 56.605-100.9 56.605 1.195 0 13.695-5.525 27.778-12.277zm76.059-52.272l102.75-51.082v-7.868l-103.5 51.536-103.5 51.536-1.16 3.479c-.638 1.914-.3 3.479.752 3.479s48.147-22.987 104.66-51.082zm-2.381-12.795c91.191-45.403 108.49-55.147 104.62-58.942-.648-.637-47.325 21.992-103.72 50.286l-102.55 51.444-1.27 3.81c-.699 2.095-.607 3.81.202 3.81.81 0 47.032-22.684 102.72-50.409zm1.59-15.54c54.163-27.012 99.891-50.471 101.62-52.132l3.143-3.02-1.893-1.893-1.893-1.893-103.09 51.5c-92.666 46.294-110.76 56.551-99.741 56.551 1.856 0 47.689-22.1 101.85-49.112zm.922-15.069l102.61-50.713v-3.159c0-1.738-1.316-3.159-2.925-3.159s-42.139 20.046-90.067 44.546-93.581 47.606-101.45 51.347c-12.21 5.804-18.609 11.852-12.541 11.852.974 0 47.944-22.821 104.38-50.713zm1.414-14.864l101.19-50.425v-8.37l-32.828 16.174c-18.056 8.896-65.025 32.34-104.38 52.1l-71.549 35.926v7.264l3.186-1.122c1.752-.617 48.722-23.814 104.38-51.548zm22.067-25.917c40.741-20.429 75.488-38.478 77.217-40.109l3.143-2.966-1.944-1.944-1.944-1.944-102.04 51.873-102.04 51.873-1.367 4.102-1.367 4.102 28.13-13.922c15.471-7.657 61.463-30.636 102.2-51.065zm-22.677-2.832l101.8-50.555v-3.317c0-1.825-1.066-3.317-2.368-3.317s-41.833 20.007-90.067 44.461c-48.235 24.453-94.139 47.471-102.01 51.15-12.771 5.97-18.732 12.134-11.735 12.134 1.416 0 48.386-22.75 104.38-50.555zm-.863-14.26l102.62-51.347.021-4.258.021-4.258-104.38 52.34-104.38 52.34v3.264c0 1.796.779 3.264 1.732 3.264s47.913-23.106 104.36-51.347zm-.792-13.975c93.833-46.85 106.48-53.985 102.61-57.86-.837-.837-47.503 21.761-103.7 50.217l-102.18 51.738-1.433 4.3-1.433 4.3 2.946-1.322c1.62-.727 48.057-23.845 103.19-51.374zm2.276-15.512l101.18-50.531v-3.341c0-1.838-.751-3.341-1.669-3.341-4.379 0-207.09 102.97-207.09 105.19 0 1.403 1.438 2.551 3.197 2.551s48.728-22.739 104.38-50.531zm-2.552-13.48l102.05-50.543 1.122-3.329 1.122-3.329h-2.766c-1.521 0-48.617 22.932-104.66 50.961l-101.89 50.961v2.911c0 1.601.669 2.911 1.487 2.911.818 0 47.409-22.744 103.54-50.543zm-9.062-9.903l94.276-46.867-7.601-.216-7.601-.216-87.517 43.784-87.517 43.784v3.354c0 1.845.379 3.329.842 3.299s43.266-21.146 95.118-46.922zm9.721-18.915c54.781-26.982 100.53-50.567 101.67-52.413 5.08-8.22-3.913-5.161-44.477 15.128-23.842 11.926-70.244 35.017-103.11 51.313l-59.764 29.63v2.699c0 1.485 1.368 2.699 3.04 2.699s47.86-22.076 102.64-49.058zm-36.657 3.741l63.973-31.628-8.418-.264-8.418-.264-58.03 29.477c-50.539 25.672-65.359 34.845-55.607 34.417 1.389-.061 31.313-14.343 66.498-31.738zm-16.445-6.683l50.115-25.064-7.624-.188-7.624-.188-43.723 21.91-43.723 21.91v3.343c0 1.839.554 3.343 1.232 3.343.677 0 23.783-11.279 51.347-25.064zm61.058-44.15l95.118-46.848v-9.078l-2.525 1.154c-1.389.635-48.311 23.867-104.27 51.627l-101.75 50.473-.106 4.295-.106 4.295 9.259-4.536c5.093-2.495 52.062-25.617 104.38-51.383zm-88.458 29.792c17.763-8.712 23.465-14.45 14.358-14.45-4.542 0-35.746 15.652-41.051 20.591l-3.199 2.978h5.649c3.107 0 14.016-4.104 24.242-9.119zm-13.195-9.293l6.536-4.943-7.163-.107-7.163-.107-4.191 5.051-4.192 5.051h4.819c2.651 0 7.76-2.224 11.355-4.943zm3.939-17.294c-2.357-2.357-12.555 2.421-12.555 5.881v3.125l7.022-3.758c3.862-2.067 6.352-4.429 5.532-5.248zm55.408-11.447c19.787-10.109 35.51-18.846 34.941-19.416-1.49-1.49-40.594 13.624-63.569 24.57l-19.588 9.333 4.276 2.643c5.19 3.208.726 4.948 43.941-17.13zm63.379-16.835c40.725-20.378 74.045-37.79 74.045-38.692 0-3.728-47.396 16.64-99.379 42.706-49.848 24.996-62.531 33.037-52.107 33.037 1.868 0 36.716-16.673 77.441-37.052zm29.377 14.384c40.357-20.638 51.026-27.837 41.256-27.837-4.396 0-97.598 46.644-97.598 48.844 0 .914 2.651 1.688 5.892 1.721l5.892.059 44.558-22.787zm14.432 7.482l30.236-15.185v-3.333c0-1.833-.785-3.333-1.745-3.333-3.247 0-68.962 33.718-68.962 35.384 0 4.588 13.138.195 40.471-13.533zm31.775 12.051l1.937-3.134-2.622-1.621-2.622-1.621-8.375 4.636-8.375 4.636 9.061.119 9.061.119 1.937-3.134zm92.736 238.82v-3.367h60.606v6.734h-60.606v-3.367zm104.38 0v-3.367h63.974v6.734h-63.974v-3.367zm-70.707-228.96l-28.62-2.112 39.562-.627 39.562-.627v6.734l-10.943-.627c-6.019-.345-23.822-1.578-39.562-2.74zm-33.67-84.175v-3.367h63.576l2.081 3.367 2.081 3.367h-67.738v-3.367zm97.643.115v-3.252l28.557.106 28.557.106 1.945 3.146 1.945 3.146h-61.004v-3.252zm92.593-.115l2.081-3.367h36.64v6.734h-40.802l2.081-3.367z"/></svg>