<svg height="13.239mm" viewBox="0 0 327.88622 46.912029" width="92.536mm" xmlns="http://www.w3.org/2000/svg"><g transform="matrix(.28796 0 0 .28796 -162.51 -201.49)"><path d="m695.28 786.87h-12.817l-2.2461 5.2246q-.83008 1.9287-.83008 2.8809 0 .75683.70801 1.3428.73242.56152 3.125.73242v.90332h-10.425v-.90332q2.0752-.36621 2.6855-.95215 1.2451-1.1719 2.7588-4.7607l11.646-27.246h.85449l11.523 27.539q1.3916 3.3203 2.5146 4.3213 1.1475.97656 3.1738 1.0986v.90332h-13.062v-.90332q1.9775-.0977 2.6611-.65918.708-.56152.708-1.3672 0-1.0742-.97656-3.3936l-2.002-4.7607zm-.68359-1.8066-5.6152-13.379-5.7617 13.379h11.377z"/><path d="m726.51 779.69q2.4414-2.4414 2.8809-2.8076 1.0986-.92774 2.3682-1.4404 1.2695-.5127 2.5146-.5127 2.0996 0 3.6133 1.2207t2.0264 3.54q2.5146-2.9297 4.248-3.833 1.7334-.92774 3.5645-.92774 1.7822 0 3.1494.92774 1.3916.90332 2.1973 2.9785.53711 1.416.53711 4.4434v9.6191q0 2.0996.31739 2.8809.24414.53711.90332.92774.65918.36621 2.1484.36621v.8789h-11.035v-.8789h.46387q1.4404 0 2.2461-.56153.56152-.39062.80566-1.2451.0977-.41504.0977-2.3682v-9.6191q0-2.7344-.65918-3.8574-.95215-1.5625-3.0518-1.5625-1.2939 0-2.6123.65918-1.294.63476-3.1494 2.3926l-.0488.26855.0488 1.0498v10.669q0 2.2949.24414 2.8564.26856.56152.97657.95215.708.36621 2.417.36621v.8789h-11.304v-.8789q1.8555 0 2.5391-.43946.70801-.43945.97656-1.3184.12207-.41503.12207-2.417v-9.6191q0-2.7344-.80566-3.9307-1.0742-1.5625-3.0029-1.5625-1.3184 0-2.6123.70801-2.0264 1.0742-3.125 2.417v11.987q0 2.1973.29297 2.8564.31739.65918.90332 1.001.61036.31739 2.4414.31739v.8789h-11.06v-.8789q1.5381 0 2.1484-.31739.61035-.34179.92773-1.0498.31738-.73242.31738-2.8076v-8.5449q0-3.6865-.21972-4.7607-.1709-.80567-.53711-1.0986-.36621-.31739-1.001-.31739-.68359 0-1.6357.36621l-.36621-.8789 6.7383-2.7344h1.0498v4.7607z"/><path d="m762.59 784.01q-.0244 4.9805 2.417 7.8125t5.7373 2.832q2.1973 0 3.8086-1.1963 1.6357-1.2207 2.7344-4.1504l.75684.48829q-.51269 3.3447-2.9785 6.1035-2.4658 2.7344-6.1768 2.7344-4.0283 0-6.9092-3.125-2.8564-3.1494-2.8564-8.4473 0-5.7373 2.9297-8.9356 2.9541-3.2226 7.3975-3.2226 3.7598 0 6.1768 2.4902 2.417 2.4658 2.417 6.6162h-15.454zm0-1.416h10.352q-.12207-2.1484-.51269-3.0274-.61036-1.3672-1.8311-2.1484-1.1963-.78125-2.5146-.78125-2.0264 0-3.6377 1.5869-1.5869 1.5625-1.8555 4.3701z"/><path d="m787.52 779.67q3.9307-4.7363 7.4951-4.7363 1.8311 0 3.1494.92774 1.3184.90332 2.0996 3.0029.53711 1.4648.53711 4.4922v9.5459q0 2.124.34179 2.8809.26856.61035.8545.95215.61035.3418 2.2217.3418v.8789h-11.06v-.8789h.46386q1.5625 0 2.1728-.46387.63477-.48828.87891-1.416.0977-.36621.0977-2.2949v-9.1553q0-3.0518-.80567-4.419-.78125-1.3916-2.6611-1.3916-2.9053 0-5.7861 3.1738v11.792q0 2.2705.26855 2.8076.3418.70801.92774 1.0498.61035.31739 2.4414.31739v.8789h-11.06v-.8789h.48828q1.709 0 2.2949-.8545.61035-.8789.61035-3.3203v-8.3008q0-4.0283-.19532-4.9072-.17089-.8789-.56152-1.1963-.36621-.31739-1.001-.31739-.68359 0-1.6357.36621l-.36621-.8789 6.7383-2.7344h1.0498v4.7363z"/><path d="m825.61 775.59v13.55q0 3.8818.1709 4.7607.19532.85449.58594 1.1963.41504.34179.95215.34179.75683 0 1.709-.41503l.3418.85449-6.6894 2.7588h-1.0986v-4.7363q-2.8809 3.125-4.3945 3.9307-1.5137.80567-3.1982.80567-1.8799 0-3.2715-1.0742-1.3672-1.0986-1.9043-2.8076-.53711-1.709-.53711-4.834v-9.9854q0-1.5869-.3418-2.1973-.34179-.61035-1.0254-.92774-.65918-.34179-2.417-.31738v-.90332h7.8369v14.966q0 3.125 1.0742 4.1016 1.0986.97657 2.6367.97657 1.0498 0 2.3682-.65918 1.3428-.65918 3.1738-2.5146v-12.671q0-1.9043-.708-2.5635-.6836-.68359-2.8809-.73242v-.90332h7.6172z"/><path d="m846.8 795.44q-1.6357 1.709-3.1982 2.4658-1.5625.73243-3.3691.73243-3.6621 0-6.3965-3.0518-2.7344-3.0762-2.7344-7.8857 0-4.8096 3.0273-8.7891 3.0274-4.0039 7.7881-4.0039 2.9541 0 4.8828 1.8799v-4.126q0-3.833-.19531-4.7119-.1709-.87891-.56153-1.1963-.39062-.31738-.97656-.31738-.63476 0-1.6846.39062l-.31738-.85449 6.665-2.7344h1.0986v25.854q0 3.9307.1709 4.8096.19531.85449.58594 1.1963.41504.34179.95215.34179.65918 0 1.7578-.41503l.26855.85449-6.6406 2.7588h-1.123v-3.1982zm0-1.709v-11.523q-.14648-1.6602-.87891-3.0273-.73242-1.3672-1.9531-2.0508-1.1963-.70801-2.3438-.70801-2.1484 0-3.833 1.9287-2.2217 2.5391-2.2217 7.4219 0 4.9316 2.1484 7.5684 2.1484 2.6123 4.7852 2.6123 2.2217 0 4.2969-2.2217z"/><path d="m866.94 774.93q5.0781 0 8.1543 3.8574 2.6123 3.2959 2.6123 7.5684 0 3.0029-1.4404 6.0791t-3.9795 4.6387q-2.5146 1.5625-5.6152 1.5625-5.0537 0-8.0322-4.0283-2.5146-3.3936-2.5146-7.6172 0-3.0762 1.5137-6.1035 1.5381-3.0518 4.0283-4.4922 2.4902-1.4648 5.2734-1.4648zm-.75683 1.5869q-1.294 0-2.6123.78125-1.2939.75683-2.0996 2.6855-.80566 1.9287-.80566 4.9561 0 4.8828 1.9287 8.4228 1.9531 3.54 5.127 3.54 2.3682 0 3.9062-1.9531 1.5381-1.9531 1.5381-6.7139 0-5.957-2.5635-9.375-1.7334-2.3438-4.4189-2.3438z"/><path d="m1017.8 797.95v-.90332h1.2451q2.0997 0 2.9786-1.3428.5371-.80566.5371-3.6133v-21.387q0-3.1006-.6836-3.8818-.9522-1.0742-2.8321-1.0742h-1.2451v-.90332h13.477q7.4219 0 11.279 1.6846 3.8818 1.6846 6.2256 5.6152 2.3681 3.9307 2.3681 9.082 0 6.9092-4.1992 11.548-4.7119 5.1758-14.356 5.1758h-14.795zm9.4483-2.3926q3.1006.6836 5.2002.6836 5.664 0 9.3994-3.9795 3.7353-3.9795 3.7353-10.791 0-6.8604-3.7353-10.815-3.7354-3.9551-9.5948-3.9551-2.1972 0-5.0048.70801v28.149z"/><path d="m1058.4 784.01q-.024 4.9805 2.417 7.8125 2.4414 2.832 5.7373 2.832 2.1973 0 3.8086-1.1963 1.6357-1.2207 2.7344-4.1504l.7568.48829q-.5127 3.3447-2.9785 6.1035-2.4658 2.7344-6.1768 2.7344-4.0283 0-6.9091-3.125-2.8565-3.1494-2.8565-8.4473 0-5.7373 2.9297-8.9356 2.9541-3.2226 7.3975-3.2226 3.7597 0 6.1767 2.4902 2.417 2.4658 2.417 6.6162h-15.454zm0-1.416h10.352q-.1221-2.1484-.5127-3.0274-.6104-1.3672-1.8311-2.1484-1.1963-.78125-2.5146-.78125-2.0264 0-3.6377 1.5869-1.5869 1.5625-1.8555 4.3701z"/><path d="m1088.2 775.59h10.522v.90332h-.6836q-.9521 0-1.4648.46387-.4883.46387-.4883 1.2451 0 .85449.5127 2.0264l5.2002 12.354 5.2246-12.817q.5615-1.3672.5615-2.0752 0-.3418-.1953-.56152-.2685-.36621-.6836-.48828-.415-.14649-1.6846-.14649v-.90332h7.2998v.90332q-1.2695.0977-1.7578.5127-.8545.73242-1.5381 2.4414l-7.9345 19.189h-1.001l-7.9834-18.872q-.5371-1.3184-1.0254-1.8799-.4883-.58593-1.2451-.97656-.415-.21973-1.6357-.41504v-.90332z"/><path d="m1118.1 784.01q-.024 4.9805 2.417 7.8125 2.4414 2.832 5.7373 2.832 2.1972 0 3.8086-1.1963 1.6357-1.2207 2.7343-4.1504l.7569.48829q-.5127 3.3447-2.9785 6.1035-2.4659 2.7344-6.1768 2.7344-4.0283 0-6.9092-3.125-2.8564-3.1494-2.8564-8.4473 0-5.7373 2.9297-8.9356 2.9541-3.2226 7.3974-3.2226 3.7598 0 6.1768 2.4902 2.417 2.4658 2.417 6.6162h-15.454zm0-1.416h10.352q-.122-2.1484-.5127-3.0274-.6103-1.3672-1.831-2.1484-1.1963-.78125-2.5147-.78125-2.0263 0-3.6377 1.5869-1.5869 1.5625-1.8554 4.3701z"/><path d="m1155.9 791.09-.2686 6.8604h-19.726v-.8789l14.844-19.775h-7.3242q-2.3682 0-3.1006.31738-.7324.29297-1.1963 1.1475-.6592 1.2207-.7568 3.0273h-.9766l.1465-6.2012h18.75v.90332l-14.99 19.824h8.1543q2.5634 0 3.4668-.41504.9277-.43945 1.4892-1.5137.3906-.78125.6592-3.2959h.8301z"/><path d="m1174.9 784.01q-.024 4.9805 2.417 7.8125 2.4414 2.832 5.7373 2.832 2.1973 0 3.8086-1.1963 1.6357-1.2207 2.7344-4.1504l.7568.48829q-.5127 3.3447-2.9785 6.1035-2.4658 2.7344-6.1768 2.7344-4.0283 0-6.9091-3.125-2.8565-3.1494-2.8565-8.4473 0-5.7373 2.9297-8.9356 2.9541-3.2226 7.3975-3.2226 3.7597 0 6.1767 2.4902 2.417 2.4658 2.417 6.6162h-15.454zm0-1.416h10.352q-.1221-2.1484-.5127-3.0274-.6104-1.3672-1.8311-2.1484-1.1963-.78125-2.5146-.78125-2.0264 0-3.6377 1.5869-1.5869 1.5625-1.8555 4.3701z"/><path d="m1199.8 779.67q3.9306-4.7363 7.4951-4.7363 1.831 0 3.1494.92774 1.3184.90332 2.0996 3.0029.5371 1.4648.5371 4.4922v9.5459q0 2.124.3418 2.8809.2686.61035.8545.95215.6104.3418 2.2217.3418v.8789h-11.06v-.8789h.4639q1.5625 0 2.1728-.46387.6348-.48828.8789-1.416.098-.36621.098-2.2949v-9.1553q0-3.0518-.8057-4.419-.7812-1.3916-2.6611-1.3916-2.9053 0-5.7861 3.1738v11.792q0 2.2705.2685 2.8076.3418.70801.9278 1.0498.6103.31739 2.4414.31739v.8789h-11.06v-.8789h.4883q1.709 0 2.2949-.8545.6104-.8789.6104-3.3203v-8.3008q0-4.0283-.1954-4.9072-.1709-.8789-.5615-1.1963-.3662-.31739-1.001-.31739-.6836 0-1.6357.36621l-.3662-.8789 6.7383-2.7344h1.0498v4.7363z"/><path d="m1249.8 789.46q-.9034 4.4189-3.5401 6.8115-2.6367 2.3682-5.8349 2.3682-3.8086 0-6.6407-3.1982-2.832-3.1982-2.832-8.6426 0-5.2734 3.125-8.5693 3.1494-3.2959 7.5439-3.2959 3.2959 0 5.42 1.7578 2.124 1.7334 2.124 3.6133 0 .92773-.6104 1.5137-.5859.56152-1.6601.56152-1.4404 0-2.1729-.92773-.415-.5127-.5615-1.9531-.1221-1.4404-.9766-2.1973-.8544-.73243-2.3681-.73243-2.4414 0-3.9307 1.8066-1.9775 2.3926-1.9775 6.3232 0 4.0039 1.9531 7.0801 1.9775 3.0518 5.3223 3.0518 2.3926 0 4.2968-1.6357 1.3428-1.123 2.6124-4.0772l.708.3418z"/><path d="m1272.6 775.59v13.55q0 3.8818.1709 4.7607.1953.85449.5859 1.1963.4151.34179.9522.34179.7568 0 1.7089-.41503l.3418.85449-6.6894 2.7588h-1.0986v-4.7363q-2.8809 3.125-4.3946 3.9307-1.5136.80567-3.1982.80567-1.8799 0-3.2715-1.0742-1.3672-1.0986-1.9043-2.8076t-.5371-4.834v-9.9854q0-1.5869-.3418-2.1973-.3418-.61035-1.0254-.92774-.6592-.34179-2.417-.31738v-.90332h7.8369v14.966q0 3.125 1.0742 4.1016 1.0987.97657 2.6368.97657 1.0498 0 2.3681-.65918 1.3428-.65918 3.1739-2.5146v-12.671q0-1.9043-.708-2.5635-.6836-.68359-2.8809-.73242v-.90332h7.6172z"/><path d="m1290.6 794.73q-3.4424 2.6611-4.3213 3.0762-1.3184.61035-2.8076.61035-2.3194 0-3.833-1.5869-1.4893-1.5869-1.4893-4.1748 0-1.6357.7324-2.832 1.001-1.6602 3.4668-3.125 2.4903-1.4648 8.252-3.5644v-.87891q0-3.3447-1.0742-4.5898-1.0498-1.2451-3.0762-1.2451-1.5381 0-2.4414.83008-.9277.83008-.9277 1.9043l.049 1.416q0 1.123-.586 1.7334-.5615.61035-1.4892.61035-.9033 0-1.4893-.63477-.5615-.63476-.5615-1.7334 0-2.0996 2.1484-3.8574 2.1485-1.7578 6.0303-1.7578 2.9785 0 4.8828 1.001 1.4405.75683 2.1241 2.3682.4394 1.0498.4394 4.2969v7.5928q0 3.1982.1221 3.9307.122.708.3906.95214.293.24414.6592.24414.3906 0 .6836-.17089.5127-.31739 1.9775-1.7822v1.3672q-2.7344 3.6621-5.2246 3.6621-1.1963 0-1.9043-.83008t-.7324-2.832zm0-1.5869v-8.5205q-3.6865 1.4648-4.7608 2.0752-1.9287 1.0742-2.7587 2.2461-.8301 1.1719-.8301 2.5635 0 1.7578 1.0498 2.9297 1.0498 1.1475 2.417 1.1475 1.8554 0 4.8828-2.4414z"/><path d="m1306.7 779.67q3.9307-4.7363 7.4951-4.7363 1.8311 0 3.1494.92774 1.3184.90332 2.0997 3.0029.5371 1.4648.5371 4.4922v9.5459q0 2.124.3418 2.8809.2685.61035.8545.95215.6103.3418 2.2216.3418v.8789h-11.06v-.8789h.4638q1.5625 0 2.1729-.46387.6347-.48828.8789-1.416.098-.36621.098-2.2949v-9.1553q0-3.0518-.8056-4.419-.7813-1.3916-2.6612-1.3916-2.9052 0-5.7861 3.1738v11.792q0 2.2705.2686 2.8076.3418.70801.9277 1.0498.6104.31739 2.4414.31739v.8789h-11.06v-.8789h.4883q1.709 0 2.2949-.8545.6104-.8789.6104-3.3203v-8.3008q0-4.0283-.1953-4.9072-.1709-.8789-.5615-1.1963-.3663-.31739-1.001-.31739-.6836 0-1.6358.36621l-.3662-.8789 6.7383-2.7344h1.0498v4.7363z"/><path d="m1340.9 795.44q-1.6358 1.709-3.1983 2.4658-1.5625.73243-3.3691.73243-3.6621 0-6.3965-3.0518-2.7344-3.0762-2.7344-7.8857 0-4.8096 3.0274-8.7891 3.0273-4.0039 7.788-4.0039 2.9541 0 4.8829 1.8799v-4.126q0-3.833-.1954-4.7119-.1709-.87891-.5615-1.1963-.3906-.31738-.9765-.31738-.6348 0-1.6846.39062l-.3174-.85449 6.665-2.7344h1.0987v25.854q0 3.9307.1709 4.8096.1953.85449.5859 1.1963.4151.34179.9522.34179.6591 0 1.7578-.41503l.2685.85449-6.6406 2.7588h-1.123v-3.1982zm0-1.709v-11.523q-.1465-1.6602-.879-3.0273-.7324-1.3672-1.9531-2.0508-1.1963-.70801-2.3437-.70801-2.1485 0-3.833 1.9287-2.2217 2.5391-2.2217 7.4219 0 4.9316 2.1484 7.5684 2.1485 2.6123 4.7852 2.6123 2.2217 0 4.2969-2.2217z"/><path d="m1361.1 774.93q5.0781 0 8.1543 3.8574 2.6123 3.2959 2.6123 7.5684 0 3.0029-1.4405 6.0791-1.4404 3.0762-3.9795 4.6387-2.5146 1.5625-5.6152 1.5625-5.0537 0-8.0322-4.0283-2.5147-3.3936-2.5147-7.6172 0-3.0762 1.5137-6.1035 1.5381-3.0518 4.0283-4.4922 2.4903-1.4648 5.2735-1.4648zm-.7569 1.5869q-1.2939 0-2.6123.78125-1.2939.75683-2.0996 2.6855t-.8057 4.9561q0 4.8828 1.9288 8.4228 1.9531 3.54 5.1269 3.54 2.3682 0 3.9063-1.9531 1.538-1.9531 1.538-6.7139 0-5.957-2.5634-9.375-1.7334-2.3438-4.419-2.3438z"/><path d="m1510.4 764.85h8.9844l20.239 24.829v-19.092q0-3.0518-.6836-3.8086-.9033-1.0254-2.8564-1.0254h-1.1475v-.90332h11.523v.90332h-1.1718q-2.0996 0-2.9785 1.2695-.5372.78125-.5372 3.5644v27.905h-.8789l-21.826-26.66v20.386q0 3.0518.6591 3.8086.9278 1.0254 2.8565 1.0254h1.1719v.90332h-11.524v-.90332h1.1475q2.124 0 3.0029-1.2695.5371-.78125.5371-3.5644v-23.022q-1.4404-1.6846-2.1972-2.2217-.7325-.53711-2.1729-1.001-.708-.21973-2.1484-.21973v-.90332z"/><path d="m1568.4 775.59v13.55q0 3.8818.1709 4.7607.1953.85449.5859 1.1963.415.34179.9521.34179.7569 0 1.709-.41503l.3418.85449-6.6894 2.7588h-1.0987v-4.7363q-2.8808 3.125-4.3945 3.9307-1.5137.80567-3.1982.80567-1.8799 0-3.2715-1.0742-1.3672-1.0986-1.9043-2.8076t-.5371-4.834v-9.9854q0-1.5869-.3418-2.1973-.3418-.61035-1.0254-.92774-.6592-.34179-2.417-.31738v-.90332h7.8369v14.966q0 3.125 1.0742 4.1016 1.0987.97657 2.6367.97657 1.0499 0 2.3682-.65918 1.3428-.65918 3.1738-2.5146v-12.671q0-1.9043-.708-2.5635-.6836-.68359-2.8808-.73242v-.90332h7.6172z"/><path d="m1580.3 779.67q3.9307-4.7363 7.4951-4.7363 1.8311 0 3.1495.92774 1.3183.90332 2.0996 3.0029.5371 1.4648.5371 4.4922v9.5459q0 2.124.3418 2.8809.2685.61035.8545.95215.6103.3418 2.2216.3418v.8789h-11.06v-.8789h.4638q1.5625 0 2.1729-.46387.6348-.48828.8789-1.416.098-.36621.098-2.2949v-9.1553q0-3.0518-.8057-4.419-.7813-1.3916-2.6611-1.3916-2.9053 0-5.7862 3.1738v11.792q0 2.2705.2686 2.8076.3418.70801.9277 1.0498.6104.31739 2.4414.31739v.8789h-11.06v-.8789h.4883q1.709 0 2.295-.8545.6103-.8789.6103-3.3203v-8.3008q0-4.0283-.1953-4.9072-.1709-.8789-.5615-1.1963-.3662-.31739-1.001-.31739-.6836 0-1.6358.36621l-.3662-.8789 6.7383-2.7344h1.0498v4.7363z"/><path d="m1617.8 789.46q-.9033 4.4189-3.54 6.8115-2.6367 2.3682-5.835 2.3682-3.8086 0-6.6406-3.1982t-2.832-8.6426q0-5.2734 3.125-8.5693 3.1494-3.2959 7.5439-3.2959 3.2959 0 5.4199 1.7578 2.124 1.7334 2.124 3.6133 0 .92773-.6103 1.5137-.5859.56152-1.6602.56152-1.4404 0-2.1728-.92773-.4151-.5127-.5615-1.9531-.1221-1.4404-.9766-2.1973-.8545-.73243-2.3682-.73243-2.4414 0-3.9306 1.8066-1.9776 2.3926-1.9776 6.3232 0 4.0039 1.9532 7.0801 1.9775 3.0518 5.3222 3.0518 2.3926 0 4.2969-1.6357 1.3428-1.123 2.6123-4.0772l.708.3418z"/><path d="m1633.6 794.73q-3.4423 2.6611-4.3213 3.0762-1.3183.61035-2.8076.61035-2.3193 0-3.833-1.5869-1.4892-1.5869-1.4892-4.1748 0-1.6357.7324-2.832 1.001-1.6602 3.4668-3.125 2.4902-1.4648 8.2519-3.5644v-.87891q0-3.3447-1.0742-4.5898-1.0498-1.2451-3.0762-1.2451-1.538 0-2.4414.83008-.9277.83008-.9277 1.9043l.049 1.416q0 1.123-.5859 1.7334-.5615.61035-1.4893.61035-.9033 0-1.4892-.63477-.5615-.63476-.5615-1.7334 0-2.0996 2.1484-3.8574t6.0303-1.7578q2.9785 0 4.8828 1.001 1.4404.75683 2.124 2.3682.4395 1.0498.4395 4.2969v7.5928q0 3.1982.122 3.9307.1221.708.3907.95214.2929.24414.6591.24414.3907 0 .6836-.17089.5127-.31739 1.9776-1.7822v1.3672q-2.7344 3.6621-5.2246 3.6621-1.1963 0-1.9043-.83008t-.7325-2.832zm0-1.5869v-8.5205q-3.6865 1.4648-4.7607 2.0752-1.9287 1.0742-2.7588 2.2461t-.8301 2.5635q0 1.7578 1.0498 2.9297 1.0498 1.1475 2.417 1.1475 1.8555 0 4.8828-2.4414z"/><g fill="none" stroke="#000" stroke-linecap="square" stroke-linejoin="round" stroke-width="4"><path d="m627.85 763.23h35.86v35.86h-35.86z"/><path d="m627.85 763.23h35.86v35.86h-35.86z"/><path d="m975.85 763.23h35.86v35.86h-35.86z"/><path d="m1469.8 763.23h35.86v35.86h-35.86z"/></g></g></svg>