<svg xmlns="http://www.w3.org/2000/svg" height="136.72mm" width="262.62mm" viewBox="0 0 930.54448 484.44679"><path d="M906.94 466.22c-.722-.71-200.4-2.26-443.74-3.444-243.33-1.184-442.91-2.592-443.51-3.13-.599-.538-1.293-99.92-1.543-220.85l-.455-219.87 443.21-.455c243.77-.25 444.91-.591 447-.758 2.991-.239 3.972 46.476 4.663 222.16.772 196.15-.113 231.77-5.623 226.35zm-2.713-222.76c-.181-117.34-1.12-214.62-2.088-216.19-1.801-2.915-423.45-2.182-426.25.741-.798.833-1.959 97.295-2.579 214.36l-1.129 212.84 113.69.793c62.53.436 159.81.793 216.19.793h102.49l-.328-213.34zm-244.91 108.12c-41.004-5.992-78.151-39.22-90.258-80.738-7.942-27.235-5.014-64.276 7.009-88.673 12.403-25.168 30.94-43.717 55.087-55.122 76.528-36.146 163.87 19.24 163.87 103.92 0 75.987-62.284 131.35-135.71 120.62zm61.836-17.364c23.088-10.213 52.585-37.785 52.646-49.212.006-1.152-21.436 10.779-47.65 26.515s-48.794 28.61-50.179 28.61c-1.385 0-1.797 1.167-.915 2.592 2.356 3.812 29.629-1.221 46.098-8.505zm-50.84 3.343c4.424-3.08 30.666-18.794 58.315-34.921 45.22-26.374 50.596-30.379 53.504-39.854 3.932-12.813 1.044-13.506-14.219-3.411-13.594 8.991-90.871 56.079-110.01 67.033-15.346 8.783-17.612 12.437-9.091 14.664 10.06 2.629 13.486 2.07 21.502-3.511zm47.536-54.919c63.598-38.133 68.083-41.398 68.083-49.567 0-5.78-1.284-8.233-3.788-7.237-9.411 3.746-161.47 96.742-162.38 99.302-2.163 6.152 12.895 8.476 21.564 3.329 4.638-2.753 39.069-23.376 76.515-45.828zm-53.547 5.521c27.73-16.916 66.516-40.282 86.192-51.924 25.301-14.971 35.281-22.452 34.091-25.553-.925-2.411-1.682-5.636-1.682-7.167 0-3.345-8.161-3.752-9.596-.479-.9 2.053-12.363 9.223-78.679 49.212-9.674 5.833-32.752 19.47-51.285 30.303s-35.774 21.65-38.313 24.037c-4.125 3.877-4.035 4.766.844 8.333 3.003 2.196 6.035 3.993 6.736 3.993.701 0 23.964-13.84 51.694-30.756zm-46.482 2.725c15.931-10.404 133.03-81.349 151.3-91.666 12.122-6.845 12.32-7.299 6.614-15.102-3.923-5.365-5.512-4.797-31.061 11.114-14.809 9.223-41.244 25.332-58.744 35.799s-46.477 27.801-64.394 38.52c-29.975 17.933-36.018 23.701-30.556 29.164 4.11 4.11 12.143 1.767 26.837-7.829zm4.629-30.302c19.922-12.083 40.651-24.403 46.064-27.378 36.783-20.21 97.722-59.254 97.722-62.611 0-2.226-2.08-5.36-4.623-6.964-3.492-2.203-18.316 5.42-60.606 31.167-30.791 18.746-70.642 42.843-88.559 53.549s-32.576 20.625-32.576 22.042c0 3.773 3.461 12.163 5.017 12.163.736 0 17.638-9.886 37.56-21.97zm-4.699-23.562c43.009-24.992 127.16-76.361 131.15-80.064 6.115-5.665-6.842-16.397-13.908-11.519-2.819 1.946-10.58 6.777-17.247 10.734-6.667 3.958-33.939 20.59-60.606 36.96s-56.326 34.389-65.909 40.041c-17.049 10.055-19.358 13.543-15.543 23.483 1.717 4.476 2.574 4.447 9.848-.323 4.382-2.874 18.876-11.564 32.21-19.312zm18.182-38.676c26.667-15.82 53.258-31.833 59.091-35.584 5.833-3.751 16.39-10.036 23.459-13.968 14.481-8.054 14.979-11.953 2-15.675-7.983-2.289-13.812.502-55.823 26.73-25.8 16.107-56.796 34.747-68.879 41.421-20.672 11.419-21.97 12.751-21.97 22.574 0 12.454-6.005 14.919 62.121-25.498zm-35.154-7.458c11.782-7.083 39.174-23.572 60.871-36.641s38.684-25.001 37.748-26.515c-4.313-6.979-23.506-2.434-43.237 10.24-11.125 7.146-31.367 19.483-44.981 27.416-18.745 10.923-25.685 16.78-28.591 24.129-2.11 5.338-4.38 10.728-5.044 11.978-2.196 4.133 1.598 2.401 23.234-10.606zm57.33-62.369c-6.013-2.466-32.545 9.71-45.66 20.954-7.917 6.788-14.394 13.444-14.394 14.792 0 1.348 14.064-5.917 31.253-16.145s30.15-19.049 28.801-19.602zm-194.09 112.37l.815-212.88-67.481-.056c-37.115-.031-134.78-.12-217.03-.197-82.253-.077-149.96.289-150.46.814-.498.525-1.562 96.759-2.364 213.85l-1.458 212.9 218.58-.777 218.58-.777.815-212.88zm-326.68 104.56c-.058-2.083-.115-53.561-.128-114.39l-.023-110.61h226.02l.794 114.39.794 114.39h-113.67c-88.862 0-113.7-.827-113.78-3.788zm100.77-17.42c3.942-5.833 11.76-18.788 17.373-28.788 9.57-17.051 37.982-66.001 79.269-136.57 9.818-16.781 17.851-31.441 17.851-32.576 0-1.135-2.604-2.064-5.787-2.064-4.029 0-9.536 6.675-18.128 21.97-6.788 12.083-16.115 28.317-20.728 36.074-4.613 7.757-15.315 26.167-23.783 40.909-20.001 34.823-24.15 41.926-46.348 79.346-17.356 29.258-20.808 40.115-11.006 34.617 2.266-1.271 7.345-7.083 11.287-12.916zm37.426 10.987c.114-.21 10.892-18.79 23.951-41.29 13.06-22.5 27.815-48.409 32.79-57.576 4.975-9.167 12.265-21.415 16.2-27.219 5.019-7.403 7.101-14.637 6.976-24.242-.214-16.458 4.423-22.972-46.693 65.582-22.281 38.6-42.673 73.482-45.316 77.515-5.572 8.504-3.353 12.281 5.604 9.536 3.454-1.059 6.373-2.096 6.487-2.306zm23.049-1.479c1.124-1.063 14.496-23.442 29.716-49.731 24.652-42.581 27.572-49.197 26.745-60.606l-.928-12.807-27.273 47.735c-15 26.254-30.991 54.209-35.535 62.121-4.544 7.913-8.294 15.501-8.333 16.864-.074 2.577 12.036-.197 15.609-3.575zm-126.68-4.205c2.362-3.75 7.539-12.955 11.505-20.455s9.378-17.045 12.026-21.212c2.648-4.167 18.843-31.439 35.988-60.606s37.105-62.965 44.356-75.107c7.251-12.142 13.183-23.392 13.183-25 0-1.608-3.068-2.883-6.818-2.834-5.525.072-11.005 7.4-28.895 38.636-12.142 21.201-29.71 51.502-39.04 67.335-34.169 57.989-58.58 101.15-58.58 103.57 0 5.359 12.221 2.106 16.275-4.332zm24.793-6.061c4.172-7.083 12.49-21.061 18.484-31.061 25.081-41.845 59.101-100.06 71.583-122.49 5.027-9.034 12.351-21.156 16.275-26.938 8.634-12.722 9.076-18.758 1.376-18.758-4.167 0-11.433 9.843-26.284 35.606-11.289 19.583-37.962 65.013-59.273 100.96-45.274 76.356-44.892 75.559-36.206 75.559 4.389 0 8.891-4.128 14.046-12.879zm30.281-14.394c8.582-14.167 29.026-48.939 45.431-77.273 16.405-28.333 36.386-62.827 44.403-76.654 8.016-13.826 14.575-26.44 14.575-28.03 0-1.591-2.597-2.892-5.771-2.892-3.864 0-9.025 5.758-15.617 17.424-5.415 9.583-12.188 21.515-15.051 26.515-2.863 5-13.593 23.795-23.845 41.767-10.251 17.972-30.881 53.017-45.844 77.878s-27.205 46.048-27.205 47.081 2.997 1.442 6.661.91c4.668-.679 11.33-8.675 22.264-26.726zm33.174 13.636c3.804-6.667 14.782-25.758 24.396-42.424 9.614-16.667 20.335-35.283 23.825-41.369 3.49-6.086 15.624-27.037 26.963-46.558 16.654-28.67 20.44-37.55 19.697-46.194l-.92-10.701-6.283 11.805c-11.794 22.16-24.931 45.131-60.477 105.74-54.377 92.727-50.238 84.265-40.497 82.787 3.691-.56 9.294-6.076 13.296-13.09zm77.085-16.808c13.397-22.177 18.391-33.387 18.391-41.28 0-9.289-.649-10.297-4.545-7.064-2.5 2.075-4.545 4.88-4.545 6.233 0 1.353-8.862 17.209-19.692 35.235-10.831 18.026-19.694 33.797-19.697 35.047s2.628 2.273 5.847 2.273c4.173 0 11.127-8.733 24.242-30.444zm11.587 17.565c8.087-15.268 9.647-35.677 2.259-29.545-2.5 2.075-4.545 5.467-4.545 7.538s-2.7 7.198-6 11.394c-3.3 4.195-7.357 11.197-9.016 15.56-2.694 7.085-2.295 7.932 3.732 7.932 4.849 0 8.668-3.625 13.57-12.879zm6.805 8.155c0-2.598-1.364-3.881-3.03-2.852-1.667 1.03-3.03 3.156-3.03 4.724s1.364 2.851 3.03 2.851 3.03-2.126 3.03-4.724zm-196.22-19.53c9.942-17.938 29.833-52.017 72.968-125.02 19.456-32.926 35.374-60.54 35.374-61.364 0-.824-2.533-1.498-5.628-1.498-3.856 0-10.202 7.873-20.152 25-7.988 13.75-19.526 33.182-25.64 43.182-6.114 10-18.407 31.136-27.317 46.97-8.91 15.833-21.896 38.333-28.858 50-12.986 21.762-18.079 35.437-14.521 38.995 2.613 2.613 4.63.231 13.775-16.267zm1.678-37.121c6.636-12.083 28.578-49.682 48.759-83.552s36.693-62.848 36.693-64.394c0-1.546-3.28-2.811-7.288-2.811-5.939 0-9.966 4.628-21.757 25-7.958 13.75-23.77 40.859-35.136 60.243-11.367 19.384-20.667 36.161-20.667 37.282 0 1.121-3.409 7.056-7.576 13.188-5.156 7.588-7.576 15.28-7.576 24.082 0 7.113.559 12.933 1.241 12.933.683 0 6.671-9.886 13.307-21.97zm34.862-100.76c11.748-20 23.32-39.432 25.717-43.182 4.098-6.412 3.908-6.818-3.191-6.818-6.6 0-10.891 6-34.135 47.727-14.623 26.25-29.11 51.347-32.194 55.771-3.084 4.424-5.607 13.259-5.607 19.634v11.59l14.025-24.179c7.714-13.298 23.637-40.543 35.385-60.543zm-38.146 31.818c15.783-28.818 40.615-71.092 43.522-74.091 4.69-4.839 3.137-7.727-4.154-7.727-5.316 0-8.866 3.73-15.141 15.909-8.011 15.549-10.041 19.157-27.157 48.269-5.077 8.636-8.333 18.6-8.333 25.503 0 6.231.481 10.761 1.068 10.066.587-.694 5.175-8.763 10.196-17.929zm9.995-51.241c8.307-14.016 15.105-26.724 15.105-28.241 0-1.517-3.008-2.322-6.684-1.789-9.74 1.411-29.355 36.502-29.337 52.483.015 13.686-1.413 15.219 20.916-22.453zm-12.47-15.52c7.758-14.884 7.765-15.058.63-15.058-3.155 0-6.564 2.157-7.576 4.793-2.045 5.329-2.526 22.479-.63 22.479.665 0 4.074-5.497 7.576-12.215z"/></svg>