<svg clip-rule="evenodd" fill-rule="evenodd" height="205.18" image-rendering="optimizeQuality" shape-rendering="geometricPrecision" text-rendering="geometricPrecision" viewBox="0 0 1546.6631 204.9816" width="1546.7" xmlns="http://www.w3.org/2000/svg"><path d="m33.749 5.894v13.356h-1.139q-.554-3.844-2.001-6.122-1.416-2.278-4.063-3.616t-5.479-1.338q-3.201 0-5.295 1.823-2.093 1.794-2.093 4.101 0 1.766 1.324 3.218 1.909 2.136 9.081 5.695 5.849 2.905 7.973 4.471 2.155 1.538 3.294 3.645 1.17 2.107 1.17 4.414 0 4.385-3.694 7.575-3.663 3.161-9.45 3.161-1.816 0-3.417-.256-.954-.142-3.971-1.025-2.986-.911-3.786-.911-.77 0-1.231.427-.431.427-.646 1.766h-1.139v-13.242h1.139q.8 4.158 2.155 6.236 1.354 2.05 4.125 3.417 2.801 1.367 6.126 1.367 3.848 0 6.064-1.879 2.247-1.879 2.247-4.442 0-1.424-.862-2.876-.831-1.452-2.617-2.705-1.201-.854-6.557-3.616-5.356-2.791-7.634-4.442-2.247-1.652-3.417-3.645t-1.17-4.385q0-4.158 3.448-7.148 3.448-3.018 8.773-3.018 3.325 0 7.049 1.509 1.724.712 2.432.712.8 0 1.293-.427.523-.456.831-1.794h1.139z"/><path d="m50.897 18.544v20.959q0 2.449.4 3.275.4.797 1.139 1.196.77.399 2.77.399v1.025h-13.698v-1.025q2.062 0 2.77-.37t1.108-1.224q.431-.854.431-3.275v-10.052q0-4.243-.277-5.496-.215-.911-.677-1.253-.462-.37-1.262-.37-.862 0-2.093.427l-.431-1.025 8.496-3.189h1.324zm3.663-12.729-9.081 9.824h-1.047l3.232-9.824h6.895z"/><path d="m250.1 20.254h33.215v2.335h-33.215zm0 9.283h33.215v2.335h-33.215z"/><path d="m372.72 26.314q0-6.607 2.155-11.362 2.155-4.784 5.726-7.119 2.77-1.851 5.726-1.851 4.802 0 8.619 4.528 4.771 5.61 4.771 15.206 0 6.721-2.093 11.419-2.093 4.699-5.356 6.834-3.232 2.107-6.249 2.107-5.972 0-9.943-6.521-3.355-5.496-3.355-13.242zm6.033.712q0 7.973 2.124 13.014 1.755 4.243 5.233 4.243 1.662 0 3.448-1.367 1.785-1.395 2.709-4.642 1.416-4.898 1.416-13.811 0-6.607-1.478-11.02-1.108-3.275-2.863-4.642-1.262-.94-3.048-.94-2.093 0-3.725 1.737-2.216 2.364-3.017 7.432-.8 5.069-.8 9.995z"/><path d="m815.55 46.274 3.448-14.324h1.047q-.215 2.079-.215 3.446 0 3.901 2.678 6.35 2.709 2.449 7.049 2.449 4.033 0 6.126-2.278 2.093-2.307 2.093-5.297 0-1.936-.954-3.531-1.447-2.364-7.727-8.315-3.048-2.848-3.909-4.243-1.416-2.307-1.416-4.841 0-4.044 3.263-6.92t8.373-2.876q1.724 0 3.263.313.954.171 3.478 1.139 1.785.655 1.97.712.431.085.954.085.893 0 1.539-.427t1.508-1.823h1.17l-3.201 12.814h-1.047q.123-1.709.123-2.762 0-3.446-2.463-5.638t-6.495-2.193q-3.201 0-5.202 1.737t-2.001 4.015q0 1.993 1.262 3.816 1.293 1.794 5.88 5.895 4.617 4.072 5.972 6.379 1.354 2.278 1.354 4.87 0 2.933-1.693 5.695-1.662 2.734-4.802 4.243t-6.865 1.509q-1.847 0-3.448-.313t-5.11-1.538q-1.201-.427-2.001-.427-1.816 0-2.832 2.278h-1.17z"/><path d="m863.02 12.564-2.401 7.746h4.833l-.523 1.794h-4.802l-5.295 16.801q-.862 2.705-.862 3.503 0 .484.246.74t.585.256q.77 0 2.032-.997.739-.57 3.294-3.503l1.016.712q-2.832 3.816-5.356 5.382-1.724 1.082-3.478 1.082-1.354 0-2.216-.769-.862-.797-.862-2.022 0-1.538.985-4.699l5.141-16.488h-4.648l.308-1.111q3.386-.854 5.633-2.534 2.247-1.709 5.018-5.895h1.354z"/><path d="m893.7 19.624-6.003 19.307-.677 2.591q-.092.37-.092.626 0 .456.308.797.246.256.616.256.4 0 1.047-.456 1.201-.826 3.201-3.417l1.047.683q-2.124 2.962-4.371 4.528-2.247 1.538-4.156 1.538-1.324 0-2.001-.626-.646-.598-.646-1.766 0-1.395.677-3.674l.646-2.136q-4.033 4.87-7.419 6.806-2.432 1.395-4.771 1.395-2.247 0-3.879-1.709-1.632-1.737-1.632-4.756 0-4.528 2.924-9.54 2.955-5.04 7.48-8.059 3.54-2.392 6.68-2.392 1.878 0 3.109.911 1.262.911 1.909 3.018l1.108-3.246 4.895-.683zm-10.959 1.481q-1.97 0-4.186 1.709-3.14 2.421-5.602 7.176-2.432 4.756-2.432 8.6 0 1.936 1.047 3.075 1.047 1.111 2.401 1.111 3.355 0 7.296-4.585 5.264-6.094 5.264-12.501 0-2.421-1.016-3.503t-2.77-1.082z"/><path d="m909.56 19.624-4.094 12.957q5.756-7.945 8.804-10.451 3.078-2.506 5.91-2.506 1.539 0 2.524.94 1.016.94 1.016 2.449 0 1.709-.893 4.556l-3.756 11.989q-.646 2.079-.646 2.534 0 .399.246.683.246.256.523.256.369 0 .893-.37 1.632-1.196 3.571-3.645l.954.541q-2.863 3.787-5.418 5.411-1.785 1.111-3.201 1.111-1.139 0-1.816-.655-.677-.626-.677-1.709 0-1.367 1.047-4.699l3.571-11.448q.677-2.136.677-3.332 0-.57-.4-.911-.4-.37-.985-.37-.862 0-2.062.683-2.278 1.281-4.741 4.243-2.463 2.933-5.202 7.518-1.447 2.421-2.401 5.297l-1.539 4.699h-4.617l5.602-17.826q.985-3.218.985-3.873 0-.626-.554-1.082-.523-.484-1.324-.484-.369 0-1.293.114l-1.17.171-.185-1.025z"/><path d="m961.28 4.904-10.59 33.602q-.862 2.734-.862 3.588 0 .285.246.541.277.256.554.256.4 0 .954-.37 1.047-.683 3.509-3.417l1.047.598q-2.216 2.848-4.494 4.613-2.247 1.766-4.217 1.766-1.047 0-1.724-.683t-.677-1.936q0-1.623.923-4.357l1.201-3.531q-4.464 6.379-8.127 8.828-2.524 1.68-4.833 1.68-2.34 0-4.094-1.908-1.724-1.936-1.724-5.24 0-4.243 2.924-9.056t7.727-7.831q3.786-2.421 6.957-2.421 1.662 0 2.863.626t2.37 2.079l3.017-9.91q.339-1.054.554-1.68.369-1.139.369-1.879 0-.598-.462-.997-.646-.484-1.662-.484-.708 0-2.34.199v-1.054l10.589-1.623zm-11.421 20.218q0-1.823-1.139-2.933t-2.894-1.111q-3.879 0-8.096 5.923-4.186 5.923-4.186 11.334 0 2.136 1.016 3.275 1.016 1.111 2.432 1.111 3.201 0 8.034-6.407t4.833-11.191z"/><path d="m988.27 19.624-6.003 19.307-.677 2.591q-.092.37-.092.626 0 .456.308.797.246.256.616.256.4 0 1.047-.456 1.201-.826 3.201-3.417l1.047.683q-2.124 2.962-4.371 4.528-2.247 1.538-4.156 1.538-1.324 0-2.001-.626-.646-.598-.646-1.766 0-1.395.677-3.674l.646-2.136q-4.033 4.87-7.419 6.806-2.432 1.395-4.771 1.395-2.247 0-3.879-1.709-1.631-1.737-1.631-4.756 0-4.528 2.924-9.54 2.955-5.04 7.48-8.059 3.54-2.392 6.68-2.392 1.878 0 3.109.911 1.262.911 1.909 3.018l1.108-3.246 4.895-.683zm-10.959 1.481q-1.97 0-4.186 1.709-3.14 2.421-5.602 7.176-2.432 4.756-2.432 8.6 0 1.936 1.047 3.075 1.047 1.111 2.401 1.111 3.355 0 7.296-4.585 5.264-6.094 5.264-12.501 0-2.421-1.016-3.503t-2.77-1.082z"/><path d="m993.48 21.214 10.62-1.595-4.433 13.84q5.387-8.514 9.789-11.903 2.493-1.936 4.063-1.936 1.016 0 1.601.57.585.541.585 1.595 0 1.879-1.047 3.588-.739 1.281-2.124 1.281-.708 0-1.231-.427-.493-.427-.616-1.31-.062-.541-.277-.712-.246-.228-.585-.228-.523 0-.985.228-.8.399-2.432 2.221-2.555 2.791-5.541 7.233-1.293 1.879-2.216 4.243-1.293 3.246-1.478 3.901l-.985 3.588h-4.71l5.695-17.684q.985-3.075.985-4.385 0-.513-.462-.854-.616-.456-1.632-.456-.646 0-2.37.256l-.215-1.054z"/><path d="m1028.1 19.594q1.293 0 2.216.854.923.826.923 2.022t-.923 2.05-2.216.854-2.216-.854-.923-2.05.923-2.022q.923-.854 2.216-.854zm-6.526 20.617q1.293 0 2.186.854.893.826.893 2.022 0 1.167-.923 2.022-.893.826-2.155.826-1.293 0-2.216-.826-.893-.854-.893-2.022 0-1.196.893-2.022.923-.854 2.216-.854z"/><path d="m20.486 116.68h-1.755l-11.913-13.441 11.913-13.384h1.755l-7.511 13.384zm13.914 0h-1.785l-12.129-13.441 12.129-13.384h1.785l-7.48 13.384z"/><path d="m48.278 75.955v34.599q0 2.449.369 3.246.4.797 1.201 1.224.8.399 2.986.399v1.025h-13.822v-1.025q1.939 0 2.647-.37t1.108-1.224.4-3.275v-23.692q0-4.414-.215-5.411-.215-1.025-.708-1.395-.462-.37-1.201-.37-.8 0-2.032.456l-.523-.997 8.404-3.189h1.385z"/><path d="m63.239 75.955q1.293 0 2.186.854.923.826.923 2.022t-.923 2.05q-.893.854-2.186.854t-2.216-.854-.923-2.05.893-2.022q.923-.854 2.247-.854zm2.555 13.64v20.959q0 2.449.369 3.275.4.797 1.139 1.196.77.399 2.77.399v1.025h-13.698v-1.025q2.062 0 2.77-.37t1.108-1.224q.431-.854.431-3.275v-10.052q0-4.243-.277-5.496-.215-.911-.677-1.253-.462-.37-1.262-.37-.862 0-2.093.427l-.431-1.025 8.496-3.189h1.354z"/><path d="m81.281 94.855q4.094-5.268 8.835-5.268 4.34 0 7.573 3.446 3.232 3.417 3.232 9.369 0 6.948-4.987 11.191-4.279 3.645-9.543 3.645-2.463 0-5.018-.826-2.524-.826-5.172-2.478v-27.024q0-4.442-.246-5.468-.215-1.025-.708-1.395t-1.231-.37q-.862 0-2.155.456l-.431-.997 8.465-3.189h1.385v18.908zm0 1.823v15.605q1.57 1.424 3.232 2.164 1.693.712 3.448.712 2.801 0 5.202-2.848 2.432-2.848 2.432-8.287 0-5.012-2.432-7.689-2.401-2.705-5.479-2.705-1.632 0-3.263.769-1.231.57-3.14 2.278z"/><path d="m113.32 89.595v5.866q3.54-5.866 7.265-5.866 1.693 0 2.801.968 1.108.94 1.108 2.193 0 1.111-.8 1.879-.8.769-1.909.769-1.077 0-2.432-.968-1.324-.997-1.97-.997-.554 0-1.201.57-1.385 1.167-2.863 3.844v12.501q0 2.164.585 3.275.4.769 1.416 1.281 1.016.513 2.924.513v1.025h-14.438v-1.025q2.155 0 3.201-.626.77-.456 1.077-1.452.154-.484.154-2.762v-10.109q0-4.556-.215-5.41-.185-.883-.739-1.281-.523-.399-1.324-.399-.954 0-2.155.427l-.308-1.025 8.527-3.189h1.293z"/><path d="m130.87 100.18q-.031 5.809 3.048 9.113t7.234 3.303q2.77 0 4.802-1.395 2.062-1.424 3.448-4.841l.954.57q-.646 3.901-3.756 7.119-3.109 3.189-7.788 3.189-5.079 0-8.712-3.645-3.602-3.674-3.602-9.853 0-6.692 3.694-10.422 3.725-3.759 9.327-3.759 4.741 0 7.788 2.905 3.048 2.876 3.048 7.717h-19.486zm0-1.652h13.052q-.154-2.506-.646-3.531-.77-1.595-2.309-2.506-1.508-.911-3.171-.911-2.555 0-4.587 1.851-2.001 1.823-2.34 5.097z"/><path d="m168 89.845h1.755l11.913 13.441-11.913 13.384h-1.755l7.511-13.384zm-13.914 0h1.785l12.129 13.441-12.129 13.384h-1.785l7.48-13.384z"/><path d="m250.1 91.305h33.215v2.335h-33.215zm0 9.283h33.215v2.335h-33.215z"/><path d="m377.83 81.615 10.158-4.585h1.016v32.606q0 3.246.277 4.044.308.797 1.231 1.224t3.756.484v1.054h-15.699v-1.054q2.955-.057 3.817-.456.862-.427 1.201-1.111.339-.712.339-4.186v-20.845q0-4.215-.308-5.41-.215-.911-.8-1.338-.554-.427-1.354-.427-1.139 0-3.171.883l-.462-.883z"/><path d="m825.31 95.115q4.956-5.524 9.45-5.524 2.309 0 3.971 1.082 1.662 1.054 2.647 3.503.677 1.709.677 5.24v11.134q0 2.478.431 3.36.339.712 1.077 1.111.77.399 2.801.399v1.025h-13.945v-1.025h.585q1.97 0 2.74-.541.8-.57 1.108-1.652.123-.427.123-2.677v-10.679q0-3.56-1.016-5.154-.985-1.623-3.355-1.623-3.663 0-7.296 3.702v13.754q0 2.648.339 3.275.431.826 1.17 1.224.77.37 3.078.37v1.025h-13.945v-1.025h.616q2.155 0 2.894-.997.77-1.025.77-3.873v-9.682q0-4.699-.246-5.724-.215-1.025-.708-1.395-.462-.37-1.262-.37-.862 0-2.062.427l-.462-1.025 8.496-3.189h1.324z"/><path d="m861.82 89.595q6.403 0 10.282 4.499 3.294 3.844 3.294 8.828 0 3.503-1.816 7.091t-5.018 5.411q-3.171 1.823-7.08 1.823-6.372 0-10.128-4.699-3.171-3.958-3.171-8.885 0-3.588 1.909-7.119 1.939-3.56 5.079-5.24 3.14-1.709 6.649-1.709zm-.954 1.851q-1.632 0-3.294.911-1.631.883-2.647 3.132-1.016 2.25-1.016 5.781 0 5.695 2.432 9.824 2.463 4.129 6.464 4.129 2.986 0 4.925-2.278t1.939-7.831q0-6.948-3.232-10.935-2.186-2.734-5.572-2.734z"/><path d="m887.8 89.595v5.866q3.54-5.866 7.265-5.866 1.693 0 2.801.968 1.108.94 1.108 2.193 0 1.111-.8 1.879-.8.769-1.909.769-1.077 0-2.432-.968-1.324-.997-1.97-.997-.554 0-1.201.57-1.385 1.167-2.863 3.844v12.501q0 2.164.585 3.275.4.769 1.416 1.281 1.016.513 2.924.513v1.025h-14.438v-1.025q2.155 0 3.201-.626.77-.456 1.077-1.452.154-.484.154-2.762v-10.109q0-4.556-.215-5.41-.185-.883-.739-1.281-.523-.399-1.324-.399-.954 0-2.155.427l-.308-1.025 8.527-3.189h1.293z"/><path d="m908.99 95.145q3.078-2.848 3.632-3.275 1.385-1.082 2.986-1.68t3.171-.598q2.647 0 4.556 1.424t2.555 4.129q3.171-3.417 5.356-4.471 2.186-1.082 4.494-1.082 2.247 0 3.971 1.082 1.755 1.054 2.77 3.474.677 1.652.677 5.183v11.22q0 2.449.4 3.36.308.626 1.139 1.082.831.427 2.709.427v1.025h-13.914v-1.025h.585q1.816 0 2.832-.655.708-.456 1.016-1.452.123-.484.123-2.762v-11.22q0-3.189-.831-4.499-1.201-1.823-3.848-1.823-1.632 0-3.294.769-1.632.74-3.971 2.791l-.062.313.062 1.224v12.444q0 2.677.308 3.332.339.655 1.231 1.111.893.427 3.048.427v1.025h-14.253v-1.025q2.34 0 3.201-.513.893-.513 1.231-1.538.154-.484.154-2.819v-11.22q0-3.189-1.016-4.585-1.354-1.823-3.786-1.823-1.662 0-3.294.826-2.555 1.253-3.94 2.819v13.982q0 2.563.369 3.332.4.769 1.139 1.167.77.37 3.078.37v1.025h-13.945v-1.025q1.939 0 2.709-.37.77-.399 1.17-1.224.4-.854.4-3.275v-9.967q0-4.3-.277-5.553-.215-.94-.677-1.281-.462-.37-1.262-.37-.862 0-2.062.427l-.462-1.025 8.496-3.189h1.324v5.553z"/><path d="m965.72 112.68q-4.34 3.104-5.449 3.588-1.662.712-3.54.712-2.924 0-4.833-1.851-1.878-1.851-1.878-4.87 0-1.908.923-3.303 1.262-1.936 4.371-3.645 3.14-1.709 10.405-4.158v-1.025q0-3.901-1.354-5.354-1.324-1.452-3.879-1.452-1.939 0-3.078.968-1.17.968-1.17 2.221l.062 1.652q0 1.31-.739 2.022-.708.712-1.878.712-1.139 0-1.878-.74-.708-.74-.708-2.022 0-2.449 2.709-4.499t7.603-2.05q3.756 0 6.157 1.167 1.816.883 2.678 2.762.554 1.224.554 5.012v8.856q0 3.73.154 4.585.154.826.493 1.111.369.285.831.285.493 0 .862-.199.646-.37 2.493-2.079v1.595q-3.448 4.271-6.588 4.271-1.508 0-2.401-.968t-.923-3.303zm0-1.851v-9.938q-4.648 1.709-6.003 2.421-2.432 1.253-3.478 2.62-1.047 1.367-1.047 2.99 0 2.05 1.324 3.417 1.324 1.338 3.048 1.338 2.34 0 6.157-2.848z"/><path d="m987.39 75.955v34.599q0 2.449.369 3.246.4.797 1.201 1.224.8.399 2.986.399v1.025h-13.822v-1.025q1.939 0 2.647-.37t1.108-1.224.4-3.275v-23.692q0-4.414-.215-5.411-.215-1.025-.708-1.395-.462-.37-1.201-.37-.8 0-2.032.456l-.523-.997 8.404-3.189h1.385z"/><path d="m1002.1 89.565q1.416 0 2.401.94 1.016.911 1.016 2.221t-1.016 2.25q-.985.911-2.401.911t-2.432-.911q-.985-.94-.985-2.25t.985-2.221q1.016-.94 2.432-.94zm-.062 21.329q1.447 0 2.432.94 1.016.94 1.016 2.25t-1.016 2.25q-1.016.911-2.432.911t-2.432-.911q-.985-.94-.985-2.25t.985-2.25q1.016-.94 2.432-.94z"/><path d="m1150.9 90.365h13.267v1.054q-1.262 0-1.785.399-.493.399-.493 1.054 0 .683 1.077 2.107.339.456 1.016 1.424l2.001 2.962 2.309-2.962q2.216-2.819 2.216-3.56 0-.598-.523-.997-.523-.427-1.693-.427v-1.054h9.543v1.054q-1.508.085-2.617.769-1.508.968-4.125 4.215l-3.848 4.756 7.019 9.34q2.586 3.446 3.694 4.158 1.108.683 2.863.769v1.025h-13.298v-1.025q1.385 0 2.155-.57.585-.399.585-1.054t-1.97-3.303l-4.125-5.581-4.525 5.581q-2.093 2.591-2.093 3.075 0 .683.677 1.253.708.541 2.093.598v1.025h-9.204v-1.025q1.108-.142 1.939-.712 1.17-.826 3.94-4.215l5.91-7.261-5.356-7.176q-2.278-3.075-3.54-3.844-1.231-.797-3.109-.797v-1.054z"/><path d="m1229 91.3h33.207v2.335h-33.207zm0 9.283h33.207v2.335h-33.207z"/><path d="m1316.5 77.831-2.401 4.841h-12.556l-2.739 5.183q8.155 1.111 12.926 5.61 4.093 3.873 4.093 9.113 0 3.047-1.354 5.638-1.323 2.591-3.355 4.414-2.031 1.823-4.524 2.933-3.539 1.566-7.263 1.566-3.755 0-5.478-1.167-1.693-1.196-1.693-2.62 0-.797.708-1.395.708-.626 1.785-.626.8 0 1.385.228.616.228 2.062 1.167 2.308 1.481 4.678 1.481 3.601 0 6.309-2.506 2.739-2.534 2.739-6.151 0-3.503-2.431-6.521-2.431-3.047-6.709-4.699-3.355-1.281-9.14-1.481l8.002-15.007h14.957z"/><path d="m1354.1 75.951-15.111 41.291h-2.462l15.111-41.291z"/><path d="m1374.1 89.592v8.885h-1.016q-1.169-4.186-3.016-5.695-1.816-1.509-4.647-1.509-2.154 0-3.478 1.054-1.323 1.054-1.323 2.335 0 1.595.985 2.734.954 1.167 3.878 2.478l4.493 2.022q6.247 2.819 6.247 7.432 0 3.56-2.924 5.752-2.893 2.164-6.494 2.164-2.585 0-5.909-.854-1.016-.285-1.662-.285-.708 0-1.108.74h-1.016v-9.312h1.016q.862 3.987 3.293 6.009t5.447 2.022q2.123 0 3.447-1.139 1.354-1.167 1.354-2.791 0-1.965-1.508-3.303-1.477-1.338-5.94-3.389-4.462-2.05-5.847-3.702-1.385-1.623-1.385-4.101 0-3.218 2.37-5.382 2.401-2.164 6.186-2.164 1.662 0 4.032.655 1.57.427 2.093.427.492 0 .769-.199t.646-.883h1.016z"/><path d="m1413.3 91.3h33.207v2.335h-33.207zm0 9.283h33.207v2.335h-33.207z"/><path d="m1493.6 109.02-2.924 7.432h-24.626v-1.054q10.866-9.169 15.299-14.979 4.433-5.809 4.433-10.622 0-3.674-2.432-6.037-2.432-2.364-5.818-2.364-3.078 0-5.541 1.68-2.432 1.652-3.602 4.87h-1.139q.77-5.268 3.94-8.087 3.201-2.819 7.973-2.819 5.079 0 8.465 3.018 3.417 3.018 3.417 7.119 0 2.933-1.478 5.866-2.278 4.613-7.388 9.768-7.665 7.746-9.574 9.34h10.898q3.325 0 4.648-.228 1.354-.228 2.432-.911 1.077-.712 1.878-1.993h1.139z"/><path d="m1499.6 126.16v-1.253q3.171-.968 4.895-3.018 1.755-2.022 1.755-4.3 0-.541-.277-.911-.215-.256-.431-.256-.339 0-1.478.57-.554.256-1.17.256-1.508 0-2.401-.826t-.893-2.278q0-1.395 1.139-2.392 1.17-.997 2.832-.997 2.032 0 3.602 1.652 1.601 1.623 1.601 4.328 0 2.933-2.216 5.439-2.186 2.534-6.957 3.987z"/><path d="m1518.3 77.835h22.379v1.082l-13.914 38.329h-3.448l12.467-34.77h-11.482q-3.478 0-4.956.769-2.586 1.31-4.156 4.044l-.893-.313 4.002-9.141z"/><path d="m15.037 166.16q4.956-5.524 9.45-5.524 2.309 0 3.971 1.082 1.662 1.054 2.647 3.503.677 1.709.677 5.24v11.134q0 2.478.431 3.36.339.712 1.077 1.111.77.399 2.801.399v1.025h-13.945v-1.025h.585q1.97 0 2.74-.541.8-.57 1.108-1.652.123-.427.123-2.677v-10.679q0-3.56-1.016-5.154-.985-1.623-3.355-1.623-3.663 0-7.296 3.702v13.754q0 2.648.339 3.275.431.826 1.17 1.224.77.37 3.078.37v1.025h-13.945v-1.025h.616q2.155 0 2.894-.997.77-1.025.77-3.873v-9.682q0-4.699-.246-5.724-.215-1.025-.708-1.395-.462-.37-1.262-.37-.862 0-2.062.427l-.462-1.025 8.496-3.189h1.324z"/><path d="m52.126 160.64q6.403 0 10.282 4.499 3.294 3.844 3.294 8.828 0 3.503-1.816 7.091t-5.018 5.411q-3.171 1.823-7.08 1.823-6.372 0-10.128-4.699-3.171-3.958-3.171-8.885 0-3.588 1.909-7.119 1.939-3.56 5.079-5.24 3.14-1.709 6.649-1.709zm-.954 1.851q-1.632 0-3.294.911-1.631.883-2.647 3.132-1.016 2.25-1.016 5.781 0 5.695 2.432 9.824 2.463 4.129 6.464 4.129 2.986 0 4.925-2.278t1.939-7.831q0-6.948-3.232-10.935-2.186-2.734-5.572-2.734z"/><path d="m250.1 162.35h33.215v2.335h-33.215zm0 9.283h33.215v2.335h-33.215z"/><path d="m399.35 180.06-2.924 7.432h-24.626v-1.054q10.866-9.169 15.299-14.979 4.433-5.809 4.433-10.622 0-3.674-2.432-6.037-2.432-2.364-5.818-2.364-3.078 0-5.541 1.68-2.432 1.652-3.602 4.87h-1.139q.77-5.268 3.94-8.087 3.201-2.819 7.973-2.819 5.079 0 8.465 3.018 3.417 3.018 3.417 7.119 0 2.933-1.478 5.866-2.278 4.613-7.388 9.768-7.665 7.746-9.574 9.34h10.898q3.325 0 4.648-.228 1.354-.228 2.432-.911 1.077-.712 1.878-1.993h1.139z"/><path d="m815.05 164 8.681-3.246h1.17v6.094q2.186-3.446 4.371-4.813 2.216-1.395 4.648-1.395 4.248 0 7.08 3.075 3.478 3.759 3.478 9.796 0 6.749-4.186 11.163-3.448 3.616-8.681 3.616-2.278 0-3.94-.598-1.231-.427-2.77-1.709v7.945q0 2.677.339 3.389.369.74 1.231 1.167.893.427 3.201.427v1.054h-14.776v-1.054h.77q1.693.029 2.894-.598.585-.313.893-1.025.339-.683.339-3.531v-24.661q0-2.534-.246-3.218-.246-.683-.8-1.025-.523-.342-1.447-.342-.739 0-1.878.399l-.369-.911zm9.851 4.528v9.739q0 3.161.277 4.158.431 1.652 2.093 2.905 1.693 1.253 4.248 1.253 3.078 0 4.987-2.221 2.493-2.905 2.493-8.173 0-5.98-2.832-9.198-1.97-2.221-4.679-2.221-1.478 0-2.924.683-1.108.513-3.663 3.075z"/><path d="m865.15 183.73q-4.34 3.104-5.449 3.588-1.662.712-3.54.712-2.924 0-4.833-1.851-1.878-1.851-1.878-4.87 0-1.908.923-3.303 1.262-1.936 4.371-3.645 3.14-1.709 10.405-4.158v-1.025q0-3.901-1.354-5.354-1.324-1.452-3.879-1.452-1.939 0-3.078.968-1.17.968-1.17 2.221l.062 1.652q0 1.31-.739 2.022-.708.712-1.878.712-1.139 0-1.878-.74-.708-.74-.708-2.022 0-2.449 2.709-4.499t7.603-2.05q3.756 0 6.157 1.167 1.816.883 2.678 2.762.554 1.224.554 5.012v8.856q0 3.73.154 4.585.154.826.493 1.111.369.285.831.285.493 0 .862-.199.646-.37 2.493-2.079v1.595q-3.448 4.271-6.588 4.271-1.508 0-2.401-.968t-.923-3.303zm0-1.851v-9.938q-4.648 1.709-6.003 2.421-2.432 1.253-3.479 2.62t-1.047 2.99q0 2.05 1.324 3.417 1.324 1.338 3.048 1.338 2.34 0 6.157-2.848z"/><path d="m885.31 152.83v8.571h6.588v1.993h-6.588v16.915q0 2.534.77 3.417.8.883 2.032.883 1.016 0 1.97-.57.954-.598 1.478-1.737h1.201q-1.077 2.791-3.048 4.215-1.97 1.395-4.063 1.395-1.416 0-2.77-.712-1.354-.74-2.001-2.079-.646-1.367-.646-4.186v-17.542h-4.464v-.94q1.693-.626 3.448-2.107 1.785-1.509 3.171-3.56.708-1.082 1.97-3.958h.954z"/><path d="m908.4 160.64q6.403 0 10.282 4.499 3.294 3.844 3.294 8.828 0 3.503-1.816 7.091t-5.018 5.411q-3.171 1.823-7.08 1.823-6.372 0-10.128-4.699-3.171-3.958-3.171-8.885 0-3.588 1.909-7.119 1.939-3.56 5.079-5.24 3.14-1.709 6.649-1.709zm-.954 1.851q-1.631 0-3.294.911-1.632.883-2.647 3.132-1.016 2.25-1.016 5.781 0 5.695 2.432 9.824 2.463 4.129 6.464 4.129 2.986 0 4.925-2.278t1.939-7.831q0-6.948-3.232-10.935-2.186-2.734-5.572-2.734z"/><path d="m935.83 147v34.599q0 2.449.369 3.246.4.797 1.201 1.224.8.399 2.986.399v1.025h-13.822v-1.025q1.939 0 2.647-.37t1.108-1.224.4-3.275v-23.692q0-4.414-.215-5.411-.215-1.025-.708-1.395-.462-.37-1.201-.37-.8 0-2.032.456l-.523-.997 8.404-3.189h1.385z"/><path d="m957.41 160.64q6.403 0 10.282 4.499 3.294 3.844 3.294 8.828 0 3.503-1.816 7.091t-5.018 5.411q-3.171 1.823-7.08 1.823-6.372 0-10.128-4.699-3.171-3.958-3.171-8.885 0-3.588 1.909-7.119 1.939-3.56 5.079-5.24 3.14-1.709 6.649-1.709zm-.954 1.851q-1.631 0-3.294.911-1.632.883-2.647 3.132-1.016 2.25-1.016 5.781 0 5.695 2.432 9.824 2.463 4.129 6.464 4.129 2.986 0 4.925-2.278t1.939-7.831q0-6.948-3.232-10.935-2.186-2.734-5.572-2.734zm7.449-14.58-9.081 9.824h-1.047l3.232-9.824h6.895z"/><path d="m982.69 177.98q-2.586-1.167-3.971-3.246-1.385-2.107-1.385-4.642 0-3.873 3.14-6.663 3.171-2.791 8.096-2.791 4.033 0 6.988 1.823h5.972q1.324 0 1.539.085.215.057.308.228.185.256.185.911 0 .74-.154 1.025-.092.142-.339.228-.215.085-1.539.085h-3.663q1.724 2.05 1.724 5.24 0 3.645-3.017 6.236t-8.096 2.591q-2.093 0-4.279-.57-1.354 1.082-1.847 1.908-.462.797-.462 1.367 0 .484.493.94.523.456 2.001.655.862.114 4.31.199 6.341.142 8.219.399 2.863.37 4.556 1.965 1.724 1.595 1.724 3.93 0 3.218-3.263 6.037-4.802 4.158-12.529 4.158-5.941 0-10.035-2.478-2.309-1.424-2.309-2.962 0-.683.339-1.367.523-1.054 2.155-2.933.215-.256 3.14-3.075-1.601-.883-2.278-1.566-.646-.712-.646-1.595 0-.997.862-2.335.893-1.338 4.063-3.787zm5.356-15.975q-2.278 0-3.817 1.68t-1.539 5.154q0 4.499 2.093 6.977 1.601 1.879 4.063 1.879 2.34 0 3.848-1.623t1.508-5.097q0-4.528-2.124-7.091-1.57-1.879-4.033-1.879zm-5.664 25.48q-1.447 1.452-2.186 2.705t-.739 2.307q0 1.367 1.785 2.392 3.078 1.766 8.896 1.766 5.541 0 8.158-1.823 2.647-1.794 2.647-3.844 0-1.481-1.57-2.107-1.601-.626-6.341-.74-6.926-.171-10.651-.655z"/><path d="m1013.8 147q1.293 0 2.186.854.923.826.923 2.022t-.923 2.05q-.893.854-2.186.854t-2.216-.854-.923-2.05.893-2.022q.923-.854 2.247-.854zm2.555 13.64v20.959q0 2.449.369 3.275.4.797 1.139 1.196.77.399 2.77.399v1.025h-13.698v-1.025q2.062 0 2.77-.37t1.108-1.224q.431-.854.431-3.275v-10.052q0-4.243-.277-5.496-.215-.911-.677-1.253-.462-.37-1.262-.37-.862 0-2.093.427l-.431-1.025 8.496-3.189h1.354z"/><path d="m1048.1 177.58q-1.139 5.154-4.464 7.945-3.325 2.762-7.357 2.762-4.802 0-8.373-3.73t-3.571-10.081q0-6.151 3.94-9.995 3.971-3.844 9.512-3.844 4.156 0 6.834 2.05 2.678 2.022 2.678 4.215 0 1.082-.77 1.766-.739.655-2.093.655-1.816 0-2.74-1.082-.523-.598-.708-2.278-.154-1.68-1.231-2.563-1.077-.854-2.986-.854-3.078 0-4.956 2.107-2.493 2.791-2.493 7.375 0 4.67 2.463 8.258 2.493 3.56 6.711 3.56 3.017 0 5.418-1.908 1.693-1.31 3.294-4.756l.893.399z"/><path d="m1065.9 160.64q6.403 0 10.282 4.499 3.294 3.844 3.294 8.828 0 3.503-1.816 7.091t-5.018 5.411q-3.171 1.823-7.08 1.823-6.372 0-10.128-4.699-3.171-3.958-3.171-8.885 0-3.588 1.909-7.119 1.939-3.56 5.079-5.24 3.14-1.709 6.649-1.709zm-.954 1.851q-1.631 0-3.294.911-1.631.883-2.647 3.132-1.016 2.25-1.016 5.781 0 5.695 2.432 9.824 2.463 4.129 6.464 4.129 2.986 0 4.925-2.278t1.939-7.831q0-6.948-3.232-10.935-2.186-2.734-5.572-2.734z"/><path d="m1090.5 160.61q1.416 0 2.401.94 1.016.911 1.016 2.221t-1.016 2.25q-.985.911-2.401.911t-2.432-.911q-.985-.94-.985-2.25t.985-2.221q1.016-.94 2.432-.94zm-.062 21.329q1.447 0 2.432.94 1.016.94 1.016 2.25t-1.016 2.25q-1.016.911-2.432.911t-2.432-.911q-.985-.94-.985-2.25t.985-2.25q1.016-.94 2.432-.94z"/><path d="m1150.9 161.41h13.267v1.054q-1.262 0-1.785.399-.493.399-.493 1.054 0 .683 1.077 2.107.339.456 1.016 1.424l2.001 2.962 2.309-2.962q2.216-2.819 2.216-3.56 0-.598-.523-.997-.523-.427-1.693-.427v-1.054h9.543v1.054q-1.508.085-2.617.769-1.508.968-4.125 4.215l-3.848 4.756 7.019 9.34q2.586 3.446 3.694 4.158 1.108.683 2.863.769v1.025h-13.298v-1.025q1.385 0 2.155-.57.585-.399.585-1.054t-1.97-3.303l-4.125-5.581-4.525 5.581q-2.093 2.591-2.093 3.075 0 .683.677 1.253.708.541 2.093.598v1.025h-9.204v-1.025q1.108-.142 1.939-.712 1.17-.826 3.94-4.215l5.91-7.261-5.356-7.176q-2.278-3.075-3.54-3.844-1.231-.797-3.109-.797v-1.054z"/><path d="m1229.2 162.35h33.215v2.335h-33.215zm0 9.283h33.215v2.335h-33.215z"/><path d="m1307.7 148.08v1.054q-4.063.37-6.649 1.509-2.555 1.111-5.079 3.417-2.493 2.307-4.156 5.154-1.632 2.819-2.74 6.721 4.433-2.819 8.896-2.819 4.279 0 7.419 3.189t3.14 8.201q0 4.841-3.171 8.828-3.817 4.841-10.097 4.841-4.279 0-7.265-2.62-5.849-5.097-5.849-13.213 0-5.183 2.247-9.853t6.403-8.287q4.186-3.616 8.004-4.87t7.111-1.253h1.785zm-19.147 19.934q-.554 3.844-.554 6.208 0 2.734 1.077 5.952 1.108 3.189 3.263 5.069 1.57 1.338 3.817 1.338 2.678 0 4.771-2.335 2.124-2.335 2.124-6.663 0-4.87-2.093-8.429t-5.941-3.56q-1.17 0-2.524.456-1.324.456-3.94 1.965z"/><path d="m1314.3 197.2v-1.253q3.171-.968 4.895-3.018 1.755-2.022 1.755-4.3 0-.541-.277-.911-.215-.256-.431-.256-.339 0-1.478.57-.554.256-1.17.256-1.508 0-2.401-.826t-.893-2.278q0-1.395 1.139-2.392 1.17-.997 2.832-.997 2.032 0 3.602 1.652 1.601 1.623 1.601 4.328 0 2.933-2.216 5.439-2.186 2.534-6.957 3.987z"/><path d="m1329.9 156.22q1.785-3.901 4.494-6.009 2.74-2.136 6.803-2.136 5.018 0 7.696 3.018 2.032 2.25 2.032 4.813 0 4.215-5.726 8.714 3.848 1.395 5.818 3.987 1.97 2.591 1.97 6.094 0 5.012-3.448 8.685-4.494 4.784-13.022 4.784-4.217 0-5.756-.968-1.508-.968-1.508-2.079 0-.826.708-1.452.739-.626 1.755-.626.77 0 1.57.228.523.142 2.37 1.054 1.847.883 2.555 1.054 1.139.313 2.432.313 3.14 0 5.449-2.25 2.34-2.25 2.34-5.325 0-2.25-1.077-4.385-.8-1.595-1.755-2.421-1.324-1.139-3.632-2.05-2.309-.94-4.71-.94h-.985v-.854q2.432-.285 4.864-1.623 2.463-1.338 3.571-3.218 1.108-1.879 1.108-4.129 0-2.933-2.001-4.727-1.97-1.823-4.925-1.823-4.771 0-7.973 4.727l-1.016-.456z"/><path d="m1375.9 147-15.115 41.291h-2.463l15.115-41.291z"/><path d="m1395.9 160.64v8.885h-1.016q-1.17-4.186-3.017-5.695-1.816-1.509-4.648-1.509-2.155 0-3.478 1.054-1.324 1.054-1.324 2.335 0 1.595.985 2.734.954 1.167 3.879 2.478l4.494 2.022q6.249 2.819 6.249 7.432 0 3.56-2.924 5.752-2.894 2.164-6.495 2.164-2.586 0-5.91-.854-1.016-.285-1.662-.285-.708 0-1.108.74h-1.016v-9.312h1.016q.862 3.987 3.294 6.009t5.449 2.022q2.124 0 3.448-1.139 1.354-1.167 1.354-2.791 0-1.965-1.508-3.303-1.478-1.338-5.941-3.389t-5.849-3.702q-1.385-1.623-1.385-4.101 0-3.218 2.37-5.382 2.401-2.164 6.187-2.164 1.662 0 4.033.655 1.57.427 2.093.427.493 0 .77-.199t.646-.883h1.016z"/><path d="m1417.1 162.35h33.215v2.335h-33.215zm0 9.283h33.215v2.335h-33.215z"/><path d="m1470.5 156.22q1.785-3.901 4.494-6.009 2.74-2.136 6.803-2.136 5.018 0 7.696 3.018 2.032 2.25 2.032 4.813 0 4.215-5.726 8.714 3.848 1.395 5.818 3.987 1.97 2.591 1.97 6.094 0 5.012-3.448 8.685-4.494 4.784-13.022 4.784-4.217 0-5.757-.968-1.508-.968-1.508-2.079 0-.826.708-1.452.739-.626 1.755-.626.77 0 1.57.228.523.142 2.37 1.054 1.847.883 2.555 1.054 1.139.313 2.432.313 3.14 0 5.449-2.25 2.34-2.25 2.34-5.325 0-2.25-1.077-4.385-.8-1.595-1.755-2.421-1.324-1.139-3.632-2.05-2.309-.94-4.71-.94h-.985v-.854q2.432-.285 4.864-1.623 2.463-1.338 3.571-3.218 1.108-1.879 1.108-4.129 0-2.933-2.001-4.727-1.97-1.823-4.925-1.823-4.771 0-7.973 4.727z"/><path d="m1502.2 197.2v-1.253q3.171-.968 4.894-3.018 1.755-2.022 1.755-4.3 0-.541-.277-.911-.215-.256-.431-.256-.339 0-1.478.57-.554.256-1.17.256-1.508 0-2.401-.826t-.893-2.278q0-1.395 1.139-2.392 1.17-.997 2.832-.997 2.032 0 3.602 1.652 1.601 1.623 1.601 4.328 0 2.933-2.216 5.439-2.186 2.534-6.957 3.987z"/><path d="m1542 148.88-2.401 4.841h-12.559l-2.74 5.183q8.158 1.111 12.929 5.61 4.094 3.873 4.094 9.113 0 3.047-1.354 5.638-1.324 2.591-3.355 4.414-2.032 1.823-4.525 2.933-3.54 1.566-7.265 1.566-3.756 0-5.479-1.167-1.693-1.196-1.693-2.62 0-.797.708-1.395.708-.626 1.785-.626.8 0 1.385.228.616.228 2.062 1.167 2.309 1.481 4.679 1.481 3.602 0 6.311-2.506 2.74-2.534 2.74-6.151 0-3.503-2.432-6.521-2.432-3.047-6.711-4.699-3.355-1.281-9.143-1.481l8.004-15.007h14.961z"/><g fill="none" stroke="#000" stroke-linecap="round" stroke-width="1.359"><path d="m1150.1 83.778h29.518"/><path d="m1150.1 153.78h29.518"/></g></svg>