<svg height="94.993mm" viewBox="0 0 426.65089 336.58784" width="120.41mm" xmlns="http://www.w3.org/2000/svg"><path d="m58.224 125.96c-.952-.057-1.883.23-1.883.916 0 .516.633.938 1.406.938 1.199 0 1.406 2.552 1.406 17.344 0 15.851-.141 17.354-1.641 17.453-1.563.104-1.563.129 0 .537 1.481.387 1.641 1.972 1.641 16.297 0 15.804-.009 15.87-2.109 15.963-2.035.09-2.029.116.189.734l2.301.643.33 16.607.33 16.609-2.162.127-2.16.129 2.109.406c2.096.404 2.109.51 2.109 17.684 0 17.256-.003 17.279-2.109 17.406l-2.109.129 2.109.406c2.107.406 2.109.424 2.109 20.027v19.623h348.84l-.281-5.391-.281-5.391-17.109-.256-17.109-.256v-86.208h-34.688v-11.25h-37.5v12.188h-30.938v-14.062l-2.578-.014c-1.418-.007-9.855-.26-18.75-.563l-16.172-.551v28.156c0 27.291-.058 28.176-1.867 28.75-1.027.326-2.253.351-2.727.059-1.218-.753-3.939.436-3.314 1.447.285.462-.093.84-.842.84s-1.613-.654-1.92-1.455c-.717-1.868-10.565-1.594-10.189.283.129.645-.609 1.172-1.641 1.172s-1.77-.527-1.641-1.172c.155-.776-1.27-1.268-4.219-1.457l-4.453-.287v-25.209h-36.562v15h-4.219c-2.32 0-4.219.422-4.219.938s1.898.938 4.219.938h4.219v15h-32.812v-15h4.688c2.578 0 4.688-.422 4.688-.938s-2.109-.938-4.688-.938h-4.688v-22.5h-5.156c-2.836 0-5.156.422-5.156.938s1.898.938 4.219.938h4.219v32.666c0 17.967.275 37.162.611 42.656l.611 9.99h-33.098v-85.312h4.219c2.321 0 4.219-.443 4.219-.984 0-.606-2.072-.876-5.391-.703l-5.391.281.359 28.359.359 28.359h-34.938l-.139-71.953c-.076-39.574-.225-72.586-.33-73.359s-.254-1.934-.33-2.578c-.082-.691-1.054-1.093-2.006-1.15zm243.74 28.104v6.563c0 3.75.402 6.563.938 6.563.521 0 .938-2.5.938-5.625v-5.625h4.742c2.923 0 4.521-.36 4.164-.938-.319-.516-2.874-.938-5.68-.938zm18.75 0c-2.578 0-4.688.422-4.688.938s2.109.938 4.688.938 4.688-.422 4.688-.938-2.109-.938-4.688-.938zm12.656 0c-2.836 0-5.156.422-5.156.938s1.898.938 4.219.938h4.219v6.094c0 3.438.409 6.094.938 6.094.542 0 .938-2.969.938-7.031v-7.031h-5.156zm4.502 15.938c-1.291 0-1.818 9.403-.596 10.625 1.175 1.175 1.683-.433 1.75-5.529.047-3.595-.293-5.096-1.154-5.096zm-34.971.938c-.516 0-.938 2.32-.938 5.156s.422 5.156.938 5.156.938-2.32.938-5.156-.422-5.156-.938-5.156zm41.604 12.295c-.635-.005-1.417.02-2.367.074l-5.018.287-.293 4.092c-.161 2.25-.06 4.702.227 5.449.99 2.581 2.486.131 2.125-3.481l-.361-3.623 3.766-.281c2.071-.155 3.948-.833 4.17-1.506.229-.696-.344-.996-2.248-1.012zm8.631.025c-3.166-.025-4.154.635-2.856 1.934.277.277 2.629.551 5.229.609 6.501.146 5.701-2.105-.885-2.49-.541-.032-1.036-.049-1.488-.053zm14.182.053c-2.562.026-4.503.791-3.867 1.82.317.513 2.116.798 3.998.635 3.409-.296 3.424-.282 3.711 3.688.401 5.542 2.055 5.01 2.055-.66 0-4.544-.069-4.659-3.199-5.246-.92-.172-1.843-.245-2.697-.236zm-64.416 1.689c-.516 0-.938 2.109-.938 4.688s.422 4.688.938 4.688.938-2.109.938-4.688-.422-4.688-.938-4.688zm-208.12 9.375v4.688c0 3.177.386 4.688 1.197 4.688.831 0 1.086-1.147.838-3.75l-.357-3.75h33.01v3.438c0 4.418.948 3.497 1.52-1.477l.441-3.836h-36.648zm277.72 1.023c-.606-.089-1.162 1.55-1.162 4.992 0 4.106.314 5.234 1.455 5.234 1.165 0 1.399-.969 1.172-4.848-.203-3.472-.859-5.29-1.465-5.379zm-137.1.762 16.285.156 16.283.156.592 5.65c.325 3.108.59 13.816.59 23.795v18.145h-4.766c-3.303 0-4.65.347-4.389 1.131.216.647 2.155 1.148 4.531 1.172l4.154.041.248 29.297.248 29.297h-33.804l.248-29.297.248-29.297 3.984-.289c5.311-.384 5.12-2.055-.234-2.055h-4.219v-47.902zm68.139 2.902h16.586c12.45 0 16.675.292 16.947 1.172.199.645.585 24.48.855 52.969l.492 51.797h-33.644l-.004-19.453c-.003-10.699-.282-34.535-.619-52.969zm-139.39 1.875v4.688c0 2.578.422 4.688.938 4.688s.938-1.688.938-3.75c0-3.661.078-3.75 3.281-3.75 1.805 0 3.281-.422 3.281-.938s-1.898-.938-4.219-.938zm31.93 0c-2.548 0-4.892.422-5.211.938-.599.969-.072 1.116 4.688 1.299 2.619.101 2.833.382 3.102 4.092.42 5.811 2.055 4.879 2.055-1.172v-5.156h-4.633zm-14.055.125c-5.496.026-7.885 1.308-3.578 1.92 4.449.632 8.528.253 8.889-.824.265-.792-1.299-1.115-5.311-1.096zm-51.732 4.053c-.521-.073-.83 1.836-.83 5.197 0 3.585.352 5.518.938 5.156.516-.319.938-2.639.938-5.156s-.422-4.838-.938-5.156l-.107-.041zm-34.346 1.447c-1.239-.001-1.713 7.584-.547 8.75 1.119 1.119 1.648-.32 1.684-4.574.023-2.733-.37-4.175-1.137-4.176zm243.52 3.75h31.66l.545 4.922c.3 2.707.662 23.906.805 47.109l.26 42.188-16.02.256-16.021.256-.609-11.975c-.336-6.586-.613-27.9-.615-47.365l-.004-35.391zm-68.438.938h30.938v17.812h-3.281c-1.805 0-3.281.422-3.281.938s1.409.938 3.131.938h3.129l.619 27.422c.34 15.082.618 31.746.619 37.031l.002 9.609h-31.876v-74.062h4.219c2.32 0 4.219-.422 4.219-.938s-1.898-.938-4.219-.938h-4.219zm-105.94.938c-.516 0-.938 2.109-.938 4.688s.422 4.688.938 4.688.938-2.109.938-4.688-.422-4.688-.938-4.688zm34.688.938c-.516 0-.938 2.32-.938 5.156s.422 5.156.938 5.156.938-2.32.938-5.156-.422-5.156-.938-5.156zm-86.719 4.688c-2.836 0-5.156.422-5.156.938s2.32.938 5.156.938 5.156-.422 5.156-.938-2.32-.938-5.156-.938zm52.969 9.375h32.812l.01 18.047c.005 9.926.277 27.434.605 38.906h.002l.596 20.859h-16.387c-9.013 0-16.67-.281-17.014-.625s-.625-17.852-.625-38.906v-38.281zm121.41 1.875c-2.836 0-5.156.422-5.156.938s2.32.938 5.156.938 5.156-.422 5.156-.938-2.32-.938-5.156-.938zm-140.16 11.25c-2.578 0-4.688.422-4.688.938s2.109.938 4.688.938 4.688-.422 4.688-.938-2.109-.938-4.688-.938zm105.05 3.75c-5.797 0-7.122 1.639-1.717 2.125 2.203.198 4.533.433 5.178.523s1.172-.469 1.172-1.242c0-1.06-1.14-1.406-4.633-1.406zm-46.93 8.553c.595 0 1.189.058 1.641.176.902.236.164.43-1.641.43s-2.543-.194-1.641-.43c.451-.118 1.046-.176 1.641-.176zm11.25 0c.595 0 1.189.058 1.641.176.902.236.164.43-1.641.43s-2.543-.194-1.641-.43c.451-.118 1.046-.176 1.641-.176zm16.875 2.676.057 17.588c.032 9.674.202 20.859.379 24.855l.32 7.266h-32.344l-.535-24.141c-.294-13.277-.324-24.351-.066-24.609.257-.258 7.605-.58 16.328-.715zm-102.19 3.772h32.746l.268 21.797c.147 11.988.118 22.324-.066 22.969-.251.88-4.399 1.172-16.641 1.172h-16.307zm-52.969 18.281c14.375 0 16.875.208 16.875 1.406 0 .95-1.148 1.502-3.535 1.699-4.335.358-3.693 2.051.777 2.051h3.227v22.5h-34.688v-22.5h5.156c6.574 0 6.766-1.685.234-2.061-3.624-.209-4.922-.654-4.922-1.69 0-1.198 2.5-1.406 16.875-1.406zm1.875 3.281c-2.836 0-5.156.422-5.156.938s2.32.938 5.156.938 5.156-.422 5.156-.938-2.32-.938-5.156-.938zm307.46 16.453c4.946-.029 9.826.041 12.459.223l6.797.471v7.228h-15.781c-8.68 0-16.062-.281-16.406-.625-.86-.86-.792-6.863.078-6.928 2.897-.214 7.908-.34 12.854-.369z"/><path d="m21.169 24.882v3.375q0 1.094.239 1.359.325.376.983.376h.444v.316h-4.965v-.316h.436q.735 0 1.051-.479.171-.265.171-1.256v-7.485q0-1.094-.231-1.359-.333-.376-.991-.376h-.436v-.316h4.247q1.555 0 2.452.325.897.316 1.512 1.077.615.76.615 1.803 0 1.419-.94 2.307-.931.889-2.64.889-.419 0-.906-.06-.487-.06-1.042-.179zm0-.487q.453.085.803.128.35.043.598.043.889 0 1.53-.684.649-.692.649-1.786 0-.752-.308-1.393-.308-.649-.872-.966-.564-.325-1.282-.325-.436 0-1.119.162v4.819z"/><path d="m34.975 24.395q1.205.256 1.803.82.829.786.829 1.923 0 .863-.547 1.658-.547.786-1.504 1.154-.948.359-2.905.359h-5.469v-.316h.436q.726 0 1.042-.461.197-.299.197-1.273v-7.485q0-1.077-.248-1.359-.333-.376-.991-.376h-.436v-.316h5.007q1.401 0 2.247.205 1.282.308 1.957 1.094.675.778.675 1.794 0 .872-.53 1.564-.53.684-1.564 1.017zm-4.478-.461q.316.06.718.094.41.026.897.026 1.248 0 1.871-.265.632-.273.966-.829.333-.555.333-1.213 0-1.017-.829-1.735-.829-.718-2.418-.718-.854 0-1.538.188zm0 5.537q.991.231 1.957.231 1.547 0 2.358-.692.812-.701.812-1.726 0-.675-.367-1.299-.367-.624-1.196-.983t-2.051-.359q-.53 0-.906.017t-.607.06z"/><path d="m25.587 43.93h-4.486l-.786 1.829q-.291.675-.291 1.008 0 .265.248.47.256.197 1.094.256v.316h-3.649v-.316q.726-.128.94-.333.436-.41.966-1.666l4.076-9.536h.299l4.033 9.639q.487 1.162.88 1.512.402.342 1.111.385v.316h-4.572v-.316q.692-.034.931-.231.248-.197.248-.479 0-.376-.342-1.188l-.701-1.666zm-.239-.632-1.965-4.683-2.017 4.683z"/><path d="m41.623 47.81h-3.093l-3.922-5.418-.709.017h-.239l-.265-.017v3.367q0 1.094.239 1.359.325.376.974.376h.453v.316h-4.965v-.316h.436q.735 0 1.051-.479.179-.265.179-1.256v-7.485q0-1.094-.239-1.359-.333-.376-.991-.376h-.436v-.316h4.221q1.846 0 2.717.273.88.265 1.487.991.615.718.615 1.718 0 1.068-.701 1.854-.692.786-2.153 1.111l2.393 3.324q.82 1.145 1.41 1.521.59.376 1.538.479zm-8.229-5.956.282.009h.197q1.658 0 2.495-.718.846-.718.846-1.829 0-1.085-.684-1.76-.675-.684-1.794-.684-.496 0-1.342.162v4.819z"/><path d="m21.16 54.35v4.554h2.111q.726 0 1.06-.316.342-.325.453-1.273h.316v3.922h-.316q-.009-.675-.179-.991-.162-.316-.461-.47-.291-.162-.872-.162h-2.111v3.64q0 .88.111 1.162.085.214.359.367.376.205.786.205h.419v.316h-4.973v-.316h.41q.718 0 1.042-.419.205-.273.205-1.316v-7.485q0-.88-.111-1.162-.085-.214-.35-.367-.367-.205-.786-.205h-.41v-.316h8.622l.111 2.546h-.299q-.222-.812-.521-1.188-.291-.385-.726-.555-.427-.171-1.333-.171h-2.555z"/><path d="m33.599 61.43h-4.486l-.786 1.829q-.291.675-.291 1.008 0 .265.248.47.256.197 1.094.256v.316h-3.649v-.316q.726-.128.94-.333.436-.41.966-1.666l4.076-9.536h.299l4.033 9.639q.487 1.162.88 1.512.402.342 1.111.385v.316h-4.572v-.316q.692-.034.931-.231.248-.197.248-.479 0-.376-.342-1.188l-.701-1.666zm-.239-.632-1.965-4.683-2.017 4.683z"/><path d="m23.98 70.96q2.256 0 3.905 1.718 1.658 1.709 1.658 4.272 0 2.64-1.666 4.384t-4.033 1.743q-2.393 0-4.025-1.7-1.623-1.7-1.623-4.401 0-2.76 1.88-4.503 1.632-1.512 3.905-1.512zm-.162.624q-1.555 0-2.495 1.154-1.171 1.436-1.171 4.204 0 2.837 1.213 4.366.931 1.162 2.461 1.162 1.632 0 2.692-1.273 1.068-1.273 1.068-4.016 0-2.974-1.171-4.435-.94-1.162-2.598-1.162z"/><path d="m33.385 77.38v3.375q0 1.094.239 1.359.325.376.983.376h.444v.316h-4.965v-.316h.436q.735 0 1.051-.479.171-.265.171-1.256v-7.485q0-1.094-.231-1.359-.333-.376-.991-.376h-.436v-.316h4.247q1.555 0 2.452.325.897.316 1.512 1.077.615.76.615 1.803 0 1.419-.94 2.307-.931.889-2.64.889-.419 0-.906-.06t-1.042-.179zm0-.487q.453.086.803.128.35.043.598.043.889 0 1.53-.684.649-.692.649-1.786 0-.752-.308-1.393-.308-.649-.872-.966-.564-.325-1.282-.325-.436 0-1.119.162v4.819z"/><path d="m25.604 88.46v4.008h-.316q-.154-1.154-.555-1.837-.393-.684-1.128-1.085-.735-.402-1.521-.402-.889 0-1.47.547-.581.538-.581 1.23 0 .53.367.966.53.641 2.521 1.709 1.623.872 2.213 1.342.598.461.914 1.094.325.632.325 1.325 0 1.316-1.025 2.273-1.017.948-2.623.948-.504 0-.948-.077-.265-.043-1.102-.308-.829-.273-1.051-.273-.214 0-.342.128-.12.128-.179.53h-.316v-3.973h.316q.222 1.248.598 1.871.376.615 1.145 1.025.778.41 1.7.41 1.068 0 1.683-.564.624-.564.624-1.333 0-.427-.239-.863-.231-.436-.726-.812-.333-.256-1.82-1.085-1.487-.837-2.119-1.333-.624-.496-.948-1.094-.325-.598-.325-1.316 0-1.248.957-2.145.957-.906 2.435-.906.923 0 1.957.453.479.214.675.214.222 0 .359-.128.145-.137.231-.538h.316z"/><path d="m33.291 88.46q2.256 0 3.905 1.718 1.658 1.709 1.658 4.272 0 2.64-1.666 4.384t-4.033 1.743q-2.393 0-4.025-1.7-1.623-1.7-1.623-4.401 0-2.76 1.88-4.503 1.632-1.512 3.905-1.512zm-.162.624q-1.555 0-2.495 1.154-1.171 1.436-1.171 4.204 0 2.837 1.213 4.366.931 1.162 2.461 1.162 1.632 0 2.692-1.273 1.068-1.273 1.068-4.016 0-2.974-1.171-4.435-.94-1.162-2.598-1.162z"/><path d="m42.643 22.763h9.22v.701h-9.22zm0 2.786h9.22v.701h-9.22z"/><path d="m42.643 40.26h9.22v.701h-9.22zm0 2.786h9.22v.701h-9.22z"/><path d="m42.643 57.76h9.22v.701h-9.22zm0 2.786h9.22v.701h-9.22z"/><path d="m42.643 75.26h9.22v.701h-9.22zm0 2.786h9.22v.701h-9.22z"/><path d="m42.643 92.76h9.22v.701h-9.22zm0 2.786h9.22v.701h-9.22z"/><path d="m60.313 24.63v3.375q0 1.094.239 1.359.325.376.983.376h.444v.316h-4.965v-.316h.436q.735 0 1.051-.479.171-.265.171-1.256v-7.485q0-1.094-.231-1.359-.333-.376-.991-.376h-.436v-.316h4.247q1.555 0 2.452.325.897.316 1.512 1.077.615.76.615 1.803 0 1.419-.94 2.307-.931.889-2.64.889-.419 0-.906-.06-.487-.06-1.042-.179zm0-.487q.453.085.803.128.35.043.598.043.889 0 1.53-.684.649-.692.649-1.786 0-.752-.308-1.393-.308-.649-.872-.966-.564-.325-1.282-.325-.436 0-1.119.162v4.819z"/><path d="m68.873 21.998v1.76q.983-1.76 2.017-1.76.47 0 .778.291.308.282.308.658 0 .333-.222.564t-.53.231q-.299 0-.675-.291-.367-.299-.547-.299-.154 0-.333.171-.385.35-.795 1.154v3.751q0 .649.162.983.111.231.393.385t.812.154v.308h-4.008v-.308q.598 0 .889-.188.214-.137.299-.436.043-.145.043-.829v-3.033q0-1.367-.06-1.623-.051-.265-.205-.385-.145-.12-.367-.12-.265 0-.598.128l-.086-.308 2.367-.957h.359z"/><path d="m75.823 21.998q1.777 0 2.854 1.35.914 1.154.914 2.649 0 1.051-.504 2.128t-1.393 1.623q-.88.547-1.965.547-1.769 0-2.811-1.41-.88-1.188-.88-2.666 0-1.077.53-2.136.538-1.068 1.41-1.572.872-.513 1.846-.513zm-.265.555q-.453 0-.914.273-.453.265-.735.94t-.282 1.735q0 1.709.675 2.948.684 1.239 1.794 1.239.829 0 1.367-.684t.538-2.35q0-2.085-.897-3.281-.607-.82-1.547-.82z"/><path d="m79.753 23.006 2.41-.974h.325v1.829q.607-1.034 1.213-1.444.615-.419 1.29-.419 1.179 0 1.965.923.966 1.128.966 2.939 0 2.025-1.162 3.35-.957 1.085-2.41 1.085-.632 0-1.094-.179-.342-.128-.769-.513v2.384q0 .803.094 1.017.103.222.342.35.248.128.889.128v.316h-4.102v-.316h.214q.47.009.803-.179.162-.094.248-.308.094-.205.094-1.06v-7.4q0-.76-.068-.966t-.222-.308q-.145-.103-.402-.103-.205 0-.521.12l-.103-.273zm2.734 1.359v2.922q0 .948.077 1.248.12.496.581.872.47.376 1.179.376.854 0 1.384-.666.692-.872.692-2.452 0-1.794-.786-2.76-.547-.666-1.299-.666-.41 0-.812.205-.308.154-1.017.923z"/><path d="m90.623 17.905q.359 0 .607.256.256.248.256.607t-.256.615q-.248.256-.607.256t-.615-.256-.256-.615q0-.359.248-.607.256-.256.624-.256zm.709 4.093v6.289q0 .735.103.983.111.239.316.359.214.12.769.12v.308h-3.803v-.308q.573 0 .769-.111.197-.111.308-.367.12-.256.12-.983v-3.016q0-1.273-.077-1.649-.06-.273-.188-.376-.128-.111-.35-.111-.239 0-.581.128l-.12-.308 2.358-.957h.376z"/><path d="m96.883 21.998q1.777 0 2.854 1.35.914 1.154.914 2.649 0 1.051-.504 2.128t-1.393 1.623q-.88.547-1.965.547-1.769 0-2.811-1.41-.88-1.188-.88-2.666 0-1.077.53-2.136.538-1.068 1.41-1.572.872-.513 1.846-.513zm-.265.555q-.453 0-.914.273-.453.265-.735.94-.282.675-.282 1.735 0 1.709.675 2.948.684 1.239 1.794 1.239.829 0 1.367-.684t.538-2.35q0-2.085-.897-3.281-.607-.82-1.547-.82z"/><path d="m107.473 23.579q1.137-1.581 2.452-1.581 1.205 0 2.102 1.034.897 1.025.897 2.811 0 2.085-1.384 3.358-1.188 1.094-2.649 1.094-.684 0-1.393-.248-.701-.248-1.436-.743v-8.109q0-1.333-.068-1.641-.06-.308-.197-.419-.137-.111-.342-.111-.239 0-.598.137l-.12-.299 2.35-.957h.385v5.674zm0 .547v4.683q.436.427.897.649.47.214.957.214.778 0 1.444-.855.675-.854.675-2.487 0-1.504-.675-2.307-.666-.812-1.521-.812-.453 0-.906.231-.342.171-.872.684z"/><path d="m115.633 17.905q.359 0 .607.256.256.248.256.607t-.256.615q-.248.256-.607.256t-.615-.256-.256-.615q0-.359.248-.607.256-.256.624-.256zm.709 4.093v6.289q0 .735.103.983.111.239.316.359.214.12.769.12v.308h-3.803v-.308q.573 0 .769-.111.197-.111.308-.367.12-.256.12-.983v-3.016q0-1.273-.077-1.649-.06-.273-.188-.376-.128-.111-.35-.111-.239 0-.581.128l-.12-.308 2.358-.957h.376z"/><path d="m119.383 25.177q-.009 1.743.846 2.734.854.991 2.008.991.769 0 1.333-.419.573-.427.957-1.453l.265.171q-.179 1.171-1.042 2.136-.863.957-2.162.957-1.41 0-2.418-1.094-1-1.102-1-2.957 0-2.008 1.025-3.127 1.034-1.128 2.589-1.128 1.316 0 2.162.872.846.863.846 2.316h-5.409zm0-.496h3.623q-.043-.752-.179-1.06-.214-.479-.641-.752-.419-.273-.88-.273-.709 0-1.273.555-.555.547-.649 1.53z"/><path d="m127.683 23.656q1.376-1.658 2.623-1.658.641 0 1.102.325.461.316.735 1.051.188.513.188 1.572v3.341q0 .743.12 1.008.094.214.299.333.214.12.778.12v.308h-3.871v-.308h.162q.547 0 .76-.162.222-.171.308-.496.034-.128.034-.803v-3.204q0-1.068-.282-1.547-.273-.487-.931-.487-1.017 0-2.025 1.111v4.127q0 .795.094.983.12.248.325.367.214.111.854.111v.308h-3.871v-.308h.171q.598 0 .803-.299.214-.308.214-1.162v-2.905q0-1.41-.068-1.718-.06-.308-.197-.419-.128-.111-.35-.111-.239 0-.573.128l-.128-.308 2.358-.957h.367v1.658z"/><path d="m135.033 25.177q-.009 1.743.846 2.734.854.991 2.008.991.769 0 1.333-.419.573-.427.957-1.453l.265.171q-.179 1.171-1.042 2.136-.863.957-2.162.957-1.41 0-2.418-1.094-1-1.102-1-2.957 0-2.008 1.025-3.127 1.034-1.128 2.589-1.128 1.316 0 2.162.872.846.863.846 2.316h-5.409zm0-.496h3.623q-.043-.752-.179-1.06-.214-.479-.641-.752-.419-.273-.88-.273-.709 0-1.273.555-.555.547-.649 1.53z"/><path d="m146.103 21.998v2.666h-.282q-.325-1.256-.837-1.709-.504-.453-1.29-.453-.598 0-.966.316-.367.316-.367.701 0 .479.273.82.265.35 1.077.743l1.248.607q1.735.846 1.735 2.23 0 1.068-.812 1.726-.803.649-1.803.649-.718 0-1.641-.256-.282-.086-.461-.086-.197 0-.308.222h-.282v-2.794h.282q.239 1.196.914 1.803t1.512.607q.59 0 .957-.342.376-.35.376-.837 0-.59-.419-.991-.41-.402-1.649-1.017-1.239-.615-1.623-1.111-.385-.487-.385-1.23 0-.966.658-1.615.666-.649 1.718-.649.461 0 1.119.197.436.128.581.128.137 0 .214-.06.077-.06.179-.265z"/><path d="m149.693 19.657v2.572h1.829v.598h-1.829v5.076q0 .76.214 1.025.222.265.564.265.282 0 .547-.171.265-.179.41-.521h.333q-.299.837-.846 1.265-.547.419-1.128.419-.393 0-.769-.214-.376-.222-.555-.624-.179-.41-.179-1.256v-5.264h-1.239v-.282q.47-.188.957-.632.496-.453.88-1.068.197-.325.547-1.188h.265z"/><path d="m156.273 28.928q-1.205.931-1.512 1.077-.461.214-.983.214-.812 0-1.342-.555-.521-.555-.521-1.461 0-.573.256-.991.35-.581 1.213-1.094.872-.513 2.888-1.248v-.308q0-1.171-.376-1.606-.367-.436-1.077-.436-.538 0-.854.291-.325.291-.325.666l.017.496q0 .393-.205.607-.197.214-.521.214-.316 0-.521-.222-.197-.222-.197-.607 0-.735.752-1.35.752-.615 2.111-.615 1.042 0 1.709.35.504.265.743.829.154.367.154 1.504v2.658q0 1.119.043 1.376.043.248.137.333.103.085.231.085.137 0 .239-.06.179-.111.692-.624v.479q-.957 1.282-1.829 1.282-.419 0-.666-.291-.248-.291-.256-.991zm0-.555v-2.982q-1.29.513-1.666.726-.675.376-.966.786-.291.41-.291.897 0 .615.367 1.025.367.402.846.402.649 0 1.709-.854z"/><path d="m161.463 21.998v1.76q.983-1.76 2.017-1.76.47 0 .778.291.308.282.308.658 0 .333-.222.564t-.53.231q-.299 0-.675-.291-.367-.299-.547-.299-.154 0-.333.171-.385.35-.795 1.154v3.751q0 .649.162.983.111.231.393.385.282.154.812.154v.308h-4.008v-.308q.598 0 .889-.188.214-.137.299-.436.043-.145.043-.829v-3.033q0-1.367-.06-1.623-.051-.265-.205-.385-.145-.12-.367-.12-.265 0-.598.128l-.086-.308 2.367-.957h.359z"/><path d="m64.733 43.68h-4.486l-.786 1.829q-.291.675-.291 1.008 0 .265.248.47.256.197 1.094.256v.316h-3.649v-.316q.726-.128.94-.333.436-.41.966-1.666l4.076-9.536h.299l4.033 9.639q.487 1.162.88 1.512.402.342 1.111.385v.316h-4.572v-.316q.692-.034.931-.231.248-.197.248-.479 0-.376-.342-1.188l-.701-1.666zm-.239-.632-1.965-4.683-2.017 4.683z"/><path d="m76.353 39.73v4.742q0 1.359.06 1.666.068.299.205.419.145.12.333.12.265 0 .598-.145l.12.299-2.341.966h-.385v-1.658q-1.008 1.094-1.538 1.376-.53.282-1.119.282-.658 0-1.145-.376-.479-.385-.667-.983-.188-.598-.188-1.692v-3.495q0-.555-.12-.769-.12-.214-.359-.325-.231-.12-.846-.111v-.316h2.743v5.238q0 1.094.376 1.435.385.342.923.342.367 0 .829-.231.47-.231 1.111-.88v-4.435q0-.666-.248-.897-.239-.239-1.008-.256v-.316z"/><path d="m80.083 37.16v2.572h1.829v.598h-1.829v5.076q0 .76.214 1.025.222.265.564.265.282 0 .547-.171.265-.179.41-.521h.333q-.299.837-.846 1.265-.547.419-1.128.419-.393 0-.769-.214-.376-.222-.555-.624-.179-.41-.179-1.256v-5.264h-1.239v-.282q.47-.188.957-.632.496-.453.88-1.068.197-.325.547-1.188h.265z"/><path d="m86.063 39.5q1.777 0 2.854 1.35.914 1.154.914 2.649 0 1.051-.504 2.128t-1.393 1.623q-.88.547-1.965.547-1.769 0-2.811-1.41-.88-1.188-.88-2.666 0-1.077.53-2.136.538-1.068 1.41-1.572.872-.513 1.846-.513zm-.265.555q-.453 0-.914.273-.453.265-.735.94-.282.675-.282 1.735 0 1.709.675 2.948.684 1.239 1.794 1.239.829 0 1.367-.684t.538-2.35q0-2.085-.897-3.281-.607-.82-1.547-.82z"/><path d="m92.843 39.5v1.76q.983-1.76 2.017-1.76.47 0 .778.291.308.282.308.658 0 .333-.222.564-.222.231-.53.231-.299 0-.675-.291-.367-.299-.547-.299-.154 0-.333.171-.385.35-.795 1.154v3.751q0 .649.162.983.111.231.393.385t.812.154v.308h-4.008v-.308q.598 0 .889-.188.214-.137.299-.436.043-.145.043-.829v-3.033q0-1.367-.06-1.623-.051-.265-.205-.385-.145-.12-.367-.12-.265 0-.598.128l-.086-.308 2.367-.957h.359z"/><path d="m98.253 39.5v1.76q.983-1.76 2.017-1.76.47 0 .778.291.308.282.308.658 0 .333-.222.564-.222.231-.53.231-.299 0-.675-.291-.367-.299-.547-.299-.154 0-.333.171-.385.35-.795 1.154v3.751q0 .649.162.983.111.231.393.385.282.154.812.154v.308h-4.008v-.308q.598 0 .889-.188.214-.137.299-.436.043-.145.043-.829v-3.033q0-1.367-.06-1.623-.051-.265-.205-.385-.145-.12-.367-.12-.265 0-.598.128l-.085-.308 2.367-.957h.359z"/><path d="m102.693 42.68q-.009 1.743.846 2.734.854.991 2.008.991.769 0 1.333-.419.573-.427.957-1.453l.265.171q-.179 1.171-1.042 2.136-.863.957-2.162.957-1.41 0-2.418-1.094-1-1.102-1-2.957 0-2.008 1.025-3.127 1.034-1.128 2.589-1.128 1.316 0 2.162.872.846.863.846 2.316h-5.409zm0-.496h3.623q-.043-.752-.179-1.06-.214-.479-.641-.752-.419-.273-.88-.273-.709 0-1.273.555-.555.547-.649 1.53z"/><path d="m113.143 46.43q-1.205.931-1.512 1.077-.461.214-.983.214-.812 0-1.342-.555-.521-.555-.521-1.461 0-.573.256-.991.35-.581 1.213-1.094.872-.513 2.888-1.248v-.308q0-1.171-.376-1.606-.367-.436-1.077-.436-.538 0-.854.291-.325.291-.325.667l.017.496q0 .393-.205.607-.197.214-.521.214-.316 0-.521-.222-.197-.222-.197-.607 0-.735.752-1.35.752-.615 2.111-.615 1.042 0 1.709.35.504.265.743.829.154.367.154 1.504v2.658q0 1.119.043 1.376.043.248.137.333.103.086.231.086.137 0 .239-.06.179-.111.692-.624v.479q-.957 1.282-1.829 1.282-.419 0-.666-.291-.248-.291-.256-.991zm0-.555v-2.982q-1.29.513-1.666.726-.675.376-.966.786-.291.41-.291.897 0 .615.367 1.025.367.402.846.402.649 0 1.709-.854z"/><path d="m118.733 35.41v10.382q0 .735.103.974.111.239.333.367.222.12.829.12v.308h-3.837v-.308q.538 0 .735-.111.197-.111.308-.367.111-.256.111-.983v-7.109q0-1.325-.06-1.623-.06-.308-.197-.419-.128-.111-.333-.111-.222 0-.564.137l-.145-.299 2.333-.957h.385z"/><path d="m122.453 35.41q.359 0 .607.256.256.248.256.607t-.256.615q-.248.256-.607.256t-.615-.256-.256-.615q0-.359.248-.607.256-.256.624-.256zm.709 4.093v6.289q0 .735.103.983.111.239.316.359.214.12.769.12v.308h-3.803v-.308q.573 0 .769-.111.197-.111.308-.367.12-.256.12-.983v-3.016q0-1.273-.077-1.649-.06-.273-.188-.376-.128-.111-.35-.111-.239 0-.581.128l-.12-.308 2.358-.957h.376z"/><path d="m131.683 45.15-.094 2.401h-6.904v-.308l5.195-6.921h-2.563q-.829 0-1.085.111-.256.103-.419.402-.231.427-.265 1.06h-.342l.051-2.17h6.563v.316l-5.247 6.939h2.854q.897 0 1.213-.145.325-.154.521-.53.137-.273.231-1.154h.291z"/><path d="m136.643 46.43q-1.205.931-1.512 1.077-.461.214-.983.214-.812 0-1.342-.555-.521-.555-.521-1.461 0-.573.256-.991.35-.581 1.213-1.094.872-.513 2.888-1.248v-.308q0-1.171-.376-1.606-.367-.436-1.077-.436-.538 0-.854.291-.325.291-.325.667l.017.496q0 .393-.205.607-.197.214-.521.214-.316 0-.521-.222-.197-.222-.197-.607 0-.735.752-1.35t2.111-.615q1.042 0 1.709.35.504.265.743.829.154.367.154 1.504v2.658q0 1.119.043 1.376.043.248.137.333.103.086.231.086.137 0 .239-.06.179-.111.692-.624v.479q-.957 1.282-1.829 1.282-.419 0-.667-.291t-.256-.991zm0-.555v-2.982q-1.29.513-1.666.726-.675.376-.966.786t-.291.897q0 .615.367 1.025.367.402.846.402.649 0 1.709-.854z"/><path d="m146.193 44.58q-.316 1.547-1.239 2.384-.923.829-2.042.829-1.333 0-2.324-1.119-.991-1.119-.991-3.025 0-1.846 1.094-2.999 1.102-1.154 2.64-1.154 1.154 0 1.897.615.743.607.743 1.265 0 .325-.214.53-.205.197-.581.197-.504 0-.76-.325-.145-.179-.197-.684-.043-.504-.342-.769-.299-.256-.829-.256-.855 0-1.376.632-.692.837-.692 2.213 0 1.401.684 2.478.692 1.068 1.863 1.068.837 0 1.504-.573.47-.393.914-1.427z"/><path d="m148.863 35.41q.359 0 .607.256.256.248.256.607t-.256.615q-.248.256-.607.256t-.615-.256q-.256-.256-.256-.615t.248-.607q.256-.256.624-.256zm.709 4.093v6.289q0 .735.103.983.111.239.316.359.214.12.769.12v.308h-3.803v-.308q.573 0 .769-.111.197-.111.308-.367.12-.256.12-.983v-3.016q0-1.273-.077-1.649-.06-.273-.188-.376-.128-.111-.35-.111-.239 0-.581.128l-.12-.308 2.358-.957h.376z"/><path d="m155.123 39.5q1.777 0 2.854 1.35.914 1.154.914 2.649 0 1.051-.504 2.128-.504 1.077-1.393 1.623-.88.547-1.965.547-1.769 0-2.811-1.41-.88-1.188-.88-2.666 0-1.077.53-2.136.538-1.068 1.41-1.572.872-.513 1.846-.513zm-.265.555q-.453 0-.914.273-.453.265-.735.94-.282.675-.282 1.735 0 1.709.675 2.948.684 1.239 1.794 1.239.829 0 1.367-.684t.538-2.35q0-2.085-.897-3.281-.607-.82-1.547-.82zm2.068-4.375-2.521 2.948h-.291l.897-2.948h1.914z"/><path d="m161.893 41.16q1.376-1.658 2.623-1.658.641 0 1.102.325.461.316.735 1.051.188.513.188 1.572v3.341q0 .743.12 1.008.094.214.299.333.214.12.778.12v.308h-3.871v-.308h.162q.547 0 .76-.162.222-.171.308-.496.034-.128.034-.803v-3.204q0-1.068-.282-1.547-.273-.487-.931-.487-1.017 0-2.025 1.111v4.127q0 .795.094.983.12.248.325.367.214.111.855.111v.308h-3.871v-.308h.171q.598 0 .803-.299.214-.308.214-1.162v-2.905q0-1.41-.068-1.718-.06-.308-.197-.419-.128-.111-.35-.111-.239 0-.573.128l-.128-.308 2.358-.957h.367v1.658z"/><path d="m60.303 54.1v4.554h2.111q.726 0 1.06-.316.342-.325.453-1.273h.316v3.922h-.316q-.009-.675-.179-.991-.162-.316-.461-.47-.291-.162-.872-.162h-2.111v3.64q0 .88.111 1.162.085.214.359.367.376.205.786.205h.419v.316h-4.973v-.316h.41q.718 0 1.042-.419.205-.273.205-1.316v-7.485q0-.88-.111-1.162-.086-.214-.35-.367-.367-.205-.786-.205h-.41v-.316h8.622l.111 2.546h-.299q-.222-.812-.521-1.188-.291-.385-.726-.555-.427-.171-1.333-.171h-2.555z"/><path d="m71.013 63.93q-1.205.931-1.512 1.077-.461.214-.983.214-.812 0-1.342-.555-.521-.555-.521-1.461 0-.573.256-.991.35-.581 1.213-1.094.872-.513 2.888-1.248v-.308q0-1.171-.376-1.606-.367-.436-1.077-.436-.538 0-.854.291-.325.291-.325.667l.017.496q0 .393-.205.607-.197.214-.521.214-.316 0-.521-.222-.197-.222-.197-.607 0-.735.752-1.35t2.111-.615q1.042 0 1.709.35.504.265.743.829.154.367.154 1.504v2.658q0 1.119.043 1.376.043.248.137.333.103.085.231.085.137 0 .239-.06.179-.111.692-.624v.479q-.957 1.282-1.829 1.282-.419 0-.667-.291-.248-.291-.256-.991zm0-.555v-2.982q-1.29.513-1.666.726-.675.376-.966.786t-.291.897q0 .615.367 1.025.367.402.846.402.649 0 1.709-.854z"/><path d="m76.233 58.66q.854-.855 1.008-.983.385-.325.829-.504.444-.179.88-.179.735 0 1.265.427.53.427.709 1.239.88-1.025 1.487-1.342.607-.325 1.248-.325.624 0 1.102.325.487.316.769 1.042.188.496.188 1.555v3.367q0 .735.111 1.008.086.188.316.325.231.128.752.128v.308h-3.862v-.308h.162q.504 0 .786-.197.197-.137.282-.436.034-.145.034-.829v-3.367q0-.957-.231-1.35-.333-.547-1.068-.547-.453 0-.914.231-.453.222-1.102.837l-.017.094.017.367v3.734q0 .803.086 1 .094.197.342.333.248.128.846.128v.308h-3.956v-.308q.649 0 .889-.154.248-.154.342-.461.043-.145.043-.846v-3.367q0-.957-.282-1.376-.376-.547-1.051-.547-.461 0-.914.248-.709.376-1.094.846v4.196q0 .769.103 1 .111.231.316.35.214.111.854.111v.308h-3.871v-.308q.538 0 .752-.111.214-.12.325-.367.111-.256.111-.983v-2.991q0-1.29-.077-1.666-.06-.282-.188-.385-.128-.111-.35-.111-.239 0-.573.128l-.128-.308 2.358-.957h.367v1.666z"/><path d="m89.113 52.91q.359 0 .607.256.256.248.256.607t-.256.615q-.248.256-.607.256t-.615-.256-.256-.615q0-.359.248-.607.256-.256.624-.256zm.709 4.093v6.289q0 .735.103.983.111.239.316.359.214.12.769.12v.308h-3.803v-.308q.573 0 .769-.111.197-.111.308-.367.12-.256.12-.983v-3.016q0-1.273-.077-1.649-.06-.273-.188-.376-.128-.111-.35-.111-.239 0-.581.128l-.12-.308 2.358-.957h.376z"/><path d="m94.233 52.91v10.382q0 .735.103.974.111.239.333.367.222.12.829.12v.308h-3.837v-.308q.538 0 .735-.111.197-.111.308-.367.111-.256.111-.983v-7.109q0-1.325-.06-1.623-.06-.308-.197-.419-.128-.111-.333-.111-.222 0-.564.137l-.145-.299 2.333-.957h.385z"/><path d="m97.953 52.91q.359 0 .607.256.256.248.256.607t-.256.615q-.248.256-.607.256t-.615-.256-.256-.615q0-.359.248-.607.256-.256.624-.256zm.709 4.093v6.289q0 .735.103.983.111.239.316.359.214.12.769.12v.308h-3.803v-.308q.573 0 .769-.111.197-.111.308-.367.12-.256.12-.983v-3.016q0-1.273-.077-1.649-.06-.273-.188-.376-.128-.111-.35-.111-.239 0-.581.128l-.12-.308 2.358-.957h.376z"/><path d="m104.823 63.93q-1.205.931-1.512 1.077-.461.214-.983.214-.812 0-1.342-.555-.521-.555-.521-1.461 0-.573.256-.991.35-.581 1.213-1.094.872-.513 2.888-1.248v-.308q0-1.171-.376-1.606-.367-.436-1.077-.436-.538 0-.854.291-.325.291-.325.667l.017.496q0 .393-.205.607-.197.214-.521.214-.316 0-.521-.222-.197-.222-.197-.607 0-.735.752-1.35t2.111-.615q1.042 0 1.709.35.504.265.743.829.154.367.154 1.504v2.658q0 1.119.043 1.376.043.248.137.333.103.085.231.085.137 0 .239-.06.179-.111.692-.624v.479q-.957 1.282-1.829 1.282-.419 0-.667-.291-.248-.291-.256-.991zm0-.555v-2.982q-1.29.513-1.666.726-.675.376-.966.786t-.291.897q0 .615.367 1.025.367.402.846.402.649 0 1.709-.854z"/><path d="m63.123 70.7q2.256 0 3.905 1.718 1.658 1.709 1.658 4.272 0 2.64-1.666 4.384t-4.033 1.743q-2.393 0-4.025-1.7-1.623-1.7-1.623-4.401 0-2.76 1.88-4.503 1.632-1.512 3.905-1.512zm-.162.624q-1.555 0-2.495 1.154-1.171 1.436-1.171 4.204 0 2.837 1.213 4.366.931 1.162 2.461 1.162 1.632 0 2.692-1.273 1.068-1.273 1.068-4.016 0-2.974-1.171-4.435-.94-1.162-2.598-1.162z"/><path d="m76.133 79.58q-.316 1.547-1.239 2.384-.923.829-2.042.829-1.333 0-2.324-1.119-.991-1.119-.991-3.025 0-1.846 1.094-2.999 1.102-1.154 2.64-1.154 1.154 0 1.897.615.743.607.743 1.265 0 .325-.214.53-.205.197-.581.197-.504 0-.76-.325-.145-.179-.197-.684-.043-.504-.342-.769-.299-.256-.829-.256-.854 0-1.376.632-.692.837-.692 2.213 0 1.401.684 2.478.692 1.068 1.863 1.068.837 0 1.504-.573.47-.393.914-1.427z"/><path d="m83.673 74.73v4.742q0 1.359.06 1.666.068.299.205.419.145.12.333.12.265 0 .598-.145l.12.299-2.341.966h-.385v-1.658q-1.008 1.094-1.538 1.376-.53.282-1.119.282-.658 0-1.145-.376-.479-.385-.666-.983-.188-.598-.188-1.692v-3.495q0-.555-.12-.769t-.359-.325q-.231-.12-.846-.111v-.316h2.743v5.238q0 1.094.376 1.435.385.342.923.342.367 0 .829-.231.47-.231 1.111-.88v-4.435q0-.666-.248-.897-.239-.239-1.008-.256v-.316h2.666z"/><path d="m84.573 75.51 2.41-.974h.325v1.829q.607-1.034 1.213-1.444.615-.419 1.29-.419 1.179 0 1.965.923.966 1.128.966 2.939 0 2.025-1.162 3.35-.957 1.085-2.41 1.085-.632 0-1.094-.179-.342-.128-.769-.513v2.384q0 .803.094 1.017.103.222.342.35.248.128.889.128v.316h-4.102v-.316h.214q.47.009.803-.179.162-.094.248-.308.094-.205.094-1.06v-7.4q0-.76-.068-.966t-.222-.308q-.145-.103-.402-.103-.205 0-.521.12l-.103-.273zm2.734 1.359v2.922q0 .948.077 1.248.12.496.581.872.47.376 1.179.376.854 0 1.384-.666.692-.872.692-2.452 0-1.794-.786-2.76-.547-.666-1.299-.666-.41 0-.812.205-.308.154-1.017.923z"/><path d="m97.893 81.43q-1.205.931-1.512 1.077-.461.214-.983.214-.812 0-1.342-.555-.521-.555-.521-1.461 0-.573.256-.991.35-.581 1.213-1.094.872-.513 2.888-1.248v-.308q0-1.171-.376-1.606-.367-.436-1.077-.436-.538 0-.854.291-.325.291-.325.667l.017.496q0 .393-.205.607-.197.214-.521.214-.316 0-.521-.222-.197-.222-.197-.607 0-.735.752-1.35.752-.615 2.111-.615 1.042 0 1.709.35.504.265.743.829.154.367.154 1.504v2.658q0 1.119.043 1.376.043.248.137.333.103.085.231.085.137 0 .239-.06.179-.111.692-.624v.479q-.957 1.282-1.829 1.282-.419 0-.666-.291-.248-.291-.256-.991zm0-.555v-2.982q-1.29.513-1.666.726-.675.376-.966.786t-.291.897q0 .615.367 1.025.367.402.846.402.649 0 1.709-.854z"/><path d="m107.433 79.58q-.316 1.547-1.239 2.384-.923.829-2.042.829-1.333 0-2.324-1.119-.991-1.119-.991-3.025 0-1.846 1.094-2.999 1.102-1.154 2.64-1.154 1.154 0 1.897.615.743.607.743 1.265 0 .325-.214.53-.205.197-.581.197-.504 0-.76-.325-.145-.179-.197-.684-.043-.504-.342-.769-.299-.256-.829-.256-.854 0-1.376.632-.692.837-.692 2.213 0 1.401.684 2.478.692 1.068 1.863 1.068.837 0 1.504-.573.47-.393.914-1.427z"/><path d="m110.103 70.41q.359 0 .607.256.256.248.256.607t-.256.615q-.248.256-.607.256t-.615-.256q-.256-.256-.256-.615t.248-.607q.256-.256.624-.256zm.709 4.093v6.289q0 .735.103.983.111.239.316.359.214.12.769.12v.308h-3.803v-.308q.573 0 .769-.111.197-.111.308-.367.12-.256.12-.983v-3.016q0-1.273-.077-1.649-.06-.273-.188-.376-.128-.111-.35-.111-.239 0-.581.128l-.12-.308 2.358-.957h.376z"/><path d="m116.363 74.5q1.777 0 2.854 1.35.914 1.154.914 2.649 0 1.051-.504 2.128-.504 1.077-1.393 1.623-.88.547-1.965.547-1.769 0-2.811-1.41-.88-1.188-.88-2.666 0-1.077.53-2.136.538-1.068 1.41-1.572.872-.513 1.846-.513zm-.265.555q-.453 0-.914.273-.453.265-.735.94-.282.675-.282 1.735 0 1.709.675 2.948.684 1.239 1.794 1.239.829 0 1.367-.684t.538-2.35q0-2.085-.897-3.281-.607-.82-1.547-.82zm2.068-4.375-2.521 2.948h-.291l.897-2.948h1.914z"/><path d="m123.143 76.16q1.376-1.658 2.623-1.658.641 0 1.102.325.461.316.735 1.051.188.513.188 1.572v3.341q0 .743.12 1.008.094.214.299.333.214.12.778.12v.308h-3.871v-.308h.162q.547 0 .76-.162.222-.171.308-.496.034-.128.034-.803v-3.204q0-1.068-.282-1.547-.273-.487-.931-.487-1.017 0-2.025 1.111v4.127q0 .795.094.983.12.248.325.367.214.111.854.111v.308h-3.871v-.308h.171q.598 0 .803-.299.214-.308.214-1.162v-2.905q0-1.41-.068-1.718-.06-.308-.197-.419-.128-.111-.35-.111-.239 0-.573.128l-.128-.308 2.358-.957h.367v1.658z"/><path d="m132.553 75.51 2.41-.974h.325v1.829q.607-1.034 1.213-1.444.615-.419 1.29-.419 1.179 0 1.965.923.966 1.128.966 2.939 0 2.025-1.162 3.35-.957 1.085-2.41 1.085-.632 0-1.094-.179-.342-.128-.769-.513v2.384q0 .803.094 1.017.103.222.342.35.248.128.889.128v.316h-4.102v-.316h.214q.47.009.803-.179.162-.094.248-.308.094-.205.094-1.06v-7.4q0-.76-.068-.966t-.222-.308q-.145-.103-.402-.103-.205 0-.521.12l-.103-.273zm2.734 1.359v2.922q0 .948.077 1.248.12.496.581.872.47.376 1.179.376.855 0 1.384-.666.692-.872.692-2.452 0-1.794-.786-2.76-.547-.666-1.299-.666-.41 0-.812.205-.308.154-1.017.923z"/><path d="m143.733 74.5v1.76q.983-1.76 2.017-1.76.47 0 .778.291.308.282.308.658 0 .333-.222.564-.222.231-.53.231-.299 0-.675-.291-.367-.299-.547-.299-.154 0-.333.171-.385.35-.795 1.154v3.751q0 .649.162.983.111.231.393.385.282.154.812.154v.308h-4.008v-.308q.598 0 .889-.188.214-.137.299-.436.043-.145.043-.829v-3.033q0-1.367-.06-1.623-.051-.265-.205-.385-.145-.12-.367-.12-.265 0-.598.128l-.085-.308 2.367-.957h.359z"/><path d="m148.843 70.41q.359 0 .607.256.256.248.256.607t-.256.615q-.248.256-.607.256t-.615-.256q-.256-.256-.256-.615t.248-.607q.256-.256.624-.256zm.709 4.093v6.289q0 .735.103.983.111.239.316.359.214.12.769.12v.308h-3.803v-.308q.573 0 .769-.111.197-.111.308-.367.12-.256.12-.983v-3.016q0-1.273-.077-1.649-.06-.273-.188-.376-.128-.111-.35-.111-.239 0-.581.128l-.12-.308 2.358-.957h.376z"/><path d="m153.563 76.16q1.376-1.658 2.623-1.658.641 0 1.102.325.461.316.735 1.051.188.513.188 1.572v3.341q0 .743.12 1.008.094.214.299.333.214.12.778.12v.308h-3.871v-.308h.162q.547 0 .76-.162.222-.171.308-.496.034-.128.034-.803v-3.204q0-1.068-.282-1.547-.273-.487-.931-.487-1.017 0-2.025 1.111v4.127q0 .795.094.983.12.248.325.367.214.111.854.111v.308h-3.871v-.308h.171q.598 0 .803-.299.214-.308.214-1.162v-2.905q0-1.41-.068-1.718-.06-.308-.197-.419-.128-.111-.35-.111-.239 0-.573.128l-.128-.308 2.358-.957h.367v1.658z"/><path d="m166.243 79.58q-.316 1.547-1.239 2.384-.923.829-2.042.829-1.333 0-2.324-1.119-.991-1.119-.991-3.025 0-1.846 1.094-2.999 1.102-1.154 2.64-1.154 1.154 0 1.897.615.743.607.743 1.265 0 .325-.214.53-.205.197-.581.197-.504 0-.76-.325-.145-.179-.197-.684-.043-.504-.342-.769-.299-.256-.829-.256-.854 0-1.376.632-.692.837-.692 2.213 0 1.401.684 2.478.692 1.068 1.863 1.068.837 0 1.504-.573.47-.393.914-1.427z"/><path d="m168.923 70.41q.359 0 .607.256.256.248.256.607t-.256.615q-.248.256-.607.256t-.615-.256q-.256-.256-.256-.615t.248-.607q.256-.256.624-.256zm.709 4.093v6.289q0 .735.103.983.111.239.316.359.214.12.769.12v.308h-3.803v-.308q.573 0 .769-.111.197-.111.308-.367.12-.256.12-.983v-3.016q0-1.273-.077-1.649-.06-.273-.188-.376-.128-.111-.35-.111-.239 0-.581.128l-.12-.308 2.358-.957h.376z"/><path d="m170.793 75.51 2.41-.974h.325v1.829q.607-1.034 1.213-1.444.615-.419 1.29-.419 1.179 0 1.965.923.966 1.128.966 2.939 0 2.025-1.162 3.35-.957 1.085-2.41 1.085-.632 0-1.094-.179-.342-.128-.769-.513v2.384q0 .803.094 1.017.103.222.342.35.248.128.889.128v.316h-4.102v-.316h.214q.47.009.803-.179.162-.094.248-.308.094-.205.094-1.06v-7.4q0-.76-.068-.966t-.222-.308q-.145-.103-.402-.103-.205 0-.521.12l-.103-.273zm2.734 1.359v2.922q0 .948.077 1.248.12.496.581.872.47.376 1.179.376.854 0 1.384-.666.692-.872.692-2.452 0-1.794-.786-2.76-.547-.666-1.299-.666-.41 0-.812.205-.308.154-1.017.923z"/><path d="m184.103 81.43q-1.205.931-1.512 1.077-.461.214-.983.214-.812 0-1.342-.555-.521-.555-.521-1.461 0-.573.256-.991.35-.581 1.213-1.094.872-.513 2.888-1.248v-.308q0-1.171-.376-1.606-.367-.436-1.077-.436-.538 0-.855.291-.325.291-.325.667l.017.496q0 .393-.205.607-.197.214-.521.214-.316 0-.521-.222-.197-.222-.197-.607 0-.735.752-1.35.752-.615 2.111-.615 1.042 0 1.709.35.504.265.743.829.154.367.154 1.504v2.658q0 1.119.043 1.376.043.248.137.333.103.085.231.085.137 0 .239-.06.179-.111.692-.624v.479q-.957 1.282-1.829 1.282-.419 0-.666-.291t-.256-.991zm0-.555v-2.982q-1.29.513-1.666.726-.675.376-.966.786-.291.41-.291.897 0 .615.367 1.025.367.402.846.402.649 0 1.709-.854z"/><path d="m189.693 70.41v10.382q0 .735.103.974.111.239.333.367.222.12.829.12v.308h-3.837v-.308q.538 0 .735-.111.197-.111.308-.367.111-.256.111-.983v-7.109q0-1.325-.06-1.623-.06-.308-.197-.419-.128-.111-.333-.111-.222 0-.564.137l-.145-.299 2.333-.957h.385z"/><path d="m64.743 88.2v4.008h-.316q-.154-1.154-.555-1.837-.393-.684-1.128-1.085-.735-.402-1.521-.402-.889 0-1.47.547-.581.538-.581 1.23 0 .53.367.966.53.641 2.521 1.709 1.623.872 2.213 1.342.598.461.914 1.094.325.632.325 1.325 0 1.316-1.025 2.273-1.017.948-2.623.948-.504 0-.948-.077-.265-.043-1.102-.308-.829-.273-1.051-.273-.214 0-.342.128-.12.128-.179.53h-.316v-3.973h.316q.222 1.248.598 1.871.376.615 1.145 1.025.778.41 1.7.41 1.068 0 1.683-.564.624-.564.624-1.333 0-.427-.239-.863-.231-.436-.726-.812-.333-.256-1.82-1.085-1.487-.837-2.119-1.333-.624-.496-.948-1.094-.325-.598-.325-1.316 0-1.248.957-2.145.957-.906 2.435-.906.923 0 1.957.453.479.214.675.214.222 0 .359-.128.145-.137.231-.538h.316z"/><path d="m70.413 92q1.777 0 2.854 1.35.914 1.154.914 2.649 0 1.051-.504 2.128t-1.393 1.623q-.88.547-1.965.547-1.769 0-2.811-1.41-.88-1.188-.88-2.666 0-1.077.53-2.136.538-1.068 1.41-1.572.872-.513 1.846-.513zm-.265.555q-.453 0-.914.273-.453.265-.735.94-.282.675-.282 1.735 0 1.709.675 2.948.684 1.239 1.794 1.239.829 0 1.367-.684t.538-2.35q0-2.085-.897-3.281-.607-.82-1.547-.82z"/><path d="m81.553 97.08q-.316 1.547-1.239 2.384-.923.829-2.042.829-1.333 0-2.324-1.119-.991-1.119-.991-3.025 0-1.846 1.094-2.999 1.102-1.154 2.64-1.154 1.154 0 1.897.615.743.607.743 1.265 0 .325-.214.53-.205.197-.581.197-.504 0-.76-.325-.145-.179-.197-.684-.043-.504-.342-.769-.299-.256-.829-.256-.854 0-1.376.632-.692.837-.692 2.213 0 1.401.684 2.478.692 1.068 1.863 1.068.837 0 1.504-.573.47-.393.914-1.427z"/><path d="m84.223 87.91q.359 0 .607.256.256.248.256.607t-.256.615q-.248.256-.607.256t-.615-.256q-.256-.256-.256-.615t.248-.607q.256-.256.624-.256zm.709 4.093v6.289q0 .735.103.983.111.239.316.359.214.12.769.12v.308h-3.803v-.308q.573 0 .769-.111.197-.111.308-.367.12-.256.12-.983v-3.016q0-1.273-.077-1.649-.06-.273-.188-.376-.128-.111-.35-.111-.239 0-.581.128l-.12-.308 2.358-.957h.376z"/><path d="m87.973 95.18q-.009 1.743.846 2.734.855.991 2.008.991.769 0 1.333-.419.573-.427.957-1.453l.265.171q-.179 1.171-1.042 2.136-.863.957-2.162.957-1.41 0-2.418-1.094-1-1.102-1-2.957 0-2.008 1.025-3.127 1.034-1.128 2.589-1.128 1.316 0 2.162.872.846.863.846 2.316h-5.409zm0-.496h3.623q-.043-.752-.179-1.06-.214-.479-.641-.752-.419-.273-.88-.273-.709 0-1.273.555-.555.547-.649 1.53z"/><path d="m99.513 99.18q-.573.598-1.119.863-.547.256-1.179.256-1.282 0-2.239-1.068-.957-1.077-.957-2.76 0-1.683 1.06-3.076 1.06-1.401 2.726-1.401 1.034 0 1.709.658v-1.444q0-1.342-.068-1.649-.06-.308-.197-.419-.137-.111-.342-.111-.222 0-.59.137l-.111-.299 2.333-.957h.385v9.049q0 1.376.06 1.683.068.299.205.419.145.12.333.12.231 0 .615-.145l.094.299-2.324.966h-.393v-1.119zm0-.598v-4.033q-.051-.581-.308-1.06-.256-.479-.684-.718-.419-.248-.82-.248-.752 0-1.342.675-.778.889-.778 2.598 0 1.726.752 2.649.752.914 1.675.914.778 0 1.504-.778z"/><path d="m106.733 98.93q-1.205.931-1.512 1.077-.461.214-.983.214-.812 0-1.342-.555-.521-.555-.521-1.461 0-.573.256-.991.35-.581 1.213-1.094.872-.513 2.888-1.248v-.308q0-1.171-.376-1.606-.367-.436-1.077-.436-.538 0-.854.291-.325.291-.325.667l.017.496q0 .393-.205.607-.197.214-.521.214-.316 0-.521-.222-.197-.222-.197-.607 0-.735.752-1.35.752-.615 2.111-.615 1.042 0 1.709.35.504.265.743.829.154.367.154 1.504v2.658q0 1.119.043 1.376.043.248.137.333.103.085.231.085.137 0 .239-.06.179-.111.692-.624v.479q-.957 1.282-1.829 1.282-.419 0-.666-.291-.248-.291-.256-.991zm0-.555v-2.982q-1.29.513-1.666.726-.675.376-.966.786-.291.41-.291.897 0 .615.367 1.025.367.402.846.402.649 0 1.709-.854z"/><path d="m115.163 99.18q-.573.598-1.119.863-.547.256-1.179.256-1.282 0-2.239-1.068-.957-1.077-.957-2.76 0-1.683 1.06-3.076 1.06-1.401 2.726-1.401 1.034 0 1.709.658v-1.444q0-1.342-.068-1.649-.06-.308-.197-.419-.137-.111-.342-.111-.222 0-.59.137l-.111-.299 2.333-.957h.385v9.049q0 1.376.06 1.683.068.299.205.419.145.12.333.12.231 0 .615-.145l.094.299-2.324.966h-.393v-1.119zm0-.598v-4.033q-.051-.581-.308-1.06-.256-.479-.684-.718-.419-.248-.82-.248-.752 0-1.342.675-.778.889-.778 2.598 0 1.726.752 2.649.752.914 1.675.914.778 0 1.504-.778z"/><path d="m244.963 28.984v.316h-4.965v-.316h.41q.718 0 1.042-.419.205-.273.205-1.316v-7.485q0-.88-.111-1.162-.085-.214-.35-.367-.376-.205-.786-.205h-.41v-.316h4.965v.316h-.419q-.709 0-1.034.419-.214.273-.214 1.316v7.485q0 .88.111 1.162.085.214.359.367.367.205.778.205z"/><path d="m244.743 17.713h3.144l7.084 8.69v-6.682q0-1.068-.239-1.333-.316-.359-1-.359h-.402v-.316h4.033v.316h-.41q-.735 0-1.042.444-.188.273-.188 1.248v9.767h-.308l-7.639-9.331v7.135q0 1.068.231 1.333.325.359 1 .359h.41v.316h-4.033v-.316h.402q.743 0 1.051-.444.188-.273.188-1.248v-8.058q-.504-.59-.769-.778-.256-.188-.76-.35-.248-.077-.752-.077v-.316z"/><path d="m243.223 35.85v4.58h2.546q.991 0 1.325-.299.444-.393.496-1.384h.316v4.033h-.316q-.12-.846-.239-1.085-.154-.299-.504-.47t-1.077-.171h-2.546v3.82q0 .769.068.94.068.162.239.265.171.094.649.094h1.965q.983 0 1.427-.137t.854-.538q.53-.53 1.085-1.598h.342l-1 2.905h-8.929v-.316h.41q.41 0 .778-.197.273-.137.367-.41.103-.273.103-1.119v-7.528q0-1.102-.222-1.359-.308-.342-1.025-.342h-.41v-.316h8.929l.128 2.538h-.333q-.179-.914-.402-1.256-.214-.342-.641-.521-.342-.128-1.205-.128h-3.179z"/><path d="m256.973 40.38 2.487 3.708q1.034 1.538 1.53 1.948.504.402 1.273.444v.316h-4.973v-.316q.496-.009.735-.103.179-.077.291-.231.12-.162.12-.325 0-.197-.077-.393-.06-.145-.47-.752l-1.965-2.974-2.427 3.11q-.385.496-.461.667-.077.162-.077.342 0 .273.231.453.231.179.88.205v.316h-4.11v-.316q.436-.043.752-.179.53-.222 1.008-.598.479-.376 1.094-1.154l2.734-3.452-2.281-3.341q-.931-1.359-1.581-1.777-.649-.427-1.495-.453v-.316h5.358v.316q-.684.026-.94.222-.248.197-.248.436 0 .316.41.923l1.777 2.658 2.059-2.606q.359-.461.436-.632.085-.171.085-.35 0-.179-.103-.316-.128-.179-.325-.248-.197-.077-.812-.086v-.316h4.11v.316q-.487.026-.795.154-.461.197-.846.53-.385.333-1.085 1.23l-2.299 2.939z"/><path d="m247.583 52.45v4.008h-.316q-.154-1.154-.555-1.837-.393-.684-1.128-1.085-.735-.402-1.521-.402-.889 0-1.47.547-.581.538-.581 1.23 0 .53.367.966.53.641 2.521 1.709 1.623.872 2.213 1.342.598.461.914 1.094.325.632.325 1.325 0 1.316-1.025 2.273-1.017.948-2.623.948-.504 0-.948-.077-.265-.043-1.102-.308-.829-.273-1.051-.273-.214 0-.342.128-.12.128-.179.53h-.316v-3.973h.316q.222 1.248.598 1.871.376.615 1.145 1.025.778.41 1.7.41 1.068 0 1.683-.564.624-.564.624-1.333 0-.427-.239-.863-.231-.436-.726-.812-.333-.256-1.82-1.085-1.487-.837-2.119-1.333-.624-.496-.948-1.094-.325-.598-.325-1.316 0-1.248.957-2.145.957-.906 2.435-.906.923 0 1.957.453.479.214.675.214.222 0 .359-.128.145-.137.231-.538h.316z"/><path d="m254.273 63.98v.316h-4.965v-.316h.41q.718 0 1.042-.419.205-.273.205-1.316v-7.485q0-.88-.111-1.162-.085-.214-.35-.367-.376-.205-.786-.205h-.41v-.316h4.965v.316h-.419q-.709 0-1.034.419-.214.273-.214 1.316v7.485q0 .88.111 1.162.085.214.359.367.367.205.778.205z"/><path d="m239.333 70.21h3.144l7.084 8.69v-6.682q0-1.068-.239-1.333-.316-.359-1-.359h-.402v-.316h4.033v.316h-.41q-.735 0-1.042.444-.188.273-.188 1.248v9.767h-.308l-7.639-9.331v7.135q0 1.068.231 1.333.325.359 1 .359h.41v.316h-4.033v-.316h.402q.743 0 1.051-.444.188-.273.188-1.248v-8.058q-.504-.59-.769-.778-.256-.188-.76-.35-.248-.077-.752-.077v-.316z"/><path d="m264.203 70.21v.316q-.615.111-.931.393-.453.419-.803 1.282l-4.042 9.861h-.316l-4.341-9.989q-.333-.769-.47-.94-.214-.265-.53-.41-.308-.154-.837-.197v-.316h4.734v.316q-.803.077-1.042.273-.239.197-.239.504 0 .427.393 1.333l2.948 6.793 2.734-6.708q.402-.991.402-1.376 0-.248-.248-.47-.248-.231-.837-.325l-.145-.026v-.316h3.572z"/><path d="m239.863 99.3v-.316h.436q.735 0 1.042-.47.188-.282.188-1.265v-7.485q0-1.085-.239-1.359-.333-.376-.991-.376h-.436v-.316h4.717q2.598 0 3.948.59 1.359.59 2.179 1.965.829 1.376.829 3.179 0 2.418-1.47 4.042-1.649 1.812-5.024 1.812h-5.178zm3.307-.837q1.085.239 1.82.239 1.982 0 3.29-1.393t1.307-3.777q0-2.401-1.307-3.785t-3.358-1.384q-.769 0-1.752.248z"/><path d="m260.123 88.03v-.316h4.102v.316h-.436q-.684 0-1.051.573-.179.265-.179 1.23v4.7q0 1.743-.35 2.709-.342.957-1.359 1.649-1.008.684-2.752.684-1.897 0-2.88-.658-.983-.658-1.393-1.769-.273-.76-.273-2.854v-4.529q0-1.068-.299-1.401-.291-.333-.948-.333h-.436v-.316h5.007v.316h-.444q-.718 0-1.025.453-.214.308-.214 1.282v5.05q0 .675.12 1.547.128.872.453 1.359t.931.803q.615.316 1.504.316 1.137 0 2.034-.496.897-.496 1.222-1.265.333-.778.333-2.623v-4.691q0-1.085-.239-1.359-.333-.376-.991-.376h-.436z"/><path d="m285.363 30.24v.316h-4.965v-.316h.41q.718 0 1.042-.419.205-.273.205-1.316v-7.485q0-.88-.111-1.162-.085-.214-.35-.367-.376-.205-.786-.205h-.41v-.316h4.965v.316h-.419q-.709 0-1.034.419-.214.273-.214 1.316v7.485q0 .88.111 1.162.086.214.359.367.367.205.778.205z"/><path d="m288.213 24.161q1.376-1.658 2.623-1.658.641 0 1.102.325.461.316.735 1.051.188.513.188 1.572v3.341q0 .743.12 1.008.094.214.299.333.214.12.778.12v.308h-3.871v-.308h.162q.547 0 .76-.162.222-.171.308-.496.034-.128.034-.803v-3.204q0-1.068-.282-1.547-.273-.487-.931-.487-1.017 0-2.025 1.111v4.127q0 .795.094.983.12.248.325.367.214.111.854.111v.308h-3.871v-.308h.171q.598 0 .803-.299.214-.308.214-1.162v-2.905q0-1.41-.068-1.718-.06-.308-.197-.419-.128-.111-.35-.111-.239 0-.573.128l-.128-.308 2.358-.957h.367v1.658z"/><path d="m296.523 20.162v2.572h1.829v.598h-1.829v5.076q0 .76.214 1.025.222.265.564.265.282 0 .547-.171.265-.179.41-.521h.333q-.299.837-.846 1.265-.547.419-1.128.419-.393 0-.769-.214-.376-.222-.555-.624-.179-.41-.179-1.256v-5.264h-1.239v-.282q.47-.188.957-.632.496-.453.88-1.068.197-.325.547-1.188h.265z"/><path d="m299.993 25.682q-.009 1.743.846 2.734.855.991 2.008.991.769 0 1.333-.419.573-.427.957-1.453l.265.171q-.179 1.171-1.042 2.136-.863.957-2.162.957-1.41 0-2.418-1.094-1-1.102-1-2.957 0-2.008 1.025-3.127 1.034-1.128 2.589-1.128 1.316 0 2.162.872.846.863.846 2.316h-5.409zm0-.496h3.623q-.043-.752-.179-1.06-.214-.479-.641-.752-.419-.273-.88-.273-.709 0-1.273.555-.555.547-.649 1.53z"/><path d="m308.293 22.503v1.76q.983-1.76 2.017-1.76.47 0 .778.291.308.282.308.658 0 .333-.222.564-.222.231-.53.231-.299 0-.675-.291-.367-.299-.547-.299-.154 0-.333.171-.385.35-.795 1.154v3.751q0 .649.162.983.111.231.393.385t.812.154v.308h-4.008v-.308q.598 0 .889-.188.214-.137.299-.436.043-.145.043-.829v-3.033q0-1.367-.06-1.623-.051-.265-.205-.385-.145-.12-.367-.12-.265 0-.598.128l-.086-.308 2.367-.957h.359z"/><path d="m312.733 25.682q-.009 1.743.846 2.734.854.991 2.008.991.769 0 1.333-.419.573-.427.957-1.453l.265.171q-.179 1.171-1.042 2.136-.863.957-2.162.957-1.41 0-2.418-1.094-1-1.102-1-2.957 0-2.008 1.025-3.127 1.034-1.128 2.589-1.128 1.316 0 2.162.872.846.863.846 2.316h-5.409zm0-.496h3.623q-.043-.752-.179-1.06-.214-.479-.641-.752-.419-.273-.88-.273-.709 0-1.273.555-.555.547-.649 1.53zm4.076-6.503-2.521 2.948h-.291l.897-2.948h1.914z"/><path d="m323.803 22.503v2.666h-.282q-.325-1.256-.837-1.709-.504-.453-1.29-.453-.598 0-.966.316t-.367.701q0 .479.273.82.265.35 1.077.743l1.248.607q1.735.846 1.735 2.23 0 1.068-.812 1.726-.803.649-1.803.649-.718 0-1.641-.256-.282-.085-.461-.085-.197 0-.308.222h-.282v-2.794h.282q.239 1.196.914 1.803t1.512.607q.59 0 .957-.342.376-.35.376-.837 0-.59-.419-.991-.41-.402-1.649-1.017-1.239-.615-1.623-1.111-.385-.487-.385-1.23 0-.966.658-1.615.666-.649 1.718-.649.461 0 1.119.197.436.128.581.128.137 0 .214-.06t.179-.265h.282z"/><path d="m283.623 37.11v4.58h2.546q.991 0 1.325-.299.444-.393.496-1.384h.316v4.033h-.316q-.12-.846-.239-1.085-.154-.299-.504-.47-.35-.171-1.077-.171h-2.546v3.82q0 .769.068.94.068.162.239.265.171.094.649.094h1.965q.983 0 1.427-.137.444-.137.855-.538.53-.53 1.085-1.598h.342l-1 2.905h-8.929v-.316h.41q.41 0 .778-.197.273-.137.367-.41.103-.273.103-1.119v-7.528q0-1.102-.222-1.359-.308-.342-1.025-.342h-.41v-.316h8.929l.128 2.538h-.333q-.179-.914-.402-1.256-.214-.342-.641-.521-.342-.128-1.205-.128h-3.179z"/><path d="m290.463 40.23h3.683v.316q-.35 0-.496.12-.137.12-.137.316 0 .205.299.632l.282.427.555.889.641-.889q.615-.846.615-1.068 0-.179-.145-.299-.145-.128-.47-.128v-.316h2.649v.316q-.419.026-.726.231-.419.291-1.145 1.265l-1.068 1.427 1.948 2.803q.718 1.034 1.025 1.248.308.205.795.231v.308h-3.691v-.308q.385 0 .598-.171.162-.12.162-.316t-.547-.991l-1.145-1.675-1.256 1.675q-.581.778-.581.923 0 .205.188.376.197.162.581.179v.308h-2.555v-.308q.308-.043.538-.214.325-.248 1.094-1.265l1.641-2.179-1.487-2.153q-.632-.923-.983-1.154-.342-.239-.863-.239v-.316z"/><path d="m298.543 41.01 2.41-.974h.325v1.829q.607-1.034 1.213-1.444.615-.419 1.29-.419 1.179 0 1.965.923.966 1.128.966 2.939 0 2.025-1.162 3.35-.957 1.085-2.41 1.085-.632 0-1.094-.179-.342-.128-.769-.513v2.384q0 .803.094 1.017.103.222.342.35.248.128.889.128v.316h-4.102v-.316h.214q.47.009.803-.179.162-.094.248-.308.094-.205.094-1.06v-7.4q0-.76-.068-.966t-.222-.308q-.145-.103-.402-.103-.205 0-.521.12l-.103-.273zm2.734 1.359v2.922q0 .948.077 1.248.12.496.581.872.47.376 1.179.376.854 0 1.384-.666.692-.872.692-2.452 0-1.794-.786-2.76-.547-.666-1.299-.666-.41 0-.812.205-.308.154-1.017.923z"/><path d="m308.743 43.18q-.009 1.743.846 2.734.855.991 2.008.991.769 0 1.333-.419.573-.427.957-1.453l.265.171q-.179 1.171-1.042 2.136-.863.957-2.162.957-1.41 0-2.418-1.094-1-1.102-1-2.957 0-2.008 1.025-3.127 1.034-1.128 2.589-1.128 1.316 0 2.162.872.846.863.846 2.316h-5.409zm0-.496h3.623q-.043-.752-.179-1.06-.214-.479-.641-.752-.419-.273-.88-.273-.709 0-1.273.555-.555.547-.649 1.53z"/><path d="m317.043 40v1.76q.983-1.76 2.017-1.76.47 0 .778.291.308.282.308.658 0 .333-.222.564-.222.231-.53.231-.299 0-.675-.291-.367-.299-.547-.299-.154 0-.333.171-.385.35-.795 1.154v3.751q0 .649.162.983.111.231.393.385.282.154.812.154v.308h-4.008v-.308q.598 0 .889-.188.214-.137.299-.436.043-.145.043-.829v-3.033q0-1.367-.06-1.623-.051-.265-.205-.385-.145-.12-.367-.12-.265 0-.598.128l-.086-.308 2.367-.957h.359z"/><path d="m322.153 35.91q.359 0 .607.256.256.248.256.607t-.256.615q-.248.256-.607.256t-.615-.256q-.256-.256-.256-.615t.248-.607q.256-.256.624-.256zm.709 4.093v6.289q0 .735.103.983.111.239.316.359.214.12.769.12v.308h-3.803v-.308q.573 0 .769-.111.197-.111.308-.367.12-.256.12-.983v-3.016q0-1.273-.077-1.649-.06-.273-.188-.376-.128-.111-.35-.111-.239 0-.581.128l-.12-.308 2.358-.957h.376z"/><path d="m325.903 43.18q-.009 1.743.846 2.734.855.991 2.008.991.769 0 1.333-.419.573-.427.957-1.453l.265.171q-.179 1.171-1.042 2.136-.863.957-2.162.957-1.41 0-2.418-1.094-1-1.102-1-2.957 0-2.008 1.025-3.127 1.034-1.128 2.589-1.128 1.316 0 2.162.872.846.863.846 2.316h-5.409zm0-.496h3.623q-.043-.752-.179-1.06-.214-.479-.641-.752-.419-.273-.88-.273-.709 0-1.273.555-.555.547-.649 1.53z"/><path d="m334.203 41.66q1.376-1.658 2.623-1.658.641 0 1.102.325.461.316.735 1.051.188.513.188 1.572v3.341q0 .743.12 1.008.094.214.299.333.214.12.778.12v.308h-3.871v-.308h.162q.547 0 .76-.162.222-.171.308-.496.034-.128.034-.803v-3.204q0-1.068-.282-1.547-.273-.487-.931-.487-1.017 0-2.025 1.111v4.127q0 .795.094.983.12.248.325.367.214.111.854.111v.308h-3.871v-.308h.171q.598 0 .803-.299.214-.308.214-1.162v-2.905q0-1.41-.068-1.718-.06-.308-.197-.419-.128-.111-.35-.111-.239 0-.573.128l-.128-.308 2.358-.957h.367v1.658z"/><path d="m346.883 45.09q-.316 1.547-1.239 2.384-.923.829-2.042.829-1.333 0-2.324-1.119-.991-1.119-.991-3.025 0-1.846 1.094-2.999 1.102-1.154 2.64-1.154 1.154 0 1.897.615.743.607.743 1.265 0 .325-.214.53-.205.197-.581.197-.504 0-.76-.325-.145-.179-.197-.684-.043-.504-.342-.769-.299-.256-.829-.256-.854 0-1.376.632-.692.837-.692 2.213 0 1.401.684 2.478.692 1.068 1.863 1.068.837 0 1.504-.573.47-.393.914-1.427z"/><path d="m349.553 35.91q.359 0 .607.256.256.248.256.607t-.256.615q-.248.256-.607.256t-.615-.256-.256-.615q0-.359.248-.607.256-.256.624-.256zm.709 4.093v6.289q0 .735.103.983.111.239.316.359.214.12.769.12v.308h-3.803v-.308q.573 0 .769-.111.197-.111.308-.367.12-.256.12-.983v-3.016q0-1.273-.077-1.649-.06-.273-.188-.376-.128-.111-.35-.111-.239 0-.581.128l-.12-.308 2.358-.957h.376z"/><path d="m356.423 46.93q-1.205.931-1.512 1.077-.461.214-.983.214-.812 0-1.342-.555-.521-.555-.521-1.461 0-.573.256-.991.35-.581 1.213-1.094.872-.513 2.888-1.248v-.308q0-1.171-.376-1.606-.367-.436-1.077-.436-.538 0-.854.291-.325.291-.325.667l.017.496q0 .393-.205.607-.197.214-.521.214-.316 0-.521-.222-.197-.222-.197-.607 0-.735.752-1.35.752-.615 2.111-.615 1.042 0 1.709.35.504.265.743.829.154.367.154 1.504v2.658q0 1.119.043 1.376.043.248.137.333.103.085.231.085.137 0 .239-.06.179-.111.692-.624v.479q-.957 1.282-1.829 1.282-.419 0-.667-.291-.248-.291-.256-.991zm0-.555v-2.982q-1.29.513-1.666.726-.675.376-.966.786-.291.41-.291.897 0 .615.367 1.025.367.402.846.402.649 0 1.709-.854z"/><path d="m364.373 40v2.666h-.282q-.325-1.256-.837-1.709-.504-.453-1.29-.453-.598 0-.966.316t-.367.701q0 .479.273.82.265.35 1.077.743l1.248.607q1.735.846 1.735 2.23 0 1.068-.812 1.726-.803.649-1.803.649-.718 0-1.641-.256-.282-.085-.461-.085-.197 0-.308.222h-.282v-2.794h.282q.239 1.196.914 1.803t1.512.607q.59 0 .957-.342.376-.35.376-.837 0-.59-.419-.991-.41-.402-1.649-1.017-1.239-.615-1.623-1.111-.385-.487-.385-1.23 0-.966.658-1.615.666-.649 1.718-.649.461 0 1.119.197.436.128.581.128.137 0 .214-.06.077-.06.179-.265h.282z"/><path d="m287.993 53.71v4.008h-.316q-.154-1.154-.555-1.837-.393-.684-1.128-1.085-.735-.402-1.521-.402-.889 0-1.47.547-.581.538-.581 1.23 0 .53.367.966.53.641 2.521 1.709 1.623.872 2.213 1.342.598.461.914 1.094.325.632.325 1.325 0 1.316-1.025 2.273-1.017.948-2.623.948-.504 0-.948-.077-.265-.043-1.102-.308-.829-.273-1.051-.273-.214 0-.342.128-.12.128-.179.53h-.316v-3.973h.316q.222 1.248.598 1.871.376.615 1.145 1.025.778.41 1.7.41 1.068 0 1.683-.564.624-.564.624-1.333 0-.427-.239-.863-.231-.436-.726-.812-.333-.256-1.82-1.085-1.487-.837-2.119-1.333-.624-.496-.948-1.094-.325-.598-.325-1.316 0-1.248.957-2.145.957-.906 2.435-.906.923 0 1.957.453.479.214.675.214.222 0 .359-.128.145-.137.231-.538h.316z"/><path d="m291.143 60.68q-.009 1.743.846 2.734.855.991 2.008.991.769 0 1.333-.419.573-.427.957-1.453l.265.171q-.179 1.171-1.042 2.136-.863.957-2.162.957-1.41 0-2.418-1.094-1-1.102-1-2.957 0-2.008 1.025-3.127 1.034-1.128 2.589-1.128 1.316 0 2.162.872.846.863.846 2.316h-5.409zm0-.496h3.623q-.043-.752-.179-1.06-.214-.479-.641-.752-.419-.273-.88-.273-.709 0-1.273.555-.555.547-.649 1.53z"/><path d="m299.443 57.5v1.76q.983-1.76 2.017-1.76.47 0 .778.291.308.282.308.658 0 .333-.222.564-.222.231-.53.231-.299 0-.675-.291-.367-.299-.547-.299-.154 0-.333.171-.385.35-.795 1.154v3.751q0 .649.162.983.111.231.393.385.282.154.812.154v.308h-4.008v-.308q.598 0 .889-.188.214-.137.299-.436.043-.145.043-.829v-3.033q0-1.367-.06-1.623-.051-.265-.205-.385-.145-.12-.367-.12-.265 0-.598.128l-.085-.308 2.367-.957h.359z"/><path d="m302.163 57.73h3.683v.316h-.239q-.333 0-.513.162-.171.162-.171.436 0 .299.179.709l1.82 4.324 1.829-4.486q.197-.479.197-.726 0-.12-.068-.197-.094-.128-.239-.171-.145-.051-.59-.051v-.316h2.555v.316q-.444.034-.615.179-.299.256-.538.855l-2.777 6.716h-.35l-2.794-6.605q-.188-.461-.359-.658-.171-.205-.436-.342-.145-.077-.573-.145v-.316z"/><path d="m312.883 53.41q.359 0 .607.256.256.248.256.607t-.256.615q-.248.256-.607.256t-.615-.256q-.256-.256-.256-.615t.248-.607q.256-.256.624-.256zm.709 4.093v6.289q0 .735.103.983.111.239.316.359.214.12.769.12v.308h-3.803v-.308q.573 0 .769-.111.197-.111.308-.367.12-.256.12-.983v-3.016q0-1.273-.077-1.649-.06-.273-.188-.376-.128-.111-.35-.111-.239 0-.581.128l-.12-.308 2.358-.957h.376z"/><path d="m321.963 62.59q-.316 1.547-1.239 2.384-.923.829-2.042.829-1.333 0-2.324-1.119-.991-1.119-.991-3.025 0-1.846 1.094-2.999 1.102-1.154 2.64-1.154 1.154 0 1.897.615.743.607.743 1.265 0 .325-.214.53-.205.197-.581.197-.504 0-.76-.325-.145-.179-.197-.684-.043-.504-.342-.769-.299-.256-.829-.256-.855 0-1.376.632-.692.837-.692 2.213 0 1.401.684 2.478.692 1.068 1.863 1.068.837 0 1.504-.573.47-.393.914-1.427z"/><path d="m324.633 53.41q.359 0 .607.256.256.248.256.607t-.256.615q-.248.256-.607.256t-.615-.256-.256-.615q0-.359.248-.607.256-.256.624-.256zm.709 4.093v6.289q0 .735.103.983.111.239.316.359.214.12.769.12v.308h-3.803v-.308q.573 0 .769-.111.197-.111.308-.367.12-.256.12-.983v-3.016q0-1.273-.077-1.649-.06-.273-.188-.376-.128-.111-.35-.111-.239 0-.581.128l-.12-.308 2.358-.957h.376z"/><path d="m330.893 57.5q1.777 0 2.854 1.35.914 1.154.914 2.649 0 1.051-.504 2.128t-1.393 1.623q-.88.547-1.965.547-1.769 0-2.811-1.41-.88-1.188-.88-2.666 0-1.077.53-2.136.538-1.068 1.41-1.572.872-.513 1.846-.513zm-.265.555q-.453 0-.914.273-.453.265-.735.94-.282.675-.282 1.735 0 1.709.675 2.948.684 1.239 1.794 1.239.829 0 1.367-.684t.538-2.35q0-2.085-.897-3.281-.607-.82-1.547-.82z"/><path d="m343.763 64.43q-1.205.931-1.512 1.077-.461.214-.983.214-.812 0-1.342-.555-.521-.555-.521-1.461 0-.573.256-.991.35-.581 1.213-1.094.872-.513 2.888-1.248v-.308q0-1.171-.376-1.606-.367-.436-1.077-.436-.538 0-.854.291-.325.291-.325.667l.017.496q0 .393-.205.607-.197.214-.521.214-.316 0-.521-.222-.197-.222-.197-.607 0-.735.752-1.35.752-.615 2.111-.615 1.042 0 1.709.35.504.265.743.829.154.367.154 1.504v2.658q0 1.119.043 1.376.043.248.137.333.103.086.231.086.137 0 .239-.06.179-.111.692-.624v.479q-.957 1.282-1.829 1.282-.419 0-.666-.291-.248-.291-.256-.991zm0-.555v-2.982q-1.29.513-1.666.726-.675.376-.966.786-.291.41-.291.897 0 .615.367 1.025.367.402.846.402.649 0 1.709-.854z"/><path d="m352.593 53.41q.359 0 .607.256.256.248.256.607t-.256.615q-.248.256-.607.256t-.615-.256-.256-.615q0-.359.248-.607.256-.256.624-.256zm.709 4.093v6.289q0 .735.103.983.111.239.316.359.214.12.769.12v.308h-3.803v-.308q.573 0 .769-.111.197-.111.308-.367.12-.256.12-.983v-3.016q0-1.273-.077-1.649-.06-.273-.188-.376-.128-.111-.35-.111-.239 0-.581.128l-.12-.308 2.358-.957h.376z"/><path d="m360.553 64.68q-.573.598-1.119.863-.547.256-1.179.256-1.282 0-2.239-1.068-.957-1.077-.957-2.76 0-1.683 1.06-3.076 1.06-1.401 2.726-1.401 1.034 0 1.709.658v-1.444q0-1.342-.068-1.649-.06-.308-.197-.419-.137-.111-.342-.111-.222 0-.59.137l-.111-.299 2.333-.957h.385v9.049q0 1.376.06 1.683.068.299.205.419.145.12.333.12.231 0 .615-.145l.094.299-2.324.966h-.393v-1.119zm0-.598v-4.033q-.051-.581-.308-1.06-.256-.479-.684-.718-.419-.248-.82-.248-.752 0-1.342.675-.778.889-.778 2.598 0 1.726.752 2.649.752.914 1.675.914.778 0 1.504-.778z"/><path d="m364.663 60.68q-.009 1.743.846 2.734.854.991 2.008.991.769 0 1.333-.419.573-.427.957-1.453l.265.171q-.179 1.171-1.042 2.136-.863.957-2.162.957-1.41 0-2.418-1.094-1-1.102-1-2.957 0-2.008 1.025-3.127 1.034-1.128 2.589-1.128 1.316 0 2.162.872.846.863.846 2.316h-5.409zm0-.496h3.623q-.043-.752-.179-1.06-.214-.479-.641-.752-.419-.273-.88-.273-.709 0-1.273.555-.555.547-.649 1.53z"/><path d="m375.113 64.43q-1.205.931-1.512 1.077-.461.214-.983.214-.812 0-1.342-.555-.521-.555-.521-1.461 0-.573.256-.991.35-.581 1.213-1.094.872-.513 2.888-1.248v-.308q0-1.171-.376-1.606-.367-.436-1.077-.436-.538 0-.854.291-.325.291-.325.667l.017.496q0 .393-.205.607-.197.214-.521.214-.316 0-.521-.222-.197-.222-.197-.607 0-.735.752-1.35.752-.615 2.111-.615 1.042 0 1.709.35.504.265.743.829.154.367.154 1.504v2.658q0 1.119.043 1.376.043.248.137.333.103.086.231.086.137 0 .239-.06.179-.111.692-.624v.479q-.957 1.282-1.829 1.282-.419 0-.667-.291-.248-.291-.256-.991zm0-.555v-2.982q-1.29.513-1.666.726-.675.376-.966.786-.291.41-.291.897 0 .615.367 1.025.367.402.846.402.649 0 1.709-.854z"/><path d="m380.693 53.41v10.382q0 .735.103.974.111.239.333.367.222.12.829.12v.308h-3.837v-.308q.538 0 .735-.111.197-.111.308-.367.111-.256.111-.983v-7.109q0-1.325-.06-1.623-.06-.308-.197-.419-.128-.111-.333-.111-.222 0-.564.137l-.145-.299 2.333-.957h.385z"/><path d="m383.743 60.68q-.009 1.743.846 2.734.854.991 2.008.991.769 0 1.333-.419.573-.427.957-1.453l.265.171q-.179 1.171-1.042 2.136-.863.957-2.162.957-1.41 0-2.418-1.094-1-1.102-1-2.957 0-2.008 1.025-3.127 1.034-1.128 2.589-1.128 1.316 0 2.162.872.846.863.846 2.316h-5.409zm0-.496h3.623q-.043-.752-.179-1.06-.214-.479-.641-.752-.419-.273-.88-.273-.709 0-1.273.555-.555.547-.649 1.53z"/><path d="m394.813 57.5v2.666h-.282q-.325-1.256-.837-1.709-.504-.453-1.29-.453-.598 0-.966.316-.367.316-.367.701 0 .479.273.82.265.35 1.077.743l1.248.607q1.735.846 1.735 2.23 0 1.068-.812 1.726-.803.649-1.803.649-.718 0-1.641-.256-.282-.086-.461-.086-.197 0-.308.222h-.282v-2.794h.282q.239 1.196.914 1.803t1.512.607q.59 0 .957-.342.376-.35.376-.837 0-.59-.419-.991-.41-.402-1.649-1.017-1.239-.615-1.623-1.111-.385-.487-.385-1.23 0-.966.658-1.615.666-.649 1.718-.649.461 0 1.119.197.436.128.581.128.137 0 .214-.06t.179-.265z"/><path d="m279.733 71.47h3.144l7.084 8.69v-6.682q0-1.068-.239-1.333-.316-.359-1-.359h-.402v-.316h4.033v.316h-.41q-.735 0-1.042.444-.188.273-.188 1.248v9.767h-.308l-7.639-9.331v7.135q0 1.068.231 1.333.325.359 1 .359h.41v.316h-4.033v-.316h.402q.743 0 1.051-.444.188-.273.188-1.248v-8.058q-.504-.59-.769-.778-.256-.188-.76-.35-.248-.077-.752-.077v-.316z"/><path d="m294.043 78.18q-.009 1.743.846 2.734.854.991 2.008.991.769 0 1.333-.419.573-.427.957-1.453l.265.171q-.179 1.171-1.042 2.136-.863.957-2.162.957-1.41 0-2.418-1.094-1-1.102-1-2.957 0-2.008 1.025-3.127 1.034-1.128 2.589-1.128 1.316 0 2.162.872.846.863.846 2.316h-5.409zm0-.496h3.623q-.043-.752-.179-1.06-.214-.479-.641-.752-.419-.273-.88-.273-.709 0-1.273.555-.555.547-.649 1.53z"/><path d="m306.703 80.09q-.316 1.547-1.239 2.384-.923.829-2.042.829-1.333 0-2.324-1.119-.991-1.119-.991-3.025 0-1.846 1.094-2.999 1.102-1.154 2.64-1.154 1.154 0 1.897.615.743.607.743 1.265 0 .325-.214.53-.205.197-.581.197-.504 0-.76-.325-.145-.179-.197-.684-.043-.504-.342-.769-.299-.256-.829-.256-.854 0-1.376.632-.692.837-.692 2.213 0 1.401.684 2.478.692 1.068 1.863 1.068.837 0 1.504-.573.47-.393.914-1.427z"/><path d="m308.703 78.18q-.009 1.743.846 2.734.855.991 2.008.991.769 0 1.333-.419.573-.427.957-1.453l.265.171q-.179 1.171-1.042 2.136-.863.957-2.162.957-1.41 0-2.418-1.094-1-1.102-1-2.957 0-2.008 1.025-3.127 1.034-1.128 2.589-1.128 1.316 0 2.162.872.846.863.846 2.316h-5.409zm0-.496h3.623q-.043-.752-.179-1.06-.214-.479-.641-.752-.419-.273-.88-.273-.709 0-1.273.555-.555.547-.649 1.53z"/><path d="m319.773 75v2.666h-.282q-.325-1.256-.837-1.709-.504-.453-1.29-.453-.598 0-.966.316t-.367.701q0 .479.273.82.265.35 1.077.743l1.248.607q1.735.846 1.735 2.23 0 1.068-.812 1.726-.803.649-1.803.649-.718 0-1.641-.256-.282-.086-.461-.086-.197 0-.308.222h-.282v-2.794h.282q.239 1.196.914 1.803t1.512.607q.59 0 .957-.342.376-.35.376-.837 0-.59-.419-.991-.41-.402-1.649-1.017-1.239-.615-1.623-1.111-.385-.487-.385-1.23 0-.966.658-1.615.667-.649 1.718-.649.461 0 1.119.197.436.128.581.128.137 0 .214-.06.077-.06.179-.265z"/><path d="m323.083 70.91q.359 0 .607.256.256.248.256.607t-.256.615q-.248.256-.607.256t-.615-.256q-.256-.256-.256-.615t.248-.607q.256-.256.624-.256zm.709 4.093v6.289q0 .735.103.983.111.239.316.359.214.12.769.12v.308h-3.803v-.308q.573 0 .769-.111.197-.111.308-.367.12-.256.12-.983v-3.016q0-1.273-.077-1.649-.06-.273-.188-.376-.128-.111-.35-.111-.239 0-.581.128l-.12-.308 2.358-.957h.376z"/><path d="m331.043 82.18q-.573.598-1.119.863-.547.256-1.179.256-1.282 0-2.239-1.068-.957-1.077-.957-2.76 0-1.683 1.06-3.076 1.06-1.401 2.726-1.401 1.034 0 1.709.658v-1.444q0-1.342-.068-1.649-.06-.308-.197-.419-.137-.111-.342-.111-.222 0-.59.137l-.111-.299 2.333-.957h.385v9.049q0 1.376.06 1.683.068.299.205.419.145.12.333.12.231 0 .615-.145l.094.299-2.324.966h-.393v-1.119zm0-.598v-4.033q-.051-.581-.308-1.06-.256-.479-.684-.718-.419-.248-.82-.248-.752 0-1.342.675-.778.889-.778 2.598 0 1.726.752 2.649.752.914 1.675.914.778 0 1.504-.778z"/><path d="m338.263 81.93q-1.205.931-1.512 1.077-.461.214-.983.214-.812 0-1.342-.555-.521-.555-.521-1.461 0-.573.256-.991.35-.581 1.213-1.094.872-.513 2.888-1.248v-.308q0-1.171-.376-1.606-.367-.436-1.077-.436-.538 0-.854.291-.325.291-.325.667l.017.496q0 .393-.205.607-.197.214-.521.214-.316 0-.521-.222-.197-.222-.197-.607 0-.735.752-1.35.752-.615 2.111-.615 1.042 0 1.709.35.504.265.743.829.154.367.154 1.504v2.658q0 1.119.043 1.376.043.248.137.333.103.086.231.086.137 0 .239-.06.179-.111.692-.624v.479q-.957 1.282-1.829 1.282-.419 0-.666-.291-.248-.291-.256-.991zm0-.555v-2.982q-1.29.513-1.666.726-.675.376-.966.786-.291.41-.291.897 0 .615.367 1.025.367.402.846.402.649 0 1.709-.854z"/><path d="m346.693 82.18q-.573.598-1.119.863-.547.256-1.179.256-1.282 0-2.239-1.068-.957-1.077-.957-2.76 0-1.683 1.06-3.076 1.06-1.401 2.726-1.401 1.034 0 1.709.658v-1.444q0-1.342-.068-1.649-.06-.308-.197-.419-.137-.111-.342-.111-.222 0-.59.137l-.111-.299 2.333-.957h.385v9.049q0 1.376.06 1.683.068.299.205.419.145.12.333.12.231 0 .615-.145l.094.299-2.324.966h-.393v-1.119zm0-.598v-4.033q-.051-.581-.308-1.06-.256-.479-.684-.718-.419-.248-.82-.248-.752 0-1.342.675-.778.889-.778 2.598 0 1.726.752 2.649.752.914 1.675.914.778 0 1.504-.778z"/><path d="m353.023 75.23h3.683v.316h-.239q-.333 0-.513.162-.171.162-.171.436 0 .299.179.709l1.82 4.324 1.829-4.486q.197-.479.197-.726 0-.12-.068-.197-.094-.128-.239-.171-.145-.051-.59-.051v-.316h2.555v.316q-.444.034-.615.179-.299.256-.538.855l-2.777 6.716h-.35l-2.794-6.605q-.188-.461-.359-.658-.171-.205-.436-.342-.145-.077-.573-.145v-.316z"/><path d="m363.733 70.91q.359 0 .607.256.256.248.256.607t-.256.615q-.248.256-.607.256t-.615-.256-.256-.615q0-.359.248-.607.256-.256.624-.256zm.709 4.093v6.289q0 .735.103.983.111.239.316.359.214.12.769.12v.308h-3.803v-.308q.573 0 .769-.111.197-.111.308-.367.12-.256.12-.983v-3.016q0-1.273-.077-1.649-.06-.273-.188-.376-.128-.111-.35-.111-.239 0-.581.128l-.12-.308 2.358-.957h.376z"/><path d="m368.443 72.66v2.572h1.829v.598h-1.829v5.076q0 .76.214 1.025.222.265.564.265.282 0 .547-.171.265-.179.41-.521h.333q-.299.837-.846 1.265-.547.419-1.128.419-.393 0-.769-.214-.376-.222-.555-.624-.179-.41-.179-1.256v-5.264h-1.239v-.282q.47-.188.957-.632.496-.453.88-1.068.197-.325.547-1.188h.265z"/><path d="m375.023 81.93q-1.205.931-1.512 1.077-.461.214-.983.214-.812 0-1.342-.555-.521-.555-.521-1.461 0-.573.256-.991.35-.581 1.213-1.094.872-.513 2.888-1.248v-.308q0-1.171-.376-1.606-.367-.436-1.077-.436-.538 0-.854.291-.325.291-.325.667l.017.496q0 .393-.205.607-.197.214-.521.214-.316 0-.521-.222-.197-.222-.197-.607 0-.735.752-1.35.752-.615 2.111-.615 1.042 0 1.709.35.504.265.743.829.154.367.154 1.504v2.658q0 1.119.043 1.376.043.248.137.333.103.086.231.086.137 0 .239-.06.179-.111.692-.624v.479q-.957 1.282-1.829 1.282-.419 0-.666-.291t-.256-.991zm0-.555v-2.982q-1.29.513-1.666.726-.675.376-.966.786-.291.41-.291.897 0 .615.367 1.025.367.402.846.402.649 0 1.709-.854z"/><path d="m380.613 70.91v10.382q0 .735.103.974.111.239.333.367.222.12.829.12v.308h-3.837v-.308q.538 0 .735-.111.197-.111.308-.367.111-.256.111-.983v-7.109q0-1.325-.06-1.623-.06-.308-.197-.419-.128-.111-.333-.111-.222 0-.564.137l-.145-.299 2.333-.957h.385z"/><path d="m280.263 100.56v-.316h.436q.735 0 1.042-.47.188-.282.188-1.265v-7.485q0-1.085-.239-1.359-.333-.376-.991-.376h-.436v-.316h4.717q2.598 0 3.948.59 1.359.59 2.179 1.965.829 1.376.829 3.179 0 2.418-1.47 4.042-1.649 1.812-5.024 1.812h-5.178zm3.307-.837q1.085.239 1.82.239 1.982 0 3.29-1.393t1.307-3.777q0-2.401-1.307-3.785t-3.358-1.384q-.769 0-1.752.248z"/><path d="m299.593 92.73v4.742q0 1.359.06 1.666.068.299.205.419.145.12.333.12.265 0 .598-.145l.12.299-2.341.966h-.385v-1.658q-1.008 1.094-1.538 1.376-.53.282-1.119.282-.658 0-1.145-.376-.479-.385-.666-.983-.188-.598-.188-1.692v-3.495q0-.555-.12-.769-.12-.214-.359-.325-.231-.12-.846-.111v-.316h2.743v5.238q0 1.094.376 1.435.385.342.923.342.367 0 .829-.231.47-.231 1.111-.88v-4.435q0-.667-.248-.897-.239-.239-1.008-.256v-.316h2.666z"/><path d="m306.583 99.68q-.573.598-1.119.863-.547.256-1.179.256-1.282 0-2.239-1.068-.957-1.077-.957-2.76 0-1.683 1.06-3.076 1.06-1.401 2.726-1.401 1.034 0 1.709.658v-1.444q0-1.342-.068-1.649-.06-.308-.197-.419-.137-.111-.342-.111-.222 0-.59.137l-.111-.299 2.333-.957h.385v9.049q0 1.376.06 1.683.068.299.205.419.145.12.333.12.231 0 .615-.145l.094.299-2.324.966h-.393v-1.119zm0-.598v-4.033q-.051-.581-.308-1.06-.256-.479-.684-.718-.419-.248-.82-.248-.752 0-1.342.675-.778.889-.778 2.598 0 1.726.752 2.649.752.914 1.675.914.778 0 1.504-.778z"/><path d="m313.203 92.5q1.777 0 2.854 1.35.914 1.154.914 2.649 0 1.051-.504 2.128t-1.393 1.623q-.88.547-1.965.547-1.769 0-2.811-1.41-.88-1.188-.88-2.666 0-1.077.53-2.136.538-1.068 1.41-1.572.872-.513 1.846-.513zm-.265.555q-.453 0-.914.273-.453.265-.735.94-.282.675-.282 1.735 0 1.709.675 2.948.684 1.239 1.794 1.239.829 0 1.367-.684t.538-2.35q0-2.085-.897-3.281-.607-.82-1.547-.82z"/><path d="m322.753 92.5v2.666h-.282q-.325-1.256-.837-1.709-.504-.453-1.29-.453-.598 0-.966.316t-.367.701q0 .479.273.82.265.35 1.077.743l1.248.607q1.735.846 1.735 2.23 0 1.068-.812 1.726-.803.649-1.803.649-.718 0-1.641-.256-.282-.086-.461-.086-.197 0-.308.222h-.282v-2.794h.282q.239 1.196.914 1.803t1.512.607q.59 0 .957-.342.376-.35.376-.837 0-.59-.419-.991-.41-.402-1.649-1.017-1.239-.615-1.623-1.111-.385-.487-.385-1.23 0-.966.658-1.615.666-.649 1.718-.649.461 0 1.119.197.436.128.581.128.137 0 .214-.06.077-.06.179-.265z"/><path d="m327.893 92.5q1.777 0 2.854 1.35.914 1.154.914 2.649 0 1.051-.504 2.128t-1.393 1.623q-.88.547-1.965.547-1.769 0-2.811-1.41-.88-1.188-.88-2.666 0-1.077.53-2.136.538-1.068 1.41-1.572.872-.513 1.846-.513zm-.265.555q-.453 0-.914.273-.453.265-.735.94-.282.675-.282 1.735 0 1.709.675 2.948.684 1.239 1.794 1.239.829 0 1.367-.684t.538-2.35q0-2.085-.897-3.281-.607-.82-1.547-.82z"/><path d="m266.643 22.763h9.22v.701h-9.22zm0 2.786h9.22v.701h-9.22z"/><path d="m266.643 40.26h9.22v.701h-9.22zm0 2.786h9.22v.701h-9.22z"/><path d="m266.643 57.76h9.22v.701h-9.22zm0 2.786h9.22v.701h-9.22z"/><path d="m266.643 75.26h9.22v.701h-9.22zm0 2.786h9.22v.701h-9.22z"/><path d="m266.643 92.76h9.22v.701h-9.22zm0 2.786h9.22v.701h-9.22z"/><path d="m28.337 125.05q0-1.082.472-1.604.478-.522 1.291-.522.84 0 1.313.522.478.516.478 1.604 0 1.082-.478 1.604-.472.522-1.285.522-.84 0-1.318-.516-.472-.522-.472-1.609zm1.203-.011q0 .786.181 1.055.137.198.379.198.247 0 .385-.198.176-.269.176-1.055 0-.786-.176-1.049-.137-.203-.385-.203-.242 0-.379.198-.181.269-.181 1.055zm1.736 6.383h-1.143l4.29-8.498h1.11zm2.494-2.115q0-1.082.472-1.604.478-.522 1.302-.522.829 0 1.302.522.478.522.478 1.604 0 1.088-.478 1.609-.472.522-1.285.522-.84 0-1.318-.522-.472-.522-.472-1.609zm1.203-.005q0 .786.181 1.049.137.203.379.203.247 0 .379-.198.181-.269.181-1.055 0-.786-.176-1.055-.137-.198-.385-.198t-.379.198q-.181.269-.181 1.055z"/><path d="m46.574 129.68v1.434h-5.411q.088-.813.527-1.538.439-.731 1.736-1.934 1.044-.972 1.28-1.318.319-.478.319-.945 0-.516-.28-.791-.275-.28-.764-.28-.483 0-.769.291t-.33.967l-1.538-.154q.137-1.274.862-1.829.725-.555 1.813-.555 1.192 0 1.873.643t.681 1.599q0 .544-.198 1.038-.192.489-.615 1.027-.28.357-1.011 1.027-.731.67-.928.89-.192.22-.313.428h3.065z"/><path d="m47.644 129.05 1.538-.159q.066.522.39.829.324.302.747.302.483 0 .818-.39.335-.396.335-1.187 0-.742-.335-1.11-.33-.374-.862-.374-.665 0-1.192.588l-1.252-.181.791-4.191h4.081v1.445h-2.911l-.242 1.368q.516-.258 1.055-.258 1.027 0 1.741.747.714.747.714 1.939 0 .994-.577 1.774-.786 1.066-2.181 1.066-1.115 0-1.818-.599-.703-.599-.84-1.609z"/><path d="m46.574 163.88v1.434h-5.411q.088-.813.527-1.538.439-.731 1.736-1.934 1.044-.972 1.28-1.318.319-.478.319-.945 0-.516-.28-.791-.275-.28-.764-.28-.483 0-.769.291-.286.291-.33.967l-1.538-.154q.137-1.274.862-1.829.725-.555 1.813-.555 1.192 0 1.873.643t.681 1.599q0 .544-.198 1.038-.192.489-.615 1.027-.28.357-1.011 1.027-.731.67-.928.89-.192.22-.313.428h3.065z"/><path d="m50.224 157.23q1.17 0 1.829.835.786.989.786 3.279 0 2.285-.791 3.285-.654.824-1.824.824-1.175 0-1.895-.901-.72-.906-.72-3.224 0-2.274.791-3.274.654-.824 1.824-.824zm0 1.28q-.28 0-.5.181-.22.176-.341.637-.159.599-.159 2.016t.143 1.95q.143.527.357.703.22.176.5.176t.5-.176q.22-.181.341-.643.159-.593.159-2.01t-.143-1.945q-.143-.533-.363-.709-.214-.181-.494-.181z"/><path d="m45.304 199.52h-1.544v-5.817q-.846.791-1.994 1.17v-1.401q.604-.198 1.313-.747.709-.555.972-1.291h1.252v8.086z"/><path d="m47.644 197.45 1.538-.159q.066.522.39.829.324.302.747.302.483 0 .818-.39.335-.396.335-1.187 0-.742-.335-1.11-.33-.374-.862-.374-.665 0-1.192.588l-1.252-.181.791-4.191h4.081v1.445h-2.911l-.242 1.368q.516-.258 1.055-.258 1.027 0 1.741.747.714.747.714 1.939 0 .994-.577 1.774-.786 1.066-2.181 1.066-1.115 0-1.818-.599-.703-.599-.84-1.609z"/><path d="m45.304 233.72h-1.544v-5.817q-.846.791-1.994 1.17v-1.401q.604-.198 1.313-.747.709-.555.972-1.291h1.252v8.086z"/><path d="m50.224 225.63q1.17 0 1.829.835.786.989.786 3.279 0 2.285-.791 3.285-.654.824-1.824.824-1.175 0-1.895-.901-.72-.906-.72-3.224 0-2.274.791-3.274.654-.824 1.824-.824zm0 1.28q-.28 0-.5.181-.22.176-.341.637-.159.599-.159 2.016t.143 1.95q.143.527.357.703.22.176.5.176t.5-.176q.22-.181.341-.643.159-.593.159-2.01t-.143-1.945q-.143-.533-.363-.709-.214-.181-.494-.181z"/><path d="m47.644 265.85 1.538-.159q.066.522.39.829.324.302.747.302.483 0 .818-.39.335-.396.335-1.187 0-.742-.335-1.11-.33-.374-.862-.374-.665 0-1.192.588l-1.252-.181.791-4.191h4.081v1.445h-2.911l-.242 1.368q.516-.258 1.055-.258 1.027 0 1.741.747.714.747.714 1.939 0 .994-.577 1.774-.786 1.066-2.181 1.066-1.115 0-1.818-.599-.703-.599-.84-1.609z"/><path d="m73.134 318.76v-6.263h1.23l2.563 4.183v-4.183h1.175v6.263h-1.269l-2.525-4.085v4.085h-1.175z"/><path d="m81.044 318.76-2.239-6.263h1.371l1.585 4.636 1.534-4.636h1.342l-2.243 6.263z"/><path d="m109.564 318.76v-6.263h2.029q1.154 0 1.504.094.538.141.901.615.363.47.363 1.218 0 .577-.209.97t-.534.62q-.32.222-.654.295-.453.09-1.312.09h-.825v2.363h-1.265zm1.265-5.204v1.777h.692q.748 0 1-.098t.393-.308q.145-.209.145-.487 0-.342-.201-.564-.201-.222-.508-.278-.226-.043-.91-.043h-.611z"/><path d="m115.414 312.49h2.504q.743 0 1.107.064.367.06.654.256.291.197.483.526.192.325.192.731 0 .44-.239.807-.235.367-.641.551.573.167.88.568t.308.944q0 .427-.201.833-.197.402-.543.645-.342.239-.846.295-.316.034-1.525.043h-2.132v-6.263zm1.265 1.042v1.448h.829q.739 0 .919-.021.325-.038.508-.222.188-.188.188-.491 0-.291-.162-.47-.158-.184-.474-.222-.188-.021-1.081-.021h-.726zm0 2.491v1.675h1.171q.684 0 .867-.038.282-.051.457-.248.179-.201.179-.534 0-.282-.137-.479t-.397-.286q-.256-.09-1.119-.09z"/><path d="m145.674 316.72 1.23-.12q.111.62.449.91.342.291.919.291.611 0 .919-.256.312-.261.312-.607 0-.222-.132-.376-.128-.158-.453-.273-.222-.077-1.013-.273-1.017-.252-1.427-.62-.577-.517-.577-1.26 0-.479.269-.893.273-.419.782-.637.513-.218 1.235-.218 1.179 0 1.773.517.598.517.628 1.38l-1.265.056q-.081-.483-.35-.692-.265-.214-.799-.214-.551 0-.863.226-.201.145-.201.389 0 .222.188.38.239.201 1.162.419.923.218 1.363.453.444.231.692.637.252.402.252.995 0 .538-.299 1.008t-.846.701q-.547.226-1.363.226-1.188 0-1.824-.547-.637-.551-.76-1.602z"/><path d="m151.804 318.76v-6.263h1.265v6.263z"/><path d="m178.494 318.76v-6.263h1.265v6.263z"/><path d="m180.974 318.76v-6.263h1.23l2.563 4.183v-4.183h1.175v6.263h-1.269l-2.525-4.085v4.085h-1.175z"/><path d="m209.124 318.76v-6.263h4.644v1.06h-3.38v1.389h3.144v1.055h-3.144v1.705h3.499v1.055h-4.764z"/><path d="m214.334 318.76 2.14-3.268-1.94-2.995h1.478l1.256 2.012 1.23-2.012h1.465l-1.948 3.042 2.14 3.221h-1.525l-1.389-2.166-1.393 2.166h-1.517z"/><path d="m250.404 318.76h-1.376l-.547-1.423h-2.504l-.517 1.423h-1.342l2.44-6.263h1.337l2.508 6.263zm-2.329-2.478-.863-2.324-.846 2.324z"/><path d="m251.104 318.76v-6.263h2.662q1.004 0 1.457.171.457.167.731.598t.273.987q0 .705-.414 1.166-.414.457-1.239.577.41.239.675.526.269.286.722 1.017l.765 1.222h-1.512l-.914-1.363q-.487-.731-.666-.919-.179-.192-.38-.261-.201-.073-.637-.073h-.256v2.615h-1.265zm1.265-3.615h.936q.91 0 1.137-.077.226-.077.355-.265.128-.188.128-.47 0-.316-.171-.508-.167-.197-.474-.248-.154-.021-.923-.021h-.987v1.589z"/><path d="m278.944 316.72 1.23-.12q.111.62.449.91.342.291.919.291.611 0 .919-.256.312-.261.312-.607 0-.222-.132-.376-.128-.158-.453-.273-.222-.077-1.013-.273-1.017-.252-1.427-.62-.577-.517-.577-1.26 0-.479.269-.893.273-.419.782-.637.513-.218 1.235-.218 1.179 0 1.773.517.598.517.628 1.38l-1.265.056q-.081-.483-.35-.692-.265-.214-.799-.214-.551 0-.863.226-.201.145-.201.389 0 .222.188.38.239.201 1.162.419.923.218 1.363.453.444.231.692.637.252.402.252.995 0 .538-.299 1.008t-.846.701q-.547.226-1.363.226-1.188 0-1.824-.547-.637-.551-.76-1.602z"/><path d="m284.854 315.66q0-.957.286-1.606.214-.479.581-.859.372-.38.812-.564.585-.248 1.35-.248 1.384 0 2.213.859.833.859.833 2.388 0 1.517-.825 2.376-.825.854-2.205.854-1.397 0-2.222-.85-.825-.854-.825-2.35zm1.303-.043q0 1.064.491 1.615.491.547 1.248.547.756 0 1.239-.543.487-.547.487-1.636 0-1.077-.474-1.606-.47-.53-1.252-.53t-1.26.538q-.479.534-.479 1.615z"/><path d="m316.184 318.76v-6.263h4.294v1.06h-3.029v1.482h2.615v1.06h-2.615v2.662h-1.265z"/><path d="m326.694 318.76h-1.376l-.547-1.423h-2.504l-.517 1.423h-1.342l2.44-6.263h1.337l2.508 6.263zm-2.329-2.478-.863-2.324-.846 2.324z"/><path d="m351.074 315.66q0-.957.286-1.606.214-.479.581-.859.372-.38.812-.564.585-.248 1.35-.248 1.384 0 2.213.859.833.859.833 2.388 0 1.517-.825 2.376-.825.854-2.205.854-1.397 0-2.222-.85-.825-.854-.825-2.35zm1.303-.043q0 1.064.491 1.615.491.547 1.248.547.756 0 1.239-.543.487-.547.487-1.636 0-1.077-.474-1.606-.47-.53-1.252-.53t-1.26.538q-.479.534-.479 1.615z"/><path d="m358.134 318.76v-6.263h2.029q1.154 0 1.504.094.538.141.901.615.363.47.363 1.218 0 .577-.209.97t-.534.62q-.32.222-.654.295-.453.09-1.312.09h-.825v2.363h-1.265zm1.265-5.204v1.777h.692q.748 0 1-.098t.393-.308q.145-.209.145-.487 0-.342-.201-.564-.201-.222-.508-.278-.226-.043-.91-.043h-.611z"/><path d="m388.084 312.49h2.311q.782 0 1.192.12.551.162.944.577t.598 1.017q.205.598.205 1.478 0 .773-.192 1.333-.235.684-.671 1.107-.329.32-.889.5-.419.132-1.119.132h-2.38v-6.263zm1.265 1.06v4.149h.944q.53 0 .765-.06.308-.077.508-.261.205-.184.333-.602.128-.423.128-1.149t-.128-1.115q-.128-.389-.359-.607t-.585-.295q-.265-.06-1.038-.06z"/><path d="m394.404 312.49h1.265v3.392q0 .807.047 1.047.081.385.385.62.308.231.837.231.538 0 .812-.218.273-.222.329-.543.056-.32.056-1.064v-3.465h1.265v3.29q0 1.128-.103 1.594-.103.466-.38.786-.273.32-.735.513-.461.188-1.205.188-.897 0-1.363-.205-.461-.209-.731-.538-.269-.333-.355-.696-.124-.538-.124-1.589v-3.341z"/></svg>