<svg height="33.048mm" viewBox="0 0 388.98646 117.09943" width="109.78mm" xmlns="http://www.w3.org/2000/svg"><g transform="translate(-21.822 -59.336)"><path d="m39.538 128.07h353.55" fill="none" stroke="#000" stroke-width="3"/><path d="m66.859 111.21q1.1475 0 1.9287.80566.78125.78125.78125 1.9043t-.80566 1.9287q-.78125.78125-1.9043.78125t-1.9287-.78125q-.78125-.80566-.78125-1.9287 0-1.1475.78125-1.9287.80566-.78125 1.9287-.78125z"/><path d="m141.86 111.21q1.1475 0 1.9287.80566.78125.78125.78125 1.9043t-.80566 1.9287q-.78125.78125-1.9043.78125t-1.9287-.78125q-.78125-.80566-.78125-1.9287 0-1.1475.78125-1.9287.80567-.78125 1.9287-.78125z"/><path d="m216.86 111.21q1.1475 0 1.9287.80566.78125.78125.78125 1.9043t-.80566 1.9287q-.78125.78125-1.9043.78125t-1.9287-.78125q-.78125-.80566-.78125-1.9287 0-1.1475.78125-1.9287.80567-.78125 1.9287-.78125z"/><path d="m291.86 111.21q1.1475 0 1.9287.80566.78125.78125.78125 1.9043t-.80566 1.9287q-.78125.78125-1.9043.78125t-1.9287-.78125q-.78125-.80566-.78125-1.9287 0-1.1475.78125-1.9287.80567-.78125 1.9287-.78125z"/><path d="m366.86 111.21q1.1475 0 1.9287.80566.78125.78125.78125 1.9043t-.80566 1.9287q-.78125.78125-1.9043.78125t-1.9287-.78125q-.78125-.80566-.78125-1.9287 0-1.1475.78125-1.9287.80567-.78125 1.9287-.78125z"/><path d="m191.12 152.84h-6.4087l-1.123 2.6123q-.41504.96436-.41504 1.4404 0 .37842.354.67139.36621.28076 1.5625.36621v.45166h-5.2124v-.45166q1.0376-.18311 1.3428-.47608.62256-.58593 1.3794-2.3804l5.8228-13.623h.42725l5.7617 13.77q.6958 1.6602 1.2573 2.1606.57373.48828 1.5869.54932v.45166h-6.5308v-.45166q.98877-.0488 1.3306-.32959.354-.28076.354-.6836 0-.53711-.48828-1.6968l-1.001-2.3804zm-.3418-.90333-2.8076-6.6894-2.8809 6.6894z"/><path d="m208.03 154.13q-.45166 2.2095-1.77 3.4058-1.3184 1.1841-2.9175 1.1841-1.9043 0-3.3203-1.5991t-1.416-4.3213q0-2.6367 1.5625-4.2847 1.5747-1.648 3.772-1.648 1.648 0 2.71.8789 1.062.8667 1.062 1.8066 0 .46387-.30517.75684-.29297.28076-.83008.28076-.72022 0-1.0864-.46387-.20752-.25634-.28076-.97656-.061-.72021-.48828-1.0986-.42725-.36621-1.1841-.36621-1.2207 0-1.9653.90332-.98877 1.1963-.98877 3.1616 0 2.002.97656 3.54.98877 1.5259 2.6611 1.5259 1.1963 0 2.1484-.81787.67139-.56153 1.3062-2.0386l.354.1709z"/><path d="m212.86 143.52v3.6743h2.6123v.85449h-2.6123v7.251q0 1.0864.30517 1.4648.31739.37842.80567.37842.40283 0 .78125-.24414.37842-.25635.58594-.74463h.47607q-.42725 1.1963-1.2085 1.8066-.78125.59814-1.6113.59814-.56153 0-1.0986-.30517-.53711-.31739-.79345-.89112-.25635-.58593-.25635-1.7944v-7.5195h-1.77v-.40283q.67139-.26856 1.3672-.90332.708-.64698 1.2573-1.5259.28076-.46387.78125-1.6968h.37842z"/><path d="m219.39 141.02q.5127 0 .8667.36621.36621.354.36621.8667 0 .51269-.36621.87891-.354.36621-.8667.36621-.51269 0-.87891-.36621-.36621-.36622-.36621-.87891 0-.5127.35401-.8667.36621-.36621.89111-.36621zm1.0132 5.8472v8.9844q0 1.0498.14649 1.4038.15869.3418.45166.5127.30517.17089 1.0986.17089v.43946h-5.4321v-.43946q.81787 0 1.0986-.15869.28076-.15869.43945-.5249.1709-.36621.1709-1.4038v-4.3091q0-1.8188-.10987-2.356-.0854-.39062-.26855-.53711-.18311-.15869-.50049-.15869-.3418 0-.83008.18311l-.1709-.43946 3.3691-1.3672h.53711z"/><path d="m226.73 143.52v3.6743h2.6123v.85449h-2.6123v7.251q0 1.0864.30517 1.4648.31739.37842.80567.37842.40283 0 .78125-.24414.37841-.25635.58593-.74463h.47608q-.42725 1.1963-1.2085 1.8066-.78125.59814-1.6113.59814-.56152 0-1.0986-.30517-.53711-.31739-.79346-.89112-.25634-.58593-.25634-1.7944v-7.5195h-1.77v-.40283q.67138-.26856 1.3672-.90332.70801-.64698 1.2573-1.5259.28076-.46387.78125-1.6968h.37842z"/><path d="m240.22 147.2v6.7749q0 1.9409.0855 2.3804.0976.42725.29296.59814.20752.1709.47608.1709.37842 0 .85449-.20752l.1709.42725-3.3447 1.3794h-.54931v-2.3682q-1.4404 1.5625-2.1973 1.9653-.75684.40283-1.5991.40283-.93994 0-1.6357-.53711-.6836-.54931-.95215-1.4038-.26856-.8545-.26856-2.417v-4.9927q0-.79346-.17089-1.0986-.1709-.30518-.5127-.46387-.32959-.1709-1.2085-.15869v-.45166h3.9185v7.4829q0 1.5625.53711 2.0508.54932.48828 1.3184.48828.5249 0 1.1841-.32959.67139-.32959 1.5869-1.2573v-6.3354q0-.95215-.35401-1.2817-.34179-.3418-1.4404-.36621v-.45166h3.8086z"/><path d="m250.82 157.12q-.81787.8545-1.5991 1.2329-.78125.36621-1.6846.36621-1.8311 0-3.1982-1.5259-1.3672-1.5381-1.3672-3.9429t1.5137-4.3945q1.5137-2.002 3.894-2.002 1.477 0 2.4414.93994v-2.063q0-1.9165-.0977-2.356-.0855-.43946-.28076-.59815-.19531-.15869-.48828-.15869-.31738 0-.84229.19531l-.15869-.42724 3.3325-1.3672h.54932v12.927q0 1.9653.0855 2.4048.0976.42725.29297.59814.20752.1709.47607.1709.32959 0 .87891-.20752l.13428.42725-3.3203 1.3794h-.56152v-1.5991zm0-.85449v-5.7617q-.0732-.83008-.43945-1.5137-.36621-.68359-.97657-1.0254-.59814-.354-1.1719-.354-1.0742 0-1.9165.96435-1.1108 1.2695-1.1108 3.7109 0 2.4658 1.0742 3.7842 1.0742 1.3062 2.3926 1.3062 1.1108 0 2.1484-1.1108z"/><path d="m62.976 88.442h-6.4087l-1.123 2.6123q-.41504.96436-.41504 1.4404 0 .37842.354.67139.36621.28076 1.5625.36621v.45166h-5.2124v-.45166q1.0376-.1831 1.3428-.47607.62256-.58594 1.3794-2.3804l5.8228-13.623h.42725l5.7617 13.77q.6958 1.6602 1.2573 2.1606.57373.48828 1.5869.54932v.45166h-6.5308v-.45166q.98877-.04883 1.3306-.32959.354-.28076.354-.68359 0-.53711-.48828-1.6968l-1.001-2.3804zm-.3418-.90332-2.8076-6.6895-2.8809 6.6895z"/><path d="m81.067 77.053v5.7251h-.45166q-.21973-1.6479-.79346-2.6245-.56152-.97656-1.6113-1.5503-1.0498-.57373-2.1729-.57373-1.2695 0-2.0996.78125-.83008.76904-.83008 1.7578 0 .75684.5249 1.3794.75684.91553 3.6011 2.4414 2.3193 1.2451 3.1616 1.9165.85449.65918 1.3062 1.5625.46387.90332.46387 1.8921 0 1.8799-1.4648 3.2471-1.4526 1.355-3.7476 1.355-.72022 0-1.355-.10986-.37842-.06104-1.5747-.43945-1.1841-.39062-1.5015-.39062-.30518 0-.48828.18311-.1709.1831-.25635.75684h-.45166v-5.6763h.45166q.31738 1.7822.85449 2.6733.53711.87891 1.6357 1.4648 1.1108.58594 2.4292.58594 1.5259 0 2.4048-.80566.89111-.80566.89111-1.9043 0-.61035-.3418-1.2329-.32959-.62256-1.0376-1.1597-.47607-.36621-2.6001-1.5503-2.124-1.1963-3.0273-1.9043-.89111-.70801-1.355-1.5625-.46387-.85449-.46387-1.8799 0-1.7822 1.3672-3.064 1.3672-1.2939 3.479-1.2939 1.3184 0 2.7954.64697.68359.30518.96436.30518.31738 0 .5127-.18311.20752-.19531.32959-.76904h.45166z"/><path d="m362.09 85.537q1.7212.36621 2.5757 1.1719 1.1841 1.123 1.1841 2.7466 0 1.2329-.78125 2.3682-.78125 1.123-2.1484 1.6479-1.355.5127-4.1504.5127h-7.8125v-.45166h.62256q1.0376 0 1.4893-.65918.28076-.42725.28076-1.8188v-10.693q0-1.5381-.354-1.9409-.47608-.53711-1.416-.53711h-.62256v-.45166h7.1533q2.002 0 3.2104.29297 1.8311.43945 2.7954 1.5625.96436 1.1108.96436 2.5635 0 1.2451-.75684 2.2339-.75683.97656-2.2339 1.4526zm-6.3965-.65918q.45166.08545 1.0254.13428.58594.03662 1.2817.03662 1.7822 0 2.6733-.37842.90332-.39062 1.3794-1.1841.47608-.79346.47608-1.7334 0-1.4526-1.1841-2.478t-3.4546-1.0254q-1.2207 0-2.1973.26856v6.3599zm0 7.9102q1.416.32959 2.7954.32959 2.2095 0 3.3691-.98877 1.1597-1.001 1.1597-2.4658 0-.96436-.5249-1.8555-.52491-.89111-1.709-1.4038-1.1841-.5127-2.9297-.5127-.75684 0-1.294.02441-.53711.02441-.8667.08545v6.7871z"/><path d="m378.7 77.053v5.7251h-.45166q-.21972-1.6479-.79345-2.6245-.56153-.97656-1.6113-1.5503-1.0498-.57373-2.1728-.57373-1.2695 0-2.0996.78125-.83008.76904-.83008 1.7578 0 .75684.5249 1.3794.75684.91553 3.6011 2.4414 2.3193 1.2451 3.1616 1.9165.85449.65918 1.3062 1.5625.46387.90332.46387 1.8921 0 1.8799-1.4648 3.2471-1.4526 1.355-3.7476 1.355-.72021 0-1.355-.10986-.37841-.06104-1.5747-.43945-1.1841-.39062-1.5015-.39062-.30517 0-.48828.18311-.1709.1831-.25635.75684h-.45166v-5.6763h.45166q.31739 1.7822.8545 2.6733.53711.87891 1.6357 1.4648 1.1108.58594 2.4292.58594 1.5259 0 2.4048-.80566.89112-.80566.89112-1.9043 0-.61035-.3418-1.2329-.32959-.62256-1.0376-1.1597-.47607-.36621-2.6001-1.5503-2.124-1.1963-3.0273-1.9043-.89111-.70801-1.355-1.5625-.46387-.85449-.46387-1.8799 0-1.7822 1.3672-3.064 1.3672-1.2939 3.479-1.2939 1.3184 0 2.7954.64697.6836.30518.96436.30518.31738 0 .51269-.18311.20752-.19531.32959-.76904h.45166z"/></g></svg>