<svg clip-rule="evenodd" fill-rule="evenodd" height="487.85" image-rendering="optimizeQuality" shape-rendering="geometricPrecision" text-rendering="geometricPrecision" viewBox="0 0 1700.5771 488.12872" width="1700.6" xmlns="http://www.w3.org/2000/svg"><path d="m633.299 30.15v.844q-1.853.297-2.805 1.05-1.364 1.118-2.419 3.423l-12.175 26.331h-.952l-13.075-26.674q-1.004-2.054-1.416-2.51-.643-.707-1.596-1.095-.927-.411-2.522-.525v-.844h14.259v.844q-2.419.205-3.14.73-.721.525-.721 1.346 0 1.141 1.184 3.559l8.88 18.14 8.236-17.912q1.21-2.647 1.21-3.674 0-.662-.746-1.255-.746-.616-2.522-.867l-.438-.068v-.844h10.759z"/><path d="m643.101 58.08q-3.629 2.487-4.556 2.875-1.39.57-2.96.57-2.445 0-4.041-1.483-1.57-1.483-1.57-3.902 0-1.529.772-2.647 1.055-1.552 3.655-2.921 2.625-1.369 8.699-3.331v-.821q0-3.126-1.133-4.29-1.107-1.164-3.243-1.164-1.621 0-2.574.776-.978.776-.978 1.78l.051 1.323q0 1.05-.618 1.62-.592.57-1.57.57-.952 0-1.57-.593-.592-.593-.592-1.62 0-1.962 2.265-3.605t6.357-1.643q3.14 0 5.148.936 1.519.707 2.239 2.213.463.981.463 4.016v7.096q0 2.989.129 3.674.129.662.412.89.309.228.695.228.412 0 .721-.16.54-.297 2.085-1.666v1.278q-2.883 3.423-5.508 3.423-1.261 0-2.008-.776-.746-.776-.772-2.647zm0-1.483v-7.963q-3.886 1.369-5.019 1.94-2.033 1.004-2.908 2.099-.875 1.095-.875 2.396 0 1.643 1.107 2.738 1.107 1.072 2.548 1.072 1.956 0 5.148-2.282z"/><path d="m661.217 28.64v27.723q0 1.962.309 2.601.335.639 1.004.981.669.319 2.497.319v.821h-11.556v-.821q1.621 0 2.213-.297t.927-.981q.335-.685.335-2.624v-18.984q0-3.537-.18-4.335-.18-.821-.592-1.118-.386-.297-1.004-.297-.669 0-1.699.365l-.438-.799 7.026-2.556h1.158z"/><path d="m679.265 39.57q5.353 0 8.596 3.605 2.754 3.08 2.754 7.073 0 2.807-1.519 5.681t-4.195 4.335q-2.651 1.46-5.92 1.46-5.328 0-8.468-3.765-2.651-3.172-2.651-7.119 0-2.875 1.596-5.704 1.621-2.852 4.247-4.198 2.625-1.369 5.559-1.369zm-.798 1.483q-1.364 0-2.754.73-1.364.707-2.213 2.51t-.849 4.632q0 4.564 2.033 7.872 2.059 3.308 5.405 3.308 2.497 0 4.118-1.825t1.621-6.275q0-5.567-2.702-8.762-1.827-2.191-4.659-2.191z"/><path d="m700.99 39.57v4.7q2.96-4.7 6.074-4.7 1.416 0 2.342.776.927.753.927 1.757 0 .89-.669 1.506t-1.596.616q-.901 0-2.033-.776-1.107-.799-1.647-.799-.463 0-1.004.456-1.158.936-2.394 3.08v10.017q0 1.734.489 2.624.335.616 1.184 1.027.849.411 2.445.411v.821h-12.071v-.821q1.802 0 2.677-.502.643-.365.901-1.164.129-.388.129-2.213v-8.1q0-3.651-.18-4.335-.154-.707-.618-1.027-.438-.319-1.107-.319-.798 0-1.802.342l-.257-.821 7.129-2.556z"/><path d="m715.654 48.06q-.026 4.655 2.548 7.302 2.574 2.647 6.048 2.647 2.316 0 4.015-1.118 1.724-1.141 2.883-3.879l.798.456q-.54 3.126-3.14 5.704-2.6 2.556-6.512 2.556-4.247 0-7.284-2.921-3.011-2.943-3.011-7.895 0-5.362 3.089-8.351 3.114-3.012 7.799-3.012 3.964 0 6.512 2.327 2.548 2.305 2.548 6.184h-16.292zm0-1.323h10.913q-.129-2.008-.54-2.829-.643-1.278-1.93-2.008-1.261-.73-2.651-.73-2.136 0-3.835 1.483-1.673 1.46-1.956 4.084z"/><path d="m750.295 39.57v7.119h-.849q-.978-3.354-2.522-4.564-1.519-1.209-3.886-1.209-1.802 0-2.908.844-1.107.844-1.107 1.871 0 1.278.824 2.191.798.936 3.243 1.985l3.758 1.62q5.225 2.259 5.225 5.955 0 2.852-2.445 4.609-2.419 1.734-5.431 1.734-2.162 0-4.942-.685-.849-.228-1.39-.228-.592 0-.927.593h-.849v-7.461h.849q.721 3.194 2.754 4.814t4.556 1.62q1.776 0 2.883-.913 1.132-.936 1.132-2.236 0-1.574-1.261-2.647-1.235-1.072-4.967-2.715-3.732-1.643-4.89-2.966-1.158-1.301-1.158-3.286 0-2.578 1.982-4.313 2.008-1.734 5.173-1.734 1.39 0 3.372.525 1.313.342 1.75.342.412 0 .644-.16.232-.16.54-.707h.849z"/><path d="m798.799 29.44.798 10.519h-.798q-1.596-4.723-4.556-6.8t-7.104-2.076q-3.475 0-6.28 1.574-2.805 1.552-4.427 4.974-1.596 3.423-1.596 8.511 0 4.198 1.519 7.279 1.519 3.08 4.556 4.723 3.063 1.643 6.975 1.643 3.397 0 5.997-1.278 2.6-1.301 5.714-5.134l.798.456q-2.625 4.13-6.126 6.047t-8.313 1.917q-8.674 0-13.436-5.704-3.552-4.244-3.552-9.994 0-4.632 2.342-8.511t6.434-6.001q4.118-2.145 8.983-2.145 3.784 0 7.464 1.643 1.081.502 1.544.502.695 0 1.21-.434.669-.616.952-1.711h.901z"/><path d="m1029.099 30.15v.844q-1.853.297-2.805 1.05-1.364 1.118-2.419 3.423l-12.175 26.331h-.952l-13.075-26.674q-1.004-2.054-1.416-2.51-.643-.707-1.596-1.095-.927-.411-2.522-.525v-.844h14.259v.844q-2.419.205-3.14.73-.721.525-.721 1.346 0 1.141 1.184 3.559l8.88 18.14 8.236-17.912q1.21-2.647 1.21-3.674 0-.662-.746-1.255-.746-.616-2.522-.867l-.438-.068v-.844h10.759z"/><path d="m1038.901 58.08q-3.629 2.487-4.556 2.875-1.39.57-2.96.57-2.445 0-4.041-1.483-1.57-1.483-1.57-3.902 0-1.529.772-2.647 1.055-1.552 3.655-2.921 2.625-1.369 8.699-3.331v-.821q0-3.126-1.133-4.29-1.107-1.164-3.243-1.164-1.621 0-2.574.776-.978.776-.978 1.78l.051 1.323q0 1.05-.618 1.62-.592.57-1.57.57-.952 0-1.57-.593-.592-.593-.592-1.62 0-1.962 2.265-3.605t6.357-1.643q3.14 0 5.148.936 1.519.707 2.239 2.213.463.981.463 4.016v7.096q0 2.989.129 3.674.129.662.412.89.309.228.695.228.412 0 .721-.16.54-.297 2.085-1.666v1.278q-2.883 3.423-5.508 3.423-1.261 0-2.008-.776-.746-.776-.772-2.647zm0-1.483v-7.963q-3.886 1.369-5.019 1.94-2.033 1.004-2.908 2.099-.875 1.095-.875 2.396 0 1.643 1.107 2.738 1.107 1.072 2.548 1.072 1.956 0 5.148-2.282z"/><path d="m1057.017 28.64v27.723q0 1.962.309 2.601.335.639 1.004.981.669.319 2.497.319v.821h-11.556v-.821q1.621 0 2.213-.297t.927-.981q.335-.685.335-2.624v-18.984q0-3.537-.18-4.335-.18-.821-.592-1.118-.386-.297-1.004-.297-.669 0-1.699.365l-.438-.799 7.026-2.556h1.158z"/><path d="m1075.065 39.57q5.353 0 8.596 3.605 2.754 3.08 2.754 7.073 0 2.807-1.519 5.681t-4.195 4.335q-2.651 1.46-5.92 1.46-5.328 0-8.468-3.765-2.651-3.172-2.651-7.119 0-2.875 1.596-5.704 1.621-2.852 4.247-4.198 2.625-1.369 5.559-1.369zm-.798 1.483q-1.364 0-2.754.73-1.364.707-2.213 2.51t-.849 4.632q0 4.564 2.033 7.872 2.059 3.308 5.405 3.308 2.497 0 4.118-1.825t1.621-6.275q0-5.567-2.702-8.762-1.827-2.191-4.659-2.191z"/><path d="m1096.79 39.57v4.7q2.96-4.7 6.074-4.7 1.416 0 2.342.776.927.753.927 1.757 0 .89-.669 1.506t-1.596.616q-.901 0-2.033-.776-1.107-.799-1.647-.799-.463 0-1.004.456-1.158.936-2.394 3.08v10.017q0 1.734.489 2.624.335.616 1.184 1.027.849.411 2.445.411v.821h-12.071v-.821q1.802 0 2.677-.502.643-.365.901-1.164.129-.388.129-2.213v-8.1q0-3.651-.18-4.335-.154-.707-.618-1.027-.438-.319-1.107-.319-.798 0-1.802.342l-.257-.821 7.129-2.556z"/><path d="m1111.454 48.06q-.026 4.655 2.548 7.302 2.574 2.647 6.048 2.647 2.316 0 4.015-1.118 1.724-1.141 2.883-3.879l.798.456q-.54 3.126-3.14 5.704-2.6 2.556-6.512 2.556-4.247 0-7.284-2.921-3.011-2.943-3.011-7.895 0-5.362 3.089-8.351 3.114-3.012 7.799-3.012 3.964 0 6.512 2.327 2.548 2.305 2.548 6.184h-16.292zm0-1.323h10.913q-.129-2.008-.54-2.829-.643-1.278-1.93-2.008-1.261-.73-2.651-.73-2.136 0-3.835 1.483-1.673 1.46-1.956 4.084z"/><path d="m1146.095 39.57v7.119h-.849q-.978-3.354-2.522-4.564-1.519-1.209-3.886-1.209-1.802 0-2.908.844-1.107.844-1.107 1.871 0 1.278.824 2.191.798.936 3.243 1.985l3.758 1.62q5.225 2.259 5.225 5.955 0 2.852-2.445 4.609-2.419 1.734-5.431 1.734-2.162 0-4.942-.685-.849-.228-1.39-.228-.592 0-.927.593h-.849v-7.461h.849q.721 3.194 2.754 4.814t4.556 1.62q1.776 0 2.883-.913 1.132-.936 1.132-2.236 0-1.574-1.261-2.647-1.235-1.072-4.967-2.715-3.732-1.643-4.89-2.966-1.158-1.301-1.158-3.286 0-2.578 1.982-4.313 2.008-1.734 5.173-1.734 1.39 0 3.372.525 1.313.342 1.75.342.412 0 .644-.16.232-.16.54-.707h.849z"/><path d="m1199.337 30.15v.844q-1.853.297-2.805 1.05-1.364 1.118-2.419 3.423l-12.175 26.331h-.952l-13.075-26.674q-1.004-2.054-1.416-2.51-.643-.707-1.596-1.095-.927-.411-2.522-.525v-.844h14.259v.844q-2.419.205-3.14.73t-.721 1.346q0 1.141 1.184 3.559l8.88 18.14 8.236-17.912q1.21-2.647 1.21-3.674 0-.662-.746-1.255-.746-.616-2.522-.867l-.438-.068v-.844h10.759z"/><path d="m1426.799 30.15v.844q-1.853.297-2.805 1.05-1.364 1.118-2.419 3.423l-12.175 26.331h-.952l-13.075-26.674q-1.004-2.054-1.416-2.51-.643-.707-1.596-1.095-.927-.411-2.522-.525v-.844h14.259v.844q-2.419.205-3.14.73-.721.525-.721 1.346 0 1.141 1.184 3.559l8.88 18.14 8.236-17.912q1.21-2.647 1.21-3.674 0-.662-.746-1.255-.746-.616-2.522-.867l-.438-.068v-.844h10.759z"/><path d="m1436.601 58.08q-3.629 2.487-4.556 2.875-1.39.57-2.96.57-2.445 0-4.041-1.483-1.57-1.483-1.57-3.902 0-1.529.772-2.647 1.055-1.552 3.655-2.921 2.625-1.369 8.699-3.331v-.821q0-3.126-1.133-4.29-1.107-1.164-3.243-1.164-1.621 0-2.574.776-.978.776-.978 1.78l.051 1.323q0 1.05-.618 1.62-.592.57-1.57.57-.952 0-1.57-.593-.592-.593-.592-1.62 0-1.962 2.265-3.605t6.357-1.643q3.14 0 5.148.936 1.519.707 2.239 2.213.463.981.463 4.016v7.096q0 2.989.129 3.674.129.662.412.89.309.228.695.228.412 0 .721-.16.54-.297 2.085-1.666v1.278q-2.883 3.423-5.508 3.423-1.261 0-2.008-.776-.746-.776-.772-2.647zm0-1.483v-7.963q-3.886 1.369-5.019 1.94-2.033 1.004-2.908 2.099-.875 1.095-.875 2.396 0 1.643 1.107 2.738 1.107 1.072 2.548 1.072 1.956 0 5.148-2.282z"/><path d="m1454.717 28.64v27.723q0 1.962.309 2.601.335.639 1.004.981.669.319 2.497.319v.821h-11.556v-.821q1.621 0 2.213-.297t.927-.981q.335-.685.335-2.624v-18.984q0-3.537-.18-4.335-.18-.821-.592-1.118-.386-.297-1.004-.297-.669 0-1.699.365l-.438-.799 7.026-2.556h1.158z"/><path d="m1472.765 39.57q5.353 0 8.596 3.605 2.754 3.08 2.754 7.073 0 2.807-1.519 5.681t-4.195 4.335q-2.651 1.46-5.92 1.46-5.328 0-8.468-3.765-2.651-3.172-2.651-7.119 0-2.875 1.596-5.704 1.621-2.852 4.247-4.198 2.625-1.369 5.559-1.369zm-.798 1.483q-1.364 0-2.754.73-1.364.707-2.213 2.51t-.849 4.632q0 4.564 2.033 7.872 2.059 3.308 5.405 3.308 2.497 0 4.118-1.825t1.621-6.275q0-5.567-2.702-8.762-1.827-2.191-4.659-2.191z"/><path d="m1494.49 39.57v4.7q2.96-4.7 6.074-4.7 1.416 0 2.342.776.927.753.927 1.757 0 .89-.669 1.506t-1.596.616q-.901 0-2.033-.776-1.107-.799-1.647-.799-.463 0-1.004.456-1.158.936-2.394 3.08v10.017q0 1.734.489 2.624.335.616 1.184 1.027.849.411 2.445.411v.821h-12.071v-.821q1.802 0 2.677-.502.643-.365.901-1.164.129-.388.129-2.213v-8.1q0-3.651-.18-4.335-.154-.707-.618-1.027-.438-.319-1.107-.319-.798 0-1.802.342l-.257-.821 7.129-2.556z"/><path d="m1509.154 48.06q-.026 4.655 2.548 7.302 2.574 2.647 6.048 2.647 2.316 0 4.015-1.118 1.724-1.141 2.883-3.879l.798.456q-.54 3.126-3.14 5.704-2.6 2.556-6.512 2.556-4.247 0-7.284-2.921-3.011-2.943-3.011-7.895 0-5.362 3.089-8.351 3.114-3.012 7.799-3.012 3.964 0 6.512 2.327 2.548 2.305 2.548 6.184h-16.292zm0-1.323h10.913q-.129-2.008-.54-2.829-.643-1.278-1.93-2.008-1.261-.73-2.651-.73-2.136 0-3.835 1.483-1.673 1.46-1.956 4.084z"/><path d="m1543.795 39.57v7.119h-.849q-.978-3.354-2.522-4.564-1.519-1.209-3.886-1.209-1.802 0-2.908.844-1.107.844-1.107 1.871 0 1.278.824 2.191.798.936 3.243 1.985l3.758 1.62q5.225 2.259 5.225 5.955 0 2.852-2.445 4.609-2.419 1.734-5.431 1.734-2.162 0-4.942-.685-.849-.228-1.39-.228-.592 0-.927.593h-.849v-7.461h.849q.721 3.194 2.754 4.814t4.556 1.62q1.776 0 2.883-.913 1.132-.936 1.132-2.236 0-1.574-1.261-2.647-1.235-1.072-4.967-2.715-3.732-1.643-4.89-2.966-1.158-1.301-1.158-3.286 0-2.578 1.982-4.313 2.008-1.734 5.173-1.734 1.39 0 3.372.525 1.313.342 1.75.342.412 0 .644-.16.232-.16.54-.707h.849z"/><path d="m1581.809 50.73h-13.512l-2.368 4.883q-.875 1.803-.875 2.692 0 .707.747 1.255.772.525 3.294.685v.844h-10.99v-.844q2.188-.342 2.831-.89 1.313-1.095 2.908-4.449l12.277-25.464h.901l12.149 25.738q1.467 3.103 2.651 4.039 1.21.913 3.346 1.027v.844h-13.769v-.844q2.085-.091 2.805-.616.746-.525.746-1.278 0-1.004-1.03-3.172l-2.11-4.449zm-.721-1.688-5.92-12.504-6.074 12.504z"/><path d="m4.5 10.95h498.36v-5.94h-498.36z"/><path d="m502.86 10.95h6.71v-5.94h-6.71z"/><path d="m509.57 10.95h391.02v-5.94h-391.02z"/><path d="m900.59 10.95h6.71v-5.94h-6.71z"/><path d="m907.3 10.95h391.03v-5.94h-391.03z"/><path d="m1298.3 10.95h6.7v-5.94h-6.7z"/><path d="m1305 10.95h391.03v-5.94h-391.03z"/><path d="m52.273 94.71.386 7.256h-.978q-.283-1.917-.772-2.738-.798-1.323-2.136-1.94-1.313-.639-3.475-.639h-4.916v23.639q0 2.852.695 3.559.978.958 3.011.958h1.21v.844h-14.799v-.844h1.235q2.213 0 3.14-1.187.566-.73.566-3.331v-23.639h-4.195q-2.445 0-3.475.319-1.338.434-2.291 1.666-.952 1.232-1.133 3.331h-.978l.412-7.256h28.492z"/><path d="m84.32 117.09.849.16-2.986 8.397h-27.025v-.844h1.313q2.213 0 3.166-1.278.54-.73.54-3.377v-19.965q0-2.898-.721-3.628-1.004-1.004-2.986-1.004h-1.313v-.844h15.803v.844q-2.78-.023-3.912.456-1.107.479-1.519 1.209-.412.73-.412 3.491v19.44q0 1.894.412 2.601.309.479.952.707.643.228 4.015.228h2.548q4.015 0 5.637-.525t2.96-1.848q1.338-1.346 2.677-4.221z"/><path d="m121.95 125.65h-9.317l-11.814-14.466q-1.313.046-2.136.046h-.721l-.798-.046v8.99q0 2.921.721 3.628.978 1.004 2.934 1.004h1.364v.844h-14.954v-.844h1.313q2.213 0 3.166-1.278.541-.707.541-3.354v-19.988q0-2.921-.721-3.628-1.004-1.004-2.986-1.004h-1.313v-.844h12.715q5.559 0 8.185.73 2.651.707 4.478 2.647 1.853 1.917 1.853 4.586 0 2.852-2.11 4.951-2.085 2.099-6.486 2.966l7.207 8.876q2.471 3.058 4.247 4.061t4.633 1.278v.844zm-24.786-15.904q.489 0 .849.023h.592q4.993 0 7.516-1.917 2.548-1.917 2.548-4.883 0-2.898-2.059-4.7-2.033-1.825-5.405-1.825-1.493 0-4.041.434v12.869z"/><path d="m674.853 97.74 8.494-3.674h.849v26.126q0 2.601.232 3.24.257.639 1.03.981t3.14.388v.844h-13.127v-.844q2.471-.046 3.192-.365.721-.342 1.004-.89.283-.57.283-3.354v-16.702q0-3.377-.257-4.335-.18-.73-.669-1.072-.463-.342-1.133-.342-.952 0-2.651.707l-.386-.707z"/><path d="m709.799 93.2-12.637 33.085h-2.059l12.637-33.085z"/><path d="m712.326 100.6q1.493-3.126 3.758-4.814 2.291-1.711 5.688-1.711 4.195 0 6.434 2.419 1.699 1.803 1.699 3.856 0 3.377-4.787 6.982 3.217 1.118 4.864 3.194 1.647 2.076 1.647 4.883 0 4.016-2.883 6.959-3.758 3.833-10.887 3.833-3.526 0-4.813-.776-1.261-.776-1.261-1.666 0-.662.592-1.164.618-.502 1.467-.502.643 0 1.313.183.438.114 1.982.844 1.544.707 2.136.844.952.251 2.033.251 2.625 0 4.556-1.803 1.956-1.803 1.956-4.267 0-1.803-.901-3.514-.669-1.278-1.467-1.94-1.107-.913-3.037-1.643-1.93-.753-3.938-.753h-.824v-.685q2.033-.228 4.067-1.301 2.059-1.072 2.986-2.578.927-1.506.927-3.308 0-2.35-1.673-3.788-1.647-1.46-4.118-1.46-3.989 0-6.666 3.788l-.849-.365z"/><path d="m1072.553 97.74 8.494-3.674h.849v26.126q0 2.601.232 3.24.257.639 1.03.981t3.14.388v.844h-13.127v-.844q2.471-.046 3.192-.365.721-.342 1.004-.89.283-.57.283-3.354v-16.702q0-3.377-.257-4.335-.18-.73-.669-1.072-.463-.342-1.133-.342-.952 0-2.651.707l-.386-.707z"/><path d="m1107.499 93.2-12.637 33.085h-2.059l12.637-33.085z"/><path d="m1131.514 119.69-2.445 5.955h-20.591v-.844q9.085-7.347 12.792-12.002 3.706-4.655 3.706-8.511 0-2.943-2.033-4.837-2.033-1.894-4.864-1.894-2.574 0-4.633 1.346-2.033 1.323-3.011 3.902h-.952q.643-4.221 3.294-6.48 2.677-2.259 6.666-2.259 4.247 0 7.078 2.419 2.857 2.419 2.857 5.704 0 2.35-1.235 4.7-1.905 3.696-6.177 7.826-6.409 6.206-8.005 7.484h9.111q2.78 0 3.886-.183 1.133-.183 2.033-.73.901-.57 1.57-1.597h.952z"/><path d="m1488.345 119.69-2.445 5.955h-20.591v-.844q9.085-7.347 12.792-12.002 3.706-4.655 3.706-8.511 0-2.943-2.033-4.837-2.033-1.894-4.864-1.894-2.574 0-4.633 1.346-2.033 1.323-3.011 3.902h-.952q.643-4.221 3.294-6.48 2.677-2.259 6.666-2.259 4.247 0 7.078 2.419 2.857 2.419 2.857 5.704 0 2.35-1.235 4.7-1.905 3.696-6.177 7.826-6.409 6.206-8.005 7.484h9.111q2.78 0 3.886-.183 1.133-.183 2.033-.73.901-.57 1.57-1.597h.952z"/><path d="m1505.299 93.2-12.637 33.085h-2.059l12.637-33.085z"/><path d="m1507.826 100.6q1.493-3.126 3.758-4.814 2.291-1.711 5.688-1.711 4.195 0 6.434 2.419 1.699 1.803 1.699 3.856 0 3.377-4.787 6.982 3.217 1.118 4.864 3.194 1.647 2.076 1.647 4.883 0 4.016-2.883 6.959-3.758 3.833-10.887 3.833-3.526 0-4.813-.776-1.261-.776-1.261-1.666 0-.662.592-1.164.618-.502 1.467-.502.643 0 1.313.183.438.114 1.982.844 1.544.707 2.136.844.952.251 2.033.251 2.625 0 4.556-1.803 1.956-1.803 1.956-4.267 0-1.803-.901-3.514-.669-1.278-1.467-1.94-1.107-.913-3.037-1.643-1.93-.753-3.938-.753h-.824v-.685q2.033-.228 4.067-1.301 2.059-1.072 2.986-2.578.927-1.506.927-3.308 0-2.35-1.673-3.788-1.647-1.46-4.118-1.46-3.989 0-6.666 3.788l-.849-.365z"/><path d="m52.273 160.13.386 7.256h-.978q-.283-1.917-.772-2.738-.798-1.323-2.136-1.94-1.313-.639-3.475-.639h-4.916v23.639q0 2.852.695 3.559.978.958 3.011.958h1.21v.844h-14.799v-.844h1.235q2.213 0 3.14-1.187.566-.73.566-3.331v-23.639h-4.195q-2.445 0-3.475.319-1.338.434-2.291 1.666-.952 1.232-1.133 3.331h-.978l.412-7.256h28.492z"/><path d="m85.831 159.42.798 10.519h-.798q-1.596-4.723-4.556-6.8t-7.104-2.076q-3.475 0-6.28 1.574-2.805 1.552-4.427 4.974-1.596 3.423-1.596 8.511 0 4.198 1.519 7.279 1.519 3.08 4.556 4.723 3.063 1.643 6.975 1.643 3.397 0 5.997-1.278 2.6-1.301 5.714-5.134l.798.456q-2.625 4.13-6.126 6.047-3.5 1.917-8.313 1.917-8.674 0-13.436-5.704-3.552-4.244-3.552-9.994 0-4.632 2.342-8.511t6.435-6.001q4.118-2.145 8.983-2.145 3.784 0 7.464 1.643 1.081.502 1.544.502.695 0 1.21-.434.669-.616.952-1.711z"/><path d="m124.928 191.07h-9.317l-11.814-14.466q-1.313.046-2.136.046h-.721l-.798-.046v8.99q0 2.921.721 3.628.978 1.004 2.934 1.004h1.364v.844h-14.954v-.844h1.313q2.213 0 3.166-1.278.541-.707.541-3.354v-19.988q0-2.921-.721-3.628-1.004-1.004-2.986-1.004h-1.313v-.844h12.715q5.559 0 8.185.73 2.651.707 4.478 2.647 1.853 1.917 1.853 4.586 0 2.852-2.11 4.951-2.085 2.099-6.486 2.966l7.207 8.876q2.471 3.058 4.247 4.061t4.633 1.278v.844zm-24.786-15.904q.489 0 .849.023h.592q4.993 0 7.516-1.917 2.548-1.917 2.548-4.883 0-2.898-2.059-4.7-2.033-1.825-5.405-1.825-1.493 0-4.041.434v12.869z"/><path d="m692.845 185.11-2.445 5.955h-20.591v-.844q9.085-7.347 12.792-12.002 3.706-4.655 3.706-8.511 0-2.943-2.033-4.837-2.033-1.894-4.864-1.894-2.574 0-4.633 1.346-2.033 1.323-3.011 3.902h-.952q.643-4.221 3.294-6.48 2.677-2.259 6.666-2.259 4.247 0 7.078 2.419 2.857 2.419 2.857 5.704 0 2.35-1.235 4.7-1.905 3.696-6.177 7.826-6.409 6.206-8.005 7.484h9.111q2.78 0 3.886-.183 1.133-.183 2.033-.73.901-.57 1.57-1.597h.952z"/><path d="m709.799 158.62-12.637 33.085h-2.059l12.637-33.085z"/><path d="m712.326 166.02q1.493-3.126 3.758-4.814 2.291-1.711 5.688-1.711 4.195 0 6.434 2.419 1.699 1.803 1.699 3.856 0 3.377-4.787 6.982 3.217 1.118 4.864 3.194 1.647 2.076 1.647 4.883 0 4.016-2.883 6.959-3.758 3.833-10.887 3.833-3.526 0-4.813-.776-1.261-.776-1.261-1.666 0-.662.592-1.164.618-.502 1.467-.502.643 0 1.313.183.438.114 1.982.844 1.544.707 2.136.844.952.251 2.033.251 2.625 0 4.556-1.803 1.956-1.803 1.956-4.267 0-1.803-.901-3.514-.669-1.278-1.467-1.94-1.107-.913-3.037-1.643-1.93-.753-3.938-.753h-.824v-.685q2.033-.228 4.067-1.301 2.059-1.072 2.986-2.578.927-1.506.927-3.308 0-2.35-1.673-3.788-1.647-1.46-4.118-1.46-3.989 0-6.666 3.788l-.849-.365z"/><path d="m1072.553 163.16 8.494-3.674h.849v26.126q0 2.601.232 3.24.257.639 1.03.981t3.14.388v.844h-13.127v-.844q2.471-.046 3.192-.365.721-.342 1.004-.89.283-.57.283-3.354v-16.702q0-3.377-.257-4.335-.18-.73-.669-1.072-.463-.342-1.133-.342-.952 0-2.651.707l-.386-.707z"/><path d="m1107.499 158.62-12.637 33.085h-2.059l12.637-33.085z"/><path d="m1131.514 185.11-2.445 5.955h-20.591v-.844q9.085-7.347 12.792-12.002 3.706-4.655 3.706-8.511 0-2.943-2.033-4.837-2.033-1.894-4.864-1.894-2.574 0-4.633 1.346-2.033 1.323-3.011 3.902h-.952q.643-4.221 3.294-6.48 2.677-2.259 6.666-2.259 4.247 0 7.078 2.419 2.857 2.419 2.857 5.704 0 2.35-1.235 4.7-1.905 3.696-6.177 7.826-6.409 6.206-8.005 7.484h9.111q2.78 0 3.886-.183 1.133-.183 2.033-.73.901-.57 1.57-1.597h.952z"/><path d="m1470.353 163.16 8.494-3.674h.849v26.126q0 2.601.232 3.24.257.639 1.03.981t3.14.388v.844h-13.127v-.844q2.471-.046 3.192-.365.721-.342 1.004-.89.283-.57.283-3.354v-16.702q0-3.377-.257-4.335-.18-.73-.669-1.072-.463-.342-1.133-.342-.952 0-2.651.707l-.386-.707z"/><path d="m1505.299 158.62-12.637 33.085h-2.059l12.637-33.085z"/><path d="m1507.826 166.02q1.493-3.126 3.758-4.814 2.291-1.711 5.688-1.711 4.195 0 6.434 2.419 1.699 1.803 1.699 3.856 0 3.377-4.787 6.982 3.217 1.118 4.864 3.194 1.647 2.076 1.647 4.883 0 4.016-2.883 6.959-3.758 3.833-10.887 3.833-3.526 0-4.813-.776-1.261-.776-1.261-1.666 0-.662.592-1.164.618-.502 1.467-.502.643 0 1.313.183.438.114 1.982.844 1.544.707 2.136.844.952.251 2.033.251 2.625 0 4.556-1.803 1.956-1.803 1.956-4.267 0-1.803-.901-3.514-.669-1.278-1.467-1.94-1.107-.913-3.037-1.643-1.93-.753-3.938-.753h-.824v-.685q2.033-.228 4.067-1.301 2.059-1.072 2.986-2.578.927-1.506.927-3.308 0-2.35-1.673-3.788-1.647-1.46-4.118-1.46-3.989 0-6.666 3.788l-.849-.365z"/><path d="m671.345 240.79q1.493-3.126 3.758-4.814 2.291-1.711 5.688-1.711 4.195 0 6.434 2.419 1.699 1.803 1.699 3.856 0 3.377-4.787 6.982 3.217 1.118 4.864 3.194 1.647 2.076 1.647 4.883 0 4.016-2.883 6.959-3.758 3.833-10.887 3.833-3.526 0-4.813-.776-1.261-.776-1.261-1.666 0-.662.592-1.164.618-.502 1.467-.502.643 0 1.313.183.438.114 1.982.844 1.544.707 2.136.844.952.251 2.033.251 2.625 0 4.556-1.803 1.956-1.803 1.956-4.267 0-1.803-.901-3.514-.669-1.278-1.467-1.94-1.107-.913-3.037-1.643-1.93-.753-3.938-.753h-.824v-.685q2.033-.228 4.067-1.301 2.059-1.072 2.986-2.578.927-1.506.927-3.308 0-2.35-1.673-3.788-1.647-1.46-4.118-1.46-3.989 0-6.666 3.788l-.849-.365z"/><path d="m709.799 233.39-12.637 33.085h-2.059l12.637-33.085z"/><path d="m712.326 240.79q1.493-3.126 3.758-4.814 2.291-1.711 5.688-1.711 4.195 0 6.434 2.419 1.699 1.803 1.699 3.856 0 3.377-4.787 6.982 3.217 1.118 4.864 3.194 1.647 2.076 1.647 4.883 0 4.016-2.883 6.959-3.758 3.833-10.887 3.833-3.526 0-4.813-.776-1.261-.776-1.261-1.666 0-.662.592-1.164.618-.502 1.467-.502.643 0 1.313.183.438.114 1.982.844 1.544.707 2.136.844.952.251 2.033.251 2.625 0 4.556-1.803 1.956-1.803 1.956-4.267 0-1.803-.901-3.514-.669-1.278-1.467-1.94-1.107-.913-3.037-1.643-1.93-.753-3.938-.753h-.824v-.685q2.033-.228 4.067-1.301 2.059-1.072 2.986-2.578.927-1.506.927-3.308 0-2.35-1.673-3.788-1.647-1.46-4.118-1.46-3.989 0-6.666 3.788l-.849-.365z"/><path d="m1090.545 259.88-2.445 5.955h-20.591v-.844q9.085-7.347 12.792-12.002 3.706-4.655 3.706-8.511 0-2.943-2.033-4.837-2.033-1.894-4.864-1.894-2.574 0-4.633 1.346-2.033 1.323-3.011 3.902h-.952q.643-4.221 3.294-6.48 2.677-2.259 6.666-2.259 4.247 0 7.078 2.419 2.857 2.419 2.857 5.704 0 2.35-1.235 4.7-1.905 3.696-6.177 7.826-6.409 6.206-8.005 7.484h9.111q2.78 0 3.886-.183 1.133-.183 2.033-.73.901-.57 1.57-1.597h.952z"/><path d="m1107.499 233.39-12.637 33.085h-2.059l12.637-33.085z"/><path d="m1131.514 259.88-2.445 5.955h-20.591v-.844q9.085-7.347 12.792-12.002 3.706-4.655 3.706-8.511 0-2.943-2.033-4.837-2.033-1.894-4.864-1.894-2.574 0-4.633 1.346-2.033 1.323-3.011 3.902h-.952q.643-4.221 3.294-6.48 2.677-2.259 6.666-2.259 4.247 0 7.078 2.419 2.857 2.419 2.857 5.704 0 2.35-1.235 4.7-1.905 3.696-6.177 7.826-6.409 6.206-8.005 7.484h9.111q2.78 0 3.886-.183 1.133-.183 2.033-.73.901-.57 1.57-1.597h.952z"/><path d="m1466.845 240.79q1.493-3.126 3.758-4.814 2.291-1.711 5.688-1.711 4.195 0 6.434 2.419 1.699 1.803 1.699 3.856 0 3.377-4.787 6.982 3.217 1.118 4.864 3.194 1.647 2.076 1.647 4.883 0 4.016-2.883 6.959-3.758 3.833-10.887 3.833-3.526 0-4.813-.776-1.261-.776-1.261-1.666 0-.662.592-1.164.618-.502 1.467-.502.643 0 1.313.183.438.114 1.982.844 1.544.707 2.136.844.952.251 2.033.251 2.625 0 4.556-1.803 1.956-1.803 1.956-4.267 0-1.803-.901-3.514-.669-1.278-1.467-1.94-1.107-.913-3.037-1.643-1.93-.753-3.938-.753h-.824v-.685q2.033-.228 4.067-1.301 2.059-1.072 2.986-2.578.927-1.506.927-3.308 0-2.35-1.673-3.788-1.647-1.46-4.118-1.46-3.989 0-6.666 3.788l-.849-.365z"/><path d="m1505.299 233.39-12.637 33.085h-2.059l12.637-33.085z"/><path d="m1507.826 240.79q1.493-3.126 3.758-4.814 2.291-1.711 5.688-1.711 4.195 0 6.434 2.419 1.699 1.803 1.699 3.856 0 3.377-4.787 6.982 3.217 1.118 4.864 3.194 1.647 2.076 1.647 4.883 0 4.016-2.883 6.959-3.758 3.833-10.887 3.833-3.526 0-4.813-.776-1.261-.776-1.261-1.666 0-.662.592-1.164.618-.502 1.467-.502.643 0 1.313.183.438.114 1.982.844 1.544.707 2.136.844.952.251 2.033.251 2.625 0 4.556-1.803 1.956-1.803 1.956-4.267 0-1.803-.901-3.514-.669-1.278-1.467-1.94-1.107-.913-3.037-1.643-1.93-.753-3.938-.753h-.824v-.685q2.033-.228 4.067-1.301 2.059-1.072 2.986-2.578.927-1.506.927-3.308 0-2.35-1.673-3.788-1.647-1.46-4.118-1.46-3.989 0-6.666 3.788l-.849-.365z"/><path d="m4.5 214.86h498.36v-5.95h-498.36z"/><path d="m502.86 214.86h6.71v-5.95h-6.71z"/><path d="m509.57 214.86h391.02v-5.95h-391.02z"/><path d="m900.59 214.86h6.71v-5.95h-6.71z"/><path d="m907.3 214.86h391.03v-5.95h-391.03z"/><path d="m1298.3 214.86h6.7v-5.95h-6.7z"/><path d="m1305 214.86h391.03v-5.95h-391.03z"/><path d="m57.394 341.46h-9.317l-11.814-14.466q-1.313.046-2.136.046h-.721l-.798-.046v8.99q0 2.921.721 3.628.978 1.004 2.934 1.004h1.364v.844h-14.954v-.844h1.313q2.213 0 3.166-1.278.541-.707.541-3.354v-19.988q0-2.921-.721-3.628-1.004-1.004-2.986-1.004h-1.313v-.844h12.715q5.559 0 8.185.73 2.651.707 4.478 2.647 1.853 1.917 1.853 4.586 0 2.852-2.11 4.951-2.085 2.099-6.486 2.966l7.207 8.876q2.471 3.058 4.247 4.061t4.633 1.278v.844zm-24.786-15.904q.489 0 .849.023h.592q4.993 0 7.516-1.917 2.548-1.917 2.548-4.883 0-2.898-2.059-4.7-2.033-1.825-5.405-1.825-1.493 0-4.041.434v12.869z"/><path d="m81.15 309.81v10.701h-.952q-.463-3.08-1.673-4.906-1.184-1.825-3.397-2.898t-4.581-1.072q-2.677 0-4.427 1.46-1.75 1.438-1.75 3.286 0 1.415 1.107 2.578 1.596 1.711 7.593 4.564 4.89 2.327 6.666 3.582 1.802 1.232 2.754 2.921.978 1.688.978 3.537 0 3.514-3.089 6.069-3.063 2.533-7.902 2.533-1.519 0-2.857-.205-.798-.114-3.32-.821-2.497-.73-3.166-.73-.643 0-1.03.342-.36.342-.541 1.415h-.952v-10.61h.952q.669 3.331 1.802 4.997 1.133 1.643 3.449 2.738 2.342 1.095 5.122 1.095 3.217 0 5.07-1.506 1.879-1.506 1.879-3.559 0-1.141-.721-2.305-.695-1.164-2.188-2.168-1.004-.685-5.482-2.898-4.478-2.236-6.383-3.559-1.879-1.323-2.857-2.921-.978-1.597-.978-3.514 0-3.331 2.883-5.727 2.883-2.419 7.335-2.419 2.78 0 5.894 1.209 1.441.57 2.033.57.669 0 1.081-.342.438-.365.695-1.438h.952z"/><path d="m97.134 326.97v9.013q0 2.921.721 3.628.978 1.004 2.96 1.004h1.338v.844h-14.954v-.844h1.313q2.213 0 3.166-1.278.515-.707.515-3.354v-19.988q0-2.921-.695-3.628-1.004-1.004-2.986-1.004h-1.313v-.844h12.792q4.684 0 7.387.867 2.702.844 4.556 2.875t1.853 4.814q0 3.788-2.831 6.161-2.805 2.373-7.953 2.373-1.261 0-2.728-.16t-3.14-.479zm0-1.301q1.364.228 2.419.342 1.055.114 1.802.114 2.677 0 4.607-1.825 1.956-1.848 1.956-4.769 0-2.008-.927-3.719-.927-1.734-2.625-2.578-1.699-.867-3.861-.867-1.313 0-3.372.434v12.869z"/><path d="m692.304 309.88v.844q-3.397.297-5.559 1.209-2.136.89-4.247 2.738-2.085 1.848-3.475 4.13-1.364 2.259-2.291 5.385 3.706-2.259 7.438-2.259 3.578 0 6.203 2.556t2.625 6.571q0 3.879-2.651 7.073-3.192 3.879-8.442 3.879-3.578 0-6.074-2.099-4.89-4.084-4.89-10.587 0-4.153 1.879-7.895t5.353-6.64q3.5-2.898 6.692-3.902t5.945-1.004h1.493zm-16.009 15.972q-.463 3.08-.463 4.974 0 2.191.901 4.769.927 2.555 2.728 4.061 1.313 1.072 3.192 1.072 2.239 0 3.989-1.871 1.776-1.871 1.776-5.339 0-3.902-1.75-6.754-1.75-2.852-4.967-2.852-.978 0-2.11.365-1.107.365-3.294 1.574z"/><path d="m709.799 309.01-12.637 33.085h-2.059l12.637-33.085z"/><path d="m714.954 310.52h18.711v.867l-11.633 30.712h-2.883l10.424-27.86h-9.6q-2.908 0-4.144.616-2.162 1.05-3.475 3.24l-.746-.251z"/><path d="m1089.248 310.52-2.008 3.879h-10.501l-2.291 4.153q6.821.89 10.81 4.495 3.423 3.103 3.423 7.302 0 2.442-1.133 4.518-1.107 2.076-2.805 3.537t-3.784 2.35q-2.96 1.255-6.074 1.255-3.14 0-4.581-.936-1.416-.958-1.416-2.099 0-.639.592-1.118.592-.502 1.493-.502.669 0 1.158.183.515.183 1.724.936 1.93 1.187 3.912 1.187 3.011 0 5.276-2.008 2.291-2.031 2.291-4.929 0-2.807-2.033-5.225-2.033-2.442-5.611-3.765-2.805-1.027-7.644-1.187l6.692-12.025h12.508z"/><path d="m1107.499 309.01-12.637 33.085h-2.059l12.637-33.085z"/><path d="m1112.654 310.52h18.711v.867l-11.633 30.712h-2.883l10.424-27.86h-9.6q-2.908 0-4.144.616-2.162 1.05-3.475 3.24l-.746-.251z"/><path d="m1470.353 313.55 8.494-3.674h.849v26.126q0 2.601.232 3.24.257.639 1.03.981t3.14.388v.844h-13.127v-.844q2.471-.046 3.192-.365.721-.342 1.004-.89.283-.57.283-3.354v-16.702q0-3.377-.257-4.335-.18-.73-.669-1.072-.463-.342-1.133-.342-.952 0-2.651.707l-.386-.707z"/><path d="m1505.299 309.01-12.637 33.085h-2.059l12.637-33.085z"/><path d="m1529.675 330.05v3.24h-4.684v8.169h-4.247v-8.169h-14.773v-2.921l16.189-20.49h2.831v20.171zm-8.931 0v-15.356l-12.251 15.356z"/><path d="m4.5 291.33h498.36v-5.95h-498.36z"/><path d="m502.86 291.33h6.71v-5.95h-6.71z"/><path d="m509.57 291.33h391.02v-5.95h-391.02z"/><path d="m900.59 291.33h6.71v-5.95h-6.71z"/><path d="m907.3 291.33h391.03v-5.95h-391.03z"/><path d="m1298.3 291.33h6.7v-5.95h-6.7z"/><path d="m1305 291.33h391.03v-5.95h-391.03z"/><path d="m57.394 407.72h-9.317l-11.814-14.466q-1.313.046-2.136.046h-.721l-.798-.046v8.99q0 2.921.721 3.628.978 1.004 2.934 1.004h1.364v.844h-14.954v-.844h1.313q2.213 0 3.166-1.278.541-.707.541-3.354v-19.988q0-2.921-.721-3.628-1.004-1.004-2.986-1.004h-1.313v-.844h12.715q5.559 0 8.185.73 2.651.707 4.478 2.647 1.853 1.917 1.853 4.586 0 2.852-2.11 4.951-2.085 2.099-6.486 2.966l7.207 8.876q2.471 3.058 4.247 4.061t4.633 1.278v.844zm-24.786-15.904q.489 0 .849.023h.592q4.993 0 7.516-1.917 2.548-1.917 2.548-4.883 0-2.898-2.059-4.7-2.033-1.825-5.405-1.825-1.493 0-4.041.434v12.869z"/><path d="m73.243 406.88v.844h-14.954v-.844h1.235q2.162 0 3.14-1.118.618-.73.618-3.514v-19.988q0-2.35-.335-3.103-.257-.57-1.055-.981-1.133-.548-2.368-.548h-1.235v-.844h14.954v.844h-1.261q-2.136 0-3.114 1.118-.643.73-.643 3.514v19.988q0 2.35.335 3.103.257.57 1.081.981 1.107.548 2.342.548h1.261z"/><path d="m85.391 393.23v9.013q0 2.921.721 3.628.978 1.004 2.96 1.004h1.338v.844h-14.954v-.844h1.313q2.213 0 3.166-1.278.515-.707.515-3.354v-19.988q0-2.921-.695-3.628-1.004-1.004-2.986-1.004h-1.313v-.844h12.792q4.684 0 7.387.867 2.702.844 4.556 2.875 1.853 2.031 1.853 4.814 0 3.788-2.831 6.161-2.805 2.373-7.953 2.373-1.261 0-2.728-.16t-3.14-.479zm0-1.301q1.364.228 2.419.342 1.055.114 1.802.114 2.677 0 4.607-1.825 1.956-1.848 1.956-4.769 0-2.008-.927-3.719-.927-1.734-2.625-2.578-1.699-.867-3.861-.867-1.313 0-3.372.434v12.869z"/><path d="m674.853 379.81 8.494-3.674h.849v26.126q0 2.601.232 3.24.257.639 1.03.981t3.14.388v.844h-13.127v-.844q2.471-.046 3.192-.365.721-.342 1.004-.89.283-.57.283-3.354v-16.702q0-3.377-.257-4.335-.18-.73-.669-1.072-.463-.342-1.133-.342-.952 0-2.651.707l-.386-.707z"/><path d="m709.799 375.27-12.637 33.085h-2.059l12.637-33.085z"/><path d="m714.954 376.78h18.711v.867l-11.633 30.712h-2.883l10.424-27.86h-9.6q-2.908 0-4.144.616-2.162 1.05-3.475 3.24l-.746-.251z"/><path d="m1090.545 401.76-2.445 5.955h-20.591v-.844q9.085-7.347 12.792-12.002 3.706-4.655 3.706-8.511 0-2.943-2.033-4.837-2.033-1.894-4.864-1.894-2.574 0-4.633 1.346-2.033 1.323-3.011 3.902h-.952q.643-4.221 3.294-6.48 2.677-2.259 6.666-2.259 4.247 0 7.078 2.419 2.857 2.419 2.857 5.704 0 2.35-1.235 4.7-1.905 3.696-6.177 7.826-6.409 6.206-8.005 7.484h9.111q2.78 0 3.886-.183 1.133-.183 2.033-.73.901-.57 1.57-1.597h.952z"/><path d="m1107.499 375.27-12.637 33.085h-2.059l12.637-33.085z"/><path d="m1112.654 376.78h18.711v.867l-11.633 30.712h-2.883l10.424-27.86h-9.6q-2.908 0-4.144.616-2.162 1.05-3.475 3.24l-.746-.251z"/><path d="m1466.845 382.67q1.493-3.126 3.758-4.814 2.291-1.711 5.688-1.711 4.195 0 6.434 2.419 1.699 1.803 1.699 3.856 0 3.377-4.787 6.982 3.217 1.118 4.864 3.194 1.647 2.076 1.647 4.883 0 4.016-2.883 6.959-3.758 3.833-10.887 3.833-3.526 0-4.813-.776-1.261-.776-1.261-1.666 0-.662.592-1.164.618-.502 1.467-.502.643 0 1.313.183.438.114 1.982.844 1.544.707 2.136.844.952.251 2.033.251 2.625 0 4.556-1.803 1.956-1.803 1.956-4.267 0-1.803-.901-3.514-.669-1.278-1.467-1.94-1.107-.913-3.037-1.643-1.93-.753-3.938-.753h-.824v-.685q2.033-.228 4.067-1.301 2.059-1.072 2.986-2.578.927-1.506.927-3.308 0-2.35-1.673-3.788-1.647-1.46-4.118-1.46-3.989 0-6.666 3.788l-.849-.365z"/><path d="m1505.299 375.27-12.637 33.085h-2.059l12.637-33.085z"/><path d="m1529.675 396.31v3.24h-4.684v8.169h-4.247v-8.169h-14.773v-2.921l16.189-20.49h2.831v20.171zm-8.931 0v-15.356l-12.251 15.356z"/><path d="m673.974 451.55h18.711v.867l-11.633 30.712h-2.883l10.424-27.86h-9.6q-2.908 0-4.144.616-2.162 1.05-3.475 3.24l-.746-.251z"/><path d="m709.799 450.04-12.637 33.085h-2.059l12.637-33.085z"/><path d="m714.954 451.55h18.711v.867l-11.633 30.712h-2.883l10.424-27.86h-9.6q-2.908 0-4.144.616-2.162 1.05-3.475 3.24l-.746-.251z"/><path d="m1071.674 451.55h18.711v.867l-11.633 30.712h-2.883l10.424-27.86h-9.6q-2.908 0-4.144.616-2.162 1.05-3.475 3.24l-.746-.251z"/><path d="m1107.499 450.04-12.637 33.085h-2.059l12.637-33.085z"/><path d="m1112.654 451.55h18.711v.867l-11.633 30.712h-2.883l10.424-27.86h-9.6q-2.908 0-4.144.616-2.162 1.05-3.475 3.24l-.746-.251z"/><path d="m1488.695 471.08v3.24h-4.684v8.169h-4.247v-8.169h-14.773v-2.921l16.189-20.49h2.831v20.171zm-8.931 0v-15.356l-12.251 15.356z"/><path d="m1505.299 450.04-12.637 33.085h-2.059l12.637-33.085z"/><path d="m1529.675 471.08v3.24h-4.684v8.169h-4.247v-8.169h-14.773v-2.921l16.189-20.49h2.831v20.171zm-8.931 0v-15.356l-12.251 15.356z"/><path d="m4.5 431.51h498.36v-5.94h-498.36z"/><path d="m502.86 431.51h6.71v-5.94h-6.71z"/><path d="m509.57 431.51h391.02v-5.94h-391.02z"/><path d="m900.59 431.51h6.71v-5.94h-6.71z"/><path d="m907.3 431.51h391.03v-5.94h-391.03z"/><path d="m1298.3 431.51h6.7v-5.94h-6.7z"/><path d="m1305 431.51h391.03v-5.94h-391.03z"/></svg>