<svg xmlns="http://www.w3.org/2000/svg" height="227.06mm" width="241.75mm" viewBox="0 0 856.58032 804.55356"><path d="M107.38 783.593v-3.244l91.254-89.501 91.254-89.501-.205-153.92c-.113-84.655-1.063-203.92-2.111-265.03l-1.906-111.11 3.185 3.086 3.185 3.086 1.675 194.44c.922 106.94 1.735 222.57 1.808 256.94l.132 62.5h216.04v-27.778h6.172v27.86l104.17-.813 104.17-.813-.602-17.747-.602-17.747h5.832v37.038h108.024v6.172l-43.982-.216c-24.19-.119-48.416-.119-53.835 0l-9.853.216-1.181 13.117-1.181 13.117-.539-13.117-.539-13.117-68.673-.32c-37.77-.176-84.645-.244-104.17-.151l-35.494.169-.913 20.213-.913 20.213h-5.608l-.913-20.833-.913-20.833-103.65-.849-103.65-.849-41.408 41.154c-22.774 22.635-66.755 65.96-97.735 96.277l-56.327 55.123v-3.244zm493.83-21.655c-4.244-.512-17.438-3.123-29.321-5.802l-21.605-4.87-12.892-7.425-12.892-7.425-6.399-8.134-6.399-8.134v-54.724h6.172v10.288c0 5.659.801 11.089 1.779 12.067l1.779 1.779 16.824-7.702 16.824-7.702 25.378-4.606 25.379-4.607 30.002 1.795 30.002 1.795 17.837 6.507 17.837 6.507 11.393 8.915c6.266 4.903 12.255 8.915 13.308 8.915h1.915l-.633-26.307-.633-26.307 1.985-1.985 1.985-1.985.366 29.064c.451 35.817.562 32.901-1.784 46.823l-1.952 11.586-6.802 6.541c-3.741 3.598-13.747 9.65-22.234 13.449l-15.432 6.908-24.691 3.546c-22.841 3.28-37.5 3.596-57.099 1.23zm47.035-42.321c19.928-18.772 36.247-35.172 36.265-36.445.018-1.273-1.95-2.315-4.373-2.315h-4.406l-5.625 7.098c-3.094 3.904-19.842 20.041-37.217 35.859l-31.592 28.761 1.713 2.771 1.713 2.771 3.645-2.186c2.005-1.202 19.949-17.544 39.877-36.316zm13.15 2.735l37.037-35.517-5.21.869-5.21.869-34.142 31.898c-31.047 29.007-38.417 37.684-31.827 37.471 1.273-.041 18.981-16.057 39.352-35.591zm-.504 17.458c10.463-10.015 24.926-23.742 32.14-30.505 13.54-12.693 15.59-16.101 9.685-16.101h-3.432l-20.487 19.663c-11.268 10.815-25.696 24.153-32.061 29.641-6.366 5.487-11.574 11.222-11.574 12.744 0 6.391 7.829 1.692 25.73-15.442zm-31.672-18.829c19.024-17.824 36.478-33.518 38.785-34.876 2.307-1.357 4.195-3.788 4.195-5.401v-2.933h-6.784l-32.873 30.395c-18.08 16.718-35.927 32.937-39.66 36.044l-6.786 5.649 1.668 2.699c2.677 4.332 5.091 2.493 41.456-31.578zm59.255 8.485c25.277-23.767 30.437-30.09 24.555-30.09-1.308 0-14.155 11.092-28.549 24.649s-27.213 24.668-28.486 24.691c-1.273.023-2.315 1.431-2.315 3.129v3.086l3.858-.002 3.858-.002 27.078-25.461zm-83.546-1.796c14.082-13.296 31.506-29.43 38.721-35.853 7.215-6.423 13.117-12.906 13.117-14.406 0-6.598-8.179-1.215-30.305 19.945-13.039 12.47-30.305 28.619-38.368 35.887-14.181 12.782-17.846 18.601-11.715 18.601 1.62 0 14.467-10.879 28.549-24.174zm95.846 6.545c10.595-9.696 19.712-19.419 20.261-21.605l.998-3.975h-1.988c-3.06 0-44.761 37.966-44.761 40.753 0 5.78 7.426 1.36 25.49-15.172zm-99.327-19.407c18.99-17.824 36.457-33.534 38.815-34.912l4.287-2.505-1.814-2.935-1.814-2.935-4.049 2.353c-2.227 1.294-17.065 14.38-32.974 29.08s-32.758 29.742-37.442 33.426l-8.516 6.699 1.855 3.002c2.904 4.699 5 3.125 41.651-31.274zm-26.371 8.497c11.827-10.605 28.434-25.781 36.904-33.726l15.4-14.445-2.051-2.051-2.051-2.051-4.414 2.598c-7.377 4.341-70.123 63.827-70.123 66.48 0 5.343 5.666 1.727 26.335-16.805zm.018-15.441l31.77-28.549.259-3.858c.142-2.122-.644-3.858-1.747-3.858-1.103 0-16.034 12.754-33.179 28.343s-33.207 30.172-35.692 32.407l-4.519 4.064h11.34l31.77-28.549zm140.37 23.845c5.964-7.186 1.708-8.541-4.674-1.488l-5.603 6.192h3.187c1.753 0 4.944-2.117 7.091-4.704zm-151.3-29.359l29.321-27.593-5.35-.036-5.35-.036-27.829 24.98c-15.306 13.739-27.829 26.239-27.829 27.778v2.798l3.858-.148 3.858-.148 29.321-27.593zm-15.432-2.83l23.148-21.453-5.2-.148-5.2-.148-20.229 17.747-20.229 17.747-.033 3.858c-.06 6.907 4.245 4.176 27.745-17.603zm-9.718-10.89l-1.685-1.685-8.187 6.44-8.187 6.44v10.236l9.873-9.873 9.873-9.873-1.685-1.685zm52.928-152.6l-20.062-2.333-15.432-5.291c-8.488-2.91-20.64-8.706-27.006-12.88l-11.574-7.589-.356 2.359c-.196 1.297-.543 4.079-.772 6.182l-.416 3.824-2.546-.737-2.546-.737-.541-44.753-.541-44.753-10.031-.967-10.031-.967v-5.782h21.604v-59.697c0-32.833-.91-78.667-2.022-101.85l-2.022-42.155h-78.926l-1.907-3.086-1.907-3.086h83.698v-42.996l9.449-10.762 9.449-10.762 6.206-1.97 6.206-1.97-1.669-4.351-1.67-4.351 17.65-.333c9.707-.183 26.678-1.919 37.712-3.858l20.062-3.525-.958-20.062c-.527-11.034-1.468-31.651-2.09-45.815-.623-14.164-1.716-26.336-2.429-27.049-.713-.713-4.981 1.602-9.484 5.144l-8.187 6.44.084-2.539c.09-2.739 21.719-26.85 22.571-25.162.283.56 3.739 5.617 7.68 11.238l7.166 10.219-5.319-.96-5.319-.96.2 20.833c.11 11.458.316 31.808.457 45.222l.257 24.388 19.29 2.102c23.298 2.539 43.495 8.097 59.699 16.429l12.06 6.201 9.174 9.656 9.174 9.656.837 40.781c.46 22.43 1.235 103.63 1.721 180.44l.884 139.66h-4.814v-32.076l-10.031 9.519c-17.927 17.013-39.358 24.225-79.475 26.748l-23.148 1.456-20.062-2.333zm86.051-11.979c9.134-3.565 22.037-10.075 28.674-14.467l12.067-7.985 2.756-7.25 2.756-7.249-1.825-142.32c-1.004-78.274-2.433-142.32-3.176-142.32-.743 0-5.037 2.481-9.543 5.513-11.765 7.916-21.696 12.247-37.513 16.359l-13.889 3.611-27.788 1.101-27.788 1.101-25.648-6.126-25.648-6.126-12.922-.358-12.922-.358 5.401-1.411c7.473-1.953 6.573-4.244-5.659-14.411l-10.615-8.822.807 150.8.807 150.8 4.122 7.235 4.122 7.235 14.397 6.494c7.918 3.572 23.424 8.957 34.458 11.968l20.062 5.474 33.951-1.004 33.951-1.004 16.607-6.482zm-65.116-326.23l1.173-24.678-2.076-19.62-2.076-19.62-20.286 2.172c-11.158 1.195-26.421 4.019-33.919 6.275l-13.632 4.103-10.384 7.115-10.384 7.115-3.372 7.4-3.372 7.4 1.586 1.586 1.586 1.586 1.978-5.153 1.978-5.153 12.756-7.332 12.756-7.332 10.802-1.842 10.802-1.842-13.889 6.107c-7.639 3.359-17.327 7.905-21.529 10.103l-7.64 3.995-4.705 8.592-4.705 8.592 8.941 7.777 8.941 7.777 5.72-1.496 5.72-1.496v4.159c0 2.287 1.36 4.999 3.023 6.027l3.023 1.868 6.705-3.588 6.705-3.588-1.902 4.957-1.902 4.957 6.835 1.659c15.485 3.758 34.897 7.022 39.093 6.573l4.48-.479 1.173-24.678zm-54.886-6.159c0-.849.694-1.543 1.543-1.543s1.543.694 1.543 1.543-.694 1.543-1.543 1.543-1.543-.694-1.543-1.543zm-21.605-7.716v-4.115l2.058 2.058 2.058 2.058-2.058 2.058-2.058 2.058v-4.115zm17.716-11.327l10-5.196 2.088 2.088c3.009 3.009.882 4.211-11.286 6.378l-10.802 1.925 10-5.196zm107.28 48.599l9.259-2.121-.793-3.751-.793-3.751 7.157 1.796 7.157 1.796 14.438-7.319 14.438-7.319-3.827-4.019-3.827-4.019 6.944 2.098 6.944 2.098v-8.92l-4.63-3.842c-2.546-2.113-4.63-5.231-4.63-6.929v-3.086l4.63 3.842 4.63 3.842v-10.31l-8.488-8.003-8.488-8.003-15.432-7.143-15.432-7.143-22.548-3.489-22.548-3.489-4.74 1.819-4.74 1.819 1.679 31.624c.924 17.393 1.745 36.833 1.826 43.198l.147 11.574 16.204-.365c8.912-.201 20.37-1.32 25.463-2.486zm13.889-25.108v-3.269l3.086 1.907c1.698 1.049 3.086 2.52 3.086 3.269 0 .749-1.389 1.361-3.086 1.361h-3.086v-3.269zm24.691-4.447c0-.849.694-1.543 1.543-1.543s1.543.694 1.543 1.543-.694 1.543-1.543 1.543-1.543-.694-1.543-1.543zm-14.114-9.193l-5.947-4.5 3.086-.051c1.698-.028 5.13 1.241 7.627 2.82l4.54 2.871-1.679 1.679-1.679 1.679-5.947-4.5zm-13.664-7.782l-4.63-2.992 3.676-.047c2.022-.026 4.534 1.342 5.583 3.039 2.368 3.832 1.3 3.832-4.63 0zm22.966-4.532l-5.991-4.532 3.268-.098c1.798-.054 5.964 1.941 9.259 4.433l5.991 4.532-3.268.098c-1.798.054-5.964-1.941-9.259-4.433zm-24.51-10.901l-1.907-3.086h-13.216l3.297-3.297 3.298-3.298 11.209 4.683c12.436 5.196 14.301 8.085 5.218 8.085h-5.991l-1.907-3.086zm-474.76 369.65l-3.631-2.268 33.179-.047 33.179-.047v6.66l-29.548-1.016-29.548-1.016-3.631-2.268zm124.46.724v-3.086h70.988v6.172h-70.988v-3.086zm104.94 0v-3.086h55.556v6.172h-55.556v-3.086zm80.247 0v-3.086h30.5l1.907 3.086 1.907 3.086h-34.314v-3.086zm-485.43-11.55c-.838-6.366-1.72-79.839-1.961-163.27l-.438-151.7 22.456-7.818c100.62-35.04 165.75-58.77 175.53-63.97l4.928-2.619 3.714 3.714 3.714 3.714 14.506.365c7.978.201 19.367.81 25.308 1.355l10.802.99-27.038 1.732-27.038 1.732.032 2.315c.018 1.273.032 16.832.032 34.575v32.26l19.29 1.096 19.29 1.096-19.332.595-19.332.595.813 102.62.813 102.62 20.833.913 20.833.913v6.374l-25.463-.883-25.463-.883-33.951 18.571c-18.673 10.214-59.908 31.653-91.634 47.644l-57.683 29.073 3.099 1.915 3.099 1.915 7.155-1.368 7.155-1.368 2.087 3.377 2.087 3.377h-36.726l-1.523-11.574zm188.35-92.476l13.118-7.649-1.688-2.731-1.688-2.731-96.307 48.12c-52.969 26.466-96.793 48.568-97.388 49.115-.594.547-.182 2.449.916 4.226l1.997 3.231 83.961-41.966c46.178-23.082 89.864-45.408 97.079-49.615zm-97.3 36.067c44.603-22.113 87.817-43.795 96.031-48.182l14.935-7.976-2.885-2.885-2.885-2.885-96.155 48.179-96.155 48.179v2.888c0 1.589 1.354 2.888 3.009 2.888s39.502-18.092 84.105-40.205zm13.114-19.984l94.029-46.292.093-3.858c.051-2.122-.948-3.817-2.221-3.766-1.273.05-44.593 21.331-96.267 47.29l-93.953 47.198-1.341 4.022-1.341 4.022 3.485-1.162c1.917-.639 45.799-21.993 97.515-47.454zm-1.918-12.164c52.553-26.214 96.458-49.131 97.567-50.926l2.017-3.264-4.04-.177c-2.222-.098-46.716 21.083-98.876 47.068l-94.836 47.245-.072 3.858c-.039 2.122.549 3.858 1.308 3.858s44.378-21.448 96.93-47.662zm1.28-14.388c51.321-25.64 93.803-47.081 94.404-47.647.601-.566.574-2.586-.06-4.49l-1.154-3.461-96.377 48.793c-86.849 43.969-103.35 53.422-93.263 53.422 1.727 0 45.13-20.978 96.451-46.618zm-.149-12.719l94.812-47.145.095-3.858c.141-5.689-2.17-4.989-29.226 8.849-13.58 6.946-56.289 28.535-94.907 47.977l-70.216 35.348v2.91c0 1.601 1.042 2.945 2.315 2.987 1.273.042 44.98-21.138 97.127-47.068zm-.814-12.912l93.998-47.297 1.166-3.498 1.166-3.498-4.115.15c-2.263.082-45.688 21.33-96.5 47.216l-92.385 47.066-1.236 3.71-1.236 3.71 2.572-.13c1.415-.072 44.871-21.414 96.57-47.428zm.898-14.308l94.896-47.702.011-3.867.011-3.867-8.91 3.867c-4.9 2.127-48.642 24.006-97.204 48.62l-88.294 44.753-.018 4.04-.018 4.04 2.315-1.091c1.273-.6 45.018-22.557 97.211-48.793zm-.116-12.84l94.78-47.208.127-3.858c.07-2.122-.643-3.858-1.584-3.858-.941 0-44.691 21.655-97.222 48.122l-95.511 48.122v2.804c0 1.542 1.042 2.867 2.315 2.944 1.273.077 44.966-21.104 97.095-47.068zm-.764-12.965l94.017-47.417 1.148-3.444 1.148-3.444-4.115.184c-2.263.101-45.693 21.363-96.51 47.248l-92.395 47.064-1.226 3.678-1.226 3.678 2.572-.065c1.415-.035 44.88-21.403 96.589-47.482zm-1.06-12.814l95.315-48.016.987-4.399.987-4.399-11.79 5.45c-24.587 11.366-175.54 87.891-179.23 90.857-3.557 2.863-5.364 8.522-2.722 8.522.625 0 44.028-21.607 96.451-48.016zm1.944-14.349l94.902-47.203.006-3.858c.003-2.122-.783-3.858-1.747-3.858s-44.714 21.642-97.222 48.093l-95.469 48.093v2.833c0 1.558 1.042 2.893 2.315 2.968 1.273.074 45.021-21.106 97.216-47.068zm1.549-14.065l93.364-47.047v-6.152l-3.858.128c-2.122.07-45.468 21.427-96.324 47.46l-92.466 47.332-1.253 3.76-1.253 3.76 4.213-1.097c2.317-.604 46.227-22.268 97.578-48.144zm-2.327-11.972l95.691-48.278v-8.606l-96.293 48.723-96.293 48.723-1.186 3.858-1.186 3.858h1.788c.984 0 44.849-21.725 97.479-48.278zm.784-13.475l94.907-47.767v-3.882c0-2.135-.893-3.882-1.984-3.882s-44.842 21.785-97.222 48.411l-95.238 48.411v8.632l2.315-1.077c1.273-.593 45.023-22.573 97.222-48.845zm-.621-13.384l93.666-47.36 1.297-3.89 1.297-3.89-6.672 2.118c-3.67 1.165-47.199 22.725-96.732 47.912l-90.06 45.795-1.113 3.337-1.113 3.337h2.882c1.585 0 45.032-21.312 96.548-47.36zm-9.608-8.196c45.876-22.917 83.438-42.708 83.471-43.981l.061-2.315-5.401.139-5.401.139-80.116 40.756-80.116 40.756-1.288 4.244-1.288 4.244 3.334-1.157c1.834-.637 40.869-19.907 86.745-42.824zm11.22-19.232l93.917-47.01v-7.68l-6.944 2.644c-7.786 2.964-47.79 22.914-131.17 65.416l-56.327 28.711v2.464c0 1.355 1.487 2.464 3.305 2.464s45.568-21.154 97.222-47.01zm-39.859 6.9c30.105-15.27 56.132-29.159 57.837-30.864l3.1-3.1h-12.354l-54.625 27.982-54.625 27.982v2.882c0 5.332 5.742 2.977 60.668-24.882zm-10.392-8.445l46.946-23.864-6.529-.988-6.529-.988-41.068 20.994-41.068 20.994-1.271 3.858-1.271 3.858h1.922c1.057 0 23.048-10.739 48.868-23.864zm8.445-17.481c22.873-11.705 62.421-31.63 87.884-44.276 25.463-12.647 46.783-23.463 47.377-24.037.594-.574.177-2.505-.927-4.291l-2.008-3.248-79.32 40.446c-43.626 22.245-86.612 44.015-95.524 48.376l-16.204 7.93v8.118l8.567-3.867c4.712-2.127 27.281-13.444 50.154-25.149zm-33.17 3.645l19.202-9.922-6.689-1.062-6.689-1.062-15.687 7.949-15.687 7.949v6.068h3.174c1.746 0 11.815-4.465 22.377-9.922zm-13.56-6.723l7.361-4.08-3.44-2.126-3.44-2.126-6.237 3.338c-3.43 1.836-6.237 4.678-6.237 6.316 0 3.95 3.097 3.609 11.991-1.321zm156.98-66.168c12.3-6.228 22.369-12.353 22.377-13.611l.013-2.288-20.518 7.723c-11.285 4.248-43.826 19.839-72.315 34.647l-51.797 26.924 3.415 2.11 3.415 2.11 46.524-23.146c25.588-12.73 56.587-28.241 68.887-34.469zm-12.332 33.509l37.809-18.975v-2.897c0-5.264-5.699-3.103-50.745 19.247l-44.632 22.145 1.433 2.319 1.433 2.319 8.446-2.591c4.645-1.425 25.46-11.13 46.255-21.567zm4.33 10.658c15.77-7.675 30.008-15.291 31.641-16.924l2.969-2.969-2.004-2.003-2.003-2.004-32.484 16.183-32.484 16.183 1.696 2.745c2.335 3.779.763 4.318 32.669-11.21zm32.062 10.663l2.034-3.292-1.62-1.62-1.62-1.62-6.405 2.033-6.405 2.033v5.756h11.982l2.034-3.292zm-175.87-4.584l5.991-4.789-7.716 2.05c-4.244 1.127-9.036 3.283-10.648 4.789l-2.932 2.74h4.657c2.561 0 7.353-2.155 10.648-4.789zm51.614-12.759c18.13-9.652 32.391-18.121 31.692-18.82-2.939-2.939-74.018 27.947-77.58 33.712l-1.642 2.657h14.566l32.964-17.548zm13.791 336.26c8.912-.623 23.495-.623 32.407 0l16.204 1.134h-64.814l16.204-1.134zm198.3-102.66v-3.086h55.556v6.172h-55.556v-3.086zm95.679 0v-3.086h58.642v6.172h-58.642v-3.086zm-86.42-209.88v-3.086h67.902v6.172h-67.902v-3.086zm-9.259-77.16v-3.086h58.642v6.172h-58.642v-3.086zm89.506 0v-3.086h52.47v6.172h-52.47v-3.086zm83.333 0v-3.086h37.038v6.172h-37.038v-3.086z"/></svg>