<svg xmlns="http://www.w3.org/2000/svg" height="32.382mm" width="270.2mm" viewBox="0 0 957.39794 114.74081"><path d="M17.711 35.888v5.782h921.96v-5.782h-921.96zm20.867 55.857l.035.502.131-.502h-.166zm-7.488 1.845v-12.183h-12.158v-2.002h12.158v-12.134h1.953v12.134h12.207v2.002h-12.207v12.183h-1.953zm38.09-2.93l-2.319 6.372h-19.531v-.903q8.618-7.861 12.134-12.842 3.516-4.981 3.516-9.106 0-3.149-1.929-5.176t-4.614-2.026q-2.441 0-4.394 1.44-1.929 1.416-2.856 4.175h-.903q.61-4.517 3.125-6.934 2.539-2.417 6.323-2.417 4.028 0 6.714 2.588 2.71 2.588 2.71 6.104 0 2.515-1.172 5.029-1.807 3.955-5.859 8.374-6.079 6.641-7.593 8.008h8.643q2.637 0 3.687-.195 1.074-.195 1.929-.781.854-.61 1.489-1.709h.903zm152.89 2.93v-12.183h-12.158v-2.002h12.158v-12.134h1.953v12.134h12.207v2.002h-12.207v12.183h-1.953zm21.02-26.42l8.057-3.931h.806v27.954q0 2.783.22 3.467.244.684.977 1.05t2.978.415v.903h-12.451v-.903q2.344-.049 3.027-.391.684-.366.952-.952.269-.61.269-3.589v-17.871q0-3.613-.244-4.639-.171-.781-.635-1.147-.439-.366-1.074-.366-.903 0-2.515.757l-.366-.757zm206.3 12.92q0-5.664 1.709-9.741 1.709-4.102 4.541-6.104 2.197-1.587 4.541-1.587 3.809 0 6.836 3.882 3.784 4.81 3.784 13.037 0 5.762-1.66 9.79t-4.248 5.859q-2.563 1.807-4.956 1.807-4.736 0-7.886-5.591-2.661-4.712-2.661-11.353zm4.785.61q0 6.836 1.685 11.157 1.392 3.638 4.15 3.638 1.318 0 2.734-1.172 1.416-1.196 2.148-3.979 1.123-4.199 1.123-11.841 0-5.664-1.172-9.448-.879-2.808-2.271-3.979-1.001-.806-2.417-.806-1.66 0-2.954 1.489-1.758 2.026-2.393 6.372-.635 4.346-.635 8.569zm198.315 3.27h12.622v3.687h-12.622v-3.687zm20.5-16.8l8.057-3.931h.806v27.954q0 2.783.22 3.467.244.684.977 1.05.732.366 2.978.415v.903h-12.451v-.903q2.344-.049 3.027-.391.684-.366.952-.952.269-.61.269-3.589v-17.871q0-3.613-.244-4.639-.171-.781-.635-1.147-.439-.366-1.074-.366-.903 0-2.515.757l-.366-.757zm203.8 16.8h12.622v3.687h-12.622v-3.687zm37.6 6.69l-2.319 6.372h-19.531v-.903q8.618-7.861 12.134-12.842 3.516-4.981 3.516-9.106 0-3.149-1.929-5.176t-4.614-2.026q-2.441 0-4.394 1.44-1.929 1.416-2.857 4.175h-.903q.61-4.517 3.125-6.934 2.539-2.417 6.323-2.417 4.028 0 6.714 2.588 2.71 2.588 2.71 6.104 0 2.515-1.172 5.029-1.807 3.955-5.859 8.374-6.079 6.641-7.593 8.008h8.643q2.637 0 3.687-.195 1.074-.195 1.929-.781.855-.61 1.489-1.709h.903zm-863.7-72.94q1.147 0 1.929.806.781.781.781 1.904t-.806 1.929q-.781.781-1.904.781t-1.929-.781q-.781-.806-.781-1.929 0-1.147.781-1.929.806-.781 1.929-.781zm190 0q1.147 0 1.929.806.781.781.781 1.904t-.806 1.929q-.781.781-1.904.781t-1.929-.781q-.781-.806-.781-1.929 0-1.147.781-1.929.806-.781 1.929-.781zm218 0q1.147 0 1.929.806.781.781.781 1.904t-.806 1.929q-.781.781-1.904.781t-1.929-.781q-.781-.806-.781-1.929 0-1.147.781-1.929.806-.781 1.929-.781zm218 0q1.147 0 1.929.806.781.781.781 1.904t-.806 1.929q-.781.781-1.904.781-1.123 0-1.929-.781-.781-.806-.781-1.929 0-1.147.781-1.929.806-.781 1.929-.781zm220 0q1.147 0 1.929.806.781.781.781 1.904t-.806 1.929q-.781.781-1.904.781-1.123 0-1.929-.781-.781-.806-.781-1.929 0-1.147.781-1.929.806-.781 1.929-.781z"/></svg>