<svg xmlns="http://www.w3.org/2000/svg" height="74.534mm" viewBox="0 0 872.23081 264.09246" width="246.16mm"><path d="M103.3 246.36c-6.044-.174-13.956-.669-17.582-1.099-3.626-.431-12.527-1.81-19.78-3.065-7.253-1.255-19.249-5.293-26.659-8.973-8.139-4.042-14.447-8.83-15.934-12.094-1.401-3.074-2.506-17.913-2.564-34.42-.056-15.959-.963-51.764-2.015-79.566-1.668-44.082-1.471-51.488 1.544-57.887 2.303-4.889 6.46-8.67 12.454-11.328 4.949-2.195 12.954-5.547 17.789-7.45 4.835-1.903 15.674-4.608 24.087-6.011 9.223-1.538 24.056-2.004 37.362-1.175 12.137.756 28.55 3.242 36.475 5.523 7.924 2.281 17.42 5.705 21.102 7.609 3.682 1.904 8.159 5.737 9.949 8.519 2.615 4.062 3.724 21.71 5.636 89.672l2.381 84.615-5.383 5.691c-2.96 3.13-9.671 7.832-14.912 10.45-5.241 2.618-19.302 6.232-31.246 8.033s-26.661 3.131-32.705 2.957zm8.791-5.031c20.908-.511 32.185-1.864 42.045-5.043 7.41-2.389 17.053-7.074 21.428-10.411 6.079-4.637 7.955-7.65 7.955-12.776 0-3.69-1.731-8.685-3.846-11.101-3.683-4.205-3.67-4.327.303-2.873 3.972 1.454 4.093.321 2.823-26.55-.73-15.438-1.361-28.276-1.402-28.528-.042-.252-4.791 2.473-10.555 6.056-5.764 3.583-17.879 8.2-26.923 10.261-11.271 2.568-26.466 3.774-48.311 3.834-24.197.067-34.819-.826-44.127-3.71-6.742-2.089-16.048-6.369-20.678-9.511l-8.419-5.714 1.451 30.263c.935 19.506 2.376 30.834 4.054 31.871 1.987 1.228 1.95 2.394-.156 4.932-2 2.409-2.127 4.503-.465 7.609 1.261 2.357 5.614 6.245 9.672 8.639s11.157 5.601 15.776 7.125c4.618 1.524 13.439 3.571 19.601 4.549 6.162.978 24.061 1.463 39.775 1.079zm-76.086-38.58c-1.209 0-1.587-.989-.839-2.198.747-1.209 2.347-2.198 3.556-2.198s1.587.989.839 2.198c-.747 1.209-2.347 2.198-3.556 2.198zm13.634-6.694c-2.523 1.35-4.584 1.536-4.584.413 0-1.122 1.625-2.664 3.611-3.426 1.986-.762 4.049-.948 4.584-.413.535.535-1.09 2.076-3.611 3.426zm125.02.676c-.569.448-2.766.429-4.881-.042s-3.846-1.772-3.846-2.892c0-1.12.742-2.022 1.648-2.003.907.018 3.103.954 4.881 2.078 1.778 1.125 2.767 2.411 2.198 2.858zm-12.574-2.946c-.907-.095-2.891-.674-4.409-1.287-1.518-.612-2.229-1.974-1.578-3.027.651-1.053 2.635-1.357 4.409-.676 1.774.681 3.226 2.121 3.226 3.201 0 1.079-.742 1.885-1.648 1.789zm-101.52-2.03c-2.489 0-4.525-.389-4.525-.864s1.452-1.421 3.226-2.102c1.774-.681 3.811-.292 4.525.864.714 1.156-.737 2.102-3.226 2.102zm9.76-2.198c-1.813 0-3.297-.989-3.297-2.198s1.484-2.198 3.297-2.198 3.297.989 3.297 2.198-1.484 2.198-3.297 2.198zm78.151 0c-2.489 0-4.525-.989-4.525-2.198s1.425-2.198 3.167-2.198c1.742 0 3.778.989 4.525 2.198.747 1.209-.678 2.198-3.167 2.198zm-66.063-2.198c-2.418 0-4.396-.989-4.396-2.198s1.978-2.198 4.396-2.198 4.396.989 4.396 2.198-1.978 2.198-4.396 2.198zm52.747 0c-2.418 0-4.396-.989-4.396-2.198s1.978-2.198 4.396-2.198 4.396.989 4.396 2.198-1.978 2.198-4.396 2.198zm-39.56-2.545c-3.022 0-4.258-.499-2.747-1.109 1.511-.61 3.983-.61 5.495 0s.275 1.109-2.747 1.109zm14.415.347c-3.093 0-5.624-.989-5.624-2.198s1.92-2.198 4.266-2.198 4.877.989 5.624 2.198c.77 1.246-1.076 2.198-4.266 2.198zm11.958-.347c-3.022 0-4.258-.499-2.747-1.109 1.511-.61 3.983-.61 5.495 0s.275 1.109-2.747 1.109zm-26.138-21.97c6.87-.053 10.75-1.038 10.75-2.729 0-1.455-.742-3.607-1.648-4.78-.907-1.174.213-.135 2.488 2.308 2.275 2.443 5.089 4.164 6.252 3.823 1.163-.34 6.72-1.135 12.347-1.766s11.304-2.543 12.615-4.25c1.421-1.85 3.196-2.302 4.396-1.121 1.196 1.178 5.353.929 10.253-.614 4.533-1.428 8.242-3.617 8.242-4.866s-1.559-4.715-3.464-7.704c-2.667-4.183-2.21-3.97 1.984.927 3.616 4.222 6.671 5.892 9.086 4.965 3.192-1.225 2.915-2.409-2.256-9.658l-5.894-8.262 6.729 7.692c5.196 5.939 7.328 7.099 9.357 5.091 2.034-2.014.78-5.119-5.556-13.749-4.501-6.131-10.145-12.522-12.543-14.202-2.398-1.68-3.43-3.628-2.295-4.33 1.136-.702 3.774.611 5.862 2.919s5.029 3.723 6.535 3.145c1.506-.578 4.007.478 5.557 2.346 1.55 1.868 1.907 3.397.792 3.397s-3.355-1.236-4.977-2.747c-1.622-1.511-1.078.543 1.209 4.564s5.257 8.232 6.6 9.356c1.768 1.48 2.507-5.691 2.678-25.993.129-15.421-.346-31.298-1.057-35.282-1.157-6.485-1.669-6.915-4.875-4.102-1.97 1.728-7.588 5.155-12.483 7.614s-16.474 6.036-25.731 7.948c-9.338 1.929-27.502 3.477-40.799 3.477-13.183 0-29.223-.997-35.646-2.215-6.423-1.218-17.189-4.879-23.926-8.136-6.737-3.257-12.999-6.301-13.915-6.766-.917-.464-1.014 12.345-.217 28.466.797 16.12 2.38 29.919 3.518 30.664 1.229.804.898 3.227-.815 5.97-2.561 4.101-2.17 5.36 3.505 11.283 3.513 3.667 7.313 6.668 8.444 6.668 1.131 0 .77-1.731-.801-3.846-1.571-2.115-.169-1.126 3.116 2.198s7.17 6.12 8.632 6.212c1.462.092 4.636.735 7.054 1.429 2.418.693 9.639 1.493 16.048 1.777 6.409.284 12.203 1.067 12.876 1.74s6.061 1.186 11.974 1.141zm-29.779-6.255c-.533 0-1.675-1.142-2.537-2.537-.972-1.572-.603-1.941.969-.969 1.396.863 2.537 2.004 2.537 2.537 0 .533-.436.969-.969.969zm13.278 0c-.608 0-7.582-9.29-15.498-20.644-7.916-11.354-14.393-21.623-14.393-22.82 0-1.197 1.978-2.694 4.396-3.326s4.396-.359 4.396.607-1.521 2.34-3.379 3.054c-2.662 1.022-.305 5.737 11.102 22.213 7.965 11.504 13.984 20.916 13.377 20.916zm13.09 0c-.599 0-6.311-7.63-12.694-16.957-6.383-9.326-12.396-18.227-13.363-19.78-.967-1.553-1.239-2.823-.606-2.823s7.136 8.901 14.451 19.78c7.315 10.879 12.81 19.78 12.211 19.78zm26.424 0c-.562 0-7.622-9.643-15.687-21.428-8.066-11.786-15.203-22.912-15.86-24.725-.657-1.813-.687-2.802-.065-2.198.621.604 8.219 11.731 16.883 24.725 8.664 12.994 15.293 23.626 14.73 23.626zm10.814 0c-.604 0-1.099-.494-1.099-1.099 0-.604.494-1.099 1.099-1.099.604 0 1.099.494 1.099 1.099 0 .604-.495 1.099-1.099 1.099zm-79.12-4.396c-.604 0-1.099-.495-1.099-1.099s.495-1.099 1.099-1.099 1.099.494 1.099 1.099c0 .604-.494 1.099-1.099 1.099zm77.242 0c-.484 0-1.837-1.236-3.005-2.747-1.169-1.511-2.832-3.983-3.696-5.495-.864-1.511-1.132-2.747-.595-2.747.537 0 2.596 2.473 4.576 5.495 1.98 3.022 3.204 5.495 2.72 5.495zm-66.253-2.198c-.604 0-1.099-.494-1.099-1.099 0-.604.494-1.099 1.099-1.099.604 0 1.099.494 1.099 1.099 0 .604-.495 1.099-1.099 1.099zm39.844 0c-.464 0-1.828-1.236-3.031-2.747s-6.805-9.546-12.449-17.856c-5.644-8.31-9.882-15.49-9.416-15.956.466-.466 6.448 7.569 13.293 17.856 6.846 10.287 12.067 18.703 11.602 18.703zm37.348 0c-.456 0-2.187-1.731-3.846-3.846-2.734-3.486-2.656-3.563.83-.83 2.115 1.659 3.846 3.39 3.846 3.846 0 .456-.373.83-.83.83zm13.295 0c-.534 0-2.647-2.558-4.695-5.685-2.049-3.127-3.347-6.063-2.885-6.526.462-.462 2.575 2.096 4.695 5.685 2.12 3.589 3.418 6.526 2.885 6.526zm-97.08-8.791c-.604 0-1.099-.494-1.099-1.099 0-.604.494-1.099 1.099-1.099.604 0 1.099.495 1.099 1.099s-.494 1.099-1.099 1.099zm77.052 0c-.533 0-1.675-1.142-2.537-2.537-.972-1.572-.603-1.941.969-.969 1.396.863 2.537 2.004 2.537 2.537 0 .533-.436.969-.969.969zm-90.109-2.198c-.533 0-1.675-1.142-2.537-2.537-.972-1.572-.603-1.941.969-.969 1.396.863 2.537 2.004 2.537 2.537 0 .533-.436.969-.969.969zm76.974 0c-.539 0-2.864-2.72-5.165-6.044-2.302-3.324-4.9-7.28-5.774-8.791-.874-1.511-1.167-2.747-.652-2.747s3.554 3.956 6.754 8.791 5.377 8.791 4.837 8.791zm-67.982-4.396c-.508 0-2.623-2.594-4.701-5.765s-2.691-5.094-1.363-4.273c1.328.821 3.443 3.415 4.701 5.765 1.258 2.35 1.871 4.273 1.363 4.273zm76.912 0c-.484 0-1.837-1.236-3.005-2.747-1.169-1.511-2.832-3.983-3.696-5.495-.864-1.511-1.132-2.747-.595-2.747.537 0 2.596 2.473 4.576 5.495 1.98 3.022 3.204 5.495 2.72 5.495zm13.233-.733c-.806.806-1.465.147-1.465-1.465s.659-2.271 1.465-1.465c.806.806.806 2.124 0 2.93zm12.95.733c-.533 0-1.675-1.142-2.537-2.537-.972-1.572-.603-1.941.969-.969 1.396.863 2.537 2.004 2.537 2.537 0 .533-.436.969-.969.969zm-116.48-2.19c-.533 0-1.675-1.142-2.537-2.537-.972-1.572-.603-1.941.969-.969 1.395.863 2.537 2.004 2.537 2.537 0 .533-.436.969-.969.969zm112.14-4.396c-.798 0-4.133-4.419-7.411-9.821-3.278-5.401-7.196-9.852-8.707-9.89s-2.747-1.058-2.747-2.267c0-1.209.742-2.183 1.648-2.164.907.018 2.658.76 3.891 1.648 1.233.888 3.443 4.087 4.912 7.109 1.468 3.022 4.288 7.72 6.267 10.439 1.979 2.72 2.945 4.945 2.147 4.945zm11.018 0c-.392 0-3.455-3.956-6.806-8.791s-6.947-8.791-7.991-8.791c-1.044 0-1.899-.896-1.899-1.992s1.731-1.497 3.846-.893c2.115.605 6.032 5.457 8.704 10.783 2.672 5.326 4.537 9.684 4.145 9.684zm-129.88-2.2c-1.813 0-3.297-.373-3.297-.83s1.484-2.061 3.297-3.566c2.7-2.241 3.297-2.091 3.297.83 0 1.961-1.484 3.566-3.297 3.566zm105.77 0c-.381 0-2.202-1.731-4.047-3.846-1.845-2.115-4.536-6.127-5.979-8.915-1.443-2.788-4.785-5.939-7.425-7.003-4.514-1.819-4.44-1.943 1.243-2.074 3.7-.085 6.044 1.02 6.044 2.851 0 1.645 2.443 6.59 5.428 10.989 2.986 4.399 5.117 7.999 4.736 7.999zm-92.69-7.16c-1.88 1.732-3.453 1.926-4.313.534-.745-1.205.234-2.801 2.176-3.546 1.942-.745 3.883-.985 4.313-.534.43.452-.549 2.047-2.176 3.546zm74.901 2.769c-.621 0-3.364-3.449-6.095-7.665s-6.26-7.677-7.842-7.692c-1.582-.015-2.32-.928-1.64-2.029.681-1.101 2.882-1.761 4.892-1.466 2.01.295 3.904 2.236 4.209 4.314.305 2.078 2.141 6.199 4.08 9.158s3.017 5.38 2.396 5.38zm-15.28-4.396c-.645 0-2.754-2.414-4.687-5.364-1.933-2.95-5.664-5.782-8.292-6.294-4.231-.824-4.14-.965.792-1.23 4.032-.217 6.645 1.521 9.465 6.294 2.142 3.626 3.367 6.593 2.722 6.593zm-39.735-2.198c-.604 0-1.099-.495-1.099-1.099s.494-1.099 1.099-1.099c.604 0 1.099.494 1.099 1.099 0 .604-.494 1.099-1.099 1.099zm1.938-4.396c-1.813 0-2.685-.989-1.938-2.198.747-1.209 2.842-2.198 4.655-2.198s2.685.989 1.938 2.198c-.747 1.209-2.842 2.198-4.655 2.198zm13.647-1.698c-3.792.725-4.972.174-4.16-1.942.623-1.625 3.006-2.954 5.294-2.954s4.16.874 4.16 1.942-2.382 2.397-5.294 2.954zm30.57-26.298c9.67-.59 24.678-2.876 33.35-5.081 8.672-2.205 19.78-6.541 24.684-9.637 5.394-3.405 9.497-7.946 10.388-11.496 1.203-4.792.213-6.993-5.398-12.007-3.779-3.377-14.066-8.4-22.86-11.164-13.582-4.269-20.786-5.025-47.857-5.025-27.532 0-33.961.698-47.252 5.131-8.461 2.822-18.671 7.151-22.687 9.619-4.017 2.468-8.22 6.9-9.341 9.848-1.308 3.44-1.222 6.884.239 9.615 1.252 2.34 7.049 6.673 12.882 9.629 5.833 2.956 16.924 6.407 24.646 7.67 7.723 1.262 17.997 2.672 22.832 3.133 4.835.461 16.703.355 26.373-.235zm207.69 158.77c-16.319.475-34.615.04-40.659-.968-6.044-1.008-16.786-4.032-23.871-6.721-7.085-2.689-15.963-7.643-19.73-11.009l-6.848-6.119-.697-84.29c-.552-66.685-.091-85.438 2.207-89.785 1.652-3.127 8.835-8.457 16.668-12.368 7.57-3.781 19.906-8.085 27.413-9.566 7.507-1.481 24.034-2.677 36.726-2.659 12.923.019 30.33 1.603 39.56 3.601 9.066 1.962 20.683 5.596 25.815 8.076 5.133 2.48 11.267 6.969 13.632 9.976 4.044 5.141 4.318 9.554 4.6 73.983.165 37.684.459 76.159.653 85.499.323 15.512-.132 17.468-5.248 22.584-3.081 3.081-13.465 8.594-23.077 12.252-15.62 5.944-20.626 6.742-47.145 7.514zm2.198-2.649c10.275-.547 24.026-2.384 30.558-4.082s16.045-5.105 21.138-7.57c5.093-2.466 10.969-6.371 13.057-8.678 2.805-3.1 3.806-8.107 3.834-19.175.02-8.239-.074-43.347-.209-78.018l-.247-63.038-10.932 7.356c-6.012 4.046-13.924 8.014-17.582 8.817-5.251 1.153-6.72 2.696-6.98 7.33l-.329 5.869-.89-5.783c-.837-5.437-1.376-5.677-9.011-4.012-4.466.974-14.988 2.343-23.38 3.043-8.481.707-16.032 2.49-16.999 4.012-1.222 1.925-1.75 1.548-1.774-1.267-.022-2.607-1.362-3.751-3.835-3.275-2.735.527-5.281 6.143-9.077 20.022-2.902 10.609-5.691 18.875-6.198 18.368-.507-.507 1.478-9.444 4.412-19.86 5.097-18.097 5.15-18.939 1.208-18.939-2.269 0-4.126 1.178-4.126 2.618s-1.343.782-2.984-1.463c-2.9-3.966-3.052-3.963-5.428.129-2.195 3.782-2.451 3.819-2.511.364-.037-2.115-.97-3.846-2.074-3.846-1.104 0-1.999 10.632-1.988 23.626.018 22.051.214 23.113 2.939 15.934 1.606-4.231 2.995-6.424 3.087-4.874.092 1.55-1.316 6.368-3.13 10.708-1.813 4.34-3.281 13.951-3.263 21.358.024 9.506.66 12.498 2.164 10.171 1.172-1.813 2.146-2.619 2.164-1.791.018.828-.956 4.109-2.166 7.292s-1.581 9.657-.824 14.389c.815 5.098 2.3 8.031 3.645 7.2 1.483-.916 1.688.431.592 3.886-.923 2.909-2.058 12.212-2.523 20.673-.829 15.082-.785 15.233 2.263 7.692 1.71-4.231 3.184-6.58 3.276-5.221.092 1.359-1.316 6.676-3.13 11.815-1.813 5.139-3.297 9.714-3.297 10.166 0 .452.918.823 2.041.823s3.595-1.554 5.494-3.454c3.044-3.044 3.454-3.057 3.454-.109 0 1.839-1.717 4.305-3.815 5.479-3.374 1.888-3.183 2.278 1.648 3.369 3.005.679 9.419 1.619 14.255 2.088 4.835.469 17.198.406 27.472-.141zm-34.745-11.699c-3.263-.061-3.2-.461.519-3.274 2.329-1.762 4.654-2.786 5.165-2.274.511.511.278 1.985-.519 3.274s-3.121 2.313-5.165 2.274zm-3.35-7.256c-.806.806-1.465.146-1.465-1.465s.659-2.271 1.465-1.465c.806.806.806 2.124 0 2.93zm20.513-1.465c-2.418 1.294-4.396 1.526-4.396.517 0-1.01 1.187-3.022 2.637-4.473s3.429-2.637 4.396-2.637c.967 0 1.758.954 1.758 2.12 0 1.166-1.978 3.179-4.396 4.473zm-9.89 0c-.604 0-1.099-.494-1.099-1.099 0-.604.494-1.099 1.099-1.099.604 0 1.099.494 1.099 1.099 0 .604-.494 1.099-1.099 1.099zm-7.692-7.692c-1.191 2.771-1.889 3.177-1.889 1.099 0-1.813.85-5.275 1.889-7.692 1.191-2.771 1.889-3.177 1.889-1.099 0 1.813-.85 5.275-1.889 7.692zm9.642.916c-.468.504-.851-.081-.851-1.299s1.473-7.07 3.273-13.004c1.8-5.934 3.284-11.994 3.297-13.467.013-1.473-1.36-2.147-3.051-1.498-1.691.649-3.727.123-4.525-1.168-.905-1.464 1.014-2.348 5.103-2.348h6.554l-4.474 15.934c-2.461 8.764-4.857 16.346-5.325 16.85zm20.561-1.742c-2.106 1.179-3.798 1.352-3.76.386.038-.967 1.443-3.569 3.12-5.783 1.678-2.214 4.218-8.89 5.644-14.835s3.236-10.795 4.022-10.776c.786.018 2.749.87 4.362 1.893 2.257 1.43 1.945 2.118-1.351 2.979-2.84.743-4.903 3.993-6.12 9.646-1.01 4.689-1.894 9.835-1.963 11.436-.069 1.601-1.849 3.876-3.955 5.054zm-37.529-5.401c-.806.806-1.465.146-1.465-1.465s.659-2.271 1.465-1.465c.806.806.806 2.124 0 2.93zm29.072-.476c-1.242 1.319-1.905 1.319-1.799 0 .092-1.148 1.567-5.549 3.277-9.78l3.11-7.692-1.311 7.692c-.721 4.231-2.196 8.632-3.277 9.78zm19.669-1.023c-.793.018-.298-2.394 1.099-5.361 2.16-4.586 2.743-4.833 3.889-1.648.742 2.06.247 4.472-1.099 5.361-1.346.888-3.096 1.63-3.889 1.648zm-46.681-4.957c-.73.73-1.25-.568-1.154-2.885.105-2.56.626-3.081 1.328-1.328.635 1.587.557 3.482-.173 4.212zm9.661-2.701c-1.889 4.396-1.889 4.396-2.01 0-.066-2.418.838-5.879 2.01-7.692 1.894-2.93 2.117-2.93 2.01 0-.066 1.813-.971 5.275-2.01 7.692zm92.576 3.297c-1.061 0-3.16-1.484-4.665-3.297s-2.201-3.297-1.548-3.297c.654 0 2.753.6 4.665 1.334 1.912.734 3.476 2.217 3.476 3.297 0 1.079-.868 1.963-1.929 1.963zm-44.774-2.231c-.907.018-1.648-.85-1.648-1.929 0-1.079 1.484-2.532 3.297-3.228 1.813-.696 3.297-2.664 3.297-4.374 0-1.71-1.978-3.627-4.396-4.259-2.418-.632-4.38-2.478-4.362-4.102.027-2.392.402-2.371 1.973.109 1.117 1.764 3.856 2.561 6.458 1.881 4.036-1.056 4.376-.444 3.176 5.729-.739 3.801-2.424 7.637-3.745 8.525-1.321.888-3.143 1.63-4.05 1.648zm33.236-4.432c-1.967.038-4.808-1.414-6.313-3.227s-1.815-3.297-.689-3.297 3.967 1.452 6.313 3.227c3.584 2.711 3.694 3.238.689 3.297zm-87.141-5.425c-1.795 3.09-2.564 3.416-2.588 1.099-.018-1.813 1.419-7.253 3.195-12.088l3.228-8.791-.641 7.692c-.353 4.231-1.79 9.67-3.195 12.088zm49.327 2.564c-.806.806-1.465.146-1.465-1.465s.659-2.271 1.465-1.465c.806.806.806 2.124 0 2.93zm19.018-.54c-4.535 1.393-4.656 1.113-2.265-5.221 1.389-3.681 3.183-6.693 3.986-6.693.803 0 2.03 2.182 2.728 4.849.697 2.667 1.06 5.017.806 5.221-.254.205-2.619 1.034-5.254 1.844zm-38.343-4.651c-.757.945-1.962.191-2.678-1.674-.934-2.433.076-3.382 3.575-3.358 2.682.018 3.887.772 2.678 1.674-1.209.902-2.817 2.413-3.575 3.358zm-38.37-5.248c-.502.504-.913.243-.913-.58s2.61-10.905 5.8-22.404c3.19-11.5 6.205-20.504 6.7-20.009.495.495-1.705 10.165-4.888 21.489s-6.198 21.001-6.7 21.505zm41.708-7.509c-1.658 3.626-2.508 4.507-1.889 1.956.62-2.55 2.555-8.979 4.3-14.286 2.744-8.341 3-8.606 1.889-1.956-.707 4.231-2.642 10.659-4.3 14.286zm9.83 2.198c-1.32 3.018-1.486 1.984-.529-3.297.767-4.231 2.26-9.67 3.318-12.088 1.32-3.018 1.486-1.984.529 3.297-.767 4.231-2.26 9.67-3.318 12.088zm-29.374-5.495c-1.629 4.231-2.962 6.209-2.962 4.396 0-1.813 1.333-6.758 2.962-10.989 1.629-4.231 2.962-6.209 2.962-4.396 0 1.813-1.333 6.758-2.962 10.989zm44.161-8.791c-2.895 9.066-5.362 15.439-5.482 14.162-.12-1.276 2.189-10.178 5.132-19.78 2.942-9.602 5.409-15.976 5.482-14.162.073 1.813-2.236 10.714-5.132 19.78zm6.78 12.759c-.54 2.048-1.096 2.552-1.237 1.12-.14-1.432.732-5.201 1.939-8.374 1.206-3.173 3.184-5.157 4.396-4.409 1.211.748 2.202 3.386 2.202 5.862 0 3.011-1.046 4.1-3.159 3.289-1.835-.704-3.57.349-4.141 2.512zm-40.101-6.166l-3.11 7.692 1.365-7.692c.751-4.231 2.163-9.67 3.138-12.088 1.773-4.396 1.773-4.396 1.746 0-.015 2.418-1.427 7.857-3.138 12.088zm-18.533-3.297c-1.191 2.771-1.889 3.177-1.889 1.099 0-1.813.85-5.275 1.889-7.692 1.191-2.771 1.889-3.177 1.889-1.099 0 1.813-.85 5.275-1.889 7.692zm63.736-5.495c-1.209 0-2.198-1.978-2.198-4.396s.989-4.396 2.198-4.396 2.198 1.978 2.198 4.396-.989 4.396-2.198 4.396zm-50.549-7.692c-1.191 2.771-1.889 3.177-1.889 1.099 0-1.813.85-5.275 1.889-7.692 1.191-2.771 1.889-3.177 1.889-1.099 0 1.813-.85 5.275-1.889 7.692zm30.769 0c-1.191 2.771-1.889 3.177-1.889 1.099 0-1.813.85-5.275 1.889-7.692 1.191-2.771 1.889-3.177 1.889-1.099 0 1.813-.85 5.275-1.889 7.692zm-58.241-5.495c-1.629 4.231-2.962 6.209-2.962 4.396 0-1.813 1.333-6.758 2.962-10.989 1.629-4.231 2.962-6.209 2.962-4.396 0 1.813-1.333 6.758-2.962 10.989zm17.811 5.998c-.73.73-1.25-.568-1.154-2.885.105-2.56.626-3.081 1.328-1.328.635 1.587.557 3.482-.173 4.212zm21.549-9.295c-2.303 6.48-2.812 7.058-1.937 2.198.653-3.626 4.766-18.722 9.14-33.546s8.405-26.501 8.957-25.949c.552.552-2.155 11.692-6.017 24.755s-8.426 27.708-10.144 32.543zm11.302-1.099c-1.714 5.439-3.107 7.912-3.096 5.495.011-2.418 1.353-7.857 2.982-12.088 1.629-4.231 3.022-6.703 3.096-5.495.074 1.209-1.268 6.648-2.982 12.088zm-29.784-1.099c-1.191 2.771-1.889 3.177-1.889 1.099 0-1.813.85-5.275 1.889-7.692 1.191-2.771 1.889-3.177 1.889-1.099 0 1.813-.85 5.275-1.889 7.692zm57.142 3.297c-1.209 0-2.198-1.978-2.198-4.396s.989-4.396 2.198-4.396 2.198 1.978 2.198 4.396-.989 4.396-2.198 4.396zm-16.75-4.396c-.458 0-.832-1.437-.832-3.193s.921-5.465 2.046-8.242 4.121-12.219 6.657-20.982c2.536-8.764 5.455-15.934 6.488-15.934s2.395 1.977 3.027 4.393c.632 2.416.328 4.901-.676 5.521-1.004.62-2.183-.615-2.621-2.745-.438-2.13-3.6 6.264-7.026 18.654s-6.605 22.527-7.063 22.527zm-30.136-2.93c-.806.806-1.465.147-1.465-1.465s.659-2.271 1.465-1.465c.806.806.806 2.124 0 2.93zm41.758 0c-.806.806-1.465.147-1.465-1.465s.659-2.271 1.465-1.465c.806.806.806 2.124 0 2.93zm-59.478-2.06c-.73.73-1.25-.568-1.154-2.885.105-2.56.626-3.081 1.328-1.328.635 1.587.557 3.482-.173 4.212zm-8.791-4.396c-.73.73-1.25-.568-1.154-2.885.105-2.56.626-3.081 1.328-1.328.635 1.587.557 3.482-.173 4.212zm29.441-2.701c-1.245 2.898-1.93 3.273-2.01 1.099-.066-1.813.838-4.78 2.01-6.593 1.172-1.813 2.076-2.308 2.01-1.099s-.971 4.176-2.01 6.593zm41.827 3.297c-1.247 0-2.252-.742-2.233-1.648.018-.907.954-3.103 2.078-4.881 1.125-1.778 2.715-2.563 3.534-1.743.819.819.904 3.016.188 4.881-.716 1.865-2.321 3.392-3.568 3.392zm-48.42-12.088c-2.23 6.044-4.118 10-4.195 8.791-.077-1.209 1.734-8.132 4.025-15.384 2.291-7.253 4.179-11.209 4.195-8.791.018 2.418-1.795 9.341-4.025 15.384zm-8.766-4.396c-2.371 7.253-3.716 9.761-2.989 5.573.727-4.187 2.611-11.11 4.186-15.384s2.92-6.782 2.989-5.573c.069 1.209-1.815 8.132-4.186 15.384zm36.238 12.088c-.604 0-1.099-.494-1.099-1.099 0-.604.494-1.099 1.099-1.099.604 0 1.099.494 1.099 1.099 0 .604-.494 1.099-1.099 1.099zm6.69-23.077c-2.911 9.67-5.354 16.099-5.43 14.286-.075-1.813 2.232-10.714 5.127-19.78 2.895-9.066 5.339-15.494 5.43-14.286.091 1.209-2.216 10.11-5.127 19.78zm-20.89 0c-2.335 7.253-4.222 11.209-4.193 8.791.029-2.418 1.877-9.341 4.107-15.384 2.23-6.044 4.117-10 4.193-8.791.076 1.209-1.772 8.132-4.107 15.384zm37.14 12.088c-1.134 0-2.061-1.978-2.061-4.396s.779-4.396 1.73-4.396c.952 0 1.879 1.978 2.061 4.396.182 2.418-.596 4.396-1.73 4.396zm-76.786-7.692c-1.191 2.771-1.889 3.177-1.889 1.099 0-1.813.85-5.275 1.889-7.692 1.191-2.771 1.889-3.177 1.889-1.099 0 1.813-.85 5.275-1.889 7.692zm32.94-12.102c-1.172 1.813-2.076 2.308-2.01 1.099.066-1.209.971-4.176 2.01-6.593 1.245-2.898 1.93-3.273 2.01-1.099.066 1.813-.838 4.78-2.01 6.593zm-38.232-.595c-.73.73-1.25-.568-1.154-2.885.105-2.56.626-3.081 1.328-1.328.635 1.587.557 3.482-.173 4.212zm8.791 0c-.73.73-1.25-.568-1.154-2.885.105-2.56.626-3.081 1.328-1.328.635 1.587.557 3.482-.173 4.212zm19.917-.137c-.806.806-1.465.147-1.465-1.465s.659-2.271 1.465-1.465c.806.806.806 2.124 0 2.93zm-34.96 141.23c2.174.121 2.521-8.037 1.605-37.757-.643-20.851-1.627-50.274-2.187-65.384-.56-15.11-1.035-33.654-1.055-41.208-.029-10.944-.731-13.736-3.454-13.736-1.879 0-7.566-1.996-12.637-4.434-5.071-2.439-10.903-5.618-12.961-7.065-2.057-1.447-4.037-2.171-4.399-1.609-.362.562-.333 32.004.064 69.872.612 58.441 1.194 68.67 3.849 67.651 1.72-.66 3.128-.599 3.128.137 0 .735-1.515 2.445-3.366 3.799-2.753 2.013-2.923 3.734-.934 9.438 1.338 3.837 4.924 8.609 7.97 10.605 3.046 1.996 9.153 4.958 13.572 6.583 4.418 1.625 9.281 3.024 10.807 3.11zm-20.107-37.414c-1.881 1.561-3.672 1.78-4.436.543-.705-1.141.337-2.696 2.317-3.455 1.979-.76 3.975-1.004 4.436-.543.461.461-.582 2.015-2.317 3.455zm6.345-4.413c-1.209.047-.321-1.336 1.972-3.072s5.195-2.523 6.447-1.749c1.314.812.48 2.111-1.972 3.072-2.337.915-5.239 1.702-6.447 1.749zm43.4-114.53c3.884.11 7.81-.976 8.725-2.414 1.166-1.833 1.672-1.871 1.696-.126.02 1.424 4.03 2.577 9.374 2.696 5.137.114 17.661-1.315 27.83-3.175s22.532-5.411 27.472-7.889c4.941-2.478 11.208-6.544 13.928-9.036 2.72-2.492 4.945-5.766 4.945-7.276s-2.516-5.735-5.591-9.389c-3.075-3.654-10.566-8.5-16.647-10.769-11.043-4.12-11.069-4.119-21.332.816-8.235 3.959-10.826 6.61-13.046 13.347-2.63 7.979-2.716 8.039-1.686 1.176.943-6.284.6-6.96-2.62-5.158-2.038 1.14-4.949 5.878-6.47 10.528-2.599 7.948-2.691 8.015-1.535 1.118 1.157-6.903.957-7.19-3.383-4.868-2.537 1.358-4.628 4.165-4.646 6.237-.024 2.706-.526 2.994-1.778 1.022-1.379-2.172-2.612-2.113-5.892.286-2.281 1.668-5.378 6.86-6.882 11.538l-2.734 8.505 1.223-8.3 1.223-8.3-13.442 8.008c-7.393 4.404-13.442 8.226-13.442 8.493 0 .267 3.602.621 8.003.787 4.402.165 8.373.67 8.824 1.121.451.451 3.999.911 7.883 1.021zm21.443-7.226c-1.191 2.771-1.889 3.177-1.889 1.099 0-1.813.85-5.275 1.889-7.692 1.191-2.771 1.889-3.177 1.889-1.099 0 1.813-.85 5.275-1.889 7.692zm9.89-3.297c-1.629 4.231-2.962 6.209-2.962 4.396 0-1.813 1.333-6.758 2.962-10.989 1.629-4.231 2.962-6.209 2.962-4.396 0 1.813-1.333 6.758-2.962 10.989zm-39.194 3.663c-.806.806-1.465.147-1.465-1.465s.659-2.271 1.465-1.465c.806.806.806 2.124 0 2.93zm20.513-2.564c-1.191 2.771-1.889 3.177-1.889 1.099 0-1.813.85-5.275 1.889-7.692 1.191-2.771 1.889-3.177 1.889-1.099 0 1.813-.85 5.275-1.889 7.692zm45.055 3.297c-.604 0-1.175-.247-1.267-.549-.092-.302-.499-2.276-.903-4.387-.404-2.111.166-4.394 1.267-5.075s2.002 1.294 2.002 4.387c0 3.093-.494 5.624-1.099 5.624zm-17.886-2.198c-.6 0-.593-1.731.015-3.846l3.797-13.201c1.48-5.145 3.085-8.96 3.567-8.478.482.482-.735 6.423-2.706 13.201-1.97 6.778-4.073 12.324-4.673 12.324zm11.659-.733c-.806.806-1.465.147-1.465-1.465s.659-2.271 1.465-1.465c.806.806.806 2.124 0 2.93zm3.921-10.933c-3.075 3.075-3.238 2.793-1.679-2.904.95-3.47 1.563-9.524 1.364-13.452-.2-3.929.556-7.143 1.679-7.143s2.042 4.521 2.042 10.047c0 6.143-1.323 11.37-3.405 13.452zm-6.256-17.501c-.73.73-1.25-.568-1.154-2.885.105-2.56.626-3.081 1.328-1.328.635 1.587.557 3.482-.173 4.212zm-80.309 33.51c.681.029 7.604-3.731 15.384-8.355 7.781-4.624 25.818-15.185 40.083-23.469 14.265-8.284 26.382-15.782 26.926-16.662.544-.88-8.655-2.328-20.442-3.217-13.511-1.019-28.741-.651-41.211.996-11.435 1.511-24.877 4.941-31.861 8.132-6.645 3.035-14.31 7.612-17.033 10.17-2.723 2.558-4.952 6.763-4.952 9.343s1.236 6.376 2.747 8.435 8.681 6.181 15.934 9.159c7.253 2.978 13.744 5.438 14.424 5.467zm304.39 131.12c-8.528.376-20.565-.603-26.75-2.175-6.185-1.572-15.744-5.495-21.244-8.718-5.499-3.223-13.577-10.04-17.95-15.149-4.373-5.109-10.637-14.759-13.921-21.444-5.222-10.633-5.969-14.768-5.969-33.034 0-18.054.797-22.579 5.89-33.446 3.24-6.912 10.425-17.416 15.968-23.342 6.238-6.669 15.3-13.186 23.78-17.103 12.053-5.567 16.213-6.329 34.581-6.329 18.133 0 22.469.771 32.967 5.862 6.648 3.224 16.148 9.652 21.111 14.286 4.963 4.633 11.042 11.401 13.511 15.04 2.468 3.639 6.567 12.95 9.109 20.692 2.542 7.742 4.609 18.611 4.595 24.153-.015 5.542-1.369 15.12-3.011 21.285-1.642 6.165-5.536 15.56-8.655 20.879-3.119 5.319-9.428 13.327-14.022 17.797-4.594 4.47-14.232 10.812-21.418 14.094-9.354 4.272-17.471 6.161-28.571 6.651zm.563-2.855c7.957-.525 18.732-3.092 25.275-6.021 6.272-2.808 16.047-9.232 21.721-14.277 5.674-5.045 10.911-11.047 11.639-13.339.821-2.588-2.096-10.966-7.699-22.11-4.962-9.869-8.206-17.439-7.21-16.823.996.616 5.202 8.128 9.346 16.694 4.144 8.566 8.332 15.574 9.307 15.574.975 0 1.922-1.484 2.103-3.297.181-1.813.429-4.533.549-6.044s1.466-4.064 2.988-5.673c1.523-1.609 2.77-5.565 2.771-8.791.001-3.226.132-7.844.29-10.261.158-2.418-.225-9.415-.85-15.551-.626-6.135-3.255-15.941-5.843-21.79-2.766-6.253-9.855-15.467-17.204-22.361-6.875-6.449-13.287-11.726-14.249-11.726-.962 0-1.75.56-1.75 1.243 0 .684 1.044 3.404 2.319 6.044 2.24 4.637 2.203 4.655-1.099.534-1.88-2.346-3.418-5.455-3.418-6.908s-1.731-3.345-3.846-4.204c-2.115-.86-6.813-2.475-10.439-3.59-3.626-1.115-10.797-2.545-15.934-3.177-5.137-.632-9.341-.573-9.341.132s2.54 6.293 5.644 12.419 4.787 10.608 3.74 9.961c-1.047-.647-4.251-6.187-7.119-12.31-2.868-6.123-5.787-11.118-6.487-11.1-.7.018-2.611.882-4.247 1.918-2.35 1.489-2.44 2.98-.428 7.109 2.383 4.89 2.332 4.959-.793 1.067-1.836-2.287-3.637-5.053-4.002-6.147-.365-1.094-4.604-.355-9.42 1.641s-9.025 3.877-9.352 4.178c-.328.301 13.271 27.04 30.22 59.419 16.948 32.379 30.811 59.474 30.807 60.21-.005.736-1.808-1.629-4.008-5.255s-16.109-29.835-30.909-58.241-27.743-52.499-28.762-53.538c-1.022-1.043-6.931 3.135-13.181 9.32-6.747 6.676-10.69 12.245-9.748 13.768.958 1.551.625 1.967-.846 1.058-1.335-.825-3.511.526-4.837 3.002-1.325 2.476-1.717 5.624-.87 6.995.881 1.425.566 1.89-.735 1.086-1.366-.844-3.655 4.071-5.727 12.297-3.028 12.022-3.061 14.301-.262 18.571 1.754 2.677 3.19 5.586 3.19 6.464 0 .878-1.482-.324-3.294-2.67-3.031-3.926-3.189-3.477-1.975 5.624.726 5.439 4.075 15.946 7.444 23.348 3.369 7.402 9.812 17.539 14.318 22.527 4.506 4.988 9.084 9.069 10.173 9.069 1.089 0-.527-4.945-3.589-10.989-3.063-6.044-5.072-10.989-4.464-10.989.607 0 4.118 5.97 7.801 13.267 4.532 8.978 8.627 14.04 12.669 15.658 3.285 1.315 7.95 3.216 10.368 4.224s6.868 2.247 9.89 2.753c3.022.506 11.736.508 19.365.004zm-19.748-4.021c-.457.457-7.033-10.981-14.613-25.417-7.58-14.437-13.307-26.248-12.727-26.248.581 0 7.157 11.438 14.613 25.417 7.457 13.979 13.184 25.791 12.727 26.248zm13.146.041c-.677.677-1.906-.543-2.731-2.711-1.193-3.132-.94-3.385 1.23-1.23 1.502 1.491 2.177 3.264 1.501 3.941zm12.512 1.041c-.604 0-1.099-.494-1.099-1.099 0-.604.494-1.099 1.099-1.099.604 0 1.099.494 1.099 1.099 0 .604-.494 1.099-1.099 1.099zm11.604-3.179c-.51.51-3.107-3.156-5.771-8.148s-4.501-9.419-4.081-9.838c.42-.42 3.017 3.247 5.771 8.148 2.755 4.901 4.591 9.328 4.081 9.838zm-51.101-1.216c-.604 0-4.094-5.934-7.755-13.187-3.661-7.253-6.162-13.187-5.558-13.187.604 0 4.094 5.934 7.755 13.187 3.661 7.253 6.162 13.187 5.558 13.187zm37.429 0c-.533 0-1.675-1.142-2.537-2.537-.972-1.572-.603-1.941.969-.969 1.396.863 2.537 2.004 2.537 2.537 0 .533-.436.969-.969.969zm22.518-3.234c-.414.414-2.496-2.284-4.626-5.996-2.13-3.712-3.421-7.202-2.868-7.755.553-.553 2.635 2.145 4.626 5.996s3.282 7.341 2.868 7.755zm-37.8-1.161c-.517 0-6.117-9.643-12.445-21.428-6.328-11.786-18.855-35.522-27.839-52.747-8.983-17.225-15.853-31.318-15.265-31.318.588 0 10.931 18.544 22.986 41.208 12.055 22.665 24.524 46.401 27.71 52.747 3.186 6.346 5.37 11.538 4.853 11.538zm11.216-3.024c-.344.344-1.665-1.06-2.934-3.12s-8.033-14.625-15.031-27.922c-6.998-13.297-16.149-30.432-20.336-38.078-4.188-7.646-7.091-14.425-6.452-15.064.639-.639 5.573 7.595 10.965 18.298s15.34 29.765 22.109 42.36c6.768 12.595 12.024 23.182 11.679 23.526zm37.458-.096c-.477.477-2.512-2.582-4.522-6.798-2.01-4.216-3.202-7.665-2.648-7.665s2.589 3.059 4.522 6.798 3.125 7.188 2.648 7.665zm8.147-5.671c-.536 0-6.431-10.879-13.099-24.176s-11.633-24.176-11.032-24.176c.601 0 5.276 8.159 10.389 18.132 5.113 9.972 10.516 20.851 12.006 24.176 1.491 3.324 2.272 6.044 1.736 6.044zm-39.417-6.593c-.604 0-4.585-6.923-8.846-15.384s-7.253-15.384-6.649-15.384c.604 0 4.585 6.923 8.846 15.384s7.253 15.384 6.649 15.384zm46.571-3.037c-.566.566-1.645-.578-2.399-2.542s-1.34-4.232-1.304-5.04c.037-.808 1.116.336 2.399 2.542s1.869 4.474 1.304 5.04zm-24.585-1.359c-.604 0-4.094-5.934-7.755-13.187-3.661-7.253-6.162-13.187-5.558-13.187.604 0 4.094 5.934 7.755 13.187 3.661 7.253 6.162 13.187 5.558 13.187zm-76.986-4.396c-.604 0-1.099-.494-1.099-1.099 0-.604.494-1.099 1.099-1.099.604 0 1.099.495 1.099 1.099s-.495 1.099-1.099 1.099zm-13.187-2.198c-.604 0-1.099-.494-1.099-1.099 0-.604.494-1.099 1.099-1.099.604 0 1.099.494 1.099 1.099 0 .604-.494 1.099-1.099 1.099zm11.063-2.198c-.604 0-3.605-4.945-6.667-10.989-3.063-6.044-5.074-10.989-4.47-10.989.604 0 3.605 4.945 6.667 10.989 3.063 6.044 5.074 10.989 4.47 10.989zm99.031-.571c-.548.548-3.044-3.015-5.546-7.92s-4.537-9.698-4.522-10.652c.015-.955 2.51 2.609 5.546 7.92s5.071 10.104 4.522 10.652zm-111.62-2.667c-.677.677-1.906-.543-2.731-2.711-1.193-3.132-.94-3.385 1.23-1.23 1.502 1.491 2.177 3.264 1.501 3.941zm-5.009-7.75c-.495 0-1.552-1.055-2.349-2.344-.797-1.289-.977-2.815-.401-3.392.576-.576 1.633.479 2.349 2.344.716 1.865.896 3.392.401 3.392zm131.81-4.396c-.604 0-1.099-.495-1.099-1.099s.494-1.099 1.099-1.099c.604 0 1.099.494 1.099 1.099 0 .604-.494 1.099-1.099 1.099zm-111.86-2.789c-.413.413-4.886-7.197-9.939-16.912-5.054-9.714-8.704-17.662-8.111-17.662s5.066 7.61 9.939 16.912c4.874 9.301 8.524 17.249 8.111 17.662zm-24.246-1.607c-.604 0-2.158-1.978-3.451-4.396s-1.858-4.396-1.254-4.396c.604 0 2.158 1.978 3.451 4.396s1.858 4.396 1.254 4.396zm61.423 0c-.604 0-6.062-9.89-12.128-21.978-6.066-12.088-10.534-21.978-9.93-21.978.604 0 6.062 9.89 12.128 21.978 6.066 12.088 10.534 21.978 9.93 21.978zm24.81-1.041c-.677.677-1.906-.543-2.731-2.711-1.193-3.132-.94-3.385 1.23-1.23 1.502 1.491 2.177 3.264 1.501 3.941zm47.677 1.041c-.604 0-1.099-.494-1.099-1.099 0-.604.494-1.099 1.099-1.099.604 0 1.099.495 1.099 1.099s-.494 1.099-1.099 1.099zm-124.64-5.391c-.479.479-4.595-6.024-9.146-14.452-4.552-8.427-7.797-15.322-7.211-15.322.585 0 4.701 6.503 9.146 14.452 4.445 7.948 7.69 14.843 7.211 15.322zm98.946-.045c-.677.677-1.906-.543-2.731-2.711-1.193-3.132-.94-3.385 1.23-1.23 1.502 1.491 2.177 3.264 1.501 3.941zm23.535 1.041c-.604 0-7.048-11.868-14.319-26.373-7.271-14.505-12.726-26.373-12.122-26.373.604 0 7.048 11.868 14.319 26.373 7.271 14.505 12.726 26.373 12.122 26.373zm-50.227-5.117c-.485.485-5.017-7.066-10.07-16.78-5.054-9.714-8.73-17.662-8.17-17.662.561 0 5.092 7.551 10.071 16.78 4.978 9.229 8.655 17.177 8.17 17.662zm10.633-1.476c-.604 0-1.099-.494-1.099-1.099 0-.604.494-1.099 1.099-1.099.604 0 1.099.494 1.099 1.099 0 .604-.495 1.099-1.099 1.099zm48.351 0c-.604 0-1.099-.494-1.099-1.099 0-.604.494-1.099 1.099-1.099.604 0 1.099.494 1.099 1.099 0 .604-.494 1.099-1.099 1.099zm-37.362-2.198c-.604 0-1.099-.494-1.099-1.099 0-.604.494-1.099 1.099-1.099.604 0 1.099.494 1.099 1.099s-.494 1.099-1.099 1.099zm-13.01-2.74c-.377.377-6.72-10.917-14.096-25.098s-13.032-26.162-12.569-26.624c.463-.463 6.806 10.832 14.096 25.098 7.29 14.267 12.946 26.248 12.569 26.624zm24.298-.122c-.454.454-5.038-7.371-10.188-17.387s-8.363-17.223-7.14-16.014c1.223 1.209 5.807 9.033 10.188 17.387 4.38 8.354 7.593 15.56 7.14 16.014zm23.887.665c-.579 0-4.591-7.024-8.914-15.61-4.324-8.585-7.503-15.968-7.065-16.406.438-.438 4.449 6.586 8.914 15.61 4.465 9.023 7.644 16.406 7.065 16.406zm-36.97-2.966c-.63.63-2.214-.853-3.521-3.294s-2.376-5.219-2.376-6.172c0-.953 1.584.53 3.521 3.294 1.937 2.765 3.006 5.542 2.376 6.172zm-6.922-12.418c-.604 0-3.605-4.945-6.667-10.989-3.063-6.044-5.074-10.989-4.47-10.989.604 0 3.605 4.945 6.667 10.989 3.063 6.044 5.074 10.989 4.47 10.989zm-89.83-4.396c-.41 0-1.91-2.72-3.332-6.044-2.398-5.604-2.344-5.734.746-1.778 1.833 2.346 3.332 5.066 3.332 6.044 0 .978-.336 1.778-.746 1.778zm134.06 0c-.41 0-1.91-2.72-3.332-6.044-2.398-5.604-2.344-5.734.746-1.778 1.833 2.346 3.332 5.066 3.332 6.044 0 .978-.336 1.778-.746 1.778zm-112.47-6.559c-.548 0-3.992-5.934-7.653-13.187-3.661-7.253-6.168-13.187-5.571-13.187.597 0 3.32 4.203 6.05 9.341s5.686 11.071 6.567 13.187c.881 2.115 1.154 3.846.606 3.846zm11.131-4.864c-.506.506-4.457-6.105-8.78-14.69-4.324-8.585-7.42-15.61-6.881-15.61.539 0 4.49 6.611 8.78 14.69 4.29 8.08 7.387 15.104 6.881 15.61zm24.748-.572c-.677.677-1.906-.543-2.731-2.711-1.193-3.132-.94-3.385 1.23-1.23 1.502 1.491 2.177 3.264 1.501 3.941zm58.736-3.355c-.347 0-1.535-1.236-2.64-2.747-1.105-1.511-3.404-5.714-5.111-9.341s-3.454-7.335-3.885-8.242c-.431-.907-.232-1.648.441-1.648s3.609 4.945 6.525 10.989c2.916 6.044 5.017 10.989 4.67 10.989zm-26.201-2.198c-.395 0-5.342-8.901-10.994-19.78-5.652-10.879-9.838-19.78-9.302-19.78.536 0 4.861 7.17 9.612 15.934s9.26 17.665 10.02 19.78c.76 2.115 1.059 3.846.664 3.846zm34.921 0c-.604 0-1.099-.494-1.099-1.099 0-.604.494-1.099 1.099-1.099s1.099.494 1.099 1.099c0 .604-.494 1.099-1.099 1.099zm-71.819-3.272c-.517.517-2.618-1.903-4.67-5.376-2.052-3.474-3.714-7.152-3.694-8.174.02-1.022 2.122 1.397 4.67 5.376s4.21 7.658 3.694 8.174zm24.176 0c-.517.517-2.618-1.903-4.67-5.376-2.052-3.474-3.714-7.152-3.694-8.174.02-1.022 2.122 1.397 4.67 5.376s4.21 7.658 3.694 8.174zm45.445-1.123c-.604 0-1.099-.494-1.099-1.099 0-.604.494-1.099 1.099-1.099.604 0 1.099.494 1.099 1.099 0 .604-.494 1.099-1.099 1.099zm-24.176-2.198c-.604 0-1.099-.494-1.099-1.099 0-.604.494-1.099 1.099-1.099.604 0 1.099.494 1.099 1.099 0 .604-.494 1.099-1.099 1.099zm21.978-2.198c-.604 0-1.099-.494-1.099-1.099 0-.604.494-1.099 1.099-1.099.604 0 1.099.495 1.099 1.099s-.494 1.099-1.099 1.099zm-24.112-2.198c-.604 0-4.094-5.934-7.755-13.187-3.661-7.253-6.162-13.187-5.558-13.187.604 0 4.094 5.934 7.755 13.187 3.661 7.253 6.162 13.187 5.558 13.187zm22.281-2.93c-.806.806-1.465.147-1.465-1.465s.659-2.271 1.465-1.465c.806.806.806 2.124 0 2.93zm-61.844-3.663c-.495 0-1.552-1.055-2.349-2.344-.797-1.289-.977-2.815-.401-3.392.576-.576 1.633.479 2.349 2.344.716 1.865.896 3.392.401 3.392zm-13.227-2.198c-.554 0-2.589-3.059-4.522-6.798s-3.125-7.188-2.648-7.665c.477-.477 2.512 2.582 4.522 6.798 2.01 4.216 3.202 7.665 2.648 7.665zm8.77-6.593c-.604 0-1.099-.494-1.099-1.099 0-.604.494-1.099 1.099-1.099.604 0 1.099.494 1.099 1.099 0 .604-.494 1.099-1.099 1.099zm220.82 140.6l-81.265-.094v-162.486h80.952c44.523 0 81.364.411 81.867.914.504.503.645 37.104.313 81.337l-.603 80.423-81.265-.095zm42.327-10.23c2.129-4.618 3.264-5.923 2.523-2.901-.741 3.022-1.48 6.137-1.643 6.923-.163.786.445 1.528 1.352 1.648.907.121 3.183.22 5.059.22s4.463-3.018 5.749-6.706c1.286-3.688 2.745-6.298 3.244-5.799.498.498-.086 3.516-1.299 6.705-2.015 5.299-1.736 5.799 3.235 5.799 2.992 0 5.518-1.236 5.614-2.747.139-2.198.395-2.198 1.282 0 .61 1.511 3.004 2.747 5.321 2.747 3.675 0 4.2-1.614 4.113-12.637-.098-12.478-.137-12.554-3.118-6.044-1.661 3.626-3.099 5.82-3.197 4.874-.098-.945 1.305-5.269 3.118-9.609s3.281-13.951 3.263-21.358c-.024-9.506-.66-12.498-2.164-10.171-1.877 2.905-2.135 2.892-2.164-.11-.018-1.874.869-4.346 1.972-5.495 1.103-1.148 2.21-8.022 2.46-15.275s.287-14.67.083-16.483c-.205-1.813-3.762 6.099-7.906 17.582s-10.146 28.096-13.338 36.918c-3.193 8.821-6.195 15.649-6.672 15.172-.477-.477 5.726-19.068 13.785-41.313 11.113-30.676 14.719-43.488 14.931-53.04.153-6.926-.315-11.872-1.04-10.989-.726.883-11.56 29.041-24.077 62.575s-23.161 60.566-23.655 60.072c-.494-.494 10.108-30.094 23.561-65.778 13.452-35.684 24.837-66.841 25.298-69.238.462-2.397.288-6.463-.385-9.037-1.057-4.043-2.583-4.59-11.217-4.021l-9.993.658-5.765 16.483c-3.171 9.066-7.59 21.203-9.82 26.972-2.23 5.769-4.419 10.124-4.864 9.679-.445-.445 2.576-10.11 6.714-21.477s8.576-23.388 9.863-26.712c2.211-5.709 2-6.044-3.798-6.044-6.063 0-6.469.908-33.206 74.175-14.888 40.796-27.567 75.49-28.176 77.098-.792 2.09.641 2.716 5.032 2.198 5.298-.625 6.798-2.531 10.953-13.911 2.648-7.253 9.045-24.849 14.217-39.103 5.172-14.254 9.784-25.536 10.249-25.071.465.465-5.497 18.366-13.249 39.778l-14.095 38.932 5.783-.675c5.137-.6 6.616-2.956 13.246-21.1 4.104-11.234 7.933-19.955 8.508-19.38.575.575-2.019 8.993-5.765 18.706-3.746 9.713-6.811 18.645-6.811 19.849 0 1.204 4.489 2.098 9.976 1.988 5.487-.11 10.666.49 11.509 1.333s3.275-2.245 5.404-6.862zm27.323-1.436c-.806.806-1.465.147-1.465-1.465s.659-2.271 1.465-1.465c.806.806.806 2.124 0 2.93zm-21.978-8.791c-.806.806-1.465.146-1.465-1.465s.659-2.271 1.465-1.465c.806.806.806 2.124 0 2.93zm12.634.549c-.502.504-.913-.007-.913-1.135s2.909-9.452 6.465-18.498c3.556-9.046 6.523-15.329 6.593-13.962.071 1.367-2.428 9.279-5.552 17.582-3.124 8.303-6.091 15.509-6.593 16.012zm-30.774-28.571c-.499.504-.908.005-.908-1.108s4.411-13.393 9.803-27.289c5.392-13.896 9.842-24.163 9.89-22.816.048 1.347-3.955 13.215-8.895 26.373s-9.391 24.336-9.89 24.84zm.919-39.377c-1.416 2.291-1.589 1.621-.567-2.198.808-3.022 2.386-6.978 3.507-8.791 1.416-2.291 1.589-1.621.567 2.198-.808 3.022-2.386 6.978-3.507 8.791zm18.746-15.535c-.736.687-.577-1.223.354-4.245.931-3.022 5.458-15.384 10.061-27.472 4.602-12.088 8.414-20.881 8.47-19.541.056 1.34-3.869 13.141-8.722 26.223-4.853 13.083-9.427 24.349-10.163 25.036zm-123.44 99.055c2.033 0 12.69-25.749 31.375-75.805 15.563-41.693 28.702-75.4 29.197-74.905.495.495-11.546 34.224-26.759 74.953-15.212 40.729-27.658 74.437-27.658 74.905 0 .468 2.225.846 4.945.839 4.242-.011 5.984-2.902 12.248-20.33 4.017-11.174 8.692-23.284 10.389-26.91 1.698-3.626 3.109-5.741 3.136-4.7s-3.3 10.932-7.395 21.978-8.134 22.361-8.976 25.144c-1.488 4.919-1.18 5.042 11.053 4.396l12.584-.665 5.658-16.158c3.112-8.887 5.962-15.247 6.333-14.133.371 1.114-1.812 8.632-4.851 16.707l-5.526 14.682h6.24c5.946 0 6.668-1.164 15.33-24.725 5-13.599 11.94-32.637 15.423-42.307 3.483-9.67 11.906-32.783 18.716-51.363 6.811-18.579 12.383-34.156 12.383-34.615 0-.459-5.8-.835-12.888-.835-12.426 0-13.002.256-16.057 7.143-1.743 3.929-3.002 6.154-2.798 4.945.204-1.209 1.068-4.423 1.919-7.143 1.255-4.008.707-4.945-2.892-4.945-3.166 0-5.728 2.91-8.924 10.135-2.466 5.574-11.057 27.853-19.092 49.508-8.035 21.655-15.028 38.954-15.541 38.442-.512-.512 5.916-19.082 14.284-41.266 8.369-22.184 16.852-44.044 18.852-48.576l3.636-8.242h-25.564l-4.039 11.538c-2.222 6.346-7.212 19.945-11.09 30.22-3.878 10.275-10.828 28.817-15.445 41.206-4.617 12.389-8.787 22.132-9.267 21.653-.48-.48 7.598-23.48 17.951-51.113 10.353-27.632 18.823-51.332 18.823-52.666 0-1.356-2.261-1.994-5.127-1.446-3.816.73-6.13 3.769-9.05 11.89-2.158 6-4.312 10.522-4.786 10.047-.475-.475.631-5.098 2.457-10.273 1.826-5.176 3.32-9.78 3.32-10.233 0-.452-2.229-.823-4.952-.823-4.139 0-5.8 2.436-10.112 14.835-2.838 8.159-8.865 24.231-13.393 35.714-5.817 14.752-8.353 24.738-8.641 34.028-.232 7.482.404 12.218 1.476 10.989 1.036-1.188 7.664-17.735 14.729-36.771 7.065-19.036 13.227-34.229 13.693-33.762.466.466-6.163 19.503-14.733 42.303-13.957 37.134-15.512 42.829-14.918 54.641.615 12.234.863 12.79 3.435 7.692l2.772-5.495-1.428 5.495c-.785 3.022-1.902 9.698-2.481 14.835-.794 7.044-.296 9.341 2.025 9.341zm33.628-6.593c-1.815 3.175-3.141 4.103-3.141 2.198 0-1.813 1.413-5.769 3.141-8.791 1.815-3.175 3.141-4.103 3.141-2.198 0 1.813-1.413 5.769-3.141 8.791zm4.4-13.557c-.607.607-1.103.414-1.103-.428s9.027-25.771 20.059-55.398 20.457-53.469 20.943-52.983c.486.486-8.044 24.919-18.956 54.295s-20.336 53.908-20.943 54.515zm-34.44-12.816c-1.416 2.291-1.589 1.621-.567-2.198.808-3.022 2.386-6.978 3.507-8.791 1.416-2.291 1.589-1.621.567 2.198-.808 3.022-2.386 6.978-3.507 8.791zm55.315-4.396c-1.172 1.813-2.131 2.308-2.131 1.099s.959-3.681 2.131-5.495 2.131-2.308 2.131-1.099-.959 3.681-2.131 5.495zm2.998-8.791c-.44 0-.8-.868-.8-1.929s1.347-5.264 2.994-9.341 5.711-14.638 9.031-23.471 6.468-15.629 6.994-15.103c.526.526-1.474 7.259-4.446 14.961-2.971 7.702-7.106 18.702-9.188 24.444-2.082 5.742-4.146 10.439-4.586 10.439zm19.993-53.027c-.557.557-1.002.106-.989-1.002.013-1.108 3.461-11.72 7.661-23.583 4.2-11.863 8.708-23.236 10.017-25.275 2.094-3.26 2.242-3.178 1.233.69-.631 2.418-4.693 14.242-9.028 26.276s-8.338 22.336-8.895 22.894zm-1.746-33.419c-.806.806-1.465.147-1.465-1.465s.659-2.271 1.465-1.465c.806.806.806 2.124 0 2.93zm-83.03 40.405c1.18-1.751 6.809-15.863 12.51-31.359 5.701-15.496 9.971-28.557 9.49-29.024-.481-.467-2.358-1.06-4.172-1.318-1.813-.258-6.43-.352-10.259-.209l-6.962.26-.73 15.182c-.401 8.35.052 14.696 1.007 14.101.955-.594 1.254 1.228.665 4.049s-1.661 11.063-2.383 18.316c-.885 8.899-.614 12.151.834 10.002zm3.086-35.277c-.653.604-.453-1.288.446-4.204.898-2.917 3.013-8.603 4.698-12.637 1.685-4.034 3.531-7.334 4.102-7.334.571 0-1.009 5.192-3.51 11.538s-5.082 12.033-5.735 12.637z"/></svg>