<svg clip-rule="evenodd" fill-rule="evenodd" height="401.35" image-rendering="optimizeQuality" shape-rendering="geometricPrecision" text-rendering="geometricPrecision" viewBox="0 0 1701.0049 401.43199" width="1701" xmlns="http://www.w3.org/2000/svg"><path d="m121.134 31.19.297 7.315h-.752q-.218-1.932-.594-2.76-.614-1.334-1.643-1.955-1.009-.644-2.672-.644h-3.78v23.831q0 2.875.534 3.588.752.966 2.316.966h.93v.851h-11.381v-.851h.95q1.702 0 2.415-1.196.435-.736.435-3.358v-23.831h-3.226q-1.88 0-2.672.322-1.029.437-1.761 1.679t-.871 3.358h-.752l.317-7.315h21.909z"/><path d="m131.227 59.34q-2.791 2.507-3.503 2.898-1.069.575-2.276.575-1.88 0-3.107-1.495-1.207-1.495-1.207-3.933 0-1.541.594-2.668.811-1.564 2.81-2.944 2.019-1.38 6.69-3.358v-.828q0-3.151-.871-4.325-.851-1.173-2.494-1.173-1.247 0-1.979.782-.752.782-.752 1.794l.04 1.334q0 1.058-.475 1.633-.455.575-1.207.575-.732 0-1.207-.598-.455-.598-.455-1.633 0-1.978 1.742-3.635 1.742-1.656 4.889-1.656 2.415 0 3.958.943 1.168.713 1.722 2.231.356.989.356 4.048v7.154q0 3.013.099 3.704.099.667.317.897.238.23.534.23.317 0 .554-.161.416-.299 1.603-1.679v1.288q-2.217 3.45-4.235 3.45-.97 0-1.544-.782-.574-.782-.594-2.668zm0-1.495v-8.028q-2.989 1.38-3.859 1.955-1.564 1.012-2.236 2.116-.673 1.104-.673 2.415 0 1.656.851 2.76.851 1.081 1.959 1.081 1.504 0 3.958-2.3z"/><path d="m143.892 44.94q2.632-4.256 5.68-4.256 2.791 0 4.869 2.783 2.078 2.76 2.078 7.568 0 5.613-3.206 9.04-2.751 2.944-6.135 2.944-1.583 0-3.226-.667-1.623-.667-3.325-2.001v-21.83q0-3.588-.158-4.417-.139-.828-.455-1.127-.317-.299-.792-.299-.554 0-1.385.368l-.277-.805 5.443-2.576h.891v15.274zm0 1.472v12.606q1.009 1.15 2.078 1.748 1.089.575 2.217.575 1.801 0 3.345-2.3 1.564-2.3 1.564-6.694 0-4.048-1.564-6.211-1.544-2.185-3.523-2.185-1.049 0-2.098.621-.792.46-2.019 1.84z"/><path d="m165.427 29.67v27.949q0 1.978.238 2.622.257.644.772.989.515.322 1.92.322v.828h-8.886v-.828q1.247 0 1.702-.299.455-.299.713-.989.257-.69.257-2.645v-19.138q0-3.565-.139-4.371-.139-.828-.455-1.127-.297-.299-.772-.299-.515 0-1.306.368l-.336-.805 5.403-2.576h.891z"/><path d="m180.708 59.34q-2.791 2.507-3.503 2.898-1.069.575-2.276.575-1.88 0-3.107-1.495-1.207-1.495-1.207-3.933 0-1.541.594-2.668.811-1.564 2.81-2.944 2.019-1.38 6.69-3.358v-.828q0-3.151-.871-4.325-.851-1.173-2.494-1.173-1.247 0-1.979.782-.752.782-.752 1.794l.04 1.334q0 1.058-.475 1.633-.455.575-1.207.575-.732 0-1.207-.598-.455-.598-.455-1.633 0-1.978 1.742-3.635 1.742-1.656 4.889-1.656 2.415 0 3.958.943 1.168.713 1.722 2.231.356.989.356 4.048v7.154q0 3.013.099 3.704.099.667.317.897.238.23.534.23.317 0 .554-.161.416-.299 1.603-1.679v1.288q-2.217 3.45-4.235 3.45-.97 0-1.544-.782-.574-.782-.594-2.668zm0-1.495v-8.028q-2.989 1.38-3.859 1.955-1.564 1.012-2.236 2.116-.673 1.104-.673 2.415 0 1.656.851 2.76.851 1.081 1.959 1.081 1.504 0 3.958-2.3z"/><path d="m211.338 60.01q-1.326 1.61-2.593 2.323-1.267.69-2.731.69-2.969 0-5.185-2.875-2.217-2.898-2.217-7.43t2.454-8.281q2.454-3.772 6.314-3.772 2.395 0 3.958 1.771v-3.888q0-3.611-.158-4.44-.139-.828-.455-1.127-.317-.299-.792-.299-.515 0-1.366.368l-.257-.805 5.403-2.576h.891v24.36q0 3.704.139 4.532.158.805.475 1.127.336.322.772.322.534 0 1.425-.391l.218.805-5.383 2.599h-.91v-3.013zm0-1.61v-10.857q-.119-1.564-.712-2.852t-1.583-1.932q-.97-.667-1.9-.667-1.742 0-3.107 1.817-1.801 2.392-1.801 6.993 0 4.647 1.742 7.131 1.742 2.461 3.879 2.461 1.801 0 3.483-2.093z"/><path d="m221.835 49.25q-.02 4.693 1.959 7.361t4.651 2.668q1.781 0 3.087-1.127 1.326-1.15 2.217-3.91l.614.46q-.416 3.151-2.415 5.751-1.999 2.576-5.007 2.576-3.266 0-5.601-2.944-2.316-2.967-2.316-7.959 0-5.406 2.375-8.419 2.395-3.036 5.997-3.036 3.048 0 5.007 2.346 1.959 2.323 1.959 6.234h-12.528zm0-1.334h8.392q-.099-2.024-.416-2.852-.495-1.288-1.484-2.024-.97-.736-2.039-.736-1.643 0-2.949 1.495-1.286 1.472-1.504 4.117z"/><path d="m252.293 45.17q1.979-2.3 2.335-2.645.891-.874 1.92-1.357t2.039-.483q1.702 0 2.929 1.15 1.227 1.15 1.643 3.335 2.039-2.76 3.444-3.611 1.405-.874 2.89-.874 1.445 0 2.553.874 1.128.851 1.781 2.806.435 1.334.435 4.186v9.063q0 1.978.257 2.714.198.506.732.874.534.345 1.742.345v.828h-8.946v-.828h.376q1.168 0 1.821-.529.455-.368.653-1.173.079-.391.079-2.231v-9.063q0-2.576-.534-3.635-.772-1.472-2.474-1.472-1.049 0-2.118.621-1.049.598-2.553 2.254l-.04.253.04.989v10.052q0 2.162.198 2.691.218.529.792.897.574.345 1.959.345v.828h-9.163v-.828q1.504 0 2.058-.414.574-.414.792-1.242.099-.391.099-2.277v-9.063q0-2.576-.653-3.704-.871-1.472-2.434-1.472-1.069 0-2.118.667-1.643 1.012-2.533 2.277v11.294q0 2.07.237 2.691.257.621.732.943.495.299 1.979.299v.828h-8.965v-.828q1.247 0 1.742-.299.495-.322.752-.989.257-.69.257-2.645v-8.051q0-3.473-.178-4.486-.139-.759-.435-1.035-.297-.299-.811-.299-.554 0-1.326.345l-.297-.828 5.463-2.576h.851v4.486z"/><path d="m281.547 49.25q-.02 4.693 1.959 7.361t4.651 2.668q1.781 0 3.088-1.127 1.326-1.15 2.217-3.91l.614.46q-.416 3.151-2.415 5.751-1.999 2.576-5.007 2.576-3.266 0-5.601-2.944-2.316-2.967-2.316-7.959 0-5.406 2.375-8.419 2.395-3.036 5.997-3.036 3.048 0 5.007 2.346 1.959 2.323 1.959 6.234h-12.528zm0-1.334h8.392q-.099-2.024-.416-2.852-.495-1.288-1.484-2.024-.97-.736-2.039-.736-1.643 0-2.949 1.495-1.286 1.472-1.504 4.117z"/><path d="m309.252 60.01q-1.326 1.61-2.593 2.323-1.267.69-2.731.69-2.969 0-5.185-2.875-2.217-2.898-2.217-7.43t2.454-8.281q2.454-3.772 6.314-3.772 2.395 0 3.958 1.771v-3.888q0-3.611-.158-4.44-.139-.828-.455-1.127-.317-.299-.792-.299-.515 0-1.366.368l-.257-.805 5.403-2.576h.891v24.36q0 3.704.139 4.532.158.805.475 1.127.337.322.772.322.534 0 1.425-.391l.218.805-5.383 2.599h-.91v-3.013zm0-1.61v-10.857q-.119-1.564-.712-2.852t-1.583-1.932q-.97-.667-1.9-.667-1.742 0-3.107 1.817-1.801 2.392-1.801 6.993 0 4.647 1.742 7.131 1.742 2.461 3.879 2.461 1.801 0 3.483-2.093z"/><path d="m321.384 29.67q.831 0 1.405.69.594.667.594 1.633t-.594 1.656q-.574.69-1.405.69t-1.425-.69-.594-1.656q0-.966.574-1.633.594-.69 1.445-.69zm1.643 11.018v16.93q0 1.978.237 2.645.257.644.732.966.495.322 1.781.322v.828h-8.807v-.828q1.326 0 1.781-.299.455-.299.712-.989.277-.69.277-2.645v-8.12q0-3.427-.178-4.44-.139-.736-.435-1.012-.297-.299-.811-.299-.554 0-1.346.345l-.277-.828 5.463-2.576z"/><path d="m340.743 60.01q-1.326 1.61-2.593 2.323-1.267.69-2.731.69-2.969 0-5.185-2.875-2.217-2.898-2.217-7.43t2.454-8.281q2.454-3.772 6.314-3.772 2.395 0 3.958 1.771v-3.888q0-3.611-.158-4.44-.139-.828-.455-1.127-.317-.299-.792-.299-.515 0-1.366.368l-.257-.805 5.403-2.576h.891v24.36q0 3.704.139 4.532.158.805.475 1.127.336.322.772.322.534 0 1.425-.391l.218.805-5.383 2.599h-.91v-3.013zm0-1.61v-10.857q-.119-1.564-.712-2.852t-1.583-1.932q-.97-.667-1.9-.667-1.742 0-3.107 1.817-1.801 2.392-1.801 6.993 0 4.647 1.742 7.131 1.742 2.461 3.879 2.461 1.801 0 3.483-2.093z"/><path d="m358.553 59.34q-2.791 2.507-3.503 2.898-1.069.575-2.276.575-1.88 0-3.107-1.495-1.207-1.495-1.207-3.933 0-1.541.594-2.668.811-1.564 2.81-2.944 2.019-1.38 6.69-3.358v-.828q0-3.151-.871-4.325-.851-1.173-2.494-1.173-1.247 0-1.979.782-.752.782-.752 1.794l.04 1.334q0 1.058-.475 1.633-.455.575-1.207.575-.732 0-1.207-.598-.455-.598-.455-1.633 0-1.978 1.742-3.635 1.742-1.656 4.889-1.656 2.415 0 3.958.943 1.168.713 1.722 2.231.356.989.356 4.048v7.154q0 3.013.099 3.704.099.667.317.897.237.23.534.23.317 0 .554-.161.416-.299 1.603-1.679v1.288q-2.217 3.45-4.235 3.45-.97 0-1.544-.782t-.594-2.668zm0-1.495v-8.028q-2.989 1.38-3.859 1.955-1.564 1.012-2.236 2.116-.673 1.104-.673 2.415 0 1.656.851 2.76.851 1.081 1.959 1.081 1.504 0 3.958-2.3z"/><path d="m377.912 40.69v7.177h-.653q-.752-3.381-1.94-4.601-1.168-1.219-2.989-1.219-1.385 0-2.237.851-.851.851-.851 1.886 0 1.288.633 2.208.614.943 2.494 2.001l2.89 1.633q4.018 2.277 4.018 6.004 0 2.875-1.88 4.647-1.86 1.748-4.176 1.748-1.663 0-3.8-.69-.653-.23-1.069-.23-.455 0-.712.598h-.653v-7.522h.653q.554 3.22 2.118 4.854 1.564 1.633 3.503 1.633 1.366 0 2.217-.92.871-.943.871-2.254 0-1.587-.97-2.668-.95-1.081-3.82-2.737-2.87-1.656-3.76-2.99-.891-1.311-.891-3.312 0-2.599 1.524-4.348 1.544-1.748 3.978-1.748 1.069 0 2.593.529 1.009.345 1.346.345.317 0 .495-.161t.416-.713h.653z"/><path d="m626.436 51.96h-41.266v-1.702h41.266z"/><path d="m654.984 56.38-1.88 6.004h-15.833v-.851q6.986-7.407 9.836-12.1 2.85-4.693 2.85-8.58 0-2.967-1.564-4.877t-3.741-1.909q-1.979 0-3.562 1.357-1.564 1.334-2.316 3.933h-.732q.495-4.255 2.533-6.533 2.058-2.277 5.126-2.277 3.266 0 5.443 2.438 2.197 2.438 2.197 5.751 0 2.369-.95 4.739-1.465 3.727-4.75 7.89-4.928 6.257-6.155 7.545h7.006q2.137 0 2.989-.184.871-.184 1.564-.736.693-.575 1.207-1.61z"/><path d="m658.804 63.02v-.851q2.573-.046 4.79-1.38 2.217-1.357 4.275-4.716 2.078-3.358 2.89-7.384-3.107 2.323-5.621 2.323-2.83 0-4.849-2.53-2.019-2.553-2.019-6.763 0-4.095 2.019-7.292 2.434-3.888 6.353-3.888 3.305 0 5.66 3.174 2.89 3.933 2.89 9.707 0 5.199-2.197 9.707-2.197 4.486-6.116 7.453-3.186 2.438-6.947 2.438h-1.128zm12.271-16.033q.356-2.99.356-4.785 0-2.231-.653-4.808-.653-2.599-1.86-3.979-1.188-1.38-2.711-1.38-1.761 0-3.087 1.84-1.326 1.84-1.326 5.475 0 4.854 1.761 7.591 1.286 1.978 3.167 1.978.91 0 2.157-.506 1.247-.506 2.197-1.426z"/><path d="m880.186 37.12q1.148-3.151 2.89-4.854 1.761-1.725 4.374-1.725 3.226 0 4.948 2.438 1.306 1.817 1.306 3.888 0 3.404-3.681 7.039 2.474 1.127 3.741 3.22t1.267 4.923q0 4.048-2.217 7.016-2.89 3.865-8.372 3.865-2.711 0-3.701-.782-.97-.782-.97-1.679 0-.667.455-1.173.475-.506 1.128-.506.495 0 1.009.184.336.115 1.524.851 1.188.713 1.643.851.732.253 1.564.253 2.019 0 3.503-1.817 1.504-1.817 1.504-4.302 0-1.817-.693-3.542-.515-1.288-1.128-1.955-.851-.92-2.335-1.656-1.484-.759-3.028-.759h-.633v-.69q1.564-.23 3.127-1.311 1.583-1.081 2.296-2.599.713-1.518.713-3.335 0-2.369-1.286-3.818-1.267-1.472-3.167-1.472-3.068 0-5.126 3.818l-.653-.368z"/><path d="m899.863 46.97q0-5.337 1.385-9.178 1.385-3.865 3.681-5.751 1.781-1.495 3.681-1.495 3.088 0 5.542 3.658 3.068 4.532 3.068 12.284 0 5.429-1.346 9.224t-3.444 5.521q-2.078 1.702-4.018 1.702-3.84 0-6.393-5.268-2.157-4.44-2.157-10.696zm3.879.575q0 6.441 1.366 10.512 1.128 3.427 3.365 3.427 1.069 0 2.217-1.104 1.148-1.127 1.742-3.749.91-3.957.91-11.156 0-5.337-.95-8.902-.712-2.645-1.841-3.749-.811-.759-1.959-.759-1.346 0-2.395 1.403-1.425 1.909-1.94 6.004-.515 4.095-.515 8.074z"/><path d="m960.286 51.96h-41.266v-1.702h41.266z"/><path d="m961.986 37.12q1.148-3.151 2.89-4.854 1.761-1.725 4.374-1.725 3.226 0 4.948 2.438 1.306 1.817 1.306 3.888 0 3.404-3.681 7.039 2.474 1.127 3.741 3.22t1.267 4.923q0 4.048-2.217 7.016-2.89 3.865-8.372 3.865-2.711 0-3.701-.782-.97-.782-.97-1.679 0-.667.455-1.173.475-.506 1.128-.506.495 0 1.009.184.336.115 1.524.851 1.188.713 1.643.851.732.253 1.564.253 2.019 0 3.503-1.817 1.504-1.817 1.504-4.302 0-1.817-.693-3.542-.515-1.288-1.128-1.955-.851-.92-2.335-1.656-1.484-.759-3.028-.759h-.633v-.69q1.564-.23 3.127-1.311 1.583-1.081 2.296-2.599.713-1.518.713-3.335 0-2.369-1.286-3.818-1.267-1.472-3.167-1.472-3.068 0-5.126 3.818l-.653-.368z"/><path d="m982.334 63.02v-.851q2.573-.046 4.79-1.38 2.217-1.357 4.275-4.716 2.078-3.358 2.89-7.384-3.107 2.323-5.621 2.323-2.83 0-4.849-2.53-2.019-2.553-2.019-6.763 0-4.095 2.019-7.292 2.434-3.888 6.353-3.888 3.305 0 5.66 3.174 2.89 3.933 2.89 9.707 0 5.199-2.197 9.707-2.197 4.486-6.116 7.453-3.186 2.438-6.947 2.438h-1.128zm12.271-16.033q.356-2.99.356-4.785 0-2.231-.653-4.808-.653-2.599-1.86-3.979-1.188-1.38-2.711-1.38-1.761 0-3.087 1.84-1.326 1.84-1.326 5.475 0 4.854 1.761 7.591 1.286 1.978 3.167 1.978.91 0 2.157-.506 1.247-.506 2.197-1.426z"/><path d="m1202.83 50.88v3.266h-3.602v8.235h-3.266v-8.235h-11.361v-2.944l12.449-20.657h2.177v20.335h3.602zm-6.868 0v-15.481l-9.421 15.481z"/><path d="m1205.703 46.97q0-5.337 1.385-9.178 1.385-3.865 3.681-5.751 1.781-1.495 3.681-1.495 3.088 0 5.542 3.658 3.068 4.532 3.068 12.284 0 5.429-1.346 9.224t-3.444 5.521q-2.078 1.702-4.018 1.702-3.84 0-6.393-5.268-2.157-4.44-2.157-10.696zm3.879.575q0 6.441 1.366 10.512 1.128 3.427 3.365 3.427 1.069 0 2.217-1.104 1.148-1.127 1.742-3.749.91-3.957.91-11.156 0-5.337-.95-8.902-.712-2.645-1.841-3.749-.811-.759-1.959-.759-1.346 0-2.395 1.403-1.425 1.909-1.94 6.004-.515 4.095-.515 8.074z"/><path d="m1266.126 51.96h-41.266v-1.702h41.266z"/><path d="m1283.365 31.19-1.544 3.91h-8.075l-1.761 4.186q5.245.897 8.312 4.532 2.632 3.128 2.632 7.361 0 2.461-.871 4.555-.851 2.093-2.157 3.566t-2.909 2.369q-2.276 1.265-4.671 1.265-2.415 0-3.523-.943-1.089-.966-1.089-2.116 0-.644.455-1.127.455-.506 1.148-.506.515 0 .891.184.396.184 1.326.943 1.484 1.196 3.008 1.196 2.316 0 4.057-2.024 1.761-2.047 1.761-4.969 0-2.829-1.564-5.268-1.564-2.461-4.315-3.796-2.157-1.035-5.878-1.196l5.146-12.123h9.618z"/><path d="m1288.174 63.02v-.851q2.573-.046 4.79-1.38 2.217-1.357 4.275-4.716 2.078-3.358 2.89-7.384-3.107 2.323-5.621 2.323-2.83 0-4.849-2.53-2.019-2.553-2.019-6.763 0-4.095 2.019-7.292 2.434-3.888 6.353-3.888 3.305 0 5.66 3.174 2.89 3.933 2.89 9.707 0 5.199-2.197 9.707-2.197 4.486-6.116 7.453-3.186 2.438-6.947 2.438h-1.128zm12.271-16.033q.356-2.99.356-4.785 0-2.231-.653-4.808-.653-2.599-1.86-3.979-1.188-1.38-2.711-1.38-1.761 0-3.087 1.84-1.326 1.84-1.326 5.475 0 4.854 1.761 7.591 1.286 1.978 3.167 1.978.91 0 2.157-.506 1.247-.506 2.197-1.426z"/><path d="m1519.771 30.54v.851q-2.613.299-4.275 1.219-1.643.897-3.266 2.76-1.603 1.863-2.672 4.163-1.049 2.277-1.761 5.429 2.85-2.277 5.72-2.277 2.751 0 4.77 2.576t2.019 6.625q0 3.91-2.039 7.131-2.454 3.91-6.492 3.91-2.751 0-4.671-2.116-3.76-4.117-3.76-10.673 0-4.186 1.445-7.959t4.117-6.694q2.692-2.921 5.146-3.933t4.572-1.012h1.148zm-12.311 16.102q-.356 3.105-.356 5.015 0 2.208.693 4.808.712 2.576 2.098 4.095 1.009 1.081 2.454 1.081 1.722 0 3.068-1.886 1.366-1.886 1.366-5.383 0-3.933-1.346-6.809t-3.82-2.875q-.752 0-1.623.368-.851.368-2.533 1.587z"/><path d="m1523.333 46.97q0-5.337 1.385-9.178 1.385-3.865 3.681-5.751 1.781-1.495 3.681-1.495 3.088 0 5.542 3.658 3.068 4.532 3.068 12.284 0 5.429-1.346 9.224t-3.444 5.521q-2.078 1.702-4.018 1.702-3.84 0-6.393-5.268-2.157-4.44-2.157-10.696zm3.879.575q0 6.441 1.366 10.512 1.128 3.427 3.365 3.427 1.069 0 2.217-1.104 1.148-1.127 1.742-3.749.91-3.957.91-11.156 0-5.337-.95-8.902-.712-2.645-1.841-3.749-.811-.759-1.959-.759-1.346 0-2.395 1.403-1.425 1.909-1.94 6.004-.515 4.095-.515 8.074z"/><path d="m1594.076 51.96h-41.266v-1.702h41.266z"/><path d="m4.828 10.991h471.66v-5.99h-471.66z"/><path d="m476.49 10.991h5.16v-5.99h-5.16z"/><path d="m481.65 10.991h304.36v-5.99h-304.36z"/><path d="m786.01 10.991h5.16v-5.99h-5.16z"/><path d="m791.17 10.991h300.68v-5.99h-300.68z"/><path d="m1091.8 10.991h5.16v-5.99h-5.16z"/><path d="m1097 10.991h300.69v-5.99h-300.69z"/><path d="m1397.7 10.991h5.15v-5.99h-5.15z"/><path d="m1402.8 10.991h293.32v-5.99h-293.32z"/><path d="m237.873 141.53q2.019 4.048 4.354 5.958 2.355 1.909 5.344 2.185v.736q-2.731-.115-5.839-1.288-3.107-1.15-5.898-3.22-2.771-2.047-4.79-4.371-2.85-1.334-4.513-2.829-2.415-2.231-3.76-5.475-1.326-3.266-1.326-7.706 0-6.993 3.899-11.616 3.899-4.624 9.44-4.624 5.265 0 9.104 4.647 3.859 4.624 3.859 11.685 0 5.728-2.751 10.052-2.731 4.325-7.125 5.866zm-3.325-30.479q-3.602 0-5.799 2.99-2.771 3.749-2.771 11.478 0 7.568 2.81 11.662 2.177 3.151 5.759 3.151 3.721 0 5.997-3.151 2.672-3.727 2.672-10.995 0-5.59-1.465-9.408-1.128-2.944-3.008-4.325-1.86-1.403-4.196-1.403z"/><path d="m261.502 138.15v2.079h-2.292v5.241h-2.078v-5.241h-7.23v-1.874l7.922-13.146h1.386v12.941zm-4.37 0v-9.852l-5.995 9.852z"/><path d="m590.299 113.05 6.531-3.704h.653v26.338q0 2.622.178 3.266.198.644.792.989t2.415.391v.851h-10.094v-.851q1.9-.046 2.454-.368.554-.345.772-.897.218-.575.218-3.381v-16.838q0-3.404-.198-4.371-.139-.736-.515-1.081-.356-.345-.871-.345-.732 0-2.039.713l-.297-.713z"/><path d="m613.599 125.47q-3.186-3.036-4.117-4.877-.91-1.84-.91-3.818 0-3.036 2.019-5.222 2.019-2.208 5.364-2.208 3.246 0 5.225 2.047t1.979 4.67q0 1.748-1.069 3.565t-4.453 4.279q3.483 3.128 4.611 4.923 1.504 2.346 1.504 4.946 0 3.289-2.157 5.636-2.157 2.323-5.66 2.323-3.82 0-5.957-2.783-1.702-2.231-1.702-4.877 0-2.07 1.188-4.095 1.207-2.047 4.136-4.509zm3.107-2.461q2.375-2.484 3.008-3.91.633-1.449.633-3.266 0-2.415-1.168-3.772-1.168-1.38-3.186-1.38t-3.285 1.357-1.267 3.174q0 1.196.515 2.392.534 1.196 1.504 2.277zm-2.177 3.335q-1.643 1.61-2.434 3.519-.792 1.886-.792 4.095 0 2.967 1.385 4.762 1.405 1.771 3.562 1.771 2.137 0 3.424-1.403t1.286-3.404q0-1.656-.752-2.967-1.405-2.438-5.68-6.372z"/><path d="m678.026 130.76h-41.266v-1.702h41.266z"/><path d="m898.359 113.05 6.531-3.704h.653v26.338q0 2.622.178 3.266.198.644.792.989t2.415.391v.851h-10.094v-.851q1.9-.046 2.454-.368.554-.345.772-.897.218-.575.218-3.381v-16.838q0-3.404-.198-4.371-.139-.736-.515-1.081-.356-.345-.871-.345-.732 0-2.039.713l-.297-.713z"/><path d="m917.95 109.99h14.388v.874l-8.946 30.962h-2.217l8.016-28.087h-7.382q-2.236 0-3.186.621-1.662 1.058-2.672 3.266l-.574-.253 2.573-7.384z"/><path d="m986.076 130.76h-41.266v-1.702h41.266z"/><path d="m1204.189 113.05 6.531-3.704h.653v26.338q0 2.622.178 3.266.198.644.792.989t2.415.391v.851h-10.094v-.851q1.9-.046 2.454-.368.554-.345.772-.897.218-.575.218-3.381v-16.838q0-3.404-.198-4.371-.139-.736-.515-1.081-.356-.345-.871-.345-.732 0-2.039.713l-.297-.713z"/><path d="m1238.571 129.68v3.266h-3.602v8.235h-3.266v-8.235h-11.361v-2.944l12.449-20.657h2.177v20.335h3.602zm-6.868 0v-15.481l-9.421 15.481z"/><path d="m1291.916 130.76h-41.266v-1.702h41.266z"/><path d="m1506.349 113.05 6.531-3.704h.653v26.338q0 2.622.178 3.266.198.644.792.989t2.415.391v.851h-10.094v-.851q1.9-.046 2.454-.368.554-.345.772-.897.218-.575.218-3.381v-16.838q0-3.404-.198-4.371-.139-.736-.515-1.081-.356-.345-.871-.345-.732 0-2.039.713l-.297-.713z"/><path d="m1539.457 109.99-1.544 3.91h-8.075l-1.761 4.186q5.245.897 8.312 4.532 2.632 3.128 2.632 7.361 0 2.461-.871 4.555-.851 2.093-2.157 3.566t-2.909 2.369q-2.276 1.265-4.671 1.265-2.415 0-3.523-.943-1.089-.966-1.089-2.116 0-.644.455-1.127.455-.506 1.148-.506.515 0 .891.184.396.184 1.326.943 1.484 1.196 3.008 1.196 2.316 0 4.057-2.024 1.761-2.047 1.761-4.969 0-2.829-1.564-5.268-1.564-2.461-4.315-3.796-2.157-1.035-5.878-1.196l5.146-12.123h9.618z"/><path d="m1594.076 130.76h-41.266v-1.702h41.266z"/><path d="m4.828 88.081h471.66v-5.99h-471.66z"/><path d="m476.49 88.081h5.16v-5.99h-5.16z"/><path d="m481.65 88.081h304.36v-5.99h-304.36z"/><path d="m786.01 88.081h5.16v-5.99h-5.16z"/><path d="m791.17 88.081h300.68v-5.99h-300.68z"/><path d="m1091.8 88.081h5.16v-5.99h-5.16z"/><path d="m1097 88.081h300.69v-5.99h-300.69z"/><path d="m1397.7 88.081h5.15v-5.99h-5.15z"/><path d="m1402.8 88.081h293.32v-5.99h-293.32z"/><path d="m220.717 213.99v-.851h1.009q1.702 0 2.415-1.265.435-.759.435-3.404v-20.151q0-2.921-.554-3.658-.772-1.012-2.296-1.012h-1.009v-.851h10.925q6.017 0 9.143 1.587 3.147 1.587 5.047 5.291 1.92 3.704 1.92 8.557 0 6.51-3.404 10.88-3.82 4.877-11.638 4.877h-11.994zm7.659-2.254q2.514.644 4.216.644 4.592 0 7.62-3.749t3.028-10.167q0-6.464-3.028-10.19-3.028-3.727-7.778-3.727-1.781 0-4.057.667v26.522z"/><path d="m250.859 218.683v-.542q1.637-.029 3.048-.878 1.411-.864 2.721-3.001 1.323-2.137 1.839-4.699-1.977 1.478-3.577 1.478-1.801 0-3.086-1.61-1.285-1.625-1.285-4.304 0-2.606 1.285-4.641 1.549-2.474 4.043-2.474 2.103 0 3.602 2.02 1.839 2.503 1.839 6.178 0 3.308-1.398 6.178-1.398 2.854-3.892 4.743-2.028 1.552-4.421 1.552zm7.809-10.203q.227-1.903.227-3.045 0-1.42-.416-3.059-.416-1.654-1.184-2.533-.756-.878-1.726-.878-1.121 0-1.965 1.171-.844 1.171-.844 3.484 0 3.089 1.121 4.831.819 1.259 2.015 1.259.579 0 1.373-.322.793-.322 1.398-.908z"/><path d="m590.299 185.86 6.531-3.704h.653v26.338q0 2.622.178 3.266.198.644.792.989t2.415.391v.851h-10.094v-.851q1.9-.046 2.454-.368.554-.345.772-.897.218-.575.218-3.381v-16.838q0-3.404-.198-4.371-.139-.736-.515-1.081-.356-.345-.871-.345-.732 0-2.039.713l-.297-.713z"/><path d="m607.954 214.63v-.851q2.573-.046 4.79-1.38 2.217-1.357 4.275-4.716 2.078-3.358 2.89-7.384-3.107 2.323-5.621 2.323-2.83 0-4.849-2.53-2.019-2.553-2.019-6.763 0-4.095 2.019-7.292 2.434-3.888 6.353-3.888 3.305 0 5.66 3.174 2.89 3.933 2.89 9.707 0 5.199-2.197 9.707-2.197 4.486-6.116 7.453-3.186 2.438-6.947 2.438h-1.128zm12.271-16.033q.356-2.99.356-4.785 0-2.231-.653-4.808-.653-2.599-1.86-3.979-1.188-1.38-2.711-1.38-1.761 0-3.087 1.84-1.326 1.84-1.326 5.475 0 4.854 1.761 7.591 1.286 1.978 3.167 1.978.91 0 2.157-.506 1.247-.506 2.197-1.426z"/><path d="m678.026 203.57h-41.266v-1.702h41.266z"/><path d="m898.359 185.86 6.531-3.704h.653v26.338q0 2.622.178 3.266.198.644.792.989t2.415.391v.851h-10.094v-.851q1.9-.046 2.454-.368.554-.345.772-.897.218-.575.218-3.381v-16.838q0-3.404-.198-4.371-.139-.736-.515-1.081-.356-.345-.871-.345-.732 0-2.039.713l-.297-.713z"/><path d="m921.659 198.28q-3.186-3.036-4.117-4.877-.91-1.84-.91-3.818 0-3.036 2.019-5.222 2.019-2.208 5.364-2.208 3.246 0 5.225 2.047t1.979 4.67q0 1.748-1.069 3.565t-4.453 4.279q3.483 3.128 4.611 4.923 1.504 2.346 1.504 4.946 0 3.289-2.157 5.636-2.157 2.323-5.66 2.323-3.82 0-5.957-2.783-1.702-2.231-1.702-4.877 0-2.07 1.188-4.095 1.207-2.047 4.136-4.509zm3.107-2.461q2.375-2.484 3.008-3.91.633-1.449.633-3.266 0-2.415-1.168-3.772-1.168-1.38-3.186-1.38t-3.285 1.357-1.267 3.174q0 1.196.515 2.392.534 1.196 1.504 2.277zm-2.177 3.335q-1.643 1.61-2.434 3.519-.792 1.886-.792 4.095 0 2.967 1.385 4.762 1.405 1.771 3.562 1.771 2.137 0 3.424-1.403t1.286-3.404q0-1.656-.752-2.967-1.405-2.438-5.68-6.372z"/><path d="m986.076 203.57h-41.266v-1.702h41.266z"/><path d="m1204.189 185.86 6.531-3.704h.653v26.338q0 2.622.178 3.266.198.644.792.989t2.415.391v.851h-10.094v-.851q1.9-.046 2.454-.368.554-.345.772-.897.218-.575.218-3.381v-16.838q0-3.404-.198-4.371-.139-.736-.515-1.081-.356-.345-.871-.345-.732 0-2.039.713l-.297-.713z"/><path d="m1237.297 182.8-1.544 3.91h-8.075l-1.761 4.186q5.245.897 8.312 4.532 2.632 3.128 2.632 7.361 0 2.461-.871 4.555-.851 2.093-2.157 3.566t-2.909 2.369q-2.276 1.265-4.671 1.265-2.415 0-3.523-.943-1.089-.966-1.089-2.116 0-.644.455-1.127.455-.506 1.148-.506.515 0 .891.184.396.184 1.326.943 1.484 1.196 3.008 1.196 2.316 0 4.057-2.024 1.761-2.047 1.761-4.969 0-2.829-1.564-5.268-1.564-2.461-4.315-3.796-2.157-1.035-5.878-1.196l5.146-12.123h9.618z"/><path d="m1291.916 203.57h-41.266v-1.702h41.266z"/><path d="m1506.349 185.86 6.531-3.704h.653v26.338q0 2.622.178 3.266.198.644.792.989t2.415.391v.851h-10.094v-.851q1.9-.046 2.454-.368.554-.345.772-.897.218-.575.218-3.381v-16.838q0-3.404-.198-4.371-.139-.736-.515-1.081-.356-.345-.871-.345-.732 0-2.039.713l-.297-.713z"/><path d="m1540.034 182.15v.851q-2.613.299-4.275 1.219-1.643.897-3.266 2.76-1.603 1.863-2.672 4.163-1.049 2.277-1.761 5.429 2.85-2.277 5.72-2.277 2.751 0 4.77 2.576t2.019 6.625q0 3.91-2.039 7.131-2.454 3.91-6.492 3.91-2.751 0-4.671-2.116-3.76-4.117-3.76-10.673 0-4.186 1.445-7.959t4.117-6.694q2.692-2.921 5.146-3.933t4.572-1.012h1.148zm-12.311 16.102q-.356 3.105-.356 5.015 0 2.208.693 4.808.712 2.576 2.098 4.095 1.009 1.081 2.454 1.081 1.722 0 3.068-1.886 1.366-1.886 1.366-5.383 0-3.933-1.346-6.809t-3.82-2.875q-.752 0-1.623.368-.851.368-2.533 1.587z"/><path d="m1594.076 203.57h-41.266v-1.702h41.266z"/><path d="m214.087 285.938v-.851h1.009q1.702 0 2.415-1.265.435-.759.435-3.404v-20.151q0-2.921-.554-3.658-.772-1.012-2.296-1.012h-1.009v-.851h10.925q6.017 0 9.143 1.587 3.147 1.587 5.047 5.291 1.92 3.704 1.92 8.557 0 6.51-3.404 10.88-3.82 4.877-11.638 4.877h-11.994zm7.659-2.254q2.514.644 4.216.644 4.592 0 7.62-3.749t3.028-10.167q0-6.464-3.028-10.19-3.028-3.727-7.778-3.727-1.781 0-4.057.667v26.522z"/><path d="m245.88 272.32 4.156-2.357h.416v16.761q0 1.669.113 2.079.126.41.504.629t1.537.249v.542h-6.423v-.542q1.209-.029 1.562-.234.353-.22.491-.571.139-.366.139-2.152v-10.716q0-2.167-.126-2.781-.088-.468-.327-.688-.227-.22-.554-.22-.466 0-1.297.454l-.189-.454z"/><path d="m256.686 280.41q0-3.396.882-5.841.882-2.459 2.343-3.66 1.134-.952 2.343-.952 1.965 0 3.527 2.328 1.952 2.884 1.952 7.817 0 3.455-.856 5.87t-2.192 3.513q-1.323 1.083-2.557 1.083-2.443 0-4.068-3.352-1.373-2.825-1.373-6.807zm2.469.366q0 4.099.869 6.69.718 2.181 2.141 2.181.68 0 1.411-.703.731-.717 1.108-2.386.579-2.518.579-7.1 0-3.396-.605-5.665-.453-1.683-1.171-2.386-.516-.483-1.247-.483-.856 0-1.524.893-.907 1.215-1.234 3.821-.327 2.606-.327 5.138z"/><path d="m604.134 279.938-1.88 6.004h-15.833v-.851q6.986-7.407 9.836-12.1 2.85-4.693 2.85-8.58 0-2.967-1.564-4.877t-3.741-1.909q-1.979 0-3.562 1.357-1.564 1.334-2.316 3.933h-.732q.495-4.255 2.533-6.533 2.058-2.277 5.126-2.277 3.266 0 5.443 2.438 2.197 2.438 2.197 5.751 0 2.369-.95 4.739-1.465 3.727-4.75 7.89-4.928 6.257-6.155 7.545h7.006q2.137 0 2.989-.184.871-.184 1.564-.736.693-.575 1.207-1.61z"/><path d="m624.397 279.938-1.88 6.004h-15.833v-.851q6.986-7.407 9.836-12.1 2.85-4.693 2.85-8.58 0-2.967-1.564-4.877t-3.741-1.909q-1.979 0-3.562 1.357-1.564 1.334-2.316 3.933h-.732q.495-4.255 2.533-6.533 2.058-2.277 5.126-2.277 3.266 0 5.443 2.438 2.197 2.438 2.197 5.751 0 2.369-.95 4.739-1.465 3.727-4.75 7.89-4.928 6.257-6.155 7.545h7.006q2.137 0 2.989-.184.871-.184 1.564-.736.693-.575 1.207-1.61z"/><path d="m678.026 275.518h-41.266v-1.702h41.266z"/><path d="m912.194 279.938-1.88 6.004h-15.833v-.851q6.986-7.407 9.836-12.1 2.85-4.693 2.85-8.58 0-2.967-1.564-4.877t-3.741-1.909q-1.979 0-3.562 1.357-1.564 1.334-2.316 3.933h-.732q.495-4.255 2.533-6.533 2.058-2.277 5.126-2.277 3.266 0 5.443 2.438 2.197 2.438 2.197 5.751 0 2.369-.95 4.739-1.465 3.727-4.75 7.89-4.928 6.257-6.155 7.545h7.006q2.137 0 2.989-.184.871-.184 1.564-.736.693-.575 1.207-1.61z"/><path d="m932.457 279.938-1.88 6.004h-15.833v-.851q6.986-7.407 9.836-12.1 2.85-4.693 2.85-8.58 0-2.967-1.564-4.877t-3.741-1.909q-1.979 0-3.562 1.357-1.564 1.334-2.316 3.933h-.732q.495-4.255 2.533-6.533 2.058-2.277 5.126-2.277 3.266 0 5.443 2.438 2.197 2.438 2.197 5.751 0 2.369-.95 4.739-1.465 3.727-4.75 7.89-4.928 6.257-6.155 7.545h7.006q2.137 0 2.989-.184.871-.184 1.564-.736.693-.575 1.207-1.61z"/><path d="m986.076 275.518h-41.266v-1.702h41.266z"/><path d="m1204.189 257.808 6.531-3.704h.653v26.338q0 2.622.178 3.266.198.644.792.989t2.415.391v.851h-10.094v-.851q1.9-.046 2.454-.368.554-.345.772-.897.218-.575.218-3.381v-16.838q0-3.404-.198-4.371-.139-.736-.515-1.081-.356-.345-.871-.345-.732 0-2.039.713l-.297-.713z"/><path d="m1221.844 286.578v-.851q2.573-.046 4.79-1.38 2.217-1.357 4.275-4.716 2.078-3.358 2.89-7.384-3.107 2.323-5.621 2.323-2.83 0-4.849-2.53-2.019-2.553-2.019-6.763 0-4.095 2.019-7.292 2.434-3.888 6.353-3.888 3.305 0 5.66 3.174 2.89 3.933 2.89 9.707 0 5.199-2.197 9.707-2.197 4.486-6.116 7.453-3.186 2.438-6.947 2.438h-1.128zm12.271-16.033q.356-2.99.356-4.785 0-2.231-.653-4.808-.653-2.599-1.86-3.979-1.188-1.38-2.711-1.38-1.761 0-3.087 1.84-1.326 1.84-1.326 5.475 0 4.854 1.761 7.591 1.286 1.978 3.167 1.978.91 0 2.157-.506 1.247-.506 2.197-1.426z"/><path d="m1291.916 275.518h-41.266v-1.702h41.266z"/><path d="m1506.349 257.808 6.531-3.704h.653v26.338q0 2.622.178 3.266.198.644.792.989t2.415.391v.851h-10.094v-.851q1.9-.046 2.454-.368.554-.345.772-.897.218-.575.218-3.381v-16.838q0-3.404-.198-4.371-.139-.736-.515-1.081-.356-.345-.871-.345-.732 0-2.039.713l-.297-.713z"/><path d="m1524.004 286.578v-.851q2.573-.046 4.79-1.38 2.217-1.357 4.275-4.716 2.078-3.358 2.89-7.384-3.107 2.323-5.621 2.323-2.83 0-4.849-2.53-2.019-2.553-2.019-6.763 0-4.095 2.019-7.292 2.434-3.888 6.353-3.888 3.305 0 5.66 3.174 2.89 3.933 2.89 9.707 0 5.199-2.197 9.707-2.197 4.486-6.116 7.453-3.186 2.438-6.947 2.438h-1.128zm12.271-16.033q.356-2.99.356-4.785 0-2.231-.653-4.808-.653-2.599-1.86-3.979-1.188-1.38-2.711-1.38-1.761 0-3.087 1.84-1.326 1.84-1.326 5.475 0 4.854 1.761 7.591 1.286 1.978 3.167 1.978.91 0 2.157-.506 1.247-.506 2.197-1.426z"/><path d="m1594.076 275.518h-41.266v-1.702h41.266z"/><path d="m237.873 368.516q2.019 4.048 4.354 5.958 2.355 1.909 5.344 2.185v.736q-2.731-.115-5.839-1.288-3.107-1.15-5.898-3.22-2.771-2.047-4.79-4.371-2.85-1.334-4.513-2.829-2.415-2.231-3.76-5.475-1.326-3.266-1.326-7.706 0-6.993 3.899-11.616 3.899-4.624 9.44-4.624 5.265 0 9.104 4.647 3.859 4.624 3.859 11.685 0 5.728-2.751 10.052-2.731 4.325-7.125 5.866zm-3.325-30.479q-3.602 0-5.799 2.99-2.771 3.749-2.771 11.478 0 7.568 2.81 11.662 2.177 3.151 5.759 3.151 3.721 0 5.997-3.151 2.672-3.727 2.672-10.995 0-5.59-1.465-9.408-1.128-2.944-3.008-4.325-1.86-1.403-4.196-1.403z"/><path d="m252.52 354.549 4.156-2.357h.416v16.761q0 1.669.113 2.079.126.41.504.629t1.537.249v.542h-6.423v-.542q1.209-.029 1.562-.234.353-.22.491-.571.139-.366.139-2.152v-10.716q0-2.167-.126-2.781-.088-.468-.327-.688-.227-.22-.554-.22-.466 0-1.297.454l-.189-.454z"/><path d="m626.436 357.746h-41.266v-1.702h41.266z"/><path d="m641.149 340.036 6.531-3.704h.653v26.338q0 2.622.178 3.266.198.644.792.989t2.415.391v.851h-10.094v-.851q1.9-.046 2.454-.368.554-.345.772-.897.218-.575.218-3.381v-16.838q0-3.404-.198-4.371-.139-.736-.515-1.081-.356-.345-.871-.345-.732 0-2.039.713l-.297-.713z"/><path d="m658.133 352.756q0-5.337 1.385-9.178 1.385-3.865 3.681-5.751 1.781-1.495 3.681-1.495 3.088 0 5.542 3.658 3.068 4.532 3.068 12.284 0 5.429-1.346 9.224t-3.444 5.521q-2.078 1.702-4.018 1.702-3.84 0-6.393-5.268-2.157-4.44-2.157-10.696zm3.879.575q0 6.441 1.366 10.512 1.128 3.427 3.365 3.427 1.069 0 2.217-1.104 1.148-1.127 1.742-3.749.91-3.957.91-11.156 0-5.337-.95-8.902-.712-2.645-1.841-3.749-.811-.759-1.959-.759-1.346 0-2.395 1.403-1.425 1.909-1.94 6.004-.515 4.095-.515 8.074z"/><path d="m934.496 357.746h-41.266v-1.702h41.266z"/><path d="m949.209 340.036 6.531-3.704h.653v26.338q0 2.622.178 3.266.198.644.792.989t2.415.391v.851h-10.094v-.851q1.9-.046 2.454-.368.554-.345.772-.897.218-.575.218-3.381v-16.838q0-3.404-.198-4.371-.139-.736-.515-1.081-.356-.345-.871-.345-.732 0-2.039.713l-.297-.713z"/><path d="m966.193 352.756q0-5.337 1.385-9.178 1.385-3.865 3.681-5.751 1.781-1.495 3.681-1.495 3.088 0 5.542 3.658 3.068 4.532 3.068 12.284 0 5.429-1.346 9.224t-3.444 5.521q-2.078 1.702-4.018 1.702-3.84 0-6.393-5.268-2.157-4.44-2.157-10.696zm3.879.575q0 6.441 1.366 10.512 1.128 3.427 3.365 3.427 1.069 0 2.217-1.104 1.148-1.127 1.742-3.749.91-3.957.91-11.156 0-5.337-.95-8.902-.712-2.645-1.841-3.749-.811-.759-1.959-.759-1.346 0-2.395 1.403-1.425 1.909-1.94 6.004-.515 4.095-.515 8.074z"/><path d="m1255.066 357.746h-41.266v-1.702h41.266z"/><path d="m1258.798 336.976h14.388v.874l-8.946 30.962h-2.217l8.016-28.087h-7.382q-2.236 0-3.186.621-1.662 1.058-2.672 3.266l-.574-.253 2.573-7.384z"/><path d="m1557.226 357.746h-41.266v-1.702h41.266z"/><path d="m1559.003 368.806v-.851q2.573-.046 4.79-1.38 2.217-1.357 4.275-4.716 2.078-3.358 2.89-7.384-3.107 2.323-5.621 2.323-2.83 0-4.849-2.53-2.019-2.553-2.019-6.763 0-4.095 2.019-7.292 2.434-3.888 6.353-3.888 3.305 0 5.66 3.174 2.89 3.933 2.89 9.707 0 5.199-2.197 9.707-2.197 4.486-6.116 7.453-3.186 2.438-6.947 2.438h-1.128zm12.271-16.033q.356-2.99.356-4.785 0-2.231-.653-4.808-.653-2.599-1.86-3.979-1.188-1.38-2.711-1.38-1.761 0-3.087 1.84-1.326 1.84-1.326 5.475 0 4.854 1.761 7.591 1.286 1.978 3.167 1.978.91 0 2.157-.506 1.247-.506 2.197-1.426z"/><path d="m4.828 313.35h471.66v-5.99h-471.66z"/><path d="m476.49 313.35h5.16v-5.99h-5.16z"/><path d="m481.65 313.35h304.36v-5.99h-304.36z"/><path d="m786.01 313.35h5.16v-5.99h-5.16z"/><path d="m791.17 313.35h300.68v-5.99h-300.68z"/><path d="m1091.8 313.35h5.16v-5.99h-5.16z"/><path d="m1097 313.35h300.69v-5.99h-300.69z"/><path d="m1397.7 313.35h5.15v-5.99h-5.15z"/><path d="m1402.8 313.35h293.32v-5.99h-293.32z"/><path d="m4.828 396.43h471.66v-5.99h-471.66z"/><path d="m476.49 396.43h5.16v-5.99h-5.16z"/><path d="m481.65 396.43h304.36v-5.99h-304.36z"/><path d="m786.01 396.43h5.16v-5.99h-5.16z"/><path d="m791.17 396.43h300.68v-5.99h-300.68z"/><path d="m1091.8 396.43h5.16v-5.99h-5.16z"/><path d="m1097 396.43h300.69v-5.99h-300.69z"/><path d="m1397.7 396.43h5.15v-5.99h-5.15z"/><path d="m1402.8 396.43h293.32v-5.99h-293.32z"/></svg>