<svg xmlns="http://www.w3.org/2000/svg" height="203.52mm" width="222.78mm" viewBox="0 0 789.36859 721.14397"><path d="M371.59 17.716l-27.531 7.939c-15.142 4.367-28.663 9.771-30.045 12.008l-2.512 4.066 2.348 2.348 2.348 2.348 21.117-6.695 21.117-6.697 33.275-2.828 33.275-2.83 35.705 4.889c19.638 2.689 43.152 7.622 52.252 10.963l12.773 4.689h24.285c3.802 0 6.876.734 9.232 1.916l4.904.088-4.168-4.117c-2.292-2.263-21.93-9.389-43.641-15.836l-39.49-11.726-52.63-.265-52.63-.264zm-120.4 45.361c-13.822 0-76.393 54.096-106.76 92.297l-15.84 19.926-15.418 32.705-15.416 32.705-11.074 43.859-11.072 43.859-.039 17.908c-.022 9.85 1.221 19.172 2.764 20.715 1.543 1.543 4.226 1.927 5.963.854l3.158-1.953 2.992-33.016 2.992-33.018 11.061-33.99 11.059-33.992 15.699-28.508c25.614-46.513 62.074-87.465 101.96-114.52l21.908-14.863.113-5.482.113-5.482h-4.166zm350.66 8.771v12.662l8.152 5.731c36.566 25.706 73.832 70.876 98.807 119.77l15.684 30.703 8.787 35.086c4.833 19.298 8.816 38.405 8.854 42.459l.066 7.371-8.42 1.4-8.422 1.402 11.059 18.641 11.061 18.641h8.24l7.969-18.641 7.969-18.641-7.6-2.945-7.598-2.945-2.955-19.709c-9.54-63.61-43.79-133.39-88.62-180.54-19.68-20.69-54.86-50.44-59.66-50.44h-3.369zm-39.584 27.428c-.657 1.245-1.269 2.343-1.84 3.275h1.949l-.109-3.275zm-116.12 73.555l-21.93.055c-30.165.076-56.577 6.771-88.285 22.379l-26.883 13.232-14.549 15.01-14.547 15.01h20.062l17.895-15.316 17.893-15.316 24.471-9.713 24.471-9.713 39.473-.123 39.475-.121 23.877 10.707c13.133 5.889 32.395 17.206 42.803 25.15 18.718 14.288 27.619 17.794 27.619 10.879 0-5.945-22.878-25.259-44.895-37.9l-20.773-11.928-23.088-6.144-23.088-6.146zm159.67 108.91c-.093.219-.193.426-.295.631h.602l-.307-.631zm-18.074 18.174l2.752 10.965 2.752 10.965-5.566.52c-3.061.286-7.046.286-8.855 0s-3.289.567-3.289 1.893c0 3.486 13.483 29.518 18.629 35.967 6.667 8.354 9.105 6.612 19.162-13.684l9.283-18.732-9.283-4.078-9.281-4.076-1.402-9.869-1.402-9.869h-13.498zm-348.73 8.773l-2.789 20.348c-1.534 11.192-2.789 25.009-2.789 30.703v10.352h13.158l.049-14.254c.027-7.84 1.27-21.655 2.766-30.701l2.719-16.447h-13.114zm-151.27 135.12l-3.43.025v.814h3.43c-.014-.271-.014-.551 0-.84zm160.7 53.471c-.936 0-6.702 9.868-12.814 21.93l-11.113 21.93h20.316l5.871 16.447c3.229 9.046 13.001 26.786 21.715 39.422 8.714 12.636 17.324 22.997 19.133 23.027 6.595.104 3.024-11.759-7.981-26.51-11.013-14.762-23.818-40.856-23.818-48.535v-3.852h6.578c3.618 0 6.58-1.128 6.58-2.508 0-3.513-22.388-41.352-24.467-41.352zm506.83 12.533l-7.297 1.408-7.299 1.41-4.998 21.93c-2.749 12.061-7.339 26.241-10.199 31.51-2.861 5.269-5.201 10.841-5.201 12.383v2.803l7.553-1.455 7.551-1.453 7.168-19.701c3.942-10.835 8.417-26.256 9.945-34.268l2.777-14.566zm-425.93 82.693l-.967.279.219.527c.252-.266.511-.528.748-.807zm358.17 22.16l-.037.053.033.033.004-.086zm-94.197 16.854c-1.488.21-3.26.406-5.547.65 2.201.245 3.901.066 5.547-.65zm-230.49 1.961v.096h.336l-.336-.096zm300.83 8.535l-15.705 10.658-15.705 10.658-36.025 12.369-36.025 12.367h-118.42l-21.93-6.139c-12.061-3.376-36.082-12.925-53.381-21.221l-31.453-15.084-8.021 1.685-8.021 1.688 24.123 14.012 24.121 14.012 32.896 10.77c18.092 5.923 37.829 11.594 43.859 12.602 6.031 1.008 30.879 2.101 55.219 2.43l44.254.598 33.877-8.664 33.877-8.664 24.939-13.395c13.716-7.366 29.874-17.239 35.904-21.939l10.965-8.547-9.674-.098-9.674-.098zm-361.065-588.265v1.348q-3.047 1.992-4.482 3.897-1.992 2.637-3.106 6.768-1.406 5.127-1.406 14.326 0 8.672 1.26 13.477 1.289 4.805 3.486 7.764 1.523 2.051 4.248 3.603v1.465q-7.061-2.373-11.982-9.697-4.893-7.295-4.893-16.787 0-9.375 4.893-16.582 4.893-7.236 11.982-9.58zm20.3.09v32.49q0 3.662.322 4.688.322.996 1.348 1.641 1.025.645 3.281.645h.908v1.084h-20.918v-1.084h1.055q2.549 0 3.633-.586t1.465-1.611q.381-1.025.381-4.775v-20.596q0-2.754-.264-3.428-.264-.703-.996-1.172-.703-.498-1.641-.498-1.494 0-3.633.938l-.527-1.055 14.619-6.68h.967zm11.19 52.55v-1.348q3.047-2.022 4.482-3.926 1.963-2.637 3.106-6.738 1.406-5.156 1.406-14.355 0-8.672-1.289-13.447-1.26-4.805-3.457-7.764-1.523-2.051-4.248-3.603v-1.465q7.061 2.373 11.953 9.697 4.922 7.295 4.922 16.787 0 9.346-4.922 16.553-4.893 7.236-11.953 9.609zm50.66-49.45v16.172h.791q3.779 0 5.479-2.373t2.168-7.002h1.113v20.801h-1.113q-.352-3.398-1.494-5.566-1.113-2.168-2.607-2.9-1.494-.762-4.336-.762v11.191q0 3.281.264 4.014.293.732 1.055 1.201.762.469 2.461.469h2.373q5.566 0 8.906-2.578 3.369-2.578 4.834-7.852h1.084l-1.787 12.627h-34.336v-1.084h1.318q1.728 0 2.783-.615.762-.41 1.172-1.406.322-.703.322-3.691v-26.133q0-2.695-.146-3.311-.293-1.025-1.084-1.582-1.113-.82-3.047-.82h-1.318v-1.084h33.252v11.748h-1.113q-.85-4.307-2.402-6.182-1.523-1.875-4.336-2.754-1.641-.527-6.152-.527h-4.102zm66.44-2.28v1.084q-2.168.352-3.867 2.314-1.23 1.465-3.662 6.885l-13.682 30.352h-.967l-13.623-31.582q-2.461-5.713-3.311-6.709-.82-.996-3.135-1.26v-1.084h19.043v1.084h-.645q-2.578 0-3.516.645-.674.439-.674 1.289 0 .527.234 1.26.234.703 1.582 3.838l8.467 19.775 7.852-17.607q1.406-3.193 1.728-4.277.322-1.084.322-1.846 0-.879-.469-1.553-.469-.674-1.377-1.025-1.26-.498-3.34-.498v-1.084h13.037zm22.77-.56q9.492-.352 15.41 5.537 5.947 5.889 5.947 14.736 0 7.559-4.424 13.301-5.859 7.617-16.553 7.617-10.723 0-16.582-7.266-4.629-5.742-4.629-13.623 0-8.848 6.006-14.736 6.035-5.918 14.824-5.566zm.352 1.875q-5.449 0-8.291 5.566-2.314 4.57-2.314 13.125 0 10.166 3.574 15.029 2.49 3.398 6.973 3.398 3.018 0 5.039-1.465 2.578-1.875 4.014-5.977 1.436-4.131 1.436-10.752 0-7.881-1.465-11.777-1.465-3.926-3.75-5.537-2.256-1.611-5.215-1.611zm63.158-2.225v13.77h-1.143q-1.289-5.391-4.805-8.262t-7.969-2.871q-3.721 0-6.826 2.139t-4.541 5.596q-1.846 4.424-1.846 9.844 0 5.332 1.348 9.727 1.348 4.365 4.219 6.621 2.871 2.227 7.441 2.227 3.75 0 6.856-1.641 3.135-1.641 6.592-5.654v3.428q-3.34 3.486-6.973 5.068-3.603 1.553-8.438 1.553-6.357 0-11.309-2.549-4.922-2.549-7.617-7.324-2.666-4.775-2.666-10.166 0-5.684 2.959-10.781 2.988-5.098 8.027-7.91 5.068-2.813 10.752-2.813 4.189 0 8.848 1.816 2.695 1.055 3.428 1.055.938 0 1.611-.674.703-.703.908-2.197h1.143zm28.27 29.32h-14.033l-1.67 3.867q-.82 1.934-.82 3.193 0 1.67 1.348 2.461.791.469 3.897.703v1.084h-13.213v-1.084q2.139-.322 3.516-1.758 1.377-1.465 3.398-6.006l14.209-31.699h.557l14.326 32.578q2.051 4.629 3.369 5.83.996.908 2.813 1.055v1.084h-19.219v-1.084h.791q2.314 0 3.252-.645.645-.469.645-1.348 0-.527-.176-1.084-.059-.264-.879-2.197l-2.109-4.951zm-.996-2.168l-5.918-13.682-6.094 13.682h12.012zm-338.914 162.758v1.348q-3.047 1.992-4.482 3.897-1.992 2.637-3.106 6.768-1.406 5.127-1.406 14.326 0 8.672 1.26 13.477 1.289 4.805 3.486 7.764 1.523 2.051 4.248 3.603v1.465q-7.061-2.373-11.982-9.697-4.893-7.295-4.893-16.787 0-9.375 4.893-16.582 4.893-7.236 11.982-9.58zm9.63 20.71v-1.025q3.34-.967 4.629-1.787 1.289-.85 2.227-2.549.938-1.728.938-3.486 0-2.432-1.787-4.16-1.758-1.758-4.394-1.758-4.102 0-6.973 4.336l-1.084-.381q2.109-4.893 5.391-7.354 3.311-2.461 7.354-2.461 4.131 0 6.797 2.519 2.695 2.519 2.695 5.889 0 2.197-1.26 4.248-1.23 2.022-3.897 3.574 3.428 1.67 5.215 4.131 1.816 2.432 1.816 6.123 0 6.211-4.512 10.576-4.482 4.336-12.041 4.336-5.039 0-7.354-1.67-1.67-1.172-1.67-3.018 0-1.348.967-2.285.967-.967 2.227-.967.967 0 1.816.41.469.234 3.311 2.578 2.871 2.314 5.361 2.314 2.168 0 3.721-1.699 1.553-1.728 1.553-4.365 0-4.014-2.813-7.383-2.813-3.398-8.232-4.688zm21.86 31.93v-1.348q3.047-2.022 4.482-3.926 1.963-2.637 3.106-6.738 1.406-5.156 1.406-14.355 0-8.672-1.289-13.447-1.26-4.805-3.457-7.764-1.523-2.051-4.248-3.603v-1.465q7.061 2.373 11.953 9.697 4.922 7.295 4.922 16.787 0 9.346-4.922 16.553-4.893 7.236-11.953 9.609zm50.24-30.11v11.133q0 3.223.381 4.072.41.82 1.406 1.318.996.498 3.721.498v1.084h-20.332v-1.084q2.754 0 3.721-.498.996-.527 1.377-1.348.41-.82.41-4.043v-25.781q0-3.223-.41-4.043-.381-.85-1.377-1.348-.996-.498-3.721-.498v-1.084h18.457q7.207 0 10.547.996 3.34.996 5.449 3.691 2.109 2.666 2.109 6.269 0 4.394-3.164 7.266-2.022 1.816-5.654 2.725l9.551 13.447q1.875 2.607 2.666 3.252 1.201.908 2.783.996v1.084h-12.51l-12.803-18.105h-2.607zm0-19.482v17.402h1.67q4.072 0 6.094-.732 2.022-.762 3.164-2.695 1.172-1.963 1.172-5.098 0-4.541-2.139-6.709-2.109-2.168-6.826-2.168h-3.135zm43.77.142v16.172h.791q3.779 0 5.479-2.373t2.168-7.002h1.113v20.801h-1.113q-.352-3.398-1.494-5.566-1.113-2.168-2.607-2.9-1.494-.762-4.336-.762v11.191q0 3.281.264 4.014.293.732 1.055 1.201.762.469 2.461.469h2.373q5.566 0 8.906-2.578 3.369-2.578 4.834-7.852h1.084l-1.787 12.627h-34.336v-1.084h1.318q1.728 0 2.783-.615.762-.41 1.172-1.406.322-.703.322-3.691v-26.133q0-2.695-.146-3.311-.293-1.025-1.084-1.582-1.113-.82-3.047-.82h-1.318v-1.084h33.252v11.748h-1.113q-.85-4.307-2.402-6.182-1.523-1.875-4.336-2.754-1.641-.527-6.152-.527h-4.102zm40.23 0v16.318h1.143q2.637 0 4.307-.791 1.67-.791 2.813-2.666 1.172-1.875 1.523-5.068h1.025v19.951h-1.025q-.557-5.654-3.047-7.441-2.461-1.816-5.596-1.816h-1.143v12.158q0 3.047.322 3.809.352.762 1.318 1.348.996.557 2.666.557h1.318v1.084h-20.771v-1.084h1.318q1.728 0 2.783-.615.762-.41 1.172-1.406.322-.703.322-3.691v-26.133q0-3.047-.322-3.809t-1.318-1.318q-.967-.586-2.637-.586h-1.318v-1.084h33.516v11.396h-1.201q-.41-4.014-2.109-5.947-1.67-1.934-4.863-2.725-1.758-.439-6.504-.439h-3.691zm21.59-2.29h20.508v1.084h-1.025q-2.314 0-3.193.498-.85.469-1.23 1.318-.352.85-.352 4.248v19.453q0 5.332.791 7.061.82 1.728 2.666 2.871t4.658 1.143q3.223 0 5.479-1.436 2.285-1.465 3.398-4.014 1.143-2.549 1.143-8.877v-16.201q0-2.666-.557-3.809t-1.406-1.582q-1.318-.674-3.721-.674v-1.084h13.74v1.084h-.82q-1.67 0-2.783.674t-1.611 2.022q-.381.938-.381 3.369v15.088q0 7.002-.938 10.107-.908 3.106-4.482 5.713t-9.756 2.607q-5.156 0-7.969-1.377-3.838-1.875-5.42-4.805t-1.582-7.881v-19.453q0-3.428-.381-4.248-.381-.85-1.318-1.348-.938-.498-3.457-.469v-1.084zm58.3 2.29v16.172h.791q3.779 0 5.479-2.373t2.168-7.002h1.113v20.801h-1.113q-.352-3.398-1.494-5.566-1.113-2.168-2.607-2.9-1.494-.762-4.336-.762v11.191q0 3.281.264 4.014.293.732 1.055 1.201.762.469 2.461.469h2.373q5.566 0 8.906-2.578 3.369-2.578 4.834-7.852h1.084l-1.787 12.627h-34.336v-1.084h1.318q1.728 0 2.783-.615.762-.41 1.172-1.406.322-.703.322-3.691v-26.133q0-2.695-.146-3.311-.293-1.025-1.084-1.582-1.113-.82-3.047-.82h-1.318v-1.084h33.252v11.748h-1.113q-.85-4.307-2.402-6.182-1.523-1.875-4.336-2.754-1.641-.527-6.152-.527h-4.102zm39.67 19.34v11.133q0 3.223.381 4.072.41.82 1.406 1.318.996.498 3.721.498v1.084h-20.332v-1.084q2.754 0 3.721-.498.996-.527 1.377-1.348.41-.82.41-4.043v-25.781q0-3.223-.41-4.043-.381-.85-1.377-1.348-.996-.498-3.721-.498v-1.084h18.457q7.207 0 10.547.996 3.34.996 5.449 3.691 2.109 2.666 2.109 6.269 0 4.394-3.164 7.266-2.022 1.816-5.654 2.725l9.551 13.447q1.875 2.607 2.666 3.252 1.201.908 2.783.996v1.084h-12.51l-12.803-18.105h-2.607zm0-19.482v17.402h1.67q4.072 0 6.094-.732 2.022-.762 3.164-2.695 1.172-1.963 1.172-5.098 0-4.541-2.139-6.709-2.109-2.168-6.826-2.168h-3.135zm64.04-2.148l-23.35 37.5h7.559q5.361 0 7.5-.674 3.486-1.055 6.006-3.867 2.519-2.842 3.486-7.588h1.143l-1.611 14.355h-36.387l23.379-37.559h-5.889q-3.428 0-4.512.205-2.051.381-3.867 1.523-1.787 1.113-2.988 2.988-1.172 1.875-1.846 4.746h-1.084l1.084-11.631h31.377zm28.42 28.42h-14.033l-1.67 3.867q-.82 1.934-.82 3.193 0 1.67 1.348 2.461.791.469 3.897.703v1.084h-13.213v-1.084q2.139-.322 3.516-1.758 1.377-1.465 3.398-6.006l14.209-31.699h.557l14.326 32.578q2.051 4.629 3.369 5.83.996.908 2.813 1.055v1.084h-19.219v-1.084h.791q2.314 0 3.252-.645.645-.469.645-1.348 0-.527-.176-1.084-.059-.264-.879-2.197l-2.109-4.951zm-.996-2.168l-5.918-13.682-6.094 13.682h12.012zm-559.784 124.368l.322 13.242h-1.201q-.85-4.981-4.189-7.998-3.311-3.047-7.178-3.047-2.988 0-4.746 1.611-1.728 1.582-1.728 3.662 0 1.318.615 2.344.85 1.377 2.725 2.725 1.377.967 6.357 3.428 6.973 3.428 9.404 6.475 2.402 3.047 2.402 6.973 0 4.981-3.897 8.584-3.867 3.574-9.844 3.574-1.875 0-3.545-.381t-4.189-1.436q-1.406-.586-2.314-.586-.762 0-1.611.586-.85.586-1.377 1.787h-1.084v-15h1.084q1.289 6.328 4.951 9.668 3.691 3.311 7.939 3.311 3.281 0 5.215-1.787 1.963-1.787 1.963-4.16 0-1.406-.762-2.725-.732-1.318-2.256-2.49-1.523-1.201-5.391-3.106-5.42-2.666-7.793-4.541-2.373-1.875-3.662-4.189-1.26-2.314-1.26-5.098 0-4.746 3.486-8.086t8.789-3.34q1.934 0 3.75.469 1.377.352 3.34 1.318 1.992.938 2.783.938.762 0 1.201-.469.439-.469.82-2.256h.879zm27.19 39.55v1.084h-20.771v-1.084h1.318q1.728 0 2.783-.615.762-.41 1.172-1.406.322-.703.322-3.691v-26.133q0-3.047-.322-3.809t-1.318-1.318q-.967-.586-2.637-.586h-1.318v-1.084h20.771v1.084h-1.318q-1.728 0-2.783.615-.762.41-1.201 1.406-.322.703-.322 3.691v26.133q0 3.047.322 3.809.352.762 1.318 1.348.996.557 2.666.557h1.318zm-1.523-52.207l-9.697 10.166h-2.519l3.398-10.166h8.818zm17.813 13.567l19.6 24.639v-17.08q0-3.574-1.025-4.834-1.406-1.699-4.717-1.641v-1.084h13.125v1.084q-2.519.322-3.398.85-.85.498-1.348 1.67-.469 1.143-.469 3.955v33.076h-.996l-26.865-33.076v25.254q0 3.428 1.553 4.629 1.582 1.201 3.603 1.201h.938v1.084h-14.092v-1.084q3.281-.029 4.57-1.348t1.289-4.482v-28.037l-.85-1.055q-1.26-1.582-2.227-2.08-.967-.498-2.783-.557v-1.084h14.092zm66.27 0v10.752h-1.055q-.938-3.721-2.08-5.332-1.143-1.641-3.135-2.607-1.113-.527-3.897-.527h-2.959v30.645q0 3.047.322 3.809.352.762 1.318 1.348.996.557 2.695.557h1.318v1.084h-20.801v-1.084h1.318q1.728 0 2.783-.615.762-.41 1.201-1.406.322-.703.322-3.691v-30.645h-2.871q-4.014 0-5.83 1.699-2.549 2.373-3.223 6.768h-1.113v-10.752h35.684zm24.35-.56q9.492-.352 15.41 5.537 5.947 5.889 5.947 14.736 0 7.559-4.424 13.301-5.859 7.617-16.553 7.617-10.723 0-16.582-7.266-4.629-5.742-4.629-13.623 0-8.848 6.006-14.736 6.035-5.918 14.824-5.566zm.352 1.875q-5.449 0-8.291 5.566-2.314 4.57-2.314 13.125 0 10.166 3.574 15.029 2.49 3.398 6.973 3.398 3.018 0 5.039-1.465 2.578-1.875 4.014-5.977 1.435-4.131 1.435-10.752 0-7.881-1.465-11.777-1.465-3.926-3.75-5.537-2.256-1.611-5.215-1.611zm51.708 24.875l10.781-26.191h16.172v1.084h-1.289q-1.758 0-2.813.615-.732.41-1.172 1.377-.322.703-.322 3.662v26.191q0 3.047.322 3.809t1.318 1.348q.996.557 2.666.557h1.289v1.084h-20.742v-1.084h1.289q1.758 0 2.813-.615.732-.41 1.172-1.406.322-.703.322-3.691v-29.443l-15.234 36.24h-.703l-15.469-35.977v27.979q0 2.93.146 3.603.381 1.465 1.641 2.402 1.289.908 4.014.908v1.084h-13.594v-1.084h.41q1.318.029 2.461-.41 1.143-.469 1.728-1.23.586-.762.908-2.139.059-.322.059-2.988v-25.137q0-3.018-.322-3.75-.322-.762-1.318-1.318-.996-.586-2.666-.586h-1.26v-1.084h16.23l11.162 26.191zm52.96 2.23h-14.033l-1.67 3.867q-.82 1.934-.82 3.193 0 1.67 1.348 2.461.791.469 3.897.703v1.084h-13.213v-1.084q2.139-.322 3.516-1.758 1.377-1.465 3.398-6.006l14.209-31.699h.557l14.326 32.578q2.051 4.629 3.369 5.83.996.908 2.813 1.055v1.084h-19.219v-1.084h.791q2.314 0 3.252-.645.645-.469.645-1.348 0-.527-.176-1.084-.059-.264-.879-2.197l-2.109-4.951zm-.996-2.168l-5.918-13.682-6.094 13.682h12.012zm49.856 166.788v1.348q-3.047 1.992-4.482 3.897-1.992 2.637-3.106 6.768-1.406 5.127-1.406 14.326 0 8.672 1.26 13.477 1.289 4.805 3.486 7.764 1.523 2.051 4.248 3.603v1.465q-7.061-2.373-11.982-9.697-4.893-7.295-4.893-16.787 0-9.375 4.893-16.582 4.893-7.236 11.982-9.58zm25.61 40.63h-23.379v-.645q10.752-12.803 13.037-17.227 2.314-4.424 2.314-8.643 0-3.076-1.904-5.098-1.904-2.051-4.658-2.051-4.512 0-7.002 4.512l-1.084-.381q1.582-5.625 4.805-8.32t7.441-2.695q3.018 0 5.508 1.406t3.897 3.867q1.406 2.432 1.406 4.57 0 3.897-2.168 7.91-2.959 5.42-12.92 15.117h8.584q3.164 0 4.102-.264.967-.264 1.582-.879.615-.645 1.611-2.666h1.055l-2.227 11.484zm5.88 12.02v-1.348q3.047-2.022 4.482-3.926 1.963-2.637 3.106-6.738 1.406-5.156 1.406-14.355 0-8.672-1.289-13.447-1.26-4.805-3.457-7.764-1.523-2.051-4.248-3.603v-1.465q7.061 2.373 11.953 9.697 4.922 7.295 4.922 16.787 0 9.346-4.922 16.553-4.893 7.236-11.953 9.609zm50.51-30v11.016q0 3.223.381 4.072.41.82 1.406 1.318 1.025.498 3.721.498v1.084h-20.186v-1.084q2.754 0 3.721-.498.996-.527 1.377-1.348.41-.82.41-4.043v-25.781q0-3.223-.41-4.043-.381-.85-1.377-1.348-.996-.498-3.721-.498v-1.084h17.314q8.555 0 12.275 3.047 3.721 3.047 3.721 7.617 0 3.867-2.402 6.621-2.402 2.754-6.621 3.75-2.842.703-9.609.703zm0-19.453v17.168q.967.059 1.465.059 3.574 0 5.508-2.109 1.934-2.139 1.934-6.592 0-4.424-1.934-6.475t-5.771-2.051h-1.201zm36.42 19.333v11.133q0 3.223.381 4.072.41.82 1.406 1.318.996.498 3.721.498v1.084h-20.332v-1.084q2.754 0 3.721-.498.996-.527 1.377-1.348.41-.82.41-4.043v-25.781q0-3.223-.41-4.043-.381-.85-1.377-1.348-.996-.498-3.721-.498v-1.084h18.457q7.207 0 10.547.996 3.34.996 5.449 3.691 2.109 2.666 2.109 6.269 0 4.394-3.164 7.266-2.022 1.816-5.654 2.725l9.551 13.447q1.875 2.607 2.666 3.252 1.201.908 2.783.996v1.084h-12.51l-12.803-18.105h-2.607zm0-19.482v17.402h1.67q4.072 0 6.094-.732 2.022-.762 3.164-2.695 1.172-1.963 1.172-5.098 0-4.541-2.139-6.709-2.109-2.168-6.826-2.168h-3.135zm50.59-2.698q9.492-.352 15.41 5.537 5.947 5.889 5.947 14.736 0 7.559-4.424 13.301-5.859 7.617-16.553 7.617-10.723 0-16.582-7.266-4.629-5.742-4.629-13.623 0-8.848 6.006-14.736 6.035-5.918 14.824-5.566zm.352 1.875q-5.449 0-8.291 5.566-2.314 4.57-2.314 13.125 0 10.166 3.574 15.029 2.49 3.398 6.973 3.398 3.018 0 5.039-1.465 2.578-1.875 4.014-5.977 1.436-4.131 1.436-10.752 0-7.881-1.465-11.777-1.465-3.926-3.75-5.537-2.256-1.611-5.215-1.611zm65.838-1.315v1.084q-2.168.352-3.867 2.314-1.23 1.465-3.662 6.885l-13.682 30.352h-.967l-13.623-31.582q-2.461-5.713-3.311-6.709-.82-.996-3.135-1.26v-1.084h19.043v1.084h-.645q-2.578 0-3.516.645-.674.439-.674 1.289 0 .527.234 1.26.234.703 1.582 3.838l8.467 19.775 7.852-17.607q1.406-3.193 1.728-4.277.322-1.084.322-1.846 0-.879-.469-1.553-.469-.674-1.377-1.025-1.26-.498-3.34-.498v-1.084h13.037zm22.76-.56q9.492-.352 15.41 5.537 5.947 5.889 5.947 14.736 0 7.559-4.424 13.301-5.859 7.617-16.553 7.617-10.723 0-16.582-7.266-4.629-5.742-4.629-13.623 0-8.848 6.006-14.736 6.035-5.918 14.824-5.566zm.352 1.875q-5.449 0-8.291 5.566-2.314 4.57-2.314 13.125 0 10.166 3.574 15.029 2.49 3.398 6.973 3.398 3.018 0 5.039-1.465 2.578-1.875 4.014-5.977 1.436-4.131 1.436-10.752 0-7.881-1.465-11.777-1.465-3.926-3.75-5.537-2.256-1.611-5.215-1.611zm63.158-2.225v13.77h-1.143q-1.289-5.391-4.805-8.262t-7.969-2.871q-3.721 0-6.826 2.139t-4.541 5.596q-1.846 4.424-1.846 9.844 0 5.332 1.348 9.727 1.348 4.365 4.219 6.621 2.871 2.227 7.441 2.227 3.75 0 6.856-1.641 3.135-1.641 6.592-5.654v3.428q-3.34 3.486-6.973 5.068-3.603 1.553-8.438 1.553-6.357 0-11.309-2.549-4.922-2.549-7.617-7.324-2.666-4.775-2.666-10.166 0-5.684 2.959-10.781 2.988-5.098 8.027-7.91 5.068-2.813 10.752-2.813 4.189 0 8.848 1.816 2.695 1.055 3.428 1.055.938 0 1.611-.674.703-.703.908-2.197h1.143zm28.28 29.33h-14.033l-1.67 3.867q-.82 1.934-.82 3.193 0 1.67 1.348 2.461.791.469 3.897.703v1.084h-13.213v-1.084q2.139-.322 3.516-1.758 1.377-1.465 3.398-6.006l14.209-31.699h.557l14.326 32.578q2.051 4.629 3.369 5.83.996.908 2.813 1.055v1.084h-19.219v-1.084h.791q2.314 0 3.252-.645.645-.469.645-1.348 0-.527-.176-1.084-.059-.264-.879-2.197l-2.109-4.951zm-.996-2.168l-5.918-13.682-6.094 13.682h12.012zm-88.794-215.902v16.318h1.143q2.637 0 4.307-.791 1.67-.791 2.813-2.666 1.172-1.875 1.523-5.068h1.025v19.951h-1.025q-.557-5.654-3.047-7.441-2.461-1.816-5.596-1.816h-1.143v12.158q0 3.047.322 3.809.352.762 1.318 1.348.996.557 2.666.557h1.318v1.084h-20.771v-1.084h1.318q1.728 0 2.783-.615.762-.41 1.172-1.406.322-.703.322-3.691v-26.133q0-3.047-.322-3.809t-1.318-1.318q-.967-.586-2.637-.586h-1.318v-1.084h33.516v11.396h-1.201q-.41-4.014-2.109-5.947-1.67-1.934-4.863-2.725-1.758-.439-6.504-.439h-3.691zm43.36-2.84q9.492-.352 15.41 5.537 5.947 5.889 5.947 14.736 0 7.559-4.424 13.301-5.859 7.617-16.553 7.617-10.723 0-16.582-7.266-4.629-5.742-4.629-13.623 0-8.848 6.006-14.736 6.035-5.918 14.824-5.566zm.352 1.875q-5.449 0-8.291 5.566-2.314 4.57-2.314 13.125 0 10.166 3.574 15.029 2.49 3.398 6.973 3.398 3.018 0 5.039-1.465 2.578-1.875 4.014-5.977 1.436-4.131 1.436-10.752 0-7.881-1.465-11.777-1.465-3.926-3.75-5.537-2.256-1.611-5.215-1.611zm49.798 17.345q5.654 1.318 7.939 3.193 3.281 2.666 3.281 6.914 0 4.482-3.603 7.412-4.424 3.545-12.861 3.545h-20.186v-1.084q2.754 0 3.721-.498.996-.527 1.377-1.348.41-.82.41-4.043v-25.781q0-3.223-.41-4.043-.381-.85-1.377-1.348-.996-.498-3.721-.498v-1.084h19.043q6.826 0 9.668 1.23 2.842 1.201 4.482 3.633 1.641 2.402 1.641 5.127 0 2.871-2.08 5.127-2.08 2.227-7.324 3.545zm-10.664-.791q4.16 0 6.123-.938 1.992-.938 3.047-2.637t1.055-4.336-1.055-4.307q-1.025-1.699-2.959-2.578t-6.211-.85v15.645zm0 2.285v12.744l-.029 1.465q0 1.582.791 2.402.82.791 2.402.791 2.344 0 4.307-1.025 1.992-1.055 3.047-3.018 1.055-1.992 1.055-4.424 0-2.783-1.289-4.981-1.289-2.227-3.545-3.106-2.256-.879-6.738-.85zm46.064 18.486v1.084h-20.772v-1.084h1.318q1.728 0 2.783-.615.762-.41 1.172-1.406.322-.703.322-3.691v-26.133q0-3.047-.322-3.809t-1.318-1.318q-.967-.586-2.637-.586h-1.318v-1.084h20.772v1.084h-1.318q-1.728 0-2.783.615-.762.41-1.201 1.406-.322.703-.322 3.691v26.133q0 3.047.322 3.809.351.762 1.318 1.348.996.557 2.666.557h1.318zm26.3-10.22h-14.033l-1.67 3.867q-.82 1.934-.82 3.193 0 1.67 1.348 2.461.791.469 3.897.703v1.084h-13.213v-1.084q2.139-.322 3.516-1.758 1.377-1.465 3.398-6.006l14.209-31.699h.557l14.326 32.578q2.051 4.629 3.369 5.83.996.908 2.813 1.055v1.084h-19.219v-1.084h.791q2.314 0 3.252-.645.645-.469.645-1.348 0-.527-.176-1.084-.059-.264-.879-2.197l-2.109-4.951zm-.996-2.168l-5.918-13.682-6.094 13.682h12.012z"/></svg>