<svg clip-rule="evenodd" fill-rule="evenodd" height="105.52" image-rendering="optimizeQuality" shape-rendering="geometricPrecision" text-rendering="geometricPrecision" viewBox="0 0 1436.1532 105.56879" width="1436.2" xmlns="http://www.w3.org/2000/svg"><path d="M4.668 6.414h8.926l20.108 21.74v-16.717q0-2.672-.679-3.335-.897-.898-2.838-.898h-1.14v-.791h11.449v.791h-1.164q-2.086 0-2.959 1.112-.534.684-.534 3.121v24.434h-.873l-21.684-23.344v17.85q0 2.672.655 3.335.922.898 2.838.898h1.164v.791h-11.449v-.791h1.14q2.11 0 2.983-1.112.534-.684.534-3.121v-20.159q-1.431-1.475-2.183-1.945-.728-.47-2.159-.876-.703-.192-2.134-.192v-.791zM53.645 15.242q5.045 0 8.101 3.378 2.595 2.886 2.595 6.627 0 2.629-1.431 5.323t-3.954 4.062q-2.498 1.368-5.579 1.368-5.021 0-7.98-3.527-2.498-2.971-2.498-6.67 0-2.693 1.504-5.344 1.528-2.672 4.002-3.933 2.474-1.283 5.239-1.283zm-.752 1.39q-1.285 0-2.595.684-1.285.663-2.086 2.351-.8 1.689-.8 4.34 0 4.275 1.916 7.375 1.94 3.1 5.094 3.1 2.353 0 3.881-1.71 1.528-1.71 1.528-5.879 0-5.216-2.547-8.209-1.722-2.052-4.39-2.052zM74.107 15.242v4.404q2.789-4.404 5.724-4.404 1.334 0 2.207.727.873.705.873 1.646 0 .834-.631 1.411-.631.577-1.504.577-.849 0-1.916-.727-1.043-.748-1.552-.748-.437 0-.946.428-1.092.876-2.256 2.886v9.384q0 1.625.461 2.458.315.577 1.116.962.8.385 2.304.385v.77h-11.375v-.77q1.698 0 2.523-.47.606-.342.849-1.09.121-.363.121-2.074v-7.589q0-3.42-.17-4.062-.146-.663-.582-.962-.412-.299-1.043-.299-.752 0-1.698.321l-.234-.77 6.719-2.394h1.019zM90.799 19.41q2.426-2.138 2.862-2.458 1.092-.812 2.353-1.261 1.261-.449 2.498-.449 2.086 0 3.59 1.069t2.013 3.1q2.498-2.565 4.22-3.356 1.722-.812 3.541-.812 1.771 0 3.129.812 1.383.791 2.183 2.608.534 1.24.534 3.891v8.423q0 1.838.315 2.522.243.47.897.812.655.321 2.134.321v.77h-10.963v-.77h.461q1.431 0 2.231-.492.558-.342.8-1.09.097-.363.097-2.074v-8.423q0-2.394-.655-3.378-.946-1.368-3.032-1.368-1.285 0-2.595.577-1.285.556-3.129 2.095l-.048.235.048.919v9.342q0 2.009.243 2.501.267.492.97.834.703.321 2.401.321v.77h-11.23v-.77q1.843 0 2.523-.385.703-.385.97-1.154.121-.363.121-2.116v-8.423q0-2.394-.8-3.442-1.067-1.368-2.983-1.368-1.31 0-2.595.62-2.013.941-3.105 2.116v10.496q0 1.924.291 2.501.315.577.897.876.606.278 2.426.278v.77h-10.988v-.77q1.528 0 2.134-.278.606-.299.922-.919.315-.641.315-2.458v-7.482q0-3.228-.218-4.169-.17-.705-.534-.962-.364-.278-.994-.278-.679 0-1.625.321l-.364-.77 6.694-2.394h1.043v4.169zM135.506 32.579q-3.42 2.33-4.293 2.693-1.31.534-2.789.534-2.304 0-3.808-1.39-1.48-1.39-1.48-3.655 0-1.432.728-2.48.994-1.454 3.444-2.736 2.474-1.283 8.198-3.121v-.77q0-2.929-1.067-4.019-1.043-1.09-3.056-1.09-1.528 0-2.426.727-.922.727-.922 1.667l.048 1.24q0 .983-.582 1.518-.558.534-1.48.534-.897 0-1.48-.556-.558-.556-.558-1.518 0-1.838 2.134-3.378t5.991-1.539q2.959 0 4.851.876 1.431.663 2.11 2.074.437.919.437 3.762v6.648q0 2.8.121 3.442.121.62.388.834.291.214.655.214.388 0 .679-.15.509-.278 1.965-1.561v1.197q-2.717 3.207-5.191 3.207-1.189 0-1.892-.727-.703-.727-.728-2.48zm0-1.39v-7.461q-3.663 1.283-4.73 1.817-1.916.941-2.741 1.967-.825 1.026-.825 2.245 0 1.539 1.043 2.565 1.043 1.005 2.401 1.005 1.843 0 4.851-2.138zM152.581 5.003v25.973q0 1.838.291 2.437.315.599.946.919.631.299 2.353.299v.77h-10.891v-.77q1.528 0 2.086-.278.558-.278.873-.919t.315-2.458v-17.785q0-3.313-.17-4.062-.17-.77-.558-1.048-.364-.278-.946-.278-.631 0-1.601.342l-.412-.748 6.622-2.394h1.092zM164.17 15.22q1.116 0 1.892.705.8.684.8 1.667t-.8 1.689q-.776.684-1.892.684-1.116 0-1.916-.684-.776-.705-.776-1.689t.776-1.667q.8-.705 1.916-.705zm-.048 16.011q1.14 0 1.916.705.8.705.8 1.689t-.8 1.689q-.8.684-1.916.684t-1.916-.684q-.776-.705-.776-1.689t.776-1.689q.8-.705 1.916-.705zM281.438 15.819h10.454v.791q-.994 0-1.407.299-.388.299-.388.791 0 .513.849 1.582.267.342.8 1.069l1.577 2.223 1.819-2.223q1.746-2.116 1.746-2.672 0-.449-.412-.748-.412-.321-1.334-.321v-.791h7.519v.791q-1.189.064-2.062.577-1.189.727-3.25 3.164l-3.032 3.57 5.53 7.012q2.037 2.587 2.911 3.121.873.513 2.256.577v.77h-10.478v-.77q1.092 0 1.698-.428.461-.299.461-.791t-1.552-2.48l-3.25-4.19-3.566 4.19q-1.649 1.945-1.649 2.309 0 .513.534.941.558.406 1.649.449v.77h-7.252v-.77q.873-.107 1.528-.534.922-.62 3.105-3.164l4.657-5.451-4.22-5.387q-1.795-2.309-2.789-2.886-.97-.599-2.45-.599v-.791zM318.933 16.524h26.172v1.753h-26.172zm0 6.969h26.172v1.753h-26.172zM364.321 9.256l8.004-3.442h.8v24.476q0 2.437.218 3.035.243.599.97.919t2.959.363v.791h-12.37v-.791q2.329-.043 3.008-.342.679-.321.946-.834.267-.534.267-3.142v-15.648q0-3.164-.243-4.062-.17-.684-.631-1.005-.437-.321-1.067-.321-.897 0-2.498.663l-.364-.663zM385.859 11.929q1.407-2.929 3.541-4.511 2.159-1.603 5.36-1.603 3.954 0 6.064 2.266 1.601 1.689 1.601 3.613 0 3.164-4.512 6.541 3.032 1.048 4.584 2.993 1.552 1.945 1.552 4.575 0 3.762-2.717 6.52-3.541 3.591-10.26 3.591-3.323 0-4.536-.727-1.189-.727-1.189-1.561 0-.62.558-1.09.582-.47 1.383-.47.606 0 1.237.171.412.107 1.868.791 1.455.663 2.013.791.897.235 1.916.235 2.474 0 4.293-1.689 1.843-1.689 1.843-3.997 0-1.689-.849-3.292-.631-1.197-1.383-1.817-1.043-.855-2.862-1.539-1.819-.705-3.711-.705h-.776v-.641q1.916-.214 3.832-1.218 1.94-1.005 2.814-2.416.873-1.411.873-3.1 0-2.202-1.577-3.549-1.552-1.368-3.881-1.368-3.76 0-6.282 3.549l-.8-.342zM410.838 42.69v-.941q2.498-.727 3.857-2.266 1.383-1.518 1.383-3.228 0-.406-.218-.684-.17-.192-.34-.192-.267 0-1.164.428-.437.192-.922.192-1.189 0-1.892-.62-.703-.62-.703-1.71 0-1.048.897-1.796.922-.748 2.231-.748 1.601 0 2.838 1.24 1.261 1.218 1.261 3.249 0 2.202-1.746 4.083-1.722 1.903-5.482 2.993zM425.581 6.414h17.633v.812l-10.963 28.773h-2.717l9.823-26.101h-9.047q-2.741 0-3.905.577-2.037.983-3.274 3.035l-.703-.235 3.153-6.862zM467.688 5.815v.791q-3.202.278-5.239 1.133-2.013.834-4.002 2.565-1.965 1.732-3.274 3.869-1.285 2.116-2.159 5.045 3.493-2.116 7.01-2.116 3.371 0 5.846 2.394 2.474 2.394 2.474 6.157 0 3.634-2.498 6.627-3.008 3.634-7.956 3.634-3.371 0-5.724-1.967-4.608-3.827-4.608-9.919 0-3.891 1.771-7.396t5.045-6.221q3.299-2.715 6.306-3.655t5.603-.941h1.407zm-15.086 14.964q-.437 2.886-.437 4.66 0 2.052.849 4.468.873 2.394 2.571 3.805 1.237 1.005 3.008 1.005 2.11 0 3.76-1.753 1.674-1.753 1.674-5.002 0-3.655-1.649-6.328t-4.681-2.672q-.922 0-1.989.342-1.043.342-3.105 1.475zM499.9 15.242v6.67h-.8q-.922-3.142-2.377-4.275-1.431-1.133-3.663-1.133-1.698 0-2.741.791-1.043.791-1.043 1.753 0 1.197.776 2.052.752.876 3.056 1.86l3.541 1.518q4.924 2.116 4.924 5.579 0 2.672-2.304 4.318-2.28 1.625-5.118 1.625-2.037 0-4.657-.641-.8-.214-1.31-.214-.558 0-.873.556h-.8v-6.99h.8q.679 2.993 2.595 4.511t4.293 1.518q1.674 0 2.717-.855 1.067-.876 1.067-2.095 0-1.475-1.189-2.48-1.164-1.005-4.681-2.544t-4.608-2.779q-1.092-1.218-1.092-3.078 0-2.416 1.868-4.04 1.892-1.625 4.875-1.625 1.31 0 3.177.492 1.237.321 1.649.321.388 0 .606-.15.218-.15.509-.663h.8zM516.613 16.524h26.172v1.753h-26.172zm0 6.969h26.172v1.753h-26.172zM579.289 24.712v3.035h-4.415v7.653h-4.002v-7.653h-13.922v-2.736l15.257-19.196h2.668v18.897h4.415zm-8.417 0v-14.387l-11.546 14.387zM583.678 42.69v-.941q2.498-.727 3.857-2.266 1.383-1.518 1.383-3.228 0-.406-.218-.684-.17-.192-.34-.192-.267 0-1.164.428-.437.192-.922.192-1.189 0-1.892-.62-.703-.62-.703-1.71 0-1.048.897-1.796.922-.748 2.231-.748 1.601 0 2.838 1.24 1.261 1.218 1.261 3.249 0 2.202-1.746 4.083-1.722 1.903-5.482 2.993zM596.045 35.999v-.791q3.153-.043 5.87-1.283 2.717-1.261 5.239-4.382 2.547-3.121 3.541-6.862-3.808 2.159-6.889 2.159-3.469 0-5.943-2.351-2.474-2.373-2.474-6.285 0-3.805 2.474-6.776 2.983-3.613 7.786-3.613 4.051 0 6.937 2.95 3.541 3.655 3.541 9.021 0 4.831-2.692 9.021-2.692 4.169-7.495 6.926-3.905 2.266-8.514 2.266h-1.383zm15.038-14.9q.437-2.779.437-4.446 0-2.074-.8-4.468-.8-2.416-2.28-3.698-1.455-1.283-3.323-1.283-2.159 0-3.784 1.71t-1.625 5.088q0 4.511 2.159 7.054 1.577 1.838 3.881 1.838 1.116 0 2.644-.47t2.692-1.325zM620.885 35.999v-.791q3.153-.043 5.87-1.283 2.717-1.261 5.239-4.382 2.547-3.121 3.541-6.862-3.808 2.159-6.889 2.159-3.469 0-5.943-2.351-2.474-2.373-2.474-6.285 0-3.805 2.474-6.776 2.983-3.613 7.786-3.613 4.051 0 6.937 2.95 3.541 3.655 3.541 9.021 0 4.831-2.692 9.021-2.692 4.169-7.495 6.926-3.905 2.266-8.514 2.266h-1.383zm15.038-14.9q.437-2.779.437-4.446 0-2.074-.8-4.468-.8-2.416-2.28-3.698-1.455-1.283-3.323-1.283-2.159 0-3.784 1.71t-1.625 5.088q0 4.511 2.159 7.054 1.577 1.838 3.881 1.838 1.116 0 2.644-.47t2.692-1.325zM837.057 35.401v-.791h1.237q2.086 0 2.959-1.176.534-.705.534-3.164v-18.726q0-2.715-.679-3.399-.946-.941-2.814-.941h-1.237v-.791h13.388q7.374 0 11.206 1.475 3.857 1.475 6.185 4.917 2.353 3.442 2.353 7.952 0 6.05-4.172 10.112-4.681 4.532-14.262 4.532h-14.699zm9.387-2.095q3.08.599 5.166.599 5.627 0 9.338-3.484t3.711-9.449q0-6.007-3.711-9.47-3.711-3.463-9.532-3.463-2.183 0-4.972.62v24.648zM879.313 5.003q1.019 0 1.722.641.728.62.728 1.518t-.728 1.539q-.703.641-1.722.641-1.019 0-1.746-.641-.728-.641-.728-1.539 0-.898.703-1.518.728-.641 1.771-.641zm2.013 10.239v15.733q0 1.838.291 2.458.315.599.897.898.606.299 2.183.299v.77h-10.794v-.77q1.625 0 2.183-.278.558-.278.873-.919.34-.641.34-2.458v-7.546q0-3.185-.218-4.126-.17-.684-.534-.941-.364-.278-.994-.278-.679 0-1.649.321l-.34-.77 6.694-2.394h1.067zM896.122 17.358v12.869q0 2.736.679 3.463.897.941 2.401.941h2.013v.77h-13.268v-.77h.994q.97 0 1.771-.428.8-.428 1.092-1.154.315-.727.315-2.822v-12.869h-4.317v-1.539h4.317v-1.283q0-2.929 1.067-4.959t3.25-3.271q2.207-1.261 4.948-1.261 2.547 0 4.681 1.454 1.407.962 1.407 2.159 0 .641-.631 1.218-.631.556-1.358.556-.558 0-1.189-.342-.606-.363-1.504-1.518-.897-1.176-1.649-1.582-.752-.406-1.674-.406-1.116 0-1.892.534-.776.513-1.116 1.625-.34 1.09-.34 5.665v1.411h5.724v1.539h-5.724zM907.669 23.194q-.024 4.361 2.401 6.841t5.7 2.48q2.183 0 3.784-1.048 1.625-1.069 2.717-3.634l.752.428q-.509 2.929-2.959 5.344-2.45 2.394-6.137 2.394-4.002 0-6.864-2.736-2.838-2.758-2.838-7.396 0-5.024 2.911-7.824 2.935-2.822 7.349-2.822 3.735 0 6.137 2.18 2.401 2.159 2.401 5.793h-15.354zm0-1.24h10.284q-.121-1.881-.509-2.651-.606-1.197-1.819-1.881-1.189-.684-2.498-.684-2.013 0-3.614 1.39-1.577 1.368-1.843 3.827zM932.456 15.242v4.404q2.789-4.404 5.724-4.404 1.334 0 2.207.727.873.705.873 1.646 0 .834-.631 1.411-.631.577-1.504.577-.849 0-1.916-.727-1.043-.748-1.552-.748-.437 0-.946.428-1.092.876-2.256 2.886v9.384q0 1.625.461 2.458.315.577 1.116.962.8.385 2.304.385v.77h-11.375v-.77q1.698 0 2.523-.47.606-.342.849-1.09.121-.363.121-2.074v-7.589q0-3.42-.17-4.062-.146-.663-.582-.962-.412-.299-1.043-.299-.752 0-1.698.321l-.243-.77 6.719-2.394h1.019zM946.282 23.194q-.024 4.361 2.401 6.841t5.7 2.48q2.183 0 3.784-1.048 1.625-1.069 2.717-3.634l.752.428q-.509 2.929-2.959 5.344-2.45 2.394-6.137 2.394-4.002 0-6.864-2.736-2.838-2.758-2.838-7.396 0-5.024 2.911-7.824 2.935-2.822 7.349-2.822 3.735 0 6.137 2.18 2.401 2.159 2.401 5.793h-15.354zm0-1.24h10.284q-.121-1.881-.509-2.651-.606-1.197-1.819-1.881-1.189-.684-2.498-.684-2.013 0-3.614 1.39-1.577 1.368-1.843 3.827zM971.048 19.39q3.905-4.147 7.446-4.147 1.819 0 3.129.812 1.31.791 2.086 2.629.534 1.283.534 3.933v8.358q0 1.86.34 2.522.267.534.849.834.606.299 2.207.299v.77h-10.988v-.77h.461q1.552 0 2.159-.406.631-.428.873-1.24.097-.321.097-2.009v-8.016q0-2.672-.8-3.869-.776-1.218-2.644-1.218-2.886 0-5.749 2.779v10.325q0 1.988.267 2.458.34.62.922.919.606.278 2.426.278v.77h-10.988v-.77h.485q1.698 0 2.28-.748.606-.77.606-2.907v-7.268q0-3.527-.194-4.297-.17-.77-.558-1.048-.364-.278-.994-.278-.679 0-1.625.321l-.364-.77 6.694-2.394h1.043v4.147zM1008.33 27.962q-.897 3.869-3.517 5.964-2.62 2.074-5.797 2.074-3.784 0-6.597-2.8t-2.814-7.567q0-4.617 3.105-7.503 3.129-2.886 7.495-2.886 3.274 0 5.385 1.539 2.11 1.518 2.11 3.164 0 .812-.606 1.325-.582.492-1.649.492-1.431 0-2.159-.812-.412-.449-.558-1.71-.121-1.261-.97-1.924-.849-.641-2.353-.641-2.426 0-3.905 1.582-1.965 2.095-1.965 5.537 0 3.506 1.94 6.199 1.965 2.672 5.288 2.672 2.377 0 4.269-1.432 1.334-.983 2.595-3.57l.703.299zM1017.065 5.003q1.019 0 1.722.641.728.62.728 1.518t-.728 1.539q-.703.641-1.722.641-1.019 0-1.746-.641t-.728-1.539q0-.898.703-1.518.728-.641 1.771-.641zm2.013 10.239v15.733q0 1.838.291 2.458.315.599.897.898.606.299 2.183.299v.77h-10.794v-.77q1.625 0 2.183-.278.558-.278.873-.919.34-.641.34-2.458v-7.546q0-3.185-.218-4.126-.17-.684-.534-.941-.364-.278-.994-.278-.679 0-1.649.321l-.34-.77 6.694-2.394h1.067zM1037.836 32.579q-3.42 2.33-4.293 2.693-1.31.534-2.789.534-2.304 0-3.808-1.39-1.48-1.39-1.48-3.655 0-1.432.728-2.48.994-1.454 3.444-2.736 2.474-1.283 8.198-3.121v-.77q0-2.929-1.067-4.019-1.043-1.09-3.056-1.09-1.528 0-2.426.727-.922.727-.922 1.667l.048 1.24q0 .983-.582 1.518-.558.534-1.48.534-.897 0-1.48-.556-.558-.556-.558-1.518 0-1.838 2.134-3.378t5.991-1.539q2.959 0 4.851.876 1.431.663 2.11 2.074.437.919.437 3.762v6.648q0 2.8.121 3.442.121.62.388.834.291.214.655.214.388 0 .679-.15.509-.278 1.965-1.561v1.197q-2.717 3.207-5.191 3.207-1.189 0-1.892-.727-.703-.727-.728-2.48zm0-1.39v-7.461q-3.663 1.283-4.73 1.817-1.916.941-2.741 1.967t-.825 2.245q0 1.539 1.043 2.565 1.043 1.005 2.401 1.005 1.843 0 4.851-2.138zM1063.401 23.194q-.024 4.361 2.401 6.841 2.426 2.48 5.7 2.48 2.183 0 3.784-1.048 1.625-1.069 2.717-3.634l.752.428q-.509 2.929-2.959 5.344-2.45 2.394-6.137 2.394-4.002 0-6.864-2.736-2.838-2.758-2.838-7.396 0-5.024 2.911-7.824 2.935-2.822 7.349-2.822 3.735 0 6.137 2.18 2.401 2.159 2.401 5.793h-15.354zm0-1.24h10.284q-.121-1.881-.509-2.651-.606-1.197-1.819-1.881-1.189-.684-2.498-.684-2.013 0-3.614 1.39-1.577 1.368-1.843 3.827zM1088.114 19.39q3.905-4.147 7.446-4.147 1.819 0 3.129.812 1.31.791 2.086 2.629.534 1.283.534 3.933v8.358q0 1.86.34 2.522.267.534.849.834.606.299 2.207.299v.77h-10.988v-.77h.461q1.552 0 2.159-.406.631-.428.873-1.24.097-.321.097-2.009v-8.016q0-2.672-.8-3.869-.776-1.218-2.644-1.218-2.886 0-5.749 2.779v10.325q0 1.988.267 2.458.34.62.922.919.606.278 2.425.278v.77h-10.988v-.77h.485q1.698 0 2.28-.748.606-.77.606-2.907v-7.268q0-3.527-.194-4.297-.17-.77-.558-1.048-.364-.278-.994-.278-.679 0-1.625.321l-.364-.77 6.694-2.394h1.043v4.147zM1112.933 9.385v6.434h5.191v1.496h-5.191v12.698q0 1.903.606 2.565.631.663 1.601.663.8 0 1.552-.428.752-.449 1.164-1.304h.946q-.849 2.095-2.401 3.164-1.552 1.048-3.202 1.048-1.116 0-2.183-.534-1.067-.556-1.576-1.561-.509-1.026-.509-3.142v-13.168h-3.517v-.705q1.334-.47 2.717-1.582 1.407-1.133 2.498-2.672.558-.812 1.552-2.971h.752zM1126.781 15.242v4.404q2.789-4.404 5.724-4.404 1.334 0 2.207.727.873.705.873 1.646 0 .834-.631 1.411-.631.577-1.504.577-.849 0-1.916-.727-1.043-.748-1.552-.748-.437 0-.946.428-1.092.876-2.256 2.886v9.384q0 1.625.461 2.458.315.577 1.116.962.8.385 2.304.385v.77h-11.376v-.77q1.698 0 2.523-.47.606-.342.849-1.09.121-.363.121-2.074v-7.589q0-3.42-.17-4.062-.146-.663-.582-.962-.412-.299-1.043-.299-.752 0-1.698.321l-.243-.77 6.719-2.394h1.019zM1140.628 23.194q-.024 4.361 2.401 6.841 2.426 2.48 5.7 2.48 2.183 0 3.784-1.048 1.625-1.069 2.717-3.634l.752.428q-.509 2.929-2.959 5.344-2.45 2.394-6.137 2.394-4.002 0-6.864-2.736-2.838-2.758-2.838-7.396 0-5.024 2.911-7.824 2.935-2.822 7.349-2.822 3.735 0 6.137 2.18 2.401 2.159 2.401 5.793h-15.354zm0-1.24h10.284q-.121-1.881-.509-2.651-.606-1.197-1.819-1.881-1.188-.684-2.498-.684-2.013 0-3.614 1.39-1.577 1.368-1.843 3.827zM1178.975 5.003v25.973q0 1.838.291 2.437.315.599.946.919.631.299 2.353.299v.77h-10.891v-.77q1.528 0 2.086-.278.558-.278.873-.919t.315-2.458v-17.785q0-3.313-.17-4.062-.17-.77-.558-1.048-.364-.278-.946-.278-.631 0-1.601.342l-.412-.748 6.622-2.394h1.092zM1197.723 32.579q-3.42 2.33-4.293 2.693-1.31.534-2.789.534-2.304 0-3.808-1.39-1.48-1.39-1.48-3.655 0-1.432.728-2.48.994-1.454 3.444-2.736 2.474-1.283 8.198-3.121v-.77q0-2.929-1.067-4.019-1.043-1.09-3.056-1.09-1.528 0-2.426.727-.922.727-.922 1.667l.048 1.24q0 .983-.582 1.518-.558.534-1.48.534-.897 0-1.48-.556-.558-.556-.558-1.518 0-1.838 2.135-3.378 2.134-1.539 5.991-1.539 2.959 0 4.851.876 1.431.663 2.11 2.074.437.919.437 3.762v6.648q0 2.8.121 3.442.121.62.388.834.291.214.655.214.388 0 .679-.15.509-.278 1.965-1.561v1.197q-2.717 3.207-5.191 3.207-1.189 0-1.892-.727-.703-.727-.728-2.48zm0-1.39v-7.461q-3.662 1.283-4.73 1.817-1.916.941-2.741 1.967t-.825 2.245q0 1.539 1.043 2.565 1.043 1.005 2.401 1.005 1.843 0 4.851-2.138zM1221.477 15.242v6.67h-.8q-.922-3.142-2.377-4.275-1.431-1.133-3.663-1.133-1.698 0-2.741.791-1.043.791-1.043 1.753 0 1.197.776 2.052.752.876 3.056 1.86l3.541 1.518q4.924 2.116 4.924 5.579 0 2.672-2.304 4.318-2.28 1.625-5.118 1.625-2.038 0-4.657-.641-.8-.214-1.31-.214-.558 0-.873.556h-.8v-6.99h.8q.679 2.993 2.595 4.511t4.293 1.518q1.674 0 2.717-.855 1.067-.876 1.067-2.095 0-1.475-1.188-2.48-1.164-1.005-4.681-2.544-3.517-1.539-4.608-2.779-1.092-1.218-1.092-3.078 0-2.416 1.868-4.04 1.892-1.625 4.875-1.625 1.31 0 3.177.492 1.237.321 1.649.321.388 0 .606-.15t.509-.663h.8zM15.511 77.547v8.444q0 2.736.679 3.399.922.941 2.789.941h1.261v.791h-14.093v-.791h1.237q2.086 0 2.983-1.197.485-.663.485-3.142v-18.726q0-2.736-.655-3.399-.946-.941-2.814-.941h-1.237v-.791h12.055q4.415 0 6.961.812 2.547.791 4.293 2.693t1.746 4.511q0 3.549-2.668 5.772-2.644 2.223-7.495 2.223-1.189 0-2.571-.15-1.383-.15-2.959-.449zm0-1.218q1.285.214 2.28.321.994.107 1.698.107 2.523 0 4.342-1.71 1.843-1.732 1.843-4.468 0-1.881-.873-3.484-.873-1.625-2.474-2.416-1.601-.812-3.638-.812-1.237 0-3.177.406v12.057zM47.115 88.296q-3.42 2.33-4.293 2.693-1.31.534-2.789.534-2.304 0-3.808-1.39-1.48-1.39-1.48-3.655 0-1.432.728-2.48.994-1.454 3.444-2.736 2.474-1.283 8.198-3.121v-.77q0-2.929-1.067-4.019-1.043-1.09-3.056-1.09-1.528 0-2.426.727-.922.727-.922 1.667l.049 1.24q0 .983-.582 1.518-.558.534-1.48.534-.897 0-1.48-.556-.558-.556-.558-1.518 0-1.838 2.134-3.378t5.991-1.539q2.959 0 4.851.876 1.431.663 2.11 2.074.437.919.437 3.762v6.648q0 2.8.121 3.442.121.62.388.834.291.214.655.214.388 0 .679-.15.509-.278 1.965-1.561v1.197q-2.717 3.207-5.191 3.207-1.189 0-1.892-.727-.703-.727-.728-2.48zm0-1.39v-7.461q-3.663 1.283-4.73 1.817-1.916.941-2.741 1.967t-.825 2.245q0 1.539 1.043 2.565 1.043 1.005 2.401 1.005 1.843 0 4.851-2.138zM62.997 65.098v6.434h5.191v1.496h-5.191v12.698q0 1.903.606 2.565.631.663 1.601.663.8 0 1.552-.428.752-.449 1.164-1.304h.946q-.849 2.095-2.401 3.164-1.552 1.048-3.202 1.048-1.116 0-2.183-.534-1.067-.556-1.577-1.561-.509-1.026-.509-3.142v-13.168h-3.517v-.705q1.334-.47 2.717-1.582 1.407-1.133 2.498-2.672.558-.812 1.552-2.971h.752zM81.191 70.956q5.045 0 8.101 3.378 2.595 2.886 2.595 6.627 0 2.629-1.431 5.323t-3.954 4.062q-2.498 1.368-5.579 1.368-5.021 0-7.98-3.527-2.498-2.971-2.498-6.67 0-2.693 1.504-5.344 1.528-2.672 4.002-3.933 2.474-1.283 5.239-1.283zm-.752 1.39q-1.285 0-2.595.684-1.285.663-2.086 2.351-.8 1.689-.8 4.34 0 4.275 1.916 7.375 1.94 3.1 5.094 3.1 2.353 0 3.881-1.71 1.528-1.71 1.528-5.879 0-5.216-2.547-8.209-1.722-2.052-4.39-2.052zM102.804 60.724v25.973q0 1.838.291 2.437.315.599.946.919.631.299 2.353.299v.77h-10.891v-.77q1.528 0 2.086-.278.558-.278.873-.919.315-.641.315-2.458v-17.785q0-3.313-.17-4.062-.17-.77-.558-1.048-.364-.278-.946-.278-.631 0-1.601.342l-.412-.748 6.622-2.394h1.092zM119.804 70.956q5.045 0 8.101 3.378 2.595 2.886 2.595 6.627 0 2.629-1.431 5.323t-3.954 4.062q-2.498 1.368-5.579 1.368-5.021 0-7.98-3.527-2.498-2.971-2.498-6.67 0-2.693 1.504-5.344 1.528-2.672 4.002-3.933 2.474-1.283 5.239-1.283zm-.752 1.39q-1.285 0-2.595.684-1.285.663-2.086 2.351-.8 1.689-.8 4.34 0 4.275 1.916 7.375 1.94 3.1 5.094 3.1 2.353 0 3.881-1.71 1.528-1.71 1.528-5.879 0-5.216-2.547-8.209-1.722-2.052-4.39-2.052zm5.87-10.945l-7.155 7.375h-.825l2.547-7.375h5.433zM139.724 83.977q-2.037-.876-3.129-2.437-1.092-1.582-1.092-3.484 0-2.907 2.474-5.002 2.498-2.095 6.379-2.095 3.177 0 5.506 1.368h4.706q1.043 0 1.213.064.17.043.243.171.146.192.146.684 0 .556-.121.77-.073.107-.267.171-.17.064-1.213.064h-2.886q1.358 1.539 1.358 3.933 0 2.736-2.377 4.682-2.377 1.945-6.379 1.945-1.649 0-3.371-.428-1.067.812-1.455 1.432-.364.599-.364 1.026 0 .363.388.705.412.342 1.577.492.679.086 3.396.15 4.997.107 6.476.299 2.256.278 3.59 1.475 1.358 1.197 1.358 2.95 0 2.416-2.571 4.532-3.784 3.121-9.872 3.121-4.681 0-7.907-1.86-1.819-1.069-1.819-2.223 0-.513.267-1.026.412-.791 1.698-2.202.17-.192 2.474-2.309-1.261-.663-1.795-1.176-.509-.534-.509-1.197 0-.748.679-1.753.703-1.005 3.202-2.843zm4.22-11.992q-1.795 0-3.008 1.261t-1.213 3.869q0 3.378 1.649 5.237 1.261 1.411 3.202 1.411 1.843 0 3.032-1.218t1.189-3.827q0-3.399-1.674-5.323-1.237-1.411-3.177-1.411zm-4.463 19.133q-1.14 1.09-1.722 2.031t-.582 1.732q0 1.026 1.407 1.796 2.426 1.325 7.01 1.325 4.366 0 6.428-1.368 2.086-1.347 2.086-2.886 0-1.112-1.237-1.582-1.261-.47-4.997-.556-5.457-.128-8.392-.492zM164.266 60.724q1.019 0 1.722.641.728.62.728 1.518t-.728 1.539q-.703.641-1.722.641-1.019 0-1.746-.641t-.728-1.539q0-.898.703-1.518.728-.641 1.771-.641zm2.013 10.239v15.733q0 1.838.291 2.458.315.599.897.898.606.299 2.183.299v.77h-10.794v-.77q1.625 0 2.183-.278.558-.278.873-.919.34-.641.34-2.458v-7.546q0-3.185-.218-4.126-.17-.684-.534-.941-.364-.278-.994-.278-.679 0-1.649.321l-.34-.77 6.694-2.394h1.067zM191.269 83.677q-.897 3.869-3.517 5.964-2.62 2.074-5.797 2.074-3.784 0-6.597-2.8t-2.814-7.567q0-4.617 3.105-7.503 3.129-2.886 7.495-2.886 3.274 0 5.385 1.539 2.11 1.518 2.11 3.164 0 .812-.606 1.325-.582.492-1.649.492-1.431 0-2.159-.812-.412-.449-.558-1.71-.121-1.261-.97-1.924-.849-.641-2.353-.641-2.426 0-3.905 1.582-1.965 2.095-1.965 5.537 0 3.506 1.94 6.199 1.965 2.672 5.288 2.672 2.377 0 4.269-1.432 1.334-.983 2.595-3.57l.703.299zM205.287 70.956q5.045 0 8.101 3.378 2.595 2.886 2.595 6.627 0 2.629-1.431 5.323t-3.954 4.062q-2.498 1.368-5.579 1.368-5.021 0-7.98-3.527-2.498-2.971-2.498-6.67 0-2.693 1.504-5.344 1.528-2.672 4.002-3.933 2.474-1.283 5.239-1.283zm-.752 1.39q-1.285 0-2.595.684-1.285.663-2.086 2.351-.8 1.689-.8 4.34 0 4.275 1.916 7.375 1.94 3.1 5.094 3.1 2.353 0 3.881-1.71 1.528-1.71 1.528-5.879 0-5.216-2.547-8.209-1.722-2.052-4.39-2.052zM224.716 70.938q1.116 0 1.892.705.8.684.8 1.667t-.8 1.689q-.776.684-1.892.684-1.116 0-1.916-.684-.776-.705-.776-1.689 0-.983.776-1.667.8-.705 1.916-.705zm-.048 16.011q1.14 0 1.916.705.8.705.8 1.689 0 .983-.8 1.689-.8.684-1.916.684-1.116 0-1.916-.684-.776-.705-.776-1.689 0-.983.776-1.689.8-.705 1.916-.705zM281.438 71.538h10.454v.791q-.994 0-1.407.299-.388.299-.388.791 0 .513.849 1.582.267.342.8 1.069l1.577 2.223 1.819-2.223q1.746-2.116 1.746-2.672 0-.449-.412-.748-.412-.321-1.334-.321v-.791h7.519v.791q-1.189.064-2.062.577-1.189.727-3.25 3.164l-3.032 3.57 5.53 7.012q2.037 2.587 2.911 3.121.873.513 2.256.577v.77h-10.478v-.77q1.092 0 1.698-.428.461-.299.461-.791 0-.492-1.552-2.48l-3.25-4.19-3.566 4.19q-1.649 1.945-1.649 2.309 0 .513.534.941.558.406 1.649.449v.77h-7.252v-.77q.873-.107 1.528-.534.922-.62 3.105-3.164l4.657-5.451-4.22-5.387q-1.795-2.309-2.789-2.886-.97-.599-2.45-.599v-.791zM318.933 72.242h26.172v1.753h-26.172zm0 6.969h26.172v1.753h-26.172zM364.321 64.976l8.004-3.442h.8v24.476q0 2.437.218 3.035.243.599.97.919t2.959.363v.791h-12.37v-.791q2.329-.043 3.008-.342.679-.321.946-.834.267-.534.267-3.142v-15.648q0-3.164-.243-4.062-.17-.684-.631-1.005-.437-.321-1.067-.321-.897 0-2.498.663l-.364-.663zM388.331 62.132h17.633v.812l-10.963 28.773h-2.717l9.823-26.101h-9.047q-2.741 0-3.905.577-2.038.983-3.274 3.035l-.703-.235 3.153-6.862zM410.838 98.407v-.941q2.498-.727 3.857-2.266 1.383-1.518 1.383-3.228 0-.406-.218-.684-.17-.192-.34-.192-.267 0-1.164.428-.437.192-.922.192-1.189 0-1.892-.62-.703-.62-.703-1.71 0-1.048.897-1.796.922-.748 2.231-.748 1.601 0 2.838 1.24 1.261 1.218 1.261 3.249 0 2.202-1.746 4.083-1.722 1.903-5.482 2.993zM443.7 80.429v3.035h-4.415v7.653h-4.002v-7.653h-13.922v-2.736l15.257-19.196h2.668v18.897h4.415zm-8.417 0v-14.387l-11.546 14.387zM447.226 76.796q0-4.959 1.698-8.529 1.698-3.591 4.512-5.344 2.183-1.39 4.512-1.39 3.784 0 6.792 3.399 3.76 4.211 3.76 11.416 0 5.045-1.649 8.572t-4.22 5.13q-2.547 1.582-4.924 1.582-4.706 0-7.834-4.895-2.644-4.126-2.644-9.94zm4.754.534q0 5.986 1.674 9.769 1.383 3.185 4.123 3.185 1.31 0 2.717-1.026 1.407-1.048 2.134-3.484 1.116-3.677 1.116-10.368 0-4.959-1.164-8.273-.873-2.458-2.256-3.484-.994-.705-2.401-.705-1.649 0-2.935 1.304-1.746 1.774-2.377 5.579-.631 3.805-.631 7.503zM499.9 70.956v6.67h-.8q-.922-3.142-2.377-4.275-1.431-1.133-3.663-1.133-1.698 0-2.741.791-1.043.791-1.043 1.753 0 1.197.776 2.052.752.876 3.056 1.86l3.541 1.518q4.924 2.116 4.924 5.579 0 2.672-2.304 4.318-2.28 1.625-5.118 1.625-2.037 0-4.657-.641-.8-.214-1.31-.214-.558 0-.873.556h-.8v-6.99h.8q.679 2.993 2.595 4.511t4.293 1.518q1.674 0 2.717-.855 1.067-.876 1.067-2.095 0-1.475-1.189-2.48-1.164-1.005-4.681-2.544t-4.608-2.779q-1.092-1.218-1.092-3.078 0-2.416 1.868-4.04 1.892-1.625 4.875-1.625 1.31 0 3.177.492 1.237.321 1.649.321.388 0 .606-.15.218-.15.509-.663h.8zM516.613 72.242h26.172v1.753h-26.172zm0 6.969h26.172v1.753h-26.172zM561.17 62.132h17.633v.812l-10.963 28.773h-2.717l9.823-26.101h-9.047q-2.741 0-3.905.577-2.037.983-3.274 3.035l-.703-.235 3.153-6.862zM583.678 98.407v-.941q2.498-.727 3.857-2.266 1.383-1.518 1.383-3.228 0-.406-.218-.684-.17-.192-.34-.192-.267 0-1.164.428-.437.192-.922.192-1.189 0-1.892-.62-.703-.62-.703-1.71 0-1.048.897-1.796.922-.748 2.231-.748 1.601 0 2.838 1.24 1.261 1.218 1.261 3.249 0 2.202-1.746 4.083-1.722 1.903-5.482 2.993zM595.949 67.642q1.407-2.929 3.541-4.511 2.159-1.603 5.36-1.603 3.954 0 6.064 2.266 1.601 1.689 1.601 3.613 0 3.164-4.512 6.541 3.032 1.048 4.584 2.993 1.552 1.945 1.552 4.575 0 3.762-2.717 6.52-3.541 3.591-10.26 3.591-3.323 0-4.536-.727-1.189-.727-1.189-1.561 0-.62.558-1.09.582-.47 1.383-.47.606 0 1.237.171.412.107 1.868.791 1.455.663 2.013.791.897.235 1.916.235 2.474 0 4.293-1.689 1.843-1.689 1.843-3.997 0-1.689-.849-3.292-.631-1.197-1.383-1.817-1.043-.855-2.862-1.539-1.819-.705-3.711-.705h-.776v-.641q1.916-.214 3.832-1.218 1.94-1.005 2.814-2.416.873-1.411.873-3.1 0-2.202-1.577-3.549-1.552-1.368-3.881-1.368-3.76 0-6.282 3.549l-.8-.342zM627.798 76.514q-3.905-2.822-5.045-4.532-1.116-1.71-1.116-3.549 0-2.822 2.474-4.853 2.474-2.052 6.573-2.052 3.978 0 6.403 1.903t2.426 4.339q0 1.625-1.31 3.313t-5.457 3.976q4.269 2.907 5.652 4.575 1.843 2.18 1.843 4.596 0 3.057-2.644 5.237-2.644 2.159-6.937 2.159-4.681 0-7.301-2.587-2.086-2.074-2.086-4.532 0-1.924 1.455-3.805 1.48-1.903 5.069-4.19zm3.808-2.287q2.911-2.309 3.687-3.634.776-1.347.776-3.035 0-2.245-1.431-3.506-1.431-1.283-3.905-1.283t-4.026 1.261-1.552 2.95q0 1.112.631 2.223.655 1.112 1.843 2.116l3.978 2.907zm-2.668 3.1q-2.013 1.496-2.983 3.271-.97 1.753-.97 3.805 0 2.758 1.698 4.425 1.722 1.646 4.366 1.646 2.62 0 4.196-1.304t1.577-3.164q0-1.539-.922-2.758-1.722-2.266-6.961-5.921zM852.119 70.956v6.67h-.8q-.922-3.142-2.377-4.275-1.431-1.133-3.663-1.133-1.698 0-2.741.791-1.043.791-1.043 1.753 0 1.197.776 2.052.752.876 3.056 1.86l3.541 1.518q4.924 2.116 4.924 5.579 0 2.672-2.304 4.318-2.28 1.625-5.118 1.625-2.037 0-4.657-.641-.8-.214-1.31-.214-.558 0-.873.556h-.8v-6.99h.8q.679 2.993 2.595 4.511t4.293 1.518q1.674 0 2.717-.855 1.067-.876 1.067-2.095 0-1.475-1.189-2.48-1.164-1.005-4.681-2.544t-4.608-2.779q-1.092-1.218-1.092-3.078 0-2.416 1.868-4.04 1.892-1.625 4.875-1.625 1.31 0 3.177.492 1.237.321 1.649.321.388 0 .606-.15.218-.15.509-.663h.8zM883.851 70.956v6.67h-.8q-.922-3.142-2.377-4.275-1.431-1.133-3.663-1.133-1.698 0-2.741.791-1.043.791-1.043 1.753 0 1.197.776 2.052.752.876 3.056 1.86l3.541 1.518q4.924 2.116 4.924 5.579 0 2.672-2.304 4.318-2.28 1.625-5.118 1.625-2.037 0-4.657-.641-.8-.214-1.31-.214-.558 0-.873.556h-.8v-6.99h.8q.679 2.993 2.595 4.511t4.293 1.518q1.674 0 2.717-.855 1.067-.876 1.067-2.095 0-1.475-1.189-2.48-1.164-1.005-4.681-2.544t-4.608-2.779q-1.092-1.218-1.092-3.078 0-2.416 1.868-4.04 1.892-1.625 4.875-1.625 1.31 0 3.177.492 1.237.321 1.649.321.388 0 .606-.15.218-.15.509-.663h.8zM894.45 60.724q1.019 0 1.722.641.728.62.728 1.518t-.728 1.539q-.703.641-1.722.641-1.019 0-1.746-.641-.728-.641-.728-1.539 0-.898.703-1.518.728-.641 1.771-.641zm2.013 10.239v15.733q0 1.838.291 2.458.315.599.897.898.606.299 2.183.299v.77h-10.794v-.77q1.625 0 2.183-.278.558-.278.873-.919.34-.641.34-2.458v-7.546q0-3.185-.218-4.126-.17-.684-.534-.941-.364-.278-.994-.278-.679 0-1.649.321l-.34-.77 6.694-2.394h1.067zM908.521 83.977q-2.037-.876-3.129-2.437-1.092-1.582-1.092-3.484 0-2.907 2.474-5.002 2.498-2.095 6.379-2.095 3.177 0 5.506 1.368h4.706q1.043 0 1.213.064.17.043.243.171.146.192.146.684 0 .556-.121.77-.073.107-.267.171-.17.064-1.213.064h-2.886q1.358 1.539 1.358 3.933 0 2.736-2.377 4.682-2.377 1.945-6.379 1.945-1.649 0-3.371-.428-1.067.812-1.455 1.432-.364.599-.364 1.026 0 .363.388.705.412.342 1.577.492.679.086 3.396.15 4.997.107 6.476.299 2.256.278 3.59 1.475 1.358 1.197 1.358 2.95 0 2.416-2.571 4.532-3.784 3.121-9.872 3.121-4.681 0-7.907-1.86-1.819-1.069-1.819-2.223 0-.513.267-1.026.412-.791 1.698-2.202.17-.192 2.474-2.309-1.261-.663-1.795-1.176-.509-.534-.509-1.197 0-.748.679-1.753.703-1.005 3.202-2.843zm4.22-11.992q-1.795 0-3.008 1.261t-1.213 3.869q0 3.378 1.649 5.237 1.261 1.411 3.202 1.411 1.843 0 3.032-1.218t1.189-3.827q0-3.399-1.674-5.323-1.237-1.411-3.177-1.411zm-4.463 19.133q-1.14 1.09-1.722 2.031t-.582 1.732q0 1.026 1.407 1.796 2.426 1.325 7.01 1.325 4.366 0 6.428-1.368 2.086-1.347 2.086-2.886 0-1.112-1.237-1.582-1.261-.47-4.997-.556-5.457-.128-8.392-.492zM933.884 75.106q3.905-4.147 7.446-4.147 1.819 0 3.129.812 1.31.791 2.086 2.629.534 1.283.534 3.933v8.358q0 1.86.34 2.523.267.534.849.834.606.299 2.207.299v.77h-10.988v-.77h.461q1.552 0 2.159-.406.631-.428.873-1.24.097-.321.097-2.009v-8.016q0-2.672-.8-3.869-.776-1.218-2.644-1.218-2.886 0-5.749 2.779v10.325q0 1.988.267 2.458.34.62.922.919.606.278 2.426.278v.77h-10.988v-.77h.485q1.698 0 2.28-.748.606-.77.606-2.907v-7.268q0-3.527-.194-4.297-.17-.77-.558-1.048-.364-.278-.994-.278-.679 0-1.625.321l-.364-.77 6.694-2.394h1.043v4.147zM957.904 60.724q1.019 0 1.722.641.728.62.728 1.518t-.728 1.539q-.703.641-1.722.641-1.019 0-1.746-.641-.728-.641-.728-1.539 0-.898.703-1.518.728-.641 1.771-.641zm2.013 10.239v15.733q0 1.838.291 2.458.315.599.897.898.606.299 2.183.299v.77h-10.794v-.77q1.625 0 2.183-.278.558-.278.873-.919.34-.641.34-2.458v-7.546q0-3.185-.218-4.126-.17-.684-.534-.941-.364-.278-.994-.278-.679 0-1.649.321l-.34-.77 6.694-2.394h1.067zM974.713 73.078v12.869q0 2.736.679 3.463.897.941 2.401.941h2.013v.77h-13.268v-.77h.994q.97 0 1.771-.428.8-.428 1.092-1.154.315-.727.315-2.822v-12.869h-4.317v-1.539h4.317v-1.283q0-2.929 1.067-4.959t3.25-3.271q2.207-1.261 4.948-1.261 2.547 0 4.681 1.454 1.407.962 1.407 2.159 0 .641-.631 1.218-.631.556-1.358.556-.558 0-1.189-.342-.606-.363-1.504-1.518-.897-1.176-1.649-1.582-.752-.406-1.674-.406-1.116 0-1.892.534-.776.513-1.116 1.625-.34 1.09-.34 5.665v1.411h5.724v1.539h-5.724zM988.166 60.724q1.019 0 1.722.641.728.62.728 1.518t-.728 1.539q-.703.641-1.722.641-1.019 0-1.746-.641-.728-.641-.728-1.539 0-.898.703-1.518.728-.641 1.771-.641zm2.013 10.239v15.733q0 1.838.291 2.458.315.599.897.898.606.299 2.183.299v.77h-10.794v-.77q1.625 0 2.183-.278.558-.278.873-.919.34-.641.34-2.458v-7.546q0-3.185-.218-4.126-.17-.684-.534-.941-.364-.278-.994-.278-.679 0-1.649.321l-.34-.77 6.694-2.394h1.067zM1015.148 83.677q-.897 3.869-3.517 5.964-2.62 2.074-5.797 2.074-3.784 0-6.597-2.8t-2.814-7.567q0-4.617 3.105-7.503 3.129-2.886 7.495-2.886 3.274 0 5.385 1.539 2.11 1.518 2.11 3.164 0 .812-.606 1.325-.582.492-1.649.492-1.431 0-2.159-.812-.412-.449-.558-1.71-.121-1.261-.97-1.924-.849-.641-2.353-.641-2.426 0-3.905 1.582-1.965 2.095-1.965 5.537 0 3.506 1.94 6.199 1.965 2.672 5.288 2.672 2.377 0 4.269-1.432 1.334-.983 2.595-3.57l.703.299zM1030.913 88.296q-3.42 2.33-4.293 2.693-1.31.534-2.789.534-2.304 0-3.808-1.39-1.48-1.39-1.48-3.655 0-1.432.728-2.48.994-1.454 3.444-2.736 2.474-1.283 8.198-3.121v-.77q0-2.929-1.067-4.019-1.043-1.09-3.056-1.09-1.528 0-2.426.727-.922.727-.922 1.667l.049 1.24q0 .983-.582 1.518-.558.534-1.48.534-.897 0-1.48-.556-.558-.556-.558-1.518 0-1.838 2.134-3.378t5.991-1.539q2.959 0 4.851.876 1.431.663 2.11 2.074.437.919.437 3.762v6.648q0 2.8.121 3.442.121.62.388.834.291.214.655.214.388 0 .679-.15.509-.278 1.965-1.561v1.197q-2.717 3.207-5.191 3.207-1.188 0-1.892-.727-.703-.727-.728-2.48zm0-1.39v-7.461q-3.663 1.283-4.73 1.817-1.916.941-2.741 1.967t-.825 2.245q0 1.539 1.043 2.565 1.043 1.005 2.401 1.005 1.843 0 4.851-2.138zM1046.784 75.106q3.905-4.147 7.446-4.147 1.819 0 3.129.812 1.31.791 2.086 2.629.534 1.283.534 3.933v8.358q0 1.86.34 2.523.267.534.849.834.606.299 2.207.299v.77h-10.988v-.77h.461q1.552 0 2.159-.406.631-.428.873-1.24.097-.321.097-2.009v-8.016q0-2.672-.8-3.869-.776-1.218-2.644-1.218-2.886 0-5.748 2.779v10.325q0 1.988.267 2.458.339.62.922.919.606.278 2.426.278v.77h-10.988v-.77h.485q1.698 0 2.28-.748.606-.77.606-2.907v-7.268q0-3.527-.194-4.297-.17-.77-.558-1.048-.364-.278-.994-.278-.679 0-1.625.321l-.364-.77 6.694-2.394h1.043v4.147zM1084.066 83.677q-.897 3.869-3.517 5.964-2.62 2.074-5.797 2.074-3.784 0-6.598-2.8t-2.814-7.567q0-4.617 3.105-7.503 3.129-2.886 7.495-2.886 3.275 0 5.385 1.539 2.11 1.518 2.11 3.164 0 .812-.606 1.325-.582.492-1.649.492-1.431 0-2.159-.812-.412-.449-.558-1.71-.121-1.261-.97-1.924-.849-.641-2.353-.641-2.426 0-3.905 1.582-1.965 2.095-1.965 5.537 0 3.506 1.94 6.199 1.965 2.672 5.288 2.672 2.377 0 4.269-1.432 1.334-.983 2.595-3.57l.703.299zM1092.907 60.724q1.019 0 1.722.641.728.62.728 1.518t-.728 1.539q-.703.641-1.722.641t-1.746-.641-.728-1.539q0-.898.703-1.518.728-.641 1.771-.641zm2.013 10.239v15.733q0 1.838.291 2.458.315.599.897.898.606.299 2.183.299v.77h-10.794v-.77q1.625 0 2.183-.278.558-.278.873-.919.34-.641.34-2.458v-7.546q0-3.185-.218-4.126-.17-.684-.534-.941-.364-.278-.994-.278-.679 0-1.649.321l-.34-.77 6.695-2.394h1.067zM1113.572 88.296q-3.42 2.33-4.293 2.693-1.31.534-2.789.534-2.304 0-3.808-1.39-1.48-1.39-1.48-3.655 0-1.432.728-2.48.994-1.454 3.444-2.736 2.474-1.283 8.198-3.121v-.77q0-2.929-1.067-4.019-1.043-1.09-3.056-1.09-1.528 0-2.426.727-.922.727-.922 1.667l.049 1.24q0 .983-.582 1.518-.558.534-1.48.534-.897 0-1.48-.556-.558-.556-.558-1.518 0-1.838 2.134-3.378 2.135-1.539 5.991-1.539 2.959 0 4.851.876 1.431.663 2.11 2.074.437.919.437 3.762v6.648q0 2.8.121 3.442.121.62.388.834.291.214.655.214.388 0 .679-.15.509-.278 1.965-1.561v1.197q-2.717 3.207-5.191 3.207-1.188 0-1.892-.727-.703-.727-.728-2.48zm0-1.39v-7.461q-3.663 1.283-4.73 1.817-1.916.941-2.741 1.967t-.825 2.245q0 1.539 1.043 2.565 1.043 1.005 2.401 1.005 1.843 0 4.851-2.138zM1139.137 78.908q-.024 4.361 2.401 6.841 2.426 2.48 5.7 2.48 2.183 0 3.784-1.048 1.625-1.069 2.717-3.634l.752.428q-.509 2.929-2.959 5.344-2.45 2.394-6.137 2.394-4.002 0-6.864-2.736-2.838-2.758-2.838-7.396 0-5.024 2.911-7.824 2.935-2.822 7.349-2.822 3.735 0 6.137 2.18 2.401 2.159 2.401 5.793h-15.354zm0-1.24h10.284q-.121-1.881-.509-2.651-.606-1.197-1.819-1.881-1.189-.684-2.498-.684-2.013 0-3.614 1.39-1.577 1.368-1.843 3.827zM1163.956 75.106q3.905-4.147 7.446-4.147 1.819 0 3.129.812 1.31.791 2.086 2.629.534 1.283.534 3.933v8.358q0 1.86.34 2.523.267.534.849.834.606.299 2.207.299v.77h-10.988v-.77h.461q1.552 0 2.159-.406.631-.428.873-1.24.097-.321.097-2.009v-8.016q0-2.672-.8-3.869-.776-1.218-2.644-1.218-2.886 0-5.749 2.779v10.325q0 1.988.267 2.458.34.62.922.919.606.278 2.425.278v.77h-10.988v-.77h.485q1.698 0 2.28-.748.606-.77.606-2.907v-7.268q0-3.527-.194-4.297-.17-.77-.558-1.048-.364-.278-.994-.278-.679 0-1.625.321l-.364-.77 6.695-2.394h1.043v4.147zM1214.234 71.538v11.864q0 3.399.17 4.169.194.748.582 1.048.412.299.946.299.752 0 1.698-.363l.34.748-6.646 2.416h-1.092v-4.147q-2.862 2.736-4.366 3.442-1.504.705-3.177.705-1.868 0-3.25-.941-1.358-.962-1.892-2.458-.534-1.496-.534-4.233v-8.743q0-1.39-.34-1.924t-1.019-.812q-.655-.299-2.401-.278v-.791h7.786v13.104q0 2.736 1.067 3.591 1.092.855 2.62.855 1.043 0 2.353-.577 1.334-.577 3.153-2.202v-11.095q0-1.667-.703-2.245-.679-.599-2.862-.641v-.791h7.568zM1226.057 75.106q3.905-4.147 7.446-4.147 1.819 0 3.129.812 1.31.791 2.086 2.629.534 1.283.534 3.933v8.358q0 1.86.34 2.523.267.534.849.834.606.299 2.207.299v.77h-10.988v-.77h.461q1.552 0 2.159-.406.631-.428.873-1.24.097-.321.097-2.009v-8.016q0-2.672-.8-3.869-.776-1.218-2.644-1.218-2.886 0-5.748 2.779v10.325q0 1.988.267 2.458.34.62.922.919.606.278 2.426.278v.77h-10.988v-.77h.485q1.698 0 2.28-.748.606-.77.606-2.907v-7.268q0-3.527-.194-4.297-.17-.77-.558-1.048-.364-.278-.994-.278-.679 0-1.625.321l-.364-.77 6.694-2.394h1.043v4.147zM1263.233 75.106q3.905-4.147 7.446-4.147 1.819 0 3.129.812 1.31.791 2.086 2.629.534 1.283.534 3.933v8.358q0 1.86.34 2.523.267.534.849.834.606.299 2.207.299v.77h-10.988v-.77h.461q1.552 0 2.159-.406.631-.428.873-1.24.097-.321.097-2.009v-8.016q0-2.672-.8-3.869-.776-1.218-2.644-1.218-2.886 0-5.749 2.779v10.325q0 1.988.267 2.458.34.62.922.919.606.278 2.425.278v.77h-10.988v-.77h.485q1.698 0 2.28-.748.606-.77.606-2.907v-7.268q0-3.527-.194-4.297-.17-.77-.558-1.048-.364-.278-.994-.278-.679 0-1.625.321l-.364-.77 6.695-2.394h1.043v4.147zM1287.306 60.724q1.019 0 1.722.641.728.62.728 1.518t-.728 1.539q-.703.641-1.722.641t-1.746-.641-.728-1.539q0-.898.703-1.518.728-.641 1.771-.641zm2.013 10.239v15.733q0 1.838.291 2.458.315.599.897.898.606.299 2.183.299v.77h-10.794v-.77q1.625 0 2.183-.278.558-.278.873-.919.34-.641.34-2.458v-7.546q0-3.185-.218-4.126-.17-.684-.534-.941-.364-.278-.994-.278-.679 0-1.649.321l-.34-.77 6.694-2.394h1.067zM1294.23 71.538h10.454v.791h-.679q-.946 0-1.455.406-.485.406-.485 1.09 0 .748.509 1.774l5.166 10.817 5.191-11.223q.558-1.197.558-1.817 0-.299-.194-.492-.267-.321-.679-.428-.412-.128-1.674-.128v-.791h7.252v.791q-1.261.086-1.746.449-.849.641-1.528 2.138l-7.883 16.802h-.994l-7.931-16.525q-.534-1.154-1.019-1.646-.485-.513-1.237-.855-.412-.192-1.625-.363v-.791zM1323.949 78.908q-.024 4.361 2.401 6.841 2.426 2.48 5.7 2.48 2.183 0 3.784-1.048 1.625-1.069 2.717-3.634l.752.428q-.509 2.929-2.959 5.344-2.45 2.394-6.137 2.394-4.002 0-6.864-2.736-2.838-2.758-2.838-7.396 0-5.024 2.911-7.824 2.935-2.822 7.349-2.822 3.735 0 6.137 2.18 2.401 2.159 2.401 5.793h-15.354zm0-1.24h10.284q-.121-1.881-.509-2.651-.606-1.197-1.819-1.881-1.189-.684-2.498-.684-2.013 0-3.614 1.39-1.577 1.368-1.843 3.827zM1349.94 60.724v25.973q0 1.838.291 2.437.315.599.946.919.631.299 2.353.299v.77h-10.891v-.77q1.528 0 2.086-.278.558-.278.873-.919.315-.641.315-2.458v-17.785q0-3.313-.17-4.062-.17-.77-.558-1.048-.364-.278-.946-.278-.631 0-1.601.342l-.412-.748 6.622-2.394h1.092zM1372.735 64.976l8.004-3.442h.8v24.476q0 2.437.218 3.035.243.599.97.919.728.321 2.959.363v.791h-12.37v-.791q2.329-.043 3.008-.342.679-.321.946-.834.267-.534.267-3.142v-15.648q0-3.164-.243-4.062-.17-.684-.631-1.005-.437-.321-1.067-.321-.898 0-2.498.663l-.364-.663zM1425.569 61.465l-23.965 30.847h-2.159l23.965-30.847zm-24.934 0q3.274 0 5.069 2.394 1.819 2.394 1.819 5.494 0 3.72-2.037 5.75t-4.9 2.031q-1.916 0-3.517-.919-1.601-.941-2.571-2.779-.946-1.838-.946-4.083t.97-4.126q.97-1.903 2.644-2.822 1.698-.941 3.469-.941zm-.072 1.197q-1.237 0-2.207 1.283-.946 1.283-.946 5.387 0 2.971.534 4.532.412 1.176 1.285 1.817.509.385 1.261.385 1.164 0 1.989-1.112 1.213-1.646 1.213-5.494 0-4.062-1.189-5.708-.776-1.09-1.94-1.09zm23.891 14.066q1.722 0 3.42.962 1.722.962 2.644 2.8.946 1.838.946 4.04 0 3.784-2.062 5.793-2.062 1.988-4.875 1.988-1.771 0-3.444-.962-1.649-.962-2.62-2.736-.946-1.796-.946-4.083 0-2.245.946-4.104.97-1.86 2.62-2.779 1.674-.919 3.371-.919zm.024 1.133q-1.164 0-2.013 1.154-1.092 1.496-1.092 5.665 0 3.827 1.116 5.344.825 1.09 1.989 1.09 1.116 0 1.989-1.176 1.164-1.561 1.164-5.366 0-4.019-1.164-5.622-.8-1.09-1.989-1.09z"/></svg>