<svg xmlns="http://www.w3.org/2000/svg" height="215.35mm" width="265.68mm" viewBox="0 0 941.37563 763.04124"><path d="M249.41 66.222l-3.01 4.463c-1.655 2.454-5.92 9.961-9.477 16.684l-6.465 12.223 7.041 1.842 7.039 1.842-1.965 121.84c-1.081 67.013-2.415 124.7-2.963 128.19l-.363 2.322h7.586l4.617-20.541 6.066-26.988 13.609-25.873c29.04-55.208 69.25-93.051 125.85-118.44l22.057-9.896 30.602-4.963 30.6-4.965 18.457.012 18.457.01 27.85 6.676 27.85 6.678 20.537 10.189c65.32 32.413 108.34 81.942 132.26 152.27 9.488 27.895 9.342 25.168 1.508 28.107l-6.418 2.408 8.438 14.262c4.641 7.844 9.493 14.262 10.783 14.262 1.29 0 5.6-6.699 9.578-14.887l7.232-14.887-6.734-1.053-6.734-1.053-10.1-30.201-10.1-30.201-8.764-15.102c-39.92-68.775-100.37-114.12-172.35-129.26l-23.611-4.967h-61.69l-28.5 7.881-28.5 7.879-23.488 11.98-23.49 11.98-20.053 16.295-20.053 16.295-16.197 20.053c-8.908 11.029-22.235 30.623-29.613 43.543l-13.414 23.49 1.006-98.146 1.008-98.146 5.873-.008c7.659-.01 7.489-1.088-2.992-18.973l-8.865-15.127zm-6.4 365.43l-8.148 14.344-8.146 14.344 1.992 1.994c1.096 1.096 4.269 2.012 7.049 2.035l5.053.043 7.639 21.818c10.604 30.287 20.158 48.328 39.498 74.582l16.631 22.576 17.355 15.607c21.237 19.098 44.215 33.833 71.855 46.082l20.939 9.279 24.361 5.199 24.361 5.197 40.477-1.635 40.477-1.635 28.709-9.895 28.711-9.896 23.115-15.367 23.115-15.367 20.115-19.631 20.113-19.631 13.256-19.99c7.291-10.994 18.222-31.357 24.289-45.252l11.031-25.264.277 6.711c.356 8.585-.888 57.281-1.799 70.471-.382 5.537-.933 27.81-1.225 49.496l-.529 39.43h-5.033c-6.746 0-6.465 1.396 3.803 18.916l8.836 15.076 7.943-13.982c4.369-7.691 7.941-15.339 7.941-16.996v-3.014h-13.962l1.971-94.121 1.971-94.121-2.102-8.375-2.102-8.373-3.746 1.248-3.746 1.25-2.525 14.836c-5.442 31.98-30.206 79.69-59.652 114.93l-15.1 18.068-20.135 15.268c-26.82 20.336-39.138 26.874-70.457 37.393l-26.348 8.848-33.869 2.072-33.871 2.072-28.412-5.756-28.412-5.758-24.738-11.43-24.738-11.43-22.295-16.65-22.295-16.652-13.695-16.121c-7.532-8.866-19.256-24.509-26.051-34.764l-12.354-18.645-10.102-26.232-10.1-26.23 5.519-4.037 5.521-4.037-9.121-14.447-9.119-14.447zm-185.08-391.157h-12.817l-2.246 5.225q-.83 1.929-.83 2.881 0 .757.708 1.343.732.562 3.125.732v.903h-10.425v-.903q2.075-.366 2.686-.952 1.245-1.172 2.759-4.761l11.646-27.246h.854l11.523 27.539q1.392 3.32 2.515 4.321 1.147.977 3.174 1.099v.903h-13.062v-.903q1.978-.098 2.661-.659.708-.562.708-1.367 0-1.074-.977-3.394l-2.002-4.761zm-.684-1.807l-5.615-13.379-5.762 13.379h11.377zm37.784-19.312v-.903h11.719v.903h-1.245q-1.953 0-3.003 1.636-.513.757-.513 3.516v13.428q0 4.981-1.001 7.739-.977 2.734-3.882 4.712-2.881 1.953-7.861 1.953-5.42 0-8.227-1.88t-3.979-5.054q-.781-2.173-.781-8.154v-12.939q0-3.052-.855-4.004-.83-.952-2.71-.952h-1.245v-.903h14.307v.903h-1.27q-2.051 0-2.93 1.294-.61.879-.61 3.662v14.429q0 1.929.342 4.419.366 2.49 1.294 3.882t2.661 2.295q1.758.903 4.297.903 3.247 0 5.811-1.416 2.563-1.416 3.491-3.613.952-2.222.952-7.495v-13.403q0-3.101-.684-3.882-.952-1.074-2.832-1.074h-1.245zm41.22-.903l.366 7.764h-.928q-.269-2.051-.732-2.93-.757-1.416-2.026-2.075-1.245-.684-3.296-.684h-4.663v25.293q0 3.052.659 3.809.928 1.025 2.856 1.025h1.147v.903h-14.038v-.903h1.172q2.1 0 2.978-1.27.537-.781.537-3.564v-25.293h-3.979q-2.319 0-3.296.342-1.27.464-2.173 1.782t-1.074 3.564h-.928l.391-7.764h27.026zm19.14-.757q6.445 0 11.157 4.907 4.736 4.883 4.736 12.207 0 7.544-4.761 12.524-4.761 4.981-11.523 4.981-6.836 0-11.499-4.858-4.639-4.858-4.639-12.573 0-7.886 5.371-12.866 4.663-4.321 11.157-4.321zm-.464 1.782q-4.443 0-7.129 3.296-3.345 4.102-3.345 12.012 0 8.105 3.467 12.476 2.661 3.32 7.031 3.32 4.663 0 7.69-3.638 3.052-3.638 3.052-11.475 0-8.496-3.345-12.671-2.686-3.32-7.422-3.32zm28.754.782v13.086h7.275q2.832 0 3.784-.854 1.27-1.123 1.416-3.955h.903v11.523h-.903q-.342-2.417-.684-3.101-.439-.854-1.44-1.343-1.001-.488-3.076-.488h-7.275v10.913q0 2.197.195 2.686.195.464.684.757.488.269 1.855.269h5.615q2.808 0 4.077-.391 1.27-.391 2.441-1.538 1.514-1.514 3.101-4.565h.977l-2.856 8.301h-25.513v-.903h1.172q1.172 0 2.222-.562.781-.391 1.05-1.172.293-.781.293-3.198v-21.509q0-3.149-.635-3.882-.879-.977-2.93-.977h-1.172v-.903h25.513l.366 7.251h-.952q-.513-2.612-1.147-3.589-.61-.977-1.831-1.489-.977-.366-3.442-.366h-9.082zm19.46-1.807h8.984l20.239 24.829v-19.092q0-3.052-.684-3.809-.903-1.025-2.856-1.025h-1.147v-.903h11.523v.903h-1.172q-2.1 0-2.978 1.27-.537.781-.537 3.564v27.905h-.879l-21.826-26.66v20.386q0 3.052.659 3.809.928 1.025 2.856 1.025h1.172v.903h-11.523v-.903h1.147q2.124 0 3.003-1.27.537-.781.537-3.564v-23.022q-1.44-1.685-2.197-2.222-.732-.537-2.173-1.001-.708-.22-2.148-.22v-.903zm65.72 0l.366 7.764h-.928q-.269-2.051-.732-2.93-.757-1.416-2.026-2.075-1.245-.684-3.296-.684h-4.663v25.293q0 3.052.659 3.809.928 1.025 2.856 1.025h1.147v.903h-14.038v-.903h1.172q2.1 0 2.978-1.27.537-.781.537-3.564v-25.293h-3.979q-2.319 0-3.296.342-1.27.464-2.173 1.782t-1.074 3.564h-.928l.391-7.764h27.026zm35.53 33.106h-8.838l-11.206-15.479q-1.245.049-2.026.049h-.684l-.757-.049v9.619q0 3.125.684 3.882.928 1.074 2.783 1.074h1.294v.903h-14.185v-.903h1.245q2.1 0 3.003-1.367.513-.757.513-3.589v-21.387q0-3.125-.684-3.882-.952-1.074-2.832-1.074h-1.245v-.903h12.061q5.273 0 7.764.781 2.515.757 4.248 2.832 1.758 2.051 1.758 4.907 0 3.052-2.002 5.298-1.978 2.246-6.152 3.174l6.836 9.497q2.344 3.272 4.028 4.346 1.685 1.074 4.394 1.367v.903zm-23.52-17.017q.464 0 .806.024h.562q4.736 0 7.129-2.051 2.417-2.051 2.417-5.225 0-3.101-1.953-5.029-1.929-1.953-5.127-1.953-1.416 0-3.833.464v13.77zm33.57-14.282v13.086h7.275q2.832 0 3.784-.854 1.27-1.123 1.416-3.955h.903v11.523h-.903q-.342-2.417-.684-3.101-.439-.854-1.44-1.343-1.001-.488-3.076-.488h-7.275v10.913q0 2.197.195 2.686.195.464.684.757.488.269 1.855.269h5.615q2.808 0 4.077-.391 1.27-.391 2.441-1.538 1.514-1.514 3.101-4.565h.977l-2.856 8.301h-25.513v-.903h1.172q1.172 0 2.222-.562.781-.391 1.05-1.172.293-.781.293-3.198v-21.509q0-3.149-.635-3.882-.879-.977-2.93-.977h-1.172v-.903h25.513l.366 7.251h-.952q-.513-2.612-1.147-3.589-.61-.977-1.831-1.489-.977-.366-3.442-.366h-9.082zm50.81-2.564l.855 10.449h-.855q-1.294-3.906-3.345-5.884-2.954-2.856-7.593-2.856-6.323 0-9.619 5.005-2.759 4.224-2.759 10.059 0 4.736 1.831 8.643 1.831 3.906 4.785 5.737 2.978 1.807 6.104 1.807 1.831 0 3.54-.464t3.296-1.367v-9.57q0-2.49-.391-3.247-.366-.781-1.172-1.172-.781-.415-2.783-.415v-.928h12.817v.928h-.61q-1.904 0-2.612 1.27-.488.903-.488 3.564v10.132q-2.808 1.514-5.542 2.222t-6.079.708q-9.595 0-14.575-6.152-3.735-4.614-3.735-10.645 0-4.37 2.1-8.374 2.49-4.761 6.836-7.324 3.638-2.124 8.594-2.124 1.807 0 3.272.293 1.489.293 4.199 1.294 1.367.513 1.831.513.464 0 .781-.415.342-.439.415-1.685h.903zm28.32 22.779h-12.817l-2.246 5.225q-.83 1.929-.83 2.881 0 .757.708 1.343.732.562 3.125.732v.903h-10.425v-.903q2.075-.366 2.686-.952 1.245-1.172 2.759-4.761l11.646-27.246h.854l11.523 27.539q1.392 3.32 2.515 4.321 1.147.977 3.174 1.099v.903h-13.062v-.903q1.978-.098 2.661-.659.708-.562.708-1.367 0-1.074-.977-3.394l-2.002-4.761zm-.684-1.807l-5.615-13.379-5.762 13.379h11.377zm-365.746 364.854h15.381v-9.473q0-2.539-.317-3.345-.244-.61-1.025-1.05-1.05-.586-2.222-.586h-1.172v-.903h14.16v.903h-1.172q-1.172 0-2.222.562-.781.391-1.074 1.196-.269.781-.269 3.223v21.362q0 2.515.317 3.32.244.61 1.001 1.05 1.074.586 2.246.586h1.172v.903h-14.16v-.903h1.172q2.026 0 2.954-1.196.61-.781.61-3.76v-10.083h-15.381v10.083q0 2.515.317 3.32.244.61 1.025 1.05 1.05.586 2.222.586h1.196v.903h-14.185v-.903h1.172q2.051 0 2.978-1.196.586-.781.586-3.76v-21.362q0-2.539-.317-3.345-.244-.61-1.001-1.05-1.074-.586-2.246-.586h-1.172v-.903h14.185v.903h-1.196q-1.172 0-2.222.562-.757.391-1.05 1.196-.293.781-.293 3.223v9.473zm41.29 16.85v.903h-14.185v-.903h1.172q2.051 0 2.978-1.196.586-.781.586-3.76v-21.387q0-2.515-.317-3.32-.244-.61-1.001-1.05-1.074-.586-2.246-.586h-1.172v-.903h14.185v.903h-1.196q-2.026 0-2.954 1.196-.61.781-.61 3.76v21.387q0 2.515.317 3.32.244.61 1.025 1.05 1.05.586 2.222.586h1.196zm11.52-14.6v9.644q0 3.125.684 3.882.928 1.074 2.808 1.074h1.27v.903h-14.185v-.903h1.245q2.1 0 3.003-1.367.488-.757.488-3.589v-21.387q0-3.125-.659-3.882-.952-1.074-2.832-1.074h-1.245v-.903h12.134q4.443 0 7.007.928 2.563.903 4.321 3.076 1.758 2.173 1.758 5.151 0 4.053-2.686 6.592-2.661 2.539-7.544 2.539-1.196 0-2.588-.171t-2.978-.513zm0-1.392q1.294.244 2.295.366t1.709.122q2.539 0 4.37-1.953 1.855-1.978 1.855-5.103 0-2.148-.879-3.979-.879-1.855-2.49-2.759-1.611-.928-3.662-.928-1.245 0-3.198.464v13.77zm28.03-14.408v13.086h7.275q2.832 0 3.784-.854 1.27-1.123 1.416-3.955h.903v11.523h-.903q-.342-2.417-.684-3.101-.439-.854-1.44-1.343-1.001-.488-3.076-.488h-7.275v10.913q0 2.197.195 2.686.195.464.684.757.488.269 1.855.269h5.615q2.808 0 4.077-.391 1.27-.391 2.441-1.538 1.514-1.514 3.101-4.565h.977l-2.856 8.301h-25.513v-.903h1.172q1.172 0 2.222-.562.781-.391 1.05-1.172.293-.781.293-3.198v-21.509q0-3.149-.635-3.882-.879-.977-2.93-.977h-1.172v-.903h25.513l.366 7.251h-.952q-.513-2.612-1.147-3.589-.61-.977-1.831-1.489-.977-.366-3.442-.366h-9.082zm53.91 31.3h-8.838l-11.206-15.479q-1.245.049-2.026.049h-.684l-.757-.049v9.619q0 3.125.684 3.882.928 1.074 2.783 1.074h1.294v.903h-14.185v-.903h1.245q2.1 0 3.003-1.367.513-.757.513-3.589v-21.387q0-3.125-.684-3.882-.952-1.074-2.832-1.074h-1.245v-.903h12.061q5.273 0 7.764.781 2.515.757 4.248 2.832 1.758 2.051 1.758 4.907 0 3.052-2.002 5.298-1.978 2.246-6.152 3.174l6.836 9.497q2.344 3.272 4.028 4.346 1.685 1.074 4.394 1.367v.903zm-23.511-17.017q.464 0 .806.024h.562q4.736 0 7.129-2.051 2.417-2.051 2.417-5.225 0-3.101-1.953-5.029-1.929-1.953-5.127-1.953-1.416 0-3.833.464v13.77zm38.551 16.117v.903h-14.185v-.903h1.172q2.051 0 2.978-1.196.586-.781.586-3.76v-21.387q0-2.515-.317-3.32-.244-.61-1.001-1.05-1.074-.586-2.246-.586h-1.172v-.903h14.185v.903h-1.196q-2.026 0-2.954 1.196-.61.781-.61 3.76v21.387q0 2.515.317 3.32.244.61 1.025 1.05 1.05.586 2.222.586h1.196zm.61-32.2h8.984l20.239 24.829v-19.092q0-3.052-.684-3.809-.903-1.025-2.856-1.025h-1.147v-.903h11.523v.903h-1.172q-2.1 0-2.978 1.27-.537.781-.537 3.564v27.905h-.879l-21.826-26.66v20.386q0 3.052.659 3.809.928 1.025 2.856 1.025h1.172v.903h-11.523v-.903h1.147q2.124 0 3.003-1.27.537-.781.537-3.564v-23.022q-1.44-1.685-2.197-2.222-.732-.537-2.173-1.001-.708-.22-2.148-.22v-.903zm65.72 0l.366 7.764h-.928q-.269-2.051-.732-2.93-.757-1.416-2.026-2.075-1.245-.684-3.296-.684h-4.663v25.293q0 3.052.659 3.809.928 1.025 2.856 1.025h1.147v.903h-14.038v-.903h1.172q2.1 0 2.978-1.27.537-.781.537-3.564v-25.293h-3.979q-2.319 0-3.296.342-1.27.464-2.173 1.782t-1.074 3.564h-.928l.391-7.764h27.026zm12.18 1.8v13.086h7.275q2.832 0 3.784-.854 1.27-1.123 1.416-3.955h.903v11.523h-.903q-.342-2.417-.684-3.101-.439-.854-1.44-1.343-1.001-.488-3.076-.488h-7.275v10.913q0 2.197.195 2.686.195.464.684.757.488.269 1.855.269h5.615q2.808 0 4.077-.391 1.27-.391 2.441-1.538 1.514-1.514 3.101-4.565h.977l-2.856 8.301h-25.513v-.903h1.172q1.172 0 2.222-.562.781-.391 1.05-1.172.293-.781.293-3.198v-21.509q0-3.149-.635-3.882-.879-.977-2.93-.977h-1.172v-.903h25.513l.366 7.251h-.952q-.513-2.612-1.147-3.589-.61-.977-1.831-1.489-.977-.366-3.442-.366h-9.082zm19.46-1.8h8.984l20.239 24.829v-19.092q0-3.052-.684-3.809-.903-1.025-2.856-1.025h-1.147v-.903h11.523v.903h-1.172q-2.1 0-2.978 1.27-.537.781-.537 3.564v27.905h-.879l-21.826-26.66v20.386q0 3.052.659 3.809.928 1.025 2.856 1.025h1.172v.903h-11.523v-.903h1.147q2.124 0 3.003-1.27.537-.781.537-3.564v-23.022q-1.44-1.685-2.197-2.222-.732-.537-2.173-1.001-.708-.22-2.148-.22v-.903zm66.89-.76l.757 11.255h-.757q-1.514-5.054-4.321-7.275t-6.738-2.222q-3.296 0-5.957 1.685-2.661 1.66-4.199 5.322-1.514 3.662-1.514 9.106 0 4.492 1.44 7.788t4.321 5.054q2.905 1.758 6.616 1.758 3.223 0 5.689-1.367 2.466-1.392 5.42-5.493l.757.488q-2.49 4.419-5.811 6.47-3.32 2.051-7.886 2.051-8.227 0-12.744-6.104-3.369-4.541-3.369-10.693 0-4.956 2.222-9.106t6.104-6.421q3.906-2.295 8.521-2.295 3.589 0 7.08 1.758 1.025.537 1.465.537.659 0 1.147-.464.635-.659.903-1.831h.855zm18.73 32.96v.903h-14.185v-.903h1.172q2.051 0 2.978-1.196.586-.781.586-3.76v-21.387q0-2.515-.317-3.32-.244-.61-1.001-1.05-1.074-.586-2.246-.586h-1.172v-.903h14.185v.903h-1.196q-2.026 0-2.954 1.196-.61.781-.61 3.76v21.387q0 2.515.317 3.32.244.61 1.025 1.05 1.05.586 2.222.586h1.196zm19.55-32.96q6.445 0 11.157 4.907 4.736 4.883 4.736 12.207 0 7.544-4.761 12.524-4.761 4.981-11.523 4.981-6.836 0-11.499-4.858-4.639-4.858-4.639-12.573 0-7.886 5.371-12.866 4.663-4.321 11.157-4.321zm-.464 1.782q-4.443 0-7.129 3.296-3.345 4.102-3.345 12.012 0 8.105 3.467 12.476 2.661 3.32 7.031 3.32 4.663 0 7.69-3.638 3.052-3.638 3.052-11.475 0-8.496-3.345-12.671-2.686-3.32-7.422-3.32zm5.542-11.792l-7.202 8.423h-.83l2.563-8.423h5.469zm12.112 10.77h8.984l20.239 24.829v-19.092q0-3.052-.684-3.809-.903-1.025-2.856-1.025h-1.147v-.903h11.523v.903h-1.172q-2.1 0-2.978 1.27-.537.781-.537 3.564v27.905h-.879l-21.826-26.66v20.386q0 3.052.659 3.809.928 1.025 2.856 1.025h1.172v.903h-11.523v-.903h1.147q2.124 0 3.003-1.27.537-.781.537-3.564v-23.022q-1.44-1.685-2.197-2.222-.732-.537-2.173-1.001-.708-.22-2.148-.22v-.903zm114.76 15.35h15.381v-9.473q0-2.539-.317-3.345-.244-.61-1.025-1.05-1.05-.586-2.222-.586h-1.172v-.903h14.16v.903h-1.172q-1.172 0-2.222.562-.781.391-1.074 1.196-.269.781-.269 3.223v21.362q0 2.515.317 3.32.244.61 1.001 1.05 1.074.586 2.246.586h1.172v.903h-14.16v-.903h1.172q2.026 0 2.954-1.196.61-.781.61-3.76v-10.083h-15.381v10.083q0 2.515.317 3.32.244.61 1.025 1.05 1.05.586 2.222.586h1.196v.903h-14.185v-.903h1.172q2.051 0 2.978-1.196.586-.781.586-3.76v-21.362q0-2.539-.317-3.345-.244-.61-1.001-1.05-1.074-.586-2.246-.586h-1.172v-.903h14.185v.903h-1.196q-1.172 0-2.222.562-.757.391-1.05 1.196-.293.781-.293 3.223v9.473zm41.28 16.85v.903h-14.185v-.903h1.172q2.051 0 2.978-1.196.586-.781.586-3.76v-21.387q0-2.515-.317-3.32-.244-.61-1.001-1.05-1.074-.586-2.246-.586h-1.172v-.903h14.185v.903h-1.196q-2.026 0-2.954 1.196-.61.781-.61 3.76v21.387q0 2.515.317 3.32.244.61 1.025 1.05 1.05.586 2.222.586h1.196zm11.53-14.6v9.644q0 3.125.684 3.882.928 1.074 2.808 1.074h1.27v.903h-14.185v-.903h1.245q2.1 0 3.003-1.367.488-.757.488-3.589v-21.387q0-3.125-.659-3.882-.952-1.074-2.832-1.074h-1.245v-.903h12.134q4.443 0 7.007.928 2.563.903 4.321 3.076 1.758 2.173 1.758 5.151 0 4.053-2.686 6.592-2.661 2.539-7.544 2.539-1.196 0-2.588-.171t-2.978-.513zm0-1.392q1.294.244 2.295.366t1.709.122q2.539 0 4.37-1.953 1.855-1.978 1.855-5.103 0-2.148-.879-3.979-.879-1.855-2.49-2.759-1.611-.928-3.662-.928-1.245 0-3.198.464v13.77zm28.02-14.408v13.086h7.275q2.832 0 3.784-.854 1.27-1.123 1.416-3.955h.903v11.523h-.903q-.342-2.417-.684-3.101-.439-.854-1.44-1.343-1.001-.488-3.076-.488h-7.275v10.913q0 2.197.195 2.686.195.464.684.757.488.269 1.855.269h5.615q2.808 0 4.077-.391 1.27-.391 2.441-1.538 1.514-1.514 3.101-4.565h.977l-2.856 8.301h-25.513v-.903h1.172q1.172 0 2.222-.562.781-.391 1.05-1.172.293-.781.293-3.198v-21.509q0-3.149-.635-3.882-.879-.977-2.93-.977h-1.172v-.903h25.513l.366 7.251h-.952q-.513-2.612-1.147-3.589-.61-.977-1.831-1.489-.977-.366-3.442-.366h-9.082zm53.89 31.3h-8.838l-11.206-15.479q-1.245.049-2.026.049h-.684l-.757-.049v9.619q0 3.125.684 3.882.928 1.074 2.783 1.074h1.294v.903h-14.185v-.903h1.245q2.1 0 3.003-1.367.513-.757.513-3.589v-21.387q0-3.125-.684-3.882-.952-1.074-2.832-1.074h-1.245v-.903h12.061q5.273 0 7.764.781 2.515.757 4.248 2.832 1.758 2.051 1.758 4.907 0 3.052-2.002 5.298-1.978 2.246-6.152 3.174l6.836 9.497q2.344 3.272 4.028 4.346 1.685 1.074 4.394 1.367v.903zm-23.511-17.017q.464 0 .806.024h.562q4.736 0 7.129-2.051 2.417-2.051 2.417-5.225 0-3.101-1.953-5.029-1.929-1.953-5.127-1.953-1.416 0-3.833.464v13.77zm56.911 17.017h-8.838l-11.206-15.479q-1.245.049-2.026.049h-.684l-.757-.049v9.619q0 3.125.684 3.882.928 1.074 2.783 1.074h1.294v.903h-14.184v-.903h1.245q2.1 0 3.003-1.367.513-.757.513-3.589v-21.387q0-3.125-.684-3.882-.952-1.074-2.832-1.074h-1.245v-.903h12.06q5.273 0 7.764.781 2.515.757 4.248 2.832 1.758 2.051 1.758 4.907 0 3.052-2.002 5.298-1.978 2.246-6.152 3.174l6.836 9.497q2.344 3.272 4.028 4.346t4.394 1.367v.903zm-23.511-17.017q.464 0 .806.024h.562q4.736 0 7.129-2.051 2.417-2.051 2.417-5.225 0-3.101-1.953-5.029-1.929-1.953-5.127-1.953-1.416 0-3.833.464v13.77zm33.611-14.283v13.086h7.275q2.832 0 3.784-.854 1.27-1.123 1.416-3.955h.903v11.523h-.903q-.342-2.417-.684-3.101-.439-.854-1.44-1.343-1.001-.488-3.076-.488h-7.275v10.913q0 2.197.195 2.686.195.464.684.757.488.269 1.855.269h5.615q2.808 0 4.077-.391 1.27-.391 2.441-1.538 1.514-1.514 3.101-4.565h.977l-2.856 8.301h-25.513v-.903h1.172q1.172 0 2.222-.562.781-.391 1.05-1.172.293-.781.293-3.198v-21.509q0-3.149-.635-3.882-.879-.977-2.93-.977h-1.172v-.903h25.513l.366 7.251h-.952q-.513-2.612-1.147-3.589-.61-.977-1.831-1.489-.977-.366-3.442-.366h-9.082zm30.3 0v13.013h6.03q2.075 0 3.027-.903.977-.928 1.294-3.638h.903v11.206h-.903q-.024-1.929-.513-2.832-.464-.903-1.318-1.343-.83-.464-2.49-.464h-6.03v10.4q0 2.515.317 3.32.244.61 1.025 1.05 1.074.586 2.246.586h1.196v.903h-14.209v-.903h1.172q2.051 0 2.979-1.196.586-.781.586-3.76v-21.387q0-2.515-.317-3.32-.244-.61-1.001-1.05-1.05-.586-2.246-.586h-1.172v-.903h24.634l.317 7.275h-.854q-.635-2.319-1.489-3.394-.83-1.099-2.075-1.587-1.221-.488-3.809-.488h-7.3zm46.3 22.15l.806.171-2.832 8.984h-25.635v-.903h1.245q2.1 0 3.003-1.367.513-.781.513-3.613v-21.362q0-3.101-.684-3.882-.952-1.074-2.832-1.074h-1.245v-.903h14.99v.903q-2.637-.024-3.711.488-1.05.513-1.44 1.294-.391.781-.391 3.735v20.801q0 2.026.391 2.783.293.513.903.757.61.244 3.809.244h2.417q3.809 0 5.347-.562t2.808-1.978q1.27-1.44 2.539-4.517zm12.3-22.15v13.086h7.275q2.832 0 3.784-.854 1.27-1.123 1.416-3.955h.903v11.523h-.903q-.342-2.417-.684-3.101-.44-.854-1.44-1.343-1.001-.488-3.076-.488h-7.275v10.913q0 2.197.195 2.686.195.464.684.757.488.269 1.855.269h5.615q2.808 0 4.077-.391 1.27-.391 2.441-1.538 1.514-1.514 3.101-4.565h.977l-2.857 8.301h-25.513v-.903h1.172q1.172 0 2.222-.562.781-.391 1.05-1.172.293-.781.293-3.198v-21.509q0-3.149-.635-3.882-.879-.977-2.93-.977h-1.172v-.903h25.513l.366 7.251h-.952q-.513-2.612-1.147-3.589-.61-.977-1.831-1.489-.977-.366-3.442-.366h-9.082zm40.6 12.97l7.104 10.596q2.954 4.394 4.37 5.566 1.44 1.147 3.638 1.27v.903h-14.209v-.903q1.416-.024 2.1-.293.513-.22.83-.659.342-.464.342-.928 0-.562-.22-1.123-.171-.415-1.343-2.148l-5.615-8.496-6.934 8.887q-1.099 1.416-1.318 1.904-.22.464-.22.977 0 .781.659 1.294t2.515.586v.903h-11.743v-.903q1.245-.122 2.148-.513 1.514-.635 2.881-1.709 1.367-1.074 3.125-3.296l7.813-9.863-6.519-9.546q-2.661-3.882-4.517-5.078-1.855-1.221-4.272-1.294v-.903h15.308v.903q-1.953.073-2.686.635-.708.562-.708 1.245 0 .903 1.172 2.637l5.078 7.593 5.884-7.446q1.025-1.318 1.245-1.807.244-.488.244-1.001 0-.513-.293-.903-.366-.513-.928-.708-.561-.22-2.319-.244v-.903h11.743v.903q-1.392.073-2.271.439-1.318.562-2.417 1.514-1.099.952-3.101 3.516l-6.567 8.398zm31.1 17.43v.903h-14.185v-.903h1.172q2.051 0 2.978-1.196.586-.781.586-3.76v-21.387q0-2.515-.317-3.32-.244-.61-1.001-1.05-1.074-.586-2.246-.586h-1.172v-.903h14.185v.903h-1.196q-2.026 0-2.954 1.196-.61.781-.61 3.76v21.387q0 2.515.317 3.32.244.61 1.025 1.05 1.05.586 2.222.586h1.196zm19.6-32.96q6.445 0 11.157 4.907 4.736 4.883 4.736 12.207 0 7.544-4.761 12.524-4.761 4.981-11.523 4.981-6.836 0-11.499-4.858-4.639-4.858-4.639-12.573 0-7.886 5.371-12.866 4.663-4.321 11.157-4.321zm-.464 1.782q-4.443 0-7.129 3.296-3.345 4.102-3.345 12.012 0 8.105 3.467 12.476 2.661 3.32 7.031 3.32 4.663 0 7.69-3.638 3.052-3.638 3.052-11.475 0-8.496-3.345-12.671-2.686-3.32-7.422-3.32zm5.542-11.792l-7.202 8.423h-.83l2.563-8.423h5.469zm12.122 10.77h8.984l20.239 24.829v-19.092q0-3.052-.683-3.809-.903-1.025-2.857-1.025h-1.147v-.903h11.524v.903h-1.172q-2.1 0-2.978 1.27-.537.781-.537 3.564v27.905h-.879l-21.826-26.66v20.386q0 3.052.659 3.809.928 1.025 2.856 1.025h1.172v.903h-11.523v-.903h1.147q2.124 0 3.003-1.27.537-.781.537-3.564v-23.022q-1.44-1.685-2.197-2.222-.732-.537-2.173-1.001-.708-.22-2.148-.22v-.903zm-290.29 345.27h-12.817l-2.246 5.225q-.83 1.929-.83 2.881 0 .757.708 1.343.732.562 3.125.732v.903h-10.425v-.903q2.075-.366 2.686-.952 1.245-1.172 2.759-4.761l11.646-27.246h.854l11.523 27.539q1.392 3.32 2.515 4.321 1.147.977 3.174 1.099v.903h-13.062v-.903q1.978-.098 2.661-.659.708-.562.708-1.367 0-1.074-.977-3.394l-2.002-4.761zm-.684-1.807l-5.615-13.379-5.762 13.379h11.377zm37.774-19.313v-.903h11.719v.903h-1.245q-1.953 0-3.003 1.636-.513.757-.513 3.516v13.428q0 4.981-1.001 7.739-.977 2.734-3.882 4.712-2.881 1.953-7.861 1.953-5.42 0-8.227-1.88t-3.979-5.054q-.781-2.173-.781-8.154v-12.939q0-3.052-.854-4.004-.83-.952-2.71-.952h-1.245v-.903h14.307v.903h-1.27q-2.051 0-2.93 1.294-.61.879-.61 3.662v14.429q0 1.929.342 4.419.366 2.49 1.294 3.882t2.661 2.295q1.758.903 4.297.903 3.247 0 5.811-1.416 2.563-1.416 3.491-3.613.952-2.222.952-7.495v-13.403q0-3.101-.684-3.882-.952-1.074-2.832-1.074h-1.245zm41.2-.9l.366 7.764h-.928q-.269-2.051-.732-2.93-.757-1.416-2.026-2.075-1.245-.684-3.296-.684h-4.663v25.293q0 3.052.659 3.809.928 1.025 2.857 1.025h1.147v.903h-14.038v-.903h1.172q2.1 0 2.978-1.27.537-.781.537-3.564v-25.293h-3.979q-2.319 0-3.296.342-1.27.464-2.173 1.782t-1.074 3.564h-.928l.391-7.764h27.026zm19.2-.76q6.445 0 11.157 4.907 4.736 4.883 4.736 12.207 0 7.544-4.761 12.524-4.761 4.981-11.524 4.981-6.836 0-11.499-4.858-4.639-4.858-4.639-12.573 0-7.886 5.371-12.866 4.663-4.321 11.157-4.321zm-.464 1.782q-4.443 0-7.129 3.296-3.345 4.102-3.345 12.012 0 8.105 3.467 12.476 2.661 3.32 7.031 3.32 4.663 0 7.69-3.638 3.052-3.638 3.052-11.475 0-8.496-3.345-12.671-2.686-3.32-7.422-3.32zm36.564-1.782q6.445 0 11.157 4.907 4.736 4.883 4.736 12.207 0 7.544-4.761 12.524-4.761 4.981-11.524 4.981-6.836 0-11.499-4.858-4.639-4.858-4.639-12.573 0-7.886 5.371-12.866 4.663-4.321 11.157-4.321zm-.464 1.782q-4.443 0-7.129 3.296-3.345 4.102-3.345 12.012 0 8.105 3.467 12.476 2.661 3.32 7.031 3.32 4.663 0 7.69-3.638 3.052-3.638 3.052-11.475 0-8.496-3.345-12.671-2.686-3.32-7.422-3.32zm46.964 22.928l.806.171-2.832 8.984h-25.635v-.903h1.245q2.1 0 3.003-1.367.513-.781.513-3.613v-21.362q0-3.101-.684-3.882-.952-1.074-2.832-1.074h-1.245v-.903h14.99v.903q-2.637-.024-3.711.488-1.05.513-1.44 1.294-.391.781-.391 3.735v20.801q0 2.026.391 2.783.293.513.903.757.61.244 3.809.244h2.417q3.809 0 5.347-.562t2.808-1.978q1.27-1.44 2.539-4.517zm32.8-23.95v.903q-1.758.317-2.661 1.123-1.294 1.196-2.295 3.662l-11.548 28.174h-.903l-12.402-28.54q-.952-2.197-1.343-2.686-.61-.757-1.514-1.172-.879-.439-2.393-.562v-.903h13.525v.903q-2.295.22-2.978.781-.684.562-.684 1.44 0 1.221 1.123 3.809l8.423 19.409 7.813-19.165q1.147-2.832 1.147-3.931 0-.708-.708-1.343-.708-.659-2.393-.928l-.415-.073v-.903h10.205zm16.1 32.2v.903h-14.185v-.903h1.172q2.051 0 2.978-1.196.586-.781.586-3.76v-21.387q0-2.515-.317-3.32-.244-.61-1.001-1.05-1.074-.586-2.246-.586h-1.172v-.903h14.185v.903h-1.196q-2.026 0-2.954 1.196-.61.781-.61 3.76v21.387q0 2.515.317 3.32.244.61 1.025 1.05 1.05.586 2.222.586h1.196zm2.1.9v-.903h1.245q2.1 0 2.979-1.343.537-.806.537-3.613v-21.387q0-3.101-.684-3.882-.952-1.074-2.832-1.074h-1.245v-.903h13.477q7.422 0 11.279 1.685 3.882 1.685 6.226 5.615 2.368 3.931 2.368 9.082 0 6.909-4.199 11.548-4.712 5.176-14.355 5.176h-14.795zm9.448-2.393q3.101.684 5.2.684 5.664 0 9.399-3.979 3.735-3.979 3.735-10.791 0-6.86-3.735-10.815-3.735-3.955-9.595-3.955-2.197 0-5.005.708v28.149zm44.152-31.467q6.445 0 11.157 4.907 4.736 4.883 4.736 12.207 0 7.544-4.761 12.524-4.761 4.981-11.523 4.981-6.836 0-11.499-4.858-4.639-4.858-4.639-12.573 0-7.886 5.371-12.866 4.663-4.321 11.157-4.321zm-.464 1.782q-4.443 0-7.129 3.296-3.345 4.102-3.345 12.012 0 8.105 3.467 12.476 2.661 3.32 7.031 3.32 4.663 0 7.691-3.638 3.052-3.638 3.052-11.475 0-8.496-3.345-12.671-2.686-3.32-7.422-3.32z"/></svg>