<svg xmlns="http://www.w3.org/2000/svg" height="93.813mm" width="278.92mm" viewBox="0 0 988.29552 332.40925"><path d="M256.04 308.21h-7.117v-2.527h7.117v2.527zm10.97 4.48h-9.741v-.269q4.48-5.335 5.432-7.178.964-1.843.964-3.601 0-1.282-.793-2.124-.793-.854-1.941-.854-1.88 0-2.917 1.88l-.452-.159q.659-2.344 2.002-3.467t3.101-1.123q1.257 0 2.295.586t1.623 1.611q.586 1.013.586 1.904 0 1.623-.903 3.296-1.233 2.258-5.383 6.299h3.577q1.318 0 1.709-.11.403-.11.659-.366.256-.269.671-1.111h.439l-.928 4.785zm13.74-8.28q0 2.478-.696 4.627-.415 1.318-1.123 2.161-.696.842-1.587 1.343-.891.488-1.941.488-1.196 0-2.161-.61-.964-.61-1.709-1.746-.537-.83-.94-2.209-.525-1.868-.525-3.857 0-2.698.757-4.956.623-1.868 1.892-2.856 1.27-1.001 2.686-1.001 1.44 0 2.686.989 1.257.977 1.843 2.637.818 2.283.818 4.993zm-3.76-.024q0-4.346-.049-5.066-.122-1.697-.586-2.295-.305-.391-.989-.391-.525 0-.83.293-.452.427-.61 1.514-.159 1.074-.159 7.532 0 3.516.244 4.712.183.867.525 1.16.342.293.903.293.61 0 .916-.391.513-.684.586-2.112l.049-5.249zm90.02 8.304h-9.741v-.269q4.48-5.335 5.432-7.178.964-1.843.964-3.601 0-1.282-.793-2.124-.793-.854-1.941-.854-1.88 0-2.917 1.88l-.452-.159q.659-2.344 2.002-3.467t3.101-1.123q1.257 0 2.295.586t1.623 1.611q.586 1.013.586 1.904 0 1.623-.903 3.296-1.233 2.258-5.383 6.299h3.577q1.318 0 1.709-.11.403-.11.659-.366.256-.269.671-1.111h.439l-.928 4.785zm13.74-8.28q0 2.478-.696 4.627-.415 1.318-1.123 2.161-.696.842-1.587 1.343-.891.488-1.941.488-1.196 0-2.161-.61-.964-.61-1.709-1.746-.537-.83-.94-2.209-.525-1.868-.525-3.857 0-2.698.757-4.956.623-1.868 1.892-2.856 1.27-1.001 2.686-1.001 1.44 0 2.686.989 1.257.977 1.843 2.637.818 2.283.818 4.993zm-3.76-.024q0-4.346-.049-5.066-.122-1.697-.586-2.295-.305-.391-.989-.391-.525 0-.83.293-.452.427-.61 1.514-.159 1.074-.159 7.532 0 3.516.244 4.712.183.867.525 1.16.342.293.903.293.61 0 .916-.391.513-.684.586-2.112l.049-5.249zm12.4 3.824h-7.117v-2.527h7.117v2.527zm4.32-3.82v-.427q1.392-.403 1.929-.745.537-.354.928-1.062.391-.72.391-1.453 0-1.013-.745-1.733-.732-.732-1.831-.732-1.709 0-2.905 1.807l-.452-.159q.879-2.039 2.246-3.064 1.379-1.025 3.064-1.025 1.721 0 2.832 1.05 1.123 1.05 1.123 2.454 0 .916-.525 1.77-.513.842-1.624 1.489 1.428.696 2.173 1.721.757 1.013.757 2.551 0 2.588-1.88 4.407-1.868 1.807-5.017 1.807-2.1 0-3.064-.696-.696-.488-.696-1.257 0-.562.403-.952.403-.403.928-.403.403 0 .757.171.195.098 1.379 1.074 1.196.964 2.234.964.903 0 1.55-.708.647-.72.647-1.819 0-1.672-1.172-3.076-1.172-1.416-3.43-1.953zm20.4.02q0 2.478-.696 4.627-.415 1.318-1.123 2.161-.696.842-1.587 1.343-.891.488-1.941.488-1.196 0-2.161-.61-.964-.61-1.709-1.746-.537-.83-.94-2.209-.525-1.868-.525-3.857 0-2.698.757-4.956.623-1.868 1.892-2.856 1.27-1.001 2.686-1.001 1.44 0 2.686.989 1.257.977 1.843 2.637.818 2.283.818 4.993zm-3.76-.024q0-4.346-.049-5.066-.122-1.697-.586-2.295-.305-.391-.989-.391-.525 0-.83.293-.452.427-.61 1.514-.159 1.074-.159 7.532 0 3.516.244 4.712.183.867.525 1.16.342.293.903.293.61 0 .915-.391.513-.684.586-2.112l.049-5.249zm83.36.004v-.427q1.392-.403 1.929-.745.537-.354.928-1.062.391-.72.391-1.453 0-1.013-.745-1.733-.732-.732-1.831-.732-1.709 0-2.905 1.807l-.452-.159q.879-2.039 2.246-3.064 1.379-1.025 3.064-1.025 1.721 0 2.832 1.05 1.123 1.05 1.123 2.454 0 .916-.525 1.77-.513.842-1.624 1.489 1.428.696 2.173 1.721.757 1.013.757 2.551 0 2.588-1.88 4.407-1.868 1.807-5.017 1.807-2.1 0-3.064-.696-.696-.488-.696-1.257 0-.562.403-.952.403-.403.928-.403.403 0 .757.171.195.098 1.379 1.074 1.196.964 2.234.964.903 0 1.55-.708.647-.72.647-1.819 0-1.672-1.172-3.076-1.172-1.416-3.43-1.953zm20.4.02q0 2.478-.696 4.627-.415 1.318-1.123 2.161-.696.842-1.587 1.343-.891.488-1.941.488-1.196 0-2.161-.61-.964-.61-1.709-1.746-.537-.83-.94-2.209-.525-1.868-.525-3.857 0-2.698.757-4.956.623-1.868 1.892-2.856 1.27-1.001 2.686-1.001 1.44 0 2.686.989 1.257.977 1.843 2.637.818 2.283.818 4.993zm-3.76-.024q0-4.346-.049-5.066-.122-1.697-.586-2.295-.305-.391-.989-.391-.525 0-.83.293-.452.427-.61 1.514-.159 1.074-.159 7.532 0 3.516.244 4.712.183.867.525 1.16.342.293.903.293.61 0 .915-.391.513-.684.586-2.112l.049-5.249zm12.36 3.824h-7.117v-2.527h7.117v2.527zm1.3-1.76l7.861-10.657h1.489v10.657h1.514v2.527h-1.514v3.711h-3.357v-3.711h-5.994v-2.527zm1.184 0h4.81v-6.531l-4.81 6.531zm22.216-2.04q0 2.478-.696 4.627-.415 1.318-1.123 2.161-.696.842-1.587 1.343-.891.488-1.941.488-1.196 0-2.161-.61-.964-.61-1.709-1.746-.537-.83-.94-2.209-.525-1.868-.525-3.857 0-2.698.757-4.956.623-1.868 1.892-2.856 1.27-1.001 2.686-1.001 1.44 0 2.686.989 1.257.977 1.843 2.637.818 2.283.818 4.993zm-3.76-.024q0-4.346-.049-5.066-.122-1.697-.586-2.295-.305-.391-.989-.391-.525 0-.83.293-.452.427-.61 1.514-.159 1.074-.159 7.532 0 3.516.244 4.712.183.867.525 1.16.342.293.903.293.61 0 .915-.391.513-.684.586-2.112l.049-5.249zm74.06 2.064l7.861-10.657h1.489v10.657h1.514v2.527h-1.514v3.711h-3.357v-3.711h-5.994v-2.527zm1.184 0h4.81v-6.531l-4.81 6.531zm22.316-2.04q0 2.478-.696 4.627-.415 1.318-1.123 2.161-.696.842-1.587 1.343-.891.488-1.941.488-1.196 0-2.161-.61-.964-.61-1.709-1.746-.537-.83-.94-2.209-.525-1.868-.525-3.857 0-2.698.757-4.956.623-1.868 1.892-2.856 1.27-1.001 2.686-1.001 1.44 0 2.686.989 1.257.977 1.843 2.637.818 2.283.818 4.993zm-3.76-.024q0-4.346-.049-5.066-.122-1.697-.586-2.295-.305-.391-.989-.391-.525 0-.83.293-.452.427-.61 1.514-.159 1.074-.159 7.532 0 3.516.244 4.712.183.867.525 1.16.342.293.903.293.61 0 .915-.391.513-.684.586-2.112l.049-5.249zm12.36 3.824h-7.117v-2.527h7.117v2.527zm4.5-12.07h7.751l-1.233 3.149h-6.519l-.623 1.648q4.211.159 6.482 2.1 1.868 1.599 1.868 3.979 0 1.526-.867 2.991-.867 1.453-2.441 2.246-1.575.781-3.455.781-2.026 0-3.113-.757-.757-.537-.757-1.221 0-.525.391-.928.403-.403.928-.403.476 0 .964.195t1.672 1.025q.745.513 1.282.708.378.146.855.146 1.001 0 1.697-.732.708-.732.708-1.758 0-2.148-2.148-3.491t-5.42-1.343l-.989.012 2.966-8.35zm20.2 8.27q0 2.478-.696 4.627-.415 1.318-1.123 2.161-.696.842-1.587 1.343-.891.488-1.941.488-1.196 0-2.161-.61-.964-.61-1.709-1.746-.537-.83-.94-2.209-.525-1.868-.525-3.857 0-2.698.757-4.956.623-1.868 1.892-2.856 1.27-1.001 2.686-1.001 1.44 0 2.686.989 1.257.977 1.843 2.637.818 2.283.818 4.993zm-3.76-.024q0-4.346-.049-5.066-.122-1.697-.586-2.295-.305-.391-.989-.391-.525 0-.83.293-.452.427-.61 1.514-.159 1.074-.159 7.532 0 3.516.244 4.712.183.867.525 1.16.342.293.903.293.61 0 .915-.391.513-.684.586-2.112l.049-5.249zm83.56-8.246h7.751l-1.233 3.149h-6.519l-.623 1.648q4.211.159 6.482 2.1 1.868 1.599 1.868 3.979 0 1.526-.867 2.991-.867 1.453-2.441 2.246-1.575.781-3.455.781-2.026 0-3.113-.757-.757-.537-.757-1.221 0-.525.391-.928.403-.403.928-.403.476 0 .964.195t1.672 1.025q.745.513 1.282.708.378.146.855.146 1.001 0 1.697-.732.708-.732.708-1.758 0-2.148-2.148-3.491t-5.42-1.343l-.989.012 2.966-8.35zm20.2 8.27q0 2.478-.696 4.627-.415 1.318-1.123 2.161-.696.842-1.587 1.343-.891.488-1.941.488-1.196 0-2.161-.61-.964-.61-1.709-1.746-.537-.83-.94-2.209-.525-1.868-.525-3.857 0-2.698.757-4.956.623-1.868 1.892-2.856 1.27-1.001 2.686-1.001 1.44 0 2.686.989 1.257.977 1.843 2.637.818 2.283.818 4.993zm-3.76-.024q0-4.346-.049-5.066-.122-1.697-.586-2.295-.305-.391-.989-.391-.525 0-.83.293-.452.427-.61 1.514-.159 1.074-.159 7.532 0 3.516.244 4.712.183.867.525 1.16.342.293.903.293.61 0 .915-.391.513-.684.586-2.112l.049-5.249zm12.46 3.824h-7.117v-2.527h7.117v2.527zm12.3-12.41v.342q-2.209.562-3.552 1.453-1.331.879-2.112 2.148-.769 1.257-1.196 3.125.537-.366.891-.476.793-.244 1.599-.244 1.855 0 3.088 1.355 1.245 1.343 1.245 3.674 0 1.636-.671 3.003t-1.904 2.112q-1.233.745-2.637.745-1.526 0-2.82-.83-1.294-.842-2.026-2.454-.72-1.611-.72-3.503 0-2.783 1.331-5.176 1.343-2.405 3.796-3.821 2.466-1.428 5.688-1.453zm-7.019 8.057q-.098 1.685-.098 2.466 0 1.685.317 3.259.33 1.575.891 2.209.403.452.952.452.561 0 1.001-.647.439-.659.439-2.661 0-3.369-.818-4.651-.525-.83-1.416-.83-.488 0-1.27.403zm19.419.553q0 2.478-.696 4.627-.415 1.318-1.123 2.161-.696.842-1.587 1.343-.891.488-1.941.488-1.196 0-2.161-.61-.964-.61-1.709-1.746-.537-.83-.94-2.209-.525-1.868-.525-3.857 0-2.698.757-4.956.623-1.868 1.892-2.856 1.27-1.001 2.686-1.001 1.44 0 2.686.989 1.257.977 1.843 2.637.818 2.283.818 4.993zm-3.76-.024q0-4.346-.049-5.066-.122-1.697-.586-2.295-.305-.391-.989-.391-.525 0-.83.293-.452.427-.61 1.514-.159 1.074-.159 7.532 0 3.516.244 4.712.183.867.525 1.16.342.293.903.293.61 0 .915-.391.513-.684.586-2.112l.049-5.249zm103.86-8.586v.342q-2.209.562-3.552 1.453-1.331.879-2.112 2.148-.769 1.257-1.196 3.125.537-.366.891-.476.793-.244 1.599-.244 1.855 0 3.088 1.355 1.245 1.343 1.245 3.674 0 1.636-.671 3.003t-1.904 2.112q-1.233.745-2.637.745-1.526 0-2.82-.83-1.294-.842-2.026-2.454-.72-1.611-.72-3.503 0-2.783 1.331-5.176 1.343-2.405 3.796-3.821 2.466-1.428 5.688-1.453zm-7.019 8.057q-.098 1.685-.098 2.466 0 1.685.317 3.259.33 1.575.891 2.209.403.452.952.452.561 0 1.001-.647.439-.659.439-2.661 0-3.369-.818-4.651-.525-.83-1.416-.83-.488 0-1.27.403zm19.419.553q0 2.478-.696 4.627-.415 1.318-1.123 2.161-.696.842-1.587 1.343-.891.488-1.941.488-1.196 0-2.161-.61-.964-.61-1.709-1.746-.537-.83-.94-2.209-.525-1.868-.525-3.857 0-2.698.757-4.956.623-1.868 1.892-2.856 1.27-1.001 2.686-1.001 1.44 0 2.686.989 1.257.977 1.843 2.637.818 2.283.818 4.993zm-3.76-.024q0-4.346-.049-5.066-.122-1.697-.586-2.295-.305-.391-.989-.391-.525 0-.83.293-.452.427-.61 1.514-.159 1.074-.159 7.532 0 3.516.244 4.712.183.867.525 1.16.342.293.903.293.61 0 .915-.391.513-.684.586-2.112l.049-5.249zm12.36 3.824h-7.117v-2.527h7.117v2.527zm-899.1-279.35q2.827.659 3.97 1.597 1.641 1.333 1.641 3.457 0 2.241-1.802 3.706-2.212 1.772-6.431 1.772h-10.093v-.542q1.377 0 1.86-.249.498-.264.688-.674.205-.41.205-2.022v-12.891q0-1.611-.205-2.022-.19-.425-.688-.674-.498-.249-1.86-.249v-.542h9.521q3.413 0 4.834.615 1.421.601 2.241 1.816.82 1.201.82 2.563 0 1.435-1.04 2.563-1.04 1.113-3.662 1.772zm-5.332-.396q2.08 0 3.062-.469.996-.469 1.523-1.318.527-.85.527-2.168t-.527-2.153q-.513-.85-1.48-1.289-.967-.439-3.106-.425v7.822zm0 1.143v6.372l-.015.732q0 .791.396 1.201.41.396 1.201.396 1.172 0 2.153-.513.996-.527 1.523-1.509.527-.996.527-2.212 0-1.392-.645-2.49-.645-1.113-1.772-1.553-1.128-.439-3.369-.425zm26.272-3.907v10.723q0 1.567.293 1.963.293.381 1.187.483v.527h-5.581v-1.831q-.981 1.172-1.963 1.714-.981.527-2.197.527-1.157 0-2.065-.703-.894-.718-1.201-1.67-.308-.952-.308-3.325v-5.435q0-1.553-.293-1.934-.278-.381-1.187-.498v-.542h5.581v9.36q0 1.465.132 1.89.146.425.439.645.308.22.703.22.527 0 .952-.278.586-.381 1.406-1.538v-7.324q0-1.553-.293-1.934-.278-.381-1.187-.498v-.542h5.581zm15.07 6.36h-7.515q.132 2.725 1.45 4.307 1.011 1.216 2.432 1.216.879 0 1.597-.483.718-.498 1.538-1.772l.498.322q-1.113 2.271-2.461 3.223-1.348.938-3.12.938-3.047 0-4.614-2.344-1.26-1.89-1.26-4.688 0-3.428 1.846-5.449 1.86-2.036 4.351-2.036 2.08 0 3.603 1.714 1.538 1.699 1.655 5.054zm-3.603-.981q0-2.358-.264-3.237-.249-.879-.791-1.333-.308-.264-.82-.264-.762 0-1.245.747-.864 1.304-.864 3.574v.513h3.984zm10.893-5.379v1.772q1.055-1.143 2.022-1.655.967-.527 2.08-.527 1.333 0 2.212.747.879.732 1.172 1.831.234.835.234 3.208v5.332q0 1.582.278 1.978.293.381 1.201.483v.527h-6.929v-.527q.776-.103 1.113-.645.234-.366.234-1.816v-6.094q0-1.685-.132-2.124-.132-.439-.454-.674-.308-.249-.688-.249-1.26 0-2.344 1.802v7.339q0 1.538.278 1.948.293.41 1.069.513v.527h-6.929v-.527q.864-.088 1.23-.557.249-.322.249-1.904v-7.734q0-1.553-.293-1.934-.278-.381-1.187-.498v-.542h5.581zm18.67 11.68q-2.505 2.212-4.497 2.212-1.172 0-1.948-.762-.776-.776-.776-1.934 0-1.567 1.348-2.813 1.348-1.26 5.874-3.34v-1.377q0-1.553-.176-1.948-.161-.41-.63-.703-.469-.308-1.055-.308-.952 0-1.567.425-.381.264-.381.615 0 .308.41.762.557.63.557 1.216 0 .718-.542 1.23-.527.498-1.392.498-.923 0-1.553-.557-.615-.557-.615-1.304 0-1.055.835-2.007.835-.967 2.329-1.48 1.494-.513 3.106-.513 1.948 0 3.076.835 1.143.82 1.48 1.787.205.615.205 2.827v5.317q0 .938.073 1.187.073.234.22.352.146.117.337.117.381 0 .776-.542l.439.352q-.732 1.084-1.523 1.582-.776.483-1.772.483-1.172 0-1.831-.542-.659-.557-.806-1.67zm0-1.069v-4.585q-1.772 1.04-2.637 2.227-.571.791-.571 1.597 0 .674.483 1.187.366.396 1.025.396.732 0 1.699-.82zm-67.84 26.479q1.787 0 3.325.923t2.329 2.622q.806 1.699.806 3.721 0 2.915-1.48 4.878-1.787 2.373-4.936 2.373-3.091 0-4.761-2.168t-1.67-5.024q0-2.944 1.699-5.127 1.714-2.197 4.688-2.197zm.059 1.04q-.747 0-1.289.571-.527.557-.703 2.227-.161 1.655-.161 4.614 0 1.567.205 2.93.161 1.04.688 1.582.527.542 1.201.542.659 0 1.099-.366.571-.498.762-1.392.293-1.392.293-5.625 0-2.49-.278-3.413-.278-.938-.82-1.362-.381-.308-.996-.308zm14.161-.63v3.106q1.362-2.124 2.388-2.813 1.025-.703 1.978-.703.82 0 1.304.513.498.498.498 1.421 0 .981-.483 1.523-.469.542-1.143.542-.776 0-1.348-.498-.571-.498-.674-.557-.146-.088-.337-.088-.425 0-.806.322-.601.498-.908 1.421-.469 1.421-.469 3.135v3.149l.015.82q0 .835.103 1.069.176.396.513.586.352.176 1.172.22v.527h-7.397v-.527q.894-.073 1.201-.483.322-.425.322-2.212v-7.573q0-1.172-.117-1.494-.146-.41-.425-.601t-.981-.264v-.542h5.596zm10.92-6.64q.952 0 1.611.674.659.659.659 1.597t-.674 1.597q-.659.659-1.597.659t-1.597-.659q-.659-.659-.659-1.597t.659-1.597q.659-.674 1.597-.674zm2.051 6.636v10.854q0 1.45.337 1.86.337.396 1.318.454v.527h-7.397v-.527q.908-.029 1.348-.527.293-.337.293-1.787v-7.998q0-1.45-.337-1.846-.337-.41-1.304-.469v-.542h5.742zm14.569 6.364h-7.515q.132 2.725 1.45 4.307 1.011 1.216 2.432 1.216.879 0 1.597-.483.718-.498 1.538-1.772l.498.322q-1.113 2.271-2.461 3.223-1.348.938-3.12.938-3.047 0-4.614-2.344-1.26-1.89-1.26-4.688 0-3.428 1.846-5.449 1.86-2.036 4.351-2.036 2.08 0 3.603 1.714 1.538 1.699 1.655 5.054zm-3.603-.981q0-2.358-.264-3.237-.249-.879-.791-1.333-.308-.264-.82-.264-.762 0-1.245.747-.864 1.304-.864 3.574v.513h3.984zm10.903-5.379v1.772q1.055-1.143 2.022-1.655.967-.527 2.08-.527 1.333 0 2.212.747.879.732 1.172 1.831.234.835.234 3.208v5.332q0 1.582.278 1.978.293.381 1.201.483v.527h-6.929v-.527q.776-.103 1.113-.645.234-.366.234-1.816v-6.094q0-1.685-.132-2.124-.132-.439-.454-.674-.308-.249-.688-.249-1.26 0-2.344 1.802v7.339q0 1.538.278 1.948.293.41 1.069.513v.527h-6.929v-.527q.864-.088 1.23-.557.249-.322.249-1.904v-7.734q0-1.553-.293-1.934-.278-.381-1.187-.498v-.542h5.581zm16.53-5.01v5.01h3.252v1.45h-3.252v8.452q0 1.187.103 1.538.117.337.396.557.278.205.513.205.952 0 1.802-1.45l.439.322q-1.187 2.813-3.853 2.813-1.304 0-2.212-.718-.894-.732-1.143-1.626-.146-.498-.146-2.695v-7.397h-1.787v-.513q1.846-1.304 3.135-2.739 1.304-1.435 2.271-3.208h.483zm12.15 16.69q-2.505 2.212-4.497 2.212-1.172 0-1.948-.762-.776-.776-.776-1.934 0-1.567 1.348-2.813 1.348-1.26 5.874-3.34v-1.377q0-1.553-.176-1.948-.161-.41-.63-.703-.469-.308-1.055-.308-.952 0-1.567.425-.381.264-.381.615 0 .308.41.762.557.63.557 1.216 0 .718-.542 1.23-.527.498-1.392.498-.923 0-1.553-.557-.615-.557-.615-1.304 0-1.055.835-2.007.835-.967 2.329-1.48 1.494-.513 3.106-.513 1.948 0 3.076.835 1.143.82 1.48 1.787.205.615.205 2.827v5.317q0 .938.073 1.187.073.234.22.352.146.117.337.117.381 0 .776-.542l.439.352q-.732 1.084-1.523 1.582-.776.483-1.772.483-1.172 0-1.831-.542-.659-.557-.806-1.67zm0-1.069v-4.585q-1.772 1.04-2.637 2.227-.571.791-.571 1.597 0 .674.483 1.187.366.396 1.025.396.732 0 1.699-.82zm18.62-.441l.454.352q-.967 1.816-2.417 2.71-1.436.879-3.062.879-2.739 0-4.38-2.065t-1.641-4.966q0-2.798 1.494-4.922 1.802-2.563 4.966-2.563 2.124 0 3.369 1.069 1.26 1.069 1.26 2.388 0 .835-.513 1.333-.498.498-1.318.498-.864 0-1.436-.571-.557-.571-.688-2.036-.088-.923-.425-1.289-.337-.366-.791-.366-.703 0-1.201.747-.762 1.128-.762 3.457 0 1.934.615 3.706.615 1.758 1.685 2.622.806.63 1.904.63.718 0 1.362-.337.645-.337 1.523-1.274zm5.42-16.81q.952 0 1.611.674.659.659.659 1.597t-.674 1.597q-.659.659-1.597.659t-1.597-.659q-.659-.659-.659-1.597t.659-1.597q.659-.674 1.597-.674zm2.051 6.636v10.854q0 1.45.337 1.86.337.396 1.318.454v.527h-7.397v-.527q.908-.029 1.348-.527.293-.337.293-1.787v-7.998q0-1.45-.337-1.846-.337-.41-1.304-.469v-.542h5.742zm9.429-.406q1.787 0 3.325.923t2.329 2.622q.806 1.699.806 3.721 0 2.915-1.48 4.878-1.787 2.373-4.936 2.373-3.091 0-4.761-2.168t-1.67-5.024q0-2.944 1.699-5.127 1.714-2.197 4.688-2.197zm.059 1.04q-.747 0-1.289.571-.527.557-.703 2.227-.161 1.655-.161 4.614 0 1.567.205 2.93.161 1.04.688 1.582.527.542 1.201.542.659 0 1.099-.366.571-.498.762-1.392.293-1.392.293-5.625 0-2.49-.278-3.413-.278-.938-.82-1.362-.381-.308-.996-.308zm4.409-7.471l-4.849 5.083h-1.26l1.699-5.083h4.409zm9.672 6.841v1.772q1.055-1.143 2.022-1.655.967-.527 2.08-.527 1.333 0 2.212.747.879.732 1.172 1.831.234.835.234 3.208v5.332q0 1.582.278 1.978.293.381 1.201.483v.527h-6.929v-.527q.776-.103 1.113-.645.234-.366.234-1.816v-6.094q0-1.685-.132-2.124-.132-.439-.454-.674-.308-.249-.688-.249-1.26 0-2.344 1.802v7.339q0 1.538.278 1.948.293.41 1.069.513v.527h-6.929v-.527q.864-.088 1.23-.557.249-.322.249-1.904v-7.734q0-1.553-.293-1.934-.278-.381-1.187-.498v-.542h5.581zm-126.3 49.18q-2.505 2.212-4.497 2.212-1.172 0-1.948-.762-.776-.776-.776-1.934 0-1.567 1.348-2.813 1.348-1.26 5.874-3.34v-1.377q0-1.553-.176-1.948-.161-.41-.63-.703-.469-.308-1.055-.308-.952 0-1.567.425-.381.264-.381.615 0 .308.41.762.557.63.557 1.216 0 .718-.542 1.23-.527.498-1.392.498-.923 0-1.553-.557-.615-.557-.615-1.304 0-1.055.835-2.007.835-.967 2.329-1.48 1.494-.513 3.106-.513 1.948 0 3.076.835 1.143.82 1.48 1.787.205.615.205 2.827v5.317q0 .938.073 1.187.073.234.22.352.146.117.337.117.381 0 .776-.542l.439.352q-.732 1.084-1.523 1.582-.776.483-1.772.483-1.172 0-1.831-.542-.659-.557-.806-1.67zm0-1.069v-4.585q-1.772 1.04-2.637 2.227-.571.791-.571 1.597 0 .674.483 1.187.366.396 1.025.396.732 0 1.699-.82zm12.8-16.781v17.021q0 1.45.337 1.86.337.396 1.318.454v.527h-7.397v-.527q.908-.029 1.348-.527.293-.337.293-1.787v-14.18q0-1.436-.337-1.831-.337-.41-1.304-.469v-.542h5.742zm19.12 5.79l.22 4.673h-.498q-.894-2.08-1.86-2.842-.952-.762-1.904-.762-.601 0-1.025.41-.425.396-.425.923 0 .396.293.762.469.601 2.622 2.065 2.153 1.45 2.827 2.476.688 1.011.688 2.271 0 1.143-.571 2.241t-1.611 1.685q-1.04.586-2.3.586-.981 0-2.622-.615-.439-.161-.601-.161-.483 0-.806.732h-.483l-.234-4.922h.498q.659 1.934 1.802 2.9 1.157.967 2.183.967.703 0 1.143-.425.454-.439.454-1.055 0-.703-.439-1.216t-1.963-1.553q-2.241-1.553-2.9-2.373-.967-1.201-.967-2.651 0-1.582 1.084-2.856 1.099-1.289 3.164-1.289 1.113 0 2.153.542.396.22.645.22.264 0 .425-.103.161-.117.513-.63h.498zm14.6 6.74h-7.515q.132 2.725 1.45 4.307 1.011 1.216 2.432 1.216.879 0 1.597-.483.718-.498 1.538-1.772l.498.322q-1.113 2.271-2.461 3.223-1.348.938-3.12.938-3.047 0-4.614-2.344-1.26-1.89-1.26-4.688 0-3.428 1.846-5.449 1.86-2.036 4.351-2.036 2.08 0 3.603 1.714 1.538 1.699 1.655 5.054zm-3.603-.981q0-2.358-.264-3.237-.249-.879-.791-1.333-.308-.264-.82-.264-.762 0-1.245.747-.864 1.304-.864 3.574v.513h3.984zm10.903-5.379v1.772q1.055-1.143 2.022-1.655.967-.527 2.08-.527 1.333 0 2.212.747.879.732 1.172 1.831.234.835.234 3.208v5.332q0 1.582.278 1.978.293.381 1.201.483v.527h-6.929v-.527q.776-.103 1.113-.645.234-.366.234-1.816v-6.094q0-1.685-.132-2.124-.132-.439-.454-.674-.308-.249-.688-.249-1.26 0-2.344 1.802v7.339q0 1.538.278 1.948.293.41 1.069.513v.527h-6.929v-.527q.864-.088 1.23-.557.249-.322.249-1.904v-7.734q0-1.553-.293-1.934-.278-.381-1.187-.498v-.542h5.581zm16.53-5.01v5.01h3.252v1.45h-3.252v8.452q0 1.187.103 1.538.117.337.396.557.278.205.513.205.952 0 1.802-1.45l.439.322q-1.187 2.813-3.853 2.813-1.304 0-2.212-.718-.894-.732-1.143-1.626-.146-.498-.146-2.695v-7.397h-1.787v-.513q1.846-1.304 3.135-2.739 1.304-1.435 2.271-3.208h.483zm7.89-1.63q.952 0 1.611.674.659.659.659 1.597t-.674 1.597q-.659.659-1.597.659t-1.597-.659q-.659-.659-.659-1.597t.659-1.597q.659-.674 1.597-.674zm2.051 6.636v10.854q0 1.45.337 1.86.337.396 1.318.454v.527h-7.397v-.527q.908-.029 1.348-.527.293-.337.293-1.787v-7.998q0-1.45-.337-1.846-.337-.41-1.304-.469v-.542h5.742zm16.279-6.166v15.762q0 1.597.088 1.89.117.483.439.718.337.234 1.157.293v.483l-5.786 1.128v-2.168q-1.04 1.26-1.86 1.714-.806.454-1.831.454-2.622 0-4.146-2.344-1.23-1.904-1.23-4.673 0-2.212.762-3.955.762-1.758 2.08-2.651 1.333-.894 2.856-.894.981 0 1.743.381.762.381 1.626 1.333v-4.131q0-1.567-.132-1.89-.176-.425-.527-.63-.352-.205-1.318-.205v-.615h6.079zm-4.102 9.287q-1.084-2.08-2.651-2.08-.542 0-.894.293-.542.454-.894 1.597-.337 1.143-.337 3.501 0 2.593.381 3.838t1.04 1.802q.337.278.923.278 1.289 0 2.432-2.022v-7.207zm13.952-3.527q1.787 0 3.325.923t2.329 2.622q.806 1.699.806 3.721 0 2.915-1.48 4.878-1.787 2.373-4.936 2.373-3.091 0-4.761-2.168t-1.67-5.024q0-2.944 1.699-5.127 1.714-2.197 4.688-2.197zm.059 1.04q-.747 0-1.289.571-.527.557-.703 2.227-.161 1.655-.161 4.614 0 1.567.205 2.93.161 1.04.688 1.582.527.542 1.201.542.659 0 1.099-.366.571-.498.762-1.392.293-1.392.293-5.625 0-2.49-.278-3.413-.278-.938-.82-1.362-.381-.308-.996-.308zm-107.579 88.2l9.8 12.319v-8.54q0-1.787-.513-2.417-.703-.85-2.358-.82v-.542h6.563v.542q-1.26.161-1.699.425-.425.249-.674.835-.234.571-.234 1.978v16.538h-.498l-13.433-16.538v12.627q0 1.714.776 2.314.791.601 1.802.601h.469v.542h-7.046v-.542q1.641-.015 2.285-.674.645-.659.645-2.241v-14.019l-.425-.527q-.63-.791-1.113-1.04t-1.392-.278v-.542h7.046zm18.51-.47q.952 0 1.611.674.659.659.659 1.597t-.674 1.597q-.659.659-1.597.659t-1.597-.659q-.659-.659-.659-1.597t.659-1.597q.659-.674 1.597-.674zm2.051 6.636v10.854q0 1.45.337 1.86.337.396 1.318.454v.527h-7.397v-.527q.908-.029 1.348-.527.293-.337.293-1.787v-7.998q0-1.45-.337-1.846-.337-.41-1.304-.469v-.542h5.742zm8.569.004v1.772q1.055-1.143 2.022-1.655.967-.527 2.08-.527 1.333 0 2.212.747.879.732 1.172 1.831.234.835.234 3.208v5.332q0 1.582.278 1.978.293.381 1.201.483v.527h-6.929v-.527q.776-.103 1.113-.645.234-.366.234-1.816v-6.094q0-1.685-.132-2.124-.132-.439-.454-.674-.308-.249-.688-.249-1.26 0-2.344 1.802v7.339q0 1.538.278 1.948.293.41 1.069.513v.527h-6.929v-.527q.864-.088 1.23-.557.249-.322.249-1.904v-7.734q0-1.553-.293-1.934-.278-.381-1.187-.498v-.542h5.581zm19.9.16h4.614v1.611h-2.622q.718.718.996 1.304.352.791.352 1.655 0 1.465-.82 2.549-.806 1.069-2.212 1.685-1.392.601-2.476.601-.088 0-1.758-.073-.659 0-1.113.439-.439.425-.439 1.025 0 .527.396.864.41.337 1.318.337l2.534-.029q3.076 0 4.233.674 1.655.938 1.655 2.886 0 1.245-.762 2.256-.762 1.025-2.007 1.509-1.89.718-4.351.718-1.846 0-3.369-.366-1.523-.352-2.183-.996-.659-.63-.659-1.333 0-.674.498-1.216.513-.527 1.89-.894-1.904-.938-1.904-2.607 0-1.011.776-1.963.776-.952 2.461-1.655-1.963-.718-2.842-1.89t-.879-2.71q0-2.007 1.641-3.472 1.641-1.48 4.219-1.48 1.362 0 2.813.571zm-2.534.337q-.85 0-1.436.864-.586.85-.586 3.545 0 2.183.571 3.003.586.806 1.377.806.879 0 1.465-.806.586-.806.586-3.135 0-2.622-.659-3.574-.469-.703-1.318-.703zm-.864 15.22q-1.494 0-1.978.249-.835.454-.835 1.23 0 .747.864 1.348.864.615 3.252.615 2.036 0 3.193-.542 1.172-.542 1.172-1.523 0-.366-.22-.615-.396-.439-1.201-.601-.791-.161-4.248-.161zm22.838-15.717v10.723q0 1.567.293 1.963.293.381 1.187.483v.527h-5.581v-1.831q-.981 1.172-1.963 1.714-.981.527-2.197.527-1.157 0-2.065-.703-.894-.718-1.201-1.67-.308-.952-.308-3.325v-5.435q0-1.553-.293-1.934-.278-.381-1.187-.498v-.542h5.581v9.36q0 1.465.132 1.89.146.425.439.645.308.22.703.22.527 0 .952-.278.586-.381 1.406-1.538v-7.324q0-1.553-.293-1.934-.278-.381-1.187-.498v-.542h5.581zm9.06 0v1.772q1.055-1.143 2.022-1.655.967-.527 2.08-.527 1.333 0 2.212.747.879.732 1.172 1.831.234.835.234 3.208v5.332q0 1.582.278 1.978.293.381 1.201.483v.527h-6.929v-.527q.776-.103 1.113-.645.234-.366.234-1.816v-6.094q0-1.685-.132-2.124-.132-.439-.454-.674-.308-.249-.688-.249-1.26 0-2.344 1.802v7.339q0 1.538.278 1.948.293.41 1.069.513v.527h-6.929v-.527q.864-.088 1.23-.557.249-.322.249-1.904v-7.734q0-1.553-.293-1.934-.278-.381-1.187-.498v-.542h5.581zm18.67 11.68q-2.505 2.212-4.497 2.212-1.172 0-1.948-.762-.776-.776-.776-1.934 0-1.567 1.348-2.813 1.348-1.26 5.874-3.34v-1.377q0-1.553-.176-1.948-.161-.41-.63-.703-.469-.308-1.055-.308-.952 0-1.567.425-.381.264-.381.615 0 .308.41.762.557.63.557 1.216 0 .718-.542 1.23-.527.498-1.392.498-.923 0-1.553-.557-.615-.557-.615-1.304 0-1.055.835-2.007.835-.967 2.329-1.48 1.494-.513 3.106-.513 1.948 0 3.076.835 1.143.82 1.48 1.787.205.615.205 2.827v5.317q0 .938.073 1.187.073.234.22.352.146.117.337.117.381 0 .776-.542l.439.352q-.732 1.084-1.523 1.582-.776.483-1.772.483-1.172 0-1.831-.542-.659-.557-.806-1.67zm0-1.069v-4.585q-1.772 1.04-2.637 2.227-.571.791-.571 1.597 0 .674.483 1.187.366.396 1.025.396.732 0 1.699-.82zm-96.2 26.479q1.787 0 3.325.923t2.329 2.622q.806 1.699.806 3.721 0 2.915-1.48 4.878-1.787 2.373-4.936 2.373-3.091 0-4.761-2.168t-1.67-5.024q0-2.944 1.699-5.127 1.714-2.197 4.688-2.197zm.059 1.04q-.747 0-1.289.571-.527.557-.703 2.227-.161 1.655-.161 4.614 0 1.567.205 2.93.161 1.04.688 1.582.527.542 1.201.542.659 0 1.099-.366.571-.498.762-1.392.293-1.392.293-5.625 0-2.49-.278-3.413-.278-.938-.82-1.362-.381-.308-.996-.308zm14.161-.63v3.106q1.362-2.124 2.388-2.813 1.025-.703 1.978-.703.82 0 1.304.513.498.498.498 1.421 0 .981-.483 1.523-.469.542-1.143.542-.776 0-1.348-.498-.571-.498-.674-.557-.146-.088-.337-.088-.425 0-.806.322-.601.498-.908 1.421-.469 1.421-.469 3.135v3.149l.015.82q0 .835.103 1.069.176.396.513.586.352.176 1.172.22v.527h-7.397v-.527q.894-.073 1.201-.483.322-.425.322-2.212v-7.573q0-1.172-.117-1.494-.146-.41-.425-.601t-.981-.264v-.542h5.596zm10.92-6.64q.952 0 1.611.674.659.659.659 1.597t-.674 1.597q-.659.659-1.597.659t-1.597-.659q-.659-.659-.659-1.597t.659-1.597q.659-.674 1.597-.674zm2.051 6.636v10.854q0 1.45.337 1.86.337.396 1.318.454v.527h-7.397v-.527q.908-.029 1.348-.527.293-.337.293-1.787v-7.998q0-1.45-.337-1.846-.337-.41-1.304-.469v-.542h5.742zm14.569 6.364h-7.515q.132 2.725 1.45 4.307 1.011 1.216 2.432 1.216.879 0 1.597-.483.718-.498 1.538-1.772l.498.322q-1.113 2.271-2.461 3.223-1.348.938-3.12.938-3.047 0-4.614-2.344-1.26-1.89-1.26-4.688 0-3.428 1.846-5.449 1.86-2.036 4.351-2.036 2.08 0 3.603 1.714 1.538 1.699 1.655 5.054zm-3.603-.981q0-2.358-.264-3.237-.249-.879-.791-1.333-.308-.264-.82-.264-.762 0-1.245.747-.864 1.304-.864 3.574v.513h3.984zm10.903-5.379v1.772q1.055-1.143 2.022-1.655.967-.527 2.08-.527 1.333 0 2.212.747.879.732 1.172 1.831.234.835.234 3.208v5.332q0 1.582.278 1.978.293.381 1.201.483v.527h-6.929v-.527q.776-.103 1.113-.645.234-.366.234-1.816v-6.094q0-1.685-.132-2.124-.132-.439-.454-.674-.308-.249-.688-.249-1.26 0-2.344 1.802v7.339q0 1.538.278 1.948.293.41 1.069.513v.527h-6.929v-.527q.864-.088 1.23-.557.249-.322.249-1.904v-7.734q0-1.553-.293-1.934-.278-.381-1.187-.498v-.542h5.581zm16.53-5.01v5.01h3.252v1.45h-3.252v8.452q0 1.187.103 1.538.117.337.396.557.278.205.513.205.952 0 1.802-1.45l.439.322q-1.187 2.813-3.853 2.813-1.304 0-2.212-.718-.894-.732-1.143-1.626-.146-.498-.146-2.695v-7.397h-1.787v-.513q1.846-1.304 3.135-2.739 1.304-1.435 2.271-3.208h.483zm12.15 16.69q-2.505 2.212-4.497 2.212-1.172 0-1.948-.762-.776-.776-.776-1.934 0-1.567 1.348-2.813 1.348-1.26 5.874-3.34v-1.377q0-1.553-.176-1.948-.161-.41-.63-.703-.469-.308-1.055-.308-.952 0-1.567.425-.381.264-.381.615 0 .308.41.762.557.63.557 1.216 0 .718-.542 1.23-.527.498-1.392.498-.923 0-1.553-.557-.615-.557-.615-1.304 0-1.055.835-2.007.835-.967 2.329-1.48 1.494-.513 3.106-.513 1.948 0 3.076.835 1.143.82 1.48 1.787.205.615.205 2.827v5.317q0 .938.073 1.187.073.234.22.352.146.117.337.117.381 0 .776-.542l.439.352q-.732 1.084-1.523 1.582-.776.483-1.772.483-1.172 0-1.831-.542-.659-.557-.806-1.67zm0-1.069v-4.585q-1.772 1.04-2.637 2.227-.571.791-.571 1.597 0 .674.483 1.187.366.396 1.025.396.732 0 1.699-.82zm18.62-.441l.454.352q-.967 1.816-2.417 2.71-1.436.879-3.062.879-2.739 0-4.38-2.065t-1.641-4.966q0-2.798 1.494-4.922 1.802-2.563 4.966-2.563 2.124 0 3.369 1.069 1.26 1.069 1.26 2.388 0 .835-.513 1.333-.498.498-1.318.498-.864 0-1.436-.571-.557-.571-.688-2.036-.088-.923-.425-1.289-.337-.366-.791-.366-.703 0-1.201.747-.762 1.128-.762 3.457 0 1.934.615 3.706.615 1.758 1.685 2.622.806.63 1.904.63.718 0 1.362-.337.645-.337 1.523-1.274zm5.42-16.81q.952 0 1.611.674.659.659.659 1.597t-.674 1.597q-.659.659-1.597.659t-1.597-.659q-.659-.659-.659-1.597t.659-1.597q.659-.674 1.597-.674zm2.051 6.636v10.854q0 1.45.337 1.86.337.396 1.318.454v.527h-7.397v-.527q.908-.029 1.348-.527.293-.337.293-1.787v-7.998q0-1.45-.337-1.846-.337-.41-1.304-.469v-.542h5.742zm9.429-.406q1.787 0 3.325.923t2.329 2.622q.806 1.699.806 3.721 0 2.915-1.48 4.878-1.787 2.373-4.936 2.373-3.091 0-4.761-2.168t-1.67-5.024q0-2.944 1.699-5.127 1.714-2.197 4.688-2.197zm.059 1.04q-.747 0-1.289.571-.527.557-.703 2.227-.161 1.655-.161 4.614 0 1.567.205 2.93.161 1.04.688 1.582.527.542 1.201.542.659 0 1.099-.366.571-.498.762-1.392.293-1.392.293-5.625 0-2.49-.278-3.413-.278-.938-.82-1.362-.381-.308-.996-.308zm4.409-7.471l-4.849 5.083h-1.26l1.699-5.083h4.409zm9.672 6.841v1.772q1.055-1.143 2.022-1.655.967-.527 2.08-.527 1.333 0 2.212.747.879.732 1.172 1.831.234.835.234 3.208v5.332q0 1.582.278 1.978.293.381 1.201.483v.527h-6.929v-.527q.776-.103 1.113-.645.234-.366.234-1.816v-6.094q0-1.685-.132-2.124-.132-.439-.454-.674-.308-.249-.688-.249-1.26 0-2.344 1.802v7.339q0 1.538.278 1.948.293.41 1.069.513v.527h-6.929v-.527q.864-.088 1.23-.557.249-.322.249-1.904v-7.734q0-1.553-.293-1.934-.278-.381-1.187-.498v-.542h5.581zm-126.3 49.18q-2.505 2.212-4.497 2.212-1.172 0-1.948-.762-.776-.776-.776-1.934 0-1.567 1.348-2.813 1.348-1.26 5.874-3.34v-1.377q0-1.553-.176-1.948-.161-.41-.63-.703-.469-.308-1.055-.308-.952 0-1.567.425-.381.264-.381.615 0 .308.41.762.557.63.557 1.216 0 .718-.542 1.23-.527.498-1.392.498-.923 0-1.553-.557-.615-.557-.615-1.304 0-1.055.835-2.007.835-.967 2.329-1.48 1.494-.513 3.106-.513 1.948 0 3.076.835 1.143.82 1.48 1.787.205.615.205 2.827v5.317q0 .938.073 1.187.073.234.22.352.146.117.337.117.381 0 .776-.542l.439.352q-.732 1.084-1.523 1.582-.776.483-1.772.483-1.172 0-1.831-.542-.659-.557-.806-1.67zm0-1.069v-4.585q-1.772 1.04-2.637 2.227-.571.791-.571 1.597 0 .674.483 1.187.366.396 1.025.396.732 0 1.699-.82zm12.8-16.781v17.021q0 1.45.337 1.86.337.396 1.318.454v.527h-7.397v-.527q.908-.029 1.348-.527.293-.337.293-1.787v-14.18q0-1.436-.337-1.831-.337-.41-1.304-.469v-.542h5.742zm19.12 5.79l.22 4.673h-.498q-.894-2.08-1.86-2.842-.952-.762-1.904-.762-.601 0-1.025.41-.425.396-.425.923 0 .396.293.762.469.601 2.622 2.065 2.153 1.45 2.827 2.476.688 1.011.688 2.271 0 1.143-.571 2.241t-1.611 1.685q-1.04.586-2.3.586-.981 0-2.622-.615-.439-.161-.601-.161-.483 0-.806.732h-.483l-.234-4.922h.498q.659 1.934 1.802 2.9 1.157.967 2.183.967.703 0 1.143-.425.454-.439.454-1.055 0-.703-.439-1.216t-1.963-1.553q-2.241-1.553-2.9-2.373-.967-1.201-.967-2.651 0-1.582 1.084-2.856 1.099-1.289 3.164-1.289 1.113 0 2.153.542.396.22.645.22.264 0 .425-.103.161-.117.513-.63h.498zm14.6 6.74h-7.515q.132 2.725 1.45 4.307 1.011 1.216 2.432 1.216.879 0 1.597-.483.718-.498 1.538-1.772l.498.322q-1.113 2.271-2.461 3.223-1.348.938-3.12.938-3.047 0-4.614-2.344-1.26-1.89-1.26-4.688 0-3.428 1.846-5.449 1.86-2.036 4.351-2.036 2.08 0 3.603 1.714 1.538 1.699 1.655 5.054zm-3.603-.981q0-2.358-.264-3.237-.249-.879-.791-1.333-.308-.264-.82-.264-.762 0-1.245.747-.864 1.304-.864 3.574v.513h3.984zm10.903-5.379v1.772q1.055-1.143 2.022-1.655.967-.527 2.08-.527 1.333 0 2.212.747.879.732 1.172 1.831.234.835.234 3.208v5.332q0 1.582.278 1.978.293.381 1.201.483v.527h-6.929v-.527q.776-.103 1.113-.645.234-.366.234-1.816v-6.094q0-1.685-.132-2.124-.132-.439-.454-.674-.308-.249-.688-.249-1.26 0-2.344 1.802v7.339q0 1.538.278 1.948.293.41 1.069.513v.527h-6.929v-.527q.864-.088 1.23-.557.249-.322.249-1.904v-7.734q0-1.553-.293-1.934-.278-.381-1.187-.498v-.542h5.581zm16.53-5.01v5.01h3.252v1.45h-3.252v8.452q0 1.187.103 1.538.117.337.396.557.278.205.513.205.952 0 1.802-1.45l.439.322q-1.187 2.813-3.853 2.813-1.304 0-2.212-.718-.894-.732-1.143-1.626-.146-.498-.146-2.695v-7.397h-1.787v-.513q1.846-1.304 3.135-2.739 1.304-1.435 2.271-3.208h.483zm7.89-1.63q.952 0 1.611.674.659.659.659 1.597t-.674 1.597q-.659.659-1.597.659t-1.597-.659q-.659-.659-.659-1.597t.659-1.597q.659-.674 1.597-.674zm2.051 6.636v10.854q0 1.45.337 1.86.337.396 1.318.454v.527h-7.397v-.527q.908-.029 1.348-.527.293-.337.293-1.787v-7.998q0-1.45-.337-1.846-.337-.41-1.304-.469v-.542h5.742zm16.279-6.166v15.762q0 1.597.088 1.89.117.483.439.718.337.234 1.157.293v.483l-5.786 1.128v-2.168q-1.04 1.26-1.86 1.714-.806.454-1.831.454-2.622 0-4.146-2.344-1.23-1.904-1.23-4.673 0-2.212.762-3.955.762-1.758 2.08-2.651 1.333-.894 2.856-.894.981 0 1.743.381.762.381 1.626 1.333v-4.131q0-1.567-.132-1.89-.176-.425-.527-.63-.352-.205-1.318-.205v-.615h6.079zm-4.102 9.287q-1.084-2.08-2.651-2.08-.542 0-.894.293-.542.454-.894 1.597-.337 1.143-.337 3.501 0 2.593.381 3.838t1.04 1.802q.337.278.923.278 1.289 0 2.432-2.022v-7.207zm13.952-3.527q1.787 0 3.325.923t2.329 2.622q.806 1.699.806 3.721 0 2.915-1.48 4.878-1.787 2.373-4.936 2.373-3.091 0-4.761-2.168t-1.67-5.024q0-2.944 1.699-5.127 1.714-2.197 4.688-2.197zm.059 1.04q-.747 0-1.289.571-.527.557-.703 2.227-.161 1.655-.161 4.614 0 1.567.205 2.93.161 1.04.688 1.582.527.542 1.201.542.659 0 1.099-.366.571-.498.762-1.392.293-1.392.293-5.625 0-2.49-.278-3.413-.278-.938-.82-1.362-.381-.308-.996-.308zm54.691-36.08c-.121-120.06.194-214.15.718-214.67.315-.315 176.21-.86 390.88-1.212l390.31-.639v264.58h-781.86zm129.64 18.008v-27.888l-9.037-1.527c-4.97-.84-20.278-5.292-34.017-9.893l-24.981-8.366-29.698-.016-29.698-.016v75.594h127.43zm127.43 4.424v-23.464l-21.058-1.131c-11.582-.622-33.967-1.283-49.744-1.468-15.777-.185-30.356-.872-32.397-1.526l-3.712-1.19 3.24 2.472 3.24 2.472-11.34-.649-11.34-.649.001 24.298.001 24.298h123.11v-23.464zm133.91-17.573v-41.037h-68.506l-15.963 7.348c-8.78 4.042-22.48 9.612-30.446 12.379l-14.484 5.03-.635 5.44c-.349 2.992-.332 15.888.04 28.658l.675 23.218h129.32v-41.037zm130.14-35.637c-.163-41.577-.354-79.725-.425-84.773l-.13-9.179-27.538.049-27.538.049-13.198 7.114c-7.259 3.913-23.53 14.339-36.158 23.169l-22.961 16.055-.02 62.127-.019 62.127 64.14-.572 64.14-.572-.296-75.594zm129.03-1.798v-78.472l-8.099-6.466c-21.882-17.469-41.009-27.152-61.404-31.084l-14.428-2.782-19.869 2.446c-10.928 1.345-20.141 2.725-20.473 3.066-1.202 1.234-1.411 19.401-1.205 104.83l.209 86.933h125.27zm129.59 29.876v-48.596l-29.698.063-29.698.063 7.019 6.386c3.861 3.512 7.019 6.885 7.019 7.496 0 3.025-5.883.35-14.18-6.449l-9.225-7.559h-58.668v97.192h127.43zm-521.6-5.851l2.16-2.063-10.799 1.557c-5.939.856-12.743 2.308-15.119 3.227l-4.32 1.67 12.959-1.163 12.959-1.163zm-111.23 1.777c0-.459-2.959-1.269-6.575-1.8l-6.575-.965-1.112 1.8-1.112 1.8h7.687c4.228 0 7.687-.376 7.687-.835zm91.253-4.785l18.898-3.469.037-1.935c.019-1.065.036-28.177.036-60.251 0-32.073-.017-75.81-.036-97.192l-.037-38.877h-124.19l.506 99.678c.278 54.823.8 99.972 1.16 100.33.36.36 6.936 1.551 14.613 2.648l13.959 1.993 28.078.271 28.078.271zm-108.53-10.579v-7.559l-26.458.214-26.458.214 9.719 3.291c12.086 4.093 36.876 10.955 40.497 11.21l2.7.19zm142.21 2.28c9.695-3.421 37.055-15.815 37.062-16.789 0-.335-10.689-.306-23.758.065l-23.762.675v9.585c0 5.271.364 9.585.808 9.585s4.787-1.404 9.65-3.12zm-219.92-13.14c0-.623-2.43-2.057-5.4-3.186l-5.4-2.053v-2.213c0-3.063 1.001-2.863 12.537 2.505l10.141 4.718 32.935.141 32.935.141.384-28.078c.452-33.019.432-91.089-.043-126.89l-.337-25.378h-127.43v181.426h49.676zm339.09-24.901v-17.162l-1.62.064c-.891.035-8.909 4.896-17.818 10.803-8.909 5.907-21.299 13.41-27.533 16.675-6.234 3.265-11.338 6.422-11.343 7.016 0 .594 13.114.784 29.152.423l29.161-.657v-17.162zm-54.354 8.399c9.106-4.948 25.051-14.425 35.433-21.058l18.876-12.061-.087-65.335-.087-65.335h-129.372v172.786h58.678l16.557-8.997zm369.69-5.142c0-1.958-50.265-52.816-52.2-52.816h-1.796v53.996h53.996zm73.434-78.734v-79.914h-127.43v97.626l13.809 12.793c7.595 7.036 21.87 21.032 31.723 31.101l17.914 18.308h63.984zm-367.91 35.391c3.753-2.791 14.93-9.95 24.838-15.909l18.015-10.835-30.778-.004-30.778-.004v39.374l5.94-3.774c3.267-2.076 9.01-6.057 12.762-8.848zm238.32-36.471v-16.199l-27.538.152-27.538.152 8.332 3.055c9.907 3.632 20.174 9.777 34.865 20.868 5.94 4.484 11.042 8.156 11.339 8.161.297.005.54-7.28.54-16.189zm-172.27.196c9.814-4.05 23.432-8.979 30.263-10.952l12.419-3.589v-64.488h-127.43v86.394h66.904zm42.682-1.159v-8.523l-11.339 3.257c-10.544 3.029-15.83 5.008-29.698 11.117l-5.399 2.379 23.218.146 23.218.146zm121.33-19.243l7.939-.312-.082-29.158-.083-29.158h-124.784v60.012l54.536-.536c29.995-.295 58.108-.677 62.474-.848z"/></svg>