<svg xmlns="http://www.w3.org/2000/svg" height="74.304mm" viewBox="0 0 894.74719 263.2802" width="252.52mm"><path d="M113.63 244.97c-11.768.629-22.916.785-24.775.347-1.858-.438-10.98-2.002-20.27-3.475-9.29-1.473-22.723-5.252-29.851-8.397-8.675-3.829-14.315-8.036-17.06-12.728-3.776-6.453-4.087-13.649-3.933-90.882l.168-83.873 5.759-5.341c3.167-2.938 7.861-6.466 10.43-7.841s9.099-3.981 14.511-5.792 20.258-4.484 32.991-5.94c18.028-2.062 28.245-2.032 46.171.135 12.661 1.53 28.087 4.661 34.281 6.956 6.194 2.296 14.93 7.2 19.414 10.899l8.152 6.724-.347 86.598-.347 86.598-5.553 4.829c-3.054 2.656-10.621 7.147-16.814 9.979-6.194 2.833-15.822 6.255-21.396 7.606-5.574 1.35-19.763 2.97-31.531 3.599zm-2.252-4.02c22.108-.482 31.245-1.687 42.555-5.615 7.921-2.751 17.694-7.513 21.718-10.582 4.024-3.069 7.827-7.533 8.451-9.919.624-2.386-.281-5.513-2.011-6.949s-3.146-3.468-3.146-4.517 1.52-1.322 3.378-.609c2.897 1.112 3.378-2.909 3.378-28.224 0-16.944-.903-29.52-2.119-29.52-1.166 0-2.75 1.021-3.521 2.268-.771 1.248-4.575 3.909-8.453 5.915-3.878 2.006-13.696 5.553-21.816 7.883-10.647 3.055-22.303 4.262-41.792 4.33-15.84.055-33.652-1.309-43.032-3.295-8.803-1.864-18.938-4.666-22.522-6.227-3.584-1.561-9.811-5.273-13.837-8.249l-7.32-5.411v30.672c0 22.355.733 30.672 2.703 30.672 2.102 0 2.102.601 0 2.703-1.486 1.486-2.703 3.942-2.703 5.458s2.576 5.816 5.724 9.558c3.286 3.905 11.153 8.834 18.47 11.571 7.01 2.623 18.37 5.653 25.244 6.734 6.874 1.081 25.167 1.689 40.651 1.352zm-82.124-39.66c-1.194.018-.458-1.679 1.636-3.773 2.094-2.094 4.562-3.052 5.485-2.13.923.923.187 2.62-1.635 3.773-1.822 1.152-4.29 2.111-5.485 2.13zm145.18-1.46c-.619.619-3.078-.301-5.463-2.045-2.385-1.744-3.83-3.678-3.21-4.297.619-.619 3.078.301 5.463 2.045s3.83 3.678 3.21 4.297zm-131.93-5.262c-.518 0-.942-.895-.942-1.99s2.027-2.52 4.505-3.167c2.478-.648 4.505-.368 4.505.622s-1.603 2.416-3.563 3.167c-1.959.752-3.986 1.367-4.505 1.367zm117.86-.261c-.31-.144-2.337-.725-4.505-1.291-2.168-.567-3.941-1.874-3.941-2.906s2.027-1.346 4.505-.698c2.478.648 4.505 2.073 4.505 3.167 0 1.094-.253 1.872-.563 1.728zm-97.409-4.243c-1.712 0-3.739-1.014-4.505-2.252-.793-1.282 1.147-2.252 4.505-2.252 3.357 0 5.297.97 4.505 2.252-.766 1.239-2.793 2.252-4.505 2.252zm81.776-.035c-1.621-.019-4.468-1.017-6.327-2.218-2.747-1.775-2.455-2.19 1.556-2.218 2.714-.019 5.561.979 6.327 2.218.766 1.239.065 2.237-1.556 2.218zm-68.826-2.252c-1.548.019-2.815-.979-2.815-2.218 0-1.239 2.787-2.237 6.194-2.218 4.826.027 5.448.516 2.815 2.218-1.858 1.201-4.645 2.199-6.194 2.218zm51.371.035c-2.404 0-4.998-1.014-5.763-2.252-.789-1.277 1.103-2.252 4.372-2.252 3.17 0 5.763 1.014 5.763 2.252s-1.967 2.252-4.372 2.252zm-35.606-2.41c-5.488-.14-5.681-.379-1.689-2.094 2.478-1.065 5.265-2.007 6.194-2.094.929-.087 1.689.855 1.689 2.094s-2.787 2.181-6.194 2.094zm18.581-.281c-3.716-.046-4.964-.551-2.772-1.122 2.191-.571 5.232-.533 6.757.083 1.525.617-.268 1.084-3.984 1.038zm0-23.076c22.375-.478 32.731-1.746 43.919-5.38 8.052-2.615 18.44-7.899 23.085-11.742 4.645-3.843 8.446-8.607 8.446-10.587 0-1.98-1.774-5.625-3.941-8.101-3.754-4.286-3.754-4.432 0-3.063 3.635 1.325 3.941-1.02 3.941-30.138v-31.575l-7.32 5.553c-4.026 3.054-13.908 7.897-21.959 10.762-12.944 4.606-18.814 5.215-50.675 5.26-31.564.044-38.132-.604-52.927-5.223-9.29-2.9-20.186-7.766-24.212-10.813l-7.32-5.54v72.998l9.001 8.563c6.424 6.111 13.355 9.836 24.212 13.011 8.366 2.446 17.744 4.942 20.841 5.545 3.097.603 18.806.815 34.91.471zm-85.508-37.34c-1.194.019-.458-1.679 1.636-3.773 2.094-2.094 4.562-3.052 5.485-2.13.923.923.187 2.62-1.636 3.773-1.822 1.152-4.29 2.111-5.485 2.13zm149.26-4.542c-2.095.039-4.476-1.009-5.293-2.33-.817-1.321-1.056-2.831-.532-3.355s2.906.525 5.293 2.33c3.811 2.883 3.875 3.292.532 3.355zm-134.27-4.51c-3.344-.063-3.279-.472.532-3.355 2.387-1.806 4.769-2.855 5.293-2.33.524.524.285 2.034-.532 3.355-.817 1.321-3.198 2.37-5.293 2.33zm123.29-1.355c-.537.496-3.51-.149-6.607-1.432-4.877-2.02-5.071-2.466-1.45-3.327 2.299-.547 5.272.097 6.607 1.432 1.334 1.334 1.987 2.831 1.45 3.327zm-109.64-3.24c-1.548.087-2.815-.855-2.815-2.094s3.294-2.181 7.32-2.094c6.134.133 6.59.472 2.815 2.094-2.478 1.065-5.771 2.007-7.32 2.094zm88.963-2.128c-3.406.019-6.194-.979-6.194-2.218s1.267-2.237 2.815-2.218 4.336 1.017 6.194 2.218c2.633 1.701 2.011 2.191-2.815 2.218zm-67.997-2.218c-3.17 0-5.763-.389-5.763-.863s2.026-1.393 4.502-2.041c2.476-.648 5.07-.259 5.763.863s-1.332 2.041-4.502 2.041zm15.576-.886c-1.817.267-3.875-.438-4.572-1.567-.697-1.128 1.494-2.052 4.871-2.052s5.434.705 4.572 1.567c-.862.862-3.054 1.785-4.871 2.052zm22.016.728c-.929-.087-3.716-1.029-6.194-2.094-3.991-1.715-3.799-1.954 1.689-2.094 3.406-.087 6.194.855 6.194 2.094s-.76 2.181-1.689 2.094zm12.387.124c-3.406.019-6.194-.979-6.194-2.218s1.267-2.237 2.815-2.218 4.336 1.017 6.194 2.218c2.633 1.701 2.011 2.191-2.815 2.218zm-7.997-26.037c14.45-.758 27.132-2.944 37.464-6.458 8.591-2.922 18.311-7.077 21.602-9.233 3.291-2.156 6.903-5.64 8.028-7.742 1.125-2.102 1.516-5.843.87-8.314s-6.422-7.598-12.835-11.394c-6.413-3.796-17.234-8.251-24.047-9.9-7.105-1.72-25.353-3.019-42.792-3.047-22.29-.035-34.718 1.058-46.563 4.094-9.174 2.352-20.126 7.06-25.338 10.893-5.995 4.409-9.18 8.5-9.18 11.794 0 2.774 2.293 7.197 5.096 9.83s9.878 6.902 15.723 9.488c5.845 2.585 19.515 6.148 30.377 7.917 12.391 2.018 27.889 2.789 41.595 2.071zm197.75 163.17c-14.245-.081-32.488-1.563-40.54-3.293-8.052-1.731-20.196-5.96-26.986-9.398-6.791-3.438-13.569-8.703-15.063-11.7-1.965-3.941-2.771-29.019-2.915-90.673l-.199-85.225 7.366-6.728c4.051-3.7 12.444-8.628 18.651-10.95 6.206-2.322 17.867-4.886 25.914-5.698 8.046-.812 18.683-1.836 23.638-2.275 4.955-.439 17.951.111 28.88 1.223s25.359 3.617 32.067 5.567 17.023 6.771 22.921 10.713l10.725 7.168v176.294l-5.631 4.862c-3.097 2.674-10.191 6.971-15.766 9.548-5.574 2.578-16.216 6.042-23.648 7.699-7.432 1.657-25.169 2.947-39.414 2.866zm10.316-3.254c14.12-.532 28.242-2.567 37.354-5.381 8.058-2.489 18.872-7.583 24.031-11.32 6.304-4.567 9.38-8.489 9.38-11.961 0-2.841-1.216-6.382-2.703-7.869-2.102-2.102-1.977-2.703.563-2.703 2.783 0 3.266-10.329 3.266-69.819 0-38.401-.208-69.819-.463-69.819s-4.194 2.532-8.755 5.627c-4.561 3.095-12.207 6.681-16.992 7.97-5.061 1.363-8.7 3.719-8.7 5.634 0 1.81-1.014 3.292-2.252 3.292s-2.252-.77-2.252-1.712c0-.941-14.442-1.702-32.094-1.689s-36.228-.722-41.281-1.632l-9.187-1.654.178 52.329c.109 32.044 1.051 52.984 2.43 54.019 1.5 1.125 1.496 2.253-.013 3.378-1.246.929-2.376 11.646-2.51 23.816l-.245 22.127 5.889-1.328c5.569-1.256 5.656-1.146 1.602 2.023-3.373 2.637-3.613 3.587-1.126 4.46 1.739.61 7.215 1.55 12.17 2.089 4.955.539 19.225.594 31.712.124zm-32.838-12.207c-2.477 1.326-4.505 1.605-4.505.621s2.027-3.056 4.505-4.603c2.495-1.558 4.505-1.835 4.505-.621 0 1.206-2.027 3.277-4.505 4.603zm9.951-6.757c-.518 0-.942-.905-.942-2.011s1.488-2.582 3.306-3.28 3.84-.406 4.492.649c.652 1.055-.412 2.531-2.364 3.28-1.952.749-3.974 1.362-4.492 1.362zm11.865-6.757c-1.154 0-.836-1.52.706-3.378s4.453-3.346 6.469-3.307c3.079.06 2.967.6-.706 3.378-2.405 1.819-5.316 3.307-6.469 3.307zm13.657-6.828c-.929.039-1.689-.698-1.689-1.639 0-.941 1.918-2.908 4.262-4.372s4.862-2.061 5.596-1.327-.424 2.669-2.572 4.3-4.667 2.999-5.596 3.038zm14.587-8.937c-3.438 0-3.432-.296.079-3.807 2.094-2.094 4.44-3.175 5.213-2.402.773.773.737 2.486-.079 3.807-.817 1.321-3.162 2.402-5.213 2.402zm44.8 0c-1.239 0-2.879-1.014-3.644-2.252-.766-1.239-.378-2.252.86-2.252s2.879 1.014 3.644 2.252c.766 1.239.378 2.252-.86 2.252zm-9.504-5.776c-.674.674-3.178-.252-5.565-2.058-2.387-1.806-3.327-3.3-2.088-3.321 1.239-.021 3.743.906 5.565 2.058 1.822 1.152 2.762 2.647 2.088 3.321zm-20.04-2.58c-2.477.648-4.505.259-4.505-.863s.101-2.801.225-3.731c.124-.929 1.137-1.436 2.252-1.126 1.115.31 2.027-1.464 2.027-3.941 0-2.478 1.014-4.505 2.252-4.505s2.252 2.922 2.252 6.494c0 4.6-1.314 6.838-4.505 7.672zm-66.441-5.157c-3.097 0-5.631-1.014-5.631-2.252s2.534-2.252 5.631-2.252 5.631 1.014 5.631 2.252-2.534 2.252-5.631 2.252zm37.725-.158c-.929-.087-3.716-1.029-6.194-2.094-3.991-1.715-3.799-1.954 1.689-2.094 3.406-.087 6.194.855 6.194 2.094s-.76 2.181-1.689 2.094zm13.646 0c-2.714.087-5.561-.855-6.327-2.094-.766-1.239-.572-2.181.43-2.094s3.849 1.029 6.327 2.094c4.343 1.866 4.327 1.941-.43 2.094zm-32.79-2.128c-3.406.019-6.194-.364-6.194-.851s1.359-1.407 3.019-2.044c1.661-.637 4.448-.254 6.194.851 2.31 1.462 1.488 2.019-3.019 2.044zm50.112-11.227c-1.239 0-2.252-1.967-2.252-4.372s1.014-4.998 2.252-5.763c1.277-.789 2.252 1.103 2.252 4.372 0 3.17-1.014 5.763-2.252 5.763zm0-15.766c-1.239 0-2.252-2.027-2.252-4.505s1.014-4.505 2.252-4.505 2.252 2.027 2.252 4.505c0 2.477-1.014 4.505-2.252 4.505zm0-15.766c-1.239 0-2.252-2.027-2.252-4.505 0-2.477 1.014-4.505 2.252-4.505s2.252 2.027 2.252 4.505-1.014 4.505-2.252 4.505zm1.502-13.513c-.413 0-1.426-.676-2.252-1.502-.826-.826-1.502-3.36-1.502-5.631s1.014-4.129 2.252-4.129 2.252 2.534 2.252 5.631-.338 5.631-.751 5.631zm-1.502-15.766c-1.239 0-2.252-2.534-2.252-5.631s1.014-5.631 2.252-5.631 2.252 2.534 2.252 5.631-1.014 5.631-2.252 5.631zm0-15.766c-1.239 0-2.252-2.087-2.252-4.637s1.014-4.011 2.252-3.245c1.239.766 2.252 2.852 2.252 4.637s-1.014 3.245-2.252 3.245zm-89.55 140.43c.929-.559 1.689-11.599 1.689-24.533 0-16.788-.773-23.516-2.703-23.516-2.102 0-2.102-.601 0-2.703 1.949-1.949 2.702-17.489 2.7-55.743l-.002-53.04-12.947-3.847c-7.121-2.116-15.777-6.503-19.235-9.75l-6.288-5.903.301 79.909.301 79.909 5.987 5.695c3.293 3.132 11.054 7.684 17.248 10.116 6.194 2.432 12.021 3.964 12.95 3.404zm-32.719-32.282c-1.279 0-.485-2.033 1.764-4.518s4.577-4.03 5.175-3.433c.597.597-.197 2.63-1.763 4.518-1.567 1.888-3.895 3.433-5.175 3.433zm17.251-11.261c-1.858 0-2.752-1.014-1.986-2.252.766-1.239 2.912-2.252 4.77-2.252s2.752 1.014 1.986 2.252c-.766 1.239-2.912 2.252-4.77 2.252zm76.85-114.14c8.671-.565 18.046-1.579 20.833-2.252 4.823-1.165 5.066-2.27 5.033-22.939-.018-11.943-.889-23.062-1.932-24.709-1.077-1.699-9.586-3.977-19.673-5.268-9.776-1.251-27.289-1.606-38.917-.789-11.628.817-27.115 3.344-34.416 5.616-7.301 2.272-16.79 6.813-21.087 10.091-4.298 3.278-7.814 7.292-7.814 8.92s2.155 5.7 4.789 9.049 10.172 8.469 16.75 11.378c6.579 2.909 19.372 6.394 28.431 7.743 9.059 1.349 20.017 2.844 24.353 3.32 4.336.477 14.977.404 23.648-.161zm33.858-5.24c1.899 0 8.451-2.532 14.559-5.628 6.108-3.095 12.155-7.589 13.439-9.987 1.283-2.398 2.333-6.088 2.333-8.201s-1.774-5.244-3.941-6.959-8.722-5.627-14.565-8.694c-5.843-3.067-11.67-5.576-12.95-5.576-1.446 0-2.327 8.526-2.327 22.522 0 18.735.581 22.522 3.453 22.522zm208.25 132.65c-.619-.081-6.194-1.395-12.387-2.92-6.194-1.525-15.315-4.691-20.27-7.035-4.955-2.344-14.672-9.886-21.593-16.759-8.813-8.752-14.163-16.541-17.853-25.993-3.975-10.183-5.309-18.209-5.434-32.688-.149-17.279.564-20.673 7.154-34.06 4.245-8.622 11.648-18.858 17.623-24.366 5.667-5.224 16.056-12.194 23.086-15.49 11.186-5.244 15.593-5.989 35.304-5.968 20.322.022 23.707.645 34.646 6.383 6.668 3.497 17.042 10.96 23.054 16.583 6.012 5.623 13.732 15.926 17.155 22.896 5.539 11.275 6.225 15.155 6.226 35.194 0 20.123-.673 23.894-6.323 35.4-3.478 7.082-10.719 17.4-16.09 22.927-5.372 5.527-14.906 12.654-21.187 15.837-6.281 3.183-18.297 6.782-26.702 7.997-8.405 1.215-15.788 2.143-16.408 2.063zm3.468-4.47c5.004.111 14.886-1.306 21.958-3.148 7.073-1.842 16.666-5.753 21.319-8.69 4.653-2.937 12.369-9.667 17.146-14.956 4.778-5.289 10.503-13.794 12.723-18.9 2.22-5.106 5.194-14.999 6.61-21.984 2.11-10.406 1.929-15.481-.998-28.103-1.965-8.472-6.051-19.633-9.081-24.803-3.03-5.17-10.19-13.52-15.911-18.556-5.721-5.036-16.126-11.329-23.121-13.985-8.298-3.15-18.198-4.89-28.484-5.006-9.339-.106-20.356 1.376-27.027 3.635-6.194 2.098-16.287 7.622-22.431 12.276-6.143 4.654-13.929 12.505-17.301 17.446-3.372 4.941-7.846 14.401-9.941 21.022-2.765 8.738-3.505 16.766-2.699 29.279.663 10.292 2.98 21.479 5.75 27.758 2.552 5.784 8.427 14.709 13.055 19.832 4.628 5.123 12.834 11.904 18.234 15.069 5.4 3.165 14.607 7.072 20.458 8.683 5.852 1.611 14.734 3.019 19.738 3.13zm217.21 2.454h-83.173l-.625-70.382c-.344-38.71-.319-75.703.056-82.207.375-6.503 1.641-11.824 2.815-11.824 1.304 0 2.135 31.092 2.135 79.954v79.954l55.743.392c30.659.216 65.878.38 78.265.366l22.522-.025.372-79.694c.255-54.639 1.135-79.948 2.799-80.503 1.706-.569 2.402 23.67 2.345 81.58l-.082 82.389h-83.173z"/></svg>