<svg height="133.73mm" viewBox="0 0 929.16048 473.8346" width="262.23mm" xmlns="http://www.w3.org/2000/svg"><path d="m226.07 451.05c-.65-2.787-2.386-23.311-3.858-45.608s-3.06-41.847-3.529-43.444c-.682-2.319-20.917-2.845-100.49-2.615-69.446.201-99.878-.447-100.44-2.139-.445-1.335 3.579-5.039 8.942-8.231 30.237-17.995 47.366-28.393 60.427-36.681 8.052-5.109 21.227-13.378 29.279-18.376 8.052-4.997 16.6-10.336 18.996-11.863 9.795-6.243 39.403-24.877 53.7-33.796l15.264-9.522-1.103-21.396c-1.193-23.159-8.283-103.59-13.598-154.28-1.819-17.342-3.337-34.648-3.373-38.458l-.067-6.926 255.68.631c140.62.347 256.53 1.155 257.57 1.796 1.037.641 3.059 15.636 4.494 33.322s3.177 38.491 3.873 46.233l1.266 14.077h101.17c55.645 0 101.17.856 101.17 1.903 0 3.381-6.785 7.932-77.703 52.113-70.936 44.192-100.41 62.839-107.6 68.075-3.819 2.782-3.797 4.878.512 47.954 9.668 96.649 11.85 118.02 14.6 143.02 1.567 14.246 2.434 26.661 1.927 27.59-.508.929-116.8 1.689-258.43 1.689h-257.51l-1.182-5.068zm510.85-19.144c-.9-10.839-1.916-21.227-2.257-23.086-.342-1.858-1.311-11.993-2.154-22.523-.843-10.529-4.001-42.777-7.018-71.661s-5.485-57.009-5.485-62.5c0-6.247-1.009-9.983-2.695-9.983-2.323 0-24.488 13.545-68.251 41.707-26.538 17.077-43.717 27.827-57.432 35.937-14.281 8.444-37.758 23.256-54.487 34.377l-8.316 5.528-64.883-.462c-35.685-.254-104.78-.351-153.54-.216l-88.657.246 1.244 9.572c.684 5.265 3.008 26.042 5.165 46.171l3.921 36.599h506.48l-1.636-19.707zm-436.96-77.7c218.28-.542 227.8-.737 235.36-4.826 8.209-4.437 54.936-33.714 87.603-54.888 10.4-6.741 33.711-21.395 51.802-32.564s33.315-20.694 33.831-21.167-17.311-.859-39.616-.859h-40.554l-2.566 5.631c-1.411 3.097-3.62 5.631-4.909 5.631-1.375 0-1.76-2.327-.93-5.631l1.413-5.631h-410.26l-42.295 26.135c-23.262 14.374-56.484 35.11-73.826 46.079-17.342 10.97-39.386 24.643-48.987 30.386s-17.048 11.105-16.551 11.916c.498.811 10.38 1.222 21.96.914 11.58-.309 123.42-.816 248.53-1.126zm228.77-32.95c-4.492-1.255-9.685-7.033-6.321-7.033 3.606 0 15.163 5.318 15.163 6.977 0 2.259-.939 2.265-8.842.056zm17.851-.03c0-2.425 15.632-4.537 17.016-2.298.537.869-.621 2.193-2.573 2.942-5.329 2.045-14.442 1.639-14.442-.644zm-43.616-13.595c-3.549-3.484-5.517-6.913-4.372-7.621 1.936-1.197 14.204 9.932 14.204 12.885 0 2.777-3.607.846-9.832-5.264zm70.643 4.599c0-2.338 10.045-9.268 13.434-9.268 4.357 0 2.353 3.52-4.21 7.397-7.387 4.364-9.225 4.736-9.225 1.871zm-87.681-21.489c-2.894-3.081-4.415-6.625-3.487-8.127 1.122-1.815 3.323-.613 6.912 3.775 8.664 10.592 5.825 14.198-3.425 4.352zm107.95 3.604c0-2.828 11.058-12.608 12.558-11.107 2.033 2.033-5.926 12.967-9.439 12.967-1.716 0-3.119-.837-3.119-1.86zm-119.93-23.98c-2.669-3.67-3.152-5.915-1.493-6.94 2.978-1.841 5.545.676 7.589 7.439 1.998 6.612-1.11 6.358-6.096-.499zm135.75 2.751c.071-3.991 8.358-14.302 10.097-12.563 1.885 1.885-5.094 15.378-7.953 15.378-1.207 0-2.172-1.267-2.144-2.815zm-143.13-18.58c-.58-1.858-1.518-4.866-2.083-6.685-1.874-6.028 3.246-6.085 5.537-.061 1.236 3.252 2.248 6.86 2.248 8.018 0 3.419-4.553 2.402-5.701-1.273zm-163.22-26.9c0-10.845 15.906-40.601 28.592-53.488 5.725-5.816 16.454-13.796 23.841-17.734 12.345-6.58 14.731-7.074 29.486-6.111 19.401 1.267 32 7.064 47.171 21.701 10.819 10.438 27.905 38.901 33.006 54.982l2.69 8.481 125.06-.108 125.06-.108-1.305-9.499c-.718-5.224-3.859-36.357-6.98-69.184s-6.72-66.668-7.996-75.203-2.961-24.534-3.743-35.552-2.266-20.555-3.297-21.192-114.64-1.354-252.47-1.592l-250.6-.433.548 6.738c7.076 86.947 15.71 182.71 17.715 196.49l1.393 9.572h91.83v-7.762zm156.71 1.568c-2.888-12.463-17.862-38.417-28.836-49.983-12.36-13.026-28.281-21.441-45.187-23.883-9.338-1.349-12.699-.613-25.108 5.496-16.177 7.964-27.473 18.386-38.828 35.827-7.057 10.838-14.16 28.779-14.222 35.922-.018 2.198 16.828 2.815 76.796 2.815h76.821l-1.435-6.194zm280.86-8.779c8.941-5.758 20.31-13.001 25.265-16.098 4.955-3.096 13.346-8.521 18.647-12.054 5.301-3.534 10.131-6.425 10.733-6.425 1.01 0 7.754-4.186 38.188-23.701 6.194-3.972 23.17-14.642 37.725-23.713 14.555-9.07 26.464-17.316 26.464-18.323s-42.186-1.831-93.747-1.831h-93.747l1.115 11.824c.613 6.503 2.954 31.841 5.204 56.306 2.249 24.465 4.946 44.482 5.994 44.482s9.22-4.711 18.161-10.468z"/></svg>