<svg xmlns="http://www.w3.org/2000/svg" height="168.78mm" width="228.02mm" viewBox="0 0 807.93797 598.03265"><path d="M337.37 17.718l-29.105 7.432-29.107 7.432-20.721 10.279c-56.03 27.8-94.83 65.42-125.85 122.02l-12.881 23.504-9.133 31.516-9.135 31.518 1.992 3.223c1.096 1.773 3.305 3.223 4.908 3.223h2.914l2.353-14.721c1.295-8.097 7.284-27.504 13.309-43.127l10.95-28.4 18.13-26.84 18.13-26.83 22.645-21.182 22.645-21.184 22.543-12.549c12.398-6.902 31.412-16.028 42.254-20.281l19.713-7.732 28.674-5.057 28.674-5.059 20.295-.004 20.293-.006 26.301 5.033 26.301 5.031 23.299 9.49 23.297 9.492 25.09 17.08 25.09 17.08 23.473 27.127 23.473 27.127 10.082 19.227c12.712 24.24 27.201 62.07 27.201 71.018v6.824l-5.33 1.158-5.328 1.158 9.117 15.234c5.014 8.378 10.235 15.152 11.602 15.055 1.367-.097 6.051-7.355 10.408-16.129l7.924-15.951h-16.302l-8.065-27.91-8.064-27.91-16.404-28.541-16.406-28.543-32.689-32.258-32.691-32.258-25.049-13.203-25.051-13.201-31.762-9.199-31.764-9.199h-82.232zm-232.37 318.99l-.08 4.481c-.044 2.464-3.233 8.513-7.088 13.441-3.855 4.928-7.046 10.975-7.09 13.439l-.08 4.481h17.644l4.092 15.191c5.839 21.685 23.544 54.302 44.455 81.895l18.039 23.801 21.504 18.723 21.506 18.723 22.602 12.652c27.811 15.568 53.168 25.422 81.342 31.609l21.506 4.723 34.049.223 34.051.223 25.09-5.289c43.605-9.193 75.735-24.284 112.51-52.844l21.441-16.65 20.395-24.375 20.395-24.373 15.129-32.258 15.129-32.258 4.639-22.49 4.641-22.49-2.496-2.496-2.496-2.496-3.295 5.273c-1.812 2.9-5.114 14.142-7.34 24.984-14.037 68.371-64.072 132.46-132.34 169.52l-23.299 12.646-28.674 8.143-28.674 8.141-43.01.1-43.012.1-23.297-6.725c-46.97-13.54-80.53-32.11-117.63-65.05l-19.055-16.922-15.463-21.816c-17.025-24.019-30.848-50.206-37.754-71.523l-4.492-13.867 4.748-2.936 4.75-2.934-8.166-16.354-8.166-16.352h-6.666zm191.98-235.658v.903h-14.185v-.903h1.172q2.051 0 2.978-1.196.586-.781.586-3.76v-21.387q0-2.515-.317-3.32-.244-.61-1.001-1.05-1.074-.586-2.246-.586h-1.172v-.903h14.185v.903h-1.196q-2.026 0-2.954 1.196-.61.781-.61 3.76v21.387q0 2.515.317 3.32.244.61 1.025 1.05 1.05.586 2.222.586h1.196zm.61-32.2h8.984l20.239 24.829v-19.092q0-3.052-.684-3.809-.903-1.025-2.856-1.025h-1.147v-.903h11.523v.903h-1.172q-2.1 0-2.978 1.27-.537.781-.537 3.564v27.905h-.879l-21.826-26.66v20.386q0 3.052.659 3.809.928 1.025 2.856 1.025h1.172v.903h-11.523v-.903h1.147q2.124 0 3.003-1.27.537-.781.537-3.564v-23.022q-1.44-1.685-2.197-2.222-.732-.537-2.173-1.001-.708-.22-2.148-.22v-.903zm37.65 33.1v-.903h1.245q2.1 0 2.978-1.343.537-.806.537-3.613v-21.387q0-3.101-.684-3.882-.952-1.074-2.832-1.074h-1.245v-.903h13.477q7.422 0 11.279 1.685 3.882 1.685 6.226 5.615 2.368 3.931 2.368 9.082 0 6.909-4.199 11.548-4.712 5.176-14.355 5.176h-14.795zm9.448-2.393q3.101.684 5.2.684 5.664 0 9.399-3.979 3.735-3.979 3.735-10.791 0-6.86-3.735-10.815-3.735-3.955-9.595-3.955-2.197 0-5.005.708v28.149zm49.682-29.807v-.903h11.719v.903h-1.245q-1.953 0-3.003 1.636-.513.757-.513 3.516v13.428q0 4.981-1.001 7.739-.977 2.734-3.882 4.712-2.881 1.953-7.861 1.953-5.42 0-8.227-1.88t-3.979-5.054q-.781-2.173-.781-8.154v-12.939q0-3.052-.855-4.004-.83-.952-2.71-.952h-1.245v-.903h14.307v.903h-1.27q-2.051 0-2.93 1.294-.61.879-.61 3.662v14.429q0 1.929.342 4.419.366 2.49 1.294 3.882t2.661 2.295q1.758.903 4.297.903 3.247 0 5.811-1.416 2.563-1.416 3.491-3.613.952-2.222.952-7.495v-13.403q0-3.101-.684-3.882-.952-1.074-2.832-1.074h-1.245zm42.38-1.66l.757 11.255h-.757q-1.514-5.054-4.321-7.275t-6.738-2.222q-3.296 0-5.957 1.685-2.661 1.66-4.199 5.322-1.514 3.662-1.514 9.106 0 4.492 1.44 7.788t4.321 5.054q2.905 1.758 6.616 1.758 3.223 0 5.689-1.367 2.466-1.392 5.42-5.493l.757.488q-2.49 4.419-5.811 6.47t-7.886 2.051q-8.227 0-12.744-6.104-3.369-4.541-3.369-10.693 0-4.956 2.222-9.106 2.222-4.15 6.104-6.421 3.906-2.295 8.521-2.295 3.589 0 7.08 1.758 1.025.537 1.465.537.659 0 1.147-.464.635-.659.903-1.831h.854zm13.75 2.56v13.086h7.275q2.832 0 3.784-.854 1.27-1.123 1.416-3.955h.903v11.523h-.903q-.342-2.417-.684-3.101-.439-.854-1.44-1.343-1.001-.488-3.076-.488h-7.275v10.913q0 2.197.195 2.686.195.464.684.757.488.269 1.855.269h5.615q2.808 0 4.077-.391 1.27-.391 2.441-1.538 1.514-1.514 3.101-4.565h.977l-2.856 8.301h-25.513v-.903h1.172q1.172 0 2.222-.562.781-.391 1.05-1.172.293-.781.293-3.198v-21.509q0-3.149-.635-3.882-.879-.977-2.93-.977h-1.172v-.903h25.513l.366 7.251h-.952q-.513-2.612-1.147-3.589-.61-.977-1.831-1.489-.977-.366-3.442-.366h-9.082zm-423.36 239.95v9.644q0 3.125.684 3.882.928 1.074 2.808 1.074h1.27v.903h-14.185v-.903h1.245q2.1 0 3.003-1.367.488-.757.488-3.589v-21.387q0-3.125-.659-3.882-.952-1.074-2.832-1.074h-1.245v-.903h12.134q4.443 0 7.007.928 2.563.903 4.321 3.076 1.758 2.173 1.758 5.151 0 4.053-2.686 6.592-2.661 2.539-7.544 2.539-1.196 0-2.588-.171t-2.978-.513zm0-1.392q1.294.244 2.295.366t1.709.122q2.539 0 4.37-1.953 1.855-1.978 1.855-5.103 0-2.148-.879-3.979-.879-1.855-2.49-2.759-1.611-.928-3.662-.928-1.245 0-3.198.464v13.77zm51.37 16.892h-8.838l-11.206-15.479q-1.245.049-2.026.049h-.684l-.757-.049v9.619q0 3.125.684 3.882.928 1.074 2.783 1.074h1.294v.903h-14.185v-.903h1.245q2.1 0 3.003-1.367.513-.757.513-3.589v-21.387q0-3.125-.684-3.882-.952-1.074-2.832-1.074h-1.245v-.903h12.061q5.273 0 7.764.781 2.515.757 4.248 2.832 1.758 2.051 1.758 4.907 0 3.052-2.002 5.298-1.978 2.246-6.152 3.174l6.836 9.497q2.344 3.272 4.028 4.346 1.685 1.074 4.394 1.367v.903zm-23.511-17.017q.464 0 .806.024h.562q4.736 0 7.129-2.051 2.417-2.051 2.417-5.225 0-3.101-1.953-5.029-1.929-1.953-5.127-1.953-1.416 0-3.833.464v13.77zm33.571-14.273v13.086h7.275q2.832 0 3.784-.854 1.27-1.123 1.416-3.955h.903v11.523h-.903q-.342-2.417-.684-3.101-.439-.854-1.44-1.343-1.001-.488-3.076-.488h-7.275v10.913q0 2.197.195 2.686.195.464.684.757.488.269 1.855.269h5.615q2.808 0 4.077-.391 1.27-.391 2.441-1.538 1.514-1.514 3.101-4.565h.977l-2.856 8.301h-25.513v-.903h1.172q1.172 0 2.222-.562.781-.391 1.05-1.172.293-.781.293-3.198v-21.509q0-3.149-.635-3.882-.879-.977-2.93-.977h-1.172v-.903h25.513l.366 7.251h-.952q-.513-2.612-1.147-3.589-.61-.977-1.831-1.489-.977-.366-3.442-.366h-9.082zm43.04-2.57v11.45h-.903q-.439-3.296-1.587-5.249-1.123-1.953-3.223-3.101-2.1-1.147-4.346-1.147-2.539 0-4.199 1.563-1.66 1.538-1.66 3.516 0 1.514 1.05 2.759 1.514 1.831 7.202 4.883 4.639 2.49 6.323 3.833 1.709 1.318 2.612 3.125.928 1.807.928 3.784 0 3.76-2.93 6.494-2.905 2.71-7.495 2.71-1.44 0-2.71-.22-.757-.122-3.149-.879-2.368-.781-3.003-.781-.61 0-.977.366-.342.366-.513 1.514h-.903v-11.353h.903q.635 3.564 1.709 5.347 1.074 1.758 3.272 2.93 2.222 1.172 4.858 1.172 3.052 0 4.81-1.611 1.782-1.611 1.782-3.809 0-1.221-.684-2.466-.659-1.245-2.075-2.319-.952-.732-5.2-3.101-4.248-2.393-6.055-3.809-1.782-1.416-2.71-3.125-.928-1.709-.928-3.76 0-3.564 2.734-6.128 2.734-2.588 6.958-2.588 2.637 0 5.591 1.294 1.367.61 1.929.61.635 0 1.025-.366.415-.391.659-1.538h.903zm20.34 32.96v.903h-14.185v-.903h1.172q2.051 0 2.978-1.196.586-.781.586-3.76v-21.387q0-2.515-.317-3.32-.244-.61-1.001-1.05-1.074-.586-2.246-.586h-1.172v-.903h14.185v.903h-1.196q-2.026 0-2.954 1.196-.61.781-.61 3.76v21.387q0 2.515.317 3.32.244.61 1.025 1.05 1.05.586 2.222.586h1.196zm19.55-32.96q6.445 0 11.157 4.907 4.736 4.883 4.736 12.207 0 7.544-4.761 12.524-4.761 4.981-11.523 4.981-6.836 0-11.499-4.858-4.639-4.858-4.639-12.573 0-7.886 5.371-12.866 4.663-4.321 11.157-4.321zm-.464 1.782q-4.443 0-7.129 3.296-3.345 4.102-3.345 12.012 0 8.105 3.467 12.476 2.661 3.32 7.031 3.32 4.663 0 7.69-3.638 3.052-3.638 3.052-11.475 0-8.496-3.345-12.671-2.686-3.32-7.422-3.32zm5.542-11.792l-7.202 8.423h-.83l2.563-8.423h5.469zm12.112 10.77h8.984l20.239 24.829v-19.092q0-3.052-.684-3.809-.903-1.025-2.856-1.025h-1.147v-.903h11.523v.903h-1.172q-2.1 0-2.978 1.27-.537.781-.537 3.564v27.905h-.879l-21.826-26.66v20.386q0 3.052.659 3.809.928 1.025 2.856 1.025h1.172v.903h-11.523v-.903h1.147q2.124 0 3.003-1.27.537-.781.537-3.564v-23.022q-1.44-1.685-2.197-2.222-.732-.537-2.173-1.001-.708-.22-2.148-.22v-.903zm95.53 212.03h-12.817l-2.246 5.225q-.83 1.929-.83 2.881 0 .757.708 1.343.732.562 3.125.732v.903h-10.425v-.903q2.075-.366 2.686-.952 1.245-1.172 2.759-4.761l11.646-27.246h.854l11.523 27.539q1.392 3.32 2.515 4.321 1.147.977 3.174 1.099v.903h-13.062v-.903q1.978-.098 2.661-.659.708-.562.708-1.367 0-1.074-.977-3.394l-2.002-4.761zm-.684-1.807l-5.615-13.379-5.762 13.379h11.377zm37.794-19.313v-.903h11.719v.903h-1.245q-1.953 0-3.003 1.636-.513.757-.513 3.516v13.428q0 4.981-1.001 7.739-.977 2.734-3.882 4.712-2.881 1.953-7.861 1.953-5.42 0-8.227-1.88t-3.979-5.054q-.781-2.173-.781-8.154v-12.939q0-3.052-.854-4.004-.83-.952-2.71-.952h-1.245v-.903h14.307v.903h-1.27q-2.051 0-2.93 1.294-.61.879-.61 3.662v14.429q0 1.929.342 4.419.366 2.49 1.294 3.882t2.661 2.295q1.758.903 4.297.903 3.247 0 5.811-1.416t3.491-3.613q.952-2.222.952-7.495v-13.403q0-3.101-.684-3.882-.952-1.074-2.832-1.074h-1.245zm32.74 32.2l-12.793-27.856v22.119q0 3.052.659 3.809.903 1.025 2.856 1.025h1.172v.903h-11.523v-.903h1.172q2.1 0 2.978-1.27.537-.781.537-3.564v-21.631q0-2.197-.488-3.174-.342-.708-1.27-1.172-.903-.488-2.93-.488v-.903h9.375l12.012 25.903 11.816-25.903h9.375v.903h-1.147q-2.124 0-3.003 1.27-.537.781-.537 3.564v21.631q0 3.052.684 3.809.903 1.025 2.856 1.025h1.147v.903h-14.062v-.903h1.172q2.124 0 2.978-1.27.537-.781.537-3.564v-22.119l-12.769 27.856h-.806zm34.43-31.29v13.086h7.275q2.832 0 3.784-.854 1.27-1.123 1.416-3.955h.903v11.523h-.903q-.342-2.417-.684-3.101-.439-.855-1.44-1.343t-3.076-.488h-7.275v10.913q0 2.197.195 2.686.195.464.684.757.488.269 1.855.269h5.615q2.808 0 4.077-.391 1.27-.391 2.441-1.538 1.514-1.514 3.101-4.565h.977l-2.856 8.301h-25.513v-.903h1.172q1.172 0 2.222-.562.781-.391 1.05-1.172.293-.781.293-3.198v-21.509q0-3.149-.635-3.882-.879-.977-2.93-.977h-1.172v-.903h25.513l.366 7.251h-.952q-.513-2.612-1.147-3.589-.61-.977-1.831-1.489-.977-.366-3.442-.366h-9.082zm19.45-1.81h8.984l20.239 24.829v-19.092q0-3.052-.684-3.809-.903-1.025-2.856-1.025h-1.147v-.903h11.523v.903h-1.172q-2.1 0-2.978 1.27-.537.781-.537 3.564v27.905h-.879l-21.826-26.66v20.386q0 3.052.659 3.809.928 1.025 2.856 1.025h1.172v.903h-11.523v-.903h1.147q2.124 0 3.003-1.27.537-.781.537-3.564v-23.022q-1.44-1.685-2.197-2.222-.732-.537-2.173-1.001-.708-.22-2.148-.22v-.903zm65.73 0l.366 7.764h-.928q-.269-2.051-.732-2.93-.757-1.416-2.026-2.075-1.245-.684-3.296-.684h-4.663v25.293q0 3.052.659 3.809.928 1.025 2.856 1.025h1.147v.903h-14.038v-.903h1.172q2.1 0 2.978-1.27.537-.781.537-3.564v-25.293h-3.979q-2.319 0-3.296.342-1.27.464-2.173 1.782t-1.074 3.564h-.928l.391-7.764h27.026zm20.6 22.02h-12.817l-2.246 5.225q-.83 1.929-.83 2.881 0 .757.708 1.343.732.562 3.125.732v.903h-10.425v-.903q2.075-.366 2.686-.952 1.245-1.172 2.759-4.761l11.646-27.246h.854l11.523 27.539q1.392 3.32 2.515 4.321 1.147.977 3.174 1.099v.903h-13.062v-.903q1.978-.098 2.661-.659.708-.562.708-1.367 0-1.074-.977-3.394l-2.002-4.761zm-.684-1.807l-5.615-13.379-5.762 13.379h11.377zm-86.986-216.943l.757 11.255h-.757q-1.514-5.054-4.321-7.275t-6.738-2.222q-3.296 0-5.957 1.685-2.661 1.66-4.199 5.322-1.514 3.662-1.514 9.106 0 4.492 1.44 7.788t4.321 5.054q2.905 1.758 6.616 1.758 3.223 0 5.689-1.367 2.466-1.392 5.42-5.493l.757.488q-2.49 4.419-5.811 6.47t-7.886 2.051q-8.227 0-12.744-6.104-3.369-4.541-3.369-10.693 0-4.956 2.222-9.106t6.104-6.421q3.906-2.295 8.521-2.295 3.589 0 7.08 1.758 1.025.537 1.465.537.659 0 1.147-.464.635-.659.903-1.831h.854zm21.58 0q6.445 0 11.157 4.907 4.736 4.883 4.736 12.207 0 7.544-4.761 12.524-4.761 4.981-11.523 4.981-6.836 0-11.499-4.858-4.639-4.858-4.639-12.573 0-7.886 5.371-12.866 4.663-4.321 11.157-4.321zm-.464 1.782q-4.443 0-7.129 3.296-3.345 4.102-3.345 12.012 0 8.105 3.467 12.476 2.661 3.32 7.031 3.32 4.663 0 7.69-3.638 3.052-3.638 3.052-11.475 0-8.496-3.345-12.671-2.686-3.32-7.422-3.32zm17.654-1.022h8.984l20.239 24.829v-19.092q0-3.052-.684-3.809-.903-1.025-2.856-1.025h-1.147v-.903h11.523v.903h-1.172q-2.1 0-2.978 1.27-.537.781-.537 3.564v27.905h-.879l-21.826-26.66v20.386q0 3.052.659 3.809.928 1.025 2.856 1.025h1.172v.903h-11.523v-.903h1.147q2.124 0 3.003-1.27.537-.781.537-3.564v-23.022q-1.44-1.685-2.197-2.222-.732-.537-2.173-1.001-.708-.22-2.148-.22v-.903zm65.72 0l.366 7.764h-.928q-.269-2.051-.732-2.93-.757-1.416-2.026-2.075-1.245-.684-3.296-.684h-4.663v25.293q0 3.052.659 3.809.928 1.025 2.856 1.025h1.147v.903h-14.038v-.903h1.172q2.1 0 2.978-1.27.537-.781.537-3.564v-25.293h-3.979q-2.319 0-3.296.342-1.27.464-2.173 1.782t-1.074 3.564h-.928l.391-7.764h27.026zm35.52 33.11h-8.838l-11.206-15.479q-1.245.049-2.026.049h-.684l-.757-.049v9.619q0 3.125.684 3.882.928 1.074 2.783 1.074h1.294v.903h-14.185v-.903h1.245q2.1 0 3.003-1.367.513-.757.513-3.589v-21.387q0-3.125-.684-3.882-.952-1.074-2.832-1.074h-1.245v-.903h12.061q5.273 0 7.764.781 2.515.757 4.248 2.832 1.758 2.051 1.758 4.907 0 3.052-2.002 5.298-1.978 2.246-6.152 3.174l6.836 9.497q2.344 3.272 4.028 4.346 1.685 1.074 4.394 1.367v.903zm-23.511-17.017q.464 0 .806.024h.562q4.736 0 7.129-2.051 2.417-2.051 2.417-5.225 0-3.101-1.953-5.029-1.929-1.953-5.127-1.953-1.416 0-3.833.464v13.77zm46.001 5.927h-12.817l-2.246 5.225q-.83 1.929-.83 2.881 0 .757.708 1.343.732.562 3.125.732v.903h-10.425v-.903q2.075-.366 2.686-.952 1.245-1.172 2.759-4.761l11.646-27.246h.855l11.523 27.539q1.392 3.32 2.515 4.321 1.147.977 3.174 1.099v.903h-13.062v-.903q1.978-.098 2.661-.659.708-.562.708-1.367 0-1.074-.977-3.394l-2.002-4.761zm-.684-1.807l-5.615-13.379-5.762 13.379h11.377zm24.194-2.613v9.644q0 3.125.684 3.882.928 1.074 2.808 1.074h1.27v.903h-14.185v-.903h1.245q2.1 0 3.003-1.367.488-.757.488-3.589v-21.387q0-3.125-.659-3.882-.952-1.074-2.832-1.074h-1.245v-.903h12.134q4.443 0 7.007.928 2.563.903 4.321 3.076 1.758 2.173 1.758 5.151 0 4.053-2.686 6.592-2.661 2.539-7.544 2.539-1.196 0-2.588-.171-1.392-.171-2.978-.513zm0-1.392q1.294.244 2.295.366t1.709.122q2.539 0 4.37-1.953 1.855-1.978 1.855-5.103 0-2.148-.879-3.979-.879-1.855-2.49-2.759-1.611-.928-3.662-.928-1.245 0-3.198.464v13.77zm51.34 16.902h-8.838l-11.206-15.479q-1.245.049-2.026.049h-.684l-.757-.049v9.619q0 3.125.684 3.882.928 1.074 2.783 1.074h1.294v.903h-14.185v-.903h1.245q2.1 0 3.003-1.367.513-.757.513-3.589v-21.387q0-3.125-.684-3.882-.952-1.074-2.832-1.074h-1.245v-.903h12.061q5.273 0 7.764.781 2.515.757 4.248 2.832 1.758 2.051 1.758 4.907 0 3.052-2.002 5.298-1.978 2.246-6.152 3.174l6.836 9.497q2.344 3.272 4.028 4.346t4.394 1.367v.903zm-23.511-17.017q.464 0 .806.024h.562q4.736 0 7.129-2.051 2.417-2.051 2.417-5.225 0-3.101-1.953-5.029-1.929-1.953-5.127-1.953-1.416 0-3.833.464v13.77zm33.611-14.283v13.086h7.275q2.832 0 3.784-.854 1.27-1.123 1.416-3.955h.903v11.523h-.903q-.342-2.417-.684-3.101-.44-.854-1.44-1.343-1.001-.488-3.076-.488h-7.275v10.913q0 2.197.195 2.686.195.464.684.757.488.269 1.855.269h5.615q2.808 0 4.077-.391 1.27-.391 2.441-1.538 1.514-1.514 3.101-4.565h.977l-2.856 8.301h-25.513v-.903h1.172q1.172 0 2.222-.562.781-.391 1.05-1.172.293-.781.293-3.198v-21.509q0-3.149-.635-3.882-.879-.977-2.93-.977h-1.172v-.903h25.513l.366 7.251h-.952q-.513-2.612-1.147-3.589-.61-.977-1.831-1.489-.977-.366-3.442-.366h-9.082zm43-2.57v11.45h-.903q-.44-3.296-1.587-5.249-1.123-1.953-3.223-3.101t-4.346-1.147q-2.539 0-4.199 1.563-1.66 1.538-1.66 3.516 0 1.514 1.05 2.759 1.514 1.831 7.202 4.883 4.639 2.49 6.323 3.833 1.709 1.318 2.612 3.125.928 1.807.928 3.784 0 3.76-2.93 6.494-2.905 2.71-7.495 2.71-1.44 0-2.71-.22-.757-.122-3.149-.879-2.368-.781-3.003-.781-.61 0-.977.366-.342.366-.513 1.514h-.903v-11.353h.903q.635 3.564 1.709 5.347 1.074 1.758 3.272 2.93 2.222 1.172 4.858 1.172 3.052 0 4.809-1.611 1.782-1.611 1.782-3.809 0-1.221-.684-2.466-.659-1.245-2.075-2.319-.952-.732-5.2-3.101-4.248-2.393-6.055-3.809-1.782-1.416-2.71-3.125-.928-1.709-.928-3.76 0-3.564 2.734-6.128 2.734-2.588 6.958-2.588 2.637 0 5.591 1.294 1.367.61 1.929.61.635 0 1.025-.366.415-.391.659-1.538h.903zm20.4 32.96v.903h-14.185v-.903h1.172q2.051 0 2.978-1.196.586-.781.586-3.76v-21.387q0-2.515-.317-3.32-.244-.61-1.001-1.05-1.074-.586-2.246-.586h-1.172v-.903h14.185v.903h-1.196q-2.026 0-2.954 1.196-.61.781-.61 3.76v21.387q0 2.515.317 3.32.244.61 1.025 1.05 1.05.586 2.222.586h1.196zm19.5-32.96q6.445 0 11.157 4.907 4.736 4.883 4.736 12.207 0 7.544-4.761 12.524-4.761 4.981-11.523 4.981-6.836 0-11.499-4.858-4.639-4.858-4.639-12.573 0-7.886 5.371-12.866 4.663-4.321 11.157-4.321zm-.464 1.782q-4.443 0-7.129 3.296-3.345 4.102-3.345 12.012 0 8.105 3.467 12.476 2.661 3.32 7.031 3.32 4.663 0 7.691-3.638 3.052-3.638 3.052-11.475 0-8.496-3.345-12.671-2.686-3.32-7.422-3.32zm5.542-11.792l-7.202 8.423h-.83l2.563-8.423h5.469zm12.122 10.77h8.984l20.239 24.829v-19.092q0-3.052-.684-3.809-.903-1.025-2.856-1.025h-1.147v-.903h11.523v.903h-1.172q-2.1 0-2.978 1.27-.537.781-.537 3.564v27.905h-.879l-21.826-26.66v20.386q0 3.052.659 3.809.928 1.025 2.857 1.025h1.172v.903h-11.524v-.903h1.147q2.124 0 3.003-1.27.537-.781.537-3.564v-23.022q-1.44-1.685-2.197-2.222-.733-.537-2.173-1.001-.708-.22-2.148-.22v-.903z"/></svg>