<svg xmlns="http://www.w3.org/2000/svg" height="179.98mm" width="258.68mm" viewBox="0 0 916.59985 637.72969"><path d="M476.37 616.92c-23.187-1.201-85.684-4.913-138.88-8.25-53.199-3.337-131.55-8.137-174.11-10.667-42.56-2.53-92.476-5.514-110.93-6.631l-33.545-2.03-.681-234.38c-.375-128.91-.593-234.38-.485-234.38.561 0 191.03-65.163 231.95-79.352 56.796-19.697 75.791-25.229 79.261-23.084 1.421.878 2.584 89.241 2.584 196.36v194.76l26.042.251c14.323.138 141.17.827 281.89 1.531 144.11.721 257.01 2.44 258.5 3.936 3.064 3.064.741 4.646-44.111 30.014-18.006 10.184-36.756 20.824-41.667 23.644-4.911 2.82-16.964 9.56-26.786 14.978-9.821 5.418-30.58 17.435-46.131 26.705-15.551 9.27-50.372 29.362-77.381 44.649s-58.482 33.457-69.94 40.377c-30.38 18.349-48.449 25.527-61.839 24.567-6.371-.457-30.554-1.813-53.741-3.014zm76.264-8.618c6.892-3.486 22.217-12.191 34.057-19.345 11.84-7.154 22.082-13.008 22.761-13.008.679 0 9.742-5.154 20.14-11.453 10.398-6.299 27.611-16.166 38.251-21.927 10.64-5.761 49.931-27.947 87.314-49.304 37.383-21.356 81.206-45.976 97.385-54.71 16.179-8.734 29.455-16.885 29.501-18.112.047-1.228-123.21-2.232-273.9-2.232h-273.99l-37.77 21.23c-20.774 11.676-45.136 25.273-54.139 30.215s-29.762 16.626-46.131 25.964c-16.369 9.338-36.458 20.694-44.643 25.236-97.943 54.345-105.95 59.159-102.02 61.356 4.263 2.386 104.72 9.326 212.14 14.655 32.738 1.624 74.256 4.286 92.262 5.915s63.542 4.44 101.19 6.247c37.649 1.807 69.01 3.809 69.692 4.449 3.227 3.028 16.573.553 27.896-5.174zm-163.16-48.64c-37.43-8.149-60.913-25.224-60.913-44.291 0-13.708 6.216-20.725 26.367-29.768 24.128-10.828 45.936-14.524 88.216-14.949 32.355-.325 37.874.435 58.67 8.087 36.404 13.395 51.404 34.248 37.462 52.079-20.804 26.609-94.706 40.837-149.8 28.842zm63.028-30.299c14.496-13.346 30.892-28.221 36.435-33.056 7.065-6.162 8.987-9.465 6.428-11.047-2.257-1.395-8.219 2.134-15.618 9.246-13.897 13.357-21.506 20.509-44.87 42.177-9.366 8.686-17.03 17.124-17.03 18.749 0 4.732 6.55-.196 34.655-26.069zm21.611-4.357c19.754-18.198 35.158-34.314 34.231-35.814-.927-1.5-6.601 1.558-12.609 6.795-21.474 18.72-63.007 58.439-63.007 60.256 0 5.425 8.791-1.21 41.385-31.236zm-42.538 8.533c12.428-11.868 30.159-28.722 39.404-37.455 14.82-13.999 15.84-15.665 8.624-14.08-4.75 1.043-8.184.524-8.184-1.236 0-6.83-8.486-1.908-26.953 15.634-10.732 10.194-27.808 26.331-37.946 35.859-10.139 9.528-18.434 17.997-18.434 18.819 0 5.343 13.014-4.668 44.558-34.277 19.833-18.616 36.825-33.082 37.761-32.147 1.55 1.55-22.626 25.357-54.789 53.953-12.414 11.038-15.609 16.506-9.642 16.506 1.654 0 13.175-9.71 25.602-21.577zm57.931-7.886c17.061-16.205 30.08-30.425 28.933-31.6-1.666-1.707-67.854 57.006-67.854 60.191 0 .48 1.778.872 3.951.872s17.91-13.258 34.97-29.463zm14.536 2.258c13.55-12.507 24.075-24.424 23.39-26.481-.73-2.189-12.115 6.624-27.455 21.252-14.415 13.746-27.407 25.439-28.871 25.985-1.465.546-2.663 2.177-2.663 3.624 0 5.628 11.973-2.572 35.6-24.381zm-98.881-.709c12.706-12.079 29.799-28.113 37.983-35.63 11.572-10.629 13.557-13.655 8.929-13.608-3.493.035-21.321 14.745-43.155 35.608-22.58 21.576-35.17 35.557-32.031 35.57 2.844.012 15.568-9.861 28.274-21.94zm111.79 5.144c25.388-24.566 19.391-27.831-6.808-3.706-16.164 14.884-20.662 20.508-16.369 20.465 3.256-.033 13.686-7.574 23.177-16.758zm-112.77-20.04c19.492-18.493 34.218-34.38 32.724-35.303-1.494-.923-12.085 7.052-23.535 17.723-11.451 10.671-27.181 25.149-34.956 32.173-12.821 11.583-17.753 19.523-11.905 19.167 1.228-.075 18.18-15.267 37.672-33.76zm-29.818 11.76c45.737-40.698 52.753-48.265 42.456-45.791-4.937 1.186-64.447 56.164-64.447 59.539 0 4.755 4.023 2.24 21.991-13.749zm155.09 7.255c2.963-3.274 4.048-5.952 2.411-5.952s-5.4 2.679-8.363 5.952c-2.963 3.274-4.048 5.952-2.411 5.952s5.4-2.679 8.363-5.952zm-152.53-24.77c24.977-22.713 29.805-28.799 22.847-28.799-4.201 0-54.54 47.914-55.872 53.18-1.548 6.121 3.932 2.075 33.024-24.38zm-27.111 10.635c4.045-4.502 12.074-12.296 17.842-17.321 13.221-11.519 16.179-16.161 10.297-16.161-5.879 0-43.905 35.528-41.753 39.011 2.703 4.374 5.871 3.088 13.614-5.529zm3.885-20.988c.997-2.444.219-3.101-2.106-1.779-6.698 3.807-14.103 10.998-14.103 13.695 0 3.496 14.172-6.922 16.208-11.916zm-291.95 65.848c16.614-9.293 34.225-19.123 39.136-21.844 12.919-7.16 52.306-29.46 61.012-34.543 4.092-2.389 42.262-23.61 84.821-47.156l77.381-42.811.607-195.16c.567-182.12.268-195.16-4.464-195.15-2.789.008-31.857 9.213-64.596 20.454-32.738 11.241-70.238 24.092-83.333 28.556-13.095 4.465-26.488 9.317-29.762 10.783-3.274 1.466-13.988 5.29-23.81 8.499-9.821 3.208-34.598 11.769-55.06 19.025l-37.202 13.191-.188 222.8c-.103 122.54.375 224.48 1.063 226.52.688 2.046 1.911 3.72 2.718 3.72.808 0 15.062-7.603 31.676-16.896zm19.658-81.862c-.073-2.156-.619-10.617-1.213-18.802-.594-8.184-1.976-75.149-3.071-148.81-1.094-73.661-2.587-136.08-3.316-138.71-.946-3.41 2.346-6.182 11.487-9.673 7.047-2.691 13.94-4.893 15.317-4.893 1.377 0 10.038-3.248 19.246-7.217 9.208-3.969 28.795-11.469 43.527-16.667 14.732-5.197 45.302-16.804 67.932-25.794 22.63-8.989 41.575-15.886 42.098-15.327.524.559 1.903 62.624 3.064 137.92 1.162 75.298 3.311 138.18 4.777 139.73 4.388 4.656 3.042 7.589-3.483 7.589-3.381 0-17.485 6.696-31.341 14.881-13.857 8.184-25.66 14.881-26.229 14.881-.569 0-11.577 5.814-24.462 12.919-12.885 7.106-39.499 21.281-59.142 31.501s-37.059 20.283-38.702 22.362c-4.639 5.87-16.332 8.78-16.49 4.103zm16.65-13.953c1.555-1.425 33.631-18.41 71.28-37.744s74.873-38.927 82.72-43.539c7.847-4.613 15.405-8.387 16.795-8.387 1.39 0 3.298-2.009 4.24-4.464 2.728-7.109-1.625-5.541-37.333 13.453-30.942 16.459-73.3 38.494-125.72 65.401-11.335 5.818-21.157 12.22-21.825 14.225-1.393 4.18 5.618 4.931 9.846 1.055zm144.2-88.926c27.442-14.432 31.837-17.519 28.99-20.366-1.698-1.698-37.753 16.38-147.3 73.861-21.695 11.383-38.674 21.945-37.732 23.471 1.47 2.379 61.082-27.023 156.05-76.966zm-130.28 54.76c10.272-5.484 41.444-21.749 69.271-36.144s59.635-30.872 70.685-36.614c11.049-5.743 20.089-12.329 20.089-14.635 0-2.809-11.055 1.64-33.482 13.477-18.415 9.719-52.232 27.411-75.149 39.315-64.773 33.647-74.2 38.745-77.232 41.761-6.334 6.3 8.112 2.295 25.818-7.159zm18.258-22.347c21.51-11.228 60.537-31.502 86.728-45.055 47.963-24.819 57.76-31.038 54.318-34.48-1.032-1.032-21.711 8.793-45.954 21.833s-65.832 34.945-92.419 48.68c-44.126 22.794-54.298 29.435-45.084 29.435 1.816 0 20.901-9.186 42.411-20.414zm4.942-15.518c25.339-13.215 65.491-34.142 89.226-46.506 23.735-12.363 44.405-23.627 45.933-25.031 5.507-5.059-1.854-6.9-9.666-2.417-11.23 6.444-83.492 44.549-132.92 70.089-36.434 18.827-49.819 27.891-41.185 27.891 1.397 0 23.272-10.812 48.611-24.027zm46.071-37.021c14.732-7.705 41.183-21.528 58.78-30.719 17.597-9.191 31.994-18.537 31.994-20.769 0-2.589-13.728 3.196-37.946 15.992-20.871 11.027-54.688 28.714-75.149 39.306-60.533 31.333-74.631 39.585-72.77 42.596.969 1.568 16.734-5.08 35.034-14.773 18.299-9.693 45.325-23.928 60.057-31.632zm-53.942 15.187c76.251-40.308 140.23-73.186 142.43-73.186 1.258 0 2.287-2.009 2.287-4.464s-.606-4.464-1.346-4.464c-.74 0-25.182 12.586-54.315 27.968s-67.809 35.806-85.946 45.387c-37.048 19.57-49.368 27.448-43.287 27.68 2.252.086 20.332-8.428 40.179-18.919zm-25.656.257c16.524-8.09 84.858-43.82 106.38-55.625 8.184-4.489 25.93-13.774 39.435-20.633 22.033-11.192 30.158-18.018 21.448-18.018-1.708 0-17.83 8.036-35.826 17.857-17.996 9.821-33.256 17.857-33.912 17.857-.656 0-17.056 8.558-36.444 19.017-19.388 10.46-44.918 23.944-56.732 29.964-11.814 6.021-21.48 12.195-21.48 13.721 0 3.924 1.294 3.611 17.128-4.14zm77.348-53.087c50.345-26.453 92.094-48.551 92.776-49.107.682-.556.282-1.968-.888-3.139-3.322-3.322-183.73 90.962-185.77 97.086-.597 1.791-.312 3.256.632 3.256s42.909-21.643 93.254-48.097zm-47.524 11.951c76.887-40.027 136.08-71.688 138.86-74.27 1.528-1.42 1.975-3.384.994-4.366-2.103-2.103-186.57 94.391-186.71 97.667-.197 4.626 7.118 1.655 46.856-19.032zm9.214-17.971c28.856-15.032 69.848-36.375 91.093-47.429 34.783-18.098 46.625-26.431 37.563-26.431-1.746 0-32.996 15.885-69.444 35.3s-77.319 40.964-90.823 47.886c-13.504 6.923-24.554 13.805-24.554 15.295s.832 2.709 1.849 2.709 25.459-12.299 54.315-27.331zm-45.67 11.43c3.229-2.201 32.656-17.812 65.394-34.692s68.684-35.838 79.88-42.13c11.196-6.292 21.411-11.439 22.701-11.439 3.332 0 9.286-7.677 7.409-9.554-.861-.861-17.256 6.725-36.433 16.858s-52.278 27.605-73.558 38.827c-68.059 35.891-74.124 39.337-75.267 42.765-1.506 4.519 2.708 4.247 9.873-.636zm48.301-38.726c29.044-15.315 69.235-36.235 89.312-46.489s37.287-19.91 38.244-21.459c5.946-9.62-7.78-3.15-120.88 56.987-18.824 10.009-41.257 21.775-49.851 26.147-14.491 7.371-19.767 12.661-12.629 12.661 1.648 0 26.759-12.531 55.804-27.846zm-24.35.12c16.246-8.702 57.329-30.225 91.295-47.829 54.441-28.216 69.065-37.54 58.882-37.54-1.581 0-25.353 11.915-52.827 26.477-27.474 14.563-68.01 35.92-90.08 47.461-35.514 18.572-48.099 27.252-39.512 27.252 1.487 0 15.996-7.12 32.242-15.821zm71.923-50.71c42.954-22.601 78.859-42.324 79.789-43.828 4.467-7.228-12.195.283-80.689 36.372-96.76 50.982-103.53 54.774-104.84 58.71-1.503 4.509 14.59-3.291 105.74-51.253zm9.699-17.641c63.329-32.403 77.449-40.836 68.346-40.819-4.992.01-64.312 29.667-118.94 59.465-20.461 11.161-43.564 23.252-51.339 26.868-7.775 3.616-14.137 8.558-14.137 10.982 0 3.154 7.401.405 26.042-9.675 14.323-7.745 54.836-28.815 90.03-46.822zm-37.698 6.455c91.496-47.674 106.15-55.875 106.15-59.406 0-1.517-.697-2.758-1.548-2.758-1.373 0-53.53 27.261-138.33 72.304-15.551 8.26-31.957 16.897-36.458 19.194-7.219 3.684-11.216 9.693-6.448 9.693.955 0 35.442-17.562 76.637-39.027zm-63.124 19.924c22.235-12.288 121.94-63.745 146.18-75.438 12.669-6.113 23.048-12.788 23.065-14.835.036-4.25-6.324-4.963-10.534-1.181-2.629 2.361-27.146 15.319-133.71 70.666-22.877 11.882-42.074 23.04-42.659 24.794-1.661 4.981 3.522 3.805 17.659-4.007zm43.168-35.213c32.228-16.778 73.786-38.434 92.351-48.124 30.158-15.741 39.503-22.561 30.913-22.561-7.655 0-184.66 94.405-184.66 98.488 0 1.486.629 2.703 1.399 2.703.769 0 27.767-13.728 59.996-30.506zm-18.239-3.86c19.643-10.703 60.156-31.778 90.03-46.834 29.886-15.062 54.315-29.172 54.315-31.371 0-2.198-1.071-3.551-2.38-3.005-14.343 5.979-185.09 96.804-185.1 98.462-.041 4.958 9.039 1.326 43.136-17.252zm-22.321-.851c39.478-20.151 130.88-67.593 145.83-75.691 18.767-10.165 22.672-13.246 20.076-15.842-1.017-1.017-20.347 7.852-42.956 19.708s-59.188 30.922-81.287 42.369c-51.634 26.747-62.449 32.919-62.477 35.654-.038 3.666 3.617 2.578 20.81-6.199zm1.488-13.914c9.821-4.752 18.928-10.373 20.237-12.492s4.166-3.853 6.349-3.853 21.201-8.862 42.263-19.693 50.347-25.737 65.08-33.124c29.818-14.951 29.9-15.002 27.687-17.215-1.851-1.851-32.541 10.951-55.961 23.342-9.003 4.763-35.672 18.628-59.266 30.81-53.612 27.682-68.711 36.505-68.711 40.147 0 1.578 1.004 2.385 2.232 1.793 1.228-.592 10.268-4.964 20.089-9.716zm-10.503-7.3c2.408-1.523 3.513-3.634 2.456-4.69-2.602-2.602-14.275 1.302-14.275 4.775 0 3.541 6.155 3.497 11.819-.084zm-2.89-12.021c2.455-1.587 3.125-2.885 1.488-2.885s-4.985 1.298-7.441 2.885c-2.455 1.587-3.125 2.885-1.488 2.885s4.985-1.298 7.441-2.885zm55.06-15.3c35.991-18.339 41.094-22.378 18.035-14.273-19.592 6.886-64.166 28.71-64.166 31.417 0 3.9 17.856-2.736 46.131-17.144z"/></svg>