<svg xmlns="http://www.w3.org/2000/svg" height="130.88mm" width="247.73mm" viewBox="0 0 877.78383 463.74042"><g transform="translate(-4.159 -472.1)"><path d="M864.23 778.39h-688.57v-288.57m1.42 287.14l-152.85 138.58" stroke="#000" stroke-width="7" fill="none"/><rect rx="53.713" ry="24.442" height="50.992" width="107.43" y="810.47" x="259.47" stroke-linejoin="round" stroke="#000" stroke-width="4.771" stroke-linecap="square" fill="#fff"/><g transform="matrix(.782 0 0 .782 -4.456 470.45)"><rect rx="68.665" ry="31.246" height="65.186" width="137.33" y="302.52" x="337.85" stroke-linejoin="round" stroke="#000" stroke-width="7" stroke-linecap="square" fill="#fff"/><rect rx="0" ry="0" height="173.24" width="136.31" y="162.94" x="337.91" fill="#fff"/><rect rx="68.665" ry="31.246" height="65.186" width="137.33" y="131.8" x="337.85" stroke-linejoin="round" stroke="#000" stroke-width="7" stroke-linecap="square" fill="#fff"/><path d="M337.85 162.95v174.88m137.21-170.57v172.86" stroke="#000" stroke-width="7" fill="none"/></g><rect rx="53.713" ry="24.442" height="50.992" width="107.43" y="810.47" x="461.04" stroke-linejoin="round" stroke="#000" stroke-width="4.771" stroke-linecap="square" fill="#fff"/><rect rx="53.713" ry="24.442" height="50.992" width="107.43" y="810.47" x="668.04" stroke-linejoin="round" stroke="#000" stroke-width="4.771" stroke-linecap="square" fill="#fff"/><circle cx="723.04" cy="703.39" r="55" stroke="#000" stroke-width="4.77" fill="none"/><rect rx="53.713" ry="24.442" height="50.992" width="107.43" y="708.47" x="461.04" stroke-linejoin="round" stroke="#000" stroke-width="4.771" stroke-linecap="square" fill="#fff"/><rect rx="0" ry="0" height="54.548" width="130.31" y="682.07" x="448.5" fill="#fff"/><path d="M460.63 738.12l51.487-141.4 56.585 141.9" stroke="#000" stroke-width="4.792" fill="none"/></g></svg>