<svg clip-rule="evenodd" fill-rule="evenodd" height="668.09" image-rendering="optimizeQuality" shape-rendering="geometricPrecision" text-rendering="geometricPrecision" viewBox="0 0 1486.0342 668.37077" width="1486" xmlns="http://www.w3.org/2000/svg"><path d="M16.245 8.332v13.054h7.957q3.097 0 4.138-.852 1.388-1.12 1.549-3.945h.988v11.495h-.988q-.374-2.411-.748-3.093-.481-.852-1.575-1.339-1.095-.487-3.364-.487h-7.957v10.886q0 2.192.214 2.679.214.463.748.755.534.268 2.029.268h6.141q3.071 0 4.459-.39 1.388-.39 2.67-1.534 1.655-1.51 3.391-4.554h1.068l-3.124 8.28h-27.902v-.901h1.282q1.282 0 2.43-.56.854-.39 1.148-1.169.32-.779.32-3.19v-21.456q0-3.142-.694-3.872-.961-.974-3.204-.974h-1.282v-.901h27.902l.4 7.233h-1.041q-.561-2.606-1.255-3.58-.668-.974-2.002-1.486-1.068-.365-3.765-.365h-9.932zM48.365 4.923v29.59q0 2.094.32 2.776.347.682 1.041 1.047.694.341 2.59.341v.877h-11.988v-.877q1.682 0 2.296-.317.614-.317.961-1.047.347-.731.347-2.801v-20.262q0-3.775-.187-4.627-.187-.877-.614-1.193-.4-.317-1.041-.317-.694 0-1.762.39l-.454-.852 7.289-2.728h1.202zM76.053 21.34q2.67-2.435 3.151-2.801 1.202-.925 2.59-1.437 1.388-.511 2.75-.511 2.296 0 3.952 1.218t2.216 3.531q2.75-2.922 4.646-3.824 1.896-.925 3.898-.925 1.949 0 3.444.925 1.522.901 2.403 2.971.587 1.413.587 4.432v9.596q0 2.094.347 2.874.267.536.988.925.721.365 2.35.365v.877h-12.069v-.877h.507q1.575 0 2.456-.56.614-.39.881-1.242.107-.414.107-2.362v-9.596q0-2.728-.721-3.848-1.041-1.559-3.338-1.559-1.415 0-2.857.658-1.415.633-3.444 2.387l-.053.268.053 1.047v10.643q0 2.289.267 2.849.294.56 1.068.95.774.365 2.643.365v.877h-12.362v-.877q2.029 0 2.777-.438.774-.438 1.068-1.315.134-.414.134-2.411v-9.596q0-2.728-.881-3.921-1.175-1.559-3.284-1.559-1.442 0-2.857.706-2.216 1.072-3.418 2.411v11.958q0 2.192.32 2.849.347.658.988.999.668.317 2.67.317v.877h-12.095v-.877q1.682 0 2.35-.317.668-.341 1.015-1.047.347-.731.347-2.801v-8.524q0-3.677-.24-4.749-.187-.804-.587-1.096-.4-.317-1.095-.317-.748 0-1.789.365l-.4-.877 7.369-2.728h1.148v4.749zM125.261 36.343q-3.765 2.655-4.726 3.069-1.442.609-3.071.609-2.536 0-4.192-1.583-1.629-1.583-1.629-4.165 0-1.632.801-2.825 1.095-1.656 3.791-3.117 2.723-1.461 9.025-3.556v-.877q0-3.336-1.175-4.579-1.148-1.242-3.364-1.242-1.682 0-2.67.828-1.015.828-1.015 1.9l.053 1.413q0 1.12-.641 1.729-.614.609-1.629.609-.988 0-1.629-.633-.614-.633-.614-1.729 0-2.094 2.35-3.848t6.595-1.753q3.257 0 5.34.999 1.575.755 2.323 2.362.481 1.047.481 4.286v7.574q0 3.19.134 3.921.134.706.427.95.32.244.721.244.427 0 .748-.17.561-.317 2.163-1.778v1.364q-2.99 3.653-5.714 3.653-1.308 0-2.083-.828-.774-.828-.801-2.825zm0-1.583v-8.499q-4.032 1.461-5.207 2.07-2.109 1.072-3.017 2.241-.908 1.169-.908 2.557 0 1.753 1.148 2.922 1.148 1.145 2.643 1.145 2.029 0 5.34-2.435zm2.643-29.054l-7.876 8.402h-.908l2.804-8.402h5.981zM151.454 16.584v7.598h-.881q-1.015-3.58-2.617-4.871-1.575-1.291-4.032-1.291-1.869 0-3.017.901t-1.148 1.997q0 1.364.854 2.338.828.999 3.364 2.119l3.898 1.729q5.42 2.411 5.42 6.356 0 3.044-2.536 4.919-2.51 1.851-5.634 1.851-2.243 0-5.126-.731-.881-.244-1.442-.244-.614 0-.961.633h-.881v-7.964h.881q.748 3.41 2.857 5.139t4.726 1.729q1.842 0 2.99-.974 1.175-.999 1.175-2.387 0-1.68-1.308-2.825-1.282-1.145-5.153-2.898t-5.073-3.166q-1.202-1.388-1.202-3.507 0-2.752 2.056-4.603 2.083-1.851 5.367-1.851 1.442 0 3.498.56 1.362.365 1.816.365.427 0 .668-.17.24-.17.561-.755h.881zM180.128 19v14.661q0 3.117.748 3.945.988 1.072 2.643 1.072h2.216v.877h-14.605v-.877h1.095q1.068 0 1.949-.487t1.202-1.315q.347-.828.347-3.215v-14.661h-4.753v-1.753h4.753v-1.461q0-3.336 1.175-5.65 1.175-2.314 3.578-3.726 2.43-1.437 5.447-1.437 2.803 0 5.153 1.656 1.549 1.096 1.549 2.46 0 .731-.694 1.388-.694.633-1.495.633-.614 0-1.308-.39-.668-.414-1.655-1.729-.988-1.339-1.816-1.802-.828-.463-1.842-.463-1.228 0-2.083.609-.854.584-1.228 1.851-.374 1.242-.374 6.454v1.607h6.301v1.753h-6.301zM192.839 25.647q-.027 4.968 2.643 7.793t6.274 2.825q2.403 0 4.165-1.193 1.789-1.218 2.99-4.14l.828.487q-.561 3.336-3.257 6.089-2.697 2.728-6.755 2.728-4.405 0-7.556-3.117-3.124-3.142-3.124-8.426 0-5.723 3.204-8.913 3.231-3.215 8.09-3.215 4.112 0 6.755 2.484 2.643 2.46 2.643 6.6h-16.901zm0-1.413h11.321q-.133-2.143-.561-3.02-.667-1.364-2.002-2.143-1.308-.779-2.75-.779-2.216 0-3.978 1.583-1.736 1.559-2.029 4.359zM221.38 4.923v29.59q0 2.094.32 2.776.347.682 1.041 1.047.694.341 2.59.341v.877h-11.988v-.877q1.682 0 2.296-.317.614-.317.961-1.047.347-.731.347-2.801v-20.262q0-3.775-.187-4.627-.187-.877-.614-1.193-.4-.317-1.041-.317-.694 0-1.762.39l-.454-.852 7.289-2.728h1.202zM234.363 4.923q1.121 0 1.896.731.801.706.801 1.729 0 1.023-.801 1.753-.774.731-1.896.731t-1.922-.731q-.801-.731-.801-1.753t.774-1.729q.801-.731 1.949-.731zm2.216 11.665v17.924q0 2.094.32 2.801.347.682.988 1.023.667.341 2.403.341v.877h-11.881v-.877q1.789 0 2.403-.317.614-.317.961-1.047.374-.731.374-2.801v-8.597q0-3.629-.24-4.7-.187-.779-.587-1.072-.401-.317-1.095-.317-.748 0-1.816.365l-.374-.877 7.369-2.728h1.175zM264.558 32.714l-.294 6.843h-21.573v-.877l16.234-19.726h-8.01q-2.59 0-3.391.317-.801.292-1.308 1.145-.721 1.218-.828 3.02h-1.068l.16-6.186h20.505v.901l-16.394 19.775h8.918q2.803 0 3.791-.414 1.015-.438 1.629-1.51.427-.779.721-3.288h.908zM273.552 16.565q1.228 0 2.083.804.881.779.881 1.9 0 1.12-.881 1.924-.854.779-2.083.779t-2.109-.779q-.854-.804-.854-1.924 0-1.12.854-1.9.881-.804 2.109-.804zm-.053 18.241q1.255 0 2.109.804.881.804.881 1.924 0 1.12-.881 1.924-.881.779-2.109.779t-2.109-.779q-.854-.804-.854-1.924 0-1.12.854-1.924.881-.804 2.109-.804zM20.384 96.183q-3.765 2.655-4.726 3.069-1.442.609-3.071.609-2.536 0-4.192-1.583-1.629-1.583-1.629-4.165 0-1.632.801-2.825 1.095-1.656 3.791-3.117 2.723-1.461 9.025-3.556v-.877q0-3.336-1.175-4.579-1.148-1.242-3.364-1.242-1.682 0-2.67.828-1.015.828-1.015 1.9l.053 1.413q0 1.12-.641 1.729-.614.609-1.629.609-.988 0-1.629-.633-.614-.633-.614-1.729 0-2.094 2.35-3.848t6.595-1.753q3.257 0 5.34.999 1.575.755 2.323 2.362.481 1.047.481 4.286v7.574q0 3.19.134 3.921.134.706.427.95.32.244.721.244.427 0 .748-.17.561-.317 2.163-1.778v1.364q-2.99 3.653-5.714 3.653-1.308 0-2.083-.828-.774-.828-.801-2.825zm0-1.583v-8.499q-4.032 1.461-5.207 2.07-2.109 1.072-3.017 2.241-.908 1.169-.908 2.557 0 1.753 1.148 2.922 1.148 1.145 2.643 1.145 2.029 0 5.34-2.435zM30.29 65.795v-1.023q4.058 1.827 6.755 4.311 3.818 3.556 5.901 8.353 2.083 4.773 2.083 9.961 0 7.55-4.085 13.76-4.058 6.235-10.653 8.913v-.901q3.284-1.68 5.393-4.554 2.136-2.849 3.151-7.257 1.041-4.432 1.041-9.23 0-5.187-.881-9.474-.668-3.361-1.682-5.382-.988-2.021-2.643-3.897-1.655-1.875-4.379-3.58zM64.389 77.895h28.809v1.997h-28.809zm0 7.939h28.809v1.997h-28.809zM109.912 83.08q0-5.65 1.869-9.717 1.869-4.091 4.966-6.089 2.403-1.583 4.966-1.583 4.165 0 7.476 3.872 4.138 4.798 4.138 13.005 0 5.747-1.816 9.766t-4.646 5.845q-2.804 1.802-5.42 1.802-5.18 0-8.624-5.577-2.91-4.7-2.91-11.324zm5.233.609q0 6.819 1.842 11.13 1.522 3.629 4.539 3.629 1.442 0 2.99-1.169 1.549-1.193 2.35-3.97 1.228-4.189 1.228-11.811 0-5.65-1.282-9.425-.961-2.801-2.483-3.97-1.095-.804-2.643-.804-1.816 0-3.231 1.486-1.922 2.021-2.617 6.356-.694 4.335-.694 8.548zM849.224 100.156l2.99-12.25h.908q-.187 1.778-.187 2.947 0 3.336 2.323 5.431 2.35 2.094 6.114 2.094 3.498 0 5.313-1.948 1.816-1.973 1.816-4.53 0-1.656-.828-3.02-1.255-2.021-6.702-7.111-2.643-2.435-3.391-3.629-1.228-1.973-1.228-4.14 0-3.458 2.83-5.918t7.262-2.46q1.495 0 2.83.268.828.146 3.017.974 1.549.56 1.709.609.374.073.828.073.774 0 1.335-.365.561-.365 1.308-1.559h1.015l-2.777 10.96h-.908q.107-1.461.107-2.362 0-2.947-2.136-4.822t-5.634-1.875q-2.777 0-4.512 1.486t-1.736 3.434q0 1.705 1.095 3.263 1.121 1.534 5.1 5.041 4.005 3.483 5.18 5.455 1.175 1.948 1.175 4.165 0 2.508-1.469 4.871-1.442 2.338-4.165 3.629t-5.954 1.291q-1.602 0-2.99-.268-1.388-.268-4.432-1.315-1.041-.365-1.736-.365-1.575 0-2.456 1.948h-1.015zM890.392 71.324l-2.083 6.624h4.192l-.454 1.534h-4.165l-4.592 14.369q-.748 2.314-.748 2.996 0 .414.214.633.214.219.507.219.667 0 1.762-.852.641-.487 2.857-2.996l.881.609q-2.456 3.263-4.646 4.603-1.495.925-3.017.925-1.175 0-1.922-.658-.748-.682-.748-1.729 0-1.315.854-4.018l4.459-14.101h-4.032l.267-.95q2.937-.731 4.886-2.167 1.949-1.461 4.352-5.041h1.175zM917.017 77.36l-5.207 16.512-.587 2.216q-.08.317-.08.536 0 .39.267.682.214.219.534.219.347 0 .908-.39 1.041-.706 2.777-2.922l.908.584q-1.842 2.533-3.791 3.872-1.949 1.315-3.605 1.315-1.148 0-1.736-.536-.561-.511-.561-1.51 0-1.193.587-3.142l.561-1.827q-3.498 4.165-6.435 5.821-2.109 1.193-4.138 1.193-1.949 0-3.364-1.461-1.415-1.486-1.415-4.067 0-3.872 2.536-8.159 2.563-4.311 6.488-6.892 3.071-2.046 5.794-2.046 1.629 0 2.697.779 1.095.779 1.655 2.582l.961-2.776 4.245-.584zm-9.505 1.266q-1.709 0-3.631 1.461-2.723 2.07-4.859 6.137-2.109 4.067-2.109 7.355 0 1.656.908 2.63.908.95 2.083.95 2.91 0 6.328-3.921 4.566-5.212 4.566-10.691 0-2.07-.881-2.996-.881-.925-2.403-.925zM930.764 77.36l-3.551 11.081q4.993-6.795 7.636-8.938 2.67-2.143 5.126-2.143 1.335 0 2.189.804.881.804.881 2.094 0 1.461-.774 3.897l-3.257 10.253q-.561 1.778-.561 2.167 0 .341.214.584.214.219.454.219.32 0 .774-.317 1.415-1.023 3.097-3.117l.828.463q-2.483 3.239-4.699 4.627-1.549.95-2.777.95-.988 0-1.575-.56-.587-.536-.587-1.461 0-1.169.908-4.018l3.097-9.791q.587-1.827.587-2.849 0-.487-.347-.779-.347-.317-.854-.317-.748 0-1.789.584-1.976 1.096-4.112 3.629-2.136 2.508-4.512 6.429-1.255 2.07-2.083 4.53l-1.335 4.018h-4.005l4.859-15.246q.854-2.752.854-3.312 0-.536-.481-.925-.454-.414-1.148-.414-.32 0-1.121.097l-1.015.146-.16-.877 9.238-1.51zM975.618 64.773l-9.185 28.738q-.748 2.338-.748 3.069 0 .244.214.463.24.219.481.219.347 0 .828-.317.908-.584 3.044-2.922l.908.511q-1.922 2.435-3.898 3.945-1.949 1.51-3.658 1.51-.908 0-1.495-.584-.587-.584-.587-1.656 0-1.388.801-3.726l1.041-3.02q-3.871 5.455-7.049 7.55-2.189 1.437-4.192 1.437-2.029 0-3.551-1.632-1.495-1.656-1.495-4.481 0-3.629 2.536-7.745t6.702-6.697q3.284-2.07 6.034-2.07 1.442 0 2.483.536 1.041.536 2.056 1.778l2.617-8.475q.294-.901.481-1.437.32-.974.32-1.607 0-.511-.401-.852-.561-.414-1.442-.414-.614 0-2.029.17v-.901l9.185-1.388zm-9.906 17.291q0-1.559-.988-2.508-.988-.95-2.51-.95-3.364 0-7.022 5.066-3.631 5.066-3.631 9.693 0 1.827.881 2.801.881.95 2.109.95 2.777 0 6.969-5.48t4.192-9.571zM999.039 77.36l-5.207 16.512-.587 2.216q-.08.317-.08.536 0 .39.267.682.214.219.534.219.347 0 .908-.39 1.041-.706 2.777-2.922l.908.584q-1.842 2.533-3.791 3.872-1.949 1.315-3.605 1.315-1.148 0-1.736-.536-.561-.511-.561-1.51 0-1.193.587-3.142l.561-1.827q-3.498 4.165-6.435 5.821-2.109 1.193-4.138 1.193-1.949 0-3.364-1.461-1.415-1.486-1.415-4.067 0-3.872 2.536-8.159 2.563-4.311 6.488-6.892 3.071-2.046 5.794-2.046 1.629 0 2.697.779 1.095.779 1.655 2.582l.961-2.776 4.245-.584zm-9.505 1.266q-1.709 0-3.631 1.461-2.723 2.07-4.859 6.137-2.109 4.067-2.109 7.355 0 1.656.908 2.63.908.95 2.083.95 2.91 0 6.328-3.921 4.566-5.212 4.566-10.691 0-2.07-.881-2.996-.881-.925-2.403-.925zM1003.573 78.726l9.212-1.364-3.845 11.836q4.673-7.282 8.491-10.18 2.163-1.656 3.524-1.656.881 0 1.388.487.507.463.507 1.364 0 1.607-.908 3.069-.641 1.096-1.842 1.096-.614 0-1.068-.365-.427-.365-.534-1.12-.053-.463-.24-.609-.214-.195-.507-.195-.454 0-.854.195-.694.341-2.109 1.9-2.216 2.387-4.806 6.186-1.121 1.607-1.922 3.629-1.121 2.776-1.282 3.336l-.854 3.069h-4.085l4.94-15.123q.854-2.63.854-3.75 0-.438-.401-.731-.534-.39-1.415-.39-.561 0-2.056.219l-.187-.901zM1049.525 64.773l-9.185 28.738q-.748 2.338-.748 3.069 0 .244.214.463.24.219.481.219.347 0 .828-.317.908-.584 3.044-2.922l.908.511q-1.922 2.435-3.898 3.945-1.949 1.51-3.658 1.51-.908 0-1.495-.584-.587-.584-.587-1.656 0-1.388.801-3.726l1.041-3.02q-3.871 5.455-7.049 7.55-2.189 1.437-4.192 1.437-2.029 0-3.551-1.632-1.495-1.656-1.495-4.481 0-3.629 2.536-7.745t6.702-6.697q3.284-2.07 6.034-2.07 1.442 0 2.483.536 1.041.536 2.056 1.778l2.617-8.475q.294-.901.481-1.437.32-.974.32-1.607 0-.511-.4-.852-.561-.414-1.442-.414-.614 0-2.029.17v-.901l9.185-1.388zm-9.906 17.291q0-1.559-.988-2.508-.988-.95-2.51-.95-3.364 0-7.022 5.066-3.631 5.066-3.631 9.693 0 1.827.881 2.801.881.95 2.109.95 2.777 0 6.969-5.48t4.192-9.571zM1058.896 77.341q1.121 0 1.922.731.801.706.801 1.729t-.801 1.753q-.801.731-1.922.731t-1.922-.731q-.801-.731-.801-1.753 0-1.023.801-1.729.801-.731 1.922-.731zm-5.66 17.632q1.121 0 1.896.731.774.706.774 1.729 0 .999-.801 1.729-.774.706-1.869.706-1.121 0-1.922-.706-.774-.731-.774-1.729 0-1.023.774-1.729.801-.731 1.922-.731zM13.228 139.884q3.551-4.505 7.663-4.505 3.765 0 6.568 2.947 2.804 2.922 2.804 8.012 0 5.942-4.325 9.571-3.711 3.117-8.277 3.117-2.136 0-4.352-.706-2.189-.706-4.486-2.119v-23.112q0-3.799-.214-4.676-.187-.877-.614-1.193-.427-.317-1.068-.317-.748 0-1.869.39l-.374-.852 7.343-2.728h1.202v16.171zm0 1.559v13.346q1.362 1.218 2.804 1.851 1.469.609 2.99.609 2.43 0 4.512-2.435 2.109-2.435 2.109-7.087 0-4.286-2.109-6.576-2.083-2.314-4.753-2.314-1.415 0-2.83.658-1.068.487-2.723 1.948zM33.387 124.737v-1.023q4.058 1.827 6.755 4.311 3.818 3.556 5.901 8.353 2.083 4.773 2.083 9.961 0 7.55-4.085 13.76-4.058 6.235-10.653 8.913v-.901q3.284-1.68 5.393-4.554 2.136-2.849 3.151-7.257 1.041-4.432 1.041-9.23 0-5.187-.881-9.474-.668-3.361-1.682-5.382-.988-2.021-2.643-3.897-1.655-1.875-4.379-3.58zM65.08 136.837h28.809v1.997h-28.809zm0 7.939h28.809v1.997h-28.809zM135.124 151.984l-2.536 6.356h-21.36v-.901q9.425-7.842 13.27-12.81 3.845-4.968 3.845-9.084 0-3.142-2.109-5.163t-5.046-2.021q-2.67 0-4.806 1.437-2.109 1.413-3.124 4.165h-.988q.668-4.505 3.418-6.916 2.777-2.411 6.915-2.411 4.405 0 7.343 2.582 2.964 2.582 2.964 6.089 0 2.508-1.282 5.017-1.976 3.945-6.408 8.353-6.648 6.624-8.304 7.988h9.452q2.884 0 4.032-.195 1.175-.195 2.109-.779.934-.609 1.629-1.705h.988zM857.684 140.103q4.299-4.725 8.197-4.725 2.002 0 3.444.925 1.442.901 2.296 2.996.587 1.461.587 4.481v9.522q0 2.119.374 2.874.294.609.934.95.668.341 2.43.341v.877h-12.095v-.877h.507q1.709 0 2.376-.463.694-.487.961-1.413.107-.365.107-2.289v-9.133q0-3.044-.881-4.408-.854-1.388-2.91-1.388-3.177 0-6.328 3.166v11.763q0 2.265.294 2.801.374.706 1.015 1.047.668.317 2.67.317v.877h-12.095v-.877h.534q1.869 0 2.51-.852.668-.877.668-3.312v-8.28q0-4.018-.214-4.895-.187-.877-.614-1.193-.4-.317-1.095-.317-.748 0-1.789.365l-.4-.877 7.369-2.728h1.148v4.725zM889.355 135.376q5.554 0 8.918 3.848 2.857 3.288 2.857 7.55 0 2.996-1.575 6.064t-4.352 4.627q-2.75 1.559-6.141 1.559-5.527 0-8.784-4.018-2.75-3.385-2.75-7.598 0-3.069 1.655-6.089 1.682-3.044 4.405-4.481 2.723-1.461 5.767-1.461zm-.828 1.583q-1.415 0-2.857.779-1.415.755-2.296 2.679-.881 1.924-.881 4.944 0 4.871 2.109 8.402 2.136 3.531 5.607 3.531 2.59 0 4.272-1.948t1.682-6.697q0-5.942-2.803-9.352-1.896-2.338-4.833-2.338zM911.897 135.376v5.017q3.071-5.017 6.301-5.017 1.469 0 2.43.828.961.804.961 1.875 0 .95-.694 1.607-.694.658-1.655.658-.934 0-2.109-.828-1.148-.852-1.709-.852-.481 0-1.041.487-1.202.999-2.483 3.288v10.691q0 1.851.507 2.801.347.658 1.228 1.096.881.438 2.536.438v.877h-12.522v-.877q1.869 0 2.777-.536.668-.39.935-1.242.133-.414.133-2.362v-8.646q0-3.897-.187-4.627-.16-.755-.641-1.096-.454-.341-1.148-.341-.828 0-1.869.365l-.267-.877 7.396-2.728h1.121zM930.262 140.122q2.67-2.435 3.151-2.801 1.202-.925 2.59-1.437 1.388-.511 2.75-.511 2.296 0 3.952 1.218t2.216 3.531q2.75-2.922 4.646-3.824 1.896-.925 3.898-.925 1.949 0 3.444.925 1.522.901 2.403 2.971.587 1.413.587 4.432v9.596q0 2.094.347 2.874.267.536.988.925.721.365 2.35.365v.877h-12.069v-.877h.507q1.575 0 2.456-.56.614-.39.881-1.242.107-.414.107-2.362v-9.596q0-2.728-.721-3.848-1.041-1.559-3.338-1.559-1.415 0-2.857.658-1.415.633-3.444 2.387l-.053.268.053 1.047v10.643q0 2.289.267 2.849.294.56 1.068.95.774.365 2.643.365v.877h-12.362v-.877q2.029 0 2.777-.438.774-.438 1.068-1.315.133-.414.133-2.411v-9.596q0-2.728-.881-3.921-1.175-1.559-3.284-1.559-1.442 0-2.857.706-2.216 1.072-3.418 2.411v11.958q0 2.192.32 2.849.347.658.988.999.668.317 2.67.317v.877h-12.095v-.877q1.682 0 2.35-.317.668-.341 1.015-1.047.347-.731.347-2.801v-8.524q0-3.677-.24-4.749-.187-.804-.587-1.096-.4-.317-1.095-.317-.748 0-1.789.365l-.4-.877 7.369-2.728h1.148v4.749zM979.471 155.125q-3.765 2.655-4.726 3.069-1.442.609-3.071.609-2.536 0-4.192-1.583-1.629-1.583-1.629-4.165 0-1.632.801-2.825 1.095-1.656 3.791-3.117 2.723-1.461 9.025-3.556v-.877q0-3.336-1.175-4.579-1.148-1.242-3.364-1.242-1.682 0-2.67.828-1.015.828-1.015 1.9l.053 1.413q0 1.12-.641 1.729-.614.609-1.629.609-.988 0-1.629-.633-.614-.633-.614-1.729 0-2.094 2.35-3.848t6.595-1.753q3.257 0 5.34.999 1.575.755 2.323 2.362.481 1.047.481 4.286v7.574q0 3.19.134 3.921.134.706.427.95.32.244.721.244.427 0 .748-.17.561-.317 2.163-1.778v1.364q-2.99 3.653-5.714 3.653-1.308 0-2.083-.828-.774-.828-.801-2.825zm0-1.583v-8.499q-4.032 1.461-5.207 2.07-2.109 1.072-3.017 2.241-.908 1.169-.908 2.557 0 1.753 1.148 2.922 1.148 1.145 2.643 1.145 2.029 0 5.34-2.435zM998.264 123.716v29.59q0 2.094.32 2.776.347.682 1.041 1.047.694.341 2.59.341v.877h-11.988v-.877q1.682 0 2.296-.317.614-.317.961-1.047.347-.731.347-2.801v-20.262q0-3.775-.187-4.627-.187-.877-.614-1.193-.4-.317-1.041-.317-.694 0-1.762.39l-.454-.852 7.289-2.728h1.202zM1011.027 135.357q1.228 0 2.083.804.881.779.881 1.9 0 1.12-.881 1.924-.854.779-2.083.779-1.228 0-2.109-.779-.854-.804-.854-1.924 0-1.12.854-1.9.881-.804 2.109-.804zm-.053 18.241q1.255 0 2.109.804.881.804.881 1.924 0 1.12-.881 1.924-.881.779-2.109.779t-2.109-.779q-.854-.804-.854-1.924 0-1.12.854-1.924.881-.804 2.109-.804zM1166.685 136.035h11.508v.901q-1.095 0-1.549.341-.427.341-.427.901 0 .584.935 1.802.294.39.881 1.218l1.736 2.533 2.002-2.533q1.922-2.411 1.922-3.044 0-.511-.454-.852-.454-.365-1.469-.365v-.901h8.277v.901q-1.308.073-2.269.658-1.308.828-3.578 3.604l-3.338 4.067 6.088 7.988q2.243 2.947 3.204 3.556.961.584 2.483.658v.877h-11.535v-.877q1.202 0 1.869-.487.507-.341.507-.901t-1.709-2.825l-3.578-4.773-3.925 4.773q-1.816 2.216-1.816 2.63 0 .584.587 1.072.614.463 1.816.511v.877h-7.983v-.877q.961-.122 1.682-.609 1.015-.706 3.418-3.604l5.126-6.21-4.646-6.137q-1.976-2.63-3.071-3.288-1.068-.682-2.697-.682v-.901zM1207.937 136.837h28.809v1.997h-28.809zm0 7.939h28.809v1.997h-28.809zM1257.983 128.557l8.811-3.921h.881v27.885q0 2.776.24 3.458.267.682 1.068 1.047.801.365 3.257.414v.901h-13.617v-.901q2.563-.049 3.311-.39.748-.365 1.041-.95.294-.609.294-3.58v-17.827q0-3.604-.267-4.627-.187-.779-.694-1.145-.481-.365-1.175-.365-.988 0-2.75.755l-.4-.755zM1281.855 166.643v-1.072q2.75-.828 4.245-2.582 1.522-1.729 1.522-3.677 0-.463-.24-.779-.187-.219-.374-.219-.294 0-1.282.487-.481.219-1.015.219-1.308 0-2.083-.706-.774-.706-.774-1.948 0-1.193.988-2.046 1.015-.852 2.456-.852 1.762 0 3.124 1.413 1.388 1.388 1.388 3.702 0 2.508-1.922 4.652-1.896 2.167-6.034 3.41zM1295.361 131.604q1.549-3.336 3.898-5.139 2.376-1.827 5.901-1.827 4.352 0 6.675 2.582 1.762 1.924 1.762 4.116 0 3.604-4.966 7.452 3.338 1.193 5.046 3.41t1.709 5.212q0 4.286-2.99 7.428-3.898 4.091-11.294 4.091-3.658 0-4.993-.828-1.308-.828-1.308-1.778 0-.706.614-1.242.641-.536 1.522-.536.667 0 1.362.195.454.122 2.056.901 1.602.755 2.216.901.988.268 2.109.268 2.723 0 4.726-1.924 2.029-1.924 2.029-4.554 0-1.924-.935-3.75-.694-1.364-1.522-2.07-1.148-.974-3.151-1.753-2.002-.804-4.085-.804h-.854v-.731q2.109-.244 4.219-1.388 2.136-1.145 3.097-2.752.961-1.607.961-3.531 0-2.508-1.736-4.043-1.709-1.559-4.272-1.559-4.138 0-6.915 4.043l-.881-.39zM1335.252 123.716l-13.109 35.313h-2.136l13.109-35.313h2.136zM1352.527 135.376v7.598h-.881q-1.015-3.58-2.617-4.871-1.575-1.291-4.032-1.291-1.869 0-3.017.901t-1.148 1.997q0 1.364.854 2.338.828.999 3.364 2.119l3.898 1.729q5.42 2.411 5.42 6.356 0 3.044-2.536 4.919-2.51 1.851-5.634 1.851-2.243 0-5.126-.731-.881-.244-1.442-.244-.614 0-.961.633h-.881v-7.964h.881q.748 3.41 2.857 5.139t4.726 1.729q1.842 0 2.99-.974 1.175-.999 1.175-2.387 0-1.68-1.308-2.825-1.282-1.145-5.153-2.898-3.871-1.753-5.073-3.166-1.202-1.388-1.202-3.507 0-2.752 2.056-4.603 2.083-1.851 5.367-1.851 1.442 0 3.498.56 1.362.365 1.816.365.427 0 .667-.17.24-.17.561-.755h.881zM1370.954 136.837h28.809v1.997h-28.809zm0 7.939h28.809v1.997h-28.809zM1420.896 128.557l8.811-3.921h.881v27.885q0 2.776.24 3.458.267.682 1.068 1.047.801.365 3.257.414v.901h-13.617v-.901q2.563-.049 3.311-.39.748-.365 1.041-.95.294-.609.294-3.58v-17.827q0-3.604-.267-4.627-.187-.779-.694-1.145-.481-.365-1.175-.365-.988 0-2.75.755l-.4-.755zM1444.768 166.643v-1.072q2.75-.828 4.245-2.582 1.522-1.729 1.522-3.677 0-.463-.24-.779-.187-.219-.374-.219-.294 0-1.282.487-.481.219-1.015.219-1.308 0-2.083-.706-.774-.706-.774-1.948 0-1.193.988-2.046 1.015-.852 2.456-.852 1.762 0 3.124 1.413 1.388 1.388 1.388 3.702 0 2.508-1.922 4.652-1.896 2.167-6.034 3.41zM1458.274 131.604q1.549-3.336 3.898-5.139 2.376-1.827 5.901-1.827 4.352 0 6.675 2.582 1.762 1.924 1.762 4.116 0 3.604-4.966 7.452 3.338 1.193 5.046 3.41 1.709 2.216 1.709 5.212 0 4.286-2.99 7.428-3.898 4.091-11.294 4.091-3.658 0-4.993-.828-1.308-.828-1.308-1.778 0-.706.614-1.242.641-.536 1.522-.536.668 0 1.362.195.454.122 2.056.901 1.602.755 2.216.901.988.268 2.109.268 2.723 0 4.726-1.924 2.029-1.924 2.029-4.554 0-1.924-.934-3.75-.694-1.364-1.522-2.07-1.148-.974-3.151-1.753-2.002-.804-4.085-.804h-.854v-.731q2.109-.244 4.219-1.388 2.136-1.145 3.097-2.752.961-1.607.961-3.531 0-2.508-1.736-4.043-1.709-1.559-4.272-1.559-4.139 0-6.915 4.043l-.881-.39zM27.3 209.713q-.988 4.408-3.871 6.795-2.884 2.362-6.381 2.362-4.165 0-7.262-3.19t-3.097-8.621q0-5.26 3.418-8.548 3.444-3.288 8.25-3.288 3.605 0 5.927 1.753 2.323 1.729 2.323 3.604 0 .925-.668 1.51-.641.56-1.816.56-1.575 0-2.376-.925-.454-.511-.614-1.948-.134-1.437-1.068-2.192-.934-.731-2.59-.731-2.67 0-4.299 1.802-2.163 2.387-2.163 6.308 0 3.994 2.136 7.063 2.163 3.044 5.821 3.044 2.617 0 4.699-1.632 1.469-1.12 2.857-4.067l.774.341zM30.29 184.578v-1.023q4.058 1.827 6.755 4.311 3.818 3.556 5.901 8.353 2.083 4.773 2.083 9.961 0 7.55-4.085 13.76-4.058 6.235-10.653 8.913v-.901q3.284-1.68 5.393-4.554 2.136-2.849 3.151-7.257 1.041-4.432 1.041-9.23 0-5.187-.881-9.474-.668-3.361-1.682-5.382-.988-2.021-2.643-3.897-1.655-1.875-4.379-3.58zM61.982 196.687h28.809v1.997h-28.809zm0 7.939h28.809v1.997h-28.809zM111.938 188.407l8.811-3.921h.881v27.885q0 2.776.24 3.458.267.682 1.068 1.047.801.365 3.257.414v.901h-13.617v-.901q2.563-.049 3.311-.39.748-.365 1.041-.95.294-.609.294-3.58v-17.827q0-3.604-.267-4.627-.187-.779-.694-1.145-.481-.365-1.175-.365-.988 0-2.75.755l-.4-.755zM848.795 198.101l7.529-2.776h1.015v5.212q1.896-2.947 3.791-4.116 1.922-1.193 4.032-1.193 3.685 0 6.141 2.63 3.017 3.215 3.017 8.378 0 5.772-3.631 9.547-2.99 3.093-7.529 3.093-1.976 0-3.418-.511-1.068-.365-2.403-1.461v6.795q0 2.289.294 2.898.32.633 1.068.999.774.365 2.777.365v.901h-12.816v-.901h.668q1.469.024 2.51-.511.507-.268.774-.877.294-.584.294-3.02v-21.09q0-2.167-.214-2.752-.214-.584-.694-.877-.454-.292-1.255-.292-.641 0-1.629.341l-.32-.779zm8.544 3.872v8.329q0 2.703.24 3.556.374 1.413 1.816 2.484 1.469 1.072 3.685 1.072 2.67 0 4.325-1.9 2.163-2.484 2.163-6.99 0-5.114-2.456-7.866-1.709-1.9-4.058-1.9-1.282 0-2.536.584-.961.438-3.177 2.63zM892.245 214.975q-3.765 2.655-4.726 3.069-1.442.609-3.071.609-2.536 0-4.192-1.583-1.629-1.583-1.629-4.165 0-1.632.801-2.825 1.095-1.656 3.791-3.117 2.723-1.461 9.025-3.556v-.877q0-3.336-1.175-4.579-1.148-1.242-3.364-1.242-1.682 0-2.67.828-1.015.828-1.015 1.9l.053 1.413q0 1.12-.641 1.729-.614.609-1.629.609-.988 0-1.629-.633-.614-.633-.614-1.729 0-2.094 2.35-3.848t6.595-1.753q3.257 0 5.34.999 1.575.755 2.323 2.362.481 1.047.481 4.286v7.574q0 3.19.133 3.921.134.706.427.95.32.244.721.244.427 0 .748-.17.561-.317 2.163-1.778v1.364q-2.99 3.653-5.714 3.653-1.308 0-2.083-.828-.774-.828-.801-2.825zm0-1.583v-8.499q-4.032 1.461-5.207 2.07-2.109 1.072-3.017 2.241-.908 1.169-.908 2.557 0 1.753 1.148 2.922 1.148 1.145 2.643 1.145 2.029 0 5.34-2.435zM909.74 188.55v7.33h5.714v1.705h-5.714v14.466q0 2.167.667 2.922.694.755 1.762.755.881 0 1.709-.487.828-.511 1.282-1.486h1.041q-.934 2.387-2.643 3.604-1.709 1.193-3.524 1.193-1.228 0-2.403-.609-1.175-.633-1.736-1.778-.561-1.169-.561-3.58v-15.002h-3.871v-.804q1.469-.536 2.99-1.802 1.549-1.291 2.75-3.044.614-.925 1.709-3.385h.828zM929.759 195.226q5.554 0 8.918 3.848 2.857 3.288 2.857 7.55 0 2.996-1.575 6.064t-4.352 4.627q-2.75 1.559-6.141 1.559-5.527 0-8.784-4.018-2.75-3.385-2.75-7.598 0-3.069 1.655-6.089 1.682-3.044 4.405-4.481 2.723-1.461 5.767-1.461zm-.828 1.583q-1.415 0-2.857.779-1.415.755-2.296 2.679-.881 1.924-.881 4.944 0 4.871 2.109 8.402 2.136 3.531 5.607 3.531 2.59 0 4.272-1.948t1.682-6.697q0-5.942-2.803-9.352-1.896-2.338-4.833-2.338zM953.557 183.556v29.59q0 2.094.32 2.776.347.682 1.041 1.047.694.341 2.59.341v.877h-11.988v-.877q1.682 0 2.296-.317.614-.317.961-1.047.347-.731.347-2.801v-20.262q0-3.775-.187-4.627-.187-.877-.614-1.193-.4-.317-1.041-.317-.694 0-1.762.39l-.454-.852 7.289-2.728h1.202zM972.267 195.226q5.554 0 8.918 3.848 2.857 3.288 2.857 7.55 0 2.996-1.575 6.064t-4.352 4.627q-2.75 1.559-6.141 1.559-5.527 0-8.784-4.018-2.75-3.385-2.75-7.598 0-3.069 1.655-6.089 1.682-3.044 4.405-4.481 2.723-1.461 5.767-1.461zm-.828 1.583q-1.415 0-2.857.779-1.415.755-2.296 2.679-.881 1.924-.881 4.944 0 4.871 2.109 8.402 2.136 3.531 5.607 3.531 2.59 0 4.272-1.948t1.682-6.697q0-5.942-2.803-9.352-1.896-2.338-4.833-2.338zm6.461-12.469l-7.876 8.402h-.908l2.803-8.402h5.981zM994.191 210.057q-2.243-.999-3.444-2.776-1.202-1.802-1.202-3.97 0-3.312 2.723-5.699 2.75-2.387 7.022-2.387 3.498 0 6.061 1.559h5.18q1.148 0 1.335.073.187.049.267.195.16.219.16.779 0 .633-.134.877-.08.122-.294.195-.187.073-1.335.073h-3.177q1.495 1.753 1.495 4.481 0 3.117-2.617 5.333t-7.022 2.216q-1.816 0-3.711-.487-1.175.925-1.602 1.632-.401.682-.401 1.169 0 .414.427.804.454.39 1.736.56.748.097 3.738.17 5.5.122 7.129.341 2.483.317 3.952 1.68 1.495 1.364 1.495 3.361 0 2.752-2.83 5.163-4.165 3.556-10.867 3.556-5.153 0-8.704-2.119-2.002-1.218-2.002-2.533 0-.584.294-1.169.454-.901 1.869-2.508.187-.219 2.723-2.63-1.388-.755-1.976-1.339-.561-.609-.561-1.364 0-.852.748-1.997.774-1.145 3.524-3.239zm4.646-13.662q-1.976 0-3.311 1.437t-1.335 4.408q0 3.848 1.816 5.967 1.388 1.607 3.524 1.607 2.029 0 3.338-1.388t1.308-4.359q0-3.872-1.842-6.064-1.362-1.607-3.498-1.607zm-4.913 21.797q-1.255 1.242-1.896 2.314t-.641 1.973q0 1.169 1.549 2.046 2.67 1.51 7.716 1.51 4.806 0 7.076-1.559 2.296-1.534 2.296-3.288 0-1.266-1.362-1.802-1.388-.536-5.5-.633-6.007-.146-9.238-.56zM1021.215 183.556q1.121 0 1.896.731.801.706.801 1.729t-.801 1.753q-.774.731-1.896.731t-1.922-.731q-.801-.731-.801-1.753 0-1.023.774-1.729.801-.731 1.949-.731zm2.216 11.665v17.924q0 2.094.32 2.801.347.682.988 1.023.668.341 2.403.341v.877h-11.881v-.877q1.789 0 2.403-.317.614-.317.961-1.047.374-.731.374-2.801v-8.597q0-3.629-.24-4.7-.187-.779-.587-1.072-.4-.317-1.095-.317-.748 0-1.816.365l-.374-.877 7.369-2.728h1.175zM1050.928 209.713q-.988 4.408-3.871 6.795-2.884 2.362-6.381 2.362-4.165 0-7.262-3.19t-3.097-8.621q0-5.26 3.418-8.548 3.444-3.288 8.25-3.288 3.605 0 5.927 1.753 2.323 1.729 2.323 3.604 0 .925-.667 1.51-.641.56-1.816.56-1.575 0-2.376-.925-.454-.511-.614-1.948-.134-1.437-1.068-2.192-.934-.731-2.59-.731-2.67 0-4.299 1.802-2.163 2.387-2.163 6.308 0 3.994 2.136 7.063 2.163 3.044 5.821 3.044 2.617 0 4.699-1.632 1.469-1.12 2.857-4.067l.774.341zM1066.361 195.226q5.554 0 8.918 3.848 2.857 3.288 2.857 7.55 0 2.996-1.575 6.064t-4.352 4.627q-2.75 1.559-6.141 1.559-5.527 0-8.784-4.018-2.75-3.385-2.75-7.598 0-3.069 1.655-6.089 1.682-3.044 4.405-4.481 2.723-1.461 5.767-1.461zm-.828 1.583q-1.415 0-2.857.779-1.415.755-2.296 2.679-.881 1.924-.881 4.944 0 4.871 2.109 8.402 2.136 3.531 5.607 3.531 2.59 0 4.272-1.948t1.682-6.697q0-5.942-2.804-9.352-1.896-2.338-4.833-2.338zM1087.751 195.197q1.228 0 2.083.804.881.779.881 1.9t-.881 1.924q-.854.779-2.083.779-1.228 0-2.109-.779-.854-.804-.854-1.924 0-1.12.854-1.9.881-.804 2.109-.804zm-.053 18.241q1.255 0 2.109.804.881.804.881 1.924t-.881 1.924q-.881.779-2.109.779t-2.109-.779q-.854-.804-.854-1.924 0-1.12.854-1.924.881-.804 2.109-.804zM1166.685 195.885h11.508v.901q-1.095 0-1.549.341-.427.341-.427.901 0 .584.935 1.802.294.39.881 1.218l1.736 2.533 2.002-2.533q1.922-2.411 1.922-3.044 0-.511-.454-.852-.454-.365-1.469-.365v-.901h8.277v.901q-1.308.073-2.269.658-1.308.828-3.578 3.604l-3.338 4.067 6.088 7.988q2.243 2.947 3.204 3.556.961.584 2.483.658v.877h-11.535v-.877q1.202 0 1.869-.487.507-.341.507-.901t-1.709-2.825l-3.578-4.773-3.925 4.773q-1.816 2.216-1.816 2.63 0 .584.587 1.072.614.463 1.816.511v.877h-7.983v-.877q.961-.122 1.682-.609 1.015-.706 3.418-3.604l5.126-6.21-4.646-6.137q-1.976-2.63-3.071-3.288-1.068-.682-2.697-.682v-.901zM1207.937 196.687h28.809v1.997h-28.809zm0 7.939h28.809v1.997h-28.809zM1257.983 188.407l8.811-3.921h.881v27.885q0 2.776.24 3.458.267.682 1.068 1.047.801.365 3.257.414v.901h-13.617v-.901q2.563-.049 3.311-.39.748-.365 1.041-.95.294-.609.294-3.58v-17.827q0-3.604-.267-4.627-.187-.779-.694-1.145-.481-.365-1.175-.365-.988 0-2.75.755l-.4-.755zM1281.855 226.493v-1.072q2.75-.828 4.245-2.582 1.522-1.729 1.522-3.677 0-.463-.24-.779-.187-.219-.374-.219-.294 0-1.282.487-.481.219-1.015.219-1.308 0-2.083-.706-.774-.706-.774-1.948 0-1.193.988-2.046 1.015-.852 2.456-.852 1.762 0 3.124 1.413 1.388 1.388 1.388 3.702 0 2.508-1.922 4.652-1.896 2.167-6.034 3.41zM1316.301 185.17l-2.083 4.14h-10.894l-2.376 4.432q7.076.95 11.214 4.798 3.551 3.312 3.551 7.793 0 2.606-1.175 4.822-1.148 2.216-2.91 3.775t-3.925 2.508q-3.071 1.339-6.301 1.339-3.257 0-4.753-.999-1.468-1.023-1.468-2.241 0-.682.614-1.193.614-.536 1.549-.536.694 0 1.201.195.534.195 1.789.999 2.003 1.266 4.058 1.266 3.124 0 5.474-2.143 2.376-2.167 2.376-5.26 0-2.996-2.109-5.577-2.109-2.606-5.821-4.018-2.91-1.096-7.93-1.266l6.942-12.834h12.977zM1335.252 183.556l-13.109 35.313h-2.136l13.109-35.313h2.136zM1352.527 195.226v7.598h-.881q-1.015-3.58-2.617-4.871-1.575-1.291-4.032-1.291-1.869 0-3.017.901t-1.148 1.997q0 1.364.854 2.338.828.999 3.364 2.119l3.898 1.729q5.42 2.411 5.42 6.356 0 3.044-2.536 4.919-2.51 1.851-5.634 1.851-2.243 0-5.126-.731-.881-.244-1.442-.244-.614 0-.961.633h-.881v-7.964h.881q.748 3.41 2.857 5.139t4.726 1.729q1.842 0 2.99-.974 1.175-.999 1.175-2.387 0-1.68-1.308-2.825-1.282-1.145-5.153-2.898-3.871-1.753-5.073-3.166-1.202-1.388-1.202-3.507 0-2.752 2.056-4.603 2.083-1.851 5.367-1.851 1.442 0 3.498.56 1.362.365 1.816.365.427 0 .667-.17.24-.17.561-.755h.881zM1370.954 196.687h28.809v1.997h-28.809zm0 7.939h28.809v1.997h-28.809zM1420.896 188.407l8.811-3.921h.881v27.885q0 2.776.24 3.458.267.682 1.068 1.047.801.365 3.257.414v.901h-13.617v-.901q2.563-.049 3.311-.39.748-.365 1.041-.95.294-.609.294-3.58v-17.827q0-3.604-.267-4.627-.187-.779-.694-1.145-.481-.365-1.175-.365-.988 0-2.75.755l-.4-.755zM1444.768 226.493v-1.072q2.75-.828 4.245-2.582 1.522-1.729 1.522-3.677 0-.463-.24-.779-.187-.219-.374-.219-.294 0-1.282.487-.481.219-1.015.219-1.308 0-2.083-.706-.774-.706-.774-1.948 0-1.193.988-2.046 1.015-.852 2.456-.852 1.762 0 3.124 1.413 1.388 1.388 1.388 3.702 0 2.508-1.922 4.652-1.896 2.167-6.034 3.41zM1480.994 206.017v3.458h-4.859v8.719h-4.405v-8.719h-15.326v-3.117l16.794-21.869h2.937v21.529h4.859zm-9.265 0v-16.39l-12.71 16.39zM29.889 244.256v11.422h-.988q-.481-3.288-1.736-5.236-1.228-1.948-3.524-3.093t-4.753-1.145q-2.777 0-4.592 1.559-1.816 1.534-1.816 3.507 0 1.51 1.148 2.752 1.655 1.827 7.876 4.871 5.073 2.484 6.915 3.824 1.869 1.315 2.857 3.117 1.015 1.802 1.015 3.775 0 3.75-3.204 6.478-3.177 2.703-8.197 2.703-1.575 0-2.964-.219-.828-.122-3.444-.877-2.59-.779-3.284-.779-.668 0-1.068.365-.374.365-.561 1.51h-.988v-11.324h.988q.694 3.556 1.869 5.333 1.175 1.753 3.578 2.922 2.43 1.169 5.313 1.169 3.338 0 5.26-1.607 1.949-1.607 1.949-3.799 0-1.218-.748-2.46-.721-1.242-2.269-2.314-1.041-.731-5.687-3.093-4.646-2.387-6.622-3.799-1.949-1.413-2.964-3.117-1.015-1.705-1.015-3.75 0-3.556 2.99-6.113 2.99-2.582 7.609-2.582 2.884 0 6.114 1.291 1.495.609 2.109.609.694 0 1.121-.365.454-.39.721-1.534h.988zM58.405 255.735v13.516q0 3.872.187 4.749.214.852.641 1.193.454.341 1.041.341.828 0 1.869-.414l.374.852-7.316 2.752h-1.202v-4.725q-3.151 3.117-4.806 3.921-1.655.804-3.498.804-2.056 0-3.578-1.072-1.495-1.096-2.083-2.801-.587-1.705-.587-4.822v-9.961q0-1.583-.374-2.192-.374-.609-1.121-.925-.721-.341-2.643-.317v-.901h8.571v14.929q0 3.117 1.175 4.091 1.202.974 2.884.974 1.148 0 2.59-.658 1.469-.658 3.471-2.508v-12.639q0-1.9-.774-2.557-.748-.682-3.151-.731v-.901h8.33zM73.864 257.482v14.661q0 3.117.748 3.945.988 1.072 2.643 1.072h2.216v.877h-14.605v-.877h1.095q1.068 0 1.949-.487t1.202-1.315q.347-.828.347-3.215v-14.661h-4.753v-1.753h4.753v-1.461q0-3.336 1.175-5.65t3.578-3.726q2.43-1.437 5.447-1.437 2.804 0 5.153 1.656 1.549 1.096 1.549 2.46 0 .731-.694 1.388-.694.633-1.495.633-.614 0-1.308-.39-.668-.414-1.655-1.729-.988-1.339-1.816-1.802-.828-.463-1.842-.463-1.228 0-2.083.609-.854.584-1.228 1.851-.374 1.242-.374 6.454v1.607h6.301v1.753h-6.301zM89.617 255.076v5.017q3.071-5.017 6.301-5.017 1.469 0 2.43.828.961.804.961 1.875 0 .95-.694 1.607t-1.655.658q-.934 0-2.109-.828-1.148-.852-1.709-.852-.481 0-1.041.487-1.202.999-2.483 3.288v10.691q0 1.851.507 2.801.347.658 1.228 1.096.881.438 2.536.438v.877h-12.522v-.877q1.869 0 2.777-.536.668-.39.934-1.242.134-.414.134-2.362v-8.646q0-3.897-.187-4.627-.16-.755-.641-1.096-.454-.341-1.148-.341-.828 0-1.869.365l-.267-.877 7.396-2.728h1.121zM104.836 264.129q-.027 4.968 2.643 7.793t6.274 2.825q2.403 0 4.165-1.193 1.789-1.218 2.99-4.14l.828.487q-.561 3.336-3.257 6.089-2.697 2.728-6.755 2.728-4.405 0-7.556-3.117-3.124-3.142-3.124-8.426 0-5.723 3.204-8.913 3.231-3.215 8.09-3.215 4.112 0 6.755 2.484 2.643 2.46 2.643 6.6h-16.901zm0-1.413h11.321q-.134-2.143-.561-3.02-.668-1.364-2.002-2.143-1.308-.779-2.75-.779-2.216 0-3.978 1.583-1.736 1.559-2.029 4.359zM130.976 255.047q1.228 0 2.083.804.881.779.881 1.9 0 1.12-.881 1.924-.854.779-2.083.779-1.228 0-2.109-.779-.854-.804-.854-1.924 0-1.12.854-1.9.881-.804 2.109-.804zm-.053 18.241q1.255 0 2.109.804.881.804.881 1.924 0 1.12-.881 1.924-.881.779-2.109.779t-2.109-.779q-.854-.804-.854-1.924 0-1.12.854-1.924.881-.804 2.109-.804zM20.384 334.675q-3.765 2.655-4.726 3.069-1.442.609-3.071.609-2.536 0-4.192-1.583-1.629-1.583-1.629-4.165 0-1.632.801-2.825 1.095-1.656 3.791-3.117 2.723-1.461 9.025-3.556v-.877q0-3.336-1.175-4.579-1.148-1.242-3.364-1.242-1.682 0-2.67.828-1.015.828-1.015 1.9l.053 1.413q0 1.12-.641 1.729-.614.609-1.629.609-.988 0-1.629-.633-.614-.633-.614-1.729 0-2.094 2.35-3.848t6.595-1.753q3.257 0 5.34.999 1.575.755 2.323 2.362.481 1.047.481 4.286v7.574q0 3.19.134 3.921.134.706.427.95.32.244.721.244.427 0 .748-.17.561-.317 2.163-1.778v1.364q-2.99 3.653-5.714 3.653-1.308 0-2.083-.828-.774-.828-.801-2.825zm0-1.583v-8.499q-4.032 1.461-5.207 2.07-2.109 1.072-3.017 2.241-.908 1.169-.908 2.557 0 1.753 1.148 2.922 1.148 1.145 2.643 1.145 2.029 0 5.34-2.435zM30.29 304.277v-1.023q4.058 1.827 6.755 4.311 3.818 3.556 5.901 8.353 2.083 4.773 2.083 9.961 0 7.55-4.085 13.76-4.058 6.235-10.653 8.913v-.901q3.284-1.68 5.393-4.554 2.136-2.849 3.151-7.257 1.041-4.432 1.041-9.23 0-5.187-.881-9.474-.668-3.361-1.682-5.382-.988-2.021-2.643-3.897-1.655-1.875-4.379-3.58zM64.389 316.387h28.809v1.997h-28.809zm0 7.939h28.809v1.997h-28.809zM133.008 331.533l-2.536 6.356h-21.36v-.901q9.425-7.842 13.27-12.81 3.845-4.968 3.845-9.084 0-3.142-2.109-5.163t-5.046-2.021q-2.67 0-4.806 1.437-2.109 1.413-3.124 4.165h-.988q.668-4.505 3.418-6.916 2.777-2.411 6.915-2.411 4.405 0 7.343 2.582 2.964 2.582 2.964 6.089 0 2.508-1.282 5.017-1.976 3.945-6.408 8.353-6.648 6.624-8.304 7.988h9.452q2.884 0 4.032-.195 1.175-.195 2.109-.779.934-.609 1.629-1.705h.988zM849.224 338.638l2.99-12.25h.908q-.187 1.778-.187 2.947 0 3.336 2.323 5.431 2.35 2.094 6.114 2.094 3.498 0 5.313-1.948 1.816-1.973 1.816-4.53 0-1.656-.828-3.02-1.255-2.021-6.702-7.111-2.643-2.435-3.391-3.629-1.228-1.973-1.228-4.14 0-3.458 2.83-5.918t7.262-2.46q1.495 0 2.83.268.828.146 3.017.974 1.549.56 1.709.609.374.073.828.073.774 0 1.335-.365.561-.365 1.308-1.559h1.015l-2.777 10.96h-.908q.107-1.461.107-2.362 0-2.947-2.136-4.822t-5.634-1.875q-2.777 0-4.512 1.486t-1.736 3.434q0 1.705 1.095 3.263 1.121 1.534 5.1 5.041 4.005 3.483 5.18 5.455 1.175 1.948 1.175 4.165 0 2.508-1.469 4.871-1.442 2.338-4.165 3.629t-5.954 1.291q-1.602 0-2.99-.268t-4.432-1.315q-1.041-.365-1.736-.365-1.575 0-2.456 1.948h-1.015zM890.392 309.807l-2.083 6.624h4.192l-.454 1.534h-4.165l-4.592 14.369q-.748 2.314-.748 2.996 0 .414.214.633.214.219.507.219.667 0 1.762-.852.641-.487 2.857-2.996l.881.609q-2.456 3.263-4.646 4.603-1.495.925-3.017.925-1.175 0-1.922-.658-.748-.682-.748-1.729 0-1.315.854-4.018l4.459-14.101h-4.032l.267-.95q2.937-.731 4.886-2.167 1.949-1.461 4.352-5.041h1.175zM917.017 315.842l-5.207 16.512-.587 2.216q-.08.317-.08.536 0 .39.267.682.214.219.534.219.347 0 .908-.39 1.041-.706 2.777-2.922l.908.584q-1.842 2.533-3.791 3.872-1.949 1.315-3.605 1.315-1.148 0-1.736-.536-.561-.511-.561-1.51 0-1.193.587-3.142l.561-1.827q-3.498 4.165-6.435 5.821-2.109 1.193-4.138 1.193-1.949 0-3.364-1.461-1.415-1.486-1.415-4.067 0-3.872 2.536-8.159 2.563-4.311 6.488-6.892 3.071-2.046 5.794-2.046 1.629 0 2.697.779 1.095.779 1.655 2.582l.961-2.776 4.245-.584zm-9.505 1.266q-1.709 0-3.631 1.461-2.723 2.07-4.859 6.137-2.109 4.067-2.109 7.355 0 1.656.908 2.63.908.95 2.083.95 2.91 0 6.328-3.921 4.566-5.212 4.566-10.691 0-2.07-.881-2.996-.881-.925-2.403-.925zM930.764 315.842l-3.551 11.081q4.993-6.795 7.636-8.938 2.67-2.143 5.126-2.143 1.335 0 2.189.804.881.804.881 2.094 0 1.461-.774 3.897l-3.257 10.253q-.561 1.778-.561 2.167 0 .341.214.584.214.219.454.219.32 0 .774-.317 1.415-1.023 3.097-3.117l.828.463q-2.483 3.239-4.699 4.627-1.549.95-2.777.95-.988 0-1.575-.56-.587-.536-.587-1.461 0-1.169.908-4.018l3.097-9.791q.587-1.827.587-2.849 0-.487-.347-.779-.347-.317-.854-.317-.748 0-1.789.584-1.976 1.096-4.112 3.629-2.136 2.508-4.512 6.429-1.255 2.07-2.083 4.53l-1.335 4.018h-4.005l4.859-15.246q.854-2.752.854-3.312 0-.536-.481-.925-.454-.414-1.148-.414-.32 0-1.121.097l-1.015.146-.16-.877 9.238-1.51zM975.618 303.256l-9.185 28.738q-.748 2.338-.748 3.069 0 .244.214.463.24.219.481.219.347 0 .828-.317.908-.584 3.044-2.922l.908.511q-1.922 2.435-3.898 3.945-1.949 1.51-3.658 1.51-.908 0-1.495-.584-.587-.584-.587-1.656 0-1.388.801-3.726l1.041-3.02q-3.871 5.455-7.049 7.55-2.189 1.437-4.192 1.437-2.029 0-3.551-1.632-1.495-1.656-1.495-4.481 0-3.629 2.536-7.745t6.702-6.697q3.284-2.07 6.034-2.07 1.442 0 2.483.536 1.041.536 2.056 1.778l2.617-8.475q.294-.901.481-1.437.32-.974.32-1.607 0-.511-.401-.852-.561-.414-1.442-.414-.614 0-2.029.17v-.901l9.185-1.388zm-9.906 17.291q0-1.559-.988-2.508-.988-.95-2.51-.95-3.364 0-7.022 5.066-3.631 5.066-3.631 9.693 0 1.827.881 2.801.881.95 2.109.95 2.777 0 6.969-5.48t4.192-9.571zM999.039 315.842l-5.207 16.512-.587 2.216q-.08.317-.08.536 0 .39.267.682.214.219.534.219.347 0 .908-.39 1.041-.706 2.777-2.922l.908.584q-1.842 2.533-3.791 3.872-1.949 1.315-3.605 1.315-1.148 0-1.736-.536-.561-.511-.561-1.51 0-1.193.587-3.142l.561-1.827q-3.498 4.165-6.435 5.821-2.109 1.193-4.138 1.193-1.949 0-3.364-1.461-1.415-1.486-1.415-4.067 0-3.872 2.536-8.159 2.563-4.311 6.488-6.892 3.071-2.046 5.794-2.046 1.629 0 2.697.779 1.095.779 1.655 2.582l.961-2.776 4.245-.584zm-9.505 1.266q-1.709 0-3.631 1.461-2.723 2.07-4.859 6.137-2.109 4.067-2.109 7.355 0 1.656.908 2.63.908.95 2.083.95 2.91 0 6.328-3.921 4.566-5.212 4.566-10.691 0-2.07-.881-2.996-.881-.925-2.403-.925zM1003.573 317.208l9.212-1.364-3.845 11.836q4.673-7.282 8.491-10.18 2.163-1.656 3.524-1.656.881 0 1.388.487.507.463.507 1.364 0 1.607-.908 3.069-.641 1.096-1.842 1.096-.614 0-1.068-.365-.427-.365-.534-1.12-.053-.463-.24-.609-.214-.195-.507-.195-.454 0-.854.195-.694.341-2.109 1.9-2.216 2.387-4.806 6.186-1.121 1.607-1.922 3.629-1.121 2.776-1.282 3.336l-.854 3.069h-4.085l4.94-15.123q.854-2.63.854-3.75 0-.438-.401-.731-.534-.39-1.415-.39-.561 0-2.056.219l-.187-.901zM1049.525 303.256l-9.185 28.738q-.748 2.338-.748 3.069 0 .244.214.463.24.219.481.219.347 0 .828-.317.908-.584 3.044-2.922l.908.511q-1.922 2.435-3.898 3.945-1.949 1.51-3.658 1.51-.908 0-1.495-.584-.587-.584-.587-1.656 0-1.388.801-3.726l1.041-3.02q-3.871 5.455-7.049 7.55-2.189 1.437-4.192 1.437-2.029 0-3.551-1.632-1.495-1.656-1.495-4.481 0-3.629 2.536-7.745t6.702-6.697q3.284-2.07 6.034-2.07 1.442 0 2.483.536 1.041.536 2.056 1.778l2.617-8.475q.294-.901.481-1.437.32-.974.32-1.607 0-.511-.4-.852-.561-.414-1.442-.414-.614 0-2.029.17v-.901l9.185-1.388zm-9.906 17.291q0-1.559-.988-2.508-.988-.95-2.51-.95-3.364 0-7.022 5.066-3.631 5.066-3.631 9.693 0 1.827.881 2.801.881.95 2.109.95 2.777 0 6.969-5.48t4.192-9.571zM1058.896 315.823q1.121 0 1.922.731.801.706.801 1.729 0 1.023-.801 1.753-.801.731-1.922.731t-1.922-.731q-.801-.731-.801-1.753t.801-1.729q.801-.731 1.922-.731zm-5.66 17.632q1.121 0 1.896.731.774.706.774 1.729 0 .999-.801 1.729-.774.706-1.869.706-1.121 0-1.922-.706-.774-.731-.774-1.729 0-1.023.774-1.729.801-.731 1.922-.731zM13.228 378.366q3.551-4.505 7.663-4.505 3.765 0 6.568 2.947 2.804 2.922 2.804 8.012 0 5.942-4.325 9.571-3.711 3.117-8.277 3.117-2.136 0-4.352-.706-2.189-.706-4.486-2.119v-23.112q0-3.799-.214-4.676-.187-.877-.614-1.193-.427-.317-1.068-.317-.748 0-1.869.39l-.374-.852 7.343-2.728h1.202v16.171zm0 1.559v13.346q1.362 1.218 2.804 1.851 1.469.609 2.99.609 2.43 0 4.512-2.435 2.109-2.435 2.109-7.087 0-4.286-2.109-6.576-2.083-2.314-4.753-2.314-1.415 0-2.83.658-1.068.487-2.723 1.948zM33.387 363.22v-1.023q4.058 1.827 6.755 4.311 3.818 3.556 5.901 8.353 2.083 4.773 2.083 9.961 0 7.55-4.085 13.76-4.058 6.235-10.653 8.913v-.901q3.284-1.68 5.393-4.554 2.136-2.849 3.151-7.257 1.041-4.432 1.041-9.23 0-5.187-.881-9.474-.668-3.361-1.682-5.382-.988-2.021-2.643-3.897-1.655-1.875-4.379-3.58zM65.08 375.329h28.809v1.997h-28.809zm0 7.939h28.809v1.997h-28.809zM112.028 380.515q0-5.65 1.869-9.717 1.869-4.091 4.966-6.089 2.403-1.583 4.966-1.583 4.165 0 7.476 3.872 4.138 4.798 4.138 13.005 0 5.748-1.816 9.766t-4.646 5.845q-2.804 1.802-5.42 1.802-5.18 0-8.624-5.577-2.91-4.7-2.91-11.324zm5.233.609q0 6.819 1.842 11.13 1.522 3.629 4.539 3.629 1.442 0 2.99-1.169 1.549-1.193 2.35-3.97 1.228-4.189 1.228-11.811 0-5.65-1.282-9.425-.961-2.801-2.483-3.97-1.095-.804-2.643-.804-1.816 0-3.231 1.486-1.922 2.021-2.617 6.356-.694 4.335-.694 8.548zM857.684 378.586q4.299-4.725 8.197-4.725 2.002 0 3.444.925 1.442.901 2.296 2.996.587 1.461.587 4.481v9.522q0 2.119.374 2.874.294.609.934.95.668.341 2.43.341v.877h-12.095v-.877h.507q1.709 0 2.376-.463.694-.487.961-1.413.107-.365.107-2.289v-9.133q0-3.044-.881-4.408-.854-1.388-2.91-1.388-3.177 0-6.328 3.166v11.763q0 2.265.294 2.801.374.706 1.015 1.047.668.317 2.67.317v.877h-12.095v-.877h.534q1.869 0 2.51-.852.668-.877.668-3.312v-8.28q0-4.018-.214-4.895-.187-.877-.614-1.193-.4-.317-1.095-.317-.748 0-1.789.365l-.4-.877 7.369-2.728h1.148v4.725zM889.355 373.868q5.554 0 8.918 3.848 2.857 3.288 2.857 7.55 0 2.996-1.575 6.064t-4.352 4.627q-2.75 1.559-6.141 1.559-5.527 0-8.784-4.018-2.75-3.385-2.75-7.598 0-3.069 1.655-6.089 1.682-3.044 4.405-4.481 2.723-1.461 5.767-1.461zm-.828 1.583q-1.415 0-2.857.779-1.415.755-2.296 2.679-.881 1.924-.881 4.944 0 4.871 2.109 8.402 2.136 3.531 5.607 3.531 2.59 0 4.272-1.948t1.682-6.697q0-5.942-2.803-9.352-1.896-2.338-4.833-2.338zM911.897 373.868v5.017q3.071-5.017 6.301-5.017 1.469 0 2.43.828.961.804.961 1.875 0 .95-.694 1.607t-1.655.658q-.934 0-2.109-.828-1.148-.852-1.709-.852-.481 0-1.041.487-1.202.999-2.483 3.288v10.691q0 1.851.507 2.801.347.658 1.228 1.096.881.438 2.536.438v.877h-12.522v-.877q1.869 0 2.777-.536.668-.39.935-1.242.133-.414.133-2.362v-8.646q0-3.897-.187-4.627-.16-.755-.641-1.096-.454-.341-1.148-.341-.828 0-1.869.365l-.267-.877 7.396-2.728h1.121zM930.262 378.615q2.67-2.435 3.151-2.801 1.202-.925 2.59-1.437 1.388-.511 2.75-.511 2.296 0 3.952 1.218t2.216 3.531q2.75-2.922 4.646-3.824 1.896-.925 3.898-.925 1.949 0 3.444.925 1.522.901 2.403 2.971.587 1.413.587 4.432v9.596q0 2.094.347 2.874.267.536.988.925.721.365 2.35.365v.877h-12.069v-.877h.507q1.575 0 2.456-.56.614-.39.881-1.242.107-.414.107-2.362v-9.596q0-2.728-.721-3.848-1.041-1.559-3.338-1.559-1.415 0-2.857.658-1.415.633-3.444 2.387l-.053.268.053 1.047v10.643q0 2.289.267 2.849.294.56 1.068.95.774.365 2.643.365v.877h-12.362v-.877q2.029 0 2.777-.438.774-.438 1.068-1.315.133-.414.133-2.411v-9.596q0-2.728-.881-3.921-1.175-1.559-3.284-1.559-1.442 0-2.857.706-2.216 1.072-3.418 2.411v11.958q0 2.192.32 2.849.347.658.988.999.668.317 2.67.317v.877h-12.095v-.877q1.682 0 2.35-.317.668-.341 1.015-1.047.347-.731.347-2.801v-8.524q0-3.677-.24-4.749-.187-.804-.587-1.096-.4-.317-1.095-.317-.748 0-1.789.365l-.4-.877 7.369-2.728h1.148v4.749zM979.471 393.618q-3.765 2.655-4.726 3.069-1.442.609-3.071.609-2.536 0-4.192-1.583-1.629-1.583-1.629-4.165 0-1.632.801-2.825 1.095-1.656 3.791-3.117 2.723-1.461 9.025-3.556v-.877q0-3.336-1.175-4.579-1.148-1.242-3.364-1.242-1.682 0-2.67.828-1.015.828-1.015 1.9l.053 1.413q0 1.12-.641 1.729-.614.609-1.629.609-.988 0-1.629-.633-.614-.633-.614-1.729 0-2.094 2.35-3.848t6.595-1.753q3.257 0 5.34.999 1.575.755 2.323 2.362.481 1.047.481 4.286v7.574q0 3.19.134 3.921.134.706.427.95.32.244.721.244.427 0 .748-.17.561-.317 2.163-1.778v1.364q-2.99 3.653-5.714 3.653-1.308 0-2.083-.828-.774-.828-.801-2.825zm0-1.583v-8.499q-4.032 1.461-5.207 2.07-2.109 1.072-3.017 2.241-.908 1.169-.908 2.557 0 1.753 1.148 2.922 1.148 1.145 2.643 1.145 2.029 0 5.34-2.435zM998.264 362.198v29.59q0 2.094.32 2.776.347.682 1.041 1.047.694.341 2.59.341v.877h-11.988v-.877q1.682 0 2.296-.317.614-.317.961-1.047.347-.731.347-2.801v-20.262q0-3.775-.187-4.627-.187-.877-.614-1.193-.4-.317-1.041-.317-.694 0-1.762.39l-.454-.852 7.289-2.728h1.202zM1011.027 373.84q1.228 0 2.083.804.881.779.881 1.9t-.881 1.924q-.854.779-2.083.779-1.228 0-2.109-.779-.854-.804-.854-1.924 0-1.12.854-1.9.881-.804 2.109-.804zm-.053 18.241q1.255 0 2.109.804.881.804.881 1.924t-.881 1.924q-.881.779-2.109.779t-2.109-.779q-.854-.804-.854-1.924 0-1.12.854-1.924.881-.804 2.109-.804zM1166.685 374.518h11.508v.901q-1.095 0-1.549.341-.427.341-.427.901 0 .584.935 1.802.294.39.881 1.218l1.736 2.533 2.002-2.533q1.922-2.411 1.922-3.044 0-.511-.454-.852-.454-.365-1.469-.365v-.901h8.277v.901q-1.308.073-2.269.658-1.308.828-3.578 3.604l-3.338 4.067 6.088 7.988q2.243 2.947 3.204 3.556.961.584 2.483.658v.877h-11.535v-.877q1.202 0 1.869-.487.507-.341.507-.901t-1.709-2.825l-3.578-4.773-3.925 4.773q-1.816 2.216-1.816 2.63 0 .584.587 1.072.614.463 1.816.511v.877h-7.983v-.877q.961-.122 1.682-.609 1.015-.706 3.418-3.604l5.126-6.21-4.646-6.137q-1.976-2.63-3.071-3.288-1.068-.682-2.697-.682v-.901zM1207.937 375.329h28.809v1.997h-28.809zm0 7.939h28.809v1.997h-28.809zM1257.983 367.05l8.811-3.921h.881v27.885q0 2.776.24 3.458.267.682 1.068 1.047.801.365 3.257.414v.901h-13.617v-.901q2.563-.049 3.311-.39.748-.365 1.041-.95.294-.609.294-3.58v-17.827q0-3.604-.267-4.627-.187-.779-.694-1.145-.481-.365-1.175-.365-.988 0-2.75.755l-.4-.755zM1281.855 405.135v-1.072q2.75-.828 4.245-2.582 1.522-1.729 1.522-3.677 0-.463-.24-.779-.187-.219-.374-.219-.294 0-1.282.487-.481.219-1.015.219-1.308 0-2.083-.706-.774-.706-.774-1.948 0-1.193.988-2.046 1.015-.852 2.456-.852 1.762 0 3.124 1.413 1.388 1.388 1.388 3.702 0 2.508-1.922 4.652-1.896 2.167-6.034 3.41zM1295.361 370.086q1.549-3.336 3.898-5.139 2.376-1.827 5.901-1.827 4.352 0 6.675 2.582 1.762 1.924 1.762 4.116 0 3.604-4.966 7.452 3.338 1.193 5.046 3.41t1.709 5.212q0 4.286-2.99 7.428-3.898 4.091-11.294 4.091-3.658 0-4.993-.828-1.308-.828-1.308-1.778 0-.706.614-1.242.641-.536 1.522-.536.667 0 1.362.195.454.122 2.056.901 1.602.755 2.216.901.988.268 2.109.268 2.723 0 4.726-1.924 2.029-1.924 2.029-4.554 0-1.924-.935-3.75-.694-1.364-1.522-2.07-1.148-.974-3.151-1.753-2.002-.804-4.085-.804h-.854v-.731q2.109-.244 4.219-1.388 2.136-1.145 3.097-2.752.961-1.607.961-3.531 0-2.508-1.736-4.043-1.709-1.559-4.272-1.559-4.138 0-6.915 4.043l-.881-.39zM1335.252 362.198l-13.109 35.313h-2.136l13.109-35.313h2.136zM1352.527 373.868v7.598h-.881q-1.015-3.58-2.617-4.871-1.575-1.291-4.032-1.291-1.869 0-3.017.901t-1.148 1.997q0 1.364.854 2.338.828.999 3.364 2.119l3.898 1.729q5.42 2.411 5.42 6.356 0 3.044-2.536 4.919-2.51 1.851-5.634 1.851-2.243 0-5.126-.731-.881-.244-1.442-.244-.614 0-.961.633h-.881v-7.964h.881q.748 3.41 2.857 5.139t4.726 1.729q1.842 0 2.99-.974 1.175-.999 1.175-2.387 0-1.68-1.308-2.825-1.282-1.145-5.153-2.898-3.871-1.753-5.073-3.166-1.202-1.388-1.202-3.507 0-2.752 2.056-4.603 2.083-1.851 5.367-1.851 1.442 0 3.498.56 1.362.365 1.816.365.427 0 .667-.17.24-.17.561-.755h.881zM1370.954 375.329h28.809v1.997h-28.809zm0 7.939h28.809v1.997h-28.809zM1420.896 367.05l8.811-3.921h.881v27.885q0 2.776.24 3.458.267.682 1.068 1.047.801.365 3.257.414v.901h-13.617v-.901q2.563-.049 3.311-.39.748-.365 1.041-.95.294-.609.294-3.58v-17.827q0-3.604-.267-4.627-.187-.779-.694-1.145-.481-.365-1.175-.365-.988 0-2.75.755l-.4-.755zM1444.768 405.135v-1.072q2.75-.828 4.245-2.582 1.522-1.729 1.522-3.677 0-.463-.24-.779-.187-.219-.374-.219-.294 0-1.282.487-.481.219-1.015.219-1.308 0-2.083-.706-.774-.706-.774-1.948 0-1.193.988-2.046 1.015-.852 2.456-.852 1.762 0 3.124 1.413 1.388 1.388 1.388 3.702 0 2.508-1.922 4.652-1.896 2.167-6.034 3.41zM1480.575 390.476l-2.537 6.356h-21.36v-.901q9.425-7.842 13.27-12.81 3.845-4.968 3.845-9.084 0-3.142-2.109-5.163t-5.046-2.021q-2.67 0-4.806 1.437-2.109 1.413-3.124 4.165h-.988q.667-4.505 3.418-6.916 2.777-2.411 6.915-2.411 4.405 0 7.343 2.582 2.964 2.582 2.964 6.089 0 2.508-1.282 5.017-1.976 3.945-6.408 8.353-6.648 6.624-8.304 7.988h9.452q2.884 0 4.032-.195 1.175-.195 2.109-.779.935-.609 1.629-1.705h.988zM27.3 448.205q-.988 4.408-3.871 6.795-2.884 2.362-6.381 2.362-4.165 0-7.262-3.19t-3.097-8.621q0-5.26 3.418-8.548 3.444-3.288 8.25-3.288 3.605 0 5.927 1.753 2.323 1.729 2.323 3.604 0 .925-.668 1.51-.641.56-1.816.56-1.575 0-2.376-.925-.454-.511-.614-1.948-.134-1.437-1.068-2.192-.934-.731-2.59-.731-2.67 0-4.299 1.802-2.163 2.387-2.163 6.308 0 3.994 2.136 7.063 2.163 3.044 5.821 3.044 2.617 0 4.699-1.632 1.469-1.12 2.857-4.067l.774.341zM30.29 423.07v-1.023q4.058 1.827 6.755 4.311 3.818 3.556 5.901 8.353 2.083 4.773 2.083 9.961 0 7.55-4.085 13.76-4.058 6.235-10.653 8.913v-.901q3.284-1.68 5.393-4.554 2.136-2.849 3.151-7.257 1.041-4.432 1.041-9.23 0-5.187-.881-9.474-.668-3.361-1.682-5.382-.988-2.021-2.643-3.897-1.655-1.875-4.379-3.58zM61.982 435.17h28.809v1.997h-28.809zm0 7.939h28.809v1.997h-28.809zM111.938 426.89l8.811-3.921h.881v27.885q0 2.776.24 3.458.267.682 1.068 1.047.801.365 3.257.414v.901h-13.617v-.901q2.563-.049 3.311-.39.748-.365 1.041-.95.294-.609.294-3.58v-17.827q0-3.604-.267-4.627-.187-.779-.694-1.145-.481-.365-1.175-.365-.988 0-2.75.755l-.4-.755zM848.795 436.583l7.529-2.776h1.015v5.212q1.896-2.947 3.791-4.116 1.922-1.193 4.032-1.193 3.685 0 6.141 2.63 3.017 3.215 3.017 8.378 0 5.772-3.631 9.547-2.99 3.093-7.529 3.093-1.976 0-3.418-.511-1.068-.365-2.403-1.461v6.795q0 2.289.294 2.898.32.633 1.068.999.774.365 2.777.365v.901h-12.816v-.901h.668q1.469.024 2.51-.511.507-.268.774-.877.294-.584.294-3.02v-21.09q0-2.167-.214-2.752-.214-.584-.694-.877-.454-.292-1.255-.292-.641 0-1.629.341l-.32-.779zm8.544 3.872v8.329q0 2.703.24 3.556.374 1.413 1.816 2.484 1.469 1.072 3.685 1.072 2.67 0 4.325-1.9 2.163-2.484 2.163-6.99 0-5.114-2.456-7.866-1.709-1.9-4.058-1.9-1.282 0-2.536.584-.961.438-3.177 2.63zM892.245 453.467q-3.765 2.655-4.726 3.069-1.442.609-3.071.609-2.536 0-4.192-1.583-1.629-1.583-1.629-4.165 0-1.632.801-2.825 1.095-1.656 3.791-3.117 2.723-1.461 9.025-3.556v-.877q0-3.336-1.175-4.579-1.148-1.242-3.364-1.242-1.682 0-2.67.828-1.015.828-1.015 1.9l.053 1.413q0 1.12-.641 1.729-.614.609-1.629.609-.988 0-1.629-.633-.614-.633-.614-1.729 0-2.094 2.35-3.848t6.595-1.753q3.257 0 5.34.999 1.575.755 2.323 2.362.481 1.047.481 4.286v7.574q0 3.19.133 3.921.134.706.427.95.32.244.721.244.427 0 .748-.17.561-.317 2.163-1.778v1.364q-2.99 3.653-5.714 3.653-1.308 0-2.083-.828-.774-.828-.801-2.825zm0-1.583v-8.499q-4.032 1.461-5.207 2.07-2.109 1.072-3.017 2.241-.908 1.169-.908 2.557 0 1.753 1.148 2.922 1.148 1.145 2.643 1.145 2.029 0 5.34-2.435zM909.74 427.043v7.33h5.714v1.705h-5.714v14.466q0 2.167.667 2.922.694.755 1.762.755.881 0 1.709-.487.828-.511 1.282-1.486h1.041q-.934 2.387-2.643 3.604-1.709 1.193-3.524 1.193-1.228 0-2.403-.609-1.175-.633-1.736-1.778-.561-1.169-.561-3.58v-15.002h-3.871v-.804q1.469-.536 2.99-1.802 1.549-1.291 2.75-3.044.614-.925 1.709-3.385h.828zM929.759 433.709q5.554 0 8.918 3.848 2.857 3.288 2.857 7.55 0 2.996-1.575 6.064t-4.352 4.627q-2.75 1.559-6.141 1.559-5.527 0-8.784-4.018-2.75-3.385-2.75-7.598 0-3.069 1.655-6.089 1.682-3.044 4.405-4.481 2.723-1.461 5.767-1.461zm-.828 1.583q-1.415 0-2.857.779-1.415.755-2.296 2.679-.881 1.924-.881 4.944 0 4.871 2.109 8.402 2.136 3.531 5.607 3.531 2.59 0 4.272-1.948t1.682-6.697q0-5.942-2.803-9.352-1.896-2.338-4.833-2.338zM953.557 422.048v29.59q0 2.094.32 2.776.347.682 1.041 1.047.694.341 2.59.341v.877h-11.988v-.877q1.682 0 2.296-.317.614-.317.961-1.047.347-.731.347-2.801v-20.262q0-3.775-.187-4.627-.187-.877-.614-1.193-.4-.317-1.041-.317-.694 0-1.762.39l-.454-.852 7.289-2.728h1.202zM972.267 433.709q5.554 0 8.918 3.848 2.857 3.288 2.857 7.55 0 2.996-1.575 6.064t-4.352 4.627q-2.75 1.559-6.141 1.559-5.527 0-8.784-4.018-2.75-3.385-2.75-7.598 0-3.069 1.655-6.089 1.682-3.044 4.405-4.481 2.723-1.461 5.767-1.461zm-.828 1.583q-1.415 0-2.857.779-1.415.755-2.296 2.679-.881 1.924-.881 4.944 0 4.871 2.109 8.402 2.136 3.531 5.607 3.531 2.59 0 4.272-1.948t1.682-6.697q0-5.942-2.803-9.352-1.896-2.338-4.833-2.338zm6.461-12.469l-7.876 8.402h-.908l2.803-8.402h5.981zM994.191 448.54q-2.243-.999-3.444-2.776-1.202-1.802-1.202-3.97 0-3.312 2.723-5.699 2.75-2.387 7.022-2.387 3.498 0 6.061 1.559h5.18q1.148 0 1.335.073.187.049.267.195.16.219.16.779 0 .633-.134.877-.08.122-.294.195-.187.073-1.335.073h-3.177q1.495 1.753 1.495 4.481 0 3.117-2.617 5.333t-7.022 2.216q-1.816 0-3.711-.487-1.175.925-1.602 1.632-.401.682-.401 1.169 0 .414.427.804.454.39 1.736.56.748.097 3.738.17 5.5.122 7.129.341 2.483.317 3.952 1.68 1.495 1.364 1.495 3.361 0 2.752-2.83 5.163-4.165 3.556-10.867 3.556-5.153 0-8.704-2.119-2.002-1.218-2.002-2.533 0-.584.294-1.169.454-.901 1.869-2.508.187-.219 2.723-2.63-1.388-.755-1.976-1.339-.561-.609-.561-1.364 0-.852.748-1.997.774-1.145 3.524-3.239zm4.646-13.662q-1.976 0-3.311 1.437t-1.335 4.408q0 3.848 1.816 5.967 1.388 1.607 3.524 1.607 2.029 0 3.338-1.388t1.308-4.359q0-3.872-1.842-6.064-1.362-1.607-3.498-1.607zm-4.913 21.797q-1.255 1.242-1.896 2.314t-.641 1.973q0 1.169 1.549 2.046 2.67 1.51 7.716 1.51 4.806 0 7.076-1.559 2.296-1.534 2.296-3.288 0-1.266-1.362-1.802-1.388-.536-5.5-.633-6.007-.146-9.238-.56zM1021.215 422.048q1.121 0 1.896.731.801.706.801 1.729t-.801 1.753q-.774.731-1.896.731t-1.922-.731q-.801-.731-.801-1.753t.774-1.729q.801-.731 1.949-.731zm2.216 11.665v17.924q0 2.094.32 2.801.347.682.988 1.023.668.341 2.403.341v.877h-11.881v-.877q1.789 0 2.403-.317.614-.317.961-1.047.374-.731.374-2.801v-8.597q0-3.629-.24-4.7-.187-.779-.587-1.072-.4-.317-1.095-.317-.748 0-1.816.365l-.374-.877 7.369-2.728h1.175zM1050.928 448.205q-.988 4.408-3.871 6.795-2.884 2.362-6.381 2.362-4.165 0-7.262-3.19t-3.097-8.621q0-5.26 3.418-8.548 3.444-3.288 8.25-3.288 3.605 0 5.927 1.753 2.323 1.729 2.323 3.604 0 .925-.667 1.51-.641.56-1.816.56-1.575 0-2.376-.925-.454-.511-.614-1.948-.134-1.437-1.068-2.192-.934-.731-2.59-.731-2.67 0-4.299 1.802-2.163 2.387-2.163 6.308 0 3.994 2.136 7.063 2.163 3.044 5.821 3.044 2.617 0 4.699-1.632 1.469-1.12 2.857-4.067l.774.341zM1066.361 433.709q5.554 0 8.918 3.848 2.857 3.288 2.857 7.55 0 2.996-1.575 6.064t-4.352 4.627q-2.75 1.559-6.141 1.559-5.527 0-8.784-4.018-2.75-3.385-2.75-7.598 0-3.069 1.655-6.089 1.682-3.044 4.405-4.481 2.723-1.461 5.767-1.461zm-.828 1.583q-1.415 0-2.857.779-1.415.755-2.296 2.679-.881 1.924-.881 4.944 0 4.871 2.109 8.402 2.136 3.531 5.607 3.531 2.59 0 4.272-1.948t1.682-6.697q0-5.942-2.804-9.352-1.896-2.338-4.833-2.338zM1087.751 433.689q1.228 0 2.083.804.881.779.881 1.9t-.881 1.924q-.854.779-2.083.779-1.228 0-2.109-.779-.854-.804-.854-1.924 0-1.12.854-1.9.881-.804 2.109-.804zm-.053 18.241q1.255 0 2.109.804.881.804.881 1.924 0 1.12-.881 1.924-.881.779-2.109.779t-2.109-.779q-.854-.804-.854-1.924 0-1.12.854-1.924.881-.804 2.109-.804zM1166.685 434.367h11.508v.901q-1.095 0-1.549.341-.427.341-.427.901 0 .584.935 1.802.294.39.881 1.218l1.736 2.533 2.002-2.533q1.922-2.411 1.922-3.044 0-.511-.454-.852-.454-.365-1.469-.365v-.901h8.277v.901q-1.308.073-2.269.658-1.308.828-3.578 3.604l-3.338 4.067 6.088 7.988q2.243 2.947 3.204 3.556.961.584 2.483.658v.877h-11.535v-.877q1.202 0 1.869-.487.507-.341.507-.901t-1.709-2.825l-3.578-4.773-3.925 4.773q-1.816 2.216-1.816 2.63 0 .584.587 1.072.614.463 1.816.511v.877h-7.983v-.877q.961-.122 1.682-.609 1.015-.706 3.418-3.604l5.126-6.21-4.646-6.137q-1.976-2.63-3.071-3.288-1.068-.682-2.697-.682v-.901zM1207.937 435.17h28.809v1.997h-28.809zm0 7.939h28.809v1.997h-28.809zM1276.62 450.326l-2.536 6.356h-21.36v-.901q9.425-7.842 13.27-12.81 3.845-4.968 3.845-9.084 0-3.142-2.109-5.163-2.109-2.021-5.046-2.021-2.67 0-4.806 1.437-2.109 1.413-3.124 4.165h-.988q.667-4.505 3.418-6.916 2.777-2.411 6.915-2.411 4.405 0 7.343 2.582 2.964 2.582 2.964 6.089 0 2.508-1.282 5.017-1.976 3.945-6.408 8.353-6.648 6.624-8.304 7.988h9.452q2.884 0 4.032-.195 1.175-.195 2.109-.779.935-.609 1.629-1.705h.988zM1281.855 464.985v-1.072q2.75-.828 4.245-2.582 1.522-1.729 1.522-3.677 0-.463-.24-.779-.187-.219-.374-.219-.294 0-1.282.487-.481.219-1.015.219-1.308 0-2.083-.706-.774-.706-.774-1.948 0-1.193.988-2.046 1.015-.852 2.456-.852 1.762 0 3.124 1.413 1.388 1.388 1.388 3.702 0 2.508-1.922 4.652-1.896 2.167-6.034 3.41zM1298.921 426.89l8.811-3.921h.881v27.885q0 2.776.24 3.458.267.682 1.068 1.047.801.365 3.257.414v.901h-13.617v-.901q2.563-.049 3.311-.39.748-.365 1.041-.95.294-.609.294-3.58v-17.827q0-3.604-.267-4.627-.187-.779-.694-1.145-.481-.365-1.175-.365-.988 0-2.75.755l-.4-.755zM1335.252 422.048l-13.109 35.313h-2.136l13.109-35.313h2.136zM1352.527 433.709v7.598h-.881q-1.015-3.58-2.617-4.871-1.575-1.291-4.032-1.291-1.869 0-3.017.901t-1.148 1.997q0 1.364.854 2.338.828.999 3.364 2.119l3.898 1.729q5.42 2.411 5.42 6.356 0 3.044-2.536 4.919-2.51 1.851-5.634 1.851-2.243 0-5.126-.731-.881-.244-1.442-.244-.614 0-.961.633h-.881v-7.964h.881q.748 3.41 2.857 5.139t4.726 1.729q1.842 0 2.99-.974 1.175-.999 1.175-2.387 0-1.68-1.308-2.825-1.282-1.145-5.153-2.898-3.871-1.753-5.073-3.166-1.202-1.388-1.202-3.507 0-2.752 2.056-4.603 2.083-1.851 5.367-1.851 1.442 0 3.498.56 1.362.365 1.816.365.427 0 .667-.17.24-.17.561-.755h.881zM1370.954 435.17h28.809v1.997h-28.809zm0 7.939h28.809v1.997h-28.809zM1420.896 426.89l8.811-3.921h.881v27.885q0 2.776.24 3.458.267.682 1.068 1.047.801.365 3.257.414v.901h-13.617v-.901q2.563-.049 3.311-.39.748-.365 1.041-.95.294-.609.294-3.58v-17.827q0-3.604-.267-4.627-.187-.779-.694-1.145-.481-.365-1.175-.365-.988 0-2.75.755l-.4-.755zM1444.768 464.985v-1.072q2.75-.828 4.245-2.582 1.522-1.729 1.522-3.677 0-.463-.24-.779-.187-.219-.374-.219-.294 0-1.282.487-.481.219-1.015.219-1.308 0-2.083-.706-.774-.706-.774-1.948 0-1.193.988-2.046 1.015-.852 2.456-.852 1.762 0 3.124 1.413 1.388 1.388 1.388 3.702 0 2.508-1.922 4.652-1.896 2.167-6.034 3.41zM1480.994 444.5v3.458h-4.859v8.719h-4.405v-8.719h-15.326v-3.117l16.794-21.869h2.937v21.529h4.859zm-9.265 0v-16.39l-12.71 16.39z"/><g stroke="#000" fill="none"><path d="M1166.33 129.26h22.787M1166.33 189.29h22.787M1166.33 367.36h22.787M1166.33 427.39h22.787M531.28 600.934h447.6"/></g><path d="M546.35 646.42q0-5.666 1.71-9.745 1.71-4.103 4.543-6.106 2.198-1.588 4.543-1.588 3.81 0 6.839 3.883 3.786 4.812 3.786 13.043 0 5.764-1.661 9.794t-4.25 5.862q-2.564 1.807-4.958 1.807-4.738 0-7.889-5.593-2.662-4.714-2.662-11.357zm4.787.611q0 6.839 1.685 11.162 1.392 3.639 4.152 3.639 1.319 0 2.736-1.172 1.417-1.197 2.149-3.981 1.123-4.201 1.123-11.846 0-5.666-1.172-9.452-.879-2.809-2.271-3.981-1.001-.806-2.418-.806-1.661 0-2.955 1.49-1.758 2.027-2.394 6.375-.635 4.348-.635 8.573zM650.44 632.913l8.06-3.932h.806v27.966q0 2.784.22 3.468.244.684.977 1.05t2.98.415v.904h-12.456v-.904q2.345-.049 3.029-.391.684-.366.953-.953.269-.611.269-3.59v-17.879q0-3.615-.244-4.641-.171-.782-.635-1.148-.44-.366-1.075-.366-.904 0-2.516.757l-.366-.757zM767.56 656.41l-2.32 6.375h-19.539v-.904q8.622-7.865 12.139-12.847 3.517-4.982 3.517-9.11 0-3.151-1.929-5.178t-4.616-2.027q-2.442 0-4.396 1.441-1.929 1.417-2.858 4.176h-.904q.611-4.519 3.126-6.936 2.54-2.418 6.326-2.418 4.03 0 6.717 2.589 2.711 2.589 2.711 6.106 0 2.516-1.172 5.031-1.807 3.957-5.862 8.377-6.082 6.643-7.596 8.011h8.646q2.638 0 3.688-.195 1.075-.195 1.929-.782.855-.611 1.49-1.71h.904zM847.2 635.966q1.417-3.346 3.566-5.154 2.174-1.832 5.398-1.832 3.981 0 6.106 2.589 1.612 1.929 1.612 4.128 0 3.615-4.543 7.474 3.053 1.197 4.616 3.419t1.563 5.227q0 4.299-2.736 7.449-3.566 4.103-10.331 4.103-3.346 0-4.567-.83-1.197-.83-1.197-1.783 0-.708.562-1.246.586-.537 1.392-.537.611 0 1.246.195.415.122 1.881.904 1.466.757 2.027.904.904.269 1.929.269 2.491 0 4.323-1.929 1.856-1.929 1.856-4.567 0-1.929-.855-3.761-.635-1.368-1.392-2.076-1.05-.977-2.882-1.758-1.832-.806-3.737-.806h-.782v-.733q1.929-.244 3.859-1.392 1.954-1.148 2.833-2.76.879-1.612.879-3.542 0-2.516-1.588-4.054-1.563-1.563-3.908-1.563-3.786 0-6.326 4.054l-.806-.391zM967.98 650.572v3.468h-4.445v8.744h-4.03v-8.744h-14.019v-3.126l15.363-21.933h2.687v21.591h4.445zm-8.475 0v-16.437l-11.626 16.437zM554.018 574.423q1.293 0 2.174 1.29.88 1.251.88 3.049t-.908 3.088q-.88 1.251-2.146 1.251t-2.174-1.251q-.88-1.29-.88-3.088 0-1.837.88-3.088.908-1.251 2.174-1.251zM652.634 574.423q1.293 0 2.174 1.29.88 1.251.88 3.049t-.908 3.088q-.88 1.251-2.146 1.251t-2.174-1.251q-.88-1.29-.88-3.088 0-1.837.88-3.088.908-1.251 2.174-1.251zM751.25 574.423q1.293 0 2.174 1.29.88 1.251.88 3.049t-.908 3.088q-.88 1.251-2.146 1.251t-2.174-1.251q-.88-1.29-.88-3.088 0-1.837.88-3.088.908-1.251 2.174-1.251zM849.866 574.423q1.293 0 2.174 1.29.88 1.251.88 3.049t-.908 3.088q-.88 1.251-2.146 1.251t-2.174-1.251q-.88-1.29-.88-3.088 0-1.837.88-3.088.908-1.251 2.174-1.251zM962.527 574.423q1.293 0 2.174 1.29.88 1.251.88 3.049t-.908 3.088q-.881 1.251-2.146 1.251-1.266 0-2.174-1.251-.88-1.29-.88-3.088 0-1.837.88-3.088.908-1.251 2.174-1.251zM545.65 547.527h-12.823l-2.247 5.227q-.83 1.929-.83 2.882 0 .757.708 1.343.733.562 3.126.733v.904h-10.429v-.904q2.076-.366 2.687-.953 1.246-1.172 2.76-4.763l11.65-27.257h.855l11.528 27.55q1.392 3.322 2.516 4.323 1.148.977 3.175 1.099v.904h-13.067v-.904q1.978-.098 2.662-.659.708-.562.708-1.368 0-1.075-.977-3.395l-2.003-4.763zm-.684-1.807l-5.618-13.384-5.764 13.384h11.382zM581.85 524.74v11.455h-.904q-.44-3.297-1.588-5.251-1.123-1.954-3.224-3.102-2.1-1.148-4.348-1.148-2.54 0-4.201 1.563-1.661 1.539-1.661 3.517 0 1.514 1.05 2.76 1.514 1.832 7.205 4.885 4.641 2.491 6.326 3.835 1.71 1.319 2.613 3.126.928 1.807.928 3.786 0 3.761-2.931 6.497-2.906 2.711-7.498 2.711-1.441 0-2.711-.22-.757-.122-3.151-.879-2.369-.782-3.004-.782-.611 0-.977.366-.342.366-.513 1.514h-.904v-11.357h.904q.635 3.566 1.71 5.349 1.075 1.758 3.273 2.931 2.223 1.172 4.86 1.172 3.053 0 4.812-1.612 1.783-1.612 1.783-3.81 0-1.221-.684-2.467-.659-1.246-2.076-2.32-.953-.733-5.202-3.102-4.25-2.394-6.057-3.81-1.783-1.417-2.711-3.126-.928-1.71-.928-3.761 0-3.566 2.736-6.13 2.736-2.589 6.961-2.589 2.638 0 5.593 1.294 1.368.611 1.929.611.635 0 1.026-.366.415-.391.659-1.539h.904zM954.75 543.684q3.444.733 5.154 2.345 2.369 2.247 2.369 5.495 0 2.467-1.563 4.738-1.563 2.247-4.299 3.297-2.711 1.026-8.304 1.026h-15.631v-.904h1.246q2.076 0 2.98-1.319.562-.855.562-3.639v-21.396q0-3.077-.708-3.883-.953-1.075-2.833-1.075h-1.246v-.904h14.313q4.006 0 6.424.586 3.664.879 5.593 3.126 1.929 2.223 1.929 5.129 0 2.491-1.514 4.47-1.514 1.954-4.47 2.906zm-12.798-1.319q.904.171 2.052.269 1.172.073 2.564.073 3.566 0 5.349-.757 1.807-.782 2.76-2.369.953-1.588.953-3.468 0-2.906-2.369-4.958t-6.912-2.052q-2.442 0-4.396.537v12.725zm0 15.827q2.833.659 5.593.659 4.421 0 6.741-1.978 2.32-2.003 2.32-4.934 0-1.929-1.05-3.712t-3.419-2.809-5.862-1.026q-1.514 0-2.589.049t-1.734.171v13.58zM987.99 526.709v11.455h-.904q-.44-3.297-1.588-5.251-1.123-1.954-3.224-3.102-2.1-1.148-4.348-1.148-2.54 0-4.201 1.563-1.661 1.539-1.661 3.517 0 1.514 1.05 2.76 1.514 1.832 7.205 4.885 4.641 2.491 6.326 3.835 1.71 1.319 2.613 3.126.928 1.807.928 3.786 0 3.761-2.931 6.497-2.906 2.711-7.498 2.711-1.441 0-2.711-.22-.757-.122-3.151-.879-2.369-.782-3.004-.782-.611 0-.977.366-.342.366-.513 1.514h-.904v-11.357h.904q.635 3.566 1.71 5.349 1.075 1.758 3.273 2.931 2.223 1.172 4.86 1.172 3.053 0 4.812-1.612 1.783-1.612 1.783-3.81 0-1.221-.684-2.467-.659-1.246-2.076-2.32-.953-.733-5.202-3.102-4.25-2.394-6.057-3.81-1.783-1.417-2.711-3.126-.928-1.71-.928-3.761 0-3.566 2.736-6.13 2.736-2.589 6.961-2.589 2.638 0 5.593 1.294 1.368.611 1.929.611.635 0 1.026-.366.415-.391.659-1.539h.904z"/></svg>