<?xml version="1.0" encoding="UTF-8" standalone="no"?>

<svg xmlns:rdf="http://www.w3.org/1999/02/22-rdf-syntax-ns#" 
xmlns="http://www.w3.org/2000/svg" 
enable-background="new 0 0 946.455 476.822" 
xml:space="preserve" 
height="476.822px" 
viewBox="0 0 946.455 476.822" 
width="946.455px" 
version="1.1" 
y="0px" 
x="0px" 
>
<metadata>
</metadata>
<path d="M240.023,40.406c-1.59,4.404-3.368,8.738-4.967,13.136-2.334,6.416-3.949,13.122-6.011,19.63-0.989,3.12-2.077,6.224-2.897,9.395-0.156,0.605-0.992,2.973-0.081,3.388,0.938,0.427,2.694-1.046,3.38-1.495,1.6-1.047,3.168-2.143,4.747-3.222,0.332-0.227,1.26-1.14,1.673-1.144,0.127-0.001,1.657,0.931,1.656,1.033-0.005,0.394-0.009,0.789-0.014,1.183-0.03,2.583-0.06,5.165-0.091,7.748-0.102,8.738-0.204,17.476-0.306,26.214-0.225,19.253-0.437,38.507-0.782,57.759-0.262,14.64-0.767,29.242-0.883,43.888-0.156,19.689-0.22,39.379-0.293,59.068-0.06,16.255-0.121,32.511-0.181,48.766-0.026,7.105,0.292,14.207,0.337,21.314,0.087,13.563,0.149,27.123,0.116,40.688-0.023,9.265-0.077,18.53-0.154,27.795-0.035,4.226-0.07,8.452-0.105,12.678-0.006,0.732-0.201,1.744-0.02,2.461,0.143,0.566,0.786,1.282,1.104,1.788,0.448,0.712,1.298,0.43,2.102,0.43,0.421,0,1.59,0.224,1.919,0,0.36-0.245,0.529-1.64,0.677-2.128,0.167-0.549,0.418-1.079,0.415-1.655-0.005-1.178-0.009-2.357-0.014-3.535-0.022-5.608-0.045-11.216-0.067-16.824-0.07-17.619-0.141-35.238-0.211-52.857-0.054-13.583-0.109-27.166-0.163-40.748-0.028-7.053-0.009-14.106-0.006-21.159,0.006-17.589,0.012-35.177,0.018-52.766,0.005-15.603-0.189-31.237,0.68-46.822,0.284-5.084,0.169-10.2,0.206-15.29,0.065-8.962,0.13-17.924,0.195-26.885,0.144-19.862,0.26-39.724,0.554-59.584,0.056-3.761,0.091-7.525,0.228-11.285,0.018-0.481-0.206-1.44,0.481-1.165,2.302,0.92,4.387,2.511,6.442,3.877,1.557,1.035,3.113,2.07,4.67,3.105,0.123,0.081,1.087-1.004,1.247-1.164,0.401-0.401-0.423-1.689-0.613-2.166-1.072-2.693-1.913-5.466-2.779-8.231-2.25-7.187-4.426-14.398-6.558-21.621-0.884-2.996-1.764-5.993-2.601-9.003-0.311-1.119-0.608-2.241-0.909-3.363-0.054-0.203-0.193-1.232-0.424-1.232h-1.717zm48.062,4.5c-1.476-0.112,0.386,2.437,0.63,2.793,1.38,2.009,2.855,3.92,4.14,5.997,2.491,4.026,4.617,8.271,6.961,12.384,2.797,4.907,5.762,9.718,8.508,14.654,0.678,1.218,1.768,2.671,2.066,4.059,0.311,1.447,1.801,2.377,2.882,3.27,1.018-3.904,1.974-7.827,3.25-11.656,14.771,15.324,29.296,30.882,44.07,46.203,19.964,20.703,40.46,40.883,60.456,61.555,17.254,17.838,34.54,35.649,51.7,53.577,0.52,0.544,1.04,1.087,1.561,1.631,0.263,0.275,0.097,0.275-0.173,0.537-1.345,1.307-2.69,2.613-4.035,3.92-3.566,3.465-7.134,6.928-10.707,10.386-9.811,9.498-19.67,18.945-29.573,28.347-11.407,10.83-22.806,21.67-33.899,32.823-7.515,7.557-14.827,15.299-22.405,22.795-21.615,21.378-43.536,42.448-65.308,63.666-8.295,8.084-16.463,16.353-25.111,24.064-1.458,1.3-2.968,2.791-4.711,3.714-0.534,0.283-0.941,0.283-1.547,0.283-0.817,0-0.473,1.164-0.176,1.725,0.599,1.133,1.575,1.986,2.477,2.87,0.571,0.56,1.058,0.405,1.862,0.405,0.344,0,1.364,0.187,1.598-0.047,1.028-1.028,2.056-2.056,3.085-3.085,2.388-2.388,4.769-4.782,7.164-7.162,9.526-9.465,19.274-18.712,28.991-27.981,19.427-18.532,39.041-36.878,58.194-55.695,2.033-1.997,4.063-3.999,6.05-6.043,1.302-1.339,2.132-2.961,3.377-4.357,1.163-1.304,2.714-2.128,3.902-3.35,0.716-0.736,1.433-1.471,2.152-2.204,8.049-8.211,16.203-16.32,24.369-24.415,14.875-14.746,29.875-29.361,44.994-43.857,1.016-0.974,13.518-13.153,13.688-12.979,4.837,4.948,9.673,9.895,14.51,14.843,5.592,5.72,11.193,11.432,16.764,17.173,5.198,5.356,10.382,10.727,15.497,16.162,3.145,3.342,6.014,6.897,9.117,10.271,6.737,7.324,13.982,14.238,20.93,21.361,11.826,12.125,23.614,24.287,35.455,36.397,13.698,14.009,27.605,27.815,41.203,41.922,7.395,7.672,14.748,15.385,22.101,23.098,2.188,2.295,4.352,4.617,6.579,6.874,0.915,0.927,1.948,2.181,3.195,2.678,1.513,0.603,3.485-2.014,4.421-2.853-11.03-11.491-22.053-22.989-33.096-34.467-9.53-9.905-19.095-19.776-28.639-29.667-9.621-9.971-18.949-20.319-28.964-29.898-10.351-9.901-20.373-20.109-30.368-30.372-5.512-5.66-11.108-11.273-16.371-17.169-0.961-1.077-1.809-2.242-2.767-3.318-3.849-4.324-7.945-8.442-11.983-12.587-5.982-6.14-12.025-12.221-18.086-18.283-3.633-3.633-7.414-7.202-10.703-11.159-1.235-1.486-3.03-3.542-2.731-5.648,0.261-1.832,2.039-3.232,3.316-4.394,9.061-8.25,17.873-16.84,26.562-25.479,4.5-4.474,8.983-8.998,13.755-13.171,2.778-2.429,5.769-4.649,8.648-6.955,5.124-4.105,9.706-8.713,14.421-13.28,17.917-17.355,35.901-34.64,53.819-51.994,8.299-8.038,16.578-16.097,24.837-24.176,3.048-2.981,6.096-5.963,9.144-8.944,1.027-1.004,2.054-2.009,3.081-3.013,0.336-0.328,2.641-0.494,2.703-0.203,0.684,3.217,1.367,6.433,2.051,9.65,0.114,0.536,0.897,0.277,1.378,0.277,0.891,0,1.084,0.177,1.489-0.563,0.937-1.713,1.873-3.425,2.81-5.138,5.157-9.43,10.584-18.722,16.058-27.971,1.451-2.452,2.903-4.904,4.411-7.322,0.656-1.052,1.371-2.069,1.975-3.152,0.903-1.618,1.314-2.887,1.314-4.697-5.858,5.208-12.89,9.024-19.578,13.058-5.04,3.039-10.108,6.035-15.219,8.952-2.092,1.194-4.192,2.376-6.312,3.521-1.479,0.799-2.956,1.603-4.349,2.548-0.901,0.611-1.542,0.933-1.542,2.031,0,0.39,4.072,1.427,4.605,1.604,0.629,0.208,1.261,0.399,1.904,0.559,0.791,0.196,1.916,0.285,2.549,0.855,0.667,0.601-0.091,1.636-0.473,2.167-1.45,2.016-3.328,3.761-5.085,5.5-9.667,9.569-19.656,18.822-29.481,28.227-10.148,9.714-20.283,19.442-30.377,29.212-9.046,8.755-18.017,17.587-27.07,26.334-4.163,4.022-8.331,8.044-12.583,11.973-1.043,0.964-2.085,1.934-3.175,2.845-0.466,0.39-0.886,0.467-1.29,0.765-1.369,1.013-2.523,2.299-3.755,3.465-0.737,0.698-2.438,2.727-3.582,2.727-1.139,0-2.702,2.018-3.375,2.75-0.434,0.472-0.885,0.929-1.335,1.386-3.951,4.011-8.009,7.918-12.052,11.834-8.529,8.26-17.134,16.44-25.755,24.605-0.803,0.761-0.932,0.049-1.66-0.716-1.456-1.529-2.911-3.058-4.367-4.587-2.843-2.986-5.686-5.973-8.535-8.954-9.316-9.751-18.847-19.326-27.754-29.455-9.393-10.682-19.628-20.644-29.396-30.981-5.994-6.343-12.139-12.483-18.321-18.635-13.787-13.721-27.387-27.631-40.946-41.577-5.976-6.147-11.943-12.302-17.853-18.513-2.677-2.813-5.893-5.568-7.844-8.964-0.829-1.442,5.434-1.938,6.353-2.038,1.133-0.123,2.267-0.247,3.4-0.37,0.604-0.066,0.967-1.132,1.284-1.628-5.469-2.868-10.954-5.708-16.4-8.621-5.498-2.941-10.966-5.944-16.372-9.05-2.603-1.495-5.175-3.043-7.823-4.458-1.395-0.746-3.129-1.908-4.754-2.031zm427.844,2.5c-2.21,10.689-4.776,21.286-7.408,31.879-1.456,5.859-3.243,11.751-4.17,17.727-0.204,1.313-0.626,3.954,1.498,3.057,3.11-1.314,6.035-3.587,8.893-5.35-0.126,12.125-0.252,24.251-0.377,36.376-0.143,13.817-0.287,27.634-0.43,41.452-0.248,23.884-0.398,47.769-0.535,71.654-0.167,29.136-0.295,58.272-0.357,87.408-0.026,12.24-0.038,24.48-0.055,36.72-0.024,17.401-0.048,34.802-0.072,52.202-0.006,4.459-0.012,8.917-0.018,13.376h2.219c0.454,0,1.912,0.26,2.25,0,0.333-0.256,0.445-1.778,0.553-2.212,0.19-0.76,0.375-1.52,0.563-2.281,0.156-0.634,0.015-1.473,0.017-2.12,0.019-4.982,0.038-9.964,0.057-14.946,0.067-17.349,0.133-34.697,0.2-52.046,0.053-13.871,0.107-27.742,0.16-41.613,0.098-25.579,0.21-51.157,0.358-76.735,0.168-28.875,0.368-57.749,0.659-86.623,0.172-17.061,0.305-34.129,0.735-51.186,0.065-2.581-0.237-5.594,0.357-8.133,0.15-0.642,4.592,1.654,4.94,1.837,0.747,0.395,1.494,0.79,2.24,1.184,0.437,0.231,1.563,1.124,2.066,1.092,0.435-0.028,1.433-0.888,1.827-1.126,0.404-0.245-0.146-1.055-0.29-1.436-0.641-1.702-1.282-3.403-1.923-5.105-3.408-9.045-5.473-18.694-7.8-28.054-1.087-4.372-2.172-8.744-3.276-13.112-0.255-1.009-0.508-2.019-0.761-3.029-0.161-0.642-0.032-0.857-0.699-0.857h-1.421z"/>
<g transform="translate(-27.695847,-7.3752823)">
	<path d="M180.359,27.783c0.453,0.35,0.642,0.277,0.307,0.847-0.452,0.768-1.001,1.484-1.666,2.08-1.274,1.142-2.958,1.802-4.67,1.802-3.331,0-5.848-2.299-6.796-5.407-1.851-6.069,3.009-14.587,10.144-11.493,1.308,0.567,2.532,1.77,2.711,3.238,0.194,1.594-0.962,2.79-2.574,2.561-1.574-0.224-2.025-1.731-2.148-3.101-0.132-1.39-1.364-2.84-2.651-1.413-2.124,2.355-1.242,7.235-0.07,9.798,0.61,1.334,1.603,2.623,3.112,2.939,1.791,0.375,3.138-0.611,4.301-1.851z"/>
	<path d="M198.781,15.584v12.796c0,0.67-0.008,1.385,0.179,2.036,0.167,0.578,1.596,0.994,1.596,1.069,0,0.489,0.106,0.534-0.352,0.534h-1.899-4.095c-0.737,0-0.352-1.585-0.352-2.197-1.174,1.402-2.632,2.529-4.514,2.672-1.909,0.145-3.794-0.959-4.398-2.83-0.629-1.946-0.369-4.252-0.369-6.286,0-1.896,0.235-4.019-0.112-5.896-0.104-0.562-0.355-0.897-0.911-1.085-0.146-0.049-1.332-0.313-0.752-0.814,0.254-0.219,1.666,0,1.989,0,0.375,0,4.708-0.038,4.708,0.035v4.618,5.917c0,0.646-0.007,1.293,0.031,1.939,0.092,1.576,1.334,2.745,2.848,1.544,0.698-0.554,1.481-1.284,1.481-2.202v-2.8-5.472c0-1.536-0.031-2.704-1.775-2.929-0.618-0.82,0.753-0.65,1.046-0.65,1.883,0.001,3.767,0.001,5.651,0.001z"/>
	<path d="M209.767,15.584v3.727c0.866-1.351,1.847-2.823,3.273-3.639,1.351-0.773,3.545-0.946,4.033,0.935,0.406,1.563-0.427,3.57-2.307,3.247-1.593-0.274-2.389-2.429-3.867-0.387-1.51,2.087-1.132,5.249-1.132,7.707,0,0.631,0.005,1.261,0.016,1.891,0.01,0.55-0.05,1.171,0.287,1.644,0.249,0.348,1.858,0.8,1.858,0.778,0,0.719-0.14,0.534-0.819,0.534h-3.066-4.981c-0.023,0-0.011-0.385-0.011-0.316,0-0.406-0.088-0.279,0.401-0.368,0.542-0.099,1.042-0.336,1.214-0.89,0.277-0.89,0.213-1.871,0.213-2.796v-6.062c0-0.841,0.008-1.682,0-2.523,0-0.794,0.113-1.991-0.65-2.514-0.331-0.226-0.792-0.276-1.178-0.316-0.045-0.055,0.014-0.65,0.015-0.65,2.235-0.002,4.468-0.002,6.701-0.002z"/>
	<path d="M227.978,29.594c-2.01,1.775-6.849,4.622-8.433,0.692-1.322-3.279,2.242-5.491,4.627-6.779,0.871-0.47,3.806-1.366,3.806-2.304,0-1.108,0.229-2.539-0.202-3.571-0.615-1.47-3.173-1.616-4.165-0.472-0.571,0.659,0.234,1.29,0.581,1.804,0.557,0.826,0.467,1.859-0.266,2.552-1.136,1.074-3.234,0.684-4.011-0.632-0.965-1.634,0.603-3.588,1.933-4.428,2.83-1.789,7.613-2.175,10.014,0.511,1.443,1.614,1.021,4.136,1.021,6.159,0,1.767-0.029,3.536,0.004,5.303,0.014,0.737,0.308,2.263,1.37,1.281,0.464-0.429,0.297-0.375,0.759-0.005,0.224,0.179-0.907,1.295-1.117,1.484-1.983,1.778-5.532,1.36-5.921-1.595zm0-1.283v-5.502c-1.597,0.937-3.85,2.502-3.85,4.588,0,2.451,2.568,2.016,3.85,0.914z"/>
	<path d="M250.32,27.783c0.453,0.35,0.642,0.277,0.307,0.847-0.452,0.768-1.001,1.484-1.666,2.08-1.393,1.249-3.238,1.887-5.102,1.791-3.301-0.171-5.685-2.705-6.477-5.802-0.829-3.241-0.092-7.011,2.244-9.47,2.044-2.152,5.678-2.85,8.347-1.458,1.283,0.67,2.4,1.962,2.401,3.47,0,1.597-1.467,2.549-2.969,2.088-1.557-0.478-1.604-2.097-1.831-3.435-0.271-1.6-1.884-2.116-2.846-0.674-1.78,2.635-0.997,7.254,0.377,9.879,1.688,3.228,4.891,3.177,7.215,0.684z"/>
	<path d="M256.824,7.621c3.519,0,3.522,5.432,0,5.432-3.505,0-3.496-5.432,0-5.432zm2.461,7.963v10.443c0,1.342-0.232,3.147,0.206,4.427,0.202,0.59,0.762,0.802,1.34,0.888,0.529,0.079,0.44-0.06,0.44,0.361,0-0.069,0.012,0.316-0.011,0.316h-1.814-6.233c-0.679,0-0.819,0.185-0.819-0.534,0,0.005,1.392-0.477,1.617-0.732,0.437-0.502,0.352-1.541,0.352-2.145,0.048-3.184,0-6.372,0-9.556,0-1.288-0.03-2.546-1.535-2.774-0.525-0.08-0.434,0.055-0.434-0.37,0-0.081-0.065-0.325,0.058-0.325h0.967c1.955,0.001,3.91,0.001,5.866,0.001z"/>
	<path d="M270.605,15.092c10.463,0,10.172,17.858-0.378,17.411-9.86-0.418-9.511-17.411,0.378-17.411zm0.07,1.248c-2.953,0-2.526,4.93-2.565,6.857-0.039,1.934-0.636,9.278,3.22,7.992,2.228-0.743,1.813-4.981,1.843-6.762,0.033-1.954,0.773-8.087-2.498-8.087zm5.326-8.965c-1.22,1.279-2.44,2.558-3.66,3.837-0.656,0.687-1.311,1.374-1.967,2.062-0.394,0.413-1.161,0.201-1.703,0.201,0.666-1.991,1.331-3.982,1.997-5.973,0.165-0.494,4.617-0.127,5.333-0.127z"/>
	<path d="M287.568,15.584v2.127c1.201-1.301,2.652-2.456,4.481-2.602,1.798-0.143,3.471,0.688,4.243,2.358,0.867,1.877,0.54,4.277,0.54,6.308,0,1.866-0.095,3.762,0.028,5.626,0.033,0.505,0.047,1.218,0.482,1.569,0.445,0.359,1.266,0.144,1.266,0.733,0,0.568-0.756,0.316-1.248,0.316h-6.202c-0.692,0-0.865,0.198-0.865-0.534,0-0.041,1.157-0.585,1.336-0.872,0.367-0.573,0.281-1.54,0.281-2.18,0.02-1.666,0-3.333,0-4.999,0-1.485,0.492-4.298-0.467-5.46-1.161-1.407-2.931,0.238-3.613,1.242-0.382,0.562-0.262,1.115-0.262,1.787v6.255c0,0.558-0.01,1.117,0.007,1.675,0.017,0.562-0.004,1.35,0.336,1.838,0.497,0.713,1.274,0.223,1.274,1.149,0,0.208-4.158,0.099-4.572,0.099h-2.877c-0.296,0-1.431,0.122-0.865-0.633,2.3-0.234,1.775-2.792,1.775-4.509v-6.378c0-0.449,0.006-0.898,0-1.347,0-0.686,0.036-1.517-0.252-2.161-0.197-0.442-1.524-0.736-1.524-0.859,0-0.596-0.059-0.549,0.496-0.549h2.297c1.302,0.001,2.603,0.001,3.905,0.001z"/>
	<path d="M316.255,30.35v5.213c0,0.792-0.071,1.643,0.129,2.412,0.15,0.575,0.595,0.921,1.164,1.018,0.39,0.066,0.791,0.076,1.185,0.076,0.03,0.036,0.027,0.631,0,0.65-0.21,0.148-1.066,0-1.312,0h-3.235-4.812c-0.022,0-0.011-0.401-0.011-0.325,0-0.419-0.091-0.287,0.413-0.361,0.556-0.082,1.188-0.338,1.376-0.915,0.22-0.675,0.179-1.415,0.179-2.119v-4.64-11.788c0-0.917,0.219-2.371-0.596-2.959-0.388-0.28-0.91-0.349-1.372-0.377-0.044-0.056,0.014-0.65,0.015-0.65h1.45,4.779c0.252,0,0.647-0.134,0.647,0.16v2.002c1.593-2.341,4.466-3.444,7.086-2.012,2.795,1.529,3.795,5.001,3.795,7.988,0,2.759-0.74,6.016-3.12,7.708-2.563,1.823-5.763,1.206-7.76-1.081zm0-1.776c0.895,1.27,3.09,3.207,4.539,1.503,1-1.175,1.073-3.068,1.141-4.524,0.09-1.916,0.382-9.741-3.611-8.157-2.439,0.968-2.07,3.486-2.07,5.547,0.001,1.878,0.001,3.755,0.001,5.631z"/>
	<path d="M340.32,15.127c0.088,1.869,0.176,3.738,0.264,5.607-0.907,0.255-1.106-1.133-1.468-1.744-0.53-0.895-1.187-1.68-2.12-2.174-0.851-0.451-1.995-0.646-2.758,0.077-0.74,0.702-0.583,1.636,0.085,2.299,2.853,2.83,8.575,4.57,6.817,9.71-0.785,2.295-2.932,3.775-5.381,3.598-1.106-0.08-2.109-0.51-3.154-0.834-1.006-0.312-1.012,0.793-1.862,0.793-0.225,0-0.341-5.251-0.372-5.906,0.709-0.205,0.709,0.356,0.938,0.882,0.328,0.754,0.748,1.477,1.303,2.088,0.949,1.047,2.808,2.282,4.231,1.379,3.36-2.131-3.617-5.837-4.802-6.9-2.393-2.147-2.624-6.148,0.212-8.097,1.334-0.917,3.223-1.036,4.729-0.524,0.604,0.205,1.476,0.936,2.125,0.493,0.483-0.329,0.502-0.941,1.213-0.747z"/>
	<path d="M350.339,15.584v10.443c0,1.343-0.232,3.147,0.206,4.427,0.202,0.59,0.762,0.802,1.34,0.888,0.529,0.079,0.44-0.06,0.44,0.361,0-0.069,0.012,0.316-0.011,0.316h-1.814-6.233c-0.679,0-0.819,0.185-0.819-0.534,0,0.005,1.392-0.477,1.617-0.732,0.437-0.502,0.352-1.541,0.352-2.145,0.048-3.184,0-6.372,0-9.556,0-1.288-0.03-2.546-1.535-2.774-0.525-0.08-0.434,0.055-0.434-0.37,0-0.081-0.065-0.325,0.058-0.325h0.967c1.956,0.001,3.911,0.001,5.866,0.001zm2.795-8.209c-1.22,1.279-2.44,2.558-3.66,3.837-0.656,0.687-1.311,1.374-1.967,2.062-0.394,0.413-1.161,0.201-1.703,0.201,0.666-1.991,1.331-3.982,1.997-5.973,0.165-0.494,4.617-0.127,5.333-0.127z"/>
	<path d="M364.947,30.297c-2.477,2.598-6.516,3.11-8.956,0.142-2.411-2.933-2.442-7.421-0.844-10.733,1.595-3.306,5.441-5.543,9.1-4.285,0.757,0.261,1.44,0.698,1.992,1.278,0.394,0.414,0.349,0.255,0.793-0.053,0.6-0.417,1.528-1.391,2.239-1.555,1.012-0.233,0.598,1.194,0.598,1.87v5.623,12.243,1.532c0,0.591-0.082,1.519,0.281,2.041,0.236,0.336,0.635,0.504,1.023,0.586,0.699,0.148,0.822-0.104,0.822,0.631,0,0.211-6.177,0.102-6.78,0.102h-2.702c-0.023,0-0.011-0.503-0.011-0.549,0-0.154,1.056-0.17,1.299-0.24,1.142-0.328,1.145-1.417,1.145-2.41,0.032-2.073,0.001-4.149,0.001-6.223zm0-1.599v-5.552c0-1.957,0.56-6.322-2.105-6.839-3.86-0.748-3.68,6.245-3.637,8.401,0.032,1.635,0.095,3.787,1.237,5.097,1.394,1.603,3.5,0.184,4.505-1.107z"/>
	<path d="M389.82,15.584v12.796c0,0.67-0.008,1.385,0.179,2.036,0.167,0.578,1.596,0.994,1.596,1.069,0,0.489,0.106,0.534-0.352,0.534h-1.899-4.095c-0.737,0-0.352-1.585-0.352-2.197-1.174,1.402-2.632,2.529-4.514,2.672-1.909,0.145-3.794-0.959-4.398-2.83-0.629-1.946-0.369-4.252-0.369-6.286,0-1.896,0.235-4.019-0.112-5.896-0.104-0.562-0.355-0.897-0.911-1.085-0.146-0.049-1.332-0.313-0.752-0.814,0.254-0.219,1.666,0,1.989,0,0.375,0,4.708-0.038,4.708,0.035v4.618,5.917c0,0.646-0.007,1.293,0.031,1.939,0.092,1.576,1.334,2.745,2.848,1.544,0.698-0.554,1.481-1.284,1.481-2.202v-2.8-5.472c0-1.536-0.031-2.704-1.775-2.929-0.618-0.82,0.753-0.65,1.046-0.65,1.883,0.001,3.767,0.001,5.651,0.001z"/>
	<path d="M397.941,7.621c3.519,0,3.522,5.432,0,5.432-3.505,0-3.496-5.432,0-5.432zm2.461,7.963v10.443c0,1.343-0.232,3.147,0.206,4.427,0.202,0.59,0.762,0.802,1.34,0.888,0.529,0.079,0.44-0.06,0.44,0.361,0-0.069,0.012,0.316-0.011,0.316h-1.814-6.233c-0.679,0-0.819,0.185-0.819-0.534,0,0.005,1.392-0.477,1.617-0.732,0.437-0.502,0.352-1.541,0.352-2.145,0.048-3.184,0-6.372,0-9.556,0-1.288-0.03-2.546-1.535-2.774-0.525-0.08-0.434,0.055-0.434-0.37,0-0.081-0.065-0.325,0.058-0.325h0.967c1.955,0.001,3.91,0.001,5.866,0.001z"/>
	<path d="M417.382,27.783c0.453,0.35,0.642,0.277,0.307,0.847-0.452,0.768-1.001,1.484-1.666,2.08-1.274,1.142-2.958,1.802-4.67,1.802-3.331,0-5.848-2.299-6.796-5.407-1.851-6.069,3.009-14.587,10.144-11.493,1.308,0.567,2.532,1.77,2.711,3.238,0.194,1.594-0.962,2.79-2.574,2.561-1.574-0.224-2.025-1.731-2.148-3.101-0.132-1.39-1.364-2.84-2.651-1.413-2.124,2.355-1.242,7.235-0.07,9.798,0.61,1.334,1.603,2.623,3.112,2.939,1.791,0.375,3.139-0.611,4.301-1.851z"/>
	<path d="M429.001,29.594c-2.01,1.775-6.849,4.622-8.433,0.692-1.322-3.279,2.242-5.491,4.627-6.779,0.871-0.47,3.806-1.366,3.806-2.304,0-1.108,0.229-2.539-0.202-3.571-0.615-1.47-3.173-1.616-4.165-0.472-0.571,0.659,0.234,1.29,0.581,1.804,0.557,0.826,0.467,1.859-0.266,2.552-1.136,1.074-3.234,0.684-4.011-0.632-0.965-1.634,0.603-3.588,1.933-4.428,2.83-1.789,7.613-2.175,10.014,0.511,1.443,1.614,1.021,4.136,1.021,6.159,0,1.767-0.029,3.536,0.004,5.303,0.013,0.737,0.308,2.263,1.37,1.281,0.464-0.429,0.297-0.375,0.759-0.005,0.224,0.179-0.907,1.295-1.117,1.484-1.982,1.778-5.532,1.36-5.921-1.595zm0-1.283v-5.502c-1.525,0.895-3.551,2.296-3.822,4.202-0.379,2.662,2.377,2.526,3.822,1.3z"/>
</g>
<g transform="translate(-27.695847,-7.3752823)">
	<path d="M636.859,16.811c0.088,1.869,0.176,3.738,0.264,5.607-0.907,0.255-1.106-1.133-1.468-1.744-0.53-0.895-1.187-1.68-2.12-2.174-0.851-0.451-1.995-0.646-2.758,0.077-0.74,0.702-0.583,1.636,0.085,2.299,2.853,2.83,8.575,4.57,6.817,9.71-0.785,2.295-2.932,3.775-5.381,3.598-1.106-0.08-2.109-0.51-3.154-0.834-1.006-0.312-1.012,0.793-1.862,0.793-0.225,0-0.341-5.251-0.372-5.906,0.709-0.205,0.709,0.356,0.938,0.882,0.328,0.754,0.748,1.477,1.303,2.088,0.949,1.047,2.808,2.282,4.231,1.379,3.36-2.131-3.617-5.837-4.802-6.9-2.393-2.147-2.624-6.148,0.212-8.097,1.334-0.917,3.222-1.036,4.729-0.524,0.604,0.205,1.476,0.936,2.125,0.493,0.483-0.33,0.502-0.942,1.213-0.747z"/>
	<path d="M649.533,31.278c-2.01,1.775-6.849,4.622-8.433,0.692-1.322-3.279,2.242-5.491,4.627-6.779,0.871-0.47,3.806-1.366,3.806-2.304,0-1.108,0.229-2.539-0.202-3.571-0.615-1.47-3.173-1.616-4.165-0.472-0.571,0.659,0.234,1.29,0.581,1.804,0.557,0.826,0.467,1.859-0.266,2.552-1.136,1.074-3.234,0.684-4.011-0.632-0.965-1.634,0.603-3.588,1.933-4.428,2.83-1.789,7.613-2.175,10.014,0.511,1.443,1.614,1.021,4.136,1.021,6.159,0,1.767-0.029,3.536,0.004,5.303,0.013,0.737,0.308,2.263,1.37,1.281,0.464-0.429,0.297-0.375,0.759-0.005,0.224,0.179-0.907,1.295-1.117,1.484-1.983,1.778-5.533,1.359-5.921-1.595zm0-1.284v-5.502c-1.525,0.895-3.551,2.296-3.822,4.202-0.38,2.663,2.376,2.527,3.822,1.3z"/>
	<path d="M664.896,9.867v19.95c0,0.456-0.005,0.913,0.033,1.368,0.043,0.516,0.104,1.179,0.564,1.509,0.667,0.478,1.389-0.007,1.389,0.911,0,0.209-4.039,0.099-4.438,0.099s-4.438,0.11-4.438-0.099c0-0.832,0.428-0.443,1.105-0.779,0.557-0.276,0.724-0.702,0.799-1.286,0.077-0.598,0.065-1.204,0.065-1.806v-15.247c0-0.694,0.025-1.4-0.033-2.093-0.07-0.826-0.25-1.513-1.129-1.754-0.465-0.128-0.807,0.09-0.807-0.448,0-0.222-0.08-0.325,0.129-0.325h6.761z"/>
	<path d="M684.32,17.268v12.796c0,0.67-0.008,1.385,0.179,2.036,0.167,0.578,1.596,0.994,1.596,1.069,0,0.489,0.106,0.534-0.352,0.534h-1.899-4.095c-0.737,0-0.352-1.585-0.352-2.197-1.174,1.402-2.632,2.529-4.514,2.672-1.909,0.145-3.794-0.959-4.398-2.83-0.629-1.946-0.369-4.252-0.369-6.286,0-1.896,0.235-4.019-0.112-5.896-0.104-0.562-0.355-0.897-0.911-1.085-0.146-0.049-1.332-0.313-0.752-0.814,0.254-0.219,1.666,0,1.989,0,0.375,0,4.708-0.038,4.708,0.035v4.618,5.917c0,0.646-0.007,1.293,0.031,1.939,0.092,1.576,1.334,2.745,2.848,1.544,0.698-0.554,1.481-1.284,1.481-2.202v-2.8-5.472c0-1.536-0.031-2.704-1.775-2.929-0.617-0.82,0.753-0.65,1.046-0.65,1.883,0.001,3.767,0.001,5.651,0.001z"/>
	<path d="M704.464,9.867v16.463,2.366c0,0.731-0.037,1.494,0.077,2.22,0.075,0.479,0.34,0.928,0.799,1.121,0.447,0.188,1.145-0.031,1.145,0.514,0,0.655-2.613,0.799-3.198,0.913-1.248,0.243-2.497,0.487-3.745,0.73v-2.602c-1.777,2.152-4.195,3.373-6.931,2.063-2.722-1.303-3.843-4.555-3.942-7.377-0.099-2.814,0.596-6.027,2.801-7.963,2.535-2.226,5.87-1.911,8.071,0.514v-4.331c0-0.848,0.036-1.709-0.081-2.55-0.063-0.452-0.308-0.864-0.71-1.099-0.294-0.171-1.582-0.21-1.582-0.361,0-0.698-0.052-0.623,0.592-0.623h2.51c1.399,0.002,2.797,0.002,4.194,0.002zm-4.922,11.145c-0.684-1.313-2.236-3.145-3.947-2.34-1.445,0.68-1.639,3.075-1.729,4.447-0.124,1.891-0.531,10.006,3.315,8.887,2.681-0.78,2.361-3.328,2.361-5.443v-5.551z"/>
	<path d="M733.503,9.867v16.463,2.366c0,0.731-0.037,1.494,0.077,2.22,0.075,0.479,0.34,0.928,0.799,1.121,0.447,0.188,1.145-0.031,1.145,0.514,0,0.655-2.613,0.799-3.198,0.913-1.248,0.243-2.497,0.487-3.745,0.73v-2.602c-1.777,2.152-4.195,3.373-6.931,2.063-2.722-1.303-3.843-4.555-3.942-7.377-0.099-2.814,0.596-6.027,2.801-7.963,2.535-2.226,5.87-1.911,8.071,0.514v-4.331c0-0.848,0.036-1.709-0.081-2.55-0.063-0.452-0.308-0.864-0.71-1.099-0.294-0.171-1.582-0.21-1.582-0.361,0-0.698-0.052-0.623,0.592-0.623h2.51c1.399,0.002,2.797,0.002,4.194,0.002zm-4.922,11.145c-0.684-1.313-2.236-3.145-3.947-2.34-1.445,0.68-1.639,3.075-1.729,4.447-0.124,1.891-0.531,10.006,3.315,8.887,2.681-0.78,2.361-3.328,2.361-5.443v-5.551z"/>
	<path d="M751.486,24.897h-9.018c0.112,2.307,0.897,5.317,3.24,6.339,1.076,0.469,2.363,0.363,3.334-0.301,0.51-0.349,0.924-0.831,1.293-1.321,0.482-0.64,0.379-0.91,1.057-0.471,0.351,0.227-1.506,2.651-1.813,2.986-0.81,0.885-1.837,1.534-3.001,1.842-2.43,0.644-5.215-0.012-6.86-1.966-3.269-3.882-2.588-11.022,1.578-13.988,2.137-1.522,5.119-1.727,7.252-0.09,2.167,1.663,2.846,4.357,2.938,6.97zm-4.325-1.178c0-1.697,0.198-4.258-1.266-5.484-2.036-1.745-3.285,2.159-3.438,3.469-0.011,0.091-0.142,2.015-0.056,2.015h1.301,3.459z"/>
	<path d="M759.958,9.867v19.95c0,0.456-0.005,0.913,0.033,1.368,0.043,0.516,0.104,1.179,0.564,1.509,0.667,0.478,1.389-0.007,1.389,0.911,0,0.209-4.039,0.099-4.438,0.099s-4.438,0.11-4.438-0.099c0-0.832,0.428-0.443,1.105-0.779,0.557-0.276,0.724-0.702,0.799-1.286,0.077-0.598,0.065-1.204,0.065-1.806v-15.247c0-0.694,0.025-1.4-0.033-2.093-0.07-0.826-0.25-1.513-1.129-1.754-0.465-0.128-0.807,0.09-0.807-0.448,0-0.222-0.08-0.325,0.129-0.325h6.761z"/>
	<path d="M781.579,31.278c-2.01,1.775-6.849,4.622-8.433,0.692-1.322-3.279,2.242-5.491,4.627-6.779,0.871-0.47,3.806-1.366,3.806-2.304,0-1.108,0.229-2.539-0.202-3.571-0.615-1.47-3.173-1.616-4.165-0.472-0.571,0.659,0.234,1.29,0.581,1.804,0.557,0.826,0.467,1.859-0.266,2.552-1.136,1.074-3.234,0.684-4.011-0.632-0.965-1.634,0.603-3.588,1.933-4.428,2.83-1.789,7.613-2.175,10.014,0.511,1.443,1.614,1.021,4.136,1.021,6.159,0,1.767-0.029,3.536,0.004,5.303,0.013,0.737,0.308,2.263,1.37,1.281,0.464-0.429,0.297-0.375,0.759-0.005,0.224,0.179-0.907,1.295-1.117,1.484-1.982,1.778-5.532,1.359-5.921-1.595zm0-1.284v-5.502c-1.525,0.895-3.551,2.296-3.822,4.202-0.379,2.663,2.377,2.527,3.822,1.3z"/>
	<path d="M796.943,9.867v19.95c0,0.456-0.005,0.913,0.033,1.368,0.043,0.516,0.104,1.179,0.564,1.509,0.667,0.478,1.389-0.007,1.389,0.911,0,0.209-4.039,0.099-4.438,0.099s-4.438,0.11-4.438-0.099c0-0.832,0.428-0.443,1.105-0.779,0.557-0.276,0.724-0.702,0.799-1.286,0.077-0.598,0.065-1.204,0.065-1.806v-15.247c0-0.694,0.025-1.4-0.033-2.093-0.07-0.826-0.25-1.513-1.129-1.754-0.465-0.128-0.807,0.09-0.807-0.448,0-0.222-0.08-0.325,0.129-0.325h6.761z"/>
	<path d="M807.314,17.268v2.162c1.357-1.48,2.936-2.654,5.027-2.654,2.037,0,3.58,1.093,4.307,2.988,2.184-2.457,6.997-4.853,9.187-0.976,1.058,1.874,0.728,4.411,0.728,6.506,0,1.777-0.044,3.56,0.007,5.336,0.016,0.549-0.017,1.372,0.336,1.842,0.219,0.292,1.433,0.591,1.433,0.697,0,0.776-0.299,0.534-1.029,0.534h-6.237c-0.191,0-1.224,0.114-1.224-0.099,0-0.811,0.388-0.448,1.013-0.855,0.624-0.406,0.709-1.071,0.755-1.759,0.122-1.824,0.026-3.68,0.026-5.506,0-1.629,0.523-4.596-0.5-5.889-1.161-1.468-3.131,0.31-3.895,1.276-0.449,0.568-0.316,1.084-0.316,1.8v6.268c0,0.552-0.009,1.106,0.006,1.658,0.014,0.533-0.015,1.281,0.293,1.752,0.388,0.624,1.547,0.456,1.547,1.037,0,0.54-0.551,0.316-1.031,0.316h-3.223-3.027c-0.491,0-1.227,0.25-1.227-0.316,0-0.559,0.901-0.408,1.315-0.878,0.378-0.428,0.389-1.003,0.41-1.543,0.03-0.759,0.015-1.522,0.015-2.282v-5.576c0-1.031,0.211-2.625-0.516-3.492-1.399-1.669-3.382,0.551-4.178,1.678-0.118,0.38,0,0.986,0,1.379v3.309c0,1.669-0.089,3.367,0.028,5.034,0.036,0.52,0.073,1.214,0.482,1.6,0.43,0.405,1.266,0.184,1.266,0.772,0,0.565-0.731,0.316-1.222,0.316h-6.224c-0.48,0-1.027,0.223-1.027-0.316,0-0.569,0.837-0.407,1.277-0.778,0.534-0.45,0.477-1.353,0.492-1.98,0.041-1.623,0.006-3.251,0.006-4.874v-4.908c0-1.247,0.074-2.547-1.369-2.86-0.495-0.107-0.406,0.019-0.406-0.394,0,0.056-0.017-0.325,0.015-0.325h0.83,5.85z"/>
	<path d="M839.587,31.278c-2.01,1.775-6.849,4.622-8.433,0.692-1.322-3.279,2.242-5.491,4.627-6.779,0.871-0.47,3.806-1.366,3.806-2.304,0-1.108,0.229-2.539-0.202-3.571-0.615-1.47-3.173-1.616-4.165-0.472-0.571,0.659,0.234,1.29,0.581,1.804,0.557,0.826,0.467,1.859-0.266,2.552-1.136,1.074-3.234,0.684-4.011-0.632-0.965-1.634,0.603-3.588,1.933-4.428,2.83-1.789,7.613-2.175,10.014,0.511,1.443,1.614,1.021,4.136,1.021,6.159,0,1.767-0.029,3.536,0.004,5.303,0.013,0.737,0.308,2.263,1.37,1.281,0.464-0.429,0.297-0.375,0.759-0.005,0.224,0.179-0.907,1.295-1.117,1.484-1.982,1.778-5.532,1.359-5.921-1.595zm0-1.284v-5.502c-1.525,0.895-3.551,2.296-3.822,4.202-0.379,2.663,2.377,2.527,3.822,1.3z"/>
</g>
<g transform="translate(-27.695847,-7.3752823)">
	<path d="M777.768,266.667v5.213c0,0.792-0.071,1.644,0.129,2.412,0.15,0.575,0.595,0.921,1.164,1.018,0.39,0.066,0.791,0.076,1.185,0.076,0.03,0.036,0.027,0.631,0,0.65-0.21,0.148-1.066,0-1.312,0h-3.235-4.812c-0.022,0-0.011-0.401-0.011-0.325,0-0.419-0.091-0.287,0.413-0.361,0.556-0.082,1.188-0.338,1.376-0.915,0.22-0.675,0.179-1.415,0.179-2.119v-4.64-11.788c0-0.917,0.219-2.371-0.596-2.959-0.388-0.28-0.91-0.349-1.372-0.377-0.044-0.056,0.013-0.65,0.015-0.65h1.45,4.779c0.252,0,0.647-0.134,0.647,0.16v2.002c1.593-2.341,4.466-3.444,7.086-2.012,2.795,1.529,3.795,5.001,3.795,7.988,0,2.759-0.74,6.016-3.12,7.708-2.563,1.822-5.763,1.206-7.76-1.081zm0-1.776c0.895,1.27,3.09,3.207,4.539,1.503,1-1.175,1.073-3.068,1.141-4.524,0.09-1.916,0.382-9.741-3.611-8.157-2.439,0.968-2.07,3.486-2.07,5.547,0.001,1.878,0.001,3.754,0.001,5.631z"/>
	<path d="M799.196,251.409c10.463,0,10.172,17.858-0.378,17.411-9.86-0.419-9.511-17.411,0.378-17.411zm0.07,1.248c-2.953,0-2.526,4.93-2.565,6.857-0.039,1.934-0.636,9.278,3.22,7.992,2.228-0.743,1.813-4.981,1.843-6.762,0.033-1.954,0.773-8.087-2.498-8.087z"/>
	<path d="M816.264,251.901v3.727c0.866-1.351,1.847-2.823,3.273-3.639,1.351-0.773,3.545-0.946,4.033,0.935,0.406,1.563-0.427,3.57-2.307,3.247-1.593-0.274-2.389-2.429-3.867-0.387-1.51,2.087-1.132,5.249-1.132,7.707,0,0.631,0.005,1.26,0.016,1.891,0.01,0.55-0.05,1.171,0.287,1.644,0.249,0.348,1.858,0.8,1.858,0.778,0,0.719-0.14,0.534-0.819,0.534h-3.066-4.981c-0.023,0-0.011-0.385-0.011-0.316,0-0.406-0.088-0.279,0.401-0.368,0.542-0.099,1.042-0.336,1.214-0.89,0.277-0.89,0.213-1.871,0.213-2.796v-6.062c0-0.841,0.008-1.682,0-2.523,0-0.794,0.113-1.991-0.65-2.514-0.331-0.226-0.792-0.276-1.178-0.316-0.045-0.055,0.014-0.65,0.015-0.65,2.235-0.002,4.468-0.002,6.701-0.002z"/>
	<path d="M838.36,243.938c3.519,0,3.522,5.432,0,5.432-3.505,0-3.496-5.432,0-5.432zm2.461,7.963v10.443c0,1.342-0.232,3.147,0.206,4.427,0.202,0.59,0.762,0.802,1.34,0.888,0.529,0.079,0.44-0.06,0.44,0.361,0-0.069,0.012,0.316-0.011,0.316h-1.814-6.233c-0.679,0-0.819,0.185-0.819-0.534,0,0.005,1.392-0.477,1.617-0.732,0.437-0.502,0.352-1.541,0.352-2.145,0.048-3.184,0-6.372,0-9.556,0-1.288-0.03-2.546-1.535-2.774-0.525-0.08-0.434,0.055-0.434-0.37,0-0.081-0.065-0.325,0.058-0.325h0.967c1.955,0.001,3.911,0.001,5.866,0.001z"/>
	<path d="M851.104,251.901v2.127c1.201-1.301,2.652-2.456,4.481-2.602,1.798-0.143,3.471,0.688,4.243,2.358,0.867,1.877,0.54,4.277,0.54,6.308,0,1.866-0.095,3.762,0.028,5.626,0.033,0.505,0.047,1.218,0.482,1.569,0.445,0.359,1.266,0.144,1.266,0.733,0,0.568-0.756,0.316-1.248,0.316h-6.202c-0.692,0-0.865,0.198-0.865-0.534,0-0.041,1.157-0.585,1.336-0.872,0.367-0.573,0.281-1.54,0.281-2.18,0.02-1.666,0-3.333,0-4.999,0-1.485,0.492-4.298-0.467-5.46-1.161-1.407-2.931,0.238-3.613,1.242-0.382,0.562-0.262,1.115-0.262,1.787v6.255c0,0.558-0.01,1.117,0.007,1.675,0.017,0.562-0.004,1.35,0.336,1.838,0.497,0.713,1.274,0.223,1.274,1.149,0,0.208-4.158,0.099-4.572,0.099h-2.877c-0.296,0-1.431,0.122-0.865-0.633,2.3-0.234,1.775-2.792,1.775-4.509v-6.378c0-0.449,0.006-0.898,0-1.347,0-0.686,0.036-1.517-0.252-2.161-0.197-0.442-1.524-0.736-1.524-0.859,0-0.596-0.059-0.549,0.496-0.549h2.297c1.302,0.001,2.604,0.001,3.905,0.001z"/>
	<path d="M870.95,245.889v3.684,2.084c0,0.426,0.389,0.244,0.774,0.244h2.57c0.741,0,0.558,0.116,0.558,0.87s0.183,0.87-0.558,0.87h-2.57c-0.153,0-0.774-0.112-0.774,0.087v1.345,5.14,3.531c0,0.805-0.135,1.985,0.598,2.544,1.118,0.853,2.277-0.631,2.777-1.485,1.601,0.575-1.575,3.176-2.367,3.47-2.089,0.774-4.738-0.003-5.632-2.169-0.478-1.156-0.297-2.636-0.297-3.855v-3.616-3.997c0-1.23-0.045-0.995-1.338-0.995-0.673,0-0.807,0.172-0.807-0.519,0-0.451,2.438-2.035,2.873-2.455,0.869-0.841,1.657-1.763,2.354-2.752,0.429-0.609,0.935-2.278,1.839-2.026z"/>
	<path d="M890.374,259.53h-9.018c0.112,2.307,0.897,5.317,3.24,6.339,1.076,0.469,2.363,0.363,3.334-0.301,0.51-0.349,0.924-0.831,1.293-1.321,0.482-0.64,0.379-0.91,1.057-0.471,0.351,0.227-1.506,2.651-1.813,2.986-0.81,0.885-1.837,1.534-3.001,1.842-2.43,0.644-5.215-0.012-6.86-1.966-3.269-3.882-2.588-11.022,1.578-13.988,2.137-1.522,5.119-1.727,7.252-0.09,2.167,1.663,2.846,4.357,2.938,6.97zm-4.325-1.178c0-1.697,0.198-4.258-1.266-5.484-2.036-1.745-3.285,2.159-3.438,3.469-0.011,0.091-0.142,2.015-0.056,2.015h1.301,3.459z"/>
	<path d="M899.127,251.901v2.127c1.201-1.301,2.652-2.456,4.481-2.602,1.798-0.143,3.471,0.688,4.243,2.358,0.867,1.877,0.54,4.277,0.54,6.308,0,1.866-0.095,3.762,0.028,5.626,0.033,0.505,0.047,1.218,0.482,1.569,0.445,0.359,1.266,0.144,1.266,0.733,0,0.568-0.756,0.316-1.248,0.316h-6.202c-0.692,0-0.865,0.198-0.865-0.534,0-0.041,1.157-0.585,1.336-0.872,0.367-0.573,0.281-1.54,0.281-2.18,0.02-1.666,0-3.333,0-4.999,0-1.485,0.492-4.298-0.467-5.46-1.161-1.407-2.931,0.238-3.613,1.242-0.382,0.562-0.262,1.115-0.262,1.787v6.255c0,0.558-0.01,1.117,0.007,1.675,0.017,0.562-0.004,1.35,0.336,1.838,0.497,0.713,1.274,0.223,1.274,1.149,0,0.208-4.158,0.099-4.572,0.099h-2.877c-0.296,0-1.431,0.122-0.865-0.633,2.3-0.234,1.775-2.792,1.775-4.509v-6.378c0-0.449,0.006-0.898,0-1.347,0-0.686,0.036-1.517-0.252-2.161-0.197-0.442-1.524-0.736-1.524-0.859,0-0.596-0.059-0.549,0.496-0.549h2.297c1.302,0.001,2.604,0.001,3.905,0.001z"/>
	<path d="M925.864,264.1c0.453,0.35,0.642,0.277,0.307,0.847-0.452,0.768-1.001,1.484-1.666,2.08-1.274,1.142-2.958,1.802-4.67,1.802-3.331,0-5.848-2.299-6.796-5.407-1.851-6.069,3.008-14.587,10.144-11.493,1.308,0.567,2.532,1.77,2.711,3.238,0.194,1.594-0.962,2.79-2.574,2.561-1.574-0.224-2.025-1.731-2.148-3.101-0.132-1.39-1.364-2.84-2.651-1.413-2.124,2.355-1.242,7.235-0.07,9.798,0.61,1.334,1.603,2.623,3.112,2.939,1.791,0.375,3.138-0.611,4.301-1.851z"/>
	<path d="M932.368,243.938c3.519,0,3.522,5.432,0,5.432-3.505,0-3.496-5.432,0-5.432zm2.461,7.963v10.443c0,1.342-0.232,3.147,0.206,4.427,0.202,0.59,0.762,0.802,1.34,0.888,0.529,0.079,0.44-0.06,0.44,0.361,0-0.069,0.012,0.316-0.011,0.316h-1.814-6.233c-0.679,0-0.819,0.185-0.819-0.534,0,0.005,1.392-0.477,1.617-0.732,0.437-0.502,0.352-1.541,0.352-2.145,0.048-3.184,0-6.372,0-9.556,0-1.288-0.03-2.546-1.535-2.774-0.525-0.08-0.434,0.055-0.434-0.37,0-0.081-0.065-0.325,0.058-0.325h0.967c1.955,0.001,3.91,0.001,5.866,0.001z"/>
	<path d="M946.149,251.409c10.463,0,10.172,17.858-0.378,17.411-9.86-0.419-9.511-17.411,0.378-17.411zm0.07,1.248c-2.953,0-2.526,4.93-2.565,6.857-0.039,1.934-0.636,9.278,3.22,7.992,2.228-0.743,1.813-4.981,1.843-6.762,0.033-1.954,0.773-8.087-2.498-8.087zm5.326-8.965c-1.22,1.279-2.44,2.558-3.66,3.837-0.656,0.687-1.311,1.374-1.967,2.062-0.394,0.413-1.161,0.201-1.703,0.201,0.666-1.991,1.331-3.982,1.997-5.973,0.165-0.495,4.618-0.127,5.333-0.127z"/>
	<path d="M963.112,251.901v2.127c1.201-1.301,2.652-2.456,4.481-2.602,1.798-0.143,3.471,0.688,4.243,2.358,0.867,1.877,0.54,4.277,0.54,6.308,0,1.866-0.095,3.762,0.028,5.626,0.033,0.505,0.047,1.218,0.482,1.569,0.445,0.359,1.266,0.144,1.266,0.733,0,0.568-0.756,0.316-1.248,0.316h-6.202c-0.692,0-0.865,0.198-0.865-0.534,0-0.041,1.157-0.585,1.336-0.872,0.367-0.573,0.281-1.54,0.281-2.18,0.02-1.666,0-3.333,0-4.999,0-1.485,0.492-4.298-0.467-5.46-1.161-1.407-2.931,0.238-3.613,1.242-0.382,0.562-0.262,1.115-0.262,1.787v6.255c0,0.558-0.01,1.117,0.007,1.675,0.017,0.562-0.004,1.35,0.336,1.838,0.497,0.713,1.274,0.223,1.274,1.149,0,0.208-4.158,0.099-4.572,0.099h-2.877c-0.296,0-1.431,0.122-0.865-0.633,2.3-0.234,1.775-2.792,1.775-4.509v-6.378c0-0.449,0.006-0.898,0-1.347,0-0.686,0.036-1.517-0.252-2.161-0.197-0.442-1.524-0.736-1.524-0.859,0-0.596-0.059-0.549,0.496-0.549h2.297c1.302,0.001,2.603,0.001,3.905,0.001z"/>
</g>
<g transform="translate(-27.695847,-7.3752823)">
	<path d="M679.518,459.992v3.727c0.866-1.351,1.847-2.823,3.273-3.639,1.351-0.773,3.545-0.946,4.033,0.935,0.406,1.563-0.427,3.57-2.307,3.247-1.593-0.274-2.389-2.429-3.867-0.387-1.51,2.087-1.132,5.249-1.132,7.707,0,0.631,0.005,1.26,0.016,1.891,0.01,0.55-0.05,1.171,0.287,1.644,0.249,0.348,1.858,0.8,1.858,0.778,0,0.719-0.14,0.534-0.819,0.534h-3.066-4.981c-0.023,0-0.011-0.385-0.011-0.316,0-0.406-0.088-0.279,0.401-0.368,0.542-0.099,1.042-0.336,1.214-0.89,0.277-0.89,0.213-1.871,0.213-2.796v-6.062c0-0.841,0.008-1.682,0-2.523,0-0.794,0.113-1.991-0.65-2.514-0.331-0.226-0.792-0.276-1.178-0.316-0.045-0.055,0.014-0.65,0.015-0.65,2.234-0.002,4.467-0.002,6.701-0.002z"/>
	<path d="M702.58,467.621h-9.018c0.112,2.307,0.897,5.317,3.24,6.339,1.076,0.469,2.363,0.363,3.334-0.301,0.51-0.349,0.924-0.831,1.293-1.321,0.482-0.64,0.379-0.91,1.057-0.471,0.351,0.227-1.506,2.651-1.813,2.986-0.81,0.885-1.837,1.534-3.001,1.842-2.43,0.644-5.215-0.012-6.86-1.966-3.269-3.882-2.588-11.022,1.578-13.988,2.137-1.522,5.119-1.727,7.252-0.09,2.167,1.663,2.847,4.357,2.938,6.97zm-4.324-1.178c0-1.697,0.198-4.258-1.266-5.484-2.036-1.745-3.285,2.159-3.438,3.469-0.011,0.091-0.142,2.015-0.056,2.015h1.301,3.459z"/>
	<path d="M711.053,452.591v19.95c0,0.456-0.005,0.913,0.033,1.368,0.043,0.516,0.104,1.179,0.564,1.509,0.667,0.478,1.389-0.007,1.389,0.911,0,0.209-4.039,0.099-4.438,0.099s-4.438,0.11-4.438-0.099c0-0.832,0.428-0.443,1.105-0.779,0.557-0.276,0.724-0.702,0.799-1.286,0.077-0.598,0.065-1.204,0.065-1.806v-15.247c0-0.694,0.025-1.4-0.033-2.093-0.07-0.826-0.25-1.513-1.129-1.754-0.465-0.128-0.807,0.09-0.807-0.448,0-0.222-0.08-0.325,0.129-0.325h6.761z"/>
	<path d="M718.559,452.029c3.519,0,3.522,5.432,0,5.432-3.505,0-3.496-5.432,0-5.432zm2.46,7.963v10.443c0,1.342-0.232,3.147,0.206,4.427,0.202,0.59,0.762,0.802,1.34,0.888,0.529,0.079,0.44-0.06,0.44,0.361,0-0.069,0.012,0.316-0.011,0.316h-1.814-6.233c-0.679,0-0.819,0.185-0.819-0.534,0,0.005,1.392-0.477,1.617-0.732,0.437-0.502,0.352-1.541,0.352-2.145,0.048-3.184,0-6.372,0-9.556,0-1.288-0.03-2.546-1.535-2.774-0.525-0.08-0.434,0.055-0.434-0.37,0-0.081-0.065-0.325,0.058-0.325h0.967c1.956,0.001,3.911,0.001,5.866,0.001z"/>
	<path d="M735.135,460.185h5.519c-0.067,0,0.22,1.934-0.102,1.934h-3.026c2.016,2.016,2.179,5.142,0.11,7.211-1.843,1.843-4.28,2.18-6.74,2.073-2.763-0.12-3.059,3.211-0.162,3.177,1.752-0.02,3.522-0.106,5.268,0.069,2.249,0.226,4.499,1.192,4.707,3.753,0.268,3.305-2.661,5.019-5.509,5.538-2.709,0.493-6.076,0.477-8.629-0.689-1.032-0.471-2.049-1.443-1.803-2.683,0.263-1.33,1.679-1.832,2.827-2.137-1.519-0.748-2.643-2.161-2.182-3.93,0.469-1.795,2.177-2.872,3.781-3.541-3.331-1.218-5.765-4.621-3.795-8.111,1.923-3.406,6.359-3.998,9.736-2.664zm-3.041,0.404c-2.123,0-2.344,2.744-2.406,4.274-0.067,1.639-0.236,5.587,2.318,5.587,2.358,0,2.461-3.061,2.461-4.729,0-1.629,0.014-5.132-2.373-5.132zm-1.037,18.264c-0.897,0-1.985-0.049-2.734,0.532-0.898,0.697-0.763,1.849,0.023,2.571,1.54,1.416,4.568,1.185,6.458,0.865,0.908-0.154,1.957-0.437,2.6-1.142,0.714-0.783,0.552-1.876-0.403-2.356-1.652-0.83-4.182-0.47-5.944-0.47z"/>
	<path d="M746.543,452.029c3.519,0,3.522,5.432,0,5.432-3.505,0-3.496-5.432,0-5.432zm2.461,7.963v10.443c0,1.342-0.232,3.147,0.206,4.427,0.202,0.59,0.762,0.802,1.34,0.888,0.529,0.079,0.44-0.06,0.44,0.361,0-0.069,0.012,0.316-0.011,0.316h-1.814-6.233c-0.679,0-0.819,0.185-0.819-0.534,0,0.005,1.392-0.477,1.617-0.732,0.437-0.502,0.352-1.541,0.352-2.145,0.048-3.184,0-6.372,0-9.556,0-1.288-0.03-2.546-1.535-2.774-0.525-0.08-0.434,0.055-0.434-0.37,0-0.081-0.065-0.325,0.058-0.325h0.967c1.955,0.001,3.911,0.001,5.866,0.001z"/>
	<path d="M760.324,459.5c10.463,0,10.172,17.858-0.378,17.411-9.86-0.419-9.511-17.411,0.378-17.411zm0.07,1.248c-2.953,0-2.526,4.93-2.565,6.857-0.039,1.934-0.636,9.278,3.22,7.992,2.228-0.743,1.813-4.981,1.843-6.762,0.034-1.955,0.773-8.087-2.498-8.087zm5.327-8.965c-1.22,1.279-2.44,2.558-3.66,3.837-0.656,0.687-1.311,1.374-1.967,2.062-0.394,0.413-1.161,0.201-1.703,0.201,0.666-1.991,1.331-3.982,1.997-5.973,0.164-0.495,4.617-0.127,5.333-0.127z"/>
	<path d="M777.287,459.992v2.127c1.201-1.301,2.652-2.456,4.481-2.602,1.798-0.143,3.471,0.688,4.243,2.358,0.867,1.877,0.54,4.277,0.54,6.308,0,1.866-0.095,3.762,0.028,5.626,0.033,0.505,0.047,1.218,0.482,1.569,0.445,0.359,1.266,0.144,1.266,0.733,0,0.568-0.756,0.316-1.248,0.316h-6.202c-0.692,0-0.865,0.198-0.865-0.534,0-0.041,1.157-0.585,1.336-0.872,0.367-0.573,0.281-1.54,0.281-2.18,0.02-1.666,0-3.333,0-4.999,0-1.485,0.492-4.298-0.467-5.46-1.161-1.407-2.931,0.238-3.613,1.242-0.382,0.562-0.262,1.115-0.262,1.787v6.255c0,0.558-0.01,1.117,0.007,1.675,0.017,0.562-0.004,1.35,0.336,1.838,0.497,0.713,1.274,0.223,1.274,1.149,0,0.208-4.158,0.099-4.572,0.099h-2.877c-0.296,0-1.431,0.122-0.865-0.633,2.3-0.234,1.775-2.792,1.775-4.509v-6.378c0-0.449,0.006-0.898,0-1.347,0-0.686,0.036-1.517-0.252-2.161-0.197-0.442-1.524-0.736-1.524-0.859,0-0.596-0.059-0.549,0.496-0.549h2.297c1.302,0.001,2.604,0.001,3.905,0.001z"/>
</g>
<g transform="translate(-27.695847,-7.3752823)">
	<path d="M200.259,472.634v5.213c0,0.792-0.071,1.643,0.129,2.412,0.15,0.575,0.595,0.921,1.164,1.018,0.39,0.066,0.791,0.076,1.185,0.076,0.03,0.036,0.027,0.631,0,0.65-0.21,0.148-1.066,0-1.312,0h-3.235-4.812c-0.022,0-0.011-0.401-0.011-0.325,0-0.419-0.091-0.287,0.413-0.361,0.556-0.082,1.188-0.338,1.376-0.915,0.22-0.675,0.179-1.415,0.179-2.119v-4.64-11.788c0-0.917,0.219-2.371-0.596-2.959-0.388-0.28-0.91-0.349-1.372-0.377-0.044-0.056,0.014-0.65,0.015-0.65h1.45,4.779c0.252,0,0.647-0.134,0.647,0.16v2.002c1.593-2.341,4.466-3.444,7.086-2.012,2.795,1.529,3.795,5.001,3.795,7.988,0,2.759-0.74,6.016-3.12,7.708-2.563,1.823-5.763,1.206-7.76-1.081zm0-1.775c0.895,1.27,3.09,3.207,4.539,1.503,1-1.175,1.073-3.068,1.141-4.524,0.09-1.916,0.382-9.741-3.611-8.157-2.439,0.968-2.07,3.486-2.07,5.547,0.001,1.877,0.001,3.754,0.001,5.631z"/>
	<path d="M224.324,457.411c0.088,1.869,0.176,3.738,0.264,5.607-0.907,0.255-1.106-1.133-1.468-1.744-0.53-0.895-1.187-1.68-2.12-2.174-0.851-0.451-1.995-0.646-2.758,0.077-0.74,0.702-0.583,1.636,0.085,2.299,2.853,2.83,8.575,4.57,6.817,9.71-0.785,2.295-2.932,3.775-5.381,3.598-1.106-0.08-2.109-0.51-3.154-0.834-1.006-0.312-1.012,0.793-1.862,0.793-0.225,0-0.341-5.251-0.372-5.906,0.709-0.205,0.709,0.356,0.938,0.882,0.328,0.754,0.748,1.477,1.303,2.088,0.949,1.047,2.808,2.282,4.231,1.379,3.36-2.131-3.617-5.837-4.802-6.9-2.393-2.147-2.624-6.148,0.212-8.097,1.334-0.917,3.223-1.036,4.729-0.524,0.604,0.205,1.476,0.936,2.125,0.493,0.483-0.329,0.502-0.941,1.213-0.747z"/>
	<path d="M231.882,449.905c3.519,0,3.522,5.432,0,5.432-3.504,0-3.495-5.431,0-5.432zm2.461,7.963v10.443c0,1.342-0.232,3.147,0.206,4.427,0.202,0.59,0.762,0.802,1.34,0.888,0.529,0.079,0.44-0.06,0.44,0.361,0-0.069,0.012,0.316-0.011,0.316h-1.814-6.233c-0.679,0-0.819,0.185-0.819-0.534,0,0.005,1.392-0.477,1.617-0.732,0.437-0.502,0.352-1.541,0.352-2.145,0.048-3.184,0-6.372,0-9.556,0-1.288-0.03-2.546-1.535-2.774-0.525-0.08-0.434,0.055-0.434-0.37,0-0.081-0.065-0.325,0.058-0.325h0.967c1.956,0.001,3.911,0.001,5.866,0.001z"/>
	<path d="M251.324,470.068c0.453,0.35,0.642,0.277,0.307,0.847-0.452,0.768-1.001,1.484-1.666,2.08-1.393,1.249-3.238,1.887-5.102,1.791-3.301-0.171-5.685-2.705-6.477-5.802-0.829-3.241-0.092-7.011,2.244-9.47,2.044-2.152,5.678-2.85,8.347-1.458,1.283,0.67,2.4,1.962,2.401,3.47,0,1.597-1.467,2.549-2.969,2.088-1.557-0.478-1.604-2.097-1.831-3.435-0.271-1.6-1.884-2.117-2.846-0.674-1.78,2.635-0.997,7.254,0.377,9.879,1.688,3.227,4.891,3.176,7.215,0.684z"/>
	<path d="M261.624,457.376c10.463,0,10.172,17.858-0.378,17.411-9.859-0.418-9.511-17.423,0.378-17.411zm0.071,1.248c-2.953,0-2.526,4.93-2.565,6.857-0.039,1.934-0.636,9.278,3.22,7.992,2.228-0.743,1.813-4.981,1.843-6.762,0.033-1.954,0.773-8.087-2.498-8.087z"/>
	<path d="M278.394,451.857v3.684,2.084c0,0.426,0.389,0.244,0.774,0.244h2.57c0.741,0,0.558,0.116,0.558,0.87s0.183,0.87-0.558,0.87h-2.57c-0.153,0-0.774-0.112-0.774,0.087v1.345,5.14,3.531c0,0.805-0.135,1.985,0.598,2.544,1.118,0.853,2.277-0.631,2.777-1.485,1.601,0.575-1.575,3.176-2.367,3.47-2.089,0.774-4.738-0.003-5.632-2.169-0.478-1.156-0.297-2.636-0.297-3.855v-3.616-3.997c0-1.23-0.045-0.995-1.338-0.995-0.673,0-0.807,0.172-0.807-0.519,0-0.451,2.438-2.035,2.873-2.455,0.869-0.841,1.657-1.763,2.354-2.752,0.429-0.609,0.935-2.279,1.839-2.026z"/>
	<path d="M297.818,465.497h-9.018c0.112,2.307,0.897,5.317,3.24,6.339,1.076,0.469,2.363,0.363,3.334-0.301,0.51-0.349,0.924-0.831,1.293-1.321,0.482-0.64,0.379-0.91,1.057-0.471,0.351,0.227-1.506,2.651-1.813,2.986-0.81,0.885-1.837,1.534-3.001,1.842-2.43,0.644-5.215-0.012-6.86-1.966-3.269-3.882-2.588-11.022,1.578-13.988,2.137-1.522,5.119-1.727,7.252-0.09,2.167,1.663,2.847,4.357,2.938,6.97zm-4.324-1.178c0-1.697,0.198-4.258-1.266-5.484-2.036-1.745-3.285,2.158-3.438,3.469-0.011,0.091-0.142,2.015-0.056,2.015h1.301,3.459z"/>
	<path d="M306.677,457.868v3.727c0.866-1.351,1.847-2.823,3.273-3.639,1.351-0.773,3.545-0.946,4.033,0.935,0.406,1.563-0.427,3.57-2.307,3.247-1.593-0.274-2.389-2.429-3.867-0.387-1.51,2.087-1.132,5.249-1.132,7.707,0,0.631,0.005,1.26,0.016,1.891,0.01,0.55-0.05,1.171,0.287,1.644,0.249,0.348,1.858,0.8,1.858,0.778,0,0.719-0.14,0.534-0.819,0.534h-3.066-4.981c-0.023,0-0.011-0.385-0.011-0.316,0-0.406-0.088-0.279,0.401-0.368,0.542-0.099,1.042-0.336,1.214-0.89,0.277-0.89,0.213-1.871,0.213-2.796v-6.062c0-0.841,0.008-1.682,0-2.523,0-0.794,0.113-1.991-0.65-2.514-0.331-0.226-0.792-0.276-1.178-0.316-0.045-0.055,0.014-0.65,0.015-0.65,2.235-0.002,4.468-0.002,6.701-0.002z"/>
	<path d="M324.888,471.878c-2.01,1.775-6.849,4.622-8.433,0.692-1.322-3.279,2.242-5.491,4.627-6.779,0.871-0.47,3.806-1.366,3.806-2.304,0-1.108,0.229-2.539-0.202-3.571-0.615-1.47-3.173-1.616-4.165-0.472-0.571,0.659,0.234,1.29,0.581,1.804,0.557,0.826,0.467,1.859-0.266,2.552-1.136,1.074-3.234,0.684-4.011-0.632-0.965-1.634,0.603-3.588,1.933-4.428,2.83-1.789,7.613-2.175,10.014,0.511,1.443,1.614,1.021,4.136,1.021,6.159,0,1.767-0.029,3.536,0.004,5.303,0.013,0.737,0.308,2.263,1.37,1.281,0.464-0.429,0.297-0.375,0.759-0.005,0.224,0.179-0.907,1.295-1.117,1.484-1.982,1.778-5.532,1.36-5.921-1.595zm0-1.283v-5.502c-1.525,0.895-3.551,2.296-3.822,4.202-0.379,2.662,2.377,2.526,3.822,1.3z"/>
	<path d="M340.181,472.634v5.213c0,0.792-0.071,1.643,0.129,2.412,0.15,0.575,0.595,0.921,1.164,1.018,0.39,0.066,0.791,0.076,1.185,0.076,0.03,0.036,0.027,0.631,0,0.65-0.21,0.148-1.066,0-1.312,0h-3.235-4.812c-0.022,0-0.011-0.401-0.011-0.325,0-0.419-0.091-0.287,0.413-0.361,0.556-0.082,1.188-0.338,1.376-0.915,0.22-0.675,0.179-1.415,0.179-2.119v-4.64-11.788c0-0.917,0.219-2.371-0.596-2.959-0.388-0.28-0.91-0.349-1.372-0.377-0.044-0.056,0.014-0.65,0.015-0.65h1.45,4.779c0.252,0,0.647-0.134,0.647,0.16v2.002c1.593-2.341,4.466-3.444,7.086-2.012,2.795,1.529,3.795,5.001,3.795,7.988,0,2.759-0.74,6.016-3.12,7.708-2.563,1.823-5.763,1.206-7.76-1.081zm0-1.775c0.895,1.27,3.09,3.207,4.539,1.503,1-1.175,1.073-3.068,1.141-4.524,0.09-1.916,0.382-9.741-3.611-8.157-2.439,0.968-2.07,3.486-2.07,5.547,0.001,1.877,0.001,3.754,0.001,5.631z"/>
	<path d="M357.812,449.905c3.519,0,3.522,5.432,0,5.432-3.505,0-3.496-5.431,0-5.432zm2.461,7.963v10.443c0,1.342-0.232,3.147,0.206,4.427,0.202,0.59,0.762,0.802,1.34,0.888,0.529,0.079,0.44-0.06,0.44,0.361,0-0.069,0.012,0.316-0.011,0.316h-1.814-6.233c-0.679,0-0.819,0.185-0.819-0.534,0,0.005,1.392-0.477,1.617-0.732,0.437-0.502,0.352-1.541,0.352-2.145,0.048-3.184,0-6.372,0-9.556,0-1.288-0.03-2.546-1.535-2.774-0.525-0.08-0.434,0.055-0.434-0.37,0-0.081-0.065-0.325,0.058-0.325h0.967c1.955,0.001,3.911,0.001,5.866,0.001z"/>
	<path d="M372.912,471.878c-2.01,1.775-6.849,4.622-8.433,0.692-1.322-3.279,2.242-5.491,4.627-6.779,0.871-0.47,3.806-1.366,3.806-2.304,0-1.108,0.229-2.539-0.202-3.571-0.615-1.47-3.173-1.616-4.165-0.472-0.571,0.659,0.234,1.29,0.581,1.804,0.557,0.826,0.467,1.859-0.266,2.552-1.136,1.074-3.234,0.684-4.011-0.632-0.965-1.634,0.603-3.588,1.933-4.428,2.83-1.789,7.613-2.175,10.014,0.511,1.443,1.614,1.021,4.136,1.021,6.159,0,1.767-0.029,3.536,0.004,5.303,0.013,0.737,0.308,2.263,1.37,1.281,0.464-0.429,0.297-0.375,0.759-0.005,0.224,0.179-0.907,1.295-1.117,1.484-1.983,1.778-5.533,1.36-5.921-1.595zm0-1.283v-5.502c-1.525,0.895-3.551,2.296-3.822,4.202-0.38,2.662,2.376,2.526,3.822,1.3z"/>
</g>
<g transform="translate(-27.695847,-7.3752823)">
	<path d="M34.586,264.543v5.213c0,0.792-0.071,1.644,0.129,2.412,0.15,0.575,0.595,0.921,1.164,1.018,0.39,0.066,0.791,0.076,1.185,0.076,0.03,0.036,0.027,0.631,0,0.65-0.21,0.148-1.066,0-1.312,0h-3.235-4.812c-0.022,0-0.011-0.401-0.011-0.325,0-0.419-0.091-0.287,0.413-0.361,0.556-0.082,1.188-0.338,1.376-0.915,0.22-0.675,0.179-1.415,0.179-2.119v-4.64-11.788c0-0.917,0.219-2.371-0.596-2.959-0.388-0.28-0.91-0.349-1.372-0.377-0.044-0.056,0.014-0.65,0.015-0.65h1.45,4.779c0.252,0,0.647-0.134,0.647,0.16v2.002c1.593-2.341,4.466-3.444,7.086-2.012,2.795,1.529,3.795,5.001,3.795,7.988,0,2.759-0.74,6.016-3.12,7.708-2.563,1.823-5.763,1.207-7.76-1.081zm0-1.775c0.895,1.27,3.09,3.207,4.539,1.503,1-1.175,1.073-3.068,1.141-4.524,0.09-1.916,0.382-9.741-3.611-8.157-2.439,0.968-2.07,3.486-2.07,5.547,0.001,1.877,0.001,3.754,0.001,5.631z"/>
	<path d="M56.014,249.285c10.463,0,10.172,17.858-0.378,17.411-9.86-0.418-9.511-17.411,0.378-17.411zm0.071,1.248c-2.953,0-2.526,4.93-2.565,6.857-0.039,1.934-0.636,9.278,3.22,7.992,2.228-0.743,1.813-4.981,1.843-6.762,0.033-1.954,0.773-8.086-2.498-8.087z"/>
	<path d="M73.083,249.778v3.727c0.866-1.351,1.847-2.823,3.273-3.639,1.351-0.773,3.545-0.946,4.033,0.935,0.406,1.563-0.427,3.57-2.307,3.247-1.593-0.274-2.389-2.429-3.867-0.387-1.51,2.087-1.132,5.249-1.132,7.707,0,0.631,0.005,1.26,0.016,1.891,0.01,0.55-0.05,1.171,0.287,1.644,0.249,0.348,1.858,0.8,1.858,0.778,0,0.719-0.14,0.534-0.819,0.534h-3.066-4.981c-0.023,0-0.011-0.385-0.011-0.316,0-0.406-0.088-0.279,0.401-0.368,0.542-0.099,1.042-0.336,1.214-0.89,0.277-0.89,0.213-1.871,0.213-2.796v-6.062c0-0.841,0.008-1.682,0-2.523,0-0.794,0.113-1.991-0.65-2.514-0.331-0.226-0.792-0.276-1.178-0.316-0.045-0.055,0.014-0.65,0.015-0.65,2.234-0.002,4.467-0.002,6.701-0.002z"/>
	<path d="M95.178,241.815c3.519,0,3.522,5.432,0,5.432-3.504-0.001-3.495-5.432,0-5.432zm2.461,7.963v10.443c0,1.342-0.232,3.147,0.206,4.427,0.202,0.59,0.762,0.802,1.34,0.888,0.529,0.079,0.44-0.06,0.44,0.361,0-0.069,0.012,0.316-0.011,0.316h-1.814-6.233c-0.679,0-0.819,0.185-0.819-0.534,0,0.005,1.392-0.477,1.617-0.732,0.437-0.502,0.352-1.541,0.352-2.145,0.048-3.184,0-6.372,0-9.556,0-1.288-0.03-2.546-1.535-2.774-0.525-0.08-0.434,0.055-0.434-0.37,0-0.081-0.065-0.325,0.058-0.325h0.967c1.956,0.001,3.911,0.001,5.866,0.001z"/>
	<path d="M107.922,249.778v2.127c1.201-1.301,2.652-2.456,4.481-2.602,1.798-0.143,3.471,0.688,4.243,2.358,0.867,1.877,0.54,4.277,0.54,6.308,0,1.866-0.095,3.762,0.028,5.626,0.033,0.505,0.047,1.218,0.482,1.569,0.445,0.359,1.266,0.144,1.266,0.733,0,0.568-0.756,0.316-1.248,0.316h-6.202c-0.692,0-0.865,0.198-0.865-0.534,0-0.041,1.157-0.585,1.336-0.872,0.367-0.573,0.281-1.54,0.281-2.18,0.02-1.666,0-3.333,0-4.999,0-1.485,0.492-4.298-0.467-5.46-1.161-1.407-2.931,0.238-3.613,1.242-0.382,0.562-0.262,1.115-0.262,1.787v6.255c0,0.558-0.01,1.117,0.007,1.675,0.017,0.562-0.004,1.35,0.336,1.838,0.497,0.713,1.274,0.223,1.274,1.149,0,0.208-4.158,0.099-4.572,0.099h-2.877c-0.296,0-1.431,0.122-0.865-0.633,2.3-0.234,1.775-2.792,1.775-4.509v-6.378c0-0.449,0.006-0.898,0-1.347,0-0.686,0.036-1.517-0.252-2.161-0.197-0.442-1.524-0.736-1.524-0.859,0-0.596-0.059-0.549,0.496-0.549h2.297c1.302,0.001,2.604,0.001,3.905,0.001z"/>
	<path d="M127.768,243.766v3.684,2.084c0,0.426,0.389,0.244,0.774,0.244h2.57c0.741,0,0.558,0.116,0.558,0.87s0.183,0.87-0.558,0.87h-2.57c-0.153,0-0.774-0.112-0.774,0.087v1.345,5.14,3.531c0,0.805-0.135,1.985,0.598,2.544,1.118,0.853,2.277-0.631,2.777-1.485,1.601,0.575-1.575,3.176-2.367,3.47-2.088,0.774-4.738-0.003-5.632-2.169-0.478-1.156-0.297-2.636-0.297-3.855v-3.616-3.997c0-1.23-0.045-0.995-1.338-0.995-0.673,0-0.807,0.172-0.807-0.519,0-0.451,2.438-2.035,2.873-2.455,0.869-0.841,1.657-1.763,2.354-2.752,0.429-0.609,0.935-2.278,1.839-2.026z"/>
	<path d="M147.192,257.406h-9.018c0.112,2.307,0.897,5.317,3.24,6.339,1.076,0.469,2.363,0.363,3.334-0.301,0.51-0.349,0.924-0.831,1.293-1.321,0.482-0.64,0.379-0.91,1.057-0.471,0.351,0.227-1.506,2.651-1.813,2.986-0.81,0.885-1.837,1.534-3.001,1.842-2.43,0.644-5.215-0.012-6.86-1.966-3.269-3.882-2.588-11.022,1.578-13.988,2.137-1.522,5.119-1.727,7.252-0.09,2.167,1.663,2.847,4.358,2.938,6.97zm-4.324-1.177c0-1.697,0.198-4.258-1.266-5.484-2.036-1.745-3.285,2.159-3.438,3.469-0.011,0.091-0.142,2.015-0.056,2.015h1.301,3.459z"/>
	<path d="M155.946,249.778v2.127c1.201-1.301,2.652-2.456,4.481-2.602,1.798-0.143,3.471,0.688,4.243,2.358,0.867,1.877,0.54,4.277,0.54,6.308,0,1.866-0.095,3.762,0.028,5.626,0.033,0.505,0.047,1.218,0.482,1.569,0.445,0.359,1.266,0.144,1.266,0.733,0,0.568-0.756,0.316-1.248,0.316h-6.202c-0.692,0-0.865,0.198-0.865-0.534,0-0.041,1.157-0.585,1.336-0.872,0.367-0.573,0.281-1.54,0.281-2.18,0.02-1.666,0-3.333,0-4.999,0-1.485,0.492-4.298-0.467-5.46-1.161-1.407-2.931,0.238-3.613,1.242-0.382,0.562-0.262,1.115-0.262,1.787v6.255c0,0.558-0.01,1.117,0.007,1.675,0.017,0.562-0.004,1.35,0.336,1.838,0.497,0.713,1.274,0.223,1.274,1.149,0,0.208-4.158,0.099-4.572,0.099h-2.877c-0.296,0-1.431,0.122-0.865-0.633,2.3-0.234,1.775-2.792,1.775-4.509v-6.378c0-0.449,0.006-0.898,0-1.347,0-0.686,0.036-1.517-0.252-2.161-0.197-0.442-1.524-0.736-1.524-0.859,0-0.596-0.059-0.549,0.496-0.549h2.297c1.302,0.001,2.603,0.001,3.905,0.001z"/>
	<path d="M182.682,261.977c0.453,0.35,0.642,0.277,0.307,0.847-0.452,0.768-1.001,1.484-1.666,2.08-1.274,1.142-2.958,1.802-4.67,1.802-3.331,0-5.848-2.299-6.796-5.407-1.851-6.069,3.009-14.587,10.144-11.493,1.308,0.567,2.532,1.77,2.711,3.238,0.194,1.594-0.962,2.79-2.574,2.561-1.574-0.224-2.025-1.731-2.148-3.101-0.132-1.39-1.364-2.84-2.651-1.413-2.124,2.355-1.242,7.235-0.07,9.798,0.61,1.334,1.603,2.623,3.112,2.939,1.791,0.374,3.139-0.611,4.301-1.851z"/>
	<path d="M189.186,241.815c3.519,0,3.522,5.432,0,5.432-3.504-0.001-3.495-5.432,0-5.432zm2.461,7.963v10.443c0,1.342-0.232,3.147,0.206,4.427,0.202,0.59,0.762,0.802,1.34,0.888,0.529,0.079,0.44-0.06,0.44,0.361,0-0.069,0.012,0.316-0.011,0.316h-1.814-6.233c-0.679,0-0.819,0.185-0.819-0.534,0,0.005,1.392-0.477,1.617-0.732,0.437-0.502,0.352-1.541,0.352-2.145,0.048-3.184,0-6.372,0-9.556,0-1.288-0.03-2.546-1.535-2.774-0.525-0.08-0.434,0.055-0.434-0.37,0-0.081-0.065-0.325,0.058-0.325h0.967c1.955,0.001,3.911,0.001,5.866,0.001z"/>
	<path d="M202.967,249.285c10.463,0,10.172,17.858-0.378,17.411-9.859-0.418-9.511-17.422,0.378-17.411zm0.071,1.248c-2.953,0-2.526,4.93-2.565,6.857-0.039,1.934-0.636,9.278,3.22,7.992,2.228-0.743,1.813-4.981,1.843-6.762,0.033-1.954,0.773-8.086-2.498-8.087zm5.326-8.964c-1.22,1.279-2.44,2.558-3.66,3.837-0.656,0.687-1.311,1.374-1.967,2.062-0.394,0.413-1.161,0.201-1.703,0.201,0.666-1.991,1.331-3.982,1.997-5.973,0.165-0.495,4.617-0.127,5.333-0.127z"/>
	<path d="M219.93,249.778v2.127c1.201-1.301,2.652-2.456,4.481-2.602,1.798-0.143,3.471,0.688,4.243,2.358,0.867,1.877,0.54,4.277,0.54,6.308,0,1.866-0.095,3.762,0.028,5.626,0.033,0.505,0.047,1.218,0.482,1.569,0.445,0.359,1.266,0.144,1.266,0.733,0,0.568-0.756,0.316-1.248,0.316h-6.202c-0.692,0-0.865,0.198-0.865-0.534,0-0.041,1.157-0.585,1.336-0.872,0.367-0.573,0.281-1.54,0.281-2.18,0.02-1.666,0-3.333,0-4.999,0-1.485,0.492-4.298-0.467-5.46-1.161-1.407-2.931,0.238-3.613,1.242-0.382,0.562-0.262,1.115-0.262,1.787v6.255c0,0.558-0.01,1.117,0.007,1.675,0.017,0.562-0.004,1.35,0.336,1.838,0.497,0.713,1.274,0.223,1.274,1.149,0,0.208-4.158,0.099-4.572,0.099h-2.877c-0.296,0-1.431,0.122-0.865-0.633,2.3-0.234,1.775-2.792,1.775-4.509v-6.378c0-0.449,0.006-0.898,0-1.347,0-0.686,0.036-1.517-0.252-2.161-0.197-0.442-1.524-0.736-1.524-0.859,0-0.596-0.059-0.549,0.496-0.549h2.297c1.302,0.001,2.604,0.001,3.905,0.001z"/>
</g>
<g transform="translate(-27.695847,-7.3752823)">
	<path d="M479.78,327.478h-9.018c0.112,2.307,0.897,5.317,3.24,6.339,1.076,0.469,2.363,0.363,3.334-0.301,0.51-0.349,0.924-0.831,1.293-1.321,0.482-0.64,0.379-0.91,1.057-0.471,0.351,0.227-1.506,2.651-1.813,2.986-0.81,0.885-1.837,1.534-3.001,1.842-2.43,0.644-5.215-0.012-6.86-1.966-3.269-3.882-2.588-11.022,1.578-13.988,2.137-1.522,5.119-1.727,7.252-0.09,2.167,1.663,2.847,4.357,2.938,6.97zm-4.324-1.178c0-1.697,0.198-4.258-1.266-5.484-2.036-1.745-3.285,2.158-3.438,3.469-0.011,0.091-0.142,2.015-0.056,2.015h1.301,3.459z"/>
	<path d="M489.026,321.572v10.292c0,1.959-0.187,3.88,2.426,3.789,0.502,0.644-0.317,0.633-0.617,0.633h-2.846-5.865c-0.06,0-0.305,0.039-0.357,0-0.651-0.488,0.681-0.669,0.783-0.682,1.529-0.19,1.607-1.346,1.607-2.658v-10.579c0-0.246,0.144-0.795-0.152-0.795-0.246,0-2.238,0.052-2.238-0.048,0-0.531-0.31-1.674,0.323-1.674,0.449,0,2.067,0.26,2.067-0.24,0-2.545,0.119-4.886,2.439-6.497,1.948-1.353,8.011-2.386,8.642,1.07,0.317,1.739-1.756,2.617-3.164,2.156-0.705-0.231-1.265-0.886-1.14-1.652,0.098-0.603,0.398-1.417-0.374-1.714-2.117-0.814-1.545,3.763-1.534,4.755,0.008,0.694,0,1.388,0,2.081,0,0.085,2.03,0.041,2.271,0.041,0.223,0,0.326,1.56,0.155,1.723-0.282,0.267-1.995-0.001-2.426-0.001z"/>
	<path d="M507.765,327.478h-9.018c0.112,2.307,0.897,5.317,3.24,6.339,1.076,0.469,2.363,0.363,3.334-0.301,0.51-0.349,0.924-0.831,1.293-1.321,0.482-0.64,0.379-0.91,1.057-0.471,0.351,0.227-1.506,2.651-1.813,2.986-0.81,0.885-1.837,1.534-3.001,1.842-2.43,0.644-5.215-0.012-6.86-1.966-3.269-3.882-2.588-11.022,1.578-13.988,2.137-1.522,5.119-1.727,7.252-0.09,2.167,1.663,2.846,4.357,2.938,6.97zm-4.325-1.178c0-1.697,0.198-4.258-1.266-5.484-2.036-1.745-3.285,2.159-3.438,3.469-0.011,0.091-0.142,2.015-0.056,2.015h1.301,3.459z"/>
	<path d="M523.216,332.048c0.453,0.35,0.642,0.277,0.307,0.847-0.452,0.768-1.001,1.484-1.666,2.08-1.274,1.142-2.958,1.802-4.67,1.802-3.331,0-5.848-2.299-6.796-5.407-1.851-6.069,3.009-14.587,10.144-11.493,1.308,0.567,2.532,1.77,2.711,3.238,0.194,1.594-0.962,2.79-2.574,2.561-1.574-0.224-2.025-1.731-2.148-3.102-0.132-1.39-1.364-2.84-2.651-1.413-2.124,2.355-1.242,7.235-0.07,9.798,0.61,1.334,1.603,2.623,3.112,2.939,1.791,0.376,3.138-0.61,4.301-1.85z"/>
	<path d="M532.286,313.837v3.684,2.084c0,0.426,0.389,0.244,0.774,0.244h2.57c0.741,0,0.558,0.116,0.558,0.87s0.183,0.87-0.558,0.87h-2.57c-0.153,0-0.774-0.112-0.774,0.087v1.345,5.14,3.531c0,0.805-0.135,1.985,0.598,2.544,1.118,0.853,2.277-0.631,2.777-1.485,1.601,0.575-1.575,3.176-2.367,3.47-2.089,0.774-4.738-0.003-5.632-2.169-0.478-1.156-0.297-2.636-0.297-3.855v-3.616-3.997c0-1.23-0.045-0.995-1.338-0.995-0.673,0-0.807,0.172-0.807-0.519,0-0.451,2.438-2.035,2.873-2.455,0.869-0.841,1.657-1.763,2.354-2.752,0.429-0.609,0.935-2.278,1.839-2.026z"/>
	<path d="M545.54,319.357c10.463,0,10.172,17.858-0.378,17.411-9.86-0.418-9.511-17.411,0.378-17.411zm0.07,1.248c-2.953,0-2.526,4.93-2.565,6.857-0.039,1.934-0.636,9.278,3.22,7.992,2.228-0.743,1.813-4.981,1.843-6.762,0.033-1.954,0.773-8.087-2.498-8.087z"/>
</g>
<g transform="translate(-27.695847,-7.3752823)">
	<path d="M485.94,175.361v5.213c0,0.792-0.071,1.643,0.129,2.412,0.15,0.575,0.595,0.921,1.164,1.018,0.39,0.066,0.791,0.076,1.185,0.076,0.03,0.036,0.027,0.631,0,0.65-0.21,0.148-1.066,0-1.312,0h-3.235-4.812c-0.022,0-0.011-0.401-0.011-0.325,0-0.419-0.091-0.287,0.413-0.361,0.556-0.082,1.188-0.338,1.376-0.915,0.22-0.675,0.179-1.415,0.179-2.119v-4.64-11.788c0-0.917,0.219-2.371-0.596-2.959-0.388-0.28-0.91-0.349-1.372-0.377-0.044-0.056,0.014-0.65,0.015-0.65h1.45,4.779c0.252,0,0.647-0.134,0.647,0.16v2.002c1.593-2.341,4.466-3.444,7.086-2.012,2.795,1.529,3.795,5.001,3.795,7.988,0,2.759-0.74,6.016-3.12,7.708-2.564,1.823-5.763,1.207-7.76-1.081zm0-1.775c0.895,1.27,3.09,3.207,4.539,1.503,1-1.175,1.073-3.068,1.141-4.524,0.09-1.916,0.382-9.741-3.611-8.157-2.439,0.968-2.07,3.486-2.07,5.547,0.001,1.878,0.001,3.754,0.001,5.631z"/>
	<path d="M507.367,160.104c10.463,0,10.172,17.858-0.378,17.411-9.859-0.419-9.511-17.423,0.378-17.411zm0.071,1.248c-2.953,0-2.526,4.93-2.565,6.857-0.039,1.934-0.636,9.278,3.22,7.992,2.228-0.743,1.813-4.981,1.843-6.762,0.033-1.955,0.773-8.087-2.498-8.087z"/>
	<path d="M524.436,160.596v3.727c0.866-1.351,1.847-2.823,3.273-3.639,1.351-0.773,3.545-0.946,4.033,0.935,0.406,1.563-0.427,3.57-2.307,3.247-1.593-0.274-2.389-2.429-3.867-0.387-1.51,2.087-1.132,5.249-1.132,7.707,0,0.631,0.005,1.26,0.016,1.891,0.01,0.55-0.05,1.171,0.287,1.644,0.249,0.348,1.858,0.8,1.858,0.778,0,0.719-0.14,0.534-0.819,0.534h-3.066-4.981c-0.023,0-0.011-0.385-0.011-0.316,0-0.406-0.088-0.279,0.401-0.368,0.542-0.099,1.042-0.336,1.214-0.89,0.277-0.89,0.213-1.871,0.213-2.796v-6.062c0-0.841,0.008-1.682,0-2.523,0-0.794,0.113-1.991-0.65-2.514-0.331-0.226-0.792-0.276-1.178-0.316-0.045-0.055,0.014-0.65,0.015-0.65,2.234-0.002,4.468-0.002,6.701-0.002z"/>
</g>
</svg>

