<?xml version="1.0" encoding="UTF-8" standalone="no"?>

<svg xmlns:rdf="http://www.w3.org/1999/02/22-rdf-syntax-ns#" 
xmlns="http://www.w3.org/2000/svg" 
enable-background="new 0 0 961.173 512.657" 
xml:space="preserve" 
height="512.657px" 
viewBox="0 0 961.173 512.657" 
width="961.173px" 
version="1.1" 
y="0px" 
x="0px" 
>
<metadata>
</metadata>
<path d="M138.88,9.835v121.948,84.578,145.28,8.146c0,0.403,0.283,2.334-0.029,2.639-5.199,5.074-10.397,10.147-15.596,15.221-16.176,15.787-32.351,31.574-48.527,47.36-12.607,12.304-25.214,24.608-37.822,36.912-8.071,7.877-16.143,15.755-24.214,23.632-0.722,0.705-3.813,2.862-3.813,3.958,0,0.484-0.382,4.439,0.701,3.972,2.547-1.099,4.689-4.352,6.602-6.266,39.313-39.335,79.518-77.811,119.337-116.635,1.912-1.864,3.823-3.728,5.735-5.592,1.002-0.977,6.443-0.127,7.757-0.128,11.621-0.008,23.243-0.017,34.864-0.025,8.401-0.006,16.803-0.001,25.204-0.001h17.079c0.401,0,2.411-0.293,2.722,0,0.733,0.69,0,6.111,0,7.113v23.043c2.881-0.614,3.417-0.069,3.359-3.116-0.073-3.805-0.145-7.61-0.218-11.415-0.099-5.208-0.199-10.417-0.298-15.625h114.357,20.935,5.627c2.157,0,0.917,2.39,2.519,3.726,1.766,1.472,1.718-2.59,1.718-3.413,0-0.663,2.419-0.313,2.981-0.313h8.594,9.805c2.329,0,3.887,1.317,5.869,2.5,0.32-0.832,0.393-2.5,1.405-2.5h4.118,16.187,38.042,54.291,14.758c3.892,0,2.95,0.495,2.95,4.654,0,2.535-0.974,4.346,1.81,4.346,1.984,0,1.343-3.783,1.476-5.595,0.205-2.785-0.382-2.905,1.966-2.907,16.499-0.02,32.999-0.04,49.498-0.06,48.352-0.059,96.703-0.117,145.055-0.176,28.431-0.034,56.861-0.069,85.292-0.103,43.16-0.052,86.319-0.105,129.479-0.157,2.352-0.003,1.424-1.381,1.424-3.689,0-0.64-1.972-0.313-2.507-0.313h-19.077-72.862-112.167-120.275-69.631-15.612c-2.037,0-0.869-4.079-0.869-5.59v-13.695-8.791c0-1.638-2.119-0.924-3.5-0.924,0.229,9.667,0.458,19.333,0.688,29h-116.597-12.378-2.157c-0.134,0-0.17-5.678-0.181-6.214-0.155-7.713-0.596-15.408-0.72-23.123-0.038-2.378-0.076-4.757-0.114-7.135-0.047-2.949-0.217-2.528-3.103-2.528,0.188,13,0.375,26,0.563,39h-23.879c-1.341,0-0.621-8.833-0.621-10.407,0-3.072-0.01-6.144-0.117-9.215-0.124-3.549-0.275-3.103-3.383-4.409,0.187,8.01,0.364,16.021,0.531,24.031h-114.426-27.398c-0.509,0-0.181-3.336-0.207-3.938,0-0.754-0.12-6.099-2.096-4.263-1.703,1.583-1.904,4.377-1.904,6.54,0,1.927,0.102,1.66-1.647,1.66h-6.975-61.739-14.111c-0.95,0-0.528-1.164-0.528-1.99v-19.768-75.61-93.485-144.87-19.698-4.725c0-1.793-2.588-0.852-4-0.852zm307.5,3.812c-16.698,3.51-32.54,8.934-45.791,20.086-13.694,11.525-22.362,27.268-26.398,44.574-1.24,5.32-1.439,9.842-1.488,15.327-0.034,3.832-0.897,8.441,0.001,12.134,0.406,1.669,3.99,12.356,2.98,13.391-1.337,1.371-2.305,1.898-2.305,3.827v9.351,7.653,5.532c0,1.074,1.35,1.117,2.281,1.406,0.583-7.531,1.166-15.063,1.75-22.594,1.065,2.048,2.13,4.096,3.195,6.145,1.29,2.481,1.826,5.544,3.107,7.688,4.773,7.986,12.152,15.114,19.426,20.783,11.462,8.932,27.714,17.1,42.636,16.75,4.459-0.105,8.917-0.209,13.376-0.314,3.023-0.071,6.046-0.142,9.069-0.213,1.741-0.041,3.974,0.303,5.639-0.293,7.514-2.69,14.882-5.525,21.689-9.768,8.65-5.392,16.042-12.487,22.582-20.26,5.902-7.016,10.571-14.093,13.325-22.904,2.264-7.242,3.254-14.715,4.225-22.21,0.515-3.979-0.25-7.801-0.727-11.783-1.076-8.974-3.426-17.085-7.149-25.318-7.779-17.2-21.325-30.416-38.106-38.949-13.795-7.014-28.078-9.256-43.317-10.041zm7.688,3.094c4.745-0.037,8.325,0.706,12.724,1.892,4.973,1.342,9.963,1.938,14.833,3.767,9.299,3.491,17.753,9.072,24.951,15.885,14.158,13.399,23.056,31.121,25.696,50.374,0.326,2.378,1.042,4.993,1.014,7.394-0.03,2.555-0.771,5.281-1.139,7.807-0.692,4.738-1.368,9.479-2.047,14.219-0.658,4.596-4.214,9.876-6.352,13.986-3.493,6.713-8.975,13.207-14.29,18.633-5.131,5.237-10.22,9.484-16.823,12.352-1.461,0.635-2.442,2.127-3.805,2.969-1.724,1.066-3.614,1.867-5.501,2.593-4.04,1.553-8.22,2.65-12.4,3.747-5.049,1.325-9.639,1.237-14.88,1.282-3.79,0.032-8.379,0.841-12.049-0.021-7.161-1.683-14.479-3.106-21.291-5.947-6.66-2.777-12.747-6.82-18.903-10.547-3.234-1.957-5.657-5.597-8.232-8.353-3.679-3.937-6.342-6.925-8.738-11.7-5.003-9.974-11.279-21.678-11.306-33.109-0.021-8.616-1.369-18.291,1.188-26.534,5.003-16.128,12.618-30.53,25.635-41.666,14.345-12.273,32.88-18.876,51.715-19.023zm83.312,115.031c-5.953,0.562-3.919,12.06-3.838,15.88,0.136,6.427,0.385,12.852,0.588,19.277,0.472-0.092,2.746-0.323,2.753-0.8,0.023-1.592,0.046-3.185,0.069-4.777,0.057-3.948,0.114-7.896,0.171-11.844,0.086-5.912,0.171-11.824,0.257-17.736zm-164.437,25.063c-0.187,7.365-0.375,14.729-0.563,22.094-5.669-4.075-11.253-8.291-17.436-11.574-7.784-4.133-16.127-6.475-24.602-8.678-8.67-2.253-18.754-0.416-27.699-0.064-15.941,0.627-32.354,11.182-43.848,21.45-5.088,4.546-9.374,9.815-13.794,14.986-3.042,3.559-5.321,9.957-7.193,14.259-7.422,17.052-10.746,37.153-6.332,55.381,4.479,18.499,15.9,34.842,30.826,46.483,8.038,6.269,17.093,11.204,26.682,14.65,4.097,1.472,8.367,3.487,12.743,3.478,9.866-0.019,19.732-0.038,29.598-0.058,2.072-0.004,4.672-1.289,6.67-1.847,4.111-1.148,8.15-2.55,12.098-4.174,3.503-1.442,7.113-2.911,10.54-4.492,3.57-1.647,6.43-4.536,9.764-6.567,4.003-2.438,2.541,10.498,2.549,12.133,0.015,2.877,0.03,5.754,0.044,8.631,0.016,3.101-0.148,2.909,2.921,2.909,1.822,0,0.969-3.031,0.969-4.571v-9.304c0-4.588,0.018-9.176,0.027-13.764,0.009-4.363,6.293-9.088,8.818-12.487,5.98-8.052,10.319-17.153,12.868-26.851,2.917-11.097,3.286-22.539,3.973-33.926,0.219-3.631-1.826-8.818-2.785-12.22-2.424-8.603-5.901-16.929-10.712-24.478-3.259-5.113-7.208-9.613-11.223-14.126-2.449-2.753-1.597-6.496-1.694-10.111-0.085-3.17-0.165-6.34-0.243-9.51-0.057-2.352-0.115-4.704-0.172-7.055-0.026-1.115-1.858-0.597-2.794-0.597zm-65.563,4.281c9.574,0.227,18.853-0.056,28.167,2.256,17.906,4.445,33.485,14.768,45.328,28.986,6.404,7.688,10.975,16.637,14.254,26.055,1.701,4.885,3.718,9.723,3.812,14.908,0.359,19.894-2.313,40.105-13.343,57.119-4.907,7.57-11.232,14.075-18.034,19.961-4.942,4.276-9.019,5.575-14.705,8.314-19.326,9.31-42.861,11.074-63.263,4.437-10.17-3.308-19.574-8.718-27.69-15.668-3.644-3.121-9.306-7.435-11.861-11.565-2.548-4.12-5.096-8.24-7.634-12.367-2.623-4.266-3.907-8.331-5.44-13.129-2.285-7.153-3.544-14.574-4.455-22.01-0.241-1.968-1.049-4.52-0.613-6.481,0.753-3.387,1.496-6.776,2.233-10.167,1.167-5.37,1.806-11.116,4.217-16.079,2.136-4.396,4.273-8.792,6.424-13.181,0.984-2.007,1.792-4.428,3.071-6.266,1.316-1.89,3.421-3.524,5.023-5.174,4.918-5.067,9.705-10.798,15.68-14.639,6.493-4.175,13.543-7.964,20.716-10.83,5.698-2.276,12.131-3.109,18.113-4.48zm226.281,19.719c0.197,4.562,0.394,9.124,0.591,13.686,0.204,4.723,0.393,9.446,0.554,14.171,0.033,0.957,0.052,1.913,0.069,2.87,0.009,0.519,2.49,0.273,3.036,0.273-0.044-5.453-0.079-10.906-0.134-16.359-0.039-3.856-0.078-7.712-0.117-11.569-0.004-0.42,0.29-2.768-0.031-3.073-0.366-0.348-3.422,0.001-3.968,0.001zm4.063,51c-4.536,0.049-3.549,3.655-3.576,6.858-0.036,4.327-0.072,8.653-0.108,12.98-0.053,6.387-0.106,12.775-0.16,19.162h4.031c-0.05-5.312-0.099-10.624-0.149-15.936-0.071-7.603-0.681-15.666,1.336-23.064-0.427,0-0.965-0.111-1.374,0zm-309.844,29v38.595c0,0.837,1.91,0.405,2.611,0.405,0.812,0,0.533-3.314,0.562-4.217,0.145-4.444,0.052-8.9-0.02-13.344-0.082-5.082-0.198-10.166-0.411-15.244-0.087-2.093,0.692-6.76-2.742-6.195zm172,18v39.314c0,1.111,0.727,0.686,1.74,0.686,1.75,0,1.344-2.073,1.45-3.639,0.443-6.511,0.111-13.149-0.035-19.666-0.081-3.6-0.161-7.2-0.242-10.799-0.04-1.809-0.081-3.618-0.121-5.427-0.021-0.926-2.014-0.469-2.792-0.469zm135,8v18.942c0,5.711,0.017,11.435,0.326,17.139,0.059,1.092-0.301,3.357,1.15,3.647,1.876,0.375,1.961-0.504,1.964-1.84,0.02-12.629,0.04-25.258,0.06-37.888h-3.5zm-307.281,27c1.698,11.963,1.281,24.098,1.281,36.156,0.448-0.146,2.498-0.553,2.502-1.011,0.014-1.545,0.027-3.09,0.041-4.635,0.037-4.139,0.073-8.278,0.11-12.417,0.053-6.031,0.107-12.062,0.16-18.093h-4.094zm177.281,75.843c-3.144,0.617-3.511,0.183-3.441,3.422,0.086,4.01,0.172,8.021,0.258,12.031,0.101,4.721,0.207,9.443,0.4,14.162,0.087,2.126,0.111,4.289,0.385,6.402,0.168,1.291,2.399,0.674,2.399-0.176-0.001-11.947-0.001-23.894-0.001-35.841zm-29.562,2.407c-2.485-0.019-1.438,31.026-1.438,34.906,0.309-0.061,3.5-0.569,3.5-0.741,0.003-1.405,0.005-2.811,0.008-4.216,0.008-3.996,0.015-7.993,0.023-11.989,0.006-3.095,0.023-6.189,0.035-9.284,0.012-3.158,1.407-7.411-2.128-8.676zm160.562,5.75v15.09c0,3.244,0.006,6.488,0.063,9.731,0.056,3.223-0.396,7.253,0.533,10.391,0.264,0.889,1.491,1.009,1.872,0.207,0.811-1.709,0.577-4.041,0.602-5.866,0.066-4.851,0.224-9.702,0.392-14.551,0.174-5.001,0.377-10.002,0.568-15.003-1.342,0.001-2.686,0.001-4.03,0.001zm-305.562,21.281c-3.133,0.789-1.438,10.804-1.438,13.277v11.248,9.473c0,1.397-0.556,4.154,0.111,5.433,3.713,7.117,1.367,15.66,6.784,21.915,3.343,3.86,8.05,9.108,12.791,11.215,2.924,1.3,5.833,2.66,8.819,3.812,4.349,1.678,9.039,2.337,13.495,3.751,11.231,3.504,22.9,4.368,34.617,5.451,19.522,1.805,40.46,1.032,59.706-2.85,3.502-0.706,6.779-1.798,10.133-3.009,4.897-1.768,10.415-3.176,14.732-6.186,2.906-1.837,2.685-1.89,5.89-0.486,3.886,1.702,7.84,3.223,11.875,4.533,20.168,6.548,41.797,8.837,62.933,8.26,19.299-0.527,38.947-3.468,56.849-10.944,2.501-1.044,5.001-2.088,7.502-3.133,2.005-0.837,3.886-3.28,5.508-4.711,3.599-3.177,6.37-5.407,8.406-9.751,4.388-9.361,2.478-16.945-3.789-24.89-1.263-1.601-2.224-3.293-4.033-4.243-2.483-1.304-4.952-2.638-7.455-3.903-21.984-11.11-47.041-12.865-71.253-12.926-19.226-0.049-38.624,1.756-56.863,8.157-2.965,1.041-5.876,2.214-8.769,3.439-1.715,0.726-5.337,3.194-7.175,3.037-1.826-0.156-4.908-2.684-6.639-3.454-4.363-1.942-8.897-3.565-13.47-4.938-7.903-2.372-15.342-4.393-23.608-5.464-5.356-0.694-10.721-1.326-16.082-1.986-4.371-0.538-9.116,0.108-13.529,0.222-11.131,0.288-22.297,1.125-33.248,3.206-16.256,3.09-32.136,9.277-43.955,21.218-2.226,2.249-4.237,4.692-6.282,7.103-0.113-10.596-0.103-21.205-0.547-31.794-0.035-0.822,0.052-10.603-2.016-10.082zm84.25,13.25c2.262,0.03,4.453,0.578,6.656,1.031-15.762,10.396-32.246,19.813-48.363,29.658-8.519,5.203-17.053,10.379-25.624,15.496-1.47,0.878-4.372,3.32-6.294,2.927-1.292-0.265-2.739-2.591-3.56-3.474-1.025-1.102,1.455-2.324,2.449-2.974,3.585-2.345,7.239-4.588,10.885-6.837,10.29-6.348,20.664-12.559,31.01-18.816,7.77-4.699,15.934-9.093,23.333-14.383,2.823-2.019,6.017-2.675,9.508-2.628zm12.093,0.469c1.858,0,13.281-1.084,8.655,3.202-3.446,3.192-7.826,5.547-11.821,7.956-6.995,4.218-14.103,8.246-21.106,12.449-12.499,7.502-24.962,15.068-37.357,22.739-4.352,2.693-9.838,7.458-15.093,8.272-2.448,0.379-4.616-2.023-6.372-3.368,27.549-17.32,55.417-34.136,83.094-51.25zm135.719,0.5c4.999,0.354,9.999,0.698,15,1.031-8.933,4.242-18.083,7.832-27.051,12.003-12.38,5.758-24.437,12.199-36.777,18.004-2.892,1.36-5.556,2.529-5.964-1.358-0.231-2.195,3.136-3.139,4.835-4.077,7.679-4.24,15.505-8.221,23.336-12.172,8.874-4.477,17.747-8.954,26.621-13.431zm-8,0.343c-2.953,2.259-6.4,3.788-9.698,5.477-8.05,4.123-16.156,8.137-24.255,12.163-4.782,2.377-9.568,4.747-14.345,7.134-1.341,0.67-3.459-2.456-4.295-3.378-0.804-0.887,3.558-3.571,4.186-3.771,6.364-2.02,12.461-6.424,18.317-9.602,4.083-2.216,8.179-4.41,12.274-6.605,2.382-1.277,6.25-0.73,8.916-0.895,2.967-0.184,5.934-0.349,8.9-0.523zm-111.219,0.094c2.925,0.244,7.216-0.113,9.835,1.218,1.516,0.77-1.584,2.302-2.053,2.564-2.483,1.382-4.911,2.869-7.346,4.334-13.038,7.844-26.002,15.816-38.984,23.753-9.131,5.583-18.205,11.266-27.383,16.772-5.154,3.092-10.328,6.166-15.647,8.968-1.532,0.807-2.341,1.594-3.955,0.924-1.728-0.717-3.438-1.479-5.155-2.22,29.924-19.246,61.128-36.489,90.688-56.313zm141.313,0.063c3.228,0,6.208,0.009,8.906,2.031-9.876,6.018-20.887,10.272-31.468,14.85-10.345,4.476-20.395,9.698-30.526,14.629-5.489,2.671-10.988,5.325-16.527,7.891-2.008,0.93-4.836,2.937-7.198,2.599,0.801-3.206,0.651-5.032,3.672-6.693,9.389-5.162,19.233-9.595,28.81-14.4,14.642-7.347,29.606-13.745,44.331-20.907zm-184.469,0.031c-0.393,0.003,2.058,0.004,1.875,0.188-1.215,1.22-3.276,2.051-4.731,2.93-4.159,2.512-8.334,4.996-12.515,7.472-8.517,5.045-17.037,10.083-25.537,15.156-6.566,3.919-13.011,8.283-19.875,11.659-4.143,2.038-4.774,0.513-4.185-3.562,0.306-2.254,0.381-2.303,2.324-3.416,2.558-1.465,5.116-2.93,7.668-4.407,9.672-5.6,19.27-11.328,28.82-17.134,4.149-2.522,8.293-5.053,12.439-7.58,3.083-1.879,10.195-1.282,13.717-1.306zm57.844,1.812c2.189,0.975,5.952,1.925,7.554,3.702,1.727,1.915-6.234,3.979-7.301,4.639-2.86,1.77-5.736,3.357-8.641,5.056-13.732,8.032-27.278,16.391-40.861,24.67-9.794,5.97-19.49,12.145-29.453,17.831-2.829,1.615-6.827,4.498-10.332,3.769-0.76-0.158-3.203-0.686-3.661-1.49-0.604-1.06,3.37-3.226,3.894-3.569,16.166-10.585,33.202-19.846,49.658-29.971,13.13-8.081,26.205-16.251,39.143-24.637zm141.844,1.157c1.759,0,13.895,0.514,10.166,2.796-5.317,3.255-11.305,5.624-16.955,8.214-11.119,5.098-22.325,9.954-33.499,14.863-12.803,5.624-25.325,11.946-37.911,18.032-6.529,3.157-13.031,6.793-19.839,9.335-2.153,0.804-2.902,0.362-4.743-0.834,2.205-2.14,4.411-4.278,6.633-6.401,2.085-1.993,4.156-2.845,6.795-4.084,8.897-4.179,17.795-8.352,26.649-12.622,20.799-10.031,41.752-19.551,62.704-29.299zm-223.407,0.031c-3.291,3.165-36.132,22.35-36.48,21.489-0.829-2.049,13.501-11.204,14.915-12.144,6.619-4.398,14.069-6.892,21.565-9.345zm149.594,0.531c0.504-0.125,0.91-0.01,1.218,0.346,0.061,1.303-7.313,3.972-8.205,4.405-4.977,2.418-9.959,4.841-15.082,6.938-1.052,0.431-5.495,2.511-6.611,1.639-1.558-1.219-3.112-2.443-4.663-3.671,4.821-2.488,9.746-4.299,14.969-5.794,5.802-1.662,12.276-3.805,18.374-3.863zm-55.5,2.438c0.888,0,8.101,1.945,7.456,3.099-1.142,2.044-4.574,3.668-6.438,4.91-5.353,3.566-11.031,6.304-16.575,9.502-18.003,10.386-35.697,21.385-53.504,32.109-4.642,2.795-9.311,5.591-14.175,7.987-2.782,1.37-6.814,1.905-9.6,0.066-1.79-1.182,5.538-4.696,6.237-5.097,4.975-2.857,9.703-6.077,14.529-9.17,16.09-10.312,32.769-19.793,49.061-29.822,3.203-1.971,6.847-3.818,9.697-6.304,1.507-1.315,3.684-1.043,5.449-2.185,2.022-1.308,5.281-5.095,7.863-5.095zm147.344,0.968c1.105,0.043,9.294,1.01,6.894,3.184-3.053,2.765-8.135,4.183-11.855,5.91-10.729,4.98-21.396,10.091-32.117,15.088-13.431,6.26-27.197,11.351-40.586,17.741-7.353,3.509-14.68,7.065-21.93,10.78-2.552,1.308-3.284,2.034-6.024,1.372-1.001-0.242-6.513-1.44-4.742-2.603,8.809-5.785,18.992-10.019,28.42-14.667,14.308-7.055,29.07-12.944,43.352-19.937,9.639-4.72,19.226-9.613,29.043-13.959,2.905-1.284,6.263-3.037,9.545-2.909zm-134.531,4.157c1.522,0.006,2.901,0.928,4.125,1.75-5.089,4.036-8.909,8.937-14.531,12.173-11.288,6.496-22.779,12.531-33.895,19.336-9.359,5.73-18.83,11.274-28.296,16.826-5.997,3.517-12.826,9.131-19.903,4.071,7.032-4.868,14.572-8.948,21.86-13.419,9.306-5.709,18.546-11.454,28.013-16.891,5.973-3.431,11.663-7.2,17.728-10.494,4.684-2.544,9.296-5.245,13.808-8.081,3.206-2.015,7.101-5.176,11.091-5.271zm147.093,0.031c2.253,1.126,4.087,2.595,5.625,4.594-24.634,11.782-49.247,24.249-74.586,34.392-9.418,3.77-18.327,8.702-27.601,12.793-3.929,1.733-5.803,2.283-9.971,0.811-1.867-0.66-3.809-1.155-1.696-2.472,10.405-6.483,21.995-11.59,33.136-16.653,10.542-4.79,21.38-8.878,31.922-13.755,14.362-6.645,28.695-13.322,43.171-19.71zm-140.562,3.75c0.693,0.424,4.16,1.963,3.826,3.054-0.741,2.423-7.859,4.531-9.848,5.486-0.619,0.297-2.594,1.679-3.377,1.457-0.619-0.175,2.327-3.5,2.475-3.658,2.143-2.28,4.572-4.281,6.924-6.339zm149.5,2.094c0.715,0.667,4.506,3.399,4.625,4.313,0.235,1.805-4.659,3.355-5.915,3.921-10.186,4.588-20.178,9.596-30.285,14.352-14.086,6.628-28.058,14.199-42.638,19.662-1.428,0.535-2.909,0.716-4.331,1.232-5.255,1.907-10.147,4.967-15.631,6.221-1.114,0.255-8.77-1.155-8.047-1.752,1.568-1.294,3.72-2.126,5.515-3.037,8.789-4.463,17.828-8.093,26.803-12.082,23.51-10.447,46.789-21.571,69.904-32.83zm-143.406,3.031c0.643,0.241,3.379,0.866,2.806,2.061-0.951,1.984-4.726,3.23-6.506,4.105-0.928,0.456-14.215,7.399-14.129,4.702,0.125-3.911,5.367-4.806,8.465-6.306,3.125-1.512,6.242-3.041,9.364-4.562zm149.437,4.75c1.248,1.694,2.625,3.389,2.625,5.612,0,2.26-1.705,1.965-3.719,2.669-4.016,1.325-7.772,3.3-11.576,5.122-8.458,4.053-17.023,7.89-25.561,11.771-13.196,5.998-26.291,12.58-39.834,17.773-0.701,0.269-3.417,1.656-4.152,0.822-0.809-0.919-0.141-1.067-1.926-0.818-2.521,0.352-5.258-0.459-7.733-0.92,6.296-3.235,12.826-5.052,19.267-8.01,10.264-4.714,20.455-9.585,30.733-14.271,14.045-6.403,27.966-13.063,41.876-19.75zm-145.125,0.094c1.149,0.377,3.538,1.041,2.099,2.554-2.827,2.972-7.821,4.58-11.442,6.227-1.198,0.545-12.902,7.191-12.906,3.824-0.003-2.48,0.417-2.24,2.662-3.306,2.735-1.298,5.469-2.596,8.204-3.894,3.794-1.802,7.589-3.604,11.383-5.405zm-27.062,3.531c1.568,0.062,1.975,5.787,1.313,6.938-0.785,1.363-4.599,2.658-6.074,3.484-8.458,4.732-17.102,9.049-25.488,13.941-7.13,4.159-14.314,8.225-21.283,12.652-2.318,1.472-3.54,2.58-6.249,2.58h-6.563c0.282-2.868,6.069-5.252,8.085-6.551,6.58-4.24,13.241-8.357,19.924-12.435,6.176-3.768,12.37-7.517,18.654-11.102,1.804-1.029,3.611-2.092,5.493-2.974,2.532-1.187,4.998-2.573,7.354-4.077,1.47-0.941,3.022-2.313,4.834-2.456zm30.937,1.75c2.186-0.022,0.15,2.197-0.35,2.569-1.647,1.225-3.505,2.187-5.32,3.132-3.056,1.591-6.178,3.055-9.313,4.483-2.555,1.164-6.318,3.695-9.268,3.557-2.054-0.096,0.027-2.44,0.665-2.842,2.394-1.512,5.339-2.409,7.896-3.627,3.367-1.605,6.663-3.345,10.001-5.005,1.628-0.812,3.788-2.248,5.689-2.267zm142.844,5.281c3.456-0.165-2.406,5.93-2.935,6.351-3.408,2.715-7.352,4.381-11.289,6.149-8.822,3.962-17.488,8.275-26.348,12.15-6.81,2.978-13.309,6.162-20.751,7.31-0.632,0.098-7.909,0.444-7.573,0.074,1.555-1.717,4.43-2.837,6.44-3.894,5.665-2.98,11.845-5.182,17.643-7.951,8.617-4.115,17.229-8.239,25.874-12.294,5.651-2.651,12.563-7.213,18.939-7.895zm-142.375,1.406c1.748-0.118,0.692,3.453-0.369,3.941-2.149,0.987-4.298,1.975-6.446,2.962-2.418,1.111-4.831,2.237-7.274,3.292-1.176,0.508-4.75,2.613-6.115,1.64-3.493-2.488,5.53-5.526,6.531-6.002,4.287-2.038,8.947-5.214,13.673-5.833zm-30.813,2.157c1.289,0,3.185,5.084,3.141,6.156-0.06,1.44-8.563,4.974-9.788,5.702-1.479,0.878-3.081,1.755-4.377,2.901-1.152,1.018-2.281,1.088-3.618,1.68-3.855,1.708-7.526,3.932-11.136,6.096-3.273,1.962-7.141,5.4-10.784,6.464-3.068,0.896-8.257,0-11.469,0,2.375-3.058,5.975-4.915,9.259-6.85,4.595-2.706,9.207-5.375,13.738-8.19,3.781-2.349,7.463-4.728,11.482-6.625,2.691-1.271,5.232-2.845,7.801-4.339,1.388-0.806,4.051-2.995,5.751-2.995zm27.219,6.625c2.429-0.252-3.138,4.599-3.484,4.887-1.976,1.644-3.71,2.862-6.266,1.831-4.086-1.649,7.911-6.528,9.75-6.718zm-22.625,2.25c1.111,0.585,4.876,1.85,4.266,3.691-1.098,3.311-7.579,5.883-10.234,7.434-4.816,2.828-8.919,5.994-14.482,6.636-1.167,0.135-11.747,2.794-11.761,2.053-0.059-3.223,9.954-6.729,12.265-7.952,6.835-3.62,13.358-7.816,19.946-11.862zm160.969,0.406c0.837-0.16-2.307,3.367-2.65,3.671-1.857,1.647-3.476,1.947-5.674,2.91-3.291,1.441-6.44,3.122-9.795,4.434-2.545,0.995-6.04,2.808-8.857,2.607-1.086-0.077,3.525-2.9,3.89-3.095,2.768-1.483,5.589-2.866,8.423-4.218,4.523-2.157,9.684-5.358,14.663-6.309zm-153.375,4.75c2.303,0.862,4.083,1.795,1.254,3.627-3.178,2.058-7.674,4.58-11.597,4.342,3.582-2.508,7.076-5.053,10.343-7.969z"/>
<path stroke="#000000" stroke-width="0.3786" stroke-linecap="square" d="M960.984,372.966c-12.097,3.829-24.194,7.657-36.291,11.486v-22.972c12.097,3.828,24.194,7.657,36.291,11.486z"/>
<path stroke="#000000" stroke-width="0.3786" stroke-linecap="square" d="M140.539,0.189c3.829,12.097,7.657,24.194,11.486,36.291h-22.972c3.829-12.097,7.658-24.194,11.486-36.291z"/>
<path stroke="#000000" stroke-width="0.3786" stroke-linecap="square" d="M0.189,512.468c5.534-11.418,11.068-22.836,16.602-34.254,5.562,5.263,11.124,10.527,16.685,15.79-11.095,6.155-22.191,12.309-33.287,18.464z"/>
<g transform="translate(8.8800174,9.8346758)">
	<path d="M731.283,467.976v7.343c0,1.224-0.211,1.015,0.609,1.36,2.861,0,4.313-1.852,4.609-4.547,1.142-0.05,0.547,4.347,0.547,5.32,0,0.992,0.144,8.031-0.759,3.941-0.529-2.394-5.006-5.768-5.006-1.877,0,2.275-1.067,7.85,2.297,7.85-0.04-0.039,1.522,0.578,0.393,0.578h-3.589c-0.835,0-7.179,0.327-7.179-0.289,0-0.53,2.35-0.244,2.813-1.367,0.377-0.822,0.172-2.009,0.172-2.925v-9.613c0-1.724,0.701-5.868-1.482-6.339-3.076-0.663-0.362-0.654,1.291-0.654,1.346,0,15.082-0.147,15.082,0.142,0,0.881,0.434,6.433-0.641,5.937-0.512-5.013-4.891-4.859-8.849-4.859-0.103-0.001-0.205-0.001-0.308-0.001z"/>
	<path d="M746.642,466.257c3.128,0,3.131,4.828,0,4.828-3.115,0.001-3.107-4.827,0-4.828zm2.188,7.078v11.502c0,1.816,2.711,3.108,0.945,3.108h-6.687c-1.105,0,0.2-0.617,0.46-0.719,1.086-0.425,0.906-1.723,0.906-2.679v-6.832c0-0.841,0.06-1.777-0.09-2.601-0.218-1.199-1.973-0.833-1.66-1.779,0.104-0.31,5.477,0,6.126,0z"/>
	<path d="M761.377,473.507c0.972,0,4.212-0.566,4.922,0,0.075,0.06,0.079,1.635,0,1.719-0.281,0.298-2.332,0-2.797,0,3.573,3.573-0.29,8.478-4.688,8.304-0.726-0.029-1.572-0.227-2.271,0.046-1.198,0.468-1.388,2.286-0.016,2.639,1.56,0.401,3.45,0,5.05,0.104,6.635,0.431,5.447,7.385-0.353,8.342-2.409,0.397-5.633,0.425-7.823-0.834-2.51-1.442-0.77-3.557,1.273-4.1-3.723-1.833-1.464-5.436,1.422-6.641-8.111-2.966-1.939-12.523,5.281-9.579zm-2.703,0.36c-3.139,0-3.185,8.766-0.078,8.766,3.255-0.001,3.156-8.766,0.078-8.766zm-0.922,16.234c-1.139,0-3.987,0.429-2.77,2.338,1.044,1.637,3.886,1.437,5.505,1.27,1.202-0.124,5.154-1.879,2.548-3.19-1.471-0.74-3.722-0.418-5.283-0.418z"/>
	<path d="M770.924,483.132c3.371,0,3.373,5.203,0,5.203-3.358,0-3.35-5.203,0-5.203z"/>
	<path d="M796.174,487.945h-12.469c1.724-3.848,5.872-6.584,7.498-10.704,0.861-2.183,1.283-5.317-1.053-6.766-2.766-1.716-4.668,2.213-5.78,1.822-1.341-0.471,2.379-4.71,3.166-5.168,2.401-1.398,5.713-0.967,7.528,1.188,4.459,5.297-3.272,12.166-6.733,15.535h4.421c0.749,0,1.616,0.063,2.352-0.141,1.285-0.356,1.079-1.779,2.258-1.891-0.397,2.042-0.792,4.083-1.188,6.125z"/>
</g>
</svg>

