<?xml version="1.0" encoding="UTF-8" standalone="no"?>

<svg xmlns:rdf="http://www.w3.org/1999/02/22-rdf-syntax-ns#" 
xmlns="http://www.w3.org/2000/svg" 
height="122.14393" 
width="217.69362" 
version="1.1" 
>

 <metadata>
 </metadata>

 <path style="stroke-linejoin:miter;stroke-dashoffset:0;stroke:#000000;stroke-linecap:square;stroke-miterlimit:4;stroke-width:1.5;fill:#000000;" d="m45.298889,61.071964,126.946221,0,0,60.321966-126.946221,0z"/>

 <path style="stroke-linejoin:miter;stroke-dashoffset:0;stroke:#000000;stroke-linecap:square;stroke-miterlimit:4;stroke-width:1.10731983;fill:#000000;" d="m89.928649,28.013661,127.211311,0-44.15925,32.804476-127.211315,0z"/>

 <path style="stroke-linejoin:miter;stroke-dashoffset:0;stroke:#000000;stroke-linecap:square;stroke-miterlimit:4;stroke-width:1.5;fill:#ffffff;" d="m45.294799,0.75,126.946221,0,0,60.321964-126.946221,0z"/>

 <path style="stroke-linejoin:round;enable-background:accumulate;color:#000000;stroke-dashoffset:0;stroke:#000000;stroke-linecap:butt;stroke-miterlimit:4;stroke-width:1.11506772;fill:none;" d="m101.65775,60.171638c0,10.86598-8.909386,19.674597-19.899674,19.674597s-19.899684-8.808617-19.899684-19.674597,8.909396-19.674597,19.899684-19.674597,19.899674,8.808617,19.899674,19.674597z"/>

 <path style="stroke-linejoin:miter;stroke-dashoffset:0;stroke:#000000;stroke-linecap:square;stroke-miterlimit:4;stroke-width:1.10731983;fill:#ffffff;" d="m44.712915,61.32579,127.211315,0-44.15926,32.804477-127.2113101,0z"/>

 <path style="stroke-linejoin:round;enable-background:accumulate;color:#000000;stroke-dashoffset:0;stroke:#000000;stroke-linecap:butt;stroke-miterlimit:4;stroke-dasharray:3.34520316, 1.11506772;stroke-width:1.11506772;fill:none;" d="m141.64478,60.171714c0,10.86598-8.90939,19.674597-19.89968,19.674597s-19.89968-8.808617-19.89968-19.674597,8.90939-19.674597,19.89968-19.674597,19.89968,8.808617,19.89968,19.674597z"/>

 <path style="fill:#ffffff;" d="m101.91789,37.006797,42.31541,0,0,23.270046-42.31541,0z"/>

</svg>

