<?xml version="1.0" encoding="UTF-8" standalone="no"?>

<svg xmlns:rdf="http://www.w3.org/1999/02/22-rdf-syntax-ns#" 
xmlns="http://www.w3.org/2000/svg" 
enable-background="new 0 0 214.917 197.526" 
xml:space="preserve" 
height="197.526px" 
viewBox="0 0 214.917 197.526" 
width="214.917px" 
version="1.1" 
y="0px" 
x="0px" 
>

<metadata>
</metadata>

<g transform="translate(101.543,-12.192183)">
	<path d="M16.854,114.473c-5.546-0.183-2.891,7.405-0.123,9.315,5.909,4.076,13.692-0.217,17.154-5.517,4.035-6.178,3.285-14.274-0.585-20.323-3.851-6.02-10.344-10.16-17.349-11.41-14.086-2.513-28.16,6.483-33.91,19.158-6.13,13.513-2.777,29.291,6.913,40.201,9.848,11.089,24.804,16.491,39.475,14.678,15.125-1.87,28.622-10.961,36.751-23.747,8.596-13.521,10.386-30.409,5.292-45.558-4.397-13.075-13.63-24.193-25.255-31.512-11.401-7.179-25.024-10.744-38.482-9.874-13.6,0.879-26.703,6.158-37.426,14.512-10.914,8.503-19.384,20.154-23.818,33.281-4.777,14.14-4.742,29.651-0.375,43.888,8.629,28.131,33.684,49.018,62.331,54.487,29.112,5.557,59.505-5.63,79.444-27.249,20.828-22.583,28.703-55.199,20.183-84.744-8.264-28.656-30.405-52.231-57.908-63.408-28.891-11.741-61.836-9.296-88.988,5.864-26.84,14.985-46.698,41.295-53.273,71.377-0.928,4.246-1.59,8.549-1.972,12.878" stroke="#000000" stroke-width="1.9" fill="none"/>
	<path d="M-27.91,105.938h32.624,46.759,13.709,8.828,2.725c0.862,0,1.785-0.245,1.645,0.931-0.066,0.558-0.051,1.113-0.051,1.674v43.979,5.546c0,1.537-0.12,3.126,0.01,4.659,0.04,0.473,0.354,1.733-0.398,1.733h-2.038-14.766-44.22-39.101-5.595c-0.282,0-0.13-4.576-0.13-5.001v-25.685c-0.001-9.279-0.001-18.557-0.001-27.836z" fill="#FFFFFF"/>
	<path d="M-23.859,84.33h39.197,18.536c0.537,0,7.09-0.019,7.09,0.027v7.175,23.058,7.568c0,0.246,0.172,1.189-0.145,1.303-0.752,0.27-1.689,0.032-2.468,0.032h-1.464-44.563-15.76c-0.593,0-0.423-0.154-0.423-0.73v-3.352-11.897-23.184z" fill="#FFFFFF"/>
	<path d="M-97.235,107.289h36.145,33.143,45.473,37.504,34.375,17.523,3.201c0.387,0,1.461-0.206,1.804,0.025,0.86,0.581,0.158,3.828,0.158,4.817,0.001,2.087,0.002,4.175,0.001,6.262,0,0.505,0.343,2.851-0.274,2.851h-37.622-32.81-45.099-38.119-34.603-14.161-6.384c-0.609,0-0.255-13.036-0.255-13.955z" fill="#FFFFFF"/>
	<path stroke="#000000" stroke-width="1.4" d="M73.261,108.304c-0.793-1.386-1.587-2.772-2.38-4.159,1.477-0.137,2.953-0.275,4.43-0.412-0.683,1.524-1.367,3.047-2.05,4.571z"/>
	<path stroke="#000000" stroke-width="1.4" d="M110.624,108.304c-0.793-1.386-1.587-2.772-2.38-4.159,1.477-0.137,2.953-0.275,4.43-0.412-0.683,1.524-1.366,3.048-2.05,4.571z"/>
	<path stroke="#000000" stroke-width="1.4" d="M-58.021,120.718c0.66,1.454,1.32,2.909,1.98,4.363-1.483-0.001-2.966-0.003-4.449-0.004,0.822-1.453,1.646-2.906,2.469-4.359z"/>
	<g>
		<path d="M-16.014,27.314c0,1.012-0.191,2.013-0.119,3.028,0.027,0.386,0.07,0.906,0.371,1.192,0.174,0.166,1.217,0.202,1.217,0.433,0,0.294-2.968,0.145-3.438,0.145-0.339,0-1.734,0.229-1.972-0.075-0.174-0.223,0.954-0.304,1.124-0.41,0.594-0.369,0.462-1.64,0.46-2.231-0.007-1.54-0.079-3.058-0.023-4.599,0.028-0.783,0.035-1.58-0.125-2.351-0.118-0.568-1.446-0.592-1.43-0.856,0.026-0.408,6.681,0.12,6.961,0.222,1.541,0.555,2.407,2.208,1.669,3.746-0.845,1.759-3.023,1.756-4.695,1.756zm0-5.187v2.113c0,0.387-0.26,2.092,0,2.382,0,0.35,1.108-0.031,1.245-0.079,0.758-0.266,1.056-1.016,1.116-1.77,0.127-1.599-0.715-2.678-2.361-2.646z"/>
		<path d="M-6.983,24.806v1.656c0.516-0.806,2.474-3.056,3.238-1.198,0.213,0.519-0.039,1.357-0.663,1.466-0.558,0.097-0.884-0.596-1.418-0.614-1.242-0.041-1.13,2.243-1.181,3.009-0.038,0.582-0.078,1.18,0.017,1.759,0.039,0.238,0.103,0.497,0.257,0.691,0.105,0.133,0.755,0.308,0.74,0.391-0.057,0.322-2.291,0.145-2.534,0.145h-1.291c-0.464,0,0.049-0.302,0.158-0.338,0.481-0.158,0.486-0.695,0.518-1.114,0.09-1.163-0.024-2.332-0.009-3.496,0.009-0.718,0.23-1.763-0.606-2.025-0.78-0.244,0.348-0.476,0.594-0.476,0.729,0,1.452,0.144,2.18,0.144z"/>
		<path d="M0.525,24.588c4.555,0,4.568,7.742,0.023,7.742-4.529,0-4.514-7.742-0.023-7.742zm0.031,0.554c-1.405,0-1.162,2.372-1.147,3.263,0.015,0.887-0.282,2.912,0.77,3.347,1.673,0.692,1.456-2.339,1.492-3.142,0.041-0.917,0.363-3.468-1.115-3.468z"/>
		<path d="M12.181,21.517v5.05c0,1.103-0.558,4.799,0.898,4.903,0.106,0.608-2.678,0.78-3.086,0.859v-1.156c-2.096,2.538-4.836,0.019-4.836-2.586,0-2.437,2.594-5.555,4.836-3.086,0-0.796,0.151-1.587,0.058-2.384-0.037-0.313-0.111-0.646-0.306-0.903-0.163-0.214-0.871-0.35-0.866-0.515,0.016-0.465,3.302-0.023,3.302-0.182zm-2.187,4.954c-0.951-1.824-2.358-0.798-2.518,0.822-0.11,1.112-0.243,2.592,0.371,3.587,0.744,1.205,1.947,0.131,2.148-0.838,0.246-1.187-0.001-2.378-0.001-3.571z"/>
		<path d="M21.04,24.806v5.633c0,0.455-0.054,1.088,0.454,1.307,0.927,0.4-0.285,0.364-0.652,0.364h-1.514c-0.672,0-0.476-0.407-0.476-0.977-1.209,1.444-3.656,1.74-4.049-0.521-0.218-1.254,0.557-4.773-0.416-5.402-0.063-0.041-0.596-0.277-0.532-0.377,0.14-0.218,1.68-0.028,1.942-0.028,0.831,0,1.116-0.164,1.116,0.745,0,1.216-0.724,6.93,1.476,5.435,0.679-0.461,0.462-1.408,0.462-2.115,0-0.832,0.129-1.67,0.05-2.5-0.037-0.383-0.12-0.844-0.436-1.105-0.254-0.21-0.669-0.307-0.038-0.423,0.858-0.157,1.748-0.036,2.613-0.036z"/>
		<path d="M28.853,30.228c0.913,0.394-1.676,1.854-2,1.99-1.618,0.677-3.285-0.892-3.711-2.326-0.846-2.849,2.372-7.436,5.201-4.486,0.367,0.383,0.864,1.094,0.444,1.612-0.368,0.453-1.155,0.586-1.547,0.112-0.33-0.4-0.55-2.26-1.303-1.977-2.465,0.922-0.133,8.328,2.916,5.075z"/>
		<path d="M36.173,28.197h-4.008c0.054,1.115,0.473,2.66,1.753,2.915,0.542,0.108,1.06-0.066,1.404-0.487,0.115-0.141,0.512-0.759,0.761-0.636,0.591,0.292-1.8,2.036-2.119,2.155-1.081,0.402-2.232,0.146-2.986-0.742-1.42-1.673-1.253-4.655,0.439-6.087,2.336-1.978,4.669,0.398,4.756,2.882zm-1.922-0.523c0-0.788,0.116-1.868-0.563-2.438-0.724-0.621-1.274,0.5-1.438,1.065-0.171,0.591-0.428,1.373,0.426,1.373,0.453,0.126,1.102,0,1.575,0z"/>
	</g>
	<g>
		<path d="M-13.211,64.941c0,0.374,0.146,3.718-0.035,3.751-0.273,0.05-0.911-1.589-0.995-1.701-0.773-1.034-2.139-1.558-3.402-1.267-2.115,0.488-2.84,2.748-2.823,4.679,0.015,1.733,0.438,4.091,2.341,4.686,1.705,0.533,3.637-0.474,4.736-1.75,0,2.481-3.564,2.911-5.416,2.567-2.255-0.418-4.086-2.18-4.4-4.481-0.319-2.334,0.935-4.669,2.99-5.788,1.263-0.688,2.732-0.844,4.128-0.52,0.549,0.128,1.569,0.784,2.136,0.542,0.379-0.16,0.269-0.733,0.74-0.718z"/>
		<path d="M-8.343,68.254c4.555,0,4.568,7.742,0.023,7.742-4.529,0-4.515-7.742-0.023-7.742zm0.031,0.554c-1.405,0-1.162,2.372-1.147,3.263,0.015,0.887-0.282,2.912,0.77,3.347,1.673,0.692,1.456-2.339,1.492-3.142,0.041-0.917,0.362-3.468-1.115-3.468z"/>
		<path d="M-0.804,68.472v0.945c1.548-1.678,3.947-1.441,4.135,1.078,0.088,1.177-0.06,2.36-0.078,3.537-0.005,0.318-0.054,1.05,0.278,1.244,0.062,0.036,0.698,0.377,0.601,0.473-0.269,0.265-1.52,0.021-1.941,0.042-0.514,0.026-1.086,0.095-1.593-0.025-0.49-0.117,0.458-0.621,0.505-0.916,0.234-1.44,0.196-3.397-0.014-4.843-0.188-1.29-1.893-0.487-1.893,0.483,0,0.756-0.421,4.219,0.211,4.751,0.118,0.099,0.834,0.404,0.316,0.527-0.507,0.121-1.079,0.051-1.593,0.025-0.246-0.012-1.951-0.047-1.93-0.106,0.068-0.187,0.428-0.313,0.581-0.413,0.362-0.236,0.287-0.939,0.273-1.302-0.023-0.62-0.047-1.231-0.047-1.851v-1.941c0-0.316,0.115-0.998-0.221-1.197-0.059-0.035-0.707-0.39-0.591-0.481,0.495-0.386,2.363-0.022,3.001-0.03z"/>
		<path d="M8.321,69.238v3.553c0,0.405,0.008,0.812-0.008,1.217-0.014,0.379-0.057,0.846,0.175,1.177,0.08,0.114,0.888,0.483,0.929,0.429-0.3,0.39-2.385,0.163-2.823,0.163-0.451,0-0.927,0.044-1.377-0.006-0.634-0.07,0.392-0.35,0.462-0.38,0.425-0.188,0.478-0.674,0.478-1.083,0.069-1.375,0.015-2.752,0.003-4.128-0.001-0.15,0.137-1.028-0.281-0.926-0.243,0.059-0.776,0.299-0.806-0.147-0.087-1.284,0.578-0.101,1.084-0.635,0.169-0.18-0.023-0.685-0.008-0.906,0-0.693,0.284-1.365,0.788-1.841,0.825-0.781,2.868-1.21,3.807-0.424,0.632,0.529,0.346,1.479-0.444,1.639-1.512,0.307-0.587-0.96-1.158-1.437-0.939-0.881-0.837,2.067-0.813,2.531,0.04,0.763,0.937,0.12,1.064,0.544,0.269,0.899-0.44,0.71-1.072,0.66z"/>
		<path d="M12.219,64.933c1.564,0,1.565,2.414,0,2.414-1.558,0-1.554-2.414,0-2.414zm1.094,3.539v4.018,1.611c0,0.352-0.064,0.783,0.144,1.096,0.052,0.078,0.802,0.504,0.751,0.546-0.327,0.274-1.664,0.034-2.047,0.034-0.09,0-1.944-0.03-1.903-0.114,0.163-0.332,0.67-0.24,0.811-0.676,0.105-0.327,0.057-0.687,0.057-1.024v-1.941c0-0.503,0.001-1.006,0-1.51,0-0.359,0.137-1.133-0.164-1.405-0.071-0.064-0.793-0.505-0.721-0.604,0.222-0.306,2.648-0.031,3.072-0.031z"/>
		<path d="M17.93,68.472v1.656c0.516-0.806,2.474-3.056,3.238-1.198,0.213,0.519-0.039,1.357-0.663,1.466-0.558,0.097-0.884-0.596-1.418-0.614-1.242-0.041-1.13,2.243-1.181,3.009-0.038,0.582-0.078,1.18,0.017,1.759,0.039,0.238,0.103,0.497,0.257,0.691,0.105,0.133,0.755,0.308,0.74,0.391-0.057,0.322-2.291,0.145-2.534,0.145h-1.291c-0.464,0,0.049-0.302,0.158-0.338,0.481-0.158,0.486-0.695,0.518-1.114,0.09-1.163-0.024-2.332-0.009-3.496,0.009-0.718,0.23-1.763-0.606-2.025-0.78-0.244,0.348-0.476,0.594-0.476,0.729,0,1.452,0.144,2.18,0.144z"/>
		<path d="M25.024,68.472v0.961c1.136-1.239,3.405-1.787,4.148,0.148,0.803-0.904,2.505-1.921,3.636-0.983,1.457,1.207,0.661,4.138,0.758,5.761,0.023,0.379,0.013,0.647,0.318,0.884,0.109,0.085,0.63,0.317,0.483,0.533-0.117,0.174-0.887,0-1.109,0-0.405,0-2.455,0.279-2.69-0.032-0.029-0.038,0.767-0.717,0.807-0.907,0.106-0.497,0.016-1.053,0.016-1.563,0-0.926,0.321-2.906-0.179-3.706-0.432-0.693-1.215-0.085-1.601,0.318-0.601,0.628-0.387,1.466-0.329,2.266,0.054,0.741-0.091,1.479-0.047,2.221,0.054,0.903,0.702,0.723,0.914,1.363-0.029-0.088-3.87,0.1-3.817-0.009,0.23-0.473,0.739-0.473,0.781-1.069,0.033-0.458-0.003-0.936-0.003-1.396,0-0.979,0.054-1.976,0.008-2.954-0.037-0.803-0.592-1.328-1.341-0.832-0.814,0.539-0.854,1.37-0.792,2.267,0.066,0.965-0.025,1.933,0.057,2.896,0.016,0.194,0.702,1.045,0.69,1.063-0.187,0.281-2.114,0.074-2.388,0.074-0.278,0-0.665,0.071-0.937,0-0.894,0,0.332-0.497,0.405-0.982,0.24-1.603,0.257-3.749-0.003-5.349-0.056-0.343-0.98-0.907-0.674-0.974,0.872-0.192,1.994,0.001,2.889,0.001z"/>
		<path d="M39.368,74.699c-0.719,0.634-1.727,1.382-2.753,1.139-0.969-0.229-1.322-1.334-0.923-2.18,0.677-1.436,2.413-1.537,3.534-2.426,0.357-0.283,0.227-1.424,0.076-1.8-0.238-0.595-1.158-0.642-1.672-0.43-0.864,0.357,0.846,1.933-0.481,2.242-0.777,0.181-1.681-0.506-1.401-1.336,0.516-1.531,2.793-1.939,4.144-1.547,1.968,0.57,1.705,2.542,1.649,4.186-0.019,0.559-0.036,1.13,0.047,1.685,0.154,1.034,0.492,0.15,0.809,0.44,0.201,0.183-0.808,1.03-0.964,1.089-0.879,0.338-1.933-0.052-2.065-1.062zm0-0.57v-2.445c-0.73,0.428-1.711,1.083-1.711,2.039,0,1.032,1.133,0.896,1.711,0.406z"/>
	</g>
	<g>
		<path d="M-94.78,108.044c0.029,1.177,0.057,2.354,0.086,3.531-0.54,0.141-0.56-0.906-0.712-1.198-0.351-0.674-0.958-1.286-1.679-1.555-0.894-0.333-2.427-0.238-2.658,0.916-0.282,1.406,1.503,2.042,2.483,2.526,1.466,0.725,3.174,1.658,3.265,3.51,0.069,1.397-1.014,2.525-2.236,3.025-0.65,0.266-1.37,0.379-2.069,0.291-0.74-0.093-1.802-0.967-2.468-0.391-1.143,0.989-0.698-0.473-0.698-1.304,0.013-0.372-0.255-2.101,0.031-2.317,0.022-0.017,1.191,2.21,1.315,2.35,0.827,0.93,2.324,1.575,3.493,0.888,2.701-1.586-1.668-3.635-2.753-4.329-1.813-1.16-3.07-3.16-1.201-5.002,0.881-0.868,2.22-1.119,3.396-0.815,0.523,0.133,1.156,0.678,1.71,0.596,0.404-0.059,0.268-0.694,0.695-0.722z"/>
		<path d="M-89.999,111.576v4.018,1.611c0,0.352-0.064,0.783,0.144,1.096,0.052,0.078,0.802,0.504,0.751,0.546-0.327,0.274-1.664,0.034-2.047,0.034-0.09,0-1.944-0.03-1.903-0.114,0.163-0.332,0.67-0.24,0.811-0.676,0.105-0.327,0.057-0.687,0.057-1.024v-1.941c0-0.503,0.001-1.006,0-1.51,0-0.359,0.137-1.133-0.164-1.405-0.071-0.064-0.793-0.505-0.721-0.604,0.222-0.306,2.648-0.031,3.072-0.031zm1.242-3.649c-0.857,0.898-1.803,2.78-3.258,2.711,0.227-0.68,0.46-2.67,1.288-2.759,0.658-0.071,1.313,0.048,1.97,0.048z"/>
		<path d="M-85.428,111.576v0.945c1.548-1.678,3.947-1.441,4.135,1.078,0.088,1.177-0.06,2.36-0.078,3.537-0.005,0.318-0.054,1.05,0.278,1.244,0.062,0.036,0.698,0.377,0.601,0.473-0.269,0.265-1.52,0.021-1.941,0.042-0.514,0.026-1.086,0.095-1.593-0.025-0.49-0.117,0.458-0.621,0.505-0.916,0.234-1.44,0.196-3.397-0.014-4.843-0.188-1.29-1.893-0.487-1.893,0.483,0,0.756-0.421,4.219,0.211,4.751,0.118,0.099,0.834,0.404,0.316,0.527-0.507,0.121-1.079,0.051-1.593,0.025-0.246-0.012-1.951-0.047-1.93-0.106,0.068-0.187,0.428-0.313,0.581-0.413,0.362-0.236,0.287-0.939,0.274-1.302-0.023-0.62-0.047-1.231-0.047-1.851v-1.941c0-0.316,0.115-0.998-0.221-1.197-0.059-0.035-0.707-0.39-0.591-0.481,0.494-0.386,2.362-0.022,3-0.03z"/>
		<path d="M-76.608,108.904c0,1.054-0.616,2.762,0.923,2.627,0.713-0.063,1.209,0.797,0.407,0.873-0.824,0.078-1.331-0.383-1.331,0.638v2.426c0,0.449-0.043,0.921,0,1.368,0,1.153,0.875,1.541,1.5,0.474,0.656,0.259-0.492,1.213-0.728,1.376-0.676,0.47-1.699,0.371-2.324-0.136-1.247-1.01-0.635-3.36-0.635-4.78,0-0.188,0.136-1.383-0.163-1.441-0.598-0.117-1.078,0.039-0.364-0.614,0.408-0.373,0.883-0.657,1.21-1.109,0.229-0.316,1.011-1.816,1.505-1.702z"/>
		<path d="M-70.718,111.357c4.555,0,4.568,7.742,0.023,7.742-4.528,0-4.514-7.742-0.023-7.742zm0.032,0.554c-1.405,0-1.162,2.372-1.147,3.263,0.015,0.887-0.282,2.912,0.77,3.347,1.673,0.692,1.456-2.339,1.492-3.142,0.041-0.918,0.362-3.467-1.115-3.468z"/>
		<path d="M-63.132,111.576v0.961c1.136-1.239,3.405-1.787,4.148,0.148,0.803-0.904,2.505-1.921,3.636-0.983,1.457,1.207,0.661,4.138,0.758,5.761,0.023,0.379,0.013,0.647,0.318,0.884,0.109,0.085,0.63,0.317,0.483,0.533-0.117,0.174-0.887,0-1.109,0-0.405,0-2.455,0.279-2.69-0.032-0.029-0.038,0.767-0.717,0.807-0.907,0.106-0.497,0.016-1.053,0.016-1.563,0-0.926,0.321-2.906-0.179-3.706-0.432-0.693-1.215-0.085-1.601,0.318-0.601,0.628-0.387,1.466-0.329,2.266,0.054,0.741-0.091,1.479-0.047,2.221,0.054,0.903,0.702,0.723,0.914,1.363-0.029-0.088-3.87,0.1-3.817-0.009,0.23-0.473,0.739-0.473,0.781-1.069,0.033-0.458-0.003-0.936-0.003-1.396,0-0.979,0.054-1.976,0.008-2.954-0.037-0.803-0.592-1.328-1.341-0.832-0.814,0.539-0.854,1.37-0.792,2.267,0.066,0.965-0.025,1.933,0.057,2.896,0.016,0.194,0.702,1.045,0.69,1.063-0.187,0.281-2.114,0.074-2.388,0.074-0.278,0-0.665,0.071-0.937,0-0.894,0,0.332-0.496,0.405-0.982,0.129-0.864,0.053-1.803,0.054-2.675,0.001-0.848,0.22-2.126-0.127-2.925-0.088-0.204-1.234-0.77-0.416-0.733,0.897,0.042,1.803,0.011,2.701,0.011z"/>
		<path d="M-48.788,117.802c-0.719,0.634-1.727,1.382-2.753,1.139-0.969-0.229-1.322-1.334-0.923-2.18,0.677-1.436,2.413-1.537,3.534-2.426,0.357-0.283,0.227-1.424,0.076-1.8-0.238-0.595-1.158-0.642-1.672-0.43-0.864,0.357,0.846,1.933-0.481,2.243-0.777,0.181-1.681-0.506-1.401-1.336,0.516-1.531,2.793-1.939,4.144-1.547,1.968,0.57,1.705,2.542,1.649,4.186-0.019,0.559-0.036,1.13,0.047,1.685,0.154,1.034,0.492,0.15,0.809,0.44,0.201,0.183-0.808,1.03-0.964,1.089-0.88,0.337-1.932-0.053-2.065-1.063zm0-0.57v-2.445c-0.73,0.428-1.711,1.083-1.711,2.039,0,1.032,1.133,0.896,1.711,0.406z"/>
	</g>
	<g>
		<path d="M75.769,110.809c0,1.321-0.153,2.674,0.02,3.989,0.098,0.745,1.241,0.296,1.658,0.014,0.339-0.229,0.881-1.925,1.068-1.925,0.23,0,0.25,5.32,0,5.32-0.168,0-0.668-1.654-0.822-1.859-0.221-0.296-1.926-1.103-1.958-0.462-0.06,1.168-0.013,2.402,0.044,3.571,0.058,1.172,1.402,0.664,1.549,1.294-0.006-0.024-2.643,0.044-2.956,0.044h-2.028c-0.109,0-0.541,0.065-0.624-0.075-0.14-0.238,0.873-0.29,1.023-0.371,0.918-0.491,0.514-2.713,0.507-3.548-0.01-1.063-0.027-2.125-0.027-3.187,0-0.619-0.007-1.238,0.008-1.856,0.012-0.481-0.027-0.92-0.526-1.079-0.213-0.068-0.91-0.157-1.009-0.398,0.013,0.033,3.377-0.08,3.671-0.08h4.193c0.515,0,1.222-0.18,1.135,0.55-0.093,0.784,0.227,1.639,0.019,2.407-0.128,0.474-0.866-1.439-1.008-1.584-1.007-1.018-2.65-0.765-3.937-0.765z"/>
		<path d="M85.136,113.27c4.555,0,4.568,7.742,0.023,7.742-4.528,0-4.514-7.742-0.023-7.742zm0.031,0.555c-1.405,0-1.162,2.372-1.147,3.263,0.015,0.887-0.282,2.912,0.77,3.347,1.674,0.692,1.455-2.34,1.492-3.142,0.042-0.918,0.363-3.468-1.115-3.468z"/>
		<path d="M92.519,110.2v4.023c1.114-1.152,2.982-1.246,4.035,0.04,1.154,1.409,1.054,3.668,0.112,5.155-0.88,1.389-2.718,2.045-4.219,1.241-0.824-0.441-0.655-0.432-1.433,0.096-0.195,0.133-0.659,0.459-0.659,0.016v-5.804-2.2c0-0.473,0.011-0.948-0.006-1.42-0.023-0.588-0.898-0.673-0.861-1.148,1.01,0.001,2.021,0.001,3.031,0.001zm0,4.718c0,0.801-0.481,7.076,1.82,5.343,0.922-0.694,0.764-2.415,0.72-3.421-0.064-1.444-0.977-3.841-2.54-1.922z"/>
		<path d="M100.355,109.95c1.564,0,1.565,2.414,0,2.414-1.558,0-1.554-2.414,0-2.414zm1.094,3.539v4.018,1.611c0,0.352-0.064,0.783,0.144,1.096,0.052,0.078,0.802,0.504,0.751,0.546-0.327,0.274-1.664,0.034-2.047,0.034-0.09,0-1.944-0.03-1.903-0.114,0.163-0.332,0.67-0.24,0.811-0.676,0.105-0.327,0.057-0.687,0.057-1.024v-1.941c0-0.503,0.001-1.006,0-1.51,0-0.359,0.137-1.133-0.164-1.405-0.071-0.064-0.793-0.505-0.721-0.604,0.222-0.306,2.648-0.031,3.072-0.031z"/>
		<path d="M107.066,119.715c-0.769,0.679-1.996,1.569-3.068,1.024-1.081-0.549-0.899-1.946-0.157-2.69,0.986-0.988,3.183-1.097,3.257-2.618,0.041-0.835-0.147-1.463-1.066-1.509-1.089-0.056-0.965,0.411-0.718,1.195,0.349,1.111-0.843,1.507-1.598,0.835-1.338-1.192,1.243-2.514,2.151-2.659,2.585-0.414,3.52,1.284,3.404,3.586-0.019,0.372-0.078,3.525,0.573,2.906,0.243-0.231,0.443-0.053,0.271,0.229-0.204,0.334-0.626,0.565-0.968,0.729-0.856,0.409-1.974-0.018-2.081-1.028zm0-0.57v-2.445c-0.73,0.428-1.711,1.083-1.711,2.039,0,1.032,1.133,0.896,1.711,0.406z"/>
	</g>
</g>
<g>
	<path d="M95.325,194.292h-2.269c-0.964,0-1.359-0.263-1.743,0.625-0.531,1.229-0.523,1.986,1.004,2.101,0.257,0.494-1.889,0.289-2.175,0.289h-1.239c-0.537,0,0.513-0.506,0.561-0.537,0.733-0.483,1.028-1.497,1.376-2.273,0.822-1.835,1.645-3.67,2.467-5.505,0.154-0.343,1.059-2.973,1.371-2.264,0.769,1.749,1.538,3.498,2.308,5.247,0.633,1.44,1.183,3.338,2.16,4.596,0.224,0.289,0.537,0.417,0.898,0.446,0.01,0.029,0.013,0.289-0.019,0.289h-0.782-3.308-0.997c-0.028,0-0.033-0.264-0.019-0.289,0.037-0.066,0.752-0.04,0.871-0.076,0.9-0.276-0.246-2.134-0.465-2.649zm-0.266-0.578c-0.526-1.216-1.052-2.432-1.578-3.648-0.542,1.216-1.083,2.432-1.625,3.648h3.203z"/>
	<path d="M107.825,190.003v5.701c0,0.669-0.007,1.231,0.789,1.322,0.203,0.474-0.708,0.281-0.942,0.281h-1.907c-0.273,0-0.128-0.74-0.128-0.977-0.704,0.841-1.867,1.562-2.981,1.027-1.133-0.544-1.144-1.785-1.144-2.871-0.014-1.089,0.052-2.186-0.01-3.273-0.018-0.326-0.03-0.679-0.378-0.824,0.299,0.125-0.85-0.387-0.368-0.387h2.001c0.282,0,0.942-0.181,0.942,0.171v1.911c0,1.213-0.112,2.497,0.033,3.706,0.144,1.2,1.905,0.497,1.905-0.321v-1.788c0-0.897,0.426-3.233-0.789-3.389-0.204-0.47,2.53-0.289,2.977-0.289z"/>
	<path d="M112.707,190.003v0.961c1.145-1.249,3.377-1.861,4.148,0.148,0.969-1.09,3.106-2.164,4.083-0.434,0.503,0.891,0.323,2.15,0.323,3.147,0,0.838-0.083,1.738,0.038,2.572,0.067,0.46,0.944,0.624,0.751,0.91-0.056,0.083-0.88,0-0.978,0h-2.699c-0.481,0,0.523-0.572,0.56-0.625,0.244-0.366,0.141-0.976,0.141-1.409v-2.67c0-0.451,0.077-1.096-0.179-1.505-0.537-0.861-1.582,0.226-1.915,0.692-0.211,0.575,0,1.62,0,2.228,0,0.629-0.227,2.135,0.133,2.686,0.041,0.065,0.96,0.602,0.663,0.602h-0.955-2.776c-0.225,0,0.655-0.649,0.69-0.762,0.105-0.342,0.059-0.735,0.059-1.091v-2.85c0-0.443,0.084-1.099-0.183-1.496-0.464-0.693-1.268-0.101-1.632,0.331-0.533,0.631-0.271,1.793-0.271,2.58v1.671c0,0.386-0.05,1.038,0.388,1.239-0.086-0.04,0.794,0.378,0.305,0.378s-3.453,0.323-3.67,0c-0.241-0.361,0.498-0.375,0.656-0.578,0.187-0.242,0.133-0.766,0.133-1.038v-1.905-2.109c0-0.321,0.013-0.668-0.086-0.979-0.143-0.451-0.836-0.178-0.703-0.695,0.992,0.001,1.984,0.001,2.976,0.001z"/>
	<path d="M129.207,193.393h-4.008c0.049,1.007,0.379,2.289,1.367,2.783,0.491,0.245,1.1,0.212,1.555-0.1,0.215-0.147,0.904-1.288,1.086-0.77-1.016,2.072-3.887,3.288-5.438,0.969-1.302-1.953-0.796-5.371,1.557-6.293,2.373-0.93,3.816,1.337,3.881,3.411zm-1.921-0.523c0-0.751,0.088-1.893-0.563-2.438-0.804-0.689-1.387,0.721-1.489,1.278-0.152,0.828-0.312,1.16,0.477,1.16h1.575z"/>
	<path d="M133.098,190.003v0.945c0.987-1.07,2.996-1.878,3.853-0.158,0.434,0.87,0.264,2.028,0.264,2.98,0,0.773-0.033,1.554,0.01,2.326,0.046,0.832,1.444,1.212,0.202,1.212h-2.734c-0.24,0-0.507,0.076-0.384-0.281,0.734-0.097,0.719-0.758,0.719-1.341,0-0.885,0.478-4.114-0.309-4.717-0.859-0.659-1.621,0.689-1.621,1.392v2.982c0,0.283-0.006,0.57,0.017,0.852,0.034,0.416,0.802,0.993,0.702,1.114-0.195,0.234-2.076,0-2.395,0-0.434,0-2.025,0.127-0.906-0.379,0.621-0.281,0.395-1.547,0.395-2.129v-2.88c0-0.334,0.011-0.672-0.038-1.003-0.085-0.573-0.872-0.443-0.751-0.914,0.992-0.001,1.984-0.001,2.976-0.001z"/>
	<path d="M141.918,187.331c0,0.674-0.387,2.672,0.375,2.672,0.44,0,1.36-0.25,1.36,0.272,0,0.813-0.625,0.501-1.36,0.501-0.527,0-0.375,0.144-0.375,0.654v2.267,1.566c0,1.196,0.797,1.675,1.5,0.474,0.653,0.258-0.538,1.298-0.865,1.461-0.905,0.452-2.111,0.178-2.617-0.731-0.478-0.859-0.205-2.477-0.205-3.45v-1.897c0-0.511-0.2-0.344-0.706-0.344-0.826,0,0.923-1.213,1.14-1.431,0.353-0.353,1.353-2.107,1.753-2.014z"/>
	<path d="M148.395,196.229c-0.654,0.577-1.484,1.18-2.398,1.18-0.996,0-1.622-0.901-1.408-1.845,0.181-0.799,0.86-1.302,1.52-1.701,0.373-0.225,2.287-0.979,2.287-1.287,0-0.549,0.173-1.43-0.22-1.864-0.408-0.45-2.181-0.384-1.757,0.404,1.474,2.737-3.06,1.77-1.281-0.273,1.089-1.251,3.7-1.521,4.899-0.315,0.841,0.846,0.538,2.473,0.538,3.58,0,0.361-0.122,3.207,0.75,2.012,0.687,0.334-0.807,1.194-1.182,1.26-0.847,0.15-1.651-0.239-1.748-1.151zm0-0.57v-2.445c-0.707,0.415-1.711,1.112-1.711,2.039,0,1.099,1.145,0.886,1.711,0.406z"/>
</g>
</svg>

