<?xml version="1.0" encoding="UTF-8" standalone="no"?>

<svg xmlns:rdf="http://www.w3.org/1999/02/22-rdf-syntax-ns#" 
xmlns="http://www.w3.org/2000/svg" 
enable-background="new 0 0 286.335 261.357" 
xml:space="preserve" 
height="261.357px" 
viewBox="0 0 286.335 261.357" 
width="286.335px" 
version="1.1" 
y="0px" 
x="0px" 
>

<metadata>
</metadata>

<path stroke-linejoin="round" d="M256.798,131.565c0,31.46-13.569,62.055-36.67,83.362-23.156,21.358-54.432,32.494-85.872,30.793-31.24-1.69-60.952-16.018-81.594-39.546-21.056-23.999-31.157-56.498-27.335-88.211,3.672-30.469,20.173-58.652,44.636-77.107,25.244-19.044,57.639-27.063,88.869-22.208,30.587,4.755,58.471,21.732,76.601,46.839,13.823,19.145,21.362,42.46,21.365,66.078z" stroke="#000000" stroke-width="3.4378" fill="none"/>
<path d="M19.742,125.034h38.044,33.032,37.596,45.333,32.04,37.473,11.674,1.967c0.815,0,1.722-0.119,2.529,0.02,0.553,0.095,0.249,1.184,0.249,1.651v11.075c0,0.31,0.16,1.157-0.184,1.201-0.323,0.041-0.69,0.007-1.017,0.007h-4.439-39.46-32.319-41.431-41.909-32.236-39.233-6.658c-0.288,0-0.688,0.086-0.942-0.065-0.478-0.286-0.109-2.942-0.109-3.417v-10.472z" fill="#FFFFFF"/>
<g transform="translate(0.05399446,15.751484)">
	<path d="M3.914,114.618c0,1.012-0.191,2.013-0.119,3.028,0.027,0.386,0.07,0.906,0.371,1.192,0.174,0.166,1.217,0.202,1.217,0.433,0,0.294-2.968,0.145-3.438,0.145-0.339,0-1.734,0.229-1.972-0.075-0.174-0.223,0.954-0.304,1.124-0.41,0.594-0.369,0.462-1.64,0.46-2.231-0.007-1.54-0.079-3.058-0.023-4.599,0.028-0.783,0.035-1.58-0.125-2.351-0.118-0.568-1.446-0.592-1.43-0.856,0.026-0.408,6.681,0.12,6.961,0.222,1.541,0.555,2.407,2.208,1.669,3.746-0.845,1.758-3.023,1.756-4.695,1.756zm0-5.187v2.113c0,0.387-0.26,2.092,0,2.382,0,0.35,1.108-0.031,1.245-0.079,0.758-0.266,1.056-1.016,1.116-1.77,0.127-1.599-0.714-2.68-2.361-2.646z"/>
	<path d="M12.945,112.11v1.656c0.516-0.806,2.474-3.056,3.238-1.198,0.213,0.519-0.039,1.357-0.663,1.466-0.558,0.097-0.884-0.596-1.418-0.614-1.242-0.041-1.13,2.243-1.181,3.009-0.038,0.582-0.078,1.18,0.017,1.759,0.039,0.238,0.103,0.497,0.257,0.691,0.105,0.133,0.755,0.308,0.74,0.391-0.057,0.322-2.291,0.145-2.534,0.145h-1.291c-0.464,0,0.049-0.302,0.158-0.338,0.481-0.158,0.486-0.695,0.518-1.114,0.09-1.163-0.024-2.332-0.009-3.496,0.009-0.718,0.23-1.763-0.606-2.025-0.78-0.244,0.348-0.476,0.594-0.476,0.729,0,1.452,0.144,2.18,0.144z"/>
	<path d="M23.195,115.501h-4.008c0.054,1.115,0.473,2.66,1.753,2.915,0.542,0.108,1.06-0.066,1.404-0.487,0.115-0.141,0.512-0.759,0.761-0.636,0.591,0.292-1.8,2.036-2.119,2.155-1.081,0.402-2.232,0.146-2.987-0.742-1.421-1.673-1.253-4.655,0.439-6.087,2.336-1.978,4.67,0.398,4.757,2.882zm-1.922-0.524c0-0.788,0.116-1.868-0.563-2.438-0.725-0.621-1.274,0.499-1.438,1.065-0.171,0.591-0.428,1.373,0.426,1.373,0.453,0.126,1.102,0,1.575,0z"/>
	<path d="M28.719,111.907c0.039,0.831,0.078,1.661,0.117,2.492-0.511,0.119-0.926-1.255-1.254-1.516-0.377-0.3-1.582-0.503-1.83,0.077-0.409,0.958,2.849,2.553,3.275,3.374,0.388,0.747,0.194,1.705-0.292,2.361-0.819,1.104-2.139,1.046-3.305,0.609-0.574-0.21-0.939,0.789-1.057-0.211-0.083-0.701-0.041-1.406-0.076-2.109,0.621-0.151,1.339,2.061,2.184,2.175,0.582,0.079,1.234-0.553,1.037-1.139-0.226-0.673-0.995-1.146-1.549-1.522-1.215-0.825-2.445-2.214-1.373-3.732,0.589-0.835,1.721-1.055,2.654-0.74,0.87,0.295,0.717-0.032,1.469-0.119z"/>
	<path d="M32.078,108.571c1.564,0,1.565,2.414,0,2.414-1.557,0-1.554-2.414,0-2.414zm1.094,3.539v4.018,1.611c0,0.352-0.064,0.783,0.144,1.096,0.052,0.078,0.802,0.504,0.751,0.546-0.327,0.274-1.664,0.034-2.047,0.034-0.09,0-1.944-0.03-1.903-0.114,0.163-0.332,0.67-0.24,0.811-0.676,0.105-0.327,0.057-0.687,0.057-1.024v-1.941c0-0.503,0.001-1.006,0-1.51,0-0.359,0.137-1.133-0.164-1.405-0.071-0.064-0.793-0.505-0.721-0.604,0.222-0.306,2.648-0.031,3.072-0.031z"/>
	<path d="M38.203,111.892c4.555,0,4.568,7.742,0.023,7.742-4.528,0-4.514-7.742-0.023-7.742zm0.031,0.554c-1.405,0-1.162,2.372-1.147,3.263,0.015,0.887-0.282,2.912,0.77,3.347,1.673,0.692,1.456-2.339,1.492-3.142,0.041-0.918,0.363-3.468-1.115-3.468zm2.368-3.984c-0.857,0.898-1.803,2.78-3.258,2.711,0.227-0.679,0.46-2.67,1.288-2.759,0.658-0.071,1.313,0.048,1.97,0.048z"/>
	<path d="M45.742,112.11v0.945c1.548-1.678,3.947-1.441,4.135,1.078,0.088,1.177-0.06,2.36-0.078,3.537-0.005,0.318-0.054,1.05,0.278,1.244,0.062,0.036,0.698,0.377,0.601,0.473-0.269,0.265-1.52,0.021-1.941,0.042-0.514,0.026-1.086,0.095-1.593-0.025-0.49-0.117,0.458-0.621,0.505-0.916,0.234-1.44,0.196-3.397-0.014-4.843-0.188-1.29-1.893-0.487-1.893,0.483,0,0.756-0.421,4.219,0.211,4.751,0.118,0.099,0.834,0.404,0.316,0.527-0.507,0.121-1.079,0.051-1.593,0.025-0.247-0.012-1.951-0.047-1.93-0.106,0.068-0.187,0.428-0.313,0.581-0.413,0.362-0.236,0.287-0.939,0.273-1.302-0.023-0.62-0.047-1.231-0.047-1.851v-1.941c0-0.316,0.115-0.998-0.221-1.197-0.059-0.035-0.707-0.39-0.591-0.481,0.495-0.386,2.363-0.022,3.001-0.03z"/>
</g>
<path stroke="#000000" stroke-width="1.4" d="M256.941,126.577c-0.793-1.386-1.587-2.772-2.38-4.159,1.477-0.137,2.953-0.275,4.43-0.412-0.683,1.524-1.366,3.048-2.05,4.571z"/>
<path stroke="#000000" stroke-width="1.4" d="M24.654,137.696c0.793,1.386,1.587,2.772,2.38,4.159-1.477,0.137-2.953,0.275-4.43,0.412,0.683-1.523,1.367-3.047,2.05-4.571z"/>
<g transform="translate(0.05399446,15.751484)">
	<path d="M197.835,110.38c0,0.374,0.146,3.718-0.035,3.751-0.273,0.05-0.911-1.589-0.995-1.701-0.773-1.034-2.139-1.558-3.402-1.267-2.115,0.488-2.839,2.748-2.823,4.679,0.014,1.733,0.436,4.091,2.34,4.686,1.705,0.533,3.637-0.474,4.736-1.75,0,2.481-3.564,2.911-5.416,2.567-2.255-0.418-4.086-2.18-4.4-4.481-0.338-2.47,1.087-4.927,3.337-5.962,1.348-0.62,2.872-0.648,4.279-0.21,0.46,0.143,1.428,0.776,1.848,0.252,0.229-0.286,0.114-0.485,0.531-0.564z"/>
	<path d="M202.702,113.692c4.555,0,4.568,7.742,0.023,7.742-4.528,0-4.514-7.742-0.023-7.742zm0.031,0.555c-1.775,0-1.472,5.708-0.467,6.604,1.426,1.272,1.597-2.634,1.586-3.15-0.02-0.902,0.369-3.495-1.119-3.454z"/>
	<path d="M210.241,113.911v0.945c1.548-1.678,3.947-1.441,4.135,1.078,0.088,1.177-0.06,2.361-0.078,3.537-0.005,0.318-0.054,1.049,0.278,1.244,0.062,0.036,0.698,0.377,0.601,0.473-0.269,0.265-1.52,0.021-1.941,0.042-0.514,0.026-1.086,0.095-1.593-0.025-0.49-0.117,0.458-0.621,0.505-0.916,0.234-1.44,0.196-3.397-0.014-4.843-0.188-1.29-1.893-0.487-1.893,0.483,0,0.756-0.421,4.219,0.211,4.751,0.118,0.099,0.834,0.404,0.316,0.527-0.507,0.121-1.079,0.051-1.593,0.025-0.247-0.012-1.951-0.047-1.93-0.106,0.068-0.187,0.428-0.313,0.581-0.413,0.362-0.236,0.287-0.939,0.273-1.302-0.023-0.62-0.047-1.231-0.047-1.851v-1.941c0-0.316,0.115-0.998-0.221-1.197-0.059-0.035-0.707-0.39-0.591-0.481,0.495-0.386,2.363-0.022,3.001-0.03z"/>
	<path d="M219.061,111.239c0,1.054-0.616,2.762,0.923,2.627,0.713-0.063,1.209,0.797,0.407,0.873-0.824,0.078-1.331-0.383-1.331,0.638v2.426c0,0.449-0.043,0.921,0,1.368,0,1.153,0.875,1.541,1.5,0.474,0.656,0.259-0.492,1.213-0.728,1.376-0.676,0.47-1.699,0.371-2.324-0.136-1.247-1.01-0.635-3.36-0.635-4.78,0-0.188,0.136-1.383-0.163-1.441-0.598-0.117-1.078,0.039-0.364-0.614,0.408-0.373,0.883-0.657,1.21-1.109,0.23-0.315,1.012-1.815,1.505-1.702z"/>
	<path d="M224.538,113.911v1.656c0.496-0.773,2.069-2.804,3.082-1.483,0.769,1.003-0.141,1.845-1.111,1.502-1.307-0.463-1.763,0.179-1.931,1.523-0.122,0.977-0.593,3.744,0.921,3.825,0.045,0.755-3.88-0.006-3.943,0.166,0.105-0.291,0.601-0.265,0.733-0.622,0.126-0.343,0.077-0.72,0.077-1.076,0.005-0.535,0-1.069,0-1.604v-1.575c0-0.427,0.112-1.037-0.081-1.44-0.148-0.309-0.769-0.496-0.732-0.873,0.995,0.001,1.99,0.001,2.985,0.001z"/>
	<path d="M232.632,120.137c-0.769,0.679-1.995,1.569-3.068,1.024-1.081-0.549-0.899-1.946-0.157-2.69,0.986-0.988,3.183-1.097,3.257-2.618,0.041-0.835-0.147-1.463-1.066-1.509-1.089-0.056-0.965,0.411-0.718,1.195,0.374,1.19-1.022,1.53-1.705,0.725-1.164-1.371,1.679-2.519,2.609-2.592,2.717-0.212,3.122,1.776,3.036,3.997-0.017,0.445-0.058,3.456,0.742,2.358,0.687,0.334-0.784,1.122-1.039,1.218-0.823,0.308-1.808-0.212-1.891-1.108zm0-0.57v-2.445c-0.73,0.428-1.711,1.083-1.711,2.039,0,1.033,1.132,0.897,1.711,0.406z"/>
	<path d="M239.429,120.473c0,1.004-0.035,2.005,0.002,3.009,0.034,0.905,0.529,0.623,1.094,0.919,0.457,0.24-1.068,0.237-1.156,0.237-0.571,0-1.145,0.092-1.716,0.118-0.127,0.006-1.501,0.12-1.336-0.291,0.076-0.189,0.45-0.24,0.608-0.301,0.389-0.15,0.316-0.699,0.316-1.032,0.045-0.623,0-1.277,0-1.902v-5.732c0-0.982-0.197-0.83-0.805-1.302-0.454-0.352,1.015-0.288,1.111-0.288h1.575c0.524,0,0.306,0.589,0.306,0.961,0.783-1.151,2.29-1.555,3.45-0.702,1.059,0.779,1.401,2.206,1.385,3.455-0.029,2.421-2.698,5.408-4.834,2.851zm0-0.789c2.651,3.761,3.81-5.039,1.297-5.039-1.973,0-1.297,3.878-1.297,5.039z"/>
	<path d="M248.538,113.911v1.656c0.496-0.773,2.069-2.804,3.082-1.483,0.769,1.003-0.141,1.845-1.111,1.502-1.307-0.463-1.763,0.179-1.931,1.523-0.122,0.977-0.593,3.744,0.921,3.825,0.045,0.755-3.88-0.006-3.943,0.166,0.105-0.291,0.601-0.265,0.733-0.622,0.126-0.343,0.077-0.72,0.077-1.076,0.005-0.535,0-1.069,0-1.604v-1.575c0-0.427,0.112-1.037-0.081-1.44-0.148-0.309-0.769-0.496-0.732-0.873,0.995,0.001,1.99,0.001,2.985,0.001z"/>
	<path d="M258.788,117.302h-4.008c0.054,1.115,0.473,2.66,1.753,2.915,0.542,0.108,1.06-0.066,1.404-0.487,0.115-0.141,0.512-0.759,0.761-0.636,0.591,0.292-1.8,2.036-2.119,2.155-1.081,0.402-2.232,0.146-2.987-0.742-1.421-1.673-1.253-4.655,0.439-6.087,2.336-1.978,4.67,0.398,4.757,2.882zm-1.922-0.524c0-0.788,0.116-1.868-0.563-2.438-0.725-0.621-1.274,0.499-1.438,1.065-0.171,0.591-0.428,1.373,0.426,1.373,0.453,0.126,1.102,0,1.575,0z"/>
	<path d="M264.311,113.708c0.039,0.831,0.078,1.661,0.117,2.492-0.511,0.119-0.926-1.255-1.254-1.516-0.377-0.3-1.582-0.503-1.83,0.077-0.409,0.958,2.849,2.553,3.275,3.374,0.388,0.747,0.194,1.705-0.292,2.361-0.819,1.104-2.139,1.046-3.305,0.609-0.574-0.21-0.939,0.789-1.057-0.211-0.083-0.701-0.041-1.406-0.076-2.109,0.62-0.152,1.34,2.061,2.184,2.175,0.582,0.079,1.234-0.553,1.037-1.139-0.226-0.673-0.996-1.146-1.549-1.522-1.215-0.825-2.445-2.214-1.373-3.732,0.589-0.835,1.721-1.055,2.654-0.74,0.869,0.295,0.718-0.032,1.469-0.119z"/>
	<path d="M267.671,110.372c1.564,0,1.565,2.414,0,2.414-1.558,0-1.554-2.414,0-2.414zm1.094,3.539v4.018,1.611c0,0.352-0.064,0.783,0.144,1.096,0.052,0.078,0.802,0.504,0.751,0.546-0.327,0.274-1.664,0.034-2.047,0.034-0.09,0-1.944-0.03-1.903-0.114,0.163-0.332,0.67-0.24,0.811-0.676,0.105-0.327,0.057-0.687,0.057-1.024v-1.941c0-0.503,0.001-1.006,0-1.51,0-0.359,0.137-1.133-0.164-1.405-0.071-0.064-0.793-0.505-0.721-0.604,0.222-0.306,2.648-0.031,3.072-0.031z"/>
	<path d="M273.796,113.692c4.555,0,4.568,7.742,0.023,7.742-4.529,0-4.515-7.742-0.023-7.742zm0.031,0.555c-1.775,0-1.472,5.708-0.467,6.604,1.426,1.272,1.597-2.634,1.586-3.15-0.02-0.915,0.371-3.477-1.119-3.454zm2.367-3.985c-0.857,0.898-1.803,2.78-3.258,2.711,0.227-0.68,0.46-2.669,1.288-2.759,0.658-0.071,1.313,0.048,1.97,0.048z"/>
	<path d="M281.335,113.911v0.945c1.548-1.678,3.947-1.441,4.135,1.078,0.088,1.177-0.06,2.361-0.078,3.537-0.005,0.318-0.054,1.049,0.278,1.244,0.062,0.036,0.698,0.377,0.601,0.473-0.269,0.265-1.52,0.021-1.941,0.042-0.514,0.026-1.086,0.095-1.593-0.025-0.49-0.117,0.458-0.621,0.505-0.916,0.234-1.44,0.196-3.397-0.014-4.843-0.188-1.29-1.893-0.487-1.893,0.483,0,0.756-0.421,4.219,0.211,4.751,0.118,0.099,0.834,0.404,0.316,0.527-0.507,0.121-1.079,0.051-1.593,0.025-0.246-0.012-1.951-0.047-1.93-0.106,0.068-0.187,0.428-0.313,0.581-0.413,0.362-0.236,0.287-0.939,0.274-1.302-0.023-0.62-0.047-1.231-0.047-1.851v-1.941c0-0.317,0.115-0.998-0.221-1.197-0.059-0.035-0.707-0.39-0.591-0.481,0.494-0.386,2.362-0.022,3-0.03z"/>
</g>
<g transform="translate(0.05399446,15.751484)">
	<path d="M125.106-15.744v2.265c0,0.988,0.172,2.231-0.631,0.655-0.755-1.482-2.279-2.488-3.977-2.283-2.016,0.243-2.722,2.196-2.91,3.961-0.165,1.55-0.112,3.686,0.982,4.929,0.496,0.563,1.222,0.868,1.959,0.945,0.393,0.041,2.038,0.059,2.038-0.462,0-0.865,0.11-1.82-0.038-2.677-0.094-0.545-0.736-0.652-1.192-0.652-0.302,0-0.143-0.289,0.148-0.289,0.583,0,4.863-0.154,4.863,0.145,0,0.182-0.983,0.281-1.172,0.707-0.143,0.303-0.07,0.738-0.07,1.071v1.515c0,0.689-1.099,0.78-1.678,0.927-3.304,0.84-7.7,0.065-8.576-3.803-0.838-3.699,2.083-6.959,5.77-6.959,1.09,0,1.965,0.29,2.978,0.643,0.904,0.313,0.968-0.774,1.506-0.638z"/>
	<path d="M133.231-8.822h-4.008c0.049,1.007,0.379,2.289,1.367,2.783,0.491,0.245,1.1,0.212,1.555-0.1,0.215-0.147,0.904-1.288,1.086-0.77-1.016,2.072-3.887,3.288-5.437,0.969-1.302-1.953-0.796-5.371,1.557-6.293,2.372-0.93,3.815,1.337,3.88,3.411zm-1.922-0.523c0-0.708,0.107-2.578-1-2.578-1.085,0-1.134,1.857-1.125,2.578h2.125z"/>
	<path d="M137.122-12.212v0.945c1.073-1.162,3.43-1.896,3.992,0.211,0.27,0.961,0.125,2.136,0.125,3.133,0,0.589-0.212,1.977,0.152,2.473,0.028,0.038,1.045,0.543,0.533,0.543h-1.468c-0.31,0-2.124,0.159-2.124-0.141,0-0.299,0.417-0.2,0.594-0.484,0.158-0.247,0.125-0.704,0.125-0.969,0.013-0.363,0-0.729,0-1.092,0-0.855,0.016-1.711-0.004-2.565-0.011-0.457-0.011-1.217-0.675-1.217-0.47,0-1.25,0.563-1.25,1.061v2.8,0.989c0,0.268,0.003,0.585,0.068,0.852,0.099,0.41,0.651,0.335,0.651,0.627,0,0.3-1.814,0.141-2.124,0.141h-1.347c-0.71,0,0.329-0.446,0.432-0.578,0.315-0.408,0.133-1.657,0.133-2.166v-2.887c0-0.323,0.057-0.84-0.152-1.119-0.036-0.048-1.073-0.555-0.509-0.555h2.815c0.011-0.002,0.022-0.002,0.033-0.002z"/>
	<path d="M149.231-8.822h-4.008c0.049,1.007,0.379,2.289,1.367,2.783,0.491,0.245,1.1,0.212,1.555-0.1,0.215-0.147,0.904-1.288,1.086-0.77-1.016,2.072-3.887,3.288-5.438,0.969-1.302-1.953-0.796-5.371,1.557-6.293,2.373-0.93,3.816,1.337,3.881,3.411zm-1.922-0.523c0-0.708,0.107-2.578-1-2.578-1.085,0-1.134,1.857-1.125,2.578h2.125z"/>
	<path d="M153.169-12.212v1.656c0.477-0.744,1.065-1.615,1.985-1.834,1.061-0.252,1.759,0.996,1.05,1.803-0.814,0.926-1.362-0.569-2.092-0.277-0.863,0.345-0.943,1.799-0.943,2.559-0.022,0.686-0.315,2.899,0.587,3.075,0.766,0.149,0.284,0.323-0.145,0.323h-1.986-1.349c-0.136,0-0.144-0.165-0.092-0.281,0.465-0.038,0.706-0.219,0.771-0.667,0.166-1.165,0.042-2.424,0.042-3.596,0-0.404,0.015-0.81,0-1.214,0-0.344,0.052-0.884-0.289-1.117-0.105-0.072-0.816-0.137-0.523-0.43,0.323-0.325,2.471,0,2.984,0z"/>
	<path d="M161.262-5.986c-0.654,0.577-1.484,1.18-2.398,1.18-0.996,0-1.622-0.901-1.408-1.845,0.181-0.799,0.86-1.302,1.52-1.701,0.373-0.225,2.287-0.979,2.287-1.287,0-0.549,0.173-1.43-0.22-1.864-0.408-0.45-2.181-0.384-1.757,0.404,1.474,2.737-3.06,1.771-1.281-0.273,1.089-1.251,3.7-1.521,4.899-0.315,0.841,0.846,0.538,2.473,0.538,3.58,0,0.361-0.122,3.207,0.75,2.012,0.687,0.334-0.807,1.194-1.182,1.26-0.847,0.149-1.65-0.239-1.748-1.151zm0-0.57v-2.445c-0.707,0.415-1.711,1.112-1.711,2.039,0,1.099,1.145,0.886,1.711,0.406z"/>
</g>
<g transform="translate(0.05399446,15.751484)">
	<path d="M118.384,242.371h-2.269c-0.964,0-1.359-0.263-1.743,0.625-0.531,1.229-0.523,1.986,1.004,2.101,0.257,0.494-1.889,0.289-2.175,0.289h-1.239c-0.537,0,0.513-0.506,0.561-0.537,0.733-0.483,1.028-1.497,1.376-2.273,0.822-1.835,1.645-3.67,2.467-5.505,0.154-0.343,1.059-2.973,1.371-2.264,0.769,1.749,1.538,3.498,2.308,5.247,0.633,1.44,1.183,3.338,2.16,4.596,0.224,0.289,0.537,0.417,0.898,0.446,0.01,0.029,0.013,0.289-0.019,0.289h-0.782-3.308-0.997c-0.028,0-0.033-0.264-0.019-0.289,0.037-0.066,0.752-0.04,0.871-0.076,0.9-0.276-0.246-2.134-0.465-2.649zm-0.266-0.578c-0.526-1.216-1.052-2.432-1.578-3.648-0.542,1.216-1.083,2.432-1.625,3.648h3.203z"/>
	<path d="M130.884,238.082v5.701c0,0.669-0.007,1.231,0.789,1.322,0.203,0.474-0.708,0.281-0.942,0.281h-1.907c-0.273,0-0.128-0.74-0.128-0.977-0.704,0.841-1.867,1.562-2.981,1.027-1.133-0.544-1.144-1.785-1.144-2.871-0.014-1.089,0.052-2.186-0.01-3.273-0.018-0.326-0.03-0.679-0.378-0.824,0.299,0.125-0.85-0.387-0.368-0.387h2.001c0.282,0,0.942-0.181,0.942,0.171v1.911c0,1.213-0.112,2.497,0.033,3.706,0.144,1.2,1.905,0.497,1.905-0.321v-1.788c0-0.897,0.426-3.233-0.789-3.389-0.204-0.47,2.53-0.289,2.977-0.289z"/>
	<path d="M135.767,238.082v0.961c1.145-1.249,3.377-1.861,4.148,0.148,0.969-1.09,3.106-2.164,4.083-0.434,0.503,0.891,0.323,2.15,0.323,3.147,0,0.838-0.083,1.738,0.038,2.572,0.067,0.46,0.944,0.624,0.751,0.91-0.056,0.083-0.88,0-0.978,0h-2.699c-0.481,0,0.523-0.572,0.56-0.625,0.244-0.366,0.141-0.976,0.141-1.409v-2.669c0-0.451,0.077-1.096-0.179-1.505-0.537-0.861-1.582,0.226-1.915,0.692-0.211,0.575,0,1.62,0,2.228,0,0.629-0.227,2.136,0.133,2.686,0.041,0.065,0.96,0.602,0.663,0.602h-0.955-2.776c-0.225,0,0.655-0.649,0.69-0.762,0.105-0.342,0.059-0.735,0.059-1.091v-2.85c0-0.443,0.084-1.099-0.183-1.496-0.464-0.693-1.268-0.101-1.632,0.331-0.533,0.631-0.271,1.793-0.271,2.58,0,0.711-0.043,1.441,0.017,2.151,0.077,0.907,1.511,1.137,0.026,1.137h-2.661c-0.221,0-0.495,0.063-0.358-0.281,0.802-0.081,0.789-0.661,0.789-1.313,0.034-1.369,0.039-2.756,0-4.125,0-0.672-0.003-1.195-0.789-1.297-0.168-0.386,0.24-0.289,0.465-0.289,0.835,0.001,1.673,0.001,2.51,0.001z"/>
	<path d="M152.267,241.473h-4.008c0.049,1.007,0.379,2.289,1.367,2.783,0.491,0.245,1.1,0.212,1.555-0.1,0.215-0.147,0.904-1.288,1.086-0.77-1.016,2.072-3.887,3.288-5.438,0.969-1.302-1.953-0.796-5.371,1.557-6.293,2.372-0.93,3.816,1.336,3.881,3.411zm-1.922-0.524c0-0.751,0.088-1.892-0.563-2.438-0.804-0.689-1.387,0.721-1.489,1.278-0.152,0.828-0.312,1.16,0.477,1.16h1.575z"/>
	<path d="M156.157,238.082v0.945c1.072-1.162,3.43-1.896,3.992,0.211,0.27,0.961,0.125,2.136,0.125,3.133,0,0.589-0.212,1.977,0.152,2.473,0.028,0.038,1.045,0.543,0.533,0.543h-1.468c-0.31,0-2.124,0.159-2.124-0.141,0-0.299,0.417-0.2,0.594-0.484,0.158-0.247,0.125-0.704,0.125-0.969,0.013-0.363,0-0.729,0-1.092,0-0.855,0.016-1.711-0.004-2.565-0.011-0.457-0.011-1.217-0.675-1.217-0.47,0-1.25,0.563-1.25,1.061v2.8,0.989c0,0.268,0.003,0.585,0.068,0.852,0.099,0.41,0.651,0.335,0.651,0.627,0,0.3-1.814,0.141-2.124,0.141h-1.347c-0.71,0,0.329-0.446,0.432-0.578,0.315-0.408,0.133-1.657,0.133-2.166v-2.887c0-0.323,0.057-0.84-0.152-1.119-0.036-0.048-1.073-0.555-0.509-0.555h2.815c0.011-0.002,0.022-0.002,0.033-0.002z"/>
	<path d="M164.978,235.41c0,0.674-0.387,2.672,0.375,2.672,0.44,0,1.36-0.25,1.36,0.272,0,0.813-0.625,0.501-1.36,0.501-0.527,0-0.375,0.144-0.375,0.654v2.267,1.566c0,1.196,0.797,1.674,1.5,0.474,0.653,0.258-0.538,1.298-0.865,1.461-0.905,0.452-2.111,0.178-2.617-0.731-0.478-0.859-0.205-2.477-0.205-3.45v-1.897c0-0.511-0.2-0.344-0.706-0.344-0.826,0,0.923-1.213,1.14-1.431,0.352-0.353,1.352-2.106,1.753-2.014z"/>
	<path d="M171.454,244.308c-0.654,0.577-1.485,1.18-2.398,1.18-0.996,0-1.622-0.901-1.408-1.845,0.181-0.799,0.86-1.302,1.52-1.701,0.373-0.225,2.287-0.979,2.287-1.287,0-0.549,0.173-1.43-0.22-1.864-0.408-0.45-2.181-0.384-1.757,0.404,1.474,2.737-3.06,1.77-1.281-0.273,1.089-1.251,3.7-1.521,4.899-0.315,0.841,0.846,0.538,2.473,0.538,3.58,0,0.361-0.122,3.207,0.75,2.012,0.687,0.334-0.807,1.194-1.182,1.26-0.847,0.15-1.65-0.239-1.748-1.151zm0-0.57v-2.445c-0.707,0.415-1.711,1.112-1.711,2.039,0,1.099,1.145,0.887,1.711,0.406z"/>
</g>
</svg>

