<?xml version="1.0" encoding="UTF-8" standalone="no"?>

<svg xmlns:rdf="http://www.w3.org/1999/02/22-rdf-syntax-ns#" 
xmlns="http://www.w3.org/2000/svg" 
enable-background="new 0 0 239.95 263.368" 
xml:space="preserve" 
height="263.368px" 
viewBox="0 0 239.95 263.368" 
width="239.95px" 
version="1.1" 
y="0px" 
x="0px" 
>

<metadata>
</metadata>

<path stroke-linejoin="round" d="M237.056,130.333c0,25.086-8.508,49.723-23.918,69.51-15.197,19.514-36.62,33.838-60.435,40.495-24.817,6.938-51.788,5.502-75.699-4.118-22.827-9.184-42.499-25.659-55.425-46.607-13.292-21.541-18.971-47.284-16.049-72.424,2.867-24.662,14.063-47.939,31.324-65.757,17.344-17.904,40.356-29.893,64.954-33.901,25.352-4.131,51.825,0.147,74.486,12.272,21.646,11.582,39.402,30.036,49.924,52.236,7.136,15.054,10.838,31.636,10.838,48.294z" stroke="#000000" stroke-width="2.8" fill="none"/>
<path d="M0,123.803h15.605,39.594,52.753,55.082,46.58,27.248,2.522c0.872,0,0.554,0.316,0.554,1.277v11.865c0,0.882,0.119,0.813-0.649,0.813h-21.133-43.01-54.057-54.274-43.66-22.216c-1.155,0-0.938,0.057-0.938-1.277-0.001-4.226-0.001-8.452-0.001-12.678z" fill="#FFFFFF"/>
<path stroke="#000000" stroke-width="1.4" d="M237.2,125.345c-0.793-1.386-1.587-2.772-2.38-4.159,1.477-0.137,2.953-0.275,4.43-0.412-0.684,1.524-1.367,3.047-2.05,4.571z"/>
<path stroke="#000000" stroke-width="1.4" d="M4.912,136.464c0.793,1.386,1.587,2.772,2.38,4.159-1.477,0.137-2.953,0.275-4.43,0.412,0.683-1.523,1.367-3.047,2.05-4.571z"/>
<g>
	<path d="M75.591,5.859c0,1.214-0.638,4.805,1.148,4.805,0.013,0.006,0.689,0.289,0.281,0.289h-0.901-3.371-1.041c-0.256,0-0.234-0.289,0.021-0.289,1.313,0,1.316-0.783,1.316-1.854v-5.842c0-0.561,0.177-1.6-0.216-2.003-0.277-0.283-1.276-0.222-1.276-0.462,0-0.261,0.35-0.145,0.576-0.145,0.573,0,4.963-0.155,4.963,0.145,0,0.267-1.004,0.139-1.275,0.457-0.297,0.348-0.225,0.905-0.225,1.326v2.77c0,0.21,3.742,0.21,3.742,0,0-0.963,0.495-4.104-0.748-4.371,0.058,0.013-1.185-0.037-0.744-0.327,0.097-0.064,0.466,0,0.575,0h2.74,2.145c0.158,0,0.121,0.289-0.101,0.289-0.541,0-1.188,0.087-1.282,0.732-0.215,1.468-0.038,3.075-0.038,4.551,0,0.807-0.431,3.76,0.217,4.416,0.302,0.306,1.124,0.13,1.275,0.317,0.222,0.276-0.129,0.289-0.269,0.289h-2.497s-1.665,0-2.497,0c-0.199,0-0.269,0.07-0.269-0.145,0-0.268,0.996-0.139,1.268-0.457,0.69-0.808,0.225-3.495,0.225-4.492-1.248,0.001-2.495,0.001-3.742,0.001z"/>
	<path d="M85.95,0.109c1.564,0,1.565,2.414,0,2.414-1.558,0-1.554-2.414,0-2.414zm1.094,3.539v5.646c0,0.39-0.075,1.039,0.338,1.254,0.156,0.081,0.952,0.405,0.345,0.405h-3.401c-0.556,0-0.367-0.185,0.078-0.359,0.548-0.214,0.453-0.874,0.453-1.355v-3.55c0-0.425,0.042-0.892-0.08-1.3-0.061-0.204-1.189-0.74-0.678-0.74,0.981-0.001,1.963-0.001,2.945-0.001z"/>
	<path d="M91.458,10.211c0,0.902-0.05,1.818,0,2.719,0,0.358-0.025,0.867,0.367,1.063,0.128,0.064,1.087,0.041,0.734,0.383-0.127,0.123-0.992,0-1.161,0-0.41,0-2.755,0.295-3.003,0-0.285-0.338,0.569-0.398,0.719-0.563,0.187-0.215,0.156-0.698,0.156-0.943v-0.898-6.75c0-0.274,0-0.567-0.08-0.834-0.134-0.45-0.795-0.273-0.795-0.596,0-0.297,0.88-0.145,1.13-0.145h1.815c0.253,0,0.117,0.739,0.117,0.961,0.707-1.039,1.987-1.529,3.149-0.894,1.379,0.754,1.769,2.538,1.673,3.986-0.162,2.447-2.713,4.926-4.821,2.511zm0-0.789c2.651,3.761,3.81-5.039,1.297-5.039-1.973,0-1.297,3.878-1.297,5.039z"/>
	<path d="M103.723,7.039h-4.008c0.049,1.007,0.379,2.289,1.367,2.783,0.491,0.245,1.1,0.212,1.555-0.1,0.215-0.147,0.904-1.288,1.086-0.77-1.016,2.072-3.887,3.288-5.438,0.969-1.246-1.869-0.839-5.013,1.226-6.139,2.43-1.324,4.136,1.054,4.212,3.257zm-1.921-0.523c0-0.751,0.088-1.892-0.563-2.438-0.804-0.689-1.387,0.722-1.489,1.278-0.152,0.828-0.312,1.16,0.477,1.16h1.575z"/>
	<path d="M107.661,3.648v1.656c0.421-0.656,0.903-1.371,1.634-1.71,0.934-0.433,1.831,0.116,1.627,1.189-0.365,1.921-2.332-0.939-3.011,1.099-0.359,1.088-0.269,2.331-0.248,3.465,0.014,0.76,0.058,1.276,0.959,1.324,0.024,0.403-0.159,0.281-0.519,0.281h-3.083c-0.535,0-0.392-0.184,0.056-0.366,0.515-0.209,0.413-1.011,0.413-1.447v-3.208c0-0.367,0.009-0.737-0.007-1.104-0.032-0.723-0.849-0.736-0.806-1.181,0.996,0.002,1.99,0.002,2.985,0.002z"/>
	<path d="M113.481,0.109c1.564,0,1.565,2.414,0,2.414-1.557,0-1.553-2.414,0-2.414zm1.094,3.539v5.646c0,0.39-0.075,1.039,0.338,1.254,0.156,0.081,0.952,0.405,0.345,0.405h-3.401c-0.556,0-0.367-0.185,0.078-0.359,0.548-0.214,0.453-0.874,0.453-1.355v-3.55c0-0.425,0.042-0.892-0.08-1.3-0.061-0.204-1.189-0.74-0.678-0.74,0.982-0.001,1.963-0.001,2.945-0.001z"/>
	<path d="M119.145,3.648v0.945c0.987-1.07,2.996-1.878,3.853-0.158,0.434,0.87,0.264,2.028,0.264,2.98,0,0.773-0.033,1.554,0.01,2.326,0.046,0.832,1.444,1.212,0.202,1.212h-2.734c-0.24,0-0.507,0.076-0.384-0.281,0.734-0.097,0.719-0.758,0.719-1.341,0-0.885,0.478-4.114-0.309-4.717-0.859-0.659-1.621,0.689-1.621,1.392v2.982c0,0.283-0.006,0.57,0.017,0.852,0.034,0.416,0.802,0.993,0.702,1.114-0.195,0.234-2.076,0-2.395,0-0.434,0-2.025,0.127-0.906-0.379,0.621-0.281,0.395-1.547,0.395-2.129v-2.88c0-0.334,0.011-0.672-0.038-1.003-0.085-0.573-0.872-0.443-0.751-0.914,0.992-0.001,1.984-0.001,2.976-0.001z"/>
	<path d="M127.966,0.977c0,0.674-0.387,2.672,0.375,2.672,0.44,0,1.36-0.25,1.36,0.272,0,0.813-0.625,0.501-1.36,0.501-0.527,0-0.375,0.144-0.375,0.654v2.267,1.566c0,1.196,0.797,1.675,1.5,0.474,0.653,0.258-0.538,1.298-0.865,1.461-0.905,0.452-2.111,0.178-2.617-0.731-0.478-0.859-0.205-2.477-0.205-3.45v-1.897c0-0.511-0.2-0.344-0.706-0.344-0.826,0,0.923-1.213,1.14-1.431,0.352-0.353,1.352-2.107,1.753-2.014z"/>
	<path d="M136.598,7.039h-4.008c0.049,1.007,0.379,2.289,1.367,2.783,0.491,0.245,1.1,0.212,1.555-0.1,0.215-0.147,0.904-1.288,1.086-0.77-1.016,2.072-3.887,3.288-5.438,0.969-1.246-1.869-0.839-5.013,1.226-6.139,2.43-1.324,4.136,1.054,4.212,3.257zm-1.921-0.523c0-0.751,0.088-1.892-0.563-2.438-0.804-0.689-1.387,0.722-1.489,1.278-0.152,0.828-0.312,1.16,0.477,1.16h1.575z"/>
	<path d="M140.489,3.648v0.945c0.987-1.07,2.996-1.878,3.853-0.158,0.434,0.87,0.264,2.028,0.264,2.98,0,0.773-0.033,1.554,0.01,2.326,0.046,0.832,1.444,1.212,0.202,1.212h-2.734c-0.24,0-0.507,0.076-0.384-0.281,0.734-0.097,0.719-0.758,0.719-1.341,0-0.885,0.478-4.114-0.309-4.717-0.859-0.659-1.621,0.689-1.621,1.392v2.982c0,0.283-0.006,0.57,0.017,0.852,0.034,0.416,0.802,0.993,0.702,1.114-0.195,0.234-2.076,0-2.395,0-0.434,0-2.025,0.127-0.906-0.379,0.621-0.281,0.395-1.547,0.395-2.129v-2.88c0-0.334,0.011-0.672-0.038-1.003-0.085-0.573-0.872-0.443-0.751-0.914,0.992-0.001,1.984-0.001,2.976-0.001z"/>
	<path d="M152.372,9.07c0.967,0.417-1.777,2.005-2.252,2.072-1.526,0.214-2.811-0.698-3.353-2.098-1.049-2.712,1.066-6.726,4.352-5.409,0.99,0.397,2.109,2.615,0.3,2.615-0.81,0-1.071-0.709-1.133-1.391-0.07-0.731-0.752-1.29-1.289-0.484-1.437,2.128,0.724,7.601,3.375,4.695z"/>
	<path d="M155.263,0.109c1.564,0,1.565,2.414,0,2.414-1.558,0-1.554-2.414,0-2.414zm1.093,3.539v5.646c0,0.39-0.075,1.039,0.338,1.254,0.156,0.081,0.952,0.405,0.345,0.405h-3.401c-0.556,0-0.367-0.185,0.078-0.359,0.548-0.214,0.453-0.874,0.453-1.355v-3.55c0-0.425,0.042-0.892-0.08-1.3-0.061-0.204-1.189-0.74-0.678-0.74,0.982-0.001,1.964-0.001,2.945-0.001z"/>
	<path d="M161.388,3.43c4.758,0,4.463,8.174-0.377,7.724-4.225-0.393-3.902-7.744,0.377-7.724zm0.031,0.554c-1.403,0-1.137,2.57-1.146,3.446-0.007,0.665,0.059,4.375,1.701,3.007,0.765-0.667,0.553-2.374,0.561-3.259,0.006-0.813,0.251-3.214-1.116-3.194zm2.367-3.984c-0.855,0.896-1.949,2.773-3.258,2.711,0.289-0.865,0.578-1.73,0.867-2.594,0.111-0.332,1.998-0.117,2.391-0.117z"/>
	<path d="M168.927,3.648v0.945c0.987-1.07,2.996-1.878,3.853-0.158,0.434,0.87,0.264,2.028,0.264,2.98,0,0.773-0.033,1.554,0.01,2.326,0.046,0.832,1.444,1.212,0.202,1.212h-2.734c-0.24,0-0.507,0.076-0.384-0.281,0.734-0.097,0.719-0.758,0.719-1.341,0-0.885,0.478-4.114-0.309-4.717-0.859-0.659-1.621,0.689-1.621,1.392v2.982c0,0.283-0.006,0.57,0.017,0.852,0.034,0.416,0.802,0.993,0.702,1.114-0.195,0.234-2.076,0-2.395,0-0.434,0-2.025,0.127-0.906-0.379,0.621-0.281,0.395-1.547,0.395-2.129v-2.88c0-0.334,0.011-0.672-0.038-1.003-0.085-0.573-0.872-0.443-0.751-0.914,0.991-0.001,1.983-0.001,2.976-0.001z"/>
</g>
<g>
	<path d="M79.031,254.852c0,1.214-0.638,4.805,1.148,4.805,0.013,0.006,0.689,0.289,0.281,0.289h-0.901-3.371-1.041c-0.256,0-0.234-0.289,0.021-0.289,1.313,0,1.316-0.783,1.316-1.854v-5.842c0-0.561,0.177-1.6-0.216-2.003-0.277-0.283-1.276-0.222-1.276-0.462,0-0.261,0.35-0.145,0.576-0.145,0.573,0,4.963-0.155,4.963,0.145,0,0.267-1.004,0.139-1.275,0.457-0.297,0.348-0.225,0.905-0.225,1.326v2.77c0,0.21,3.742,0.21,3.742,0v-2.638c0-0.404,0.073-0.887-0.086-1.263-0.275-0.651-1.166-0.21-1.406-0.508-0.356-0.442,1.301-0.289,1.434-0.289h3.334,0.745c0.023,0,0.034,0.268,0.018,0.289-0.002,0.002-0.867,0.064-0.764,0.041-0.907,0.201-0.729,1.232-0.729,1.949v5.88c0,0.646-0.201,1.627,0.438,1.993,0.043,0.025,1.43,0.195,1.055,0.441-0.097,0.064-0.466,0-0.575,0-0.572,0-4.956,0.155-4.956-0.145,0-0.268,0.996-0.139,1.268-0.457,0.297-0.347,0.225-0.904,0.225-1.323v-2.755c0-0.697-0.582-0.414-1.215-0.414-0.844,0.002-1.686,0.002-2.528,0.002z"/>
	<path d="M89.39,249.102c1.564,0,1.565,2.414,0,2.414-1.557,0-1.554-2.414,0-2.414zm1.094,3.539v4.885c0,0.527-0.181,1.745,0.338,2.016,0.055,0.029,0.922,0.405,0.453,0.405h-1.349-2.481c-0.041,0-0.037-0.248-0.024-0.281,0.318-0.01,0.71-0.12,0.806-0.467,0.112-0.404,0.069-0.865,0.069-1.284v-3.029c0-0.239,0.012-0.481,0-0.719,0-0.277,0.02-0.749-0.18-0.988-0.253-0.303-0.821-0.032-0.695-0.535,1.021-0.003,2.042-0.003,3.063-0.003z"/>
	<path d="M94.898,259.204c0,0.902-0.05,1.818,0,2.719,0,0.358-0.025,0.867,0.367,1.063,0.128,0.064,1.087,0.041,0.734,0.383-0.127,0.123-0.992,0-1.161,0-0.41,0-2.755,0.295-3.003,0-0.285-0.338,0.569-0.398,0.719-0.563,0.187-0.215,0.156-0.698,0.156-0.943v-0.898-6.75c0-0.274,0-0.567-0.08-0.834-0.134-0.45-0.795-0.273-0.795-0.596,0-0.297,0.88-0.145,1.13-0.145h1.815c0.253,0,0.117,0.739,0.117,0.961,0.707-1.039,1.987-1.529,3.149-0.894,1.379,0.754,1.769,2.538,1.673,3.986-0.16,2.418-2.733,4.963-4.821,2.511zm0-0.789c2.651,3.761,3.81-5.039,1.297-5.039-1.973,0-1.297,3.878-1.297,5.039z"/>
	<path d="M107.164,256.032h-4.008c0.049,1.008,0.379,2.289,1.367,2.783,0.491,0.245,1.1,0.212,1.555-0.1,0.215-0.147,0.904-1.288,1.086-0.77-1.016,2.072-3.887,3.288-5.438,0.969-1.246-1.869-0.839-5.013,1.226-6.139,2.429-1.324,4.135,1.054,4.212,3.257zm-1.922-0.523c0-0.751,0.088-1.892-0.563-2.438-0.804-0.689-1.387,0.721-1.489,1.278-0.152,0.828-0.312,1.16,0.477,1.16h1.575z"/>
	<path d="M111.101,252.641v1.656c0.421-0.656,0.903-1.371,1.634-1.71,0.934-0.433,1.831,0.116,1.627,1.189-0.365,1.921-2.332-0.939-3.011,1.099-0.359,1.088-0.269,2.331-0.248,3.465,0.014,0.76,0.058,1.276,0.959,1.324,0.024,0.403-0.159,0.281-0.519,0.281h-3.083c-0.535,0-0.392-0.184,0.056-0.366,0.515-0.209,0.413-1.011,0.413-1.447v-3.208c0-0.367,0.009-0.737-0.007-1.104-0.032-0.723-0.849-0.736-0.806-1.181,0.996,0.002,1.99,0.002,2.985,0.002z"/>
	<path d="M118.195,252.641v1.656c0.421-0.656,0.903-1.371,1.634-1.71,0.934-0.433,1.831,0.116,1.627,1.189-0.365,1.921-2.332-0.939-3.011,1.099-0.359,1.088-0.269,2.331-0.248,3.465,0.014,0.76,0.058,1.276,0.959,1.324,0.024,0.403-0.159,0.281-0.519,0.281h-3.083c-0.535,0-0.392-0.184,0.056-0.366,0.515-0.209,0.413-1.011,0.413-1.447v-3.208c0-0.367,0.009-0.737-0.007-1.104-0.032-0.723-0.849-0.736-0.806-1.181,0.995,0.002,1.99,0.002,2.985,0.002z"/>
	<path d="M128.445,256.032h-4.008c0.049,1.008,0.379,2.289,1.367,2.783,0.491,0.245,1.1,0.212,1.555-0.1,0.215-0.147,0.904-1.288,1.086-0.77-1.016,2.072-3.887,3.288-5.438,0.969-1.246-1.869-0.839-5.013,1.226-6.139,2.43-1.324,4.135,1.054,4.212,3.257zm-1.922-0.523c0-0.751,0.088-1.892-0.563-2.438-0.804-0.689-1.387,0.721-1.489,1.278-0.152,0.828-0.312,1.16,0.477,1.16h1.575z"/>
	<path d="M132.554,253.407v4.472c0,0.656-0.182,1.637,0.677,1.767,1.252,0.19-0.636,0.3-0.961,0.3h-2.624c-0.142,0-0.543,0.022-0.319-0.281,0.856-0.013,1.062-0.406,1.062-1.188,0.077-1.54,0-3.101,0-4.643,0-0.944-0.618,0.06-1.063-0.427-0.038-0.042-0.038-0.723,0-0.766,0.162-0.178,0.897,0.175,1.063,0,0.102-0.109-0.02-0.739-0.008-0.906,0-0.851,0.41-1.626,1.115-2.104,0.831-0.564,3.83-1.054,3.83,0.635,0,0.701-0.842,1.003-1.419,0.814-0.894-0.293-0.084-1.032-0.534-1.408-0.946-0.887-0.825,1.673-0.821,1.98,0.012,1.056-0.068,0.988,0.999,0.988,0.117,0,0.162,0.675,0.08,0.766-0.101,0.114-0.902,0.001-1.077,0.001z"/>
	<path d="M137.554,249.352v7.711,1.269c0,0.293-0.005,0.597,0.08,0.881,0.127,0.423,0.803,0.324,0.803,0.592,0,0.293-3.141,0.141-3.601,0.141-0.952,0,0.369-0.411,0.462-0.748,0.128-0.463,0.069-1.036,0.069-1.519v-4.768c0-0.916,0.393-3.193-0.875-3.27-0.195-0.472,2.6-0.289,3.062-0.289z"/>
	<path d="M145.32,256.032h-4.008c0.049,1.008,0.379,2.289,1.367,2.783,0.491,0.245,1.1,0.212,1.555-0.1,0.215-0.147,0.904-1.288,1.086-0.77-1.016,2.072-3.887,3.288-5.438,0.969-1.302-1.953-0.796-5.371,1.557-6.293,2.372-0.93,3.816,1.336,3.881,3.411zm-1.922-0.523c0-0.751,0.088-1.892-0.563-2.438-0.804-0.689-1.387,0.721-1.489,1.278-0.152,0.828-0.312,1.16,0.477,1.16h1.575z"/>
	<path d="M150.546,255.47c0.422,0.802,0.836,1.608,1.266,2.406,0.333,0.638,0.764,1.753,1.617,1.789,0.136,0.454-0.46,0.281-0.743,0.281h-3.303c-0.355,0,0.466-0.354,0.361-0.332,0.541-0.115,0.23-0.691,0.067-0.996-0.183-0.406-0.423-0.794-0.633-1.188-0.393,0.575-1.809,2.234-0.266,2.234,0.194,0.5-2.046,0.281-2.413,0.281-0.428,0-0.748-0.188-0.103-0.314,0.761-0.148,1.222-0.819,1.644-1.408,0.172-0.24,0.866-0.995,0.872-1.278,0.005-0.269-0.441-0.817-0.566-1.048-0.466-0.862-1.003-2.483-1.936-2.88-1.21-0.515,1.299-0.377,1.666-0.377h1.671c0.265,0,0.572,0.281,0.247,0.293-1.18,0.045-0.023,1.535,0.254,2.051,0.381-0.537,1.594-1.911,0.297-2.055-0.066-0.566,1.401-0.289,1.832-0.289,0.081,0,0.699-0.068,0.754,0,0.254,0.315-0.887,0.552-1.104,0.753-0.607,0.565-1.03,1.386-1.481,2.077z"/>
	<path d="M155.984,249.102c1.564,0,1.565,2.414,0,2.414-1.558,0-1.554-2.414,0-2.414zm1.094,3.539v4.885c0,0.527-0.181,1.745,0.338,2.016,0.055,0.029,0.922,0.405,0.453,0.405h-1.349-2.481c-0.041,0-0.037-0.248-0.024-0.281,0.318-0.01,0.71-0.12,0.806-0.467,0.112-0.404,0.069-0.865,0.069-1.284v-3.029c0-0.239,0.012-0.481,0-0.719,0-0.277,0.02-0.749-0.18-0.988-0.253-0.303-0.821-0.032-0.695-0.535,1.021-0.003,2.042-0.003,3.063-0.003z"/>
	<path d="M162.109,252.423c4.555,0,4.568,7.742,0.023,7.742-4.529,0-4.514-7.742-0.023-7.742zm0.031,0.554c-1.403,0-1.137,2.57-1.146,3.446-0.007,0.665,0.059,4.375,1.701,3.007,0.765-0.667,0.553-2.374,0.561-3.259,0.006-0.813,0.251-3.214-1.116-3.194zm2.367-3.984c-0.855,0.896-1.949,2.773-3.258,2.711,0.289-0.865,0.578-1.73,0.867-2.594,0.112-0.332,1.998-0.117,2.391-0.117z"/>
	<path d="M169.648,252.641v0.945c1.072-1.162,3.43-1.896,3.992,0.211,0.27,0.961,0.125,2.136,0.125,3.133,0,0.589-0.212,1.977,0.152,2.473,0.028,0.038,1.045,0.543,0.533,0.543h-1.468c-0.31,0-2.124,0.159-2.124-0.141,0-0.299,0.417-0.2,0.594-0.484,0.158-0.247,0.125-0.704,0.125-0.969,0.013-0.363,0-0.729,0-1.092,0-0.855,0.016-1.711-0.004-2.565-0.011-0.457-0.011-1.217-0.675-1.217-0.47,0-1.25,0.563-1.25,1.061v2.8,0.989c0,0.268,0.003,0.585,0.068,0.852,0.099,0.41,0.651,0.335,0.651,0.627,0,0.3-1.814,0.141-2.124,0.141h-1.347c-0.71,0,0.329-0.446,0.432-0.578,0.315-0.408,0.133-1.657,0.133-2.166v-2.887c0-0.323,0.057-0.84-0.152-1.119-0.036-0.048-1.073-0.555-0.509-0.555h2.815c0.011-0.002,0.022-0.002,0.033-0.002z"/>
</g>
</svg>

